M48
; DRILL file {KiCad 8.0.6} date 2024-12-04T18:46:32+0100
; FORMAT={-:-/ absolute / metric / decimal}
; #@! TF.CreationDate,2024-12-04T18:46:32+01:00
; #@! TF.GenerationSoftware,Kicad,Pcbnew,8.0.6
; #@! TF.FileFunction,Plated,1,2,PTH
FMAT,2
METRIC
; #@! TA.AperFunction,Plated,PTH,ComponentDrill
T1C0.400
; #@! TA.AperFunction,Plated,PTH,ComponentDrill
T2C0.900
; #@! TA.AperFunction,Plated,PTH,ComponentDrill
T3C1.000
; #@! TA.AperFunction,Plated,PTH,ComponentDrill
T4C1.100
; #@! TA.AperFunction,Plated,PTH,ComponentDrill
T5C1.270
%
G90
G05
T1
X117.348Y-124.074
X118.618Y-127.884
X125.222Y-96.595
X126.492Y-100.405
X132.334Y-70.485
X133.604Y-74.295
X138.25Y-82.095
X139.52Y-85.905
X149.86Y-48.857
X149.86Y-113.03
X149.87Y-63.595
X151.13Y-52.667
X151.13Y-116.84
X151.14Y-67.405
X161.37Y-82.095
X162.64Y-85.905
X167.64Y-70.485
X168.91Y-74.295
X174.498Y-96.595
X175.768Y-100.405
X182.626Y-124.074
X183.896Y-127.884
T2
X116.078Y-125.979
X117.348Y-125.979
X118.618Y-125.979
X119.888Y-125.979
X123.952Y-98.5
X125.222Y-98.5
X126.492Y-98.5
X127.762Y-98.5
X131.064Y-72.39
X132.334Y-72.39
X133.604Y-72.39
X134.874Y-72.39
X136.98Y-84.0
X138.25Y-84.0
X139.52Y-84.0
X140.79Y-84.0
X148.59Y-50.762
X148.59Y-114.935
X148.6Y-65.5
X149.86Y-50.762
X149.86Y-114.935
X149.87Y-65.5
X151.13Y-50.762
X151.13Y-114.935
X151.14Y-65.5
X152.4Y-50.762
X152.4Y-114.935
X152.41Y-65.5
X160.1Y-84.0
X161.37Y-84.0
X162.64Y-84.0
X163.91Y-84.0
X166.37Y-72.39
X167.64Y-72.39
X168.91Y-72.39
X170.18Y-72.39
X173.228Y-98.5
X174.498Y-98.5
X175.768Y-98.5
X177.038Y-98.5
X181.356Y-125.979
X182.626Y-125.979
X183.896Y-125.979
X185.166Y-125.979
T3
X140.32Y-120.12
X140.32Y-122.66
X140.32Y-125.2
X140.32Y-127.74
X140.32Y-130.28
X140.32Y-132.82
X140.32Y-135.36
X140.32Y-137.9
X160.64Y-120.12
X160.64Y-122.66
X160.64Y-125.2
X160.64Y-127.74
X160.64Y-130.28
X160.64Y-132.82
X160.64Y-135.36
X160.64Y-137.9
T4
X147.245Y-95.413
X147.245Y-99.913
X153.745Y-95.413
X153.745Y-99.913
T5
X142.86Y-120.12
X142.86Y-122.66
X142.86Y-125.2
X142.86Y-127.74
X142.86Y-130.28
X142.86Y-132.82
X142.86Y-135.36
X142.86Y-137.9
X158.1Y-120.12
X158.1Y-122.66
X158.1Y-125.2
X158.1Y-127.74
X158.1Y-130.28
X158.1Y-132.82
X158.1Y-135.36
X158.1Y-137.9
M30
