G04 #@! TF.GenerationSoftware,KiCad,Pcbnew,8.0.6*
G04 #@! TF.CreationDate,2024-11-19T00:42:57+01:00*
G04 #@! TF.ProjectId,christmas_soldering_kit_2024,63687269-7374-46d6-9173-5f736f6c6465,rev?*
G04 #@! TF.SameCoordinates,Original*
G04 #@! TF.FileFunction,Soldermask,Bot*
G04 #@! TF.FilePolarity,Negative*
%FSLAX46Y46*%
G04 Gerber Fmt 4.6, Leading zero omitted, Abs format (unit mm)*
G04 Created by KiCad (PCBNEW 8.0.6) date 2024-11-19 00:42:57*
%MOMM*%
%LPD*%
G01*
G04 APERTURE LIST*
G04 Aperture macros list*
%AMRoundRect*
0 Rectangle with rounded corners*
0 $1 Rounding radius*
0 $2 $3 $4 $5 $6 $7 $8 $9 X,Y pos of 4 corners*
0 Add a 4 corners polygon primitive as box body*
4,1,4,$2,$3,$4,$5,$6,$7,$8,$9,$2,$3,0*
0 Add four circle primitives for the rounded corners*
1,1,$1+$1,$2,$3*
1,1,$1+$1,$4,$5*
1,1,$1+$1,$6,$7*
1,1,$1+$1,$8,$9*
0 Add four rect primitives between the rounded corners*
20,1,$1+$1,$2,$3,$4,$5,0*
20,1,$1+$1,$4,$5,$6,$7,0*
20,1,$1+$1,$6,$7,$8,$9,0*
20,1,$1+$1,$8,$9,$2,$3,0*%
%AMFreePoly0*
4,1,6,1.000000,0.000000,0.500000,-0.750000,-0.500000,-0.750000,-0.500000,0.750000,0.500000,0.750000,1.000000,0.000000,1.000000,0.000000,$1*%
%AMFreePoly1*
4,1,6,0.500000,-0.750000,-0.650000,-0.750000,-0.150000,0.000000,-0.650000,0.750000,0.500000,0.750000,0.500000,-0.750000,0.500000,-0.750000,$1*%
G04 Aperture macros list end*
%ADD10O,1.070000X1.800000*%
%ADD11R,1.070000X1.800000*%
%ADD12O,1.700000X1.700000*%
%ADD13R,1.700000X1.700000*%
%ADD14O,1.600000X1.600000*%
%ADD15R,1.600000X1.600000*%
%ADD16C,2.000000*%
%ADD17FreePoly0,180.000000*%
%ADD18FreePoly1,180.000000*%
%ADD19R,1.000000X1.500000*%
%ADD20O,1.950000X1.700000*%
%ADD21RoundRect,0.250000X0.725000X-0.600000X0.725000X0.600000X-0.725000X0.600000X-0.725000X-0.600000X0*%
%ADD22RoundRect,0.250000X-0.725000X0.600000X-0.725000X-0.600000X0.725000X-0.600000X0.725000X0.600000X0*%
%ADD23C,1.600000*%
%ADD24C,2.109000*%
G04 APERTURE END LIST*
D10*
X185410000Y-126500000D03*
X184140000Y-126500000D03*
X182870000Y-126500000D03*
D11*
X181600000Y-126500000D03*
D12*
X140340000Y-137880000D03*
X140340000Y-135340000D03*
X140340000Y-132800000D03*
X140340000Y-130260000D03*
X140340000Y-127720000D03*
X140340000Y-125180000D03*
X140340000Y-122640000D03*
D13*
X140340000Y-120100000D03*
D12*
X160660000Y-137880000D03*
X160660000Y-135340000D03*
X160660000Y-132800000D03*
X160660000Y-130260000D03*
X160660000Y-127720000D03*
X160660000Y-125180000D03*
X160660000Y-122640000D03*
D13*
X160660000Y-120100000D03*
D14*
X154320000Y-131250000D03*
X154320000Y-128710000D03*
X154320000Y-126170000D03*
X154320000Y-123630000D03*
X146700000Y-123630000D03*
X146700000Y-126170000D03*
X146700000Y-128710000D03*
D15*
X146700000Y-131250000D03*
D16*
X147250000Y-94750000D03*
X153750000Y-94750000D03*
X147250000Y-90250000D03*
X153750000Y-90250000D03*
D17*
X153950000Y-136000000D03*
D18*
X152500000Y-136000000D03*
D19*
X148800000Y-136000000D03*
X147500000Y-136000000D03*
X146200000Y-136000000D03*
D12*
X136500000Y-122445000D03*
X136500000Y-124985000D03*
D13*
X136500000Y-127525000D03*
D20*
X132450000Y-122525000D03*
X132450000Y-125025000D03*
D21*
X132450000Y-127525000D03*
D20*
X165500000Y-127500000D03*
X165500000Y-125000000D03*
D22*
X165500000Y-122500000D03*
D23*
X149205113Y-106500000D03*
D15*
X151705113Y-106500000D03*
D24*
X158120000Y-120100000D03*
X158120000Y-122640000D03*
X158120000Y-125180000D03*
X158120000Y-127720000D03*
X158120000Y-130260000D03*
X158120000Y-132800000D03*
X158120000Y-135340000D03*
X158120000Y-137880000D03*
X142880000Y-137880000D03*
X142880000Y-135340000D03*
X142880000Y-132800000D03*
X142880000Y-130260000D03*
X142880000Y-127720000D03*
X142880000Y-125180000D03*
X142880000Y-122640000D03*
X142880000Y-120100000D03*
D14*
X145420000Y-99750000D03*
D23*
X155580000Y-99750000D03*
D10*
X177270000Y-98500000D03*
X176000000Y-98500000D03*
X174730000Y-98500000D03*
D11*
X173460000Y-98500000D03*
X160100000Y-84000000D03*
D10*
X161370000Y-84000000D03*
X162640000Y-84000000D03*
X163910000Y-84000000D03*
X170770000Y-72500000D03*
X169500000Y-72500000D03*
X168230000Y-72500000D03*
D11*
X166960000Y-72500000D03*
D10*
X152410000Y-49000000D03*
X151140000Y-49000000D03*
X149870000Y-49000000D03*
D11*
X148600000Y-49000000D03*
D10*
X134270000Y-72500000D03*
X133000000Y-72500000D03*
X131730000Y-72500000D03*
D11*
X130460000Y-72500000D03*
D10*
X152410000Y-65500000D03*
X151140000Y-65500000D03*
X149870000Y-65500000D03*
D11*
X148600000Y-65500000D03*
D10*
X140790000Y-84000000D03*
X139520000Y-84000000D03*
X138250000Y-84000000D03*
D11*
X136980000Y-84000000D03*
X123730000Y-98500000D03*
D10*
X125000000Y-98500000D03*
X126270000Y-98500000D03*
X127540000Y-98500000D03*
D11*
X115730000Y-126500000D03*
D10*
X117000000Y-126500000D03*
X118270000Y-126500000D03*
X119540000Y-126500000D03*
X152410000Y-116250000D03*
X151140000Y-116250000D03*
X149870000Y-116250000D03*
D11*
X148600000Y-116250000D03*
M02*
