M48
; DRILL file {KiCad 8.0.6} date 2024-11-27T22:06:42+0100
; FORMAT={-:-/ absolute / metric / decimal}
; #@! TF.CreationDate,2024-11-27T22:06:42+01:00
; #@! TF.GenerationSoftware,Kicad,Pcbnew,8.0.6
; #@! TF.FileFunction,Plated,1,2,PTH
FMAT,2
METRIC
; #@! TA.AperFunction,Plated,PTH,ComponentDrill
T1C0.400
; #@! TA.AperFunction,Plated,PTH,ComponentDrill
T2C0.900
; #@! TA.AperFunction,Plated,PTH,ComponentDrill
T3C1.000
; #@! TA.AperFunction,Plated,PTH,ComponentDrill
T4C1.100
; #@! TA.AperFunction,Plated,PTH,ComponentDrill
T5C1.270
%
G90
G05
T1
X117.348Y-124.074
X118.618Y-127.884
X125.222Y-96.595
X126.492Y-100.405
X132.334Y-70.595
X133.604Y-74.405
X138.25Y-82.095
X139.52Y-85.905
X149.86Y-48.387
X149.86Y-113.03
X149.87Y-63.595
X151.13Y-52.197
X151.13Y-116.84
X151.14Y-67.405
X161.37Y-82.095
X162.64Y-85.905
X167.64Y-70.595
X168.91Y-74.405
X174.498Y-96.595
X175.768Y-100.405
X182.626Y-124.074
X183.896Y-127.884
T2
X116.078Y-125.979
X117.348Y-125.979
X118.618Y-125.979
X119.888Y-125.979
X123.952Y-98.5
X125.222Y-98.5
X126.492Y-98.5
X127.762Y-98.5
X131.064Y-72.5
X132.334Y-72.5
X133.604Y-72.5
X134.874Y-72.5
X136.98Y-84.0
X138.25Y-84.0
X139.52Y-84.0
X140.79Y-84.0
X148.59Y-50.292
X148.59Y-114.935
X148.6Y-65.5
X149.86Y-50.292
X149.86Y-114.935
X149.87Y-65.5
X151.13Y-50.292
X151.13Y-114.935
X151.14Y-65.5
X152.4Y-50.292
X152.4Y-114.935
X152.41Y-65.5
X160.1Y-84.0
X161.37Y-84.0
X162.64Y-84.0
X163.91Y-84.0
X166.37Y-72.5
X167.64Y-72.5
X168.91Y-72.5
X170.18Y-72.5
X173.228Y-98.5
X174.498Y-98.5
X175.768Y-98.5
X177.038Y-98.5
X181.356Y-125.979
X182.626Y-125.979
X183.896Y-125.979
X185.166Y-125.979
T3
X140.34Y-119.6
X140.34Y-122.14
X140.34Y-124.68
X140.34Y-127.22
X140.34Y-129.76
X140.34Y-132.3
X140.34Y-134.84
X140.34Y-137.38
X160.66Y-119.6
X160.66Y-122.14
X160.66Y-124.68
X160.66Y-127.22
X160.66Y-129.76
X160.66Y-132.3
X160.66Y-134.84
X160.66Y-137.38
T4
X147.245Y-95.413
X147.245Y-99.913
X153.745Y-95.413
X153.745Y-99.913
T5
X142.88Y-119.6
X142.88Y-122.14
X142.88Y-124.68
X142.88Y-127.22
X142.88Y-129.76
X142.88Y-132.3
X142.88Y-134.84
X142.88Y-137.38
X158.12Y-119.6
X158.12Y-122.14
X158.12Y-124.68
X158.12Y-127.22
X158.12Y-129.76
X158.12Y-132.3
X158.12Y-134.84
X158.12Y-137.38
M30
