G04 #@! TF.GenerationSoftware,KiCad,Pcbnew,8.0.6*
G04 #@! TF.CreationDate,2024-12-04T18:46:27+01:00*
G04 #@! TF.ProjectId,christmas_soldering_kit_2024,63687269-7374-46d6-9173-5f736f6c6465,rev?*
G04 #@! TF.SameCoordinates,Original*
G04 #@! TF.FileFunction,Soldermask,Bot*
G04 #@! TF.FilePolarity,Negative*
%FSLAX46Y46*%
G04 Gerber Fmt 4.6, Leading zero omitted, Abs format (unit mm)*
G04 Created by KiCad (PCBNEW 8.0.6) date 2024-12-04 18:46:27*
%MOMM*%
%LPD*%
G01*
G04 APERTURE LIST*
%ADD10C,2.200000*%
%ADD11C,0.900000*%
%ADD12R,1.400000X2.200000*%
%ADD13C,0.550000*%
%ADD14O,1.400000X2.200000*%
%ADD15R,1.700000X1.700000*%
%ADD16O,1.700000X1.700000*%
%ADD17C,2.109000*%
%ADD18C,2.000000*%
G04 APERTURE END LIST*
D10*
X150495000Y-45466000D03*
D11*
X160100000Y-84000000D03*
D12*
X160100000Y-85900000D03*
D13*
X161370000Y-82095000D03*
D14*
X161370000Y-82100000D03*
D11*
X161370000Y-84000000D03*
X162640000Y-84000000D03*
D14*
X162640000Y-85900000D03*
D13*
X162640000Y-85905000D03*
D14*
X163910000Y-82100000D03*
D11*
X163910000Y-84000000D03*
X173228000Y-98500000D03*
D12*
X173228000Y-100400000D03*
D13*
X174498000Y-96595000D03*
D14*
X174498000Y-96600000D03*
D11*
X174498000Y-98500000D03*
X175768000Y-98500000D03*
D14*
X175768000Y-100400000D03*
D13*
X175768000Y-100405000D03*
D14*
X177038000Y-96600000D03*
D11*
X177038000Y-98500000D03*
X136980000Y-84000000D03*
D12*
X136980000Y-85900000D03*
D13*
X138250000Y-82095000D03*
D14*
X138250000Y-82100000D03*
D11*
X138250000Y-84000000D03*
X139520000Y-84000000D03*
D14*
X139520000Y-85900000D03*
D13*
X139520000Y-85905000D03*
D14*
X140790000Y-82100000D03*
D11*
X140790000Y-84000000D03*
X152400000Y-50762000D03*
D14*
X152400000Y-48862000D03*
D13*
X151130000Y-52667000D03*
D14*
X151130000Y-52662000D03*
D11*
X151130000Y-50762000D03*
X149860000Y-50762000D03*
D14*
X149860000Y-48862000D03*
D13*
X149860000Y-48857000D03*
D12*
X148590000Y-52662000D03*
D11*
X148590000Y-50762000D03*
X123952000Y-98500000D03*
D12*
X123952000Y-100400000D03*
D13*
X125222000Y-96595000D03*
D14*
X125222000Y-96600000D03*
D11*
X125222000Y-98500000D03*
X126492000Y-98500000D03*
D14*
X126492000Y-100400000D03*
D13*
X126492000Y-100405000D03*
D14*
X127762000Y-96600000D03*
D11*
X127762000Y-98500000D03*
X116078000Y-125979000D03*
D12*
X116078000Y-127879000D03*
D13*
X117348000Y-124074000D03*
D14*
X117348000Y-124079000D03*
D11*
X117348000Y-125979000D03*
X118618000Y-125979000D03*
D14*
X118618000Y-127879000D03*
D13*
X118618000Y-127884000D03*
D14*
X119888000Y-124079000D03*
D11*
X119888000Y-125979000D03*
X166370000Y-72390000D03*
D12*
X166370000Y-74290000D03*
D13*
X167640000Y-70485000D03*
D14*
X167640000Y-70490000D03*
D11*
X167640000Y-72390000D03*
X168910000Y-72390000D03*
D14*
X168910000Y-74290000D03*
D13*
X168910000Y-74295000D03*
D14*
X170180000Y-70490000D03*
D11*
X170180000Y-72390000D03*
X181356000Y-125979000D03*
D12*
X181356000Y-127879000D03*
D13*
X182626000Y-124074000D03*
D14*
X182626000Y-124079000D03*
D11*
X182626000Y-125979000D03*
X183896000Y-125979000D03*
D14*
X183896000Y-127879000D03*
D13*
X183896000Y-127884000D03*
D14*
X185166000Y-124079000D03*
D11*
X185166000Y-125979000D03*
X131064000Y-72390000D03*
D12*
X131064000Y-74290000D03*
D13*
X132334000Y-70485000D03*
D14*
X132334000Y-70490000D03*
D11*
X132334000Y-72390000D03*
X133604000Y-72390000D03*
D14*
X133604000Y-74290000D03*
D13*
X133604000Y-74295000D03*
D14*
X134874000Y-70490000D03*
D11*
X134874000Y-72390000D03*
X148600000Y-65500000D03*
D12*
X148600000Y-67400000D03*
D13*
X149870000Y-63595000D03*
D14*
X149870000Y-63600000D03*
D11*
X149870000Y-65500000D03*
X151140000Y-65500000D03*
D14*
X151140000Y-67400000D03*
D13*
X151140000Y-67405000D03*
D14*
X152410000Y-63600000D03*
D11*
X152410000Y-65500000D03*
X148590000Y-114935000D03*
D12*
X148590000Y-116835000D03*
D13*
X149860000Y-113030000D03*
D14*
X149860000Y-113035000D03*
D11*
X149860000Y-114935000D03*
X151130000Y-114935000D03*
D14*
X151130000Y-116835000D03*
D13*
X151130000Y-116840000D03*
D14*
X152400000Y-113035000D03*
D11*
X152400000Y-114935000D03*
D15*
X160640000Y-120120000D03*
D16*
X160640000Y-122660000D03*
X160640000Y-125200000D03*
X160640000Y-127740000D03*
X160640000Y-130280000D03*
X160640000Y-132820000D03*
X160640000Y-135360000D03*
X160640000Y-137900000D03*
D17*
X142860000Y-137900000D03*
X142860000Y-135360000D03*
X142860000Y-132820000D03*
X142860000Y-130280000D03*
X142860000Y-125200000D03*
X142860000Y-127740000D03*
X158100000Y-120120000D03*
X142860000Y-120120000D03*
X158100000Y-122660000D03*
X158100000Y-125200000D03*
X158100000Y-127740000D03*
X158100000Y-130280000D03*
X158100000Y-132820000D03*
X158100000Y-135360000D03*
X158100000Y-137900000D03*
X142860000Y-122660000D03*
D15*
X140320000Y-120120000D03*
D16*
X140320000Y-122660000D03*
X140320000Y-125200000D03*
X140320000Y-127740000D03*
X140320000Y-130280000D03*
X140320000Y-132820000D03*
X140320000Y-135360000D03*
X140320000Y-137900000D03*
D18*
X147245000Y-99913000D03*
X153745000Y-99913000D03*
X147245000Y-95413000D03*
X153745000Y-95413000D03*
M02*
