G04 #@! TF.GenerationSoftware,KiCad,Pcbnew,8.0.6*
G04 #@! TF.CreationDate,2024-11-27T01:20:32+01:00*
G04 #@! TF.ProjectId,christmas_soldering_kit_2024,63687269-7374-46d6-9173-5f736f6c6465,rev?*
G04 #@! TF.SameCoordinates,Original*
G04 #@! TF.FileFunction,Copper,L2,Bot*
G04 #@! TF.FilePolarity,Positive*
%FSLAX46Y46*%
G04 Gerber Fmt 4.6, Leading zero omitted, Abs format (unit mm)*
G04 Created by KiCad (PCBNEW 8.0.6) date 2024-11-27 01:20:32*
%MOMM*%
%LPD*%
G01*
G04 APERTURE LIST*
G04 Aperture macros list*
%AMRoundRect*
0 Rectangle with rounded corners*
0 $1 Rounding radius*
0 $2 $3 $4 $5 $6 $7 $8 $9 X,Y pos of 4 corners*
0 Add a 4 corners polygon primitive as box body*
4,1,4,$2,$3,$4,$5,$6,$7,$8,$9,$2,$3,0*
0 Add four circle primitives for the rounded corners*
1,1,$1+$1,$2,$3*
1,1,$1+$1,$4,$5*
1,1,$1+$1,$6,$7*
1,1,$1+$1,$8,$9*
0 Add four rect primitives between the rounded corners*
20,1,$1+$1,$2,$3,$4,$5,0*
20,1,$1+$1,$4,$5,$6,$7,0*
20,1,$1+$1,$6,$7,$8,$9,0*
20,1,$1+$1,$8,$9,$2,$3,0*%
G04 Aperture macros list end*
G04 #@! TA.AperFunction,SMDPad,CuDef*
%ADD10R,1.400000X2.200000*%
G04 #@! TD*
G04 #@! TA.AperFunction,ComponentPad*
%ADD11C,0.550000*%
G04 #@! TD*
G04 #@! TA.AperFunction,SMDPad,CuDef*
%ADD12O,1.400000X2.200000*%
G04 #@! TD*
G04 #@! TA.AperFunction,ComponentPad*
%ADD13RoundRect,0.400000X-0.150000X-0.600000X0.150000X-0.600000X0.150000X0.600000X-0.150000X0.600000X0*%
G04 #@! TD*
G04 #@! TA.AperFunction,ComponentPad*
%ADD14C,1.905000*%
G04 #@! TD*
G04 #@! TA.AperFunction,ComponentPad*
%ADD15R,1.700000X1.700000*%
G04 #@! TD*
G04 #@! TA.AperFunction,ComponentPad*
%ADD16O,1.700000X1.700000*%
G04 #@! TD*
G04 #@! TA.AperFunction,ComponentPad*
%ADD17C,2.000000*%
G04 #@! TD*
G04 #@! TA.AperFunction,Conductor*
%ADD18C,0.500000*%
G04 #@! TD*
G04 #@! TA.AperFunction,Conductor*
%ADD19C,2.000000*%
G04 #@! TD*
G04 APERTURE END LIST*
D10*
X148590000Y-116835000D03*
D11*
X149860000Y-113030000D03*
D12*
X149860000Y-113035000D03*
D13*
X149860000Y-114535000D03*
X151130000Y-115335000D03*
D12*
X151130000Y-116835000D03*
D11*
X151130000Y-116840000D03*
D12*
X152400000Y-113035000D03*
D10*
X160100000Y-85900000D03*
D11*
X161370000Y-82095000D03*
D12*
X161370000Y-82100000D03*
D13*
X161370000Y-83600000D03*
X162640000Y-84400000D03*
D12*
X162640000Y-85900000D03*
D11*
X162640000Y-85905000D03*
D12*
X163910000Y-82100000D03*
D10*
X173228000Y-100400000D03*
D11*
X174498000Y-96595000D03*
D12*
X174498000Y-96600000D03*
D13*
X174498000Y-98100000D03*
X175768000Y-98900000D03*
D12*
X175768000Y-100400000D03*
D11*
X175768000Y-100405000D03*
D12*
X177038000Y-96600000D03*
D10*
X136980000Y-85900000D03*
D11*
X138250000Y-82095000D03*
D12*
X138250000Y-82100000D03*
D13*
X138250000Y-83600000D03*
X139520000Y-84400000D03*
D12*
X139520000Y-85900000D03*
D11*
X139520000Y-85905000D03*
D12*
X140790000Y-82100000D03*
D10*
X148590000Y-52192000D03*
D11*
X149860000Y-48387000D03*
D12*
X149860000Y-48392000D03*
D13*
X149860000Y-49892000D03*
X151130000Y-50692000D03*
D12*
X151130000Y-52192000D03*
D11*
X151130000Y-52197000D03*
D12*
X152400000Y-48392000D03*
D10*
X123952000Y-100400000D03*
D11*
X125222000Y-96595000D03*
D12*
X125222000Y-96600000D03*
D13*
X125222000Y-98100000D03*
X126492000Y-98900000D03*
D12*
X126492000Y-100400000D03*
D11*
X126492000Y-100405000D03*
D12*
X127762000Y-96600000D03*
D10*
X116078000Y-127879000D03*
D11*
X117348000Y-124074000D03*
D12*
X117348000Y-124079000D03*
D13*
X117348000Y-125579000D03*
X118618000Y-126379000D03*
D12*
X118618000Y-127879000D03*
D11*
X118618000Y-127884000D03*
D12*
X119888000Y-124079000D03*
D10*
X166370000Y-74400000D03*
D11*
X167640000Y-70595000D03*
D12*
X167640000Y-70600000D03*
D13*
X167640000Y-72100000D03*
X168910000Y-72900000D03*
D12*
X168910000Y-74400000D03*
D11*
X168910000Y-74405000D03*
D12*
X170180000Y-70600000D03*
D10*
X181356000Y-127879000D03*
D11*
X182626000Y-124074000D03*
D12*
X182626000Y-124079000D03*
D13*
X182626000Y-125579000D03*
X183896000Y-126379000D03*
D12*
X183896000Y-127879000D03*
D11*
X183896000Y-127884000D03*
D12*
X185166000Y-124079000D03*
D10*
X131064000Y-74400000D03*
D11*
X132334000Y-70595000D03*
D12*
X132334000Y-70600000D03*
D13*
X132334000Y-72100000D03*
X133604000Y-72900000D03*
D12*
X133604000Y-74400000D03*
D11*
X133604000Y-74405000D03*
D12*
X134874000Y-70600000D03*
D10*
X148600000Y-67400000D03*
D11*
X149870000Y-63595000D03*
D12*
X149870000Y-63600000D03*
D13*
X149870000Y-65100000D03*
X151140000Y-65900000D03*
D12*
X151140000Y-67400000D03*
D11*
X151140000Y-67405000D03*
D12*
X152410000Y-63600000D03*
D14*
X142880000Y-137380000D03*
X142880000Y-134840000D03*
X142880000Y-132300000D03*
X142880000Y-129760000D03*
X142880000Y-124680000D03*
X142880000Y-127220000D03*
X158120000Y-119600000D03*
X142880000Y-119600000D03*
X158120000Y-122140000D03*
X158120000Y-124680000D03*
X158120000Y-127220000D03*
X158120000Y-129760000D03*
X158120000Y-132300000D03*
X158120000Y-134840000D03*
X158120000Y-137380000D03*
X142880000Y-122140000D03*
D15*
X160660000Y-119600000D03*
D16*
X160660000Y-122140000D03*
X160660000Y-124680000D03*
X160660000Y-127220000D03*
X160660000Y-129760000D03*
X160660000Y-132300000D03*
X160660000Y-134840000D03*
X160660000Y-137380000D03*
D15*
X140340000Y-119600000D03*
D16*
X140340000Y-122140000D03*
X140340000Y-124680000D03*
X140340000Y-127220000D03*
X140340000Y-129760000D03*
X140340000Y-132300000D03*
X140340000Y-134840000D03*
X140340000Y-137380000D03*
D17*
X153745000Y-95413000D03*
X147245000Y-95413000D03*
X153745000Y-99913000D03*
X147245000Y-99913000D03*
D18*
X127653000Y-116835000D02*
X119888000Y-124600000D01*
X148590000Y-116835000D02*
X127653000Y-116835000D01*
X153543000Y-114178000D02*
X152400000Y-113035000D01*
X153543000Y-121637000D02*
X153543000Y-114178000D01*
X142880000Y-132300000D02*
X153543000Y-121637000D01*
X185166000Y-123571000D02*
X185166000Y-124079000D01*
X169926000Y-101981000D02*
X169926000Y-108331000D01*
X169926000Y-108331000D02*
X185166000Y-123571000D01*
X171507000Y-100400000D02*
X169926000Y-101981000D01*
X173228000Y-100400000D02*
X171507000Y-100400000D01*
X177038000Y-95885000D02*
X177038000Y-96600000D01*
X175260000Y-94107000D02*
X177038000Y-95885000D01*
X160100000Y-87710000D02*
X166497000Y-94107000D01*
X166497000Y-94107000D02*
X175260000Y-94107000D01*
X160100000Y-85900000D02*
X160100000Y-87710000D01*
X163910000Y-75612000D02*
X163910000Y-82100000D01*
X165122000Y-74400000D02*
X163910000Y-75612000D01*
X166370000Y-74400000D02*
X165122000Y-74400000D01*
X150850000Y-46842000D02*
X152400000Y-48392000D01*
X146939000Y-49276000D02*
X149373000Y-46842000D01*
X146939000Y-65739000D02*
X146939000Y-49276000D01*
X148600000Y-67400000D02*
X146939000Y-65739000D01*
X149373000Y-46842000D02*
X150850000Y-46842000D01*
X153416000Y-64606000D02*
X152410000Y-63600000D01*
X152527000Y-71247000D02*
X153416000Y-70358000D01*
X153416000Y-70358000D02*
X153416000Y-64606000D01*
X132080000Y-68326000D02*
X136271000Y-68326000D01*
X139192000Y-71247000D02*
X152527000Y-71247000D01*
X130114000Y-70292000D02*
X132080000Y-68326000D01*
X130114000Y-73450000D02*
X130114000Y-70292000D01*
X136271000Y-68326000D02*
X139192000Y-71247000D01*
X131064000Y-74400000D02*
X130114000Y-73450000D01*
X168630000Y-69050000D02*
X170180000Y-70600000D01*
X165448000Y-69050000D02*
X168630000Y-69050000D01*
X148590000Y-52192000D02*
X165448000Y-69050000D01*
X136525000Y-83111497D02*
X136525000Y-72251000D01*
X136030000Y-83606497D02*
X136525000Y-83111497D01*
X136525000Y-72251000D02*
X134874000Y-70600000D01*
X136030000Y-84950000D02*
X136030000Y-83606497D01*
X136980000Y-85900000D02*
X136030000Y-84950000D01*
X142621000Y-83931000D02*
X140790000Y-82100000D01*
X142621000Y-86868000D02*
X142621000Y-83931000D01*
X129138327Y-90551000D02*
X138938000Y-90551000D01*
X123002000Y-96687327D02*
X129138327Y-90551000D01*
X123002000Y-99450000D02*
X123002000Y-96687327D01*
X138938000Y-90551000D02*
X142621000Y-86868000D01*
X123952000Y-100400000D02*
X123002000Y-99450000D01*
X131191000Y-107823000D02*
X131191000Y-100029000D01*
X115128000Y-123886000D02*
X131191000Y-107823000D01*
X131191000Y-100029000D02*
X127762000Y-96600000D01*
X115128000Y-126929000D02*
X115128000Y-123886000D01*
X116078000Y-127879000D02*
X115128000Y-126929000D01*
D19*
X140340000Y-122140000D02*
X142880000Y-122140000D01*
X140340000Y-119600000D02*
X142880000Y-119600000D01*
D18*
X155575000Y-124685000D02*
X142880000Y-137380000D01*
X155575000Y-101743000D02*
X155575000Y-124685000D01*
X153745000Y-99913000D02*
X155575000Y-101743000D01*
X147245000Y-99913000D02*
X153745000Y-99913000D01*
X142794888Y-134840000D02*
X140254888Y-134840000D01*
X140254888Y-137380000D02*
X142794888Y-137380000D01*
X140340000Y-132300000D02*
X142880000Y-132300000D01*
X142794888Y-127220000D02*
X140254888Y-127220000D01*
X142794888Y-124680000D02*
X140254888Y-124680000D01*
X142794888Y-129760000D02*
X140254888Y-129760000D01*
X158034888Y-134840000D02*
X160574888Y-134840000D01*
X158034888Y-122140000D02*
X160574888Y-122140000D01*
X158034888Y-127220000D02*
X160574888Y-127220000D01*
X158034888Y-119600000D02*
X160574888Y-119600000D01*
X158034888Y-129760000D02*
X160574888Y-129760000D01*
X158034888Y-137380000D02*
X160574888Y-137380000D01*
X158034888Y-132300000D02*
X160574888Y-132300000D01*
X158034888Y-124680000D02*
X160574888Y-124680000D01*
X142880000Y-137380000D02*
X142880000Y-137880000D01*
G04 #@! TA.AperFunction,Conductor*
G36*
X147694703Y-53522120D02*
G01*
X147701181Y-53528152D01*
X147717235Y-53544206D01*
X147820009Y-53589585D01*
X147845135Y-53592500D01*
X149160612Y-53592499D01*
X149227651Y-53612184D01*
X149248293Y-53628818D01*
X165109985Y-69490510D01*
X165109987Y-69490511D01*
X165109991Y-69490514D01*
X165234185Y-69562217D01*
X165234186Y-69562217D01*
X165234188Y-69562218D01*
X165235515Y-69562984D01*
X165375525Y-69600500D01*
X166619808Y-69600500D01*
X166686847Y-69620185D01*
X166732602Y-69672989D01*
X166742546Y-69742147D01*
X166734369Y-69771952D01*
X166677950Y-69908160D01*
X166677947Y-69908170D01*
X166639500Y-70101456D01*
X166639500Y-70101459D01*
X166639500Y-71098541D01*
X166639500Y-71098543D01*
X166639499Y-71098543D01*
X166677947Y-71291829D01*
X166677950Y-71291839D01*
X166753364Y-71473907D01*
X166753369Y-71473916D01*
X166768601Y-71496711D01*
X166789480Y-71563388D01*
X166789500Y-71565604D01*
X166789500Y-71729967D01*
X166769815Y-71797006D01*
X166717011Y-71842761D01*
X166647853Y-71852705D01*
X166618050Y-71844529D01*
X166574332Y-71826421D01*
X166574322Y-71826418D01*
X166438995Y-71799500D01*
X166438993Y-71799500D01*
X166301007Y-71799500D01*
X166301005Y-71799500D01*
X166165677Y-71826418D01*
X166165667Y-71826421D01*
X166038195Y-71879221D01*
X166038182Y-71879228D01*
X165923458Y-71955885D01*
X165923454Y-71955888D01*
X165825888Y-72053454D01*
X165825885Y-72053458D01*
X165749228Y-72168182D01*
X165749221Y-72168195D01*
X165696421Y-72295667D01*
X165696418Y-72295677D01*
X165669500Y-72431004D01*
X165669500Y-72431005D01*
X165669500Y-72431007D01*
X165669500Y-72568993D01*
X165669500Y-72568995D01*
X165669499Y-72568995D01*
X165696418Y-72704322D01*
X165696420Y-72704328D01*
X165747313Y-72827196D01*
X165747666Y-72828047D01*
X165755135Y-72897517D01*
X165723860Y-72959996D01*
X165663771Y-72995648D01*
X165633116Y-72999500D01*
X165625147Y-72999500D01*
X165625119Y-72999502D01*
X165600011Y-73002414D01*
X165600008Y-73002415D01*
X165497235Y-73047793D01*
X165417794Y-73127234D01*
X165372415Y-73230006D01*
X165372415Y-73230008D01*
X165369500Y-73255131D01*
X165369500Y-73725500D01*
X165349815Y-73792539D01*
X165297011Y-73838294D01*
X165245500Y-73849500D01*
X165049525Y-73849500D01*
X164931973Y-73880998D01*
X164931972Y-73880997D01*
X164909517Y-73887015D01*
X164909514Y-73887016D01*
X164783986Y-73959489D01*
X164783983Y-73959491D01*
X163469491Y-75273983D01*
X163469489Y-75273986D01*
X163458449Y-75293108D01*
X163399682Y-75394897D01*
X163397016Y-75399515D01*
X163359500Y-75539525D01*
X163359500Y-75539527D01*
X163359500Y-80798261D01*
X163339815Y-80865300D01*
X163304391Y-80901363D01*
X163272218Y-80922860D01*
X163272214Y-80922863D01*
X163132863Y-81062214D01*
X163132860Y-81062218D01*
X163023371Y-81226079D01*
X163023364Y-81226092D01*
X162947950Y-81408160D01*
X162947947Y-81408170D01*
X162909500Y-81601456D01*
X162909500Y-82598545D01*
X162944063Y-82772304D01*
X162937836Y-82841895D01*
X162906618Y-82887550D01*
X162890000Y-82902911D01*
X162890000Y-83624722D01*
X162813694Y-83580667D01*
X162699244Y-83550000D01*
X162580756Y-83550000D01*
X162466306Y-83580667D01*
X162390000Y-83624722D01*
X162390000Y-82902912D01*
X162373382Y-82887551D01*
X162337515Y-82827590D01*
X162335936Y-82772303D01*
X162370500Y-82598543D01*
X162370500Y-81601456D01*
X162332052Y-81408170D01*
X162332051Y-81408169D01*
X162332051Y-81408165D01*
X162332049Y-81408160D01*
X162256635Y-81226092D01*
X162256628Y-81226079D01*
X162147139Y-81062218D01*
X162147136Y-81062214D01*
X162007785Y-80922863D01*
X162007781Y-80922860D01*
X161843920Y-80813371D01*
X161843907Y-80813364D01*
X161661839Y-80737950D01*
X161661829Y-80737947D01*
X161468543Y-80699500D01*
X161468541Y-80699500D01*
X161271459Y-80699500D01*
X161271457Y-80699500D01*
X161078170Y-80737947D01*
X161078160Y-80737950D01*
X160896092Y-80813364D01*
X160896079Y-80813371D01*
X160732218Y-80922860D01*
X160732214Y-80922863D01*
X160592863Y-81062214D01*
X160592860Y-81062218D01*
X160483371Y-81226079D01*
X160483364Y-81226092D01*
X160407950Y-81408160D01*
X160407947Y-81408170D01*
X160369500Y-81601456D01*
X160369500Y-81601459D01*
X160369500Y-82598541D01*
X160369500Y-82598543D01*
X160369499Y-82598543D01*
X160407947Y-82791829D01*
X160407950Y-82791839D01*
X160483364Y-82973907D01*
X160483369Y-82973916D01*
X160498601Y-82996711D01*
X160519480Y-83063388D01*
X160519500Y-83065604D01*
X160519500Y-83229967D01*
X160499815Y-83297006D01*
X160447011Y-83342761D01*
X160377853Y-83352705D01*
X160348050Y-83344529D01*
X160304332Y-83326421D01*
X160304322Y-83326418D01*
X160168995Y-83299500D01*
X160168993Y-83299500D01*
X160031007Y-83299500D01*
X160031005Y-83299500D01*
X159895677Y-83326418D01*
X159895667Y-83326421D01*
X159768195Y-83379221D01*
X159768182Y-83379228D01*
X159653458Y-83455885D01*
X159653454Y-83455888D01*
X159555888Y-83553454D01*
X159555885Y-83553458D01*
X159479228Y-83668182D01*
X159479221Y-83668195D01*
X159426421Y-83795667D01*
X159426418Y-83795677D01*
X159399500Y-83931004D01*
X159399500Y-83931007D01*
X159399500Y-84068993D01*
X159399500Y-84068995D01*
X159399499Y-84068995D01*
X159426418Y-84204322D01*
X159426420Y-84204328D01*
X159477313Y-84327196D01*
X159477666Y-84328047D01*
X159485135Y-84397517D01*
X159453860Y-84459996D01*
X159393771Y-84495648D01*
X159363116Y-84499500D01*
X159355147Y-84499500D01*
X159355119Y-84499502D01*
X159330011Y-84502414D01*
X159330008Y-84502415D01*
X159227235Y-84547793D01*
X159147794Y-84627234D01*
X159102415Y-84730006D01*
X159102415Y-84730008D01*
X159099500Y-84755131D01*
X159099500Y-87044856D01*
X159099502Y-87044882D01*
X159102413Y-87069987D01*
X159102415Y-87069991D01*
X159147793Y-87172764D01*
X159147794Y-87172765D01*
X159227235Y-87252206D01*
X159330009Y-87297585D01*
X159355135Y-87300500D01*
X159425500Y-87300499D01*
X159492538Y-87320183D01*
X159538294Y-87372986D01*
X159549500Y-87424499D01*
X159549500Y-87637526D01*
X159549500Y-87782474D01*
X159587016Y-87922485D01*
X159659490Y-88048015D01*
X166158985Y-94547510D01*
X166158987Y-94547511D01*
X166158991Y-94547514D01*
X166241552Y-94595180D01*
X166241555Y-94595181D01*
X166241560Y-94595184D01*
X166284515Y-94619984D01*
X166424525Y-94657500D01*
X174980613Y-94657500D01*
X175047652Y-94677185D01*
X175068294Y-94693819D01*
X176077900Y-95703425D01*
X176111385Y-95764748D01*
X176106401Y-95834440D01*
X176104781Y-95838557D01*
X176075948Y-95908168D01*
X176075947Y-95908171D01*
X176037500Y-96101456D01*
X176037500Y-97098545D01*
X176072063Y-97272304D01*
X176065836Y-97341895D01*
X176034618Y-97387550D01*
X176018000Y-97402911D01*
X176018000Y-98124722D01*
X175941694Y-98080667D01*
X175827244Y-98050000D01*
X175708756Y-98050000D01*
X175594306Y-98080667D01*
X175518000Y-98124722D01*
X175518000Y-97402912D01*
X175501382Y-97387551D01*
X175465515Y-97327590D01*
X175463936Y-97272303D01*
X175498500Y-97098543D01*
X175498500Y-96101456D01*
X175460052Y-95908170D01*
X175460051Y-95908169D01*
X175460051Y-95908165D01*
X175439892Y-95859496D01*
X175384635Y-95726092D01*
X175384628Y-95726079D01*
X175275139Y-95562218D01*
X175275136Y-95562214D01*
X175135785Y-95422863D01*
X175135781Y-95422860D01*
X174971920Y-95313371D01*
X174971907Y-95313364D01*
X174789839Y-95237950D01*
X174789829Y-95237947D01*
X174596543Y-95199500D01*
X174596541Y-95199500D01*
X174399459Y-95199500D01*
X174399457Y-95199500D01*
X174206170Y-95237947D01*
X174206160Y-95237950D01*
X174024092Y-95313364D01*
X174024079Y-95313371D01*
X173860218Y-95422860D01*
X173860214Y-95422863D01*
X173720863Y-95562214D01*
X173720860Y-95562218D01*
X173611371Y-95726079D01*
X173611364Y-95726092D01*
X173535950Y-95908160D01*
X173535947Y-95908170D01*
X173497500Y-96101456D01*
X173497500Y-96101459D01*
X173497500Y-97098541D01*
X173497500Y-97098543D01*
X173497499Y-97098543D01*
X173535947Y-97291829D01*
X173535950Y-97291839D01*
X173611364Y-97473907D01*
X173611369Y-97473916D01*
X173626601Y-97496711D01*
X173647480Y-97563388D01*
X173647500Y-97565604D01*
X173647500Y-97729967D01*
X173627815Y-97797006D01*
X173575011Y-97842761D01*
X173505853Y-97852705D01*
X173476050Y-97844529D01*
X173432332Y-97826421D01*
X173432322Y-97826418D01*
X173296995Y-97799500D01*
X173296993Y-97799500D01*
X173159007Y-97799500D01*
X173159005Y-97799500D01*
X173023677Y-97826418D01*
X173023667Y-97826421D01*
X172896195Y-97879221D01*
X172896182Y-97879228D01*
X172781458Y-97955885D01*
X172781454Y-97955888D01*
X172683888Y-98053454D01*
X172683885Y-98053458D01*
X172607228Y-98168182D01*
X172607221Y-98168195D01*
X172554421Y-98295667D01*
X172554418Y-98295677D01*
X172527500Y-98431004D01*
X172527500Y-98431007D01*
X172527500Y-98568993D01*
X172527500Y-98568995D01*
X172527499Y-98568995D01*
X172554418Y-98704322D01*
X172554420Y-98704328D01*
X172605313Y-98827196D01*
X172605666Y-98828047D01*
X172613135Y-98897517D01*
X172581860Y-98959996D01*
X172521771Y-98995648D01*
X172491116Y-98999500D01*
X172483147Y-98999500D01*
X172483119Y-98999502D01*
X172458011Y-99002414D01*
X172458008Y-99002415D01*
X172355235Y-99047793D01*
X172275794Y-99127234D01*
X172230415Y-99230006D01*
X172230415Y-99230008D01*
X172227500Y-99255131D01*
X172227500Y-99725500D01*
X172207815Y-99792539D01*
X172155011Y-99838294D01*
X172103500Y-99849500D01*
X171434525Y-99849500D01*
X171350519Y-99872009D01*
X171294513Y-99887016D01*
X171294512Y-99887017D01*
X171168989Y-99959487D01*
X171168984Y-99959491D01*
X169485491Y-101642983D01*
X169485487Y-101642988D01*
X169417188Y-101761288D01*
X169417188Y-101761289D01*
X169414390Y-101766136D01*
X169413016Y-101768515D01*
X169375500Y-101908525D01*
X169375500Y-108258526D01*
X169375500Y-108403474D01*
X169399946Y-108494707D01*
X169413016Y-108543485D01*
X169485489Y-108669013D01*
X169485491Y-108669016D01*
X184157030Y-123340555D01*
X184190515Y-123401878D01*
X184190966Y-123452427D01*
X184165500Y-123580454D01*
X184165500Y-124577545D01*
X184200063Y-124751304D01*
X184193836Y-124820895D01*
X184162618Y-124866550D01*
X184146000Y-124881911D01*
X184146000Y-125603722D01*
X184069694Y-125559667D01*
X183955244Y-125529000D01*
X183836756Y-125529000D01*
X183722306Y-125559667D01*
X183646000Y-125603722D01*
X183646000Y-124881912D01*
X183629382Y-124866551D01*
X183593515Y-124806590D01*
X183591936Y-124751303D01*
X183626500Y-124577543D01*
X183626500Y-123580456D01*
X183588052Y-123387170D01*
X183588051Y-123387169D01*
X183588051Y-123387165D01*
X183568745Y-123340555D01*
X183512635Y-123205092D01*
X183512628Y-123205079D01*
X183403139Y-123041218D01*
X183403136Y-123041214D01*
X183263785Y-122901863D01*
X183263781Y-122901860D01*
X183099920Y-122792371D01*
X183099907Y-122792364D01*
X182917839Y-122716950D01*
X182917829Y-122716947D01*
X182724543Y-122678500D01*
X182724541Y-122678500D01*
X182527459Y-122678500D01*
X182527457Y-122678500D01*
X182334170Y-122716947D01*
X182334160Y-122716950D01*
X182152092Y-122792364D01*
X182152079Y-122792371D01*
X181988218Y-122901860D01*
X181988214Y-122901863D01*
X181848863Y-123041214D01*
X181848860Y-123041218D01*
X181739371Y-123205079D01*
X181739364Y-123205092D01*
X181663950Y-123387160D01*
X181663947Y-123387170D01*
X181625500Y-123580456D01*
X181625500Y-123580459D01*
X181625500Y-124577541D01*
X181625500Y-124577543D01*
X181625499Y-124577543D01*
X181663947Y-124770829D01*
X181663950Y-124770839D01*
X181739364Y-124952907D01*
X181739369Y-124952916D01*
X181754601Y-124975711D01*
X181775480Y-125042388D01*
X181775500Y-125044604D01*
X181775500Y-125208967D01*
X181755815Y-125276006D01*
X181703011Y-125321761D01*
X181633853Y-125331705D01*
X181604050Y-125323529D01*
X181560332Y-125305421D01*
X181560322Y-125305418D01*
X181424995Y-125278500D01*
X181424993Y-125278500D01*
X181287007Y-125278500D01*
X181287005Y-125278500D01*
X181151677Y-125305418D01*
X181151667Y-125305421D01*
X181024195Y-125358221D01*
X181024182Y-125358228D01*
X180909458Y-125434885D01*
X180909454Y-125434888D01*
X180811888Y-125532454D01*
X180811885Y-125532458D01*
X180735228Y-125647182D01*
X180735221Y-125647195D01*
X180682421Y-125774667D01*
X180682418Y-125774677D01*
X180655500Y-125910004D01*
X180655500Y-125910007D01*
X180655500Y-126047993D01*
X180655500Y-126047995D01*
X180655499Y-126047995D01*
X180682418Y-126183322D01*
X180682420Y-126183328D01*
X180733313Y-126306196D01*
X180733666Y-126307047D01*
X180741135Y-126376517D01*
X180709860Y-126438996D01*
X180649771Y-126474648D01*
X180619116Y-126478500D01*
X180611147Y-126478500D01*
X180611119Y-126478502D01*
X180586011Y-126481414D01*
X180586008Y-126481415D01*
X180483235Y-126526793D01*
X180403794Y-126606234D01*
X180358415Y-126709006D01*
X180358415Y-126709008D01*
X180355500Y-126734131D01*
X180355500Y-129023856D01*
X180355502Y-129023882D01*
X180358413Y-129048987D01*
X180358415Y-129048991D01*
X180403793Y-129151764D01*
X180403794Y-129151765D01*
X180483235Y-129231206D01*
X180586009Y-129276585D01*
X180611135Y-129279500D01*
X182100864Y-129279499D01*
X182100879Y-129279497D01*
X182100882Y-129279497D01*
X182125987Y-129276586D01*
X182125988Y-129276585D01*
X182125991Y-129276585D01*
X182228765Y-129231206D01*
X182308206Y-129151765D01*
X182353585Y-129048991D01*
X182356500Y-129023865D01*
X182356500Y-128373447D01*
X182696000Y-128373447D01*
X182725548Y-128560002D01*
X182783914Y-128739637D01*
X182869670Y-128907940D01*
X182980685Y-129060741D01*
X182980689Y-129060746D01*
X183114253Y-129194310D01*
X183114258Y-129194314D01*
X183267059Y-129305329D01*
X183435362Y-129391085D01*
X183614997Y-129449451D01*
X183646000Y-129454362D01*
X183646000Y-129454361D01*
X184146000Y-129454361D01*
X184177002Y-129449451D01*
X184356637Y-129391085D01*
X184524940Y-129305329D01*
X184677741Y-129194314D01*
X184677746Y-129194310D01*
X184811310Y-129060746D01*
X184811314Y-129060741D01*
X184922329Y-128907940D01*
X185008085Y-128739637D01*
X185066451Y-128560002D01*
X185096000Y-128373447D01*
X185096000Y-128129000D01*
X184146000Y-128129000D01*
X184146000Y-129454361D01*
X183646000Y-129454361D01*
X183646000Y-128129000D01*
X182696000Y-128129000D01*
X182696000Y-128373447D01*
X182356500Y-128373447D01*
X182356500Y-127844218D01*
X183696000Y-127844218D01*
X183696000Y-127923782D01*
X183726448Y-127997291D01*
X183782709Y-128053552D01*
X183856218Y-128084000D01*
X183935782Y-128084000D01*
X184009291Y-128053552D01*
X184065552Y-127997291D01*
X184096000Y-127923782D01*
X184096000Y-127844218D01*
X184065552Y-127770709D01*
X184009291Y-127714448D01*
X183935782Y-127684000D01*
X183856218Y-127684000D01*
X183782709Y-127714448D01*
X183726448Y-127770709D01*
X183696000Y-127844218D01*
X182356500Y-127844218D01*
X182356499Y-127003499D01*
X182376184Y-126936461D01*
X182428987Y-126890706D01*
X182480499Y-126879500D01*
X182658363Y-126879500D01*
X182725402Y-126899185D01*
X182771157Y-126951989D01*
X182781101Y-127021147D01*
X182776294Y-127041818D01*
X182725547Y-127197998D01*
X182696000Y-127384552D01*
X182696000Y-127629000D01*
X183646000Y-127629000D01*
X183646000Y-126354277D01*
X183722306Y-126398333D01*
X183836756Y-126429000D01*
X183955244Y-126429000D01*
X184069694Y-126398333D01*
X184146000Y-126354277D01*
X184146000Y-127629000D01*
X185096000Y-127629000D01*
X185096000Y-127384552D01*
X185066452Y-127197997D01*
X185008085Y-127018362D01*
X185008083Y-127018359D01*
X184959515Y-126923037D01*
X184946000Y-126866742D01*
X184946000Y-126800557D01*
X184965685Y-126733518D01*
X185018489Y-126687763D01*
X185087647Y-126677819D01*
X185094182Y-126678938D01*
X185097007Y-126679500D01*
X185097008Y-126679500D01*
X185234995Y-126679500D01*
X185346036Y-126657412D01*
X185370328Y-126652580D01*
X185497811Y-126599775D01*
X185612542Y-126523114D01*
X185710114Y-126425542D01*
X185786775Y-126310811D01*
X185839580Y-126183328D01*
X185866500Y-126047993D01*
X185866500Y-125910007D01*
X185866500Y-125910004D01*
X185839581Y-125774677D01*
X185839580Y-125774676D01*
X185839580Y-125774672D01*
X185837345Y-125769276D01*
X185786778Y-125647195D01*
X185786771Y-125647182D01*
X185710114Y-125532458D01*
X185710111Y-125532454D01*
X185688831Y-125511174D01*
X185655346Y-125449851D01*
X185660330Y-125380159D01*
X185702202Y-125324226D01*
X185707596Y-125320407D01*
X185803782Y-125256139D01*
X185943139Y-125116782D01*
X186052632Y-124952914D01*
X186128051Y-124770835D01*
X186146120Y-124679999D01*
X186166500Y-124577543D01*
X186166500Y-123574367D01*
X186167811Y-123574367D01*
X186179561Y-123512357D01*
X186227618Y-123461639D01*
X186295467Y-123444955D01*
X186361565Y-123467600D01*
X186389401Y-123494762D01*
X187114061Y-124467690D01*
X188029754Y-125697099D01*
X188030139Y-125697621D01*
X188771677Y-126709006D01*
X189385450Y-127546134D01*
X189386507Y-127547598D01*
X189764607Y-128079361D01*
X189767517Y-128083640D01*
X189882227Y-128260122D01*
X189898432Y-128297130D01*
X189899797Y-128302496D01*
X189901512Y-128310274D01*
X189903980Y-128323473D01*
X189905174Y-128331202D01*
X189906924Y-128345502D01*
X189907616Y-128353086D01*
X189908555Y-128368629D01*
X189908781Y-128376034D01*
X189908791Y-128392906D01*
X189908587Y-128400091D01*
X189907539Y-128418333D01*
X189906942Y-128425291D01*
X189904703Y-128444896D01*
X189903750Y-128451609D01*
X189900208Y-128472443D01*
X189898935Y-128478892D01*
X189893955Y-128501015D01*
X189892391Y-128507211D01*
X189885915Y-128530344D01*
X189884094Y-128536274D01*
X189876006Y-128560438D01*
X189873947Y-128566124D01*
X189864229Y-128591049D01*
X189861953Y-128596499D01*
X189850541Y-128622095D01*
X189848074Y-128627301D01*
X189834945Y-128653414D01*
X189832289Y-128658410D01*
X189817460Y-128684828D01*
X189814635Y-128689607D01*
X189798101Y-128716199D01*
X189795112Y-128720778D01*
X189776883Y-128747402D01*
X189773737Y-128751788D01*
X189753861Y-128778267D01*
X189750560Y-128782472D01*
X189729109Y-128808621D01*
X189725660Y-128812647D01*
X189702602Y-128838424D01*
X189699000Y-128842282D01*
X189674464Y-128867467D01*
X189670715Y-128871156D01*
X189644734Y-128895654D01*
X189640839Y-128899174D01*
X189635054Y-128904184D01*
X189613475Y-128922869D01*
X189609420Y-128926232D01*
X189580733Y-128949014D01*
X189576532Y-128952207D01*
X189546625Y-128973949D01*
X189542271Y-128976974D01*
X189511144Y-128997629D01*
X189506635Y-129000483D01*
X189474367Y-129019949D01*
X189469704Y-129022626D01*
X189436360Y-129040818D01*
X189431547Y-129043309D01*
X189397176Y-129060156D01*
X189392225Y-129062449D01*
X189388181Y-129064215D01*
X189370198Y-129070473D01*
X188957134Y-129179485D01*
X188950575Y-129181027D01*
X188030842Y-129371001D01*
X188028053Y-129371543D01*
X185181264Y-129891846D01*
X185179412Y-129892170D01*
X181750478Y-130465294D01*
X181749143Y-130465510D01*
X180089051Y-130724400D01*
X180087807Y-130724588D01*
X178604163Y-130940564D01*
X178603451Y-130940665D01*
X172830750Y-131746839D01*
X172828648Y-131747114D01*
X171360416Y-131926635D01*
X171358531Y-131926851D01*
X169869436Y-132085832D01*
X169867074Y-132086062D01*
X168354855Y-132218297D01*
X168352053Y-132218510D01*
X166808236Y-132318320D01*
X166806704Y-132318409D01*
X162992651Y-132517615D01*
X162986183Y-132517784D01*
X162936583Y-132517784D01*
X162936381Y-132517838D01*
X162910777Y-132521891D01*
X162910569Y-132521901D01*
X162863391Y-132537220D01*
X162857195Y-132539055D01*
X162809291Y-132551891D01*
X162809283Y-132551895D01*
X162809104Y-132551999D01*
X162785429Y-132562537D01*
X162785229Y-132562601D01*
X162785227Y-132562602D01*
X162743630Y-132589605D01*
X162738119Y-132592982D01*
X162695161Y-132617785D01*
X162695153Y-132617791D01*
X162695006Y-132617939D01*
X162674874Y-132634239D01*
X162674698Y-132634352D01*
X162674689Y-132634360D01*
X162641493Y-132671214D01*
X162637042Y-132675903D01*
X162601980Y-132710965D01*
X162601975Y-132710971D01*
X162601868Y-132711158D01*
X162586642Y-132732111D01*
X162586497Y-132732271D01*
X162586496Y-132732273D01*
X162586494Y-132732276D01*
X162586493Y-132732278D01*
X162567003Y-132770512D01*
X162563972Y-132776458D01*
X162560886Y-132782139D01*
X162536086Y-132825095D01*
X162536031Y-132825301D01*
X162526739Y-132849499D01*
X162526645Y-132849682D01*
X162526644Y-132849685D01*
X162516324Y-132898193D01*
X162514814Y-132904481D01*
X162501977Y-132952388D01*
X162501977Y-132952587D01*
X162499263Y-132978387D01*
X162499221Y-132978583D01*
X162499220Y-132978586D01*
X162501808Y-133028115D01*
X162501977Y-133034583D01*
X162501977Y-137009844D01*
X162501976Y-137010392D01*
X162495807Y-138406074D01*
X162495781Y-138408093D01*
X162473105Y-139503181D01*
X162473015Y-139506000D01*
X162453868Y-139946362D01*
X162453709Y-139949244D01*
X162428477Y-140326833D01*
X162428143Y-140330847D01*
X162396721Y-140646538D01*
X162396041Y-140652097D01*
X162358804Y-140908213D01*
X162357449Y-140915848D01*
X162315838Y-141114058D01*
X162313207Y-141124366D01*
X162270318Y-141266663D01*
X162265421Y-141280067D01*
X162226318Y-141370556D01*
X162217848Y-141386758D01*
X162187722Y-141435297D01*
X162174807Y-141452554D01*
X162153493Y-141476394D01*
X162137052Y-141491726D01*
X162113785Y-141509774D01*
X162096812Y-141520844D01*
X162054272Y-141543871D01*
X162039946Y-141550484D01*
X162031110Y-141553899D01*
X161993552Y-141562031D01*
X161740343Y-141576643D01*
X161735925Y-141576819D01*
X160863837Y-141595999D01*
X160862513Y-141596021D01*
X157942740Y-141629042D01*
X157941843Y-141629049D01*
X150433302Y-141659603D01*
X150432623Y-141659604D01*
X145269421Y-141652355D01*
X145268266Y-141652348D01*
X141662206Y-141613694D01*
X141659708Y-141613642D01*
X140407230Y-141574973D01*
X140403537Y-141574804D01*
X139501773Y-141520014D01*
X139493762Y-141519266D01*
X138938644Y-141449185D01*
X138924382Y-141446529D01*
X138825026Y-141421937D01*
X138803361Y-141414388D01*
X138793063Y-141409691D01*
X138772554Y-141397851D01*
X138750170Y-141381898D01*
X138746506Y-141379184D01*
X138730317Y-141366724D01*
X138725978Y-141363226D01*
X138723942Y-141361508D01*
X138722210Y-141360046D01*
X138685870Y-141308262D01*
X138682957Y-141300383D01*
X138681667Y-141296712D01*
X138679361Y-141289797D01*
X138677783Y-141284696D01*
X138667477Y-141248590D01*
X138665926Y-141242588D01*
X138665830Y-141242176D01*
X138655595Y-141198035D01*
X138654535Y-141192990D01*
X138646687Y-141151346D01*
X138643565Y-141134783D01*
X138642855Y-141130621D01*
X138631798Y-141058486D01*
X138631321Y-141055061D01*
X138620533Y-140968657D01*
X138620232Y-140965992D01*
X138609959Y-140865164D01*
X138609766Y-140863082D01*
X138600125Y-140747404D01*
X138600002Y-140745769D01*
X138591069Y-140615131D01*
X138590978Y-140613673D01*
X138582744Y-140467441D01*
X138582685Y-140466295D01*
X138582156Y-140454937D01*
X138575118Y-140303906D01*
X138575081Y-140303013D01*
X138574203Y-140280370D01*
X138568129Y-140123760D01*
X138568106Y-140123102D01*
X138567141Y-140093434D01*
X138561707Y-139926450D01*
X138555790Y-139711903D01*
X138545036Y-139224756D01*
X138535196Y-138657882D01*
X138515292Y-137258200D01*
X138515315Y-137258117D01*
X138515291Y-137258118D01*
X138486271Y-135116270D01*
X138486272Y-135116268D01*
X138457905Y-133022882D01*
X138458092Y-133014234D01*
X138460583Y-132970310D01*
X138459386Y-132964558D01*
X138456796Y-132940977D01*
X138456717Y-132935104D01*
X138444761Y-132892787D01*
X138442699Y-132884373D01*
X138433734Y-132841290D01*
X138431088Y-132836043D01*
X138422484Y-132813936D01*
X138420888Y-132808284D01*
X138398379Y-132770490D01*
X138394202Y-132762881D01*
X138382437Y-132739545D01*
X138374407Y-132723616D01*
X138374405Y-132723613D01*
X138370499Y-132719238D01*
X138356462Y-132700106D01*
X138353455Y-132695058D01*
X138353454Y-132695056D01*
X138321946Y-132664392D01*
X138315933Y-132658115D01*
X138286644Y-132625305D01*
X138286643Y-132625304D01*
X138281728Y-132622082D01*
X138263228Y-132607242D01*
X138259019Y-132603146D01*
X138259016Y-132603144D01*
X138220631Y-132581669D01*
X138213208Y-132577168D01*
X138190987Y-132562603D01*
X138176428Y-132553060D01*
X138176426Y-132553059D01*
X138176424Y-132553058D01*
X138170841Y-132551218D01*
X138149135Y-132541674D01*
X138144453Y-132539055D01*
X138144005Y-132538804D01*
X138144004Y-132538803D01*
X138144003Y-132538803D01*
X138101380Y-132527999D01*
X138093030Y-132525568D01*
X138051266Y-132511801D01*
X138051268Y-132511801D01*
X138045399Y-132511469D01*
X138021962Y-132507869D01*
X138018608Y-132507019D01*
X138016261Y-132506424D01*
X138016259Y-132506424D01*
X138016256Y-132506423D01*
X137972287Y-132507019D01*
X137963591Y-132506831D01*
X134261047Y-132296952D01*
X134259651Y-132296865D01*
X132680158Y-132189436D01*
X132677542Y-132189230D01*
X131159513Y-132053667D01*
X131157261Y-132053446D01*
X129685723Y-131894909D01*
X129683914Y-131894700D01*
X128248890Y-131718744D01*
X128247106Y-131718512D01*
X122638143Y-130948050D01*
X122637146Y-130947909D01*
X119151847Y-130440286D01*
X119149548Y-130439929D01*
X115618607Y-129857792D01*
X115616095Y-129857352D01*
X112803201Y-129333972D01*
X112799222Y-129333164D01*
X111925270Y-129140750D01*
X111915668Y-129138229D01*
X111562937Y-129030356D01*
X111534350Y-129017467D01*
X111512118Y-129003825D01*
X111499914Y-128996337D01*
X111496276Y-128994016D01*
X111458005Y-128968653D01*
X111454349Y-128966135D01*
X111418536Y-128940510D01*
X111414876Y-128937788D01*
X111381628Y-128912098D01*
X111377972Y-128909161D01*
X111347164Y-128883439D01*
X111343524Y-128880278D01*
X111315171Y-128854671D01*
X111311575Y-128851291D01*
X111285632Y-128825902D01*
X111282064Y-128822263D01*
X111258461Y-128797182D01*
X111254966Y-128793307D01*
X111233670Y-128768664D01*
X111230238Y-128764511D01*
X111211175Y-128740399D01*
X111207836Y-128735976D01*
X111190928Y-128712497D01*
X111187705Y-128707796D01*
X111172858Y-128685031D01*
X111169756Y-128680019D01*
X111156866Y-128658038D01*
X111153943Y-128652762D01*
X111142863Y-128631558D01*
X111140136Y-128626005D01*
X111130793Y-128605710D01*
X111128279Y-128599859D01*
X111127047Y-128596776D01*
X111120509Y-128580410D01*
X111118253Y-128574301D01*
X111111929Y-128555687D01*
X111109968Y-128549365D01*
X111104949Y-128531492D01*
X111103303Y-128524945D01*
X111102994Y-128523558D01*
X111099493Y-128507835D01*
X111098184Y-128501071D01*
X111095466Y-128484581D01*
X111094527Y-128477683D01*
X111092803Y-128461636D01*
X111092252Y-128454612D01*
X111091468Y-128438904D01*
X111091317Y-128431827D01*
X111091435Y-128416244D01*
X111091692Y-128409182D01*
X111092716Y-128393529D01*
X111093387Y-128386429D01*
X111095341Y-128370633D01*
X111096417Y-128363598D01*
X111099383Y-128347363D01*
X111100851Y-128340455D01*
X111104935Y-128323616D01*
X111106782Y-128316843D01*
X111106991Y-128316154D01*
X111112111Y-128299278D01*
X111114298Y-128292737D01*
X111120839Y-128274845D01*
X111121047Y-128274275D01*
X111123545Y-128267982D01*
X111130498Y-128251786D01*
X111142163Y-128230598D01*
X111428145Y-127813452D01*
X111430183Y-127810570D01*
X112204743Y-126748707D01*
X112205175Y-126748122D01*
X114354047Y-123862487D01*
X114409875Y-123820476D01*
X114479554Y-123815317D01*
X114540961Y-123848648D01*
X114574600Y-123909887D01*
X114577500Y-123936549D01*
X114577500Y-127001479D01*
X114584885Y-127029039D01*
X114584886Y-127029039D01*
X114584886Y-127029040D01*
X114615016Y-127141485D01*
X114660346Y-127219999D01*
X114687489Y-127267013D01*
X114687491Y-127267016D01*
X115041181Y-127620706D01*
X115074666Y-127682029D01*
X115077500Y-127708387D01*
X115077500Y-129023856D01*
X115077502Y-129023882D01*
X115080413Y-129048987D01*
X115080415Y-129048991D01*
X115125793Y-129151764D01*
X115125794Y-129151765D01*
X115205235Y-129231206D01*
X115308009Y-129276585D01*
X115333135Y-129279500D01*
X116822864Y-129279499D01*
X116822879Y-129279497D01*
X116822882Y-129279497D01*
X116847987Y-129276586D01*
X116847988Y-129276585D01*
X116847991Y-129276585D01*
X116950765Y-129231206D01*
X117030206Y-129151765D01*
X117075585Y-129048991D01*
X117078500Y-129023865D01*
X117078500Y-128373447D01*
X117418000Y-128373447D01*
X117447548Y-128560002D01*
X117505914Y-128739637D01*
X117591670Y-128907940D01*
X117702685Y-129060741D01*
X117702689Y-129060746D01*
X117836253Y-129194310D01*
X117836258Y-129194314D01*
X117989059Y-129305329D01*
X118157362Y-129391085D01*
X118336997Y-129449451D01*
X118368000Y-129454362D01*
X118368000Y-129454361D01*
X118868000Y-129454361D01*
X118899002Y-129449451D01*
X119078637Y-129391085D01*
X119246940Y-129305329D01*
X119399741Y-129194314D01*
X119399746Y-129194310D01*
X119533310Y-129060746D01*
X119533314Y-129060741D01*
X119644329Y-128907940D01*
X119730085Y-128739637D01*
X119788451Y-128560002D01*
X119818000Y-128373447D01*
X119818000Y-128129000D01*
X118868000Y-128129000D01*
X118868000Y-129454361D01*
X118368000Y-129454361D01*
X118368000Y-128129000D01*
X117418000Y-128129000D01*
X117418000Y-128373447D01*
X117078500Y-128373447D01*
X117078500Y-127844218D01*
X118418000Y-127844218D01*
X118418000Y-127923782D01*
X118448448Y-127997291D01*
X118504709Y-128053552D01*
X118578218Y-128084000D01*
X118657782Y-128084000D01*
X118731291Y-128053552D01*
X118787552Y-127997291D01*
X118818000Y-127923782D01*
X118818000Y-127844218D01*
X118787552Y-127770709D01*
X118731291Y-127714448D01*
X118657782Y-127684000D01*
X118578218Y-127684000D01*
X118504709Y-127714448D01*
X118448448Y-127770709D01*
X118418000Y-127844218D01*
X117078500Y-127844218D01*
X117078499Y-127003499D01*
X117098184Y-126936461D01*
X117150987Y-126890706D01*
X117202499Y-126879500D01*
X117380363Y-126879500D01*
X117447402Y-126899185D01*
X117493157Y-126951989D01*
X117503101Y-127021147D01*
X117498294Y-127041818D01*
X117447547Y-127197998D01*
X117418000Y-127384552D01*
X117418000Y-127629000D01*
X118368000Y-127629000D01*
X118368000Y-126354277D01*
X118444306Y-126398333D01*
X118558756Y-126429000D01*
X118677244Y-126429000D01*
X118791694Y-126398333D01*
X118868000Y-126354277D01*
X118868000Y-127629000D01*
X119818000Y-127629000D01*
X119818000Y-127384552D01*
X119788452Y-127197997D01*
X119730085Y-127018362D01*
X119730083Y-127018359D01*
X119681515Y-126923037D01*
X119668000Y-126866742D01*
X119668000Y-126800557D01*
X119687685Y-126733518D01*
X119740489Y-126687763D01*
X119809647Y-126677819D01*
X119816182Y-126678938D01*
X119819007Y-126679500D01*
X119819008Y-126679500D01*
X119956995Y-126679500D01*
X120068036Y-126657412D01*
X120092328Y-126652580D01*
X120219811Y-126599775D01*
X120334542Y-126523114D01*
X120432114Y-126425542D01*
X120508775Y-126310811D01*
X120561580Y-126183328D01*
X120588500Y-126047993D01*
X120588500Y-125910007D01*
X120588500Y-125910004D01*
X120561581Y-125774677D01*
X120561580Y-125774676D01*
X120561580Y-125774672D01*
X120559345Y-125769276D01*
X120508778Y-125647195D01*
X120508771Y-125647182D01*
X120432114Y-125532458D01*
X120432111Y-125532454D01*
X120410831Y-125511174D01*
X120377346Y-125449851D01*
X120382330Y-125380159D01*
X120424202Y-125324226D01*
X120429596Y-125320407D01*
X120525782Y-125256139D01*
X120665139Y-125116782D01*
X120774632Y-124952914D01*
X120850051Y-124770835D01*
X120868120Y-124679999D01*
X120888500Y-124577543D01*
X120888500Y-124429387D01*
X120908185Y-124362348D01*
X120924819Y-124341706D01*
X127844706Y-117421819D01*
X127906029Y-117388334D01*
X127932387Y-117385500D01*
X147465501Y-117385500D01*
X147532540Y-117405185D01*
X147578295Y-117457989D01*
X147589501Y-117509500D01*
X147589501Y-117979856D01*
X147589502Y-117979882D01*
X147592413Y-118004987D01*
X147592415Y-118004991D01*
X147637793Y-118107764D01*
X147637794Y-118107765D01*
X147717235Y-118187206D01*
X147820009Y-118232585D01*
X147845135Y-118235500D01*
X149334864Y-118235499D01*
X149334879Y-118235497D01*
X149334882Y-118235497D01*
X149359987Y-118232586D01*
X149359988Y-118232585D01*
X149359991Y-118232585D01*
X149462765Y-118187206D01*
X149542206Y-118107765D01*
X149587585Y-118004991D01*
X149590500Y-117979865D01*
X149590500Y-117329447D01*
X149930000Y-117329447D01*
X149959548Y-117516002D01*
X150017914Y-117695637D01*
X150103670Y-117863940D01*
X150214685Y-118016741D01*
X150214689Y-118016746D01*
X150348253Y-118150310D01*
X150348258Y-118150314D01*
X150501059Y-118261329D01*
X150669362Y-118347085D01*
X150848997Y-118405451D01*
X150880000Y-118410362D01*
X150880000Y-118410361D01*
X151380000Y-118410361D01*
X151411002Y-118405451D01*
X151590637Y-118347085D01*
X151758940Y-118261329D01*
X151911741Y-118150314D01*
X151911746Y-118150310D01*
X152045310Y-118016746D01*
X152045314Y-118016741D01*
X152156329Y-117863940D01*
X152242085Y-117695637D01*
X152300451Y-117516002D01*
X152330000Y-117329447D01*
X152330000Y-117085000D01*
X151380000Y-117085000D01*
X151380000Y-118410361D01*
X150880000Y-118410361D01*
X150880000Y-117085000D01*
X149930000Y-117085000D01*
X149930000Y-117329447D01*
X149590500Y-117329447D01*
X149590500Y-116800218D01*
X150930000Y-116800218D01*
X150930000Y-116879782D01*
X150960448Y-116953291D01*
X151016709Y-117009552D01*
X151090218Y-117040000D01*
X151169782Y-117040000D01*
X151243291Y-117009552D01*
X151299552Y-116953291D01*
X151330000Y-116879782D01*
X151330000Y-116800218D01*
X151299552Y-116726709D01*
X151243291Y-116670448D01*
X151169782Y-116640000D01*
X151090218Y-116640000D01*
X151016709Y-116670448D01*
X150960448Y-116726709D01*
X150930000Y-116800218D01*
X149590500Y-116800218D01*
X149590499Y-115959499D01*
X149610184Y-115892461D01*
X149662987Y-115846706D01*
X149714499Y-115835500D01*
X149892363Y-115835500D01*
X149959402Y-115855185D01*
X150005157Y-115907989D01*
X150015101Y-115977147D01*
X150010294Y-115997818D01*
X149959547Y-116153998D01*
X149930000Y-116340552D01*
X149930000Y-116585000D01*
X150880000Y-116585000D01*
X150880000Y-115310277D01*
X150956306Y-115354333D01*
X151070756Y-115385000D01*
X151189244Y-115385000D01*
X151303694Y-115354333D01*
X151380000Y-115310277D01*
X151380000Y-116585000D01*
X152330000Y-116585000D01*
X152330000Y-116340552D01*
X152300452Y-116153997D01*
X152242085Y-115974362D01*
X152242083Y-115974359D01*
X152193515Y-115879037D01*
X152180000Y-115822742D01*
X152180000Y-115756557D01*
X152199685Y-115689518D01*
X152252489Y-115643763D01*
X152321647Y-115633819D01*
X152328182Y-115634938D01*
X152331007Y-115635500D01*
X152331008Y-115635500D01*
X152468995Y-115635500D01*
X152560041Y-115617389D01*
X152604328Y-115608580D01*
X152716218Y-115562234D01*
X152731804Y-115555778D01*
X152731804Y-115555777D01*
X152731811Y-115555775D01*
X152799609Y-115510474D01*
X152866286Y-115489596D01*
X152933666Y-115508080D01*
X152980357Y-115560059D01*
X152992500Y-115613576D01*
X152992500Y-121357612D01*
X152972815Y-121424651D01*
X152956181Y-121445293D01*
X144330395Y-130071078D01*
X144269072Y-130104563D01*
X144199380Y-130099579D01*
X144143447Y-130057707D01*
X144119030Y-129992243D01*
X144119186Y-129972589D01*
X144119211Y-129972310D01*
X144137786Y-129760000D01*
X144118677Y-129541588D01*
X144067256Y-129349682D01*
X144061934Y-129329819D01*
X144061929Y-129329805D01*
X143991834Y-129179485D01*
X143969275Y-129131107D01*
X143843520Y-128951511D01*
X143688489Y-128796480D01*
X143508893Y-128670725D01*
X143481685Y-128658038D01*
X143362330Y-128602382D01*
X143309890Y-128556210D01*
X143290738Y-128489017D01*
X143310953Y-128422135D01*
X143362330Y-128377618D01*
X143392441Y-128363577D01*
X143508893Y-128309275D01*
X143688489Y-128183520D01*
X143843520Y-128028489D01*
X143969275Y-127848893D01*
X144061932Y-127650188D01*
X144118677Y-127438412D01*
X144137786Y-127220000D01*
X144118677Y-127001588D01*
X144070685Y-126822478D01*
X144061934Y-126789819D01*
X144061929Y-126789805D01*
X144000193Y-126657412D01*
X143969275Y-126591107D01*
X143843520Y-126411511D01*
X143688489Y-126256480D01*
X143508893Y-126130725D01*
X143362330Y-126062382D01*
X143309890Y-126016210D01*
X143290738Y-125949017D01*
X143310953Y-125882135D01*
X143362330Y-125837618D01*
X143382718Y-125828111D01*
X143508893Y-125769275D01*
X143688489Y-125643520D01*
X143843520Y-125488489D01*
X143969275Y-125308893D01*
X144061932Y-125110188D01*
X144118677Y-124898412D01*
X144137786Y-124680000D01*
X144118677Y-124461588D01*
X144075591Y-124300790D01*
X144061934Y-124249819D01*
X144061929Y-124249805D01*
X143991303Y-124098347D01*
X143969275Y-124051107D01*
X143843520Y-123871511D01*
X143688489Y-123716480D01*
X143508893Y-123590725D01*
X143508894Y-123590725D01*
X143508892Y-123590724D01*
X143420016Y-123549281D01*
X143367577Y-123503109D01*
X143348425Y-123435915D01*
X143368641Y-123369034D01*
X143416125Y-123326414D01*
X143561610Y-123252287D01*
X143668955Y-123174297D01*
X143727213Y-123131971D01*
X143727215Y-123131968D01*
X143727219Y-123131966D01*
X143871966Y-122987219D01*
X143871968Y-122987215D01*
X143871971Y-122987213D01*
X143933982Y-122901860D01*
X143992287Y-122821610D01*
X144085220Y-122639219D01*
X144148477Y-122444534D01*
X144180500Y-122242352D01*
X144180500Y-122037648D01*
X144148477Y-121835466D01*
X144148476Y-121835464D01*
X144148476Y-121835461D01*
X144085218Y-121640776D01*
X144031549Y-121535446D01*
X143992287Y-121458390D01*
X143982772Y-121445293D01*
X143871971Y-121292786D01*
X143727217Y-121148032D01*
X143727212Y-121148028D01*
X143606449Y-121060289D01*
X143563783Y-121004960D01*
X143557804Y-120935346D01*
X143590409Y-120873551D01*
X143620318Y-120850916D01*
X143677156Y-120820157D01*
X143677168Y-120820149D01*
X143716207Y-120789762D01*
X143716208Y-120789760D01*
X143116008Y-120189560D01*
X143180785Y-120162729D01*
X143284789Y-120093236D01*
X143373236Y-120004789D01*
X143442729Y-119900785D01*
X143469560Y-119836007D01*
X144069117Y-120435564D01*
X144161815Y-120293679D01*
X144258508Y-120073240D01*
X144317600Y-119839889D01*
X144337478Y-119600005D01*
X144337478Y-119599994D01*
X144317600Y-119360110D01*
X144258508Y-119126759D01*
X144161815Y-118906320D01*
X144069117Y-118764434D01*
X143469560Y-119363991D01*
X143442729Y-119299215D01*
X143373236Y-119195211D01*
X143284789Y-119106764D01*
X143180785Y-119037271D01*
X143116007Y-119010438D01*
X143716208Y-118410237D01*
X143716208Y-118410236D01*
X143677166Y-118379849D01*
X143677161Y-118379846D01*
X143465468Y-118265284D01*
X143465454Y-118265278D01*
X143237792Y-118187120D01*
X143000358Y-118147500D01*
X142759642Y-118147500D01*
X142522207Y-118187120D01*
X142294545Y-118265278D01*
X142294531Y-118265284D01*
X142082837Y-118379846D01*
X142082826Y-118379853D01*
X142043791Y-118410235D01*
X142043791Y-118410237D01*
X142643992Y-119010438D01*
X142579215Y-119037271D01*
X142475211Y-119106764D01*
X142386764Y-119195211D01*
X142317271Y-119299215D01*
X142290439Y-119363992D01*
X141720908Y-118794461D01*
X141687423Y-118733138D01*
X141689595Y-118698415D01*
X141683598Y-118642623D01*
X141633354Y-118507913D01*
X141633350Y-118507906D01*
X141547190Y-118392812D01*
X141547187Y-118392809D01*
X141432093Y-118306649D01*
X141432086Y-118306645D01*
X141297379Y-118256403D01*
X141297372Y-118256401D01*
X141237844Y-118250000D01*
X140590000Y-118250000D01*
X140590000Y-119166988D01*
X140532993Y-119134075D01*
X140405826Y-119100000D01*
X140274174Y-119100000D01*
X140147007Y-119134075D01*
X140090000Y-119166988D01*
X140090000Y-118250000D01*
X139442155Y-118250000D01*
X139382627Y-118256401D01*
X139382620Y-118256403D01*
X139247913Y-118306645D01*
X139247906Y-118306649D01*
X139132812Y-118392809D01*
X139132809Y-118392812D01*
X139046649Y-118507906D01*
X139046645Y-118507913D01*
X138996403Y-118642620D01*
X138996401Y-118642627D01*
X138990000Y-118702155D01*
X138990000Y-119350000D01*
X139906988Y-119350000D01*
X139874075Y-119407007D01*
X139840000Y-119534174D01*
X139840000Y-119665826D01*
X139874075Y-119792993D01*
X139906988Y-119850000D01*
X138990000Y-119850000D01*
X138990000Y-120497844D01*
X138996401Y-120557372D01*
X138996403Y-120557379D01*
X139046645Y-120692086D01*
X139046649Y-120692093D01*
X139132809Y-120807187D01*
X139132812Y-120807190D01*
X139247906Y-120893350D01*
X139247913Y-120893354D01*
X139382620Y-120943596D01*
X139382619Y-120943596D01*
X139408985Y-120946431D01*
X139473536Y-120973169D01*
X139513385Y-121030561D01*
X139515880Y-121100386D01*
X139483413Y-121157402D01*
X139348027Y-121292788D01*
X139227715Y-121458386D01*
X139134781Y-121640776D01*
X139071524Y-121835461D01*
X139071523Y-121835464D01*
X139071523Y-121835466D01*
X139057882Y-121921592D01*
X139039500Y-122037648D01*
X139039500Y-122242351D01*
X139071522Y-122444534D01*
X139134781Y-122639223D01*
X139190336Y-122748253D01*
X139212813Y-122792368D01*
X139227715Y-122821613D01*
X139348028Y-122987213D01*
X139492786Y-123131971D01*
X139626716Y-123229275D01*
X139658390Y-123252287D01*
X139840781Y-123345220D01*
X139922619Y-123371810D01*
X139980293Y-123411247D01*
X140007492Y-123475606D01*
X139995577Y-123544452D01*
X139948333Y-123595928D01*
X139929095Y-123605367D01*
X139824988Y-123645698D01*
X139824980Y-123645702D01*
X139643699Y-123757947D01*
X139486127Y-123901593D01*
X139357632Y-124071746D01*
X139262596Y-124262605D01*
X139262596Y-124262607D01*
X139204244Y-124467689D01*
X139201872Y-124493293D01*
X139184571Y-124680000D01*
X139204244Y-124892310D01*
X139241433Y-125023015D01*
X139262596Y-125097392D01*
X139262596Y-125097394D01*
X139357632Y-125288253D01*
X139486127Y-125458406D01*
X139486128Y-125458407D01*
X139643698Y-125602052D01*
X139824981Y-125714298D01*
X140023802Y-125791321D01*
X140220613Y-125828111D01*
X140282893Y-125859779D01*
X140318166Y-125920092D01*
X140315232Y-125989900D01*
X140275023Y-126047040D01*
X140220613Y-126071888D01*
X140023802Y-126108679D01*
X140023799Y-126108679D01*
X140023799Y-126108680D01*
X139824982Y-126185701D01*
X139824980Y-126185702D01*
X139643699Y-126297947D01*
X139486127Y-126441593D01*
X139357632Y-126611746D01*
X139262596Y-126802605D01*
X139262596Y-126802607D01*
X139204244Y-127007689D01*
X139184571Y-127219999D01*
X139184571Y-127220000D01*
X139204244Y-127432310D01*
X139262596Y-127637392D01*
X139262596Y-127637394D01*
X139357632Y-127828253D01*
X139470021Y-127977078D01*
X139486128Y-127998407D01*
X139643698Y-128142052D01*
X139824981Y-128254298D01*
X140023802Y-128331321D01*
X140220613Y-128368111D01*
X140282893Y-128399779D01*
X140318166Y-128460092D01*
X140315232Y-128529900D01*
X140275023Y-128587040D01*
X140220613Y-128611888D01*
X140023802Y-128648679D01*
X140023799Y-128648679D01*
X140023799Y-128648680D01*
X139824982Y-128725701D01*
X139824980Y-128725702D01*
X139643699Y-128837947D01*
X139486127Y-128981593D01*
X139357632Y-129151746D01*
X139262596Y-129342605D01*
X139262596Y-129342607D01*
X139204244Y-129547689D01*
X139194234Y-129655722D01*
X139184571Y-129760000D01*
X139204244Y-129972310D01*
X139260064Y-130168495D01*
X139262596Y-130177392D01*
X139262596Y-130177394D01*
X139357632Y-130368253D01*
X139430915Y-130465294D01*
X139486128Y-130538407D01*
X139643698Y-130682052D01*
X139824981Y-130794298D01*
X140023802Y-130871321D01*
X140220613Y-130908111D01*
X140282893Y-130939779D01*
X140318166Y-131000092D01*
X140315232Y-131069900D01*
X140275023Y-131127040D01*
X140220613Y-131151888D01*
X140023802Y-131188679D01*
X140023799Y-131188679D01*
X140023799Y-131188680D01*
X139824982Y-131265701D01*
X139824980Y-131265702D01*
X139643699Y-131377947D01*
X139486127Y-131521593D01*
X139357632Y-131691746D01*
X139262596Y-131882605D01*
X139262596Y-131882607D01*
X139204736Y-132085962D01*
X139204244Y-132087690D01*
X139184571Y-132300000D01*
X139204244Y-132512310D01*
X139260590Y-132710344D01*
X139262596Y-132717392D01*
X139262596Y-132717394D01*
X139357632Y-132908253D01*
X139464514Y-133049786D01*
X139486128Y-133078407D01*
X139643698Y-133222052D01*
X139824981Y-133334298D01*
X140023802Y-133411321D01*
X140220613Y-133448111D01*
X140282893Y-133479779D01*
X140318166Y-133540092D01*
X140315232Y-133609900D01*
X140275023Y-133667040D01*
X140220613Y-133691888D01*
X140023802Y-133728679D01*
X140023799Y-133728679D01*
X140023799Y-133728680D01*
X139824982Y-133805701D01*
X139824980Y-133805702D01*
X139643699Y-133917947D01*
X139486127Y-134061593D01*
X139357632Y-134231746D01*
X139262596Y-134422605D01*
X139262596Y-134422607D01*
X139262595Y-134422611D01*
X139204244Y-134627690D01*
X139184571Y-134840000D01*
X139204244Y-135052310D01*
X139222442Y-135116270D01*
X139262596Y-135257392D01*
X139262596Y-135257394D01*
X139357632Y-135448253D01*
X139373219Y-135468893D01*
X139486128Y-135618407D01*
X139643698Y-135762052D01*
X139824981Y-135874298D01*
X140023802Y-135951321D01*
X140220613Y-135988111D01*
X140282893Y-136019779D01*
X140318166Y-136080092D01*
X140315232Y-136149900D01*
X140275023Y-136207040D01*
X140220613Y-136231888D01*
X140023802Y-136268679D01*
X140023799Y-136268679D01*
X140023799Y-136268680D01*
X139824982Y-136345701D01*
X139824980Y-136345702D01*
X139643699Y-136457947D01*
X139486127Y-136601593D01*
X139357632Y-136771746D01*
X139262596Y-136962605D01*
X139262596Y-136962607D01*
X139204244Y-137167689D01*
X139184571Y-137379999D01*
X139184571Y-137380000D01*
X139204244Y-137592310D01*
X139262596Y-137797392D01*
X139262596Y-137797394D01*
X139357632Y-137988253D01*
X139373219Y-138008893D01*
X139486128Y-138158407D01*
X139643698Y-138302052D01*
X139824981Y-138414298D01*
X140023802Y-138491321D01*
X140233390Y-138530500D01*
X140233392Y-138530500D01*
X140446608Y-138530500D01*
X140446610Y-138530500D01*
X140656198Y-138491321D01*
X140855019Y-138414298D01*
X141036302Y-138302052D01*
X141193872Y-138158407D01*
X141322366Y-137988255D01*
X141322365Y-137988255D01*
X141325821Y-137983680D01*
X141326977Y-137984553D01*
X141373793Y-137942588D01*
X141427194Y-137930500D01*
X141675173Y-137930500D01*
X141742212Y-137950185D01*
X141787554Y-138002093D01*
X141790725Y-138008893D01*
X141916480Y-138188489D01*
X142071511Y-138343520D01*
X142251107Y-138469275D01*
X142370652Y-138525019D01*
X142449805Y-138561929D01*
X142449807Y-138561929D01*
X142449812Y-138561932D01*
X142661588Y-138618677D01*
X142836317Y-138633964D01*
X142879999Y-138637786D01*
X142880000Y-138637786D01*
X142880001Y-138637786D01*
X142916402Y-138634601D01*
X143098412Y-138618677D01*
X143310188Y-138561932D01*
X143508893Y-138469275D01*
X143688489Y-138343520D01*
X143843520Y-138188489D01*
X143969275Y-138008893D01*
X144061932Y-137810188D01*
X144118677Y-137598412D01*
X144137786Y-137380000D01*
X144118677Y-137161588D01*
X144086120Y-137040083D01*
X144087783Y-136970233D01*
X144118212Y-136920311D01*
X156015510Y-125023015D01*
X156087984Y-124897485D01*
X156100224Y-124851804D01*
X156125500Y-124757475D01*
X156125500Y-119599999D01*
X156862214Y-119599999D01*
X156862214Y-119600000D01*
X156881322Y-119818407D01*
X156881324Y-119818417D01*
X156938065Y-120030180D01*
X156938070Y-120030194D01*
X157003349Y-120170185D01*
X157030725Y-120228893D01*
X157156480Y-120408489D01*
X157311511Y-120563520D01*
X157491107Y-120689275D01*
X157637670Y-120757618D01*
X157690109Y-120803790D01*
X157709261Y-120870984D01*
X157689045Y-120937865D01*
X157637670Y-120982382D01*
X157491107Y-121050724D01*
X157412593Y-121105701D01*
X157311511Y-121176480D01*
X157311509Y-121176481D01*
X157311506Y-121176484D01*
X157156484Y-121331506D01*
X157156481Y-121331509D01*
X157156480Y-121331511D01*
X157102239Y-121408975D01*
X157030724Y-121511108D01*
X157030723Y-121511110D01*
X156938070Y-121709805D01*
X156938065Y-121709819D01*
X156881324Y-121921582D01*
X156881322Y-121921592D01*
X156862214Y-122139999D01*
X156862214Y-122140000D01*
X156881322Y-122358407D01*
X156881324Y-122358417D01*
X156938065Y-122570180D01*
X156938070Y-122570194D01*
X157021100Y-122748253D01*
X157030725Y-122768893D01*
X157156480Y-122948489D01*
X157311511Y-123103520D01*
X157491107Y-123229275D01*
X157637670Y-123297618D01*
X157690109Y-123343790D01*
X157709261Y-123410984D01*
X157689045Y-123477865D01*
X157637670Y-123522382D01*
X157491107Y-123590724D01*
X157372871Y-123673515D01*
X157311511Y-123716480D01*
X157311509Y-123716481D01*
X157311506Y-123716484D01*
X157156484Y-123871506D01*
X157156481Y-123871509D01*
X157156480Y-123871511D01*
X157129609Y-123909887D01*
X157030724Y-124051108D01*
X157030723Y-124051110D01*
X156938070Y-124249805D01*
X156938065Y-124249819D01*
X156881324Y-124461582D01*
X156881322Y-124461592D01*
X156862214Y-124679999D01*
X156862214Y-124680000D01*
X156881322Y-124898407D01*
X156881324Y-124898417D01*
X156938065Y-125110180D01*
X156938070Y-125110194D01*
X157029106Y-125305421D01*
X157030725Y-125308893D01*
X157156480Y-125488489D01*
X157311511Y-125643520D01*
X157491107Y-125769275D01*
X157637670Y-125837618D01*
X157690109Y-125883790D01*
X157709261Y-125950984D01*
X157689045Y-126017865D01*
X157637670Y-126062382D01*
X157491107Y-126130724D01*
X157412593Y-126185701D01*
X157311511Y-126256480D01*
X157311509Y-126256481D01*
X157311506Y-126256484D01*
X157156484Y-126411506D01*
X157156481Y-126411509D01*
X157156480Y-126411511D01*
X157078337Y-126523111D01*
X157030724Y-126591108D01*
X157030723Y-126591110D01*
X156938070Y-126789805D01*
X156938065Y-126789819D01*
X156881324Y-127001582D01*
X156881322Y-127001592D01*
X156862214Y-127219999D01*
X156862214Y-127220000D01*
X156881322Y-127438407D01*
X156881324Y-127438417D01*
X156938065Y-127650180D01*
X156938070Y-127650194D01*
X157018968Y-127823680D01*
X157030725Y-127848893D01*
X157156480Y-128028489D01*
X157311511Y-128183520D01*
X157473762Y-128297130D01*
X157491107Y-128309275D01*
X157637670Y-128377618D01*
X157690109Y-128423790D01*
X157709261Y-128490984D01*
X157689045Y-128557865D01*
X157637670Y-128602382D01*
X157491107Y-128670724D01*
X157371691Y-128754341D01*
X157311511Y-128796480D01*
X157311509Y-128796481D01*
X157311506Y-128796484D01*
X157156484Y-128951506D01*
X157156481Y-128951509D01*
X157156480Y-128951511D01*
X157088222Y-129048993D01*
X157030724Y-129131108D01*
X157030723Y-129131110D01*
X156938070Y-129329805D01*
X156938065Y-129329819D01*
X156881324Y-129541582D01*
X156881322Y-129541592D01*
X156862214Y-129759999D01*
X156862214Y-129760000D01*
X156881322Y-129978407D01*
X156881324Y-129978417D01*
X156938065Y-130190180D01*
X156938070Y-130190194D01*
X157021100Y-130368253D01*
X157030725Y-130388893D01*
X157156480Y-130568489D01*
X157311511Y-130723520D01*
X157465763Y-130831529D01*
X157491107Y-130849275D01*
X157637670Y-130917618D01*
X157690109Y-130963790D01*
X157709261Y-131030984D01*
X157689045Y-131097865D01*
X157637670Y-131142382D01*
X157491107Y-131210724D01*
X157412593Y-131265701D01*
X157311511Y-131336480D01*
X157311509Y-131336481D01*
X157311506Y-131336484D01*
X157156484Y-131491506D01*
X157156481Y-131491509D01*
X157156480Y-131491511D01*
X157077925Y-131603698D01*
X157030724Y-131671108D01*
X157030723Y-131671110D01*
X156938070Y-131869805D01*
X156938065Y-131869819D01*
X156881324Y-132081582D01*
X156881322Y-132081592D01*
X156862214Y-132299999D01*
X156862214Y-132300000D01*
X156881322Y-132518407D01*
X156881324Y-132518417D01*
X156938065Y-132730180D01*
X156938070Y-132730194D01*
X157030723Y-132928889D01*
X157030725Y-132928893D01*
X157156480Y-133108489D01*
X157311511Y-133263520D01*
X157491107Y-133389275D01*
X157637670Y-133457618D01*
X157690109Y-133503790D01*
X157709261Y-133570984D01*
X157689045Y-133637865D01*
X157637670Y-133682382D01*
X157491107Y-133750724D01*
X157412593Y-133805701D01*
X157311511Y-133876480D01*
X157311509Y-133876481D01*
X157311506Y-133876484D01*
X157156484Y-134031506D01*
X157156481Y-134031509D01*
X157156480Y-134031511D01*
X157077925Y-134143698D01*
X157030724Y-134211108D01*
X157030723Y-134211110D01*
X156938070Y-134409805D01*
X156938065Y-134409819D01*
X156881324Y-134621582D01*
X156881322Y-134621592D01*
X156862214Y-134839999D01*
X156862214Y-134840000D01*
X156881322Y-135058407D01*
X156881324Y-135058417D01*
X156938065Y-135270180D01*
X156938070Y-135270194D01*
X157003349Y-135410185D01*
X157030725Y-135468893D01*
X157156480Y-135648489D01*
X157311511Y-135803520D01*
X157491107Y-135929275D01*
X157637670Y-135997618D01*
X157690109Y-136043790D01*
X157709261Y-136110984D01*
X157689045Y-136177865D01*
X157637670Y-136222382D01*
X157491107Y-136290724D01*
X157412593Y-136345701D01*
X157311511Y-136416480D01*
X157311509Y-136416481D01*
X157311506Y-136416484D01*
X157156484Y-136571506D01*
X157156481Y-136571509D01*
X157156480Y-136571511D01*
X157077925Y-136683698D01*
X157030724Y-136751108D01*
X157030723Y-136751110D01*
X156938070Y-136949805D01*
X156938065Y-136949819D01*
X156881324Y-137161582D01*
X156881322Y-137161592D01*
X156862214Y-137379999D01*
X156862214Y-137380000D01*
X156881322Y-137598407D01*
X156881324Y-137598417D01*
X156938065Y-137810180D01*
X156938070Y-137810194D01*
X157003349Y-137950185D01*
X157030725Y-138008893D01*
X157156480Y-138188489D01*
X157311511Y-138343520D01*
X157491107Y-138469275D01*
X157610652Y-138525019D01*
X157689805Y-138561929D01*
X157689807Y-138561929D01*
X157689812Y-138561932D01*
X157901588Y-138618677D01*
X158076317Y-138633964D01*
X158119999Y-138637786D01*
X158120000Y-138637786D01*
X158120001Y-138637786D01*
X158156402Y-138634601D01*
X158338412Y-138618677D01*
X158550188Y-138561932D01*
X158748893Y-138469275D01*
X158928489Y-138343520D01*
X159083520Y-138188489D01*
X159209275Y-138008893D01*
X159212446Y-138002093D01*
X159258620Y-137949654D01*
X159324827Y-137930500D01*
X159572806Y-137930500D01*
X159639845Y-137950185D01*
X159673377Y-137984285D01*
X159674179Y-137983680D01*
X159677634Y-137988255D01*
X159806128Y-138158407D01*
X159963698Y-138302052D01*
X160144981Y-138414298D01*
X160343802Y-138491321D01*
X160553390Y-138530500D01*
X160553392Y-138530500D01*
X160766608Y-138530500D01*
X160766610Y-138530500D01*
X160976198Y-138491321D01*
X161175019Y-138414298D01*
X161356302Y-138302052D01*
X161513872Y-138158407D01*
X161642366Y-137988255D01*
X161644644Y-137983680D01*
X161737403Y-137797394D01*
X161737403Y-137797393D01*
X161737405Y-137797389D01*
X161795756Y-137592310D01*
X161815429Y-137380000D01*
X161795756Y-137167690D01*
X161737405Y-136962611D01*
X161737403Y-136962606D01*
X161737403Y-136962605D01*
X161642367Y-136771746D01*
X161513872Y-136601593D01*
X161480868Y-136571506D01*
X161356302Y-136457948D01*
X161175019Y-136345702D01*
X161175017Y-136345701D01*
X161033103Y-136290724D01*
X160976198Y-136268679D01*
X160779385Y-136231888D01*
X160717106Y-136200221D01*
X160681833Y-136139908D01*
X160684767Y-136070100D01*
X160724976Y-136012960D01*
X160779384Y-135988111D01*
X160976198Y-135951321D01*
X161175019Y-135874298D01*
X161356302Y-135762052D01*
X161513872Y-135618407D01*
X161642366Y-135448255D01*
X161644644Y-135443680D01*
X161737403Y-135257394D01*
X161737403Y-135257393D01*
X161737405Y-135257389D01*
X161795756Y-135052310D01*
X161815429Y-134840000D01*
X161795756Y-134627690D01*
X161737405Y-134422611D01*
X161737403Y-134422606D01*
X161737403Y-134422605D01*
X161642367Y-134231746D01*
X161513872Y-134061593D01*
X161480868Y-134031506D01*
X161356302Y-133917948D01*
X161175019Y-133805702D01*
X161175017Y-133805701D01*
X161033103Y-133750724D01*
X160976198Y-133728679D01*
X160779385Y-133691888D01*
X160717106Y-133660221D01*
X160681833Y-133599908D01*
X160684767Y-133530100D01*
X160724976Y-133472960D01*
X160779384Y-133448111D01*
X160976198Y-133411321D01*
X161175019Y-133334298D01*
X161356302Y-133222052D01*
X161513872Y-133078407D01*
X161642366Y-132908255D01*
X161655809Y-132881257D01*
X161737403Y-132717394D01*
X161737403Y-132717393D01*
X161737405Y-132717389D01*
X161795756Y-132512310D01*
X161815429Y-132300000D01*
X161795756Y-132087690D01*
X161737405Y-131882611D01*
X161737403Y-131882606D01*
X161737403Y-131882605D01*
X161642367Y-131691746D01*
X161513872Y-131521593D01*
X161450736Y-131464037D01*
X161356302Y-131377948D01*
X161175019Y-131265702D01*
X161175017Y-131265701D01*
X161033103Y-131210724D01*
X160976198Y-131188679D01*
X160779385Y-131151888D01*
X160717106Y-131120221D01*
X160681833Y-131059908D01*
X160684767Y-130990100D01*
X160724976Y-130932960D01*
X160779384Y-130908111D01*
X160976198Y-130871321D01*
X161175019Y-130794298D01*
X161356302Y-130682052D01*
X161513872Y-130538407D01*
X161642366Y-130368255D01*
X161656136Y-130340601D01*
X161737403Y-130177394D01*
X161737403Y-130177393D01*
X161737405Y-130177389D01*
X161795756Y-129972310D01*
X161815429Y-129760000D01*
X161795756Y-129547690D01*
X161737405Y-129342611D01*
X161737403Y-129342606D01*
X161737403Y-129342605D01*
X161642367Y-129151746D01*
X161513872Y-128981593D01*
X161491837Y-128961505D01*
X161356302Y-128837948D01*
X161175019Y-128725702D01*
X161175017Y-128725701D01*
X161063669Y-128682565D01*
X160976198Y-128648679D01*
X160779385Y-128611888D01*
X160717106Y-128580221D01*
X160681833Y-128519908D01*
X160684767Y-128450100D01*
X160724976Y-128392960D01*
X160779384Y-128368111D01*
X160976198Y-128331321D01*
X161175019Y-128254298D01*
X161356302Y-128142052D01*
X161513872Y-127998407D01*
X161642366Y-127828255D01*
X161657141Y-127798583D01*
X161737403Y-127637394D01*
X161737403Y-127637393D01*
X161737405Y-127637389D01*
X161795756Y-127432310D01*
X161815429Y-127220000D01*
X161795756Y-127007690D01*
X161737405Y-126802611D01*
X161737403Y-126802606D01*
X161737403Y-126802605D01*
X161642367Y-126611746D01*
X161513872Y-126441593D01*
X161466418Y-126398333D01*
X161356302Y-126297948D01*
X161175019Y-126185702D01*
X161175017Y-126185701D01*
X161033103Y-126130724D01*
X160976198Y-126108679D01*
X160779385Y-126071888D01*
X160717106Y-126040221D01*
X160681833Y-125979908D01*
X160684767Y-125910100D01*
X160724976Y-125852960D01*
X160779384Y-125828111D01*
X160976198Y-125791321D01*
X161175019Y-125714298D01*
X161356302Y-125602052D01*
X161513872Y-125458407D01*
X161642366Y-125288255D01*
X161658359Y-125256137D01*
X161737403Y-125097394D01*
X161737403Y-125097393D01*
X161737405Y-125097389D01*
X161795756Y-124892310D01*
X161815429Y-124680000D01*
X161795756Y-124467690D01*
X161737405Y-124262611D01*
X161737403Y-124262606D01*
X161737403Y-124262605D01*
X161642367Y-124071746D01*
X161513872Y-123901593D01*
X161419232Y-123815317D01*
X161356302Y-123757948D01*
X161175019Y-123645702D01*
X161175017Y-123645701D01*
X161033103Y-123590724D01*
X160976198Y-123568679D01*
X160779385Y-123531888D01*
X160717106Y-123500221D01*
X160681833Y-123439908D01*
X160684767Y-123370100D01*
X160724976Y-123312960D01*
X160779384Y-123288111D01*
X160976198Y-123251321D01*
X161175019Y-123174298D01*
X161356302Y-123062052D01*
X161513872Y-122918407D01*
X161642366Y-122748255D01*
X161657955Y-122716947D01*
X161737403Y-122557394D01*
X161737403Y-122557393D01*
X161737405Y-122557389D01*
X161795756Y-122352310D01*
X161815429Y-122140000D01*
X161795756Y-121927690D01*
X161737405Y-121722611D01*
X161737403Y-121722606D01*
X161737403Y-121722605D01*
X161642367Y-121531746D01*
X161513872Y-121361593D01*
X161438397Y-121292788D01*
X161356302Y-121217948D01*
X161175019Y-121105702D01*
X161175017Y-121105701D01*
X161075608Y-121067190D01*
X160976198Y-121028679D01*
X160803456Y-120996387D01*
X160741176Y-120964719D01*
X160705903Y-120904407D01*
X160708837Y-120834599D01*
X160749046Y-120777459D01*
X160813764Y-120751128D01*
X160826233Y-120750499D01*
X161554864Y-120750499D01*
X161554879Y-120750497D01*
X161554882Y-120750497D01*
X161579987Y-120747586D01*
X161579988Y-120747585D01*
X161579991Y-120747585D01*
X161682765Y-120702206D01*
X161762206Y-120622765D01*
X161807585Y-120519991D01*
X161810500Y-120494865D01*
X161810499Y-118705136D01*
X161810497Y-118705117D01*
X161807586Y-118680012D01*
X161807585Y-118680010D01*
X161807585Y-118680009D01*
X161762206Y-118577235D01*
X161682765Y-118497794D01*
X161682763Y-118497793D01*
X161579992Y-118452415D01*
X161554865Y-118449500D01*
X159765143Y-118449500D01*
X159765117Y-118449502D01*
X159740012Y-118452413D01*
X159740008Y-118452415D01*
X159637235Y-118497793D01*
X159557794Y-118577234D01*
X159512415Y-118680006D01*
X159512415Y-118680008D01*
X159509500Y-118705131D01*
X159509500Y-118925500D01*
X159489815Y-118992539D01*
X159437011Y-119038294D01*
X159385500Y-119049500D01*
X159324827Y-119049500D01*
X159257788Y-119029815D01*
X159212446Y-118977907D01*
X159209275Y-118971108D01*
X159209275Y-118971107D01*
X159083520Y-118791511D01*
X158928489Y-118636480D01*
X158748893Y-118510725D01*
X158742848Y-118507906D01*
X158550194Y-118418070D01*
X158550180Y-118418065D01*
X158338417Y-118361324D01*
X158338407Y-118361322D01*
X158120001Y-118342214D01*
X158119999Y-118342214D01*
X157901592Y-118361322D01*
X157901582Y-118361324D01*
X157689819Y-118418065D01*
X157689805Y-118418070D01*
X157491110Y-118510723D01*
X157491108Y-118510724D01*
X157491107Y-118510725D01*
X157311511Y-118636480D01*
X157311509Y-118636481D01*
X157311506Y-118636484D01*
X157156484Y-118791506D01*
X157156481Y-118791509D01*
X157156480Y-118791511D01*
X157077925Y-118903698D01*
X157030724Y-118971108D01*
X157030723Y-118971110D01*
X156938070Y-119169805D01*
X156938065Y-119169819D01*
X156881324Y-119381582D01*
X156881322Y-119381592D01*
X156862214Y-119599999D01*
X156125500Y-119599999D01*
X156125500Y-101670525D01*
X156087984Y-101530515D01*
X156082862Y-101521644D01*
X156070143Y-101499612D01*
X156015512Y-101404988D01*
X156015508Y-101404983D01*
X155021998Y-100411473D01*
X154988513Y-100350150D01*
X154989903Y-100291703D01*
X155030635Y-100139692D01*
X155050468Y-99913000D01*
X155049816Y-99905552D01*
X155039533Y-99788013D01*
X155030635Y-99686308D01*
X154971739Y-99466504D01*
X154875568Y-99260266D01*
X154745047Y-99073861D01*
X154745045Y-99073858D01*
X154584141Y-98912954D01*
X154397734Y-98782432D01*
X154397732Y-98782431D01*
X154191497Y-98686261D01*
X154191488Y-98686258D01*
X153971697Y-98627366D01*
X153971693Y-98627365D01*
X153971692Y-98627365D01*
X153971691Y-98627364D01*
X153971686Y-98627364D01*
X153745002Y-98607532D01*
X153744998Y-98607532D01*
X153518313Y-98627364D01*
X153518302Y-98627366D01*
X153298511Y-98686258D01*
X153298502Y-98686261D01*
X153092267Y-98782431D01*
X153092265Y-98782432D01*
X152905858Y-98912954D01*
X152744954Y-99073858D01*
X152614432Y-99260265D01*
X152609501Y-99270840D01*
X152600144Y-99290906D01*
X152553974Y-99343343D01*
X152487763Y-99362500D01*
X148502237Y-99362500D01*
X148435198Y-99342815D01*
X148389855Y-99290906D01*
X148375568Y-99260266D01*
X148245047Y-99073861D01*
X148245045Y-99073858D01*
X148084141Y-98912954D01*
X147897734Y-98782432D01*
X147897732Y-98782431D01*
X147691497Y-98686261D01*
X147691488Y-98686258D01*
X147471697Y-98627366D01*
X147471693Y-98627365D01*
X147471692Y-98627365D01*
X147471691Y-98627364D01*
X147471686Y-98627364D01*
X147245002Y-98607532D01*
X147244998Y-98607532D01*
X147018313Y-98627364D01*
X147018302Y-98627366D01*
X146798511Y-98686258D01*
X146798502Y-98686261D01*
X146592267Y-98782431D01*
X146592265Y-98782432D01*
X146405858Y-98912954D01*
X146244954Y-99073858D01*
X146114432Y-99260265D01*
X146114431Y-99260267D01*
X146018261Y-99466502D01*
X146018258Y-99466511D01*
X145959366Y-99686302D01*
X145959364Y-99686313D01*
X145939532Y-99912998D01*
X145939532Y-99913001D01*
X145959364Y-100139686D01*
X145959366Y-100139697D01*
X146018258Y-100359488D01*
X146018261Y-100359497D01*
X146114431Y-100565732D01*
X146114432Y-100565734D01*
X146244954Y-100752141D01*
X146405858Y-100913045D01*
X146452693Y-100945839D01*
X146592266Y-101043568D01*
X146798504Y-101139739D01*
X146798509Y-101139740D01*
X146798511Y-101139741D01*
X146840934Y-101151108D01*
X147018308Y-101198635D01*
X147180230Y-101212801D01*
X147244998Y-101218468D01*
X147245000Y-101218468D01*
X147245002Y-101218468D01*
X147301673Y-101213509D01*
X147471692Y-101198635D01*
X147691496Y-101139739D01*
X147897734Y-101043568D01*
X148084139Y-100913047D01*
X148245047Y-100752139D01*
X148375568Y-100565734D01*
X148389855Y-100535093D01*
X148436026Y-100482657D01*
X148502237Y-100463500D01*
X152487763Y-100463500D01*
X152554802Y-100483185D01*
X152600144Y-100535093D01*
X152614141Y-100565110D01*
X152614432Y-100565734D01*
X152744954Y-100752141D01*
X152905858Y-100913045D01*
X152952693Y-100945839D01*
X153092266Y-101043568D01*
X153298504Y-101139739D01*
X153298509Y-101139740D01*
X153298511Y-101139741D01*
X153340934Y-101151108D01*
X153518308Y-101198635D01*
X153680230Y-101212801D01*
X153744998Y-101218468D01*
X153745000Y-101218468D01*
X153745002Y-101218468D01*
X153801673Y-101213509D01*
X153971692Y-101198635D01*
X154123702Y-101157904D01*
X154193548Y-101159567D01*
X154243473Y-101189998D01*
X154988181Y-101934706D01*
X155021666Y-101996029D01*
X155024500Y-102022387D01*
X155024500Y-124405612D01*
X155004815Y-124472651D01*
X154988181Y-124493293D01*
X144330395Y-135151078D01*
X144269072Y-135184563D01*
X144199380Y-135179579D01*
X144143447Y-135137707D01*
X144119030Y-135072243D01*
X144119186Y-135052589D01*
X144119211Y-135052310D01*
X144137786Y-134840000D01*
X144118677Y-134621588D01*
X144075591Y-134460790D01*
X144061934Y-134409819D01*
X144061929Y-134409805D01*
X143978899Y-134231746D01*
X143969275Y-134211107D01*
X143843520Y-134031511D01*
X143688489Y-133876480D01*
X143508893Y-133750725D01*
X143362330Y-133682382D01*
X143309890Y-133636210D01*
X143290738Y-133569017D01*
X143310953Y-133502135D01*
X143362330Y-133457618D01*
X143382718Y-133448111D01*
X143508893Y-133389275D01*
X143688489Y-133263520D01*
X143843520Y-133108489D01*
X143969275Y-132928893D01*
X144061932Y-132730188D01*
X144118677Y-132518412D01*
X144137786Y-132300000D01*
X144118677Y-132081588D01*
X144086120Y-131960083D01*
X144087783Y-131890233D01*
X144118212Y-131840311D01*
X153983510Y-121975015D01*
X154055984Y-121849485D01*
X154059740Y-121835466D01*
X154093500Y-121709475D01*
X154093500Y-114105525D01*
X154055984Y-113965515D01*
X153983510Y-113839985D01*
X153436819Y-113293294D01*
X153403334Y-113231971D01*
X153400500Y-113205613D01*
X153400500Y-112536456D01*
X153362052Y-112343170D01*
X153362051Y-112343169D01*
X153362051Y-112343165D01*
X153362049Y-112343160D01*
X153286635Y-112161092D01*
X153286628Y-112161079D01*
X153177139Y-111997218D01*
X153177136Y-111997214D01*
X153037785Y-111857863D01*
X153037781Y-111857860D01*
X152873920Y-111748371D01*
X152873907Y-111748364D01*
X152691839Y-111672950D01*
X152691829Y-111672947D01*
X152498543Y-111634500D01*
X152498541Y-111634500D01*
X152301459Y-111634500D01*
X152301457Y-111634500D01*
X152108170Y-111672947D01*
X152108160Y-111672950D01*
X151926092Y-111748364D01*
X151926079Y-111748371D01*
X151762218Y-111857860D01*
X151762214Y-111857863D01*
X151622863Y-111997214D01*
X151622860Y-111997218D01*
X151513371Y-112161079D01*
X151513364Y-112161092D01*
X151437950Y-112343160D01*
X151437947Y-112343170D01*
X151399500Y-112536456D01*
X151399500Y-113533545D01*
X151434063Y-113707304D01*
X151427836Y-113776895D01*
X151396618Y-113822550D01*
X151380000Y-113837911D01*
X151380000Y-114559722D01*
X151303694Y-114515667D01*
X151189244Y-114485000D01*
X151070756Y-114485000D01*
X150956306Y-114515667D01*
X150880000Y-114559722D01*
X150880000Y-113837912D01*
X150863382Y-113822551D01*
X150827515Y-113762590D01*
X150825936Y-113707303D01*
X150860500Y-113533543D01*
X150860500Y-112536456D01*
X150822052Y-112343170D01*
X150822051Y-112343169D01*
X150822051Y-112343165D01*
X150822049Y-112343160D01*
X150746635Y-112161092D01*
X150746628Y-112161079D01*
X150637139Y-111997218D01*
X150637136Y-111997214D01*
X150497785Y-111857863D01*
X150497781Y-111857860D01*
X150333920Y-111748371D01*
X150333907Y-111748364D01*
X150151839Y-111672950D01*
X150151829Y-111672947D01*
X149958543Y-111634500D01*
X149958541Y-111634500D01*
X149761459Y-111634500D01*
X149761457Y-111634500D01*
X149568170Y-111672947D01*
X149568160Y-111672950D01*
X149386092Y-111748364D01*
X149386079Y-111748371D01*
X149222218Y-111857860D01*
X149222214Y-111857863D01*
X149082863Y-111997214D01*
X149082860Y-111997218D01*
X148973371Y-112161079D01*
X148973364Y-112161092D01*
X148897950Y-112343160D01*
X148897947Y-112343170D01*
X148859500Y-112536456D01*
X148859500Y-112536459D01*
X148859500Y-113533541D01*
X148859500Y-113533543D01*
X148859499Y-113533543D01*
X148897947Y-113726829D01*
X148897950Y-113726839D01*
X148973364Y-113908907D01*
X148973369Y-113908916D01*
X148988601Y-113931711D01*
X149009480Y-113998388D01*
X149009500Y-114000604D01*
X149009500Y-114164967D01*
X148989815Y-114232006D01*
X148937011Y-114277761D01*
X148867853Y-114287705D01*
X148838050Y-114279529D01*
X148794332Y-114261421D01*
X148794322Y-114261418D01*
X148658995Y-114234500D01*
X148658993Y-114234500D01*
X148521007Y-114234500D01*
X148521005Y-114234500D01*
X148385677Y-114261418D01*
X148385667Y-114261421D01*
X148258195Y-114314221D01*
X148258182Y-114314228D01*
X148143458Y-114390885D01*
X148143454Y-114390888D01*
X148045888Y-114488454D01*
X148045885Y-114488458D01*
X147969228Y-114603182D01*
X147969221Y-114603195D01*
X147916421Y-114730667D01*
X147916418Y-114730677D01*
X147889500Y-114866004D01*
X147889500Y-114866007D01*
X147889500Y-115003993D01*
X147889500Y-115003995D01*
X147889499Y-115003995D01*
X147916418Y-115139322D01*
X147916420Y-115139328D01*
X147967313Y-115262196D01*
X147967666Y-115263047D01*
X147975135Y-115332517D01*
X147943860Y-115394996D01*
X147883771Y-115430648D01*
X147853116Y-115434500D01*
X147845147Y-115434500D01*
X147845119Y-115434502D01*
X147820011Y-115437414D01*
X147820008Y-115437415D01*
X147717235Y-115482793D01*
X147637794Y-115562234D01*
X147592415Y-115665006D01*
X147592415Y-115665008D01*
X147589500Y-115690131D01*
X147589500Y-116160500D01*
X147569815Y-116227539D01*
X147517011Y-116273294D01*
X147465500Y-116284500D01*
X127580525Y-116284500D01*
X127475517Y-116312637D01*
X127440514Y-116322016D01*
X127314986Y-116394489D01*
X127314983Y-116394491D01*
X120754378Y-122955095D01*
X120693055Y-122988580D01*
X120623363Y-122983596D01*
X120579015Y-122955094D01*
X120525785Y-122901863D01*
X120525781Y-122901860D01*
X120361920Y-122792371D01*
X120361907Y-122792364D01*
X120179839Y-122716950D01*
X120179829Y-122716947D01*
X119986543Y-122678500D01*
X119986541Y-122678500D01*
X119789459Y-122678500D01*
X119789457Y-122678500D01*
X119596170Y-122716947D01*
X119596160Y-122716950D01*
X119414092Y-122792364D01*
X119414079Y-122792371D01*
X119250218Y-122901860D01*
X119250214Y-122901863D01*
X119110863Y-123041214D01*
X119110860Y-123041218D01*
X119001371Y-123205079D01*
X119001364Y-123205092D01*
X118925950Y-123387160D01*
X118925947Y-123387170D01*
X118887500Y-123580456D01*
X118887500Y-124577545D01*
X118922063Y-124751304D01*
X118915836Y-124820895D01*
X118884618Y-124866550D01*
X118868000Y-124881911D01*
X118868000Y-125603722D01*
X118791694Y-125559667D01*
X118677244Y-125529000D01*
X118558756Y-125529000D01*
X118444306Y-125559667D01*
X118368000Y-125603722D01*
X118368000Y-124881912D01*
X118351382Y-124866551D01*
X118315515Y-124806590D01*
X118313936Y-124751303D01*
X118348500Y-124577543D01*
X118348500Y-123580456D01*
X118310052Y-123387170D01*
X118310051Y-123387169D01*
X118310051Y-123387165D01*
X118290745Y-123340555D01*
X118234635Y-123205092D01*
X118234628Y-123205079D01*
X118125139Y-123041218D01*
X118125136Y-123041214D01*
X117985785Y-122901863D01*
X117985781Y-122901860D01*
X117821920Y-122792371D01*
X117821907Y-122792364D01*
X117639839Y-122716950D01*
X117639829Y-122716947D01*
X117446543Y-122678500D01*
X117446541Y-122678500D01*
X117413386Y-122678500D01*
X117346347Y-122658815D01*
X117300592Y-122606011D01*
X117290648Y-122536853D01*
X117319673Y-122473297D01*
X117325705Y-122466819D01*
X124355110Y-115437414D01*
X131631510Y-108161015D01*
X131703984Y-108035485D01*
X131707595Y-108022008D01*
X131715373Y-107992984D01*
X131728205Y-107945091D01*
X131741500Y-107895475D01*
X131741500Y-99956525D01*
X131703984Y-99816515D01*
X131693707Y-99798714D01*
X131666852Y-99752200D01*
X131631512Y-99690988D01*
X131631508Y-99690983D01*
X128798819Y-96858294D01*
X128765334Y-96796971D01*
X128762500Y-96770613D01*
X128762500Y-96101456D01*
X128724052Y-95908170D01*
X128724051Y-95908169D01*
X128724051Y-95908165D01*
X128703892Y-95859496D01*
X128648635Y-95726092D01*
X128648628Y-95726079D01*
X128539139Y-95562218D01*
X128539136Y-95562214D01*
X128399785Y-95422863D01*
X128399781Y-95422860D01*
X128385022Y-95412998D01*
X145939532Y-95412998D01*
X145939532Y-95413001D01*
X145959364Y-95639686D01*
X145959366Y-95639697D01*
X146018258Y-95859488D01*
X146018261Y-95859497D01*
X146114431Y-96065732D01*
X146114432Y-96065734D01*
X146244954Y-96252141D01*
X146405858Y-96413045D01*
X146405861Y-96413047D01*
X146592266Y-96543568D01*
X146798504Y-96639739D01*
X147018308Y-96698635D01*
X147180230Y-96712801D01*
X147244998Y-96718468D01*
X147245000Y-96718468D01*
X147245002Y-96718468D01*
X147301673Y-96713509D01*
X147471692Y-96698635D01*
X147691496Y-96639739D01*
X147897734Y-96543568D01*
X148084139Y-96413047D01*
X148245047Y-96252139D01*
X148375568Y-96065734D01*
X148471739Y-95859496D01*
X148530635Y-95639692D01*
X148550468Y-95413000D01*
X148550468Y-95412998D01*
X152439532Y-95412998D01*
X152439532Y-95413001D01*
X152459364Y-95639686D01*
X152459366Y-95639697D01*
X152518258Y-95859488D01*
X152518261Y-95859497D01*
X152614431Y-96065732D01*
X152614432Y-96065734D01*
X152744954Y-96252141D01*
X152905858Y-96413045D01*
X152905861Y-96413047D01*
X153092266Y-96543568D01*
X153298504Y-96639739D01*
X153518308Y-96698635D01*
X153680230Y-96712801D01*
X153744998Y-96718468D01*
X153745000Y-96718468D01*
X153745002Y-96718468D01*
X153801673Y-96713509D01*
X153971692Y-96698635D01*
X154191496Y-96639739D01*
X154397734Y-96543568D01*
X154584139Y-96413047D01*
X154745047Y-96252139D01*
X154875568Y-96065734D01*
X154971739Y-95859496D01*
X155030635Y-95639692D01*
X155050468Y-95413000D01*
X155048333Y-95388602D01*
X155043688Y-95335506D01*
X155030635Y-95186308D01*
X154971739Y-94966504D01*
X154875568Y-94760266D01*
X154745047Y-94573861D01*
X154745045Y-94573858D01*
X154584141Y-94412954D01*
X154397734Y-94282432D01*
X154397732Y-94282431D01*
X154191497Y-94186261D01*
X154191488Y-94186258D01*
X153971697Y-94127366D01*
X153971693Y-94127365D01*
X153971692Y-94127365D01*
X153971691Y-94127364D01*
X153971686Y-94127364D01*
X153745002Y-94107532D01*
X153744998Y-94107532D01*
X153518313Y-94127364D01*
X153518302Y-94127366D01*
X153298511Y-94186258D01*
X153298502Y-94186261D01*
X153092267Y-94282431D01*
X153092265Y-94282432D01*
X152905858Y-94412954D01*
X152744954Y-94573858D01*
X152614432Y-94760265D01*
X152614431Y-94760267D01*
X152518261Y-94966502D01*
X152518258Y-94966511D01*
X152459366Y-95186302D01*
X152459364Y-95186313D01*
X152439532Y-95412998D01*
X148550468Y-95412998D01*
X148548333Y-95388602D01*
X148543688Y-95335506D01*
X148530635Y-95186308D01*
X148471739Y-94966504D01*
X148375568Y-94760266D01*
X148245047Y-94573861D01*
X148245045Y-94573858D01*
X148084141Y-94412954D01*
X147897734Y-94282432D01*
X147897732Y-94282431D01*
X147691497Y-94186261D01*
X147691488Y-94186258D01*
X147471697Y-94127366D01*
X147471693Y-94127365D01*
X147471692Y-94127365D01*
X147471691Y-94127364D01*
X147471686Y-94127364D01*
X147245002Y-94107532D01*
X147244998Y-94107532D01*
X147018313Y-94127364D01*
X147018302Y-94127366D01*
X146798511Y-94186258D01*
X146798502Y-94186261D01*
X146592267Y-94282431D01*
X146592265Y-94282432D01*
X146405858Y-94412954D01*
X146244954Y-94573858D01*
X146114432Y-94760265D01*
X146114431Y-94760267D01*
X146018261Y-94966502D01*
X146018258Y-94966511D01*
X145959366Y-95186302D01*
X145959364Y-95186313D01*
X145939532Y-95412998D01*
X128385022Y-95412998D01*
X128235920Y-95313371D01*
X128235907Y-95313364D01*
X128053839Y-95237950D01*
X128053829Y-95237947D01*
X127860543Y-95199500D01*
X127860541Y-95199500D01*
X127663459Y-95199500D01*
X127663457Y-95199500D01*
X127470170Y-95237947D01*
X127470160Y-95237950D01*
X127288092Y-95313364D01*
X127288079Y-95313371D01*
X127124218Y-95422860D01*
X127124214Y-95422863D01*
X126984863Y-95562214D01*
X126984860Y-95562218D01*
X126875371Y-95726079D01*
X126875364Y-95726092D01*
X126799950Y-95908160D01*
X126799947Y-95908170D01*
X126761500Y-96101456D01*
X126761500Y-97098545D01*
X126796063Y-97272304D01*
X126789836Y-97341895D01*
X126758618Y-97387550D01*
X126742000Y-97402911D01*
X126742000Y-98124722D01*
X126665694Y-98080667D01*
X126551244Y-98050000D01*
X126432756Y-98050000D01*
X126318306Y-98080667D01*
X126242000Y-98124722D01*
X126242000Y-97402912D01*
X126225382Y-97387551D01*
X126189515Y-97327590D01*
X126187936Y-97272303D01*
X126222500Y-97098543D01*
X126222500Y-96101456D01*
X126184052Y-95908170D01*
X126184051Y-95908169D01*
X126184051Y-95908165D01*
X126163892Y-95859496D01*
X126108635Y-95726092D01*
X126108628Y-95726079D01*
X125999139Y-95562218D01*
X125999136Y-95562214D01*
X125859785Y-95422863D01*
X125859781Y-95422860D01*
X125695920Y-95313371D01*
X125695907Y-95313364D01*
X125513839Y-95237950D01*
X125513825Y-95237946D01*
X125504535Y-95236098D01*
X125442625Y-95203711D01*
X125408053Y-95142994D01*
X125411796Y-95073225D01*
X125441048Y-95026803D01*
X129330033Y-91137819D01*
X129391356Y-91104334D01*
X129417714Y-91101500D01*
X139010472Y-91101500D01*
X139010474Y-91101500D01*
X139010475Y-91101500D01*
X139150485Y-91063984D01*
X139276015Y-90991510D01*
X143061510Y-87206014D01*
X143133984Y-87080485D01*
X143171500Y-86940474D01*
X143171500Y-86795525D01*
X143171500Y-83858525D01*
X143133984Y-83718515D01*
X143061510Y-83592985D01*
X141826819Y-82358294D01*
X141793334Y-82296971D01*
X141790500Y-82270613D01*
X141790500Y-81601456D01*
X141752052Y-81408170D01*
X141752051Y-81408169D01*
X141752051Y-81408165D01*
X141752049Y-81408160D01*
X141676635Y-81226092D01*
X141676628Y-81226079D01*
X141567139Y-81062218D01*
X141567136Y-81062214D01*
X141427785Y-80922863D01*
X141427781Y-80922860D01*
X141263920Y-80813371D01*
X141263907Y-80813364D01*
X141081839Y-80737950D01*
X141081829Y-80737947D01*
X140888543Y-80699500D01*
X140888541Y-80699500D01*
X140691459Y-80699500D01*
X140691457Y-80699500D01*
X140498170Y-80737947D01*
X140498160Y-80737950D01*
X140316092Y-80813364D01*
X140316079Y-80813371D01*
X140152218Y-80922860D01*
X140152214Y-80922863D01*
X140012863Y-81062214D01*
X140012860Y-81062218D01*
X139903371Y-81226079D01*
X139903364Y-81226092D01*
X139827950Y-81408160D01*
X139827947Y-81408170D01*
X139789500Y-81601456D01*
X139789500Y-82598545D01*
X139824063Y-82772304D01*
X139817836Y-82841895D01*
X139786618Y-82887550D01*
X139770000Y-82902911D01*
X139770000Y-83624722D01*
X139693694Y-83580667D01*
X139579244Y-83550000D01*
X139460756Y-83550000D01*
X139346306Y-83580667D01*
X139270000Y-83624722D01*
X139270000Y-82902912D01*
X139253382Y-82887551D01*
X139217515Y-82827590D01*
X139215936Y-82772303D01*
X139250500Y-82598543D01*
X139250500Y-81601456D01*
X139212052Y-81408170D01*
X139212051Y-81408169D01*
X139212051Y-81408165D01*
X139212049Y-81408160D01*
X139136635Y-81226092D01*
X139136628Y-81226079D01*
X139027139Y-81062218D01*
X139027136Y-81062214D01*
X138887785Y-80922863D01*
X138887781Y-80922860D01*
X138723920Y-80813371D01*
X138723907Y-80813364D01*
X138541839Y-80737950D01*
X138541829Y-80737947D01*
X138348543Y-80699500D01*
X138348541Y-80699500D01*
X138151459Y-80699500D01*
X138151457Y-80699500D01*
X137958170Y-80737947D01*
X137958160Y-80737950D01*
X137776092Y-80813364D01*
X137776079Y-80813371D01*
X137612218Y-80922860D01*
X137612214Y-80922863D01*
X137472863Y-81062214D01*
X137472860Y-81062218D01*
X137363371Y-81226079D01*
X137363364Y-81226092D01*
X137314061Y-81345123D01*
X137270220Y-81399527D01*
X137203926Y-81421592D01*
X137136227Y-81404313D01*
X137088616Y-81353176D01*
X137075500Y-81297671D01*
X137075500Y-72178527D01*
X137075500Y-72178525D01*
X137037984Y-72038515D01*
X137037982Y-72038512D01*
X137037982Y-72038510D01*
X137037981Y-72038509D01*
X137016037Y-72000501D01*
X137016036Y-72000499D01*
X136965514Y-71912992D01*
X136965508Y-71912984D01*
X135910819Y-70858294D01*
X135877334Y-70796971D01*
X135874500Y-70770613D01*
X135874500Y-70101456D01*
X135836052Y-69908170D01*
X135836051Y-69908169D01*
X135836051Y-69908165D01*
X135836049Y-69908160D01*
X135760635Y-69726092D01*
X135760628Y-69726079D01*
X135651139Y-69562217D01*
X135511785Y-69422863D01*
X135511781Y-69422860D01*
X135347920Y-69313371D01*
X135347907Y-69313364D01*
X135165839Y-69237950D01*
X135165829Y-69237947D01*
X134972543Y-69199500D01*
X134972541Y-69199500D01*
X134775459Y-69199500D01*
X134775457Y-69199500D01*
X134582170Y-69237947D01*
X134582160Y-69237950D01*
X134400092Y-69313364D01*
X134400079Y-69313371D01*
X134236218Y-69422860D01*
X134236214Y-69422863D01*
X134096863Y-69562214D01*
X134096861Y-69562217D01*
X133987371Y-69726079D01*
X133987364Y-69726092D01*
X133911950Y-69908160D01*
X133911947Y-69908170D01*
X133873500Y-70101456D01*
X133873500Y-71098545D01*
X133908063Y-71272304D01*
X133901836Y-71341895D01*
X133870618Y-71387550D01*
X133854000Y-71402911D01*
X133854000Y-72124722D01*
X133777694Y-72080667D01*
X133663244Y-72050000D01*
X133544756Y-72050000D01*
X133430306Y-72080667D01*
X133354000Y-72124722D01*
X133354000Y-71402912D01*
X133337382Y-71387551D01*
X133301515Y-71327590D01*
X133299936Y-71272303D01*
X133334500Y-71098543D01*
X133334500Y-70101456D01*
X133296052Y-69908170D01*
X133296051Y-69908169D01*
X133296051Y-69908165D01*
X133296049Y-69908160D01*
X133220635Y-69726092D01*
X133220628Y-69726079D01*
X133111139Y-69562217D01*
X132971785Y-69422863D01*
X132971781Y-69422860D01*
X132807920Y-69313371D01*
X132807907Y-69313364D01*
X132625839Y-69237950D01*
X132625829Y-69237947D01*
X132432543Y-69199500D01*
X132432541Y-69199500D01*
X132284387Y-69199500D01*
X132217348Y-69179815D01*
X132171593Y-69127011D01*
X132161649Y-69057853D01*
X132190674Y-68994297D01*
X132196706Y-68987819D01*
X132271706Y-68912819D01*
X132333029Y-68879334D01*
X132359387Y-68876500D01*
X135991613Y-68876500D01*
X136058652Y-68896185D01*
X136079294Y-68912819D01*
X138853985Y-71687510D01*
X138853987Y-71687511D01*
X138853991Y-71687514D01*
X138932608Y-71732903D01*
X138932611Y-71732904D01*
X138932616Y-71732907D01*
X138979515Y-71759984D01*
X139119525Y-71797500D01*
X139119526Y-71797500D01*
X139119528Y-71797500D01*
X152599472Y-71797500D01*
X152599474Y-71797500D01*
X152599475Y-71797500D01*
X152739485Y-71759984D01*
X152786384Y-71732907D01*
X152791477Y-71729967D01*
X152865008Y-71687514D01*
X152865007Y-71687514D01*
X152865015Y-71687510D01*
X153856510Y-70696015D01*
X153928984Y-70570485D01*
X153966500Y-70430474D01*
X153966500Y-70285526D01*
X153966500Y-64533525D01*
X153928984Y-64393515D01*
X153856510Y-64267985D01*
X153446819Y-63858294D01*
X153413334Y-63796971D01*
X153410500Y-63770613D01*
X153410500Y-63101456D01*
X153372052Y-62908170D01*
X153372051Y-62908169D01*
X153372051Y-62908165D01*
X153372049Y-62908160D01*
X153296635Y-62726092D01*
X153296628Y-62726079D01*
X153187139Y-62562218D01*
X153187136Y-62562214D01*
X153047785Y-62422863D01*
X153047781Y-62422860D01*
X152883920Y-62313371D01*
X152883907Y-62313364D01*
X152701839Y-62237950D01*
X152701829Y-62237947D01*
X152508543Y-62199500D01*
X152508541Y-62199500D01*
X152311459Y-62199500D01*
X152311457Y-62199500D01*
X152118170Y-62237947D01*
X152118160Y-62237950D01*
X151936092Y-62313364D01*
X151936079Y-62313371D01*
X151772218Y-62422860D01*
X151772214Y-62422863D01*
X151632863Y-62562214D01*
X151632860Y-62562218D01*
X151523371Y-62726079D01*
X151523364Y-62726092D01*
X151447950Y-62908160D01*
X151447947Y-62908170D01*
X151409500Y-63101456D01*
X151409500Y-64098545D01*
X151444063Y-64272304D01*
X151437836Y-64341895D01*
X151406618Y-64387550D01*
X151390000Y-64402911D01*
X151390000Y-65124722D01*
X151313694Y-65080667D01*
X151199244Y-65050000D01*
X151080756Y-65050000D01*
X150966306Y-65080667D01*
X150890000Y-65124722D01*
X150890000Y-64402912D01*
X150873382Y-64387551D01*
X150837515Y-64327590D01*
X150835936Y-64272303D01*
X150836796Y-64267983D01*
X150847502Y-64214153D01*
X150870500Y-64098543D01*
X150870500Y-63101456D01*
X150832052Y-62908170D01*
X150832051Y-62908169D01*
X150832051Y-62908165D01*
X150832049Y-62908160D01*
X150756635Y-62726092D01*
X150756628Y-62726079D01*
X150647139Y-62562218D01*
X150647136Y-62562214D01*
X150507785Y-62422863D01*
X150507781Y-62422860D01*
X150343920Y-62313371D01*
X150343907Y-62313364D01*
X150161839Y-62237950D01*
X150161829Y-62237947D01*
X149968543Y-62199500D01*
X149968541Y-62199500D01*
X149771459Y-62199500D01*
X149771457Y-62199500D01*
X149578170Y-62237947D01*
X149578160Y-62237950D01*
X149396092Y-62313364D01*
X149396079Y-62313371D01*
X149232218Y-62422860D01*
X149232214Y-62422863D01*
X149092863Y-62562214D01*
X149092860Y-62562218D01*
X148983371Y-62726079D01*
X148983364Y-62726092D01*
X148907950Y-62908160D01*
X148907947Y-62908170D01*
X148869500Y-63101456D01*
X148869500Y-63101459D01*
X148869500Y-64098541D01*
X148869500Y-64098543D01*
X148869499Y-64098543D01*
X148907947Y-64291829D01*
X148907950Y-64291839D01*
X148983364Y-64473907D01*
X148983369Y-64473916D01*
X148998601Y-64496711D01*
X149019480Y-64563388D01*
X149019500Y-64565604D01*
X149019500Y-64729967D01*
X148999815Y-64797006D01*
X148947011Y-64842761D01*
X148877853Y-64852705D01*
X148848050Y-64844529D01*
X148804332Y-64826421D01*
X148804322Y-64826418D01*
X148668995Y-64799500D01*
X148668993Y-64799500D01*
X148531007Y-64799500D01*
X148531005Y-64799500D01*
X148395677Y-64826418D01*
X148395667Y-64826421D01*
X148268195Y-64879221D01*
X148268182Y-64879228D01*
X148153458Y-64955885D01*
X148153454Y-64955888D01*
X148055888Y-65053454D01*
X148055885Y-65053458D01*
X147979228Y-65168182D01*
X147979221Y-65168195D01*
X147926421Y-65295667D01*
X147926418Y-65295677D01*
X147899500Y-65431004D01*
X147899500Y-65568993D01*
X147907150Y-65607456D01*
X147900921Y-65677047D01*
X147858057Y-65732224D01*
X147792167Y-65755467D01*
X147724170Y-65739398D01*
X147697851Y-65719326D01*
X147525819Y-65547294D01*
X147492334Y-65485971D01*
X147489500Y-65459613D01*
X147489500Y-53615833D01*
X147509185Y-53548794D01*
X147561989Y-53503039D01*
X147631147Y-53493095D01*
X147694703Y-53522120D01*
G37*
G04 #@! TD.AperFunction*
G04 #@! TA.AperFunction,Conductor*
G36*
X171385703Y-70315715D02*
G01*
X171403573Y-70334860D01*
X172678084Y-72028587D01*
X172678200Y-72028742D01*
X173087394Y-72576016D01*
X173088486Y-72577499D01*
X173453783Y-73081509D01*
X173455028Y-73083259D01*
X173773571Y-73539173D01*
X173775076Y-73541376D01*
X174042025Y-73941516D01*
X174043978Y-73944538D01*
X174253632Y-74279452D01*
X174256413Y-74284119D01*
X174405065Y-74546478D01*
X174408155Y-74552286D01*
X174446556Y-74629358D01*
X174451654Y-74639589D01*
X174454572Y-74645882D01*
X174462835Y-74665088D01*
X174471248Y-74734450D01*
X174466030Y-74754882D01*
X174462807Y-74764135D01*
X174460706Y-74769729D01*
X174452662Y-74789673D01*
X174450459Y-74794798D01*
X174442940Y-74811264D01*
X174439498Y-74818218D01*
X174409758Y-74873848D01*
X174404998Y-74881992D01*
X174370350Y-74936402D01*
X174365448Y-74943536D01*
X174323312Y-75000502D01*
X174318271Y-75006871D01*
X174269599Y-75064379D01*
X174264368Y-75070178D01*
X174210322Y-75126434D01*
X174204828Y-75131809D01*
X174146646Y-75185302D01*
X174140781Y-75190366D01*
X174079906Y-75239688D01*
X174073543Y-75244512D01*
X174011500Y-75288481D01*
X174004479Y-75293108D01*
X173937947Y-75333781D01*
X173932149Y-75337113D01*
X173906918Y-75350726D01*
X173902744Y-75352877D01*
X173873519Y-75367244D01*
X173869076Y-75369320D01*
X173840987Y-75381769D01*
X173836217Y-75383765D01*
X173809403Y-75394334D01*
X173804285Y-75396222D01*
X173779163Y-75404868D01*
X173773674Y-75406616D01*
X173757642Y-75411313D01*
X173748816Y-75413551D01*
X173300230Y-75509893D01*
X173296675Y-75510602D01*
X172490175Y-75659294D01*
X172488348Y-75659616D01*
X170263716Y-76035451D01*
X170262213Y-76035696D01*
X169347642Y-76178673D01*
X169278366Y-76169579D01*
X169225004Y-76124476D01*
X169223836Y-76120672D01*
X169223869Y-76125239D01*
X169186515Y-76184286D01*
X169123798Y-76213667D01*
X167957400Y-76396012D01*
X167955806Y-76396250D01*
X167047040Y-76526246D01*
X167044500Y-76526583D01*
X166436840Y-76600731D01*
X166434954Y-76600947D01*
X166269206Y-76618601D01*
X166255576Y-76619297D01*
X166250985Y-76619278D01*
X166192028Y-76626796D01*
X166189478Y-76627094D01*
X166130390Y-76633387D01*
X166125917Y-76634468D01*
X166112503Y-76636935D01*
X166031461Y-76647269D01*
X166018091Y-76648243D01*
X166012133Y-76648354D01*
X165953979Y-76657117D01*
X165951187Y-76657505D01*
X165892876Y-76664939D01*
X165887112Y-76666459D01*
X165873989Y-76669169D01*
X165813641Y-76678262D01*
X165800367Y-76678699D01*
X165800403Y-76679476D01*
X165792289Y-76679849D01*
X165735828Y-76689940D01*
X165732493Y-76690489D01*
X165675764Y-76699038D01*
X165667958Y-76701287D01*
X165667743Y-76700541D01*
X165655028Y-76704383D01*
X165617087Y-76711164D01*
X165602009Y-76712139D01*
X165602040Y-76712505D01*
X165593942Y-76713178D01*
X165540811Y-76724713D01*
X165536324Y-76725601D01*
X165482813Y-76735166D01*
X165475067Y-76737629D01*
X165474955Y-76737279D01*
X165460645Y-76742119D01*
X165443254Y-76745895D01*
X165418291Y-76748711D01*
X165416010Y-76748735D01*
X165370217Y-76761534D01*
X165363153Y-76763286D01*
X165316697Y-76773373D01*
X165316684Y-76773378D01*
X165316434Y-76773507D01*
X165315862Y-76773673D01*
X165309047Y-76776120D01*
X165308895Y-76775698D01*
X165270876Y-76786754D01*
X165264272Y-76787352D01*
X165264260Y-76787355D01*
X165225756Y-76801505D01*
X165216368Y-76804537D01*
X165185008Y-76813303D01*
X165176869Y-76815209D01*
X165176195Y-76815431D01*
X165144099Y-76830898D01*
X165133047Y-76835579D01*
X165099617Y-76847865D01*
X165099616Y-76847866D01*
X165097893Y-76849081D01*
X165072291Y-76862943D01*
X165057895Y-76868669D01*
X165057894Y-76868669D01*
X165053087Y-76872251D01*
X165032855Y-76884508D01*
X165027458Y-76887109D01*
X165019020Y-76894374D01*
X165016843Y-76896205D01*
X164986458Y-76921174D01*
X164971569Y-76931676D01*
X164966784Y-76934548D01*
X164966629Y-76934672D01*
X164951783Y-76947731D01*
X164933751Y-76961167D01*
X164929663Y-76965140D01*
X164920851Y-76974125D01*
X164916949Y-76978295D01*
X164900675Y-77001037D01*
X164889014Y-77015032D01*
X164875208Y-77029320D01*
X164875206Y-77029323D01*
X164869015Y-77040484D01*
X164857887Y-77057192D01*
X164852052Y-77064578D01*
X164849155Y-77069436D01*
X164839528Y-77086487D01*
X164836892Y-77090170D01*
X164835554Y-77092041D01*
X164835549Y-77092050D01*
X164828561Y-77110652D01*
X164820923Y-77127181D01*
X164811285Y-77144558D01*
X164811280Y-77144570D01*
X164805034Y-77169590D01*
X164801360Y-77180467D01*
X164799773Y-77186073D01*
X164796550Y-77195873D01*
X164789008Y-77215950D01*
X164788504Y-77218047D01*
X164786171Y-77240168D01*
X164783165Y-77257187D01*
X164777774Y-77278781D01*
X164777957Y-77289453D01*
X164776913Y-77300906D01*
X164777513Y-77300948D01*
X164776952Y-77309054D01*
X164777034Y-77310365D01*
X164776587Y-77331032D01*
X164774681Y-77349099D01*
X164774681Y-77349102D01*
X164778153Y-77371081D01*
X164779653Y-77388292D01*
X164780036Y-77410546D01*
X164780036Y-77410548D01*
X164780396Y-77411804D01*
X164784952Y-77438282D01*
X164785094Y-77440584D01*
X164785095Y-77440589D01*
X164789434Y-77453525D01*
X164794350Y-77473600D01*
X164796481Y-77487092D01*
X164798787Y-77494883D01*
X164798443Y-77494984D01*
X164799716Y-77499147D01*
X164800355Y-77498946D01*
X164802797Y-77506690D01*
X164811040Y-77524363D01*
X164813069Y-77529789D01*
X164813083Y-77529784D01*
X164819399Y-77544316D01*
X164823232Y-77554293D01*
X164830669Y-77576464D01*
X164830670Y-77576465D01*
X164830672Y-77576470D01*
X164836984Y-77585993D01*
X164842106Y-77594431D01*
X164849958Y-77608612D01*
X164855734Y-77622536D01*
X164856078Y-77622386D01*
X164859328Y-77629833D01*
X164859953Y-77630869D01*
X164866123Y-77642455D01*
X164872889Y-77656961D01*
X164876472Y-77661230D01*
X164889948Y-77680838D01*
X164890306Y-77681484D01*
X164894052Y-77690123D01*
X164894371Y-77689972D01*
X164897852Y-77697308D01*
X164903994Y-77706805D01*
X164908347Y-77714069D01*
X164916059Y-77727996D01*
X164916062Y-77727999D01*
X164920886Y-77734525D01*
X164920731Y-77734638D01*
X164927553Y-77743235D01*
X164928251Y-77744314D01*
X164930340Y-77747657D01*
X164959255Y-77795633D01*
X164964319Y-77801981D01*
X164963854Y-77802351D01*
X164972832Y-77813248D01*
X164980901Y-77825726D01*
X164987455Y-77837150D01*
X164990700Y-77843574D01*
X165023504Y-77891671D01*
X165025184Y-77894201D01*
X165056815Y-77943111D01*
X165056818Y-77943115D01*
X165056821Y-77943119D01*
X165056824Y-77943122D01*
X165061486Y-77948600D01*
X165069474Y-77959070D01*
X165102019Y-78006787D01*
X165109340Y-78018968D01*
X165110047Y-78020315D01*
X165145158Y-78070063D01*
X165146288Y-78071693D01*
X165180600Y-78121999D01*
X165180602Y-78122001D01*
X165180606Y-78122007D01*
X165180610Y-78122011D01*
X165181604Y-78123122D01*
X165190476Y-78134274D01*
X165245636Y-78212431D01*
X165252511Y-78223514D01*
X165289387Y-78274435D01*
X165290202Y-78275575D01*
X165295266Y-78282749D01*
X165326493Y-78326995D01*
X165334759Y-78337089D01*
X165408945Y-78439531D01*
X165414967Y-78448998D01*
X165453214Y-78500672D01*
X165453976Y-78501712D01*
X165491770Y-78553901D01*
X165498969Y-78562491D01*
X165588509Y-78683468D01*
X165594209Y-78692234D01*
X165595487Y-78693927D01*
X165595488Y-78693928D01*
X165633457Y-78744205D01*
X165634108Y-78745076D01*
X165672761Y-78797300D01*
X165679558Y-78805248D01*
X165780505Y-78938915D01*
X165781215Y-78939993D01*
X165824859Y-78997646D01*
X165824945Y-78997759D01*
X165869168Y-79056316D01*
X165870019Y-79057301D01*
X166878319Y-80389223D01*
X168083889Y-81994721D01*
X168083913Y-81994785D01*
X168083929Y-81994774D01*
X170046748Y-84611630D01*
X170048999Y-84615067D01*
X170052425Y-84619600D01*
X170052426Y-84619601D01*
X170091558Y-84671373D01*
X170130581Y-84723398D01*
X170130583Y-84723399D01*
X170133985Y-84727935D01*
X170136658Y-84731040D01*
X172527065Y-87893510D01*
X172943132Y-88443960D01*
X172943333Y-88444228D01*
X176405936Y-93051015D01*
X179032658Y-96545714D01*
X179054298Y-96574504D01*
X179054859Y-96575256D01*
X180572066Y-98627365D01*
X181001529Y-99208238D01*
X181003038Y-99210325D01*
X181248239Y-99556803D01*
X181743783Y-100257025D01*
X181773511Y-100299031D01*
X181790786Y-100334114D01*
X181791261Y-100335654D01*
X181793537Y-100344076D01*
X181795912Y-100354274D01*
X181797536Y-100362493D01*
X181799554Y-100374900D01*
X181800588Y-100382887D01*
X181802008Y-100397590D01*
X181802509Y-100405259D01*
X181803093Y-100422286D01*
X181803127Y-100429654D01*
X181802643Y-100448901D01*
X181802266Y-100455933D01*
X181800514Y-100477266D01*
X181799776Y-100483993D01*
X181796583Y-100507236D01*
X181795532Y-100513642D01*
X181790772Y-100538543D01*
X181789442Y-100544660D01*
X181783010Y-100571016D01*
X181781433Y-100576853D01*
X181773277Y-100604372D01*
X181771474Y-100609966D01*
X181761549Y-100638427D01*
X181759542Y-100643783D01*
X181747858Y-100672895D01*
X181745659Y-100678034D01*
X181732241Y-100707544D01*
X181729849Y-100712509D01*
X181714725Y-100742195D01*
X181712158Y-100746973D01*
X181695414Y-100776563D01*
X181692661Y-100781190D01*
X181674345Y-100810511D01*
X181671403Y-100815001D01*
X181651686Y-100843719D01*
X181648552Y-100848079D01*
X181627437Y-100876147D01*
X181624107Y-100880379D01*
X181601821Y-100907470D01*
X181598273Y-100911595D01*
X181574902Y-100937591D01*
X181571128Y-100941606D01*
X181546796Y-100966364D01*
X181542785Y-100970265D01*
X181517671Y-100993612D01*
X181513409Y-100997395D01*
X181487627Y-101019243D01*
X181483093Y-101022906D01*
X181456825Y-101043124D01*
X181452007Y-101046651D01*
X181425390Y-101065168D01*
X181420288Y-101068533D01*
X181393426Y-101085317D01*
X181388004Y-101088515D01*
X181361031Y-101103520D01*
X181355297Y-101106517D01*
X181328825Y-101119484D01*
X181305067Y-101128243D01*
X180862690Y-101241635D01*
X180856976Y-101242956D01*
X179893971Y-101441801D01*
X179891566Y-101442273D01*
X177125183Y-101956692D01*
X177123271Y-101957032D01*
X176449819Y-102071382D01*
X176380430Y-102063198D01*
X176326481Y-102018798D01*
X176305101Y-101952280D01*
X176323077Y-101884763D01*
X176372768Y-101838646D01*
X176396941Y-101826329D01*
X176549741Y-101715314D01*
X176549746Y-101715310D01*
X176683310Y-101581746D01*
X176683314Y-101581741D01*
X176794329Y-101428940D01*
X176880085Y-101260637D01*
X176938451Y-101081002D01*
X176968000Y-100894447D01*
X176968000Y-100650000D01*
X174568000Y-100650000D01*
X174568000Y-100894447D01*
X174597548Y-101081002D01*
X174655914Y-101260637D01*
X174741670Y-101428940D01*
X174852685Y-101581741D01*
X174852689Y-101581746D01*
X174986253Y-101715310D01*
X174986258Y-101715314D01*
X175139059Y-101826329D01*
X175307362Y-101912085D01*
X175486997Y-101970451D01*
X175546296Y-101979844D01*
X175609431Y-102009773D01*
X175646362Y-102069085D01*
X175645364Y-102138947D01*
X175606754Y-102197180D01*
X175547656Y-102224567D01*
X174330718Y-102431199D01*
X174328367Y-102431575D01*
X173331748Y-102581173D01*
X173326395Y-102581858D01*
X172818524Y-102635623D01*
X172807903Y-102636288D01*
X172719815Y-102638017D01*
X172705915Y-102636683D01*
X172705865Y-102637307D01*
X172697767Y-102636654D01*
X172697765Y-102636654D01*
X172697762Y-102636654D01*
X172697761Y-102636654D01*
X172641558Y-102639494D01*
X172637738Y-102639628D01*
X172610316Y-102640167D01*
X172601643Y-102640034D01*
X172598891Y-102639895D01*
X172594534Y-102640247D01*
X172587005Y-102640625D01*
X172581520Y-102640733D01*
X172577839Y-102641291D01*
X172569243Y-102642289D01*
X172542573Y-102644443D01*
X172538848Y-102644687D01*
X172519153Y-102645682D01*
X172509887Y-102645263D01*
X172509884Y-102645589D01*
X172501763Y-102645504D01*
X172491036Y-102646802D01*
X172482436Y-102647539D01*
X172482423Y-102647539D01*
X172481260Y-102647753D01*
X172473793Y-102648889D01*
X172457095Y-102650909D01*
X172448707Y-102651924D01*
X172443794Y-102652420D01*
X172422151Y-102654167D01*
X172412096Y-102654126D01*
X172405025Y-102654423D01*
X172398623Y-102655541D01*
X172392201Y-102656360D01*
X172386977Y-102657482D01*
X172382288Y-102658394D01*
X172356250Y-102662941D01*
X172349817Y-102663892D01*
X172322112Y-102667245D01*
X172309333Y-102667889D01*
X172306898Y-102668160D01*
X172263842Y-102678782D01*
X172255477Y-102680542D01*
X172212507Y-102688047D01*
X172208643Y-102688519D01*
X172205277Y-102689207D01*
X172169707Y-102701484D01*
X172158958Y-102704658D01*
X172122423Y-102713672D01*
X172116386Y-102716033D01*
X172105912Y-102719052D01*
X172105924Y-102719086D01*
X172098211Y-102721636D01*
X172072075Y-102734271D01*
X172058567Y-102739844D01*
X172031144Y-102749309D01*
X172031139Y-102749311D01*
X172025617Y-102753042D01*
X171997500Y-102767211D01*
X171985445Y-102771468D01*
X171985441Y-102771469D01*
X171985438Y-102771471D01*
X171985435Y-102771472D01*
X171985435Y-102771473D01*
X171970026Y-102782041D01*
X171953870Y-102791415D01*
X171937033Y-102799555D01*
X171937030Y-102799557D01*
X171918228Y-102815787D01*
X171899331Y-102829233D01*
X171870983Y-102845643D01*
X171870981Y-102845645D01*
X171865432Y-102851207D01*
X171847794Y-102865880D01*
X171841320Y-102870320D01*
X171814008Y-102902237D01*
X171807476Y-102909296D01*
X171807092Y-102909680D01*
X171802707Y-102913856D01*
X171765466Y-102947625D01*
X171764169Y-102949154D01*
X171750835Y-102965699D01*
X171749615Y-102967293D01*
X171724532Y-103010853D01*
X171721300Y-103016155D01*
X171716012Y-103024359D01*
X171713026Y-103028780D01*
X171682737Y-103071605D01*
X171678952Y-103078794D01*
X171678852Y-103078741D01*
X171676377Y-103083697D01*
X171676480Y-103083746D01*
X171673010Y-103091084D01*
X171656983Y-103140999D01*
X171655239Y-103146052D01*
X171652525Y-103153400D01*
X171649783Y-103160199D01*
X171630757Y-103203623D01*
X171630753Y-103203635D01*
X171630392Y-103206008D01*
X171624132Y-103230272D01*
X171623297Y-103232532D01*
X171623295Y-103232541D01*
X171623295Y-103232542D01*
X171619153Y-103277425D01*
X171616091Y-103295636D01*
X171607437Y-103330822D01*
X171607687Y-103342942D01*
X171606299Y-103364168D01*
X171604475Y-103376139D01*
X171604475Y-103376148D01*
X171607392Y-103402411D01*
X171607487Y-103428904D01*
X171605540Y-103447653D01*
X171605540Y-103447661D01*
X171609139Y-103470206D01*
X171610663Y-103487189D01*
X171611135Y-103510033D01*
X171613467Y-103518071D01*
X171618377Y-103552122D01*
X171618387Y-103554660D01*
X171626874Y-103585843D01*
X171629675Y-103598858D01*
X171634767Y-103630755D01*
X171637085Y-103638546D01*
X171636888Y-103638604D01*
X171640790Y-103650417D01*
X171641755Y-103654770D01*
X171655393Y-103692252D01*
X171658513Y-103702081D01*
X171668993Y-103740583D01*
X171670669Y-103744583D01*
X171671280Y-103746311D01*
X171691800Y-103793068D01*
X171694779Y-103800499D01*
X171710413Y-103843464D01*
X171714167Y-103850676D01*
X171714135Y-103850692D01*
X171715789Y-103853467D01*
X171734873Y-103891600D01*
X171737513Y-103897225D01*
X171757663Y-103943139D01*
X171761869Y-103950086D01*
X171761619Y-103950236D01*
X171764409Y-103954472D01*
X171784168Y-103990320D01*
X171786458Y-103994677D01*
X171810400Y-104042513D01*
X171811763Y-104044527D01*
X171815719Y-104050767D01*
X171839788Y-104091354D01*
X171841722Y-104094736D01*
X171849628Y-104109079D01*
X171869045Y-104144308D01*
X171873081Y-104150239D01*
X171901855Y-104196094D01*
X171903451Y-104198711D01*
X171934094Y-104250386D01*
X171936678Y-104253980D01*
X171970600Y-104305696D01*
X171971948Y-104307797D01*
X172007934Y-104365145D01*
X172007607Y-104365350D01*
X172008846Y-104367233D01*
X172009015Y-104367118D01*
X172046964Y-104422176D01*
X172048552Y-104424536D01*
X172080753Y-104473628D01*
X172084742Y-104478255D01*
X172092918Y-104488845D01*
X172174558Y-104607289D01*
X172181658Y-104618908D01*
X172183929Y-104623128D01*
X172183931Y-104623131D01*
X172183933Y-104623135D01*
X172208509Y-104657235D01*
X172218637Y-104671289D01*
X172220135Y-104673415D01*
X172253799Y-104722254D01*
X172257004Y-104725804D01*
X172265563Y-104736399D01*
X172377558Y-104891795D01*
X172385159Y-104903769D01*
X172422029Y-104953519D01*
X172423001Y-104954849D01*
X172459200Y-105005076D01*
X172468305Y-105015961D01*
X172611997Y-105209851D01*
X172616747Y-105217159D01*
X172656758Y-105270257D01*
X172657350Y-105271049D01*
X172696920Y-105324442D01*
X172702569Y-105331051D01*
X172879212Y-105565467D01*
X172879284Y-105565575D01*
X172924166Y-105625123D01*
X172924174Y-105625134D01*
X172967965Y-105683246D01*
X172968043Y-105683336D01*
X175963031Y-109656929D01*
X175963242Y-109657250D01*
X176007498Y-109715924D01*
X176007524Y-109715958D01*
X176051962Y-109774917D01*
X176052205Y-109775198D01*
X183694192Y-119907007D01*
X183700171Y-119914933D01*
X183700234Y-119915100D01*
X183700274Y-119915070D01*
X185687563Y-122557392D01*
X185692932Y-122564530D01*
X185717496Y-122629939D01*
X185702797Y-122698245D01*
X185653503Y-122747762D01*
X185585264Y-122762767D01*
X185546381Y-122753625D01*
X185491769Y-122731005D01*
X185457835Y-122716949D01*
X185457833Y-122716948D01*
X185457829Y-122716947D01*
X185264543Y-122678500D01*
X185264541Y-122678500D01*
X185103387Y-122678500D01*
X185036348Y-122658815D01*
X185015706Y-122642181D01*
X170512819Y-108139294D01*
X170479334Y-108077971D01*
X170476500Y-108051613D01*
X170476500Y-102260386D01*
X170496185Y-102193347D01*
X170512819Y-102172705D01*
X171698705Y-100986819D01*
X171760028Y-100953334D01*
X171786386Y-100950500D01*
X172103501Y-100950500D01*
X172170540Y-100970185D01*
X172216295Y-101022989D01*
X172227501Y-101074500D01*
X172227501Y-101544856D01*
X172227502Y-101544882D01*
X172230413Y-101569987D01*
X172230415Y-101569991D01*
X172275793Y-101672764D01*
X172275794Y-101672765D01*
X172355235Y-101752206D01*
X172458009Y-101797585D01*
X172483135Y-101800500D01*
X173972864Y-101800499D01*
X173972879Y-101800497D01*
X173972882Y-101800497D01*
X173997987Y-101797586D01*
X173997988Y-101797585D01*
X173997991Y-101797585D01*
X174100765Y-101752206D01*
X174180206Y-101672765D01*
X174225585Y-101569991D01*
X174228500Y-101544865D01*
X174228499Y-100365218D01*
X175568000Y-100365218D01*
X175568000Y-100444782D01*
X175598448Y-100518291D01*
X175654709Y-100574552D01*
X175728218Y-100605000D01*
X175807782Y-100605000D01*
X175881291Y-100574552D01*
X175937552Y-100518291D01*
X175968000Y-100444782D01*
X175968000Y-100365218D01*
X175937552Y-100291709D01*
X175881291Y-100235448D01*
X175807782Y-100205000D01*
X175728218Y-100205000D01*
X175654709Y-100235448D01*
X175598448Y-100291709D01*
X175568000Y-100365218D01*
X174228499Y-100365218D01*
X174228499Y-99524499D01*
X174248184Y-99457461D01*
X174300987Y-99411706D01*
X174352499Y-99400500D01*
X174530363Y-99400500D01*
X174597402Y-99420185D01*
X174643157Y-99472989D01*
X174653101Y-99542147D01*
X174648294Y-99562818D01*
X174597547Y-99718998D01*
X174568000Y-99905552D01*
X174568000Y-100150000D01*
X175518000Y-100150000D01*
X175518000Y-98875277D01*
X175594306Y-98919333D01*
X175708756Y-98950000D01*
X175827244Y-98950000D01*
X175941694Y-98919333D01*
X176018000Y-98875277D01*
X176018000Y-100150000D01*
X176968000Y-100150000D01*
X176968000Y-99905552D01*
X176938452Y-99718997D01*
X176880085Y-99539362D01*
X176880083Y-99539359D01*
X176831515Y-99444037D01*
X176818000Y-99387742D01*
X176818000Y-99321557D01*
X176837685Y-99254518D01*
X176890489Y-99208763D01*
X176959647Y-99198819D01*
X176966182Y-99199938D01*
X176969007Y-99200500D01*
X176969008Y-99200500D01*
X177106995Y-99200500D01*
X177198041Y-99182389D01*
X177242328Y-99173580D01*
X177369811Y-99120775D01*
X177484542Y-99044114D01*
X177582114Y-98946542D01*
X177658775Y-98831811D01*
X177711580Y-98704328D01*
X177738500Y-98568993D01*
X177738500Y-98431007D01*
X177738500Y-98431004D01*
X177711581Y-98295677D01*
X177711580Y-98295676D01*
X177711580Y-98295672D01*
X177681766Y-98223694D01*
X177658778Y-98168195D01*
X177658771Y-98168182D01*
X177582114Y-98053458D01*
X177582111Y-98053454D01*
X177560831Y-98032174D01*
X177527346Y-97970851D01*
X177532330Y-97901159D01*
X177574202Y-97845226D01*
X177579596Y-97841407D01*
X177675782Y-97777139D01*
X177815139Y-97637782D01*
X177924632Y-97473914D01*
X177939810Y-97437272D01*
X177960405Y-97387550D01*
X178000051Y-97291835D01*
X178012632Y-97228582D01*
X178038500Y-97098543D01*
X178038500Y-96101456D01*
X178000052Y-95908170D01*
X178000051Y-95908169D01*
X178000051Y-95908165D01*
X177979892Y-95859496D01*
X177924635Y-95726092D01*
X177924628Y-95726079D01*
X177815139Y-95562218D01*
X177815136Y-95562214D01*
X177675785Y-95422863D01*
X177675781Y-95422860D01*
X177511920Y-95313371D01*
X177511907Y-95313364D01*
X177329839Y-95237950D01*
X177329829Y-95237947D01*
X177166545Y-95205467D01*
X177104634Y-95173082D01*
X177103056Y-95171531D01*
X175598016Y-93666491D01*
X175598015Y-93666490D01*
X175472485Y-93594016D01*
X175472486Y-93594016D01*
X175437482Y-93584637D01*
X175332475Y-93556500D01*
X175332472Y-93556500D01*
X166776387Y-93556500D01*
X166709348Y-93536815D01*
X166688706Y-93520181D01*
X160686819Y-87518294D01*
X160653334Y-87456971D01*
X160650500Y-87430613D01*
X160650500Y-87424499D01*
X160670185Y-87357460D01*
X160722989Y-87311705D01*
X160774500Y-87300499D01*
X160844856Y-87300499D01*
X160844864Y-87300499D01*
X160844879Y-87300497D01*
X160844882Y-87300497D01*
X160869987Y-87297586D01*
X160869988Y-87297585D01*
X160869991Y-87297585D01*
X160972765Y-87252206D01*
X161052206Y-87172765D01*
X161097585Y-87069991D01*
X161100500Y-87044865D01*
X161100500Y-86394447D01*
X161440000Y-86394447D01*
X161469548Y-86581002D01*
X161527914Y-86760637D01*
X161613670Y-86928940D01*
X161724685Y-87081741D01*
X161724689Y-87081746D01*
X161858253Y-87215310D01*
X161858258Y-87215314D01*
X162011059Y-87326329D01*
X162179362Y-87412085D01*
X162358997Y-87470451D01*
X162390000Y-87475362D01*
X162390000Y-87475361D01*
X162890000Y-87475361D01*
X162921002Y-87470451D01*
X163100637Y-87412085D01*
X163268940Y-87326329D01*
X163421741Y-87215314D01*
X163421746Y-87215310D01*
X163555310Y-87081746D01*
X163555314Y-87081741D01*
X163666329Y-86928940D01*
X163752085Y-86760637D01*
X163810451Y-86581002D01*
X163840000Y-86394447D01*
X163840000Y-86150000D01*
X162890000Y-86150000D01*
X162890000Y-87475361D01*
X162390000Y-87475361D01*
X162390000Y-86150000D01*
X161440000Y-86150000D01*
X161440000Y-86394447D01*
X161100500Y-86394447D01*
X161100500Y-85865218D01*
X162440000Y-85865218D01*
X162440000Y-85944782D01*
X162470448Y-86018291D01*
X162526709Y-86074552D01*
X162600218Y-86105000D01*
X162679782Y-86105000D01*
X162753291Y-86074552D01*
X162809552Y-86018291D01*
X162840000Y-85944782D01*
X162840000Y-85865218D01*
X162809552Y-85791709D01*
X162753291Y-85735448D01*
X162679782Y-85705000D01*
X162600218Y-85705000D01*
X162526709Y-85735448D01*
X162470448Y-85791709D01*
X162440000Y-85865218D01*
X161100500Y-85865218D01*
X161100499Y-85024499D01*
X161120184Y-84957461D01*
X161172987Y-84911706D01*
X161224499Y-84900500D01*
X161402363Y-84900500D01*
X161469402Y-84920185D01*
X161515157Y-84972989D01*
X161525101Y-85042147D01*
X161520294Y-85062818D01*
X161469547Y-85218998D01*
X161440000Y-85405552D01*
X161440000Y-85650000D01*
X162390000Y-85650000D01*
X162390000Y-84375277D01*
X162466306Y-84419333D01*
X162580756Y-84450000D01*
X162699244Y-84450000D01*
X162813694Y-84419333D01*
X162890000Y-84375277D01*
X162890000Y-85650000D01*
X163840000Y-85650000D01*
X163840000Y-85405552D01*
X163810452Y-85218997D01*
X163752085Y-85039362D01*
X163752083Y-85039359D01*
X163703515Y-84944037D01*
X163690000Y-84887742D01*
X163690000Y-84821557D01*
X163709685Y-84754518D01*
X163762489Y-84708763D01*
X163831647Y-84698819D01*
X163838182Y-84699938D01*
X163841007Y-84700500D01*
X163841008Y-84700500D01*
X163978995Y-84700500D01*
X164070041Y-84682389D01*
X164114328Y-84673580D01*
X164241811Y-84620775D01*
X164356542Y-84544114D01*
X164454114Y-84446542D01*
X164530775Y-84331811D01*
X164583580Y-84204328D01*
X164599816Y-84122706D01*
X164610500Y-84068995D01*
X164610500Y-83931004D01*
X164583581Y-83795677D01*
X164583580Y-83795676D01*
X164583580Y-83795672D01*
X164551621Y-83718515D01*
X164530778Y-83668195D01*
X164530771Y-83668182D01*
X164454114Y-83553458D01*
X164454111Y-83553454D01*
X164432831Y-83532174D01*
X164399346Y-83470851D01*
X164404330Y-83401159D01*
X164446202Y-83345226D01*
X164451596Y-83341407D01*
X164547782Y-83277139D01*
X164687139Y-83137782D01*
X164796632Y-82973914D01*
X164872051Y-82791835D01*
X164884632Y-82728582D01*
X164910500Y-82598543D01*
X164910500Y-81601456D01*
X164872052Y-81408170D01*
X164872051Y-81408169D01*
X164872051Y-81408165D01*
X164872049Y-81408160D01*
X164796635Y-81226092D01*
X164796628Y-81226079D01*
X164687139Y-81062218D01*
X164687136Y-81062214D01*
X164547785Y-80922863D01*
X164547781Y-80922860D01*
X164515609Y-80901363D01*
X164470804Y-80847750D01*
X164460500Y-80798261D01*
X164460500Y-75891387D01*
X164480185Y-75824348D01*
X164496819Y-75803706D01*
X165157820Y-75142705D01*
X165219143Y-75109220D01*
X165288835Y-75114204D01*
X165344768Y-75156076D01*
X165369185Y-75221540D01*
X165369501Y-75230386D01*
X165369501Y-75544856D01*
X165369502Y-75544882D01*
X165372413Y-75569987D01*
X165372415Y-75569991D01*
X165417793Y-75672764D01*
X165417794Y-75672765D01*
X165497235Y-75752206D01*
X165600009Y-75797585D01*
X165625135Y-75800500D01*
X167114864Y-75800499D01*
X167114879Y-75800497D01*
X167114882Y-75800497D01*
X167139987Y-75797586D01*
X167139988Y-75797585D01*
X167139991Y-75797585D01*
X167242765Y-75752206D01*
X167322206Y-75672765D01*
X167367585Y-75569991D01*
X167370500Y-75544865D01*
X167370500Y-74894447D01*
X167710000Y-74894447D01*
X167739548Y-75081002D01*
X167797914Y-75260637D01*
X167883670Y-75428940D01*
X167994685Y-75581741D01*
X167994689Y-75581746D01*
X168128253Y-75715310D01*
X168128258Y-75715314D01*
X168281059Y-75826329D01*
X168449362Y-75912085D01*
X168628997Y-75970451D01*
X168660000Y-75975362D01*
X168660000Y-75975361D01*
X169160000Y-75975361D01*
X169185176Y-75996864D01*
X169210620Y-76035841D01*
X169223358Y-75990407D01*
X169275597Y-75944008D01*
X169290172Y-75938230D01*
X169370635Y-75912086D01*
X169538940Y-75826329D01*
X169691741Y-75715314D01*
X169691746Y-75715310D01*
X169825310Y-75581746D01*
X169825314Y-75581741D01*
X169936329Y-75428940D01*
X170022085Y-75260637D01*
X170080451Y-75081002D01*
X170110000Y-74894447D01*
X170110000Y-74650000D01*
X169160000Y-74650000D01*
X169160000Y-75975361D01*
X168660000Y-75975361D01*
X168660000Y-74650000D01*
X167710000Y-74650000D01*
X167710000Y-74894447D01*
X167370500Y-74894447D01*
X167370500Y-74365218D01*
X168710000Y-74365218D01*
X168710000Y-74444782D01*
X168740448Y-74518291D01*
X168796709Y-74574552D01*
X168870218Y-74605000D01*
X168949782Y-74605000D01*
X169023291Y-74574552D01*
X169079552Y-74518291D01*
X169110000Y-74444782D01*
X169110000Y-74365218D01*
X169079552Y-74291709D01*
X169023291Y-74235448D01*
X168949782Y-74205000D01*
X168870218Y-74205000D01*
X168796709Y-74235448D01*
X168740448Y-74291709D01*
X168710000Y-74365218D01*
X167370500Y-74365218D01*
X167370499Y-73524499D01*
X167390184Y-73457461D01*
X167442987Y-73411706D01*
X167494499Y-73400500D01*
X167672363Y-73400500D01*
X167739402Y-73420185D01*
X167785157Y-73472989D01*
X167795101Y-73542147D01*
X167790294Y-73562818D01*
X167739547Y-73718998D01*
X167710000Y-73905552D01*
X167710000Y-74150000D01*
X168660000Y-74150000D01*
X168660000Y-72875277D01*
X168736306Y-72919333D01*
X168850756Y-72950000D01*
X168969244Y-72950000D01*
X169083694Y-72919333D01*
X169160000Y-72875277D01*
X169160000Y-74150000D01*
X170110000Y-74150000D01*
X170110000Y-73905552D01*
X170080452Y-73718997D01*
X170022085Y-73539362D01*
X170022083Y-73539359D01*
X169973515Y-73444037D01*
X169960000Y-73387742D01*
X169960000Y-73321557D01*
X169979685Y-73254518D01*
X170032489Y-73208763D01*
X170101647Y-73198819D01*
X170108182Y-73199938D01*
X170111007Y-73200500D01*
X170111008Y-73200500D01*
X170248995Y-73200500D01*
X170340041Y-73182389D01*
X170384328Y-73173580D01*
X170511811Y-73120775D01*
X170626542Y-73044114D01*
X170724114Y-72946542D01*
X170800775Y-72831811D01*
X170853580Y-72704328D01*
X170880500Y-72568993D01*
X170880500Y-72431007D01*
X170880500Y-72431005D01*
X170880500Y-72431004D01*
X170853581Y-72295677D01*
X170853580Y-72295676D01*
X170853580Y-72295672D01*
X170853578Y-72295667D01*
X170800778Y-72168195D01*
X170800771Y-72168182D01*
X170724114Y-72053458D01*
X170724111Y-72053454D01*
X170702831Y-72032174D01*
X170669346Y-71970851D01*
X170674330Y-71901159D01*
X170716202Y-71845226D01*
X170721596Y-71841407D01*
X170817782Y-71777139D01*
X170957139Y-71637782D01*
X171066632Y-71473914D01*
X171142051Y-71291835D01*
X171154632Y-71228582D01*
X171180500Y-71098543D01*
X171180500Y-70409428D01*
X171200185Y-70342389D01*
X171252989Y-70296634D01*
X171322147Y-70286690D01*
X171385703Y-70315715D01*
G37*
G04 #@! TD.AperFunction*
G04 #@! TA.AperFunction,Conductor*
G36*
X128637827Y-98260600D02*
G01*
X128664148Y-98280673D01*
X130604181Y-100220706D01*
X130637666Y-100282029D01*
X130640500Y-100308387D01*
X130640500Y-107543613D01*
X130620815Y-107610652D01*
X130604181Y-107631294D01*
X115511517Y-122723957D01*
X115450194Y-122757442D01*
X115380502Y-122752458D01*
X115324569Y-122710586D01*
X115300152Y-122645122D01*
X115315004Y-122576849D01*
X115324712Y-122561775D01*
X119702692Y-116737778D01*
X125842972Y-108606147D01*
X125846623Y-108601898D01*
X125849502Y-108598043D01*
X125849505Y-108598042D01*
X125873798Y-108565527D01*
X125888030Y-108546480D01*
X125888258Y-108546175D01*
X125927123Y-108494707D01*
X125927124Y-108494702D01*
X125930025Y-108490862D01*
X125933095Y-108486164D01*
X126176033Y-108161015D01*
X127259221Y-106711271D01*
X127268528Y-106700231D01*
X127268555Y-106700194D01*
X127304856Y-106650209D01*
X127305696Y-106649068D01*
X127342694Y-106599552D01*
X127342695Y-106599549D01*
X127342723Y-106599512D01*
X127350509Y-106587347D01*
X128401219Y-105140615D01*
X128410290Y-105129533D01*
X128411008Y-105128750D01*
X128411020Y-105128741D01*
X128446216Y-105078680D01*
X128447298Y-105077167D01*
X128483176Y-105027768D01*
X128483179Y-105027758D01*
X128483685Y-105026829D01*
X128491228Y-105014662D01*
X128835037Y-104525667D01*
X128843726Y-104514686D01*
X128845527Y-104512655D01*
X128845541Y-104512643D01*
X128879385Y-104462624D01*
X128880548Y-104460938D01*
X128915274Y-104411549D01*
X128915276Y-104411542D01*
X128916544Y-104409120D01*
X128923729Y-104397090D01*
X128943205Y-104368308D01*
X129159047Y-104049322D01*
X129169121Y-104037513D01*
X129168904Y-104037336D01*
X129174057Y-104031051D01*
X129199357Y-103990320D01*
X129202415Y-103985397D01*
X129205041Y-103981349D01*
X129226095Y-103950236D01*
X129235121Y-103936897D01*
X129235122Y-103936893D01*
X129238759Y-103929627D01*
X129239011Y-103929753D01*
X129245679Y-103915748D01*
X129369454Y-103716490D01*
X129381940Y-103699728D01*
X129390598Y-103689951D01*
X129407046Y-103656988D01*
X129412668Y-103646923D01*
X129422711Y-103630755D01*
X129432106Y-103615632D01*
X129432833Y-103613228D01*
X129447765Y-103584222D01*
X129446787Y-103583655D01*
X129450864Y-103576626D01*
X129450866Y-103576624D01*
X129468034Y-103535420D01*
X129471530Y-103527771D01*
X129491466Y-103487824D01*
X129492506Y-103482717D01*
X129499549Y-103459782D01*
X129501552Y-103454977D01*
X129507468Y-103410747D01*
X129508872Y-103402425D01*
X129508875Y-103402411D01*
X129517787Y-103358694D01*
X129517786Y-103358686D01*
X129518357Y-103350584D01*
X129519396Y-103350657D01*
X129520614Y-103333563D01*
X129522442Y-103324765D01*
X129522078Y-103318393D01*
X129522971Y-103294876D01*
X129523818Y-103288554D01*
X129518234Y-103245444D01*
X129517410Y-103236589D01*
X129514933Y-103193196D01*
X129512934Y-103187140D01*
X129507710Y-103164190D01*
X129506891Y-103157862D01*
X129490332Y-103117646D01*
X129487258Y-103109348D01*
X129473628Y-103068051D01*
X129470123Y-103062708D01*
X129459147Y-103041910D01*
X129458577Y-103040528D01*
X129456715Y-103036004D01*
X129441550Y-103016155D01*
X129430332Y-103001471D01*
X129425185Y-102994208D01*
X129401342Y-102957863D01*
X129401341Y-102957862D01*
X129396574Y-102953610D01*
X129380581Y-102936353D01*
X129376709Y-102931284D01*
X129342282Y-102904752D01*
X129335437Y-102899074D01*
X129302996Y-102870135D01*
X129302993Y-102870134D01*
X129297294Y-102867263D01*
X129277384Y-102854736D01*
X129272333Y-102850844D01*
X129272323Y-102850837D01*
X129251802Y-102842287D01*
X129230867Y-102831103D01*
X129217816Y-102822430D01*
X129217813Y-102822429D01*
X129197424Y-102815565D01*
X129181210Y-102808793D01*
X129161992Y-102799114D01*
X129158080Y-102798301D01*
X129150916Y-102796590D01*
X129149609Y-102796236D01*
X129149607Y-102796235D01*
X129104218Y-102783952D01*
X129097056Y-102781780D01*
X129089430Y-102779213D01*
X129084941Y-102777270D01*
X129084845Y-102777525D01*
X129076621Y-102774414D01*
X129067181Y-102771723D01*
X129052492Y-102766779D01*
X129052488Y-102766778D01*
X129050909Y-102766679D01*
X129030366Y-102763642D01*
X129023309Y-102761985D01*
X129019258Y-102760961D01*
X129005063Y-102757119D01*
X128997110Y-102754678D01*
X128991230Y-102752654D01*
X128984348Y-102751255D01*
X128976672Y-102749438D01*
X128965821Y-102746502D01*
X128957775Y-102745422D01*
X128957838Y-102744952D01*
X128948833Y-102744033D01*
X128935845Y-102741391D01*
X128932222Y-102740598D01*
X128877184Y-102727676D01*
X128869098Y-102726867D01*
X128869164Y-102726207D01*
X128855418Y-102725038D01*
X128813849Y-102716585D01*
X128801022Y-102713254D01*
X128794568Y-102711204D01*
X128737046Y-102700932D01*
X128734138Y-102700377D01*
X128679204Y-102689207D01*
X128676883Y-102688735D01*
X128676878Y-102688734D01*
X128670109Y-102688261D01*
X128656963Y-102686632D01*
X128567799Y-102670711D01*
X128553944Y-102667406D01*
X128552539Y-102666984D01*
X128492360Y-102657223D01*
X128490421Y-102656893D01*
X128430492Y-102646193D01*
X128429036Y-102646127D01*
X128414867Y-102644658D01*
X128284374Y-102623495D01*
X128271517Y-102620619D01*
X128209460Y-102611337D01*
X128207955Y-102611102D01*
X128146052Y-102601064D01*
X128132906Y-102599887D01*
X127969029Y-102575377D01*
X127957847Y-102573010D01*
X127894325Y-102564197D01*
X127893025Y-102564010D01*
X127829508Y-102554510D01*
X127818101Y-102553622D01*
X127628544Y-102527324D01*
X127617971Y-102525200D01*
X127553892Y-102516960D01*
X127552670Y-102516797D01*
X127488466Y-102507891D01*
X127477690Y-102507163D01*
X127200481Y-102471522D01*
X127199149Y-102471343D01*
X126292310Y-102344743D01*
X126290241Y-102344436D01*
X125096910Y-102157269D01*
X125095579Y-102157053D01*
X124439246Y-102046785D01*
X124376395Y-102016265D01*
X124340021Y-101956610D01*
X124341673Y-101886760D01*
X124380827Y-101828892D01*
X124445052Y-101801378D01*
X124459788Y-101800499D01*
X124696864Y-101800499D01*
X124696879Y-101800497D01*
X124696882Y-101800497D01*
X124721987Y-101797586D01*
X124721988Y-101797585D01*
X124721991Y-101797585D01*
X124824765Y-101752206D01*
X124904206Y-101672765D01*
X124949585Y-101569991D01*
X124952500Y-101544865D01*
X124952500Y-100894447D01*
X125292000Y-100894447D01*
X125321548Y-101081002D01*
X125379914Y-101260637D01*
X125465670Y-101428940D01*
X125576685Y-101581741D01*
X125576689Y-101581746D01*
X125710253Y-101715310D01*
X125710258Y-101715314D01*
X125863059Y-101826329D01*
X126031362Y-101912085D01*
X126210997Y-101970451D01*
X126242000Y-101975362D01*
X126242000Y-101975361D01*
X126742000Y-101975361D01*
X126773002Y-101970451D01*
X126952637Y-101912085D01*
X127120940Y-101826329D01*
X127273741Y-101715314D01*
X127273746Y-101715310D01*
X127407310Y-101581746D01*
X127407314Y-101581741D01*
X127518329Y-101428940D01*
X127604085Y-101260637D01*
X127662451Y-101081002D01*
X127692000Y-100894447D01*
X127692000Y-100650000D01*
X126742000Y-100650000D01*
X126742000Y-101975361D01*
X126242000Y-101975361D01*
X126242000Y-100650000D01*
X125292000Y-100650000D01*
X125292000Y-100894447D01*
X124952500Y-100894447D01*
X124952500Y-100365218D01*
X126292000Y-100365218D01*
X126292000Y-100444782D01*
X126322448Y-100518291D01*
X126378709Y-100574552D01*
X126452218Y-100605000D01*
X126531782Y-100605000D01*
X126605291Y-100574552D01*
X126661552Y-100518291D01*
X126692000Y-100444782D01*
X126692000Y-100365218D01*
X126661552Y-100291709D01*
X126605291Y-100235448D01*
X126531782Y-100205000D01*
X126452218Y-100205000D01*
X126378709Y-100235448D01*
X126322448Y-100291709D01*
X126292000Y-100365218D01*
X124952500Y-100365218D01*
X124952499Y-99524499D01*
X124972184Y-99457461D01*
X125024987Y-99411706D01*
X125076499Y-99400500D01*
X125254363Y-99400500D01*
X125321402Y-99420185D01*
X125367157Y-99472989D01*
X125377101Y-99542147D01*
X125372294Y-99562818D01*
X125321547Y-99718998D01*
X125292000Y-99905552D01*
X125292000Y-100150000D01*
X126242000Y-100150000D01*
X126242000Y-98875277D01*
X126318306Y-98919333D01*
X126432756Y-98950000D01*
X126551244Y-98950000D01*
X126665694Y-98919333D01*
X126742000Y-98875277D01*
X126742000Y-100150000D01*
X127692000Y-100150000D01*
X127692000Y-99905552D01*
X127662452Y-99718997D01*
X127604085Y-99539362D01*
X127604083Y-99539359D01*
X127555515Y-99444037D01*
X127542000Y-99387742D01*
X127542000Y-99321557D01*
X127561685Y-99254518D01*
X127614489Y-99208763D01*
X127683647Y-99198819D01*
X127690182Y-99199938D01*
X127693007Y-99200500D01*
X127693008Y-99200500D01*
X127830995Y-99200500D01*
X127922041Y-99182389D01*
X127966328Y-99173580D01*
X128093811Y-99120775D01*
X128208542Y-99044114D01*
X128306114Y-98946542D01*
X128382775Y-98831811D01*
X128435580Y-98704328D01*
X128462500Y-98568993D01*
X128462500Y-98431007D01*
X128462500Y-98431004D01*
X128454850Y-98392546D01*
X128461077Y-98322954D01*
X128503940Y-98267777D01*
X128569830Y-98244532D01*
X128637827Y-98260600D01*
G37*
G04 #@! TD.AperFunction*
G04 #@! TA.AperFunction,Conductor*
G36*
X142317271Y-119900785D02*
G01*
X142386764Y-120004789D01*
X142475211Y-120093236D01*
X142579215Y-120162729D01*
X142643991Y-120189560D01*
X142030371Y-120803181D01*
X141969048Y-120836666D01*
X141942690Y-120839500D01*
X141756966Y-120839500D01*
X141689927Y-120819815D01*
X141644172Y-120767011D01*
X141634228Y-120697853D01*
X141640784Y-120672167D01*
X141683598Y-120557376D01*
X141689791Y-120499758D01*
X141687911Y-120464707D01*
X141720908Y-120405538D01*
X142290438Y-119836007D01*
X142317271Y-119900785D01*
G37*
G04 #@! TD.AperFunction*
G04 #@! TA.AperFunction,Conductor*
G36*
X135936857Y-78236158D02*
G01*
X135971257Y-78296972D01*
X135974500Y-78325144D01*
X135974500Y-82832110D01*
X135954815Y-82899149D01*
X135938181Y-82919791D01*
X135589491Y-83268480D01*
X135589489Y-83268482D01*
X135575934Y-83291962D01*
X135556042Y-83326418D01*
X135556041Y-83326419D01*
X135556040Y-83326420D01*
X135517017Y-83394009D01*
X135517016Y-83394010D01*
X135505278Y-83437817D01*
X135479500Y-83534022D01*
X135479500Y-84877526D01*
X135479500Y-85022474D01*
X135517016Y-85162485D01*
X135549643Y-85218998D01*
X135589489Y-85288013D01*
X135589491Y-85288016D01*
X135943181Y-85641706D01*
X135976666Y-85703029D01*
X135979500Y-85729387D01*
X135979500Y-87044856D01*
X135979502Y-87044882D01*
X135982413Y-87069987D01*
X135982415Y-87069991D01*
X136027793Y-87172764D01*
X136027794Y-87172765D01*
X136107235Y-87252206D01*
X136210009Y-87297585D01*
X136235135Y-87300500D01*
X137724864Y-87300499D01*
X137724879Y-87300497D01*
X137724882Y-87300497D01*
X137749987Y-87297586D01*
X137749988Y-87297585D01*
X137749991Y-87297585D01*
X137852765Y-87252206D01*
X137932206Y-87172765D01*
X137977585Y-87069991D01*
X137980500Y-87044865D01*
X137980500Y-86394447D01*
X138320000Y-86394447D01*
X138349548Y-86581002D01*
X138407914Y-86760637D01*
X138493670Y-86928940D01*
X138604685Y-87081741D01*
X138604689Y-87081746D01*
X138738253Y-87215310D01*
X138738258Y-87215314D01*
X138891059Y-87326329D01*
X139059362Y-87412085D01*
X139238997Y-87470451D01*
X139270000Y-87475362D01*
X139270000Y-87475361D01*
X139770000Y-87475361D01*
X139801002Y-87470451D01*
X139980637Y-87412085D01*
X140148940Y-87326329D01*
X140301741Y-87215314D01*
X140301746Y-87215310D01*
X140435310Y-87081746D01*
X140435314Y-87081741D01*
X140546329Y-86928940D01*
X140632085Y-86760637D01*
X140690451Y-86581002D01*
X140720000Y-86394447D01*
X140720000Y-86150000D01*
X139770000Y-86150000D01*
X139770000Y-87475361D01*
X139270000Y-87475361D01*
X139270000Y-86150000D01*
X138320000Y-86150000D01*
X138320000Y-86394447D01*
X137980500Y-86394447D01*
X137980500Y-85865218D01*
X139320000Y-85865218D01*
X139320000Y-85944782D01*
X139350448Y-86018291D01*
X139406709Y-86074552D01*
X139480218Y-86105000D01*
X139559782Y-86105000D01*
X139633291Y-86074552D01*
X139689552Y-86018291D01*
X139720000Y-85944782D01*
X139720000Y-85865218D01*
X139689552Y-85791709D01*
X139633291Y-85735448D01*
X139559782Y-85705000D01*
X139480218Y-85705000D01*
X139406709Y-85735448D01*
X139350448Y-85791709D01*
X139320000Y-85865218D01*
X137980500Y-85865218D01*
X137980499Y-85024499D01*
X138000184Y-84957461D01*
X138052987Y-84911706D01*
X138104499Y-84900500D01*
X138282363Y-84900500D01*
X138349402Y-84920185D01*
X138395157Y-84972989D01*
X138405101Y-85042147D01*
X138400294Y-85062818D01*
X138349547Y-85218998D01*
X138320000Y-85405552D01*
X138320000Y-85650000D01*
X139270000Y-85650000D01*
X139270000Y-84375277D01*
X139346306Y-84419333D01*
X139460756Y-84450000D01*
X139579244Y-84450000D01*
X139693694Y-84419333D01*
X139770000Y-84375277D01*
X139770000Y-85650000D01*
X140720000Y-85650000D01*
X140720000Y-85405552D01*
X140690452Y-85218997D01*
X140632085Y-85039362D01*
X140632083Y-85039359D01*
X140583515Y-84944037D01*
X140570000Y-84887742D01*
X140570000Y-84821557D01*
X140589685Y-84754518D01*
X140642489Y-84708763D01*
X140711647Y-84698819D01*
X140718182Y-84699938D01*
X140721007Y-84700500D01*
X140721008Y-84700500D01*
X140858995Y-84700500D01*
X140950041Y-84682389D01*
X140994328Y-84673580D01*
X141121811Y-84620775D01*
X141236542Y-84544114D01*
X141334114Y-84446542D01*
X141410775Y-84331811D01*
X141463580Y-84204328D01*
X141479816Y-84122706D01*
X141490500Y-84068995D01*
X141490500Y-83931004D01*
X141482850Y-83892546D01*
X141489077Y-83822954D01*
X141531940Y-83767777D01*
X141597830Y-83744532D01*
X141665827Y-83760600D01*
X141692148Y-83780673D01*
X142034181Y-84122706D01*
X142067666Y-84184029D01*
X142070500Y-84210387D01*
X142070500Y-86588613D01*
X142050815Y-86655652D01*
X142034181Y-86676294D01*
X138746294Y-89964181D01*
X138684971Y-89997666D01*
X138658613Y-90000500D01*
X129065852Y-90000500D01*
X128960844Y-90028637D01*
X128925841Y-90038016D01*
X128800313Y-90110489D01*
X128800310Y-90110491D01*
X122561491Y-96349310D01*
X122561490Y-96349312D01*
X122524695Y-96413045D01*
X122524694Y-96413046D01*
X122524693Y-96413047D01*
X122489017Y-96474839D01*
X122489016Y-96474840D01*
X122472396Y-96536868D01*
X122451500Y-96614852D01*
X122451500Y-96614854D01*
X122451500Y-99522476D01*
X122460584Y-99556380D01*
X122460585Y-99556380D01*
X122460585Y-99556381D01*
X122489016Y-99662485D01*
X122559421Y-99784431D01*
X122561489Y-99788013D01*
X122561491Y-99788016D01*
X122915181Y-100141706D01*
X122948666Y-100203029D01*
X122951500Y-100229387D01*
X122951500Y-101544856D01*
X122951502Y-101544882D01*
X122954413Y-101569987D01*
X122954414Y-101569989D01*
X122965011Y-101593989D01*
X122974082Y-101663267D01*
X122944258Y-101726452D01*
X122885008Y-101763482D01*
X122829738Y-101766136D01*
X122469106Y-101701616D01*
X122467526Y-101701323D01*
X121404436Y-101496873D01*
X121401561Y-101496284D01*
X120570868Y-101316044D01*
X120566970Y-101315132D01*
X120239578Y-101232947D01*
X120235675Y-101231900D01*
X119958958Y-101152765D01*
X119953623Y-101151108D01*
X119729101Y-101075807D01*
X119721898Y-101073141D01*
X119548611Y-101002812D01*
X119539085Y-100998468D01*
X119415868Y-100935878D01*
X119403755Y-100928838D01*
X119381867Y-100914402D01*
X119327155Y-100878316D01*
X119312863Y-100867318D01*
X119274539Y-100833112D01*
X119259710Y-100817345D01*
X119256109Y-100812775D01*
X119244753Y-100798361D01*
X119232094Y-100778741D01*
X119224213Y-100763555D01*
X119215823Y-100743117D01*
X119206590Y-100713301D01*
X119202473Y-100695409D01*
X119196754Y-100658099D01*
X119206053Y-100588851D01*
X119212279Y-100576719D01*
X119300262Y-100426316D01*
X119303487Y-100421106D01*
X119536775Y-100064394D01*
X119538318Y-100062096D01*
X119885990Y-99556803D01*
X119887242Y-99555016D01*
X120944864Y-98075925D01*
X120945510Y-98075034D01*
X122517686Y-95929998D01*
X122518110Y-95929424D01*
X122521189Y-95925276D01*
X124654739Y-93051015D01*
X127405471Y-89372027D01*
X134905215Y-79399973D01*
X134908650Y-79395961D01*
X134911642Y-79391941D01*
X134911645Y-79391940D01*
X134950302Y-79340025D01*
X134989171Y-79288343D01*
X134989171Y-79288341D01*
X134992181Y-79284340D01*
X134995062Y-79279913D01*
X135323453Y-78838897D01*
X135332061Y-78828663D01*
X135349046Y-78805248D01*
X135368873Y-78777914D01*
X135369628Y-78776887D01*
X135406749Y-78727036D01*
X135406751Y-78727029D01*
X135407107Y-78726552D01*
X135414299Y-78715292D01*
X135682812Y-78345130D01*
X135691629Y-78334315D01*
X135693649Y-78332102D01*
X135693657Y-78332096D01*
X135728179Y-78282619D01*
X135729339Y-78280989D01*
X135750130Y-78252330D01*
X135805430Y-78209625D01*
X135875039Y-78203596D01*
X135936857Y-78236158D01*
G37*
G04 #@! TD.AperFunction*
G04 #@! TA.AperFunction,Conductor*
G36*
X135749824Y-72260597D02*
G01*
X135776147Y-72280671D01*
X135938181Y-72442705D01*
X135971666Y-72504028D01*
X135974500Y-72530386D01*
X135974500Y-76729022D01*
X135954815Y-76796061D01*
X135902011Y-76841816D01*
X135832853Y-76851760D01*
X135805367Y-76844517D01*
X135798455Y-76841816D01*
X135792520Y-76839496D01*
X135781738Y-76834679D01*
X135762159Y-76824787D01*
X135758974Y-76823671D01*
X135749862Y-76821134D01*
X135740684Y-76817919D01*
X135731649Y-76814351D01*
X135708209Y-76804012D01*
X135702271Y-76802275D01*
X135694068Y-76800351D01*
X135688801Y-76798682D01*
X135681133Y-76795973D01*
X135654974Y-76785751D01*
X135647082Y-76783806D01*
X135647119Y-76783654D01*
X135640286Y-76782296D01*
X135636010Y-76781058D01*
X135629509Y-76778980D01*
X135601549Y-76769188D01*
X135601546Y-76769187D01*
X135601545Y-76769187D01*
X135601543Y-76769186D01*
X135593587Y-76767524D01*
X135593672Y-76767114D01*
X135586831Y-76765956D01*
X135581864Y-76764634D01*
X135576293Y-76763010D01*
X135553069Y-76755646D01*
X135548873Y-76754184D01*
X135520000Y-76747330D01*
X135514171Y-76745796D01*
X135491393Y-76739204D01*
X135486229Y-76738419D01*
X135472984Y-76735658D01*
X135468718Y-76734522D01*
X135433751Y-76725217D01*
X135431711Y-76724591D01*
X135431561Y-76724566D01*
X135373903Y-76712599D01*
X135370465Y-76711835D01*
X135339070Y-76704383D01*
X135314984Y-76698666D01*
X135307080Y-76696790D01*
X135307104Y-76696687D01*
X135306793Y-76696622D01*
X135306703Y-76697111D01*
X135298717Y-76695636D01*
X135298716Y-76695636D01*
X135283145Y-76692761D01*
X135240658Y-76684917D01*
X135237976Y-76684391D01*
X135180241Y-76672409D01*
X135179350Y-76672344D01*
X135162249Y-76669147D01*
X135162240Y-76669204D01*
X135094684Y-76657950D01*
X135092551Y-76657576D01*
X135033046Y-76646592D01*
X135030573Y-76646464D01*
X135016612Y-76644945D01*
X135009791Y-76643809D01*
X134995677Y-76640602D01*
X134995411Y-76640525D01*
X134934580Y-76631267D01*
X134932864Y-76630994D01*
X134872213Y-76620892D01*
X134871950Y-76620883D01*
X134857535Y-76619544D01*
X134834735Y-76616074D01*
X134822733Y-76613507D01*
X134759875Y-76604676D01*
X134758474Y-76604471D01*
X134695710Y-76594921D01*
X134683472Y-76593941D01*
X134644387Y-76588450D01*
X134634420Y-76586426D01*
X134569799Y-76577965D01*
X134568649Y-76577809D01*
X134504002Y-76568727D01*
X134493843Y-76568020D01*
X134438124Y-76560723D01*
X134429825Y-76559112D01*
X134363714Y-76550977D01*
X134362762Y-76550856D01*
X134296609Y-76542194D01*
X134288148Y-76541678D01*
X134144193Y-76523964D01*
X134143477Y-76523874D01*
X133071406Y-76385620D01*
X133069539Y-76385364D01*
X131941831Y-76222476D01*
X131940260Y-76222239D01*
X130827925Y-76046988D01*
X130764766Y-76017110D01*
X130727786Y-75957828D01*
X130728727Y-75887965D01*
X130767290Y-75829701D01*
X130831231Y-75801535D01*
X130847213Y-75800499D01*
X131808864Y-75800499D01*
X131808879Y-75800497D01*
X131808882Y-75800497D01*
X131833987Y-75797586D01*
X131833988Y-75797585D01*
X131833991Y-75797585D01*
X131936765Y-75752206D01*
X132016206Y-75672765D01*
X132061585Y-75569991D01*
X132064500Y-75544865D01*
X132064500Y-74894447D01*
X132404000Y-74894447D01*
X132433548Y-75081002D01*
X132491914Y-75260637D01*
X132577670Y-75428940D01*
X132688685Y-75581741D01*
X132688689Y-75581746D01*
X132822253Y-75715310D01*
X132822258Y-75715314D01*
X132975059Y-75826329D01*
X133143362Y-75912085D01*
X133322997Y-75970451D01*
X133354000Y-75975362D01*
X133354000Y-75975361D01*
X133854000Y-75975361D01*
X133885002Y-75970451D01*
X134064637Y-75912085D01*
X134232940Y-75826329D01*
X134385741Y-75715314D01*
X134385746Y-75715310D01*
X134519310Y-75581746D01*
X134519314Y-75581741D01*
X134630329Y-75428940D01*
X134716085Y-75260637D01*
X134774451Y-75081002D01*
X134804000Y-74894447D01*
X134804000Y-74650000D01*
X133854000Y-74650000D01*
X133854000Y-75975361D01*
X133354000Y-75975361D01*
X133354000Y-74650000D01*
X132404000Y-74650000D01*
X132404000Y-74894447D01*
X132064500Y-74894447D01*
X132064500Y-74365218D01*
X133404000Y-74365218D01*
X133404000Y-74444782D01*
X133434448Y-74518291D01*
X133490709Y-74574552D01*
X133564218Y-74605000D01*
X133643782Y-74605000D01*
X133717291Y-74574552D01*
X133773552Y-74518291D01*
X133804000Y-74444782D01*
X133804000Y-74365218D01*
X133773552Y-74291709D01*
X133717291Y-74235448D01*
X133643782Y-74205000D01*
X133564218Y-74205000D01*
X133490709Y-74235448D01*
X133434448Y-74291709D01*
X133404000Y-74365218D01*
X132064500Y-74365218D01*
X132064499Y-73524499D01*
X132084184Y-73457461D01*
X132136987Y-73411706D01*
X132188499Y-73400500D01*
X132366363Y-73400500D01*
X132433402Y-73420185D01*
X132479157Y-73472989D01*
X132489101Y-73542147D01*
X132484294Y-73562818D01*
X132433547Y-73718998D01*
X132404000Y-73905552D01*
X132404000Y-74150000D01*
X133354000Y-74150000D01*
X133354000Y-72875277D01*
X133430306Y-72919333D01*
X133544756Y-72950000D01*
X133663244Y-72950000D01*
X133777694Y-72919333D01*
X133854000Y-72875277D01*
X133854000Y-74150000D01*
X134804000Y-74150000D01*
X134804000Y-73905552D01*
X134774452Y-73718997D01*
X134716085Y-73539362D01*
X134716083Y-73539359D01*
X134667515Y-73444037D01*
X134654000Y-73387742D01*
X134654000Y-73321557D01*
X134673685Y-73254518D01*
X134726489Y-73208763D01*
X134795647Y-73198819D01*
X134802182Y-73199938D01*
X134805007Y-73200500D01*
X134805008Y-73200500D01*
X134942995Y-73200500D01*
X135034041Y-73182389D01*
X135078328Y-73173580D01*
X135205811Y-73120775D01*
X135320542Y-73044114D01*
X135418114Y-72946542D01*
X135494775Y-72831811D01*
X135547580Y-72704328D01*
X135574500Y-72568993D01*
X135574500Y-72431007D01*
X135574499Y-72431004D01*
X135566849Y-72392545D01*
X135573075Y-72322953D01*
X135615938Y-72267775D01*
X135681827Y-72244530D01*
X135749824Y-72260597D01*
G37*
G04 #@! TD.AperFunction*
G04 #@! TA.AperFunction,Conductor*
G36*
X168845703Y-70044674D02*
G01*
X168852181Y-70050706D01*
X169143181Y-70341706D01*
X169176666Y-70403029D01*
X169179500Y-70429387D01*
X169179500Y-71098545D01*
X169214063Y-71272304D01*
X169207836Y-71341895D01*
X169176618Y-71387550D01*
X169160000Y-71402911D01*
X169160000Y-72124722D01*
X169083694Y-72080667D01*
X168969244Y-72050000D01*
X168850756Y-72050000D01*
X168736306Y-72080667D01*
X168660000Y-72124722D01*
X168660000Y-71402912D01*
X168643382Y-71387551D01*
X168607515Y-71327590D01*
X168605936Y-71272303D01*
X168640500Y-71098543D01*
X168640500Y-70138387D01*
X168660185Y-70071348D01*
X168712989Y-70025593D01*
X168782147Y-70015649D01*
X168845703Y-70044674D01*
G37*
G04 #@! TD.AperFunction*
G04 #@! TA.AperFunction,Conductor*
G36*
X150531461Y-43341535D02*
G01*
X150555211Y-43342939D01*
X150568217Y-43344400D01*
X150595732Y-43348977D01*
X150607674Y-43351576D01*
X150641702Y-43360757D01*
X150652215Y-43364102D01*
X150694454Y-43379647D01*
X150703401Y-43383344D01*
X150754553Y-43406854D01*
X150761976Y-43410571D01*
X150815430Y-43439619D01*
X150823964Y-43444710D01*
X150869685Y-43474530D01*
X150977236Y-43544678D01*
X150984880Y-43550087D01*
X151132809Y-43663386D01*
X151147208Y-43676317D01*
X151188411Y-43719592D01*
X151208084Y-43740254D01*
X151213066Y-43745813D01*
X151397775Y-43964812D01*
X151399743Y-43967204D01*
X152057867Y-44788269D01*
X152059081Y-44789809D01*
X154290149Y-47665265D01*
X154290768Y-47666070D01*
X157451528Y-51809342D01*
X157451909Y-51809844D01*
X161209266Y-56787410D01*
X161209378Y-56787559D01*
X170401571Y-69003276D01*
X170426152Y-69068680D01*
X170411470Y-69136989D01*
X170362188Y-69186518D01*
X170293952Y-69201540D01*
X170278995Y-69199544D01*
X170278544Y-69199500D01*
X170278541Y-69199500D01*
X170081459Y-69199500D01*
X170081457Y-69199500D01*
X169888170Y-69237947D01*
X169888160Y-69237950D01*
X169758454Y-69291676D01*
X169688985Y-69299145D01*
X169626506Y-69267869D01*
X169623321Y-69264796D01*
X168968016Y-68609491D01*
X168968015Y-68609490D01*
X168842485Y-68537016D01*
X168842486Y-68537016D01*
X168807482Y-68527637D01*
X168702475Y-68499500D01*
X168702472Y-68499500D01*
X165727387Y-68499500D01*
X165660348Y-68479815D01*
X165639706Y-68463181D01*
X151175600Y-53999075D01*
X151142115Y-53937752D01*
X151147099Y-53868060D01*
X151188971Y-53812127D01*
X151243883Y-53788921D01*
X151411002Y-53762451D01*
X151590637Y-53704085D01*
X151758940Y-53618329D01*
X151911741Y-53507314D01*
X151911746Y-53507310D01*
X152045310Y-53373746D01*
X152045314Y-53373741D01*
X152156329Y-53220940D01*
X152242085Y-53052637D01*
X152300451Y-52873002D01*
X152330000Y-52686447D01*
X152330000Y-52442000D01*
X149930000Y-52442000D01*
X149930000Y-52454113D01*
X149910315Y-52521152D01*
X149857511Y-52566907D01*
X149788353Y-52576851D01*
X149724797Y-52547826D01*
X149718319Y-52541794D01*
X149626818Y-52450293D01*
X149593333Y-52388970D01*
X149590499Y-52362612D01*
X149590499Y-52157218D01*
X150930000Y-52157218D01*
X150930000Y-52236782D01*
X150960448Y-52310291D01*
X151016709Y-52366552D01*
X151090218Y-52397000D01*
X151169782Y-52397000D01*
X151243291Y-52366552D01*
X151299552Y-52310291D01*
X151330000Y-52236782D01*
X151330000Y-52157218D01*
X151299552Y-52083709D01*
X151243291Y-52027448D01*
X151169782Y-51997000D01*
X151090218Y-51997000D01*
X151016709Y-52027448D01*
X150960448Y-52083709D01*
X150930000Y-52157218D01*
X149590499Y-52157218D01*
X149590499Y-51316500D01*
X149610184Y-51249461D01*
X149662988Y-51203706D01*
X149714499Y-51192500D01*
X149892363Y-51192500D01*
X149959402Y-51212185D01*
X150005157Y-51264989D01*
X150015101Y-51334147D01*
X150010294Y-51354818D01*
X149959547Y-51510998D01*
X149930000Y-51697552D01*
X149930000Y-51942000D01*
X150880000Y-51942000D01*
X150880000Y-50667277D01*
X150956306Y-50711333D01*
X151070756Y-50742000D01*
X151189244Y-50742000D01*
X151303694Y-50711333D01*
X151380000Y-50667277D01*
X151380000Y-51942000D01*
X152330000Y-51942000D01*
X152330000Y-51697552D01*
X152300452Y-51510997D01*
X152242085Y-51331362D01*
X152242083Y-51331359D01*
X152193515Y-51236037D01*
X152180000Y-51179742D01*
X152180000Y-51113557D01*
X152199685Y-51046518D01*
X152252489Y-51000763D01*
X152321647Y-50990819D01*
X152328182Y-50991938D01*
X152331007Y-50992500D01*
X152331008Y-50992500D01*
X152468995Y-50992500D01*
X152560041Y-50974389D01*
X152604328Y-50965580D01*
X152731811Y-50912775D01*
X152846542Y-50836114D01*
X152944114Y-50738542D01*
X153020775Y-50623811D01*
X153073580Y-50496328D01*
X153100500Y-50360993D01*
X153100500Y-50223007D01*
X153100500Y-50223004D01*
X153073581Y-50087677D01*
X153073580Y-50087676D01*
X153073580Y-50087672D01*
X153043766Y-50015694D01*
X153020778Y-49960195D01*
X153020771Y-49960182D01*
X152944114Y-49845458D01*
X152944111Y-49845454D01*
X152922831Y-49824174D01*
X152889346Y-49762851D01*
X152894330Y-49693159D01*
X152936202Y-49637226D01*
X152941596Y-49633407D01*
X153037782Y-49569139D01*
X153177139Y-49429782D01*
X153286632Y-49265914D01*
X153362051Y-49083835D01*
X153391063Y-48937985D01*
X153400500Y-48890543D01*
X153400500Y-47893456D01*
X153362052Y-47700170D01*
X153362051Y-47700169D01*
X153362051Y-47700165D01*
X153362049Y-47700160D01*
X153286635Y-47518092D01*
X153286628Y-47518079D01*
X153177139Y-47354218D01*
X153177136Y-47354214D01*
X153037785Y-47214863D01*
X153037781Y-47214860D01*
X152873920Y-47105371D01*
X152873907Y-47105364D01*
X152691839Y-47029950D01*
X152691829Y-47029947D01*
X152498543Y-46991500D01*
X152498541Y-46991500D01*
X152301459Y-46991500D01*
X152301457Y-46991500D01*
X152108170Y-47029947D01*
X152108160Y-47029950D01*
X151978454Y-47083676D01*
X151908985Y-47091145D01*
X151846506Y-47059869D01*
X151843321Y-47056796D01*
X151188016Y-46401491D01*
X151188015Y-46401490D01*
X151062485Y-46329016D01*
X151062486Y-46329016D01*
X151027482Y-46319637D01*
X150922475Y-46291500D01*
X149300525Y-46291500D01*
X149195517Y-46319637D01*
X149160514Y-46329016D01*
X149034986Y-46401489D01*
X149034983Y-46401491D01*
X146498489Y-48937985D01*
X146461305Y-49002393D01*
X146461304Y-49002394D01*
X146426017Y-49063512D01*
X146426016Y-49063513D01*
X146407258Y-49133520D01*
X146388500Y-49203525D01*
X146388500Y-65811475D01*
X146393949Y-65831811D01*
X146426016Y-65951485D01*
X146498489Y-66077013D01*
X146498491Y-66077016D01*
X147563181Y-67141706D01*
X147596666Y-67203029D01*
X147599500Y-67229387D01*
X147599500Y-68544856D01*
X147599502Y-68544882D01*
X147602413Y-68569987D01*
X147602415Y-68569991D01*
X147647793Y-68672764D01*
X147647794Y-68672765D01*
X147727235Y-68752206D01*
X147830009Y-68797585D01*
X147855135Y-68800500D01*
X149344864Y-68800499D01*
X149344879Y-68800497D01*
X149344882Y-68800497D01*
X149369987Y-68797586D01*
X149369988Y-68797585D01*
X149369991Y-68797585D01*
X149472765Y-68752206D01*
X149552206Y-68672765D01*
X149597585Y-68569991D01*
X149600500Y-68544865D01*
X149600500Y-67894447D01*
X149940000Y-67894447D01*
X149969548Y-68081002D01*
X150027914Y-68260637D01*
X150113670Y-68428940D01*
X150224685Y-68581741D01*
X150224689Y-68581746D01*
X150358253Y-68715310D01*
X150358258Y-68715314D01*
X150511059Y-68826329D01*
X150679362Y-68912085D01*
X150858997Y-68970451D01*
X150890000Y-68975362D01*
X150890000Y-68975361D01*
X151390000Y-68975361D01*
X151421002Y-68970451D01*
X151600637Y-68912085D01*
X151768940Y-68826329D01*
X151921741Y-68715314D01*
X151921746Y-68715310D01*
X152055310Y-68581746D01*
X152055314Y-68581741D01*
X152166329Y-68428940D01*
X152252085Y-68260637D01*
X152310451Y-68081002D01*
X152340000Y-67894447D01*
X152340000Y-67650000D01*
X151390000Y-67650000D01*
X151390000Y-68975361D01*
X150890000Y-68975361D01*
X150890000Y-67650000D01*
X149940000Y-67650000D01*
X149940000Y-67894447D01*
X149600500Y-67894447D01*
X149600500Y-67365218D01*
X150940000Y-67365218D01*
X150940000Y-67444782D01*
X150970448Y-67518291D01*
X151026709Y-67574552D01*
X151100218Y-67605000D01*
X151179782Y-67605000D01*
X151253291Y-67574552D01*
X151309552Y-67518291D01*
X151340000Y-67444782D01*
X151340000Y-67365218D01*
X151309552Y-67291709D01*
X151253291Y-67235448D01*
X151179782Y-67205000D01*
X151100218Y-67205000D01*
X151026709Y-67235448D01*
X150970448Y-67291709D01*
X150940000Y-67365218D01*
X149600500Y-67365218D01*
X149600499Y-66524499D01*
X149620184Y-66457461D01*
X149672987Y-66411706D01*
X149724499Y-66400500D01*
X149902363Y-66400500D01*
X149969402Y-66420185D01*
X150015157Y-66472989D01*
X150025101Y-66542147D01*
X150020294Y-66562818D01*
X149969547Y-66718998D01*
X149940000Y-66905552D01*
X149940000Y-67150000D01*
X150890000Y-67150000D01*
X150890000Y-65875277D01*
X150966306Y-65919333D01*
X151080756Y-65950000D01*
X151199244Y-65950000D01*
X151313694Y-65919333D01*
X151390000Y-65875277D01*
X151390000Y-67150000D01*
X152340000Y-67150000D01*
X152340000Y-66905552D01*
X152310452Y-66718997D01*
X152252085Y-66539362D01*
X152252083Y-66539359D01*
X152203515Y-66444037D01*
X152190000Y-66387742D01*
X152190000Y-66321557D01*
X152209685Y-66254518D01*
X152262489Y-66208763D01*
X152331647Y-66198819D01*
X152338182Y-66199938D01*
X152341007Y-66200500D01*
X152341008Y-66200500D01*
X152478995Y-66200500D01*
X152570041Y-66182389D01*
X152614328Y-66173580D01*
X152694048Y-66140558D01*
X152763516Y-66133090D01*
X152825996Y-66164365D01*
X152861648Y-66224454D01*
X152865500Y-66255120D01*
X152865500Y-70078613D01*
X152845815Y-70145652D01*
X152829181Y-70166294D01*
X152335294Y-70660181D01*
X152273971Y-70693666D01*
X152247613Y-70696500D01*
X139471387Y-70696500D01*
X139404348Y-70676815D01*
X139383706Y-70660181D01*
X136609016Y-67885491D01*
X136609015Y-67885490D01*
X136483485Y-67813016D01*
X136483486Y-67813016D01*
X136448482Y-67803637D01*
X136343475Y-67775500D01*
X132007525Y-67775500D01*
X131923519Y-67798009D01*
X131867513Y-67813016D01*
X131867508Y-67813019D01*
X131866866Y-67813390D01*
X131866255Y-67813538D01*
X131860005Y-67816127D01*
X131859601Y-67815152D01*
X131798965Y-67829860D01*
X131732939Y-67807006D01*
X131689751Y-67752083D01*
X131683112Y-67682530D01*
X131705472Y-67631865D01*
X132001139Y-67235448D01*
X134421081Y-63990890D01*
X147928577Y-46047114D01*
X147928957Y-46046613D01*
X148340660Y-45508456D01*
X148341318Y-45507606D01*
X148711761Y-45034160D01*
X148712997Y-45032610D01*
X148783726Y-44945226D01*
X149044802Y-44622671D01*
X149046648Y-44620445D01*
X149342469Y-44272483D01*
X149345234Y-44269342D01*
X149606784Y-43982448D01*
X149610967Y-43978081D01*
X149839015Y-43751384D01*
X149845281Y-43745572D01*
X150045568Y-43572308D01*
X150052239Y-43566930D01*
X150130434Y-43508252D01*
X150136152Y-43504209D01*
X150210032Y-43455048D01*
X150216958Y-43450761D01*
X150280719Y-43414158D01*
X150289052Y-43409788D01*
X150314471Y-43397665D01*
X150342439Y-43384327D01*
X150352281Y-43380146D01*
X150395522Y-43363942D01*
X150406828Y-43360313D01*
X150441030Y-43351123D01*
X150453603Y-43348434D01*
X150480907Y-43344064D01*
X150494277Y-43342663D01*
X150517927Y-43341475D01*
X150531461Y-43341535D01*
G37*
G04 #@! TD.AperFunction*
G04 #@! TA.AperFunction,Conductor*
G36*
X151065703Y-47836674D02*
G01*
X151072181Y-47842706D01*
X151363181Y-48133706D01*
X151396666Y-48195029D01*
X151399500Y-48221387D01*
X151399500Y-48890545D01*
X151434063Y-49064304D01*
X151427836Y-49133895D01*
X151396618Y-49179550D01*
X151380000Y-49194911D01*
X151380000Y-49916722D01*
X151303694Y-49872667D01*
X151189244Y-49842000D01*
X151070756Y-49842000D01*
X150956306Y-49872667D01*
X150880000Y-49916722D01*
X150880000Y-49194912D01*
X150863382Y-49179551D01*
X150827515Y-49119590D01*
X150825936Y-49064303D01*
X150826094Y-49063512D01*
X150851063Y-48937985D01*
X150860500Y-48890543D01*
X150860500Y-47930387D01*
X150880185Y-47863348D01*
X150932989Y-47817593D01*
X151002147Y-47807649D01*
X151065703Y-47836674D01*
G37*
G04 #@! TD.AperFunction*
M02*
