M48
; DRILL file {KiCad 8.0.6} date 2024-11-27T09:37:53+0100
; FORMAT={-:-/ absolute / metric / decimal}
; #@! TF.CreationDate,2024-11-27T09:37:53+01:00
; #@! TF.GenerationSoftware,Kicad,Pcbnew,8.0.6
; #@! TF.FileFunction,Plated,1,2,PTH
FMAT,2
METRIC
; #@! TA.AperFunction,Plated,PTH,ComponentDrill
T1C0.400
; #@! TA.AperFunction,Plated,PTH,ComponentDrill
T2C1.000
; #@! TA.AperFunction,Plated,PTH,ComponentDrill
T3C1.100
; #@! TA.AperFunction,Plated,PTH,ComponentDrill
T4C1.270
%
G90
G05
T1
X117.348Y-124.074
X118.618Y-127.884
X125.222Y-96.595
X126.492Y-100.405
X132.334Y-70.595
X133.604Y-74.405
X138.25Y-82.095
X139.52Y-85.905
X149.86Y-48.387
X149.86Y-113.03
X149.87Y-63.595
X151.13Y-52.197
X151.13Y-116.84
X151.14Y-67.405
X161.37Y-82.095
X162.64Y-85.905
X167.64Y-70.595
X168.91Y-74.405
X174.498Y-96.595
X175.768Y-100.405
X182.626Y-124.074
X183.896Y-127.884
T2
X140.34Y-119.6
X140.34Y-122.14
X140.34Y-124.68
X140.34Y-127.22
X140.34Y-129.76
X140.34Y-132.3
X140.34Y-134.84
X140.34Y-137.38
X160.66Y-119.6
X160.66Y-122.14
X160.66Y-124.68
X160.66Y-127.22
X160.66Y-129.76
X160.66Y-132.3
X160.66Y-134.84
X160.66Y-137.38
T3
X147.245Y-95.413
X147.245Y-99.913
X153.745Y-95.413
X153.745Y-99.913
T4
X142.88Y-119.6
X142.88Y-122.14
X142.88Y-124.68
X142.88Y-127.22
X142.88Y-129.76
X142.88Y-132.3
X142.88Y-134.84
X142.88Y-137.38
X158.12Y-119.6
X158.12Y-122.14
X158.12Y-124.68
X158.12Y-127.22
X158.12Y-129.76
X158.12Y-132.3
X158.12Y-134.84
X158.12Y-137.38
M30
