G04 #@! TF.GenerationSoftware,KiCad,Pcbnew,8.0.6*
G04 #@! TF.CreationDate,2024-11-27T01:20:32+01:00*
G04 #@! TF.ProjectId,christmas_soldering_kit_2024,63687269-7374-46d6-9173-5f736f6c6465,rev?*
G04 #@! TF.SameCoordinates,Original*
G04 #@! TF.FileFunction,Legend,Top*
G04 #@! TF.FilePolarity,Positive*
%FSLAX46Y46*%
G04 Gerber Fmt 4.6, Leading zero omitted, Abs format (unit mm)*
G04 Created by KiCad (PCBNEW 8.0.6) date 2024-11-27 01:20:32*
%MOMM*%
%LPD*%
G01*
G04 APERTURE LIST*
%ADD10C,0.150000*%
%ADD11C,0.120000*%
%ADD12C,0.100000*%
%ADD13C,0.000000*%
%ADD14C,0.100000*%
%ADD15C,2.109000*%
%ADD16R,1.700000X1.700000*%
%ADD17O,1.700000X1.700000*%
%ADD18C,2.000000*%
G04 APERTURE END LIST*
D10*
X142283207Y-139839819D02*
X142521302Y-140839819D01*
X142521302Y-140839819D02*
X142711778Y-140125533D01*
X142711778Y-140125533D02*
X142902254Y-140839819D01*
X142902254Y-140839819D02*
X143140350Y-139839819D01*
X143902254Y-140792200D02*
X143807016Y-140839819D01*
X143807016Y-140839819D02*
X143616540Y-140839819D01*
X143616540Y-140839819D02*
X143521302Y-140792200D01*
X143521302Y-140792200D02*
X143473683Y-140696961D01*
X143473683Y-140696961D02*
X143473683Y-140316009D01*
X143473683Y-140316009D02*
X143521302Y-140220771D01*
X143521302Y-140220771D02*
X143616540Y-140173152D01*
X143616540Y-140173152D02*
X143807016Y-140173152D01*
X143807016Y-140173152D02*
X143902254Y-140220771D01*
X143902254Y-140220771D02*
X143949873Y-140316009D01*
X143949873Y-140316009D02*
X143949873Y-140411247D01*
X143949873Y-140411247D02*
X143473683Y-140506485D01*
X144378445Y-140839819D02*
X144378445Y-140173152D01*
X144378445Y-139839819D02*
X144330826Y-139887438D01*
X144330826Y-139887438D02*
X144378445Y-139935057D01*
X144378445Y-139935057D02*
X144426064Y-139887438D01*
X144426064Y-139887438D02*
X144378445Y-139839819D01*
X144378445Y-139839819D02*
X144378445Y-139935057D01*
X144854635Y-140839819D02*
X144854635Y-139839819D01*
X145283206Y-140839819D02*
X145283206Y-140316009D01*
X145283206Y-140316009D02*
X145235587Y-140220771D01*
X145235587Y-140220771D02*
X145140349Y-140173152D01*
X145140349Y-140173152D02*
X144997492Y-140173152D01*
X144997492Y-140173152D02*
X144902254Y-140220771D01*
X144902254Y-140220771D02*
X144854635Y-140268390D01*
X145759397Y-140173152D02*
X145759397Y-140839819D01*
X145759397Y-140268390D02*
X145807016Y-140220771D01*
X145807016Y-140220771D02*
X145902254Y-140173152D01*
X145902254Y-140173152D02*
X146045111Y-140173152D01*
X146045111Y-140173152D02*
X146140349Y-140220771D01*
X146140349Y-140220771D02*
X146187968Y-140316009D01*
X146187968Y-140316009D02*
X146187968Y-140839819D01*
X147092730Y-140839819D02*
X147092730Y-140316009D01*
X147092730Y-140316009D02*
X147045111Y-140220771D01*
X147045111Y-140220771D02*
X146949873Y-140173152D01*
X146949873Y-140173152D02*
X146759397Y-140173152D01*
X146759397Y-140173152D02*
X146664159Y-140220771D01*
X147092730Y-140792200D02*
X146997492Y-140839819D01*
X146997492Y-140839819D02*
X146759397Y-140839819D01*
X146759397Y-140839819D02*
X146664159Y-140792200D01*
X146664159Y-140792200D02*
X146616540Y-140696961D01*
X146616540Y-140696961D02*
X146616540Y-140601723D01*
X146616540Y-140601723D02*
X146664159Y-140506485D01*
X146664159Y-140506485D02*
X146759397Y-140458866D01*
X146759397Y-140458866D02*
X146997492Y-140458866D01*
X146997492Y-140458866D02*
X147092730Y-140411247D01*
X147997492Y-140792200D02*
X147902254Y-140839819D01*
X147902254Y-140839819D02*
X147711778Y-140839819D01*
X147711778Y-140839819D02*
X147616540Y-140792200D01*
X147616540Y-140792200D02*
X147568921Y-140744580D01*
X147568921Y-140744580D02*
X147521302Y-140649342D01*
X147521302Y-140649342D02*
X147521302Y-140363628D01*
X147521302Y-140363628D02*
X147568921Y-140268390D01*
X147568921Y-140268390D02*
X147616540Y-140220771D01*
X147616540Y-140220771D02*
X147711778Y-140173152D01*
X147711778Y-140173152D02*
X147902254Y-140173152D01*
X147902254Y-140173152D02*
X147997492Y-140220771D01*
X148426064Y-140839819D02*
X148426064Y-139839819D01*
X148854635Y-140839819D02*
X148854635Y-140316009D01*
X148854635Y-140316009D02*
X148807016Y-140220771D01*
X148807016Y-140220771D02*
X148711778Y-140173152D01*
X148711778Y-140173152D02*
X148568921Y-140173152D01*
X148568921Y-140173152D02*
X148473683Y-140220771D01*
X148473683Y-140220771D02*
X148426064Y-140268390D01*
X149187969Y-140173152D02*
X149568921Y-140173152D01*
X149330826Y-139839819D02*
X149330826Y-140696961D01*
X149330826Y-140696961D02*
X149378445Y-140792200D01*
X149378445Y-140792200D02*
X149473683Y-140839819D01*
X149473683Y-140839819D02*
X149568921Y-140839819D01*
X149854636Y-140792200D02*
X149949874Y-140839819D01*
X149949874Y-140839819D02*
X150140350Y-140839819D01*
X150140350Y-140839819D02*
X150235588Y-140792200D01*
X150235588Y-140792200D02*
X150283207Y-140696961D01*
X150283207Y-140696961D02*
X150283207Y-140649342D01*
X150283207Y-140649342D02*
X150235588Y-140554104D01*
X150235588Y-140554104D02*
X150140350Y-140506485D01*
X150140350Y-140506485D02*
X149997493Y-140506485D01*
X149997493Y-140506485D02*
X149902255Y-140458866D01*
X149902255Y-140458866D02*
X149854636Y-140363628D01*
X149854636Y-140363628D02*
X149854636Y-140316009D01*
X149854636Y-140316009D02*
X149902255Y-140220771D01*
X149902255Y-140220771D02*
X149997493Y-140173152D01*
X149997493Y-140173152D02*
X150140350Y-140173152D01*
X150140350Y-140173152D02*
X150235588Y-140220771D01*
X150854636Y-140839819D02*
X150759398Y-140792200D01*
X150759398Y-140792200D02*
X150711779Y-140696961D01*
X150711779Y-140696961D02*
X150711779Y-139839819D01*
X151378446Y-140839819D02*
X151283208Y-140792200D01*
X151283208Y-140792200D02*
X151235589Y-140744580D01*
X151235589Y-140744580D02*
X151187970Y-140649342D01*
X151187970Y-140649342D02*
X151187970Y-140363628D01*
X151187970Y-140363628D02*
X151235589Y-140268390D01*
X151235589Y-140268390D02*
X151283208Y-140220771D01*
X151283208Y-140220771D02*
X151378446Y-140173152D01*
X151378446Y-140173152D02*
X151521303Y-140173152D01*
X151521303Y-140173152D02*
X151616541Y-140220771D01*
X151616541Y-140220771D02*
X151664160Y-140268390D01*
X151664160Y-140268390D02*
X151711779Y-140363628D01*
X151711779Y-140363628D02*
X151711779Y-140649342D01*
X151711779Y-140649342D02*
X151664160Y-140744580D01*
X151664160Y-140744580D02*
X151616541Y-140792200D01*
X151616541Y-140792200D02*
X151521303Y-140839819D01*
X151521303Y-140839819D02*
X151378446Y-140839819D01*
X151283208Y-139839819D02*
X151330827Y-139887438D01*
X151330827Y-139887438D02*
X151283208Y-139935057D01*
X151283208Y-139935057D02*
X151235589Y-139887438D01*
X151235589Y-139887438D02*
X151283208Y-139839819D01*
X151283208Y-139839819D02*
X151283208Y-139935057D01*
X151664160Y-139839819D02*
X151711779Y-139887438D01*
X151711779Y-139887438D02*
X151664160Y-139935057D01*
X151664160Y-139935057D02*
X151616541Y-139887438D01*
X151616541Y-139887438D02*
X151664160Y-139839819D01*
X151664160Y-139839819D02*
X151664160Y-139935057D01*
X151997494Y-140173152D02*
X152378446Y-140173152D01*
X152140351Y-139839819D02*
X152140351Y-140696961D01*
X152140351Y-140696961D02*
X152187970Y-140792200D01*
X152187970Y-140792200D02*
X152283208Y-140839819D01*
X152283208Y-140839819D02*
X152378446Y-140839819D01*
X153092732Y-140792200D02*
X152997494Y-140839819D01*
X152997494Y-140839819D02*
X152807018Y-140839819D01*
X152807018Y-140839819D02*
X152711780Y-140792200D01*
X152711780Y-140792200D02*
X152664161Y-140696961D01*
X152664161Y-140696961D02*
X152664161Y-140316009D01*
X152664161Y-140316009D02*
X152711780Y-140220771D01*
X152711780Y-140220771D02*
X152807018Y-140173152D01*
X152807018Y-140173152D02*
X152997494Y-140173152D01*
X152997494Y-140173152D02*
X153092732Y-140220771D01*
X153092732Y-140220771D02*
X153140351Y-140316009D01*
X153140351Y-140316009D02*
X153140351Y-140411247D01*
X153140351Y-140411247D02*
X152664161Y-140506485D01*
X153568923Y-140173152D02*
X153568923Y-140839819D01*
X153568923Y-140268390D02*
X153616542Y-140220771D01*
X153616542Y-140220771D02*
X153711780Y-140173152D01*
X153711780Y-140173152D02*
X153854637Y-140173152D01*
X153854637Y-140173152D02*
X153949875Y-140220771D01*
X153949875Y-140220771D02*
X153997494Y-140316009D01*
X153997494Y-140316009D02*
X153997494Y-140839819D01*
X155187971Y-139935057D02*
X155235590Y-139887438D01*
X155235590Y-139887438D02*
X155330828Y-139839819D01*
X155330828Y-139839819D02*
X155568923Y-139839819D01*
X155568923Y-139839819D02*
X155664161Y-139887438D01*
X155664161Y-139887438D02*
X155711780Y-139935057D01*
X155711780Y-139935057D02*
X155759399Y-140030295D01*
X155759399Y-140030295D02*
X155759399Y-140125533D01*
X155759399Y-140125533D02*
X155711780Y-140268390D01*
X155711780Y-140268390D02*
X155140352Y-140839819D01*
X155140352Y-140839819D02*
X155759399Y-140839819D01*
X156378447Y-139839819D02*
X156473685Y-139839819D01*
X156473685Y-139839819D02*
X156568923Y-139887438D01*
X156568923Y-139887438D02*
X156616542Y-139935057D01*
X156616542Y-139935057D02*
X156664161Y-140030295D01*
X156664161Y-140030295D02*
X156711780Y-140220771D01*
X156711780Y-140220771D02*
X156711780Y-140458866D01*
X156711780Y-140458866D02*
X156664161Y-140649342D01*
X156664161Y-140649342D02*
X156616542Y-140744580D01*
X156616542Y-140744580D02*
X156568923Y-140792200D01*
X156568923Y-140792200D02*
X156473685Y-140839819D01*
X156473685Y-140839819D02*
X156378447Y-140839819D01*
X156378447Y-140839819D02*
X156283209Y-140792200D01*
X156283209Y-140792200D02*
X156235590Y-140744580D01*
X156235590Y-140744580D02*
X156187971Y-140649342D01*
X156187971Y-140649342D02*
X156140352Y-140458866D01*
X156140352Y-140458866D02*
X156140352Y-140220771D01*
X156140352Y-140220771D02*
X156187971Y-140030295D01*
X156187971Y-140030295D02*
X156235590Y-139935057D01*
X156235590Y-139935057D02*
X156283209Y-139887438D01*
X156283209Y-139887438D02*
X156378447Y-139839819D01*
X157092733Y-139935057D02*
X157140352Y-139887438D01*
X157140352Y-139887438D02*
X157235590Y-139839819D01*
X157235590Y-139839819D02*
X157473685Y-139839819D01*
X157473685Y-139839819D02*
X157568923Y-139887438D01*
X157568923Y-139887438D02*
X157616542Y-139935057D01*
X157616542Y-139935057D02*
X157664161Y-140030295D01*
X157664161Y-140030295D02*
X157664161Y-140125533D01*
X157664161Y-140125533D02*
X157616542Y-140268390D01*
X157616542Y-140268390D02*
X157045114Y-140839819D01*
X157045114Y-140839819D02*
X157664161Y-140839819D01*
X158521304Y-140173152D02*
X158521304Y-140839819D01*
X158283209Y-139792200D02*
X158045114Y-140506485D01*
X158045114Y-140506485D02*
X158664161Y-140506485D01*
D11*
X147935000Y-113390000D02*
X147935000Y-116015000D01*
X147935000Y-116015000D02*
X147935000Y-116480000D01*
D12*
X149860000Y-113665000D02*
X149860000Y-114300000D01*
X149860000Y-115570000D02*
X149860000Y-116205000D01*
D11*
X147935000Y-113390171D02*
G75*
G02*
X153282814Y-116015827I2560000J-1544829D01*
G01*
X148240317Y-113854998D02*
G75*
G02*
X152749479Y-116015429I2254683J-1080002D01*
G01*
X152749479Y-116015429D02*
G75*
G02*
X148240316Y-116015000I-2254479J1080429D01*
G01*
X153282815Y-116015827D02*
G75*
G02*
X147935000Y-116479830I-2787815J1080827D01*
G01*
X159445000Y-82455000D02*
X159445000Y-85080000D01*
X159445000Y-85080000D02*
X159445000Y-85545000D01*
D12*
X161370000Y-82730000D02*
X161370000Y-83365000D01*
X161370000Y-84635000D02*
X161370000Y-85270000D01*
D11*
X159445000Y-82455171D02*
G75*
G02*
X164792814Y-85080827I2560000J-1544829D01*
G01*
X159750317Y-82919998D02*
G75*
G02*
X164259479Y-85080429I2254683J-1080002D01*
G01*
X164259479Y-85080429D02*
G75*
G02*
X159750316Y-85080000I-2254479J1080429D01*
G01*
X164792815Y-85080827D02*
G75*
G02*
X159445000Y-85544830I-2787815J1080827D01*
G01*
X172573000Y-96955000D02*
X172573000Y-99580000D01*
X172573000Y-99580000D02*
X172573000Y-100045000D01*
D12*
X174498000Y-97230000D02*
X174498000Y-97865000D01*
X174498000Y-99135000D02*
X174498000Y-99770000D01*
D11*
X172573000Y-96955171D02*
G75*
G02*
X177920814Y-99580827I2560000J-1544829D01*
G01*
X172878317Y-97419998D02*
G75*
G02*
X177387479Y-99580429I2254683J-1080002D01*
G01*
X177387479Y-99580429D02*
G75*
G02*
X172878316Y-99580000I-2254479J1080429D01*
G01*
X177920815Y-99580827D02*
G75*
G02*
X172573000Y-100044830I-2787815J1080827D01*
G01*
X136325000Y-82455000D02*
X136325000Y-85080000D01*
X136325000Y-85080000D02*
X136325000Y-85545000D01*
D12*
X138250000Y-82730000D02*
X138250000Y-83365000D01*
X138250000Y-84635000D02*
X138250000Y-85270000D01*
D11*
X136325000Y-82455171D02*
G75*
G02*
X141672814Y-85080827I2560000J-1544829D01*
G01*
X136630317Y-82919998D02*
G75*
G02*
X141139479Y-85080429I2254683J-1080002D01*
G01*
X141139479Y-85080429D02*
G75*
G02*
X136630316Y-85080000I-2254479J1080429D01*
G01*
X141672815Y-85080827D02*
G75*
G02*
X136325000Y-85544830I-2787815J1080827D01*
G01*
X147935000Y-48747000D02*
X147935000Y-51372000D01*
X147935000Y-51372000D02*
X147935000Y-51837000D01*
D12*
X149860000Y-49022000D02*
X149860000Y-49657000D01*
X149860000Y-50927000D02*
X149860000Y-51562000D01*
D11*
X147935000Y-48747171D02*
G75*
G02*
X153282814Y-51372827I2560000J-1544829D01*
G01*
X148240317Y-49211998D02*
G75*
G02*
X152749479Y-51372429I2254683J-1080002D01*
G01*
X152749479Y-51372429D02*
G75*
G02*
X148240316Y-51372000I-2254479J1080429D01*
G01*
X153282815Y-51372827D02*
G75*
G02*
X147935000Y-51836830I-2787815J1080827D01*
G01*
X123297000Y-96955000D02*
X123297000Y-99580000D01*
X123297000Y-99580000D02*
X123297000Y-100045000D01*
D12*
X125222000Y-97230000D02*
X125222000Y-97865000D01*
X125222000Y-99135000D02*
X125222000Y-99770000D01*
D11*
X123297000Y-96955171D02*
G75*
G02*
X128644814Y-99580827I2560000J-1544829D01*
G01*
X123602317Y-97419998D02*
G75*
G02*
X128111479Y-99580429I2254683J-1080002D01*
G01*
X128111479Y-99580429D02*
G75*
G02*
X123602316Y-99580000I-2254479J1080429D01*
G01*
X128644815Y-99580827D02*
G75*
G02*
X123297000Y-100044830I-2787815J1080827D01*
G01*
X115423000Y-124434000D02*
X115423000Y-127059000D01*
X115423000Y-127059000D02*
X115423000Y-127524000D01*
D12*
X117348000Y-124709000D02*
X117348000Y-125344000D01*
X117348000Y-126614000D02*
X117348000Y-127249000D01*
D11*
X115423000Y-124434171D02*
G75*
G02*
X120770814Y-127059827I2560000J-1544829D01*
G01*
X115728317Y-124898998D02*
G75*
G02*
X120237479Y-127059429I2254683J-1080002D01*
G01*
X120237479Y-127059429D02*
G75*
G02*
X115728316Y-127059000I-2254479J1080429D01*
G01*
X120770815Y-127059827D02*
G75*
G02*
X115423000Y-127523830I-2787815J1080827D01*
G01*
X165715000Y-70955000D02*
X165715000Y-73580000D01*
X165715000Y-73580000D02*
X165715000Y-74045000D01*
D12*
X167640000Y-71230000D02*
X167640000Y-71865000D01*
X167640000Y-73135000D02*
X167640000Y-73770000D01*
D11*
X165715000Y-70955171D02*
G75*
G02*
X171062814Y-73580827I2560000J-1544829D01*
G01*
X166020317Y-71419998D02*
G75*
G02*
X170529479Y-73580429I2254683J-1080002D01*
G01*
X170529479Y-73580429D02*
G75*
G02*
X166020316Y-73580000I-2254479J1080429D01*
G01*
X171062815Y-73580827D02*
G75*
G02*
X165715000Y-74044830I-2787815J1080827D01*
G01*
X180701000Y-124434000D02*
X180701000Y-127059000D01*
X180701000Y-127059000D02*
X180701000Y-127524000D01*
D12*
X182626000Y-124709000D02*
X182626000Y-125344000D01*
X182626000Y-126614000D02*
X182626000Y-127249000D01*
D11*
X180701000Y-124434171D02*
G75*
G02*
X186048814Y-127059827I2560000J-1544829D01*
G01*
X181006317Y-124898998D02*
G75*
G02*
X185515479Y-127059429I2254683J-1080002D01*
G01*
X185515479Y-127059429D02*
G75*
G02*
X181006316Y-127059000I-2254479J1080429D01*
G01*
X186048815Y-127059827D02*
G75*
G02*
X180701000Y-127523830I-2787815J1080827D01*
G01*
X130409000Y-70955000D02*
X130409000Y-73580000D01*
X130409000Y-73580000D02*
X130409000Y-74045000D01*
D12*
X132334000Y-71230000D02*
X132334000Y-71865000D01*
X132334000Y-73135000D02*
X132334000Y-73770000D01*
D11*
X130409000Y-70955171D02*
G75*
G02*
X135756814Y-73580827I2560000J-1544829D01*
G01*
X130714317Y-71419998D02*
G75*
G02*
X135223479Y-73580429I2254683J-1080002D01*
G01*
X135223479Y-73580429D02*
G75*
G02*
X130714316Y-73580000I-2254479J1080429D01*
G01*
X135756815Y-73580827D02*
G75*
G02*
X130409000Y-74044830I-2787815J1080827D01*
G01*
X147945000Y-63955000D02*
X147945000Y-66580000D01*
X147945000Y-66580000D02*
X147945000Y-67045000D01*
D12*
X149870000Y-64230000D02*
X149870000Y-64865000D01*
X149870000Y-66135000D02*
X149870000Y-66770000D01*
D11*
X147945000Y-63955171D02*
G75*
G02*
X153292814Y-66580827I2560000J-1544829D01*
G01*
X148250317Y-64419998D02*
G75*
G02*
X152759479Y-66580429I2254683J-1080002D01*
G01*
X152759479Y-66580429D02*
G75*
G02*
X148250316Y-66580000I-2254479J1080429D01*
G01*
X153292815Y-66580827D02*
G75*
G02*
X147945000Y-67044830I-2787815J1080827D01*
G01*
D13*
G36*
X138145166Y-112373202D02*
G01*
X138145166Y-112405449D01*
X136981709Y-112405449D01*
X135818251Y-112405449D01*
X135818251Y-112373202D01*
X135818251Y-112340956D01*
X136981709Y-112340956D01*
X138145166Y-112340956D01*
X138145166Y-112373202D01*
G37*
G36*
X144749269Y-112373202D02*
G01*
X144749269Y-112405449D01*
X143585812Y-112405449D01*
X142422354Y-112405449D01*
X142422354Y-112373202D01*
X142422354Y-112340956D01*
X143585812Y-112340956D01*
X144749269Y-112340956D01*
X144749269Y-112373202D01*
G37*
G36*
X140802285Y-112302260D02*
G01*
X140802285Y-112869800D01*
X140739082Y-112869800D01*
X140675879Y-112869800D01*
X140675879Y-112361593D01*
X140675879Y-111853387D01*
X140580661Y-111853387D01*
X140485444Y-111853387D01*
X140518103Y-111794135D01*
X140550762Y-111734882D01*
X140676524Y-111734801D01*
X140802285Y-111734720D01*
X140802285Y-112302260D01*
G37*
G36*
X140830662Y-109687694D02*
G01*
X140830662Y-110604776D01*
X141113788Y-110605432D01*
X141396913Y-110606089D01*
X141397586Y-110713792D01*
X141398259Y-110821496D01*
X141000953Y-110821496D01*
X140603646Y-110821496D01*
X140603646Y-109796054D01*
X140603646Y-108770612D01*
X140717154Y-108770612D01*
X140830662Y-108770612D01*
X140830662Y-109687694D01*
G37*
G36*
X137095217Y-108878961D02*
G01*
X137095217Y-108987309D01*
X136741794Y-108987309D01*
X136388371Y-108987309D01*
X136388371Y-109289138D01*
X136388371Y-109590966D01*
X136730185Y-109590966D01*
X137071999Y-109590966D01*
X137071999Y-109699314D01*
X137071999Y-109807663D01*
X136730185Y-109807663D01*
X136388371Y-109807663D01*
X136388371Y-110314579D01*
X136388371Y-110821496D01*
X136274863Y-110821496D01*
X136161355Y-110821496D01*
X136161355Y-109796054D01*
X136161355Y-108770612D01*
X136628286Y-108770612D01*
X137095217Y-108770612D01*
X137095217Y-108878961D01*
G37*
G36*
X139249289Y-111794053D02*
G01*
X139249289Y-111853387D01*
X139053230Y-111853387D01*
X138857171Y-111853387D01*
X138857171Y-112021069D01*
X138857171Y-112188752D01*
X139045491Y-112188752D01*
X139233811Y-112188752D01*
X139233811Y-112248085D01*
X139233811Y-112307419D01*
X139045491Y-112307419D01*
X138857171Y-112307419D01*
X138857171Y-112588609D01*
X138857171Y-112869800D01*
X138793967Y-112869800D01*
X138730764Y-112869800D01*
X138730764Y-112302260D01*
X138730764Y-111734720D01*
X138990027Y-111734720D01*
X139249289Y-111734720D01*
X139249289Y-111794053D01*
G37*
G36*
X139151260Y-109149899D02*
G01*
X139151260Y-109720085D01*
X139166410Y-109702605D01*
X139203061Y-109664179D01*
X139242783Y-109629847D01*
X139285379Y-109599711D01*
X139330653Y-109573870D01*
X139378411Y-109552426D01*
X139428456Y-109535478D01*
X139480594Y-109523127D01*
X139530202Y-109515914D01*
X139548114Y-109514645D01*
X139569725Y-109514037D01*
X139593621Y-109514052D01*
X139618389Y-109514653D01*
X139642616Y-109515803D01*
X139664887Y-109517465D01*
X139683790Y-109519602D01*
X139686553Y-109520008D01*
X139741183Y-109530852D01*
X139793506Y-109546233D01*
X139843390Y-109566008D01*
X139890704Y-109590035D01*
X139935317Y-109618174D01*
X139977098Y-109650281D01*
X140015916Y-109686215D01*
X140051641Y-109725835D01*
X140084140Y-109768998D01*
X140113282Y-109815563D01*
X140138938Y-109865388D01*
X140160975Y-109918331D01*
X140179263Y-109974251D01*
X140193670Y-110033006D01*
X140201595Y-110077163D01*
X140204378Y-110099886D01*
X140206472Y-110126365D01*
X140207852Y-110155239D01*
X140208492Y-110185148D01*
X140208366Y-110214731D01*
X140207449Y-110242628D01*
X140205714Y-110267478D01*
X140205262Y-110272014D01*
X140196678Y-110332119D01*
X140183971Y-110389871D01*
X140167282Y-110445100D01*
X140146750Y-110497636D01*
X140122515Y-110547307D01*
X140094718Y-110593943D01*
X140063498Y-110637373D01*
X140028995Y-110677427D01*
X139991350Y-110713935D01*
X139950701Y-110746725D01*
X139907189Y-110775627D01*
X139860955Y-110800471D01*
X139812137Y-110821085D01*
X139760876Y-110837300D01*
X139736689Y-110843196D01*
X139701158Y-110849682D01*
X139662449Y-110854286D01*
X139622215Y-110856927D01*
X139582114Y-110857524D01*
X139543800Y-110855998D01*
X139519580Y-110853703D01*
X139466525Y-110844810D01*
X139415616Y-110831228D01*
X139366802Y-110812935D01*
X139320035Y-110789911D01*
X139275265Y-110762136D01*
X139244973Y-110739764D01*
X139235118Y-110731445D01*
X139222879Y-110720305D01*
X139209263Y-110707342D01*
X139195275Y-110693550D01*
X139181922Y-110679926D01*
X139170209Y-110667466D01*
X139161142Y-110657165D01*
X139159500Y-110655161D01*
X139151260Y-110644899D01*
X139151260Y-110733197D01*
X139151260Y-110821496D01*
X139040331Y-110821496D01*
X138929403Y-110821496D01*
X138929403Y-110188200D01*
X139139190Y-110188200D01*
X139141415Y-110237622D01*
X139147777Y-110286485D01*
X139158248Y-110334270D01*
X139172800Y-110380457D01*
X139191404Y-110424526D01*
X139214033Y-110465956D01*
X139219456Y-110474523D01*
X139246713Y-110511939D01*
X139277249Y-110545398D01*
X139310946Y-110574824D01*
X139347689Y-110600146D01*
X139387360Y-110621291D01*
X139429843Y-110638185D01*
X139475023Y-110650756D01*
X139511132Y-110657379D01*
X139515970Y-110657676D01*
X139525078Y-110657866D01*
X139537564Y-110657944D01*
X139552541Y-110657906D01*
X139569117Y-110657749D01*
X139574335Y-110657676D01*
X139594680Y-110657283D01*
X139610853Y-110656727D01*
X139623840Y-110655931D01*
X139634630Y-110654817D01*
X139644207Y-110653306D01*
X139653017Y-110651447D01*
X139692834Y-110640574D01*
X139728800Y-110627198D01*
X139761816Y-110610823D01*
X139792784Y-110590954D01*
X139822605Y-110567095D01*
X139845393Y-110545652D01*
X139875508Y-110512286D01*
X139901654Y-110476276D01*
X139924081Y-110437206D01*
X139943039Y-110394660D01*
X139953220Y-110366174D01*
X139962988Y-110333180D01*
X139970289Y-110300985D01*
X139975327Y-110268214D01*
X139978306Y-110233496D01*
X139979428Y-110195458D01*
X139979449Y-110189395D01*
X139978381Y-110146852D01*
X139975006Y-110107702D01*
X139969123Y-110070624D01*
X139960533Y-110034302D01*
X139951302Y-110004075D01*
X139933760Y-109959222D01*
X139912238Y-109917405D01*
X139886943Y-109878815D01*
X139858082Y-109843641D01*
X139825861Y-109812071D01*
X139790488Y-109784294D01*
X139752168Y-109760501D01*
X139711109Y-109740879D01*
X139667518Y-109725617D01*
X139638828Y-109718323D01*
X139623826Y-109715924D01*
X139604992Y-109714266D01*
X139583601Y-109713339D01*
X139560926Y-109713137D01*
X139538242Y-109713651D01*
X139516821Y-109714875D01*
X139497937Y-109716799D01*
X139483573Y-109719256D01*
X139438192Y-109732031D01*
X139395050Y-109749364D01*
X139354411Y-109771046D01*
X139316538Y-109796867D01*
X139281695Y-109826619D01*
X139250146Y-109860094D01*
X139222154Y-109897082D01*
X139197983Y-109937374D01*
X139191105Y-109950918D01*
X139172223Y-109995331D01*
X139157618Y-110041786D01*
X139147263Y-110089762D01*
X139141130Y-110138740D01*
X139139190Y-110188200D01*
X138929403Y-110188200D01*
X138929403Y-109700604D01*
X138929403Y-108579712D01*
X139040331Y-108579712D01*
X139151260Y-108579712D01*
X139151260Y-109149899D01*
G37*
G36*
X143485202Y-109149899D02*
G01*
X143485202Y-109720085D01*
X143500352Y-109702605D01*
X143537004Y-109664179D01*
X143576726Y-109629847D01*
X143619321Y-109599711D01*
X143664596Y-109573870D01*
X143712353Y-109552426D01*
X143762399Y-109535478D01*
X143814536Y-109523127D01*
X143864145Y-109515914D01*
X143882057Y-109514645D01*
X143903668Y-109514037D01*
X143927564Y-109514052D01*
X143952332Y-109514653D01*
X143976559Y-109515803D01*
X143998830Y-109517465D01*
X144017733Y-109519602D01*
X144020496Y-109520008D01*
X144075126Y-109530852D01*
X144127449Y-109546233D01*
X144177332Y-109566008D01*
X144224647Y-109590035D01*
X144269260Y-109618174D01*
X144311041Y-109650281D01*
X144349859Y-109686215D01*
X144385583Y-109725835D01*
X144418082Y-109768998D01*
X144447225Y-109815563D01*
X144472881Y-109865388D01*
X144494918Y-109918331D01*
X144513206Y-109974251D01*
X144527613Y-110033006D01*
X144535537Y-110077163D01*
X144538321Y-110099886D01*
X144540415Y-110126365D01*
X144541795Y-110155239D01*
X144542435Y-110185148D01*
X144542309Y-110214731D01*
X144541391Y-110242628D01*
X144539657Y-110267478D01*
X144539205Y-110272014D01*
X144530620Y-110332119D01*
X144517914Y-110389871D01*
X144501224Y-110445100D01*
X144480692Y-110497636D01*
X144456458Y-110547307D01*
X144428661Y-110593943D01*
X144397441Y-110637373D01*
X144362938Y-110677427D01*
X144325292Y-110713935D01*
X144284644Y-110746725D01*
X144241132Y-110775627D01*
X144194897Y-110800471D01*
X144146080Y-110821085D01*
X144094819Y-110837300D01*
X144070632Y-110843196D01*
X144035101Y-110849682D01*
X143996391Y-110854286D01*
X143956158Y-110856927D01*
X143916057Y-110857524D01*
X143877743Y-110855998D01*
X143853522Y-110853703D01*
X143800468Y-110844810D01*
X143749558Y-110831228D01*
X143700745Y-110812935D01*
X143653978Y-110789911D01*
X143609208Y-110762136D01*
X143578916Y-110739764D01*
X143569061Y-110731445D01*
X143556822Y-110720305D01*
X143543206Y-110707342D01*
X143529218Y-110693550D01*
X143515864Y-110679926D01*
X143504151Y-110667466D01*
X143495085Y-110657165D01*
X143493443Y-110655161D01*
X143485202Y-110644899D01*
X143485202Y-110733197D01*
X143485202Y-110821496D01*
X143374274Y-110821496D01*
X143263346Y-110821496D01*
X143263346Y-110188200D01*
X143473132Y-110188200D01*
X143475358Y-110237622D01*
X143481720Y-110286485D01*
X143492191Y-110334270D01*
X143506743Y-110380457D01*
X143525347Y-110424526D01*
X143547976Y-110465956D01*
X143553399Y-110474523D01*
X143580656Y-110511939D01*
X143611192Y-110545398D01*
X143644889Y-110574824D01*
X143681631Y-110600146D01*
X143721303Y-110621291D01*
X143763786Y-110638185D01*
X143808966Y-110650756D01*
X143845074Y-110657379D01*
X143849913Y-110657676D01*
X143859020Y-110657866D01*
X143871507Y-110657944D01*
X143886483Y-110657906D01*
X143903060Y-110657749D01*
X143908278Y-110657676D01*
X143928623Y-110657283D01*
X143944795Y-110656727D01*
X143957783Y-110655931D01*
X143968572Y-110654817D01*
X143978150Y-110653306D01*
X143986959Y-110651447D01*
X144026777Y-110640574D01*
X144062743Y-110627198D01*
X144095759Y-110610823D01*
X144126727Y-110590954D01*
X144156548Y-110567095D01*
X144179336Y-110545652D01*
X144209451Y-110512286D01*
X144235597Y-110476276D01*
X144258024Y-110437206D01*
X144276982Y-110394660D01*
X144287162Y-110366174D01*
X144296931Y-110333180D01*
X144304232Y-110300985D01*
X144309270Y-110268214D01*
X144312248Y-110233496D01*
X144313371Y-110195458D01*
X144313392Y-110189395D01*
X144312323Y-110146852D01*
X144308948Y-110107702D01*
X144303066Y-110070624D01*
X144294476Y-110034302D01*
X144285245Y-110004075D01*
X144267702Y-109959222D01*
X144246181Y-109917405D01*
X144220886Y-109878815D01*
X144192024Y-109843641D01*
X144159804Y-109812071D01*
X144124430Y-109784294D01*
X144086111Y-109760501D01*
X144045052Y-109740879D01*
X144001460Y-109725617D01*
X143972771Y-109718323D01*
X143957769Y-109715924D01*
X143938935Y-109714266D01*
X143917544Y-109713339D01*
X143894869Y-109713137D01*
X143872184Y-109713651D01*
X143850763Y-109714875D01*
X143831880Y-109716799D01*
X143817516Y-109719256D01*
X143772135Y-109732031D01*
X143728993Y-109749364D01*
X143688354Y-109771046D01*
X143650481Y-109796867D01*
X143615638Y-109826619D01*
X143584089Y-109860094D01*
X143556097Y-109897082D01*
X143531926Y-109937374D01*
X143525048Y-109950918D01*
X143506165Y-109995331D01*
X143491561Y-110041786D01*
X143481206Y-110089762D01*
X143475072Y-110138740D01*
X143473132Y-110188200D01*
X143263346Y-110188200D01*
X143263346Y-109700604D01*
X143263346Y-108579712D01*
X143374274Y-108579712D01*
X143485202Y-108579712D01*
X143485202Y-109149899D01*
G37*
G36*
X139619477Y-111734777D02*
G01*
X139644810Y-111734940D01*
X139668766Y-111735198D01*
X139690700Y-111735539D01*
X139709968Y-111735951D01*
X139725927Y-111736424D01*
X139737933Y-111736946D01*
X139744684Y-111737432D01*
X139789604Y-111744034D01*
X139830951Y-111754228D01*
X139868674Y-111767972D01*
X139902721Y-111785222D01*
X139933041Y-111805936D01*
X139959582Y-111830071D01*
X139982294Y-111857584D01*
X140001125Y-111888432D01*
X140016023Y-111922573D01*
X140026938Y-111959962D01*
X140030196Y-111975924D01*
X140032526Y-111993400D01*
X140033965Y-112014053D01*
X140034516Y-112036325D01*
X140034181Y-112058660D01*
X140032960Y-112079500D01*
X140030857Y-112097290D01*
X140030038Y-112101883D01*
X140021077Y-112135711D01*
X140008074Y-112167643D01*
X139991389Y-112197071D01*
X139971387Y-112223383D01*
X139948429Y-112245971D01*
X139940742Y-112252143D01*
X139934006Y-112257549D01*
X139929313Y-112261830D01*
X139927758Y-112263889D01*
X139929989Y-112265621D01*
X139935433Y-112267385D01*
X139936142Y-112267545D01*
X139947579Y-112270857D01*
X139961812Y-112276231D01*
X139977267Y-112282989D01*
X139992366Y-112290451D01*
X140002634Y-112296177D01*
X140032209Y-112316513D01*
X140058246Y-112340351D01*
X140080985Y-112367953D01*
X140100666Y-112399583D01*
X140105723Y-112409318D01*
X140121345Y-112446253D01*
X140132072Y-112484305D01*
X140137932Y-112523047D01*
X140138953Y-112562054D01*
X140135162Y-112600896D01*
X140126589Y-112639149D01*
X140113259Y-112676385D01*
X140095203Y-112712176D01*
X140084842Y-112728752D01*
X140061508Y-112759128D01*
X140034372Y-112786113D01*
X140003615Y-112809594D01*
X139969419Y-112829457D01*
X139931965Y-112845590D01*
X139891434Y-112857880D01*
X139869714Y-112862617D01*
X139864065Y-112863657D01*
X139858484Y-112864558D01*
X139852565Y-112865335D01*
X139845900Y-112865998D01*
X139838081Y-112866561D01*
X139828702Y-112867035D01*
X139817354Y-112867433D01*
X139803631Y-112867766D01*
X139787126Y-112868048D01*
X139767431Y-112868291D01*
X139744139Y-112868506D01*
X139716842Y-112868705D01*
X139685134Y-112868903D01*
X139654951Y-112869074D01*
X139468566Y-112870107D01*
X139468566Y-112548654D01*
X139594973Y-112548654D01*
X139594973Y-112751865D01*
X139698807Y-112750381D01*
X139729054Y-112749886D01*
X139754621Y-112749322D01*
X139775987Y-112748670D01*
X139793629Y-112747908D01*
X139808028Y-112747016D01*
X139819661Y-112745972D01*
X139829007Y-112744757D01*
X139829096Y-112744743D01*
X139859352Y-112738775D01*
X139885619Y-112730802D01*
X139908828Y-112720387D01*
X139929905Y-112707093D01*
X139949778Y-112690483D01*
X139955025Y-112685406D01*
X139973910Y-112664334D01*
X139988427Y-112642685D01*
X139999323Y-112619194D01*
X140005549Y-112599668D01*
X140009353Y-112580038D01*
X140011242Y-112557825D01*
X140011217Y-112534882D01*
X140009279Y-112513063D01*
X140005527Y-112494566D01*
X139994729Y-112465173D01*
X139979896Y-112438996D01*
X139961038Y-112416045D01*
X139938162Y-112396329D01*
X139911278Y-112379860D01*
X139905830Y-112377152D01*
X139892452Y-112370994D01*
X139879615Y-112365763D01*
X139866747Y-112361376D01*
X139853277Y-112357753D01*
X139838634Y-112354810D01*
X139822247Y-112352466D01*
X139803544Y-112350639D01*
X139781956Y-112349247D01*
X139756910Y-112348208D01*
X139727836Y-112347439D01*
X139694937Y-112346870D01*
X139594973Y-112345443D01*
X139594973Y-112548654D01*
X139468566Y-112548654D01*
X139468566Y-112345443D01*
X139468566Y-112302413D01*
X139468566Y-112042997D01*
X139594973Y-112042997D01*
X139594973Y-112232607D01*
X139658821Y-112232556D01*
X139677651Y-112232435D01*
X139695832Y-112232123D01*
X139712384Y-112231653D01*
X139726325Y-112231055D01*
X139736673Y-112230361D01*
X139740727Y-112229915D01*
X139775539Y-112223035D01*
X139806334Y-112212939D01*
X139833155Y-112199593D01*
X139856048Y-112182962D01*
X139875056Y-112163010D01*
X139890224Y-112139705D01*
X139901596Y-112113011D01*
X139904974Y-112101816D01*
X139908362Y-112084429D01*
X139910294Y-112063839D01*
X139910771Y-112041792D01*
X139909792Y-112020034D01*
X139907358Y-112000313D01*
X139904946Y-111989230D01*
X139897991Y-111967390D01*
X139889572Y-111949048D01*
X139878763Y-111932569D01*
X139864635Y-111916321D01*
X139862085Y-111913715D01*
X139851221Y-111903192D01*
X139841846Y-111895384D01*
X139832184Y-111889011D01*
X139820461Y-111882790D01*
X139816829Y-111881027D01*
X139799594Y-111873454D01*
X139782089Y-111867297D01*
X139763582Y-111862438D01*
X139743337Y-111858759D01*
X139720619Y-111856144D01*
X139694694Y-111854473D01*
X139664826Y-111853631D01*
X139644633Y-111853474D01*
X139594973Y-111853387D01*
X139594973Y-112042997D01*
X139468566Y-112042997D01*
X139468566Y-111853387D01*
X139468566Y-111734720D01*
X139593410Y-111734720D01*
X139619477Y-111734777D01*
G37*
G36*
X137907924Y-109515903D02*
G01*
X137961348Y-109522840D01*
X138012569Y-109534400D01*
X138061520Y-109550554D01*
X138108130Y-109571268D01*
X138152332Y-109596513D01*
X138194057Y-109626256D01*
X138233235Y-109660467D01*
X138269798Y-109699113D01*
X138276591Y-109707132D01*
X138289631Y-109722800D01*
X138289631Y-109633665D01*
X138289631Y-109544531D01*
X138400559Y-109544531D01*
X138511487Y-109544531D01*
X138511487Y-110183013D01*
X138511487Y-110821496D01*
X138400559Y-110821496D01*
X138289631Y-110821496D01*
X138289631Y-110733197D01*
X138289631Y-110644899D01*
X138281385Y-110655161D01*
X138273019Y-110664897D01*
X138261785Y-110677018D01*
X138248699Y-110690515D01*
X138234775Y-110704376D01*
X138221030Y-110717591D01*
X138208479Y-110729149D01*
X138198137Y-110738038D01*
X138198050Y-110738109D01*
X138155900Y-110769148D01*
X138111797Y-110795506D01*
X138065502Y-110817291D01*
X138016777Y-110834611D01*
X137965383Y-110847575D01*
X137951686Y-110850221D01*
X137934945Y-110852593D01*
X137914287Y-110854469D01*
X137890933Y-110855826D01*
X137866105Y-110856638D01*
X137841023Y-110856881D01*
X137816908Y-110856532D01*
X137794981Y-110855566D01*
X137776464Y-110853958D01*
X137774638Y-110853735D01*
X137717257Y-110844038D01*
X137662374Y-110829884D01*
X137610127Y-110811402D01*
X137560654Y-110788722D01*
X137514095Y-110761975D01*
X137470586Y-110731291D01*
X137430267Y-110696799D01*
X137393275Y-110658631D01*
X137359749Y-110616916D01*
X137329827Y-110571785D01*
X137303648Y-110523368D01*
X137281349Y-110471795D01*
X137263069Y-110417196D01*
X137248946Y-110359702D01*
X137248689Y-110358435D01*
X137244474Y-110336874D01*
X137241090Y-110317681D01*
X137238452Y-110299852D01*
X137236471Y-110282381D01*
X137235061Y-110264262D01*
X137234134Y-110244490D01*
X137233602Y-110222059D01*
X137233380Y-110195964D01*
X137233371Y-110189971D01*
X137460787Y-110189971D01*
X137462793Y-110237133D01*
X137467898Y-110282550D01*
X137472146Y-110306840D01*
X137484230Y-110356243D01*
X137499992Y-110402408D01*
X137519316Y-110445209D01*
X137542084Y-110484518D01*
X137568177Y-110520210D01*
X137597478Y-110552156D01*
X137629869Y-110580231D01*
X137665232Y-110604307D01*
X137703449Y-110624258D01*
X137744403Y-110639957D01*
X137787976Y-110651276D01*
X137793033Y-110652269D01*
X137803655Y-110654265D01*
X137812417Y-110655776D01*
X137820281Y-110656856D01*
X137828210Y-110657564D01*
X137837166Y-110657954D01*
X137848112Y-110658084D01*
X137862011Y-110658009D01*
X137879825Y-110657787D01*
X137885903Y-110657702D01*
X137906922Y-110657309D01*
X137923757Y-110656736D01*
X137937380Y-110655912D01*
X137948766Y-110654764D01*
X137958888Y-110653218D01*
X137966602Y-110651675D01*
X138009872Y-110640075D01*
X138049775Y-110624804D01*
X138086839Y-110605576D01*
X138121591Y-110582106D01*
X138154558Y-110554108D01*
X138164648Y-110544315D01*
X138195470Y-110510152D01*
X138222209Y-110473319D01*
X138245020Y-110433537D01*
X138264056Y-110390530D01*
X138279470Y-110344020D01*
X138283220Y-110330086D01*
X138289691Y-110302876D01*
X138294493Y-110277681D01*
X138297815Y-110252934D01*
X138299842Y-110227064D01*
X138300762Y-110198502D01*
X138300864Y-110181723D01*
X138299961Y-110142648D01*
X138297203Y-110107078D01*
X138292389Y-110073633D01*
X138285314Y-110040930D01*
X138275778Y-110007587D01*
X138274989Y-110005119D01*
X138258077Y-109960504D01*
X138237099Y-109918911D01*
X138212229Y-109880517D01*
X138183639Y-109845496D01*
X138151500Y-109814026D01*
X138115987Y-109786284D01*
X138077270Y-109762444D01*
X138035523Y-109742685D01*
X138008518Y-109732668D01*
X137965981Y-109721098D01*
X137921912Y-109714147D01*
X137877075Y-109711817D01*
X137832233Y-109714107D01*
X137788152Y-109721017D01*
X137745594Y-109732547D01*
X137745216Y-109732673D01*
X137705871Y-109747846D01*
X137670118Y-109766036D01*
X137636990Y-109787841D01*
X137605522Y-109813856D01*
X137590481Y-109828257D01*
X137560759Y-109861144D01*
X137535169Y-109896346D01*
X137513523Y-109934224D01*
X137495631Y-109975138D01*
X137481306Y-110019448D01*
X137473287Y-110052737D01*
X137466040Y-110096300D01*
X137461871Y-110142536D01*
X137460787Y-110189971D01*
X137233371Y-110189971D01*
X137233358Y-110181723D01*
X137233467Y-110153283D01*
X137233852Y-110129012D01*
X137234592Y-110107927D01*
X137235771Y-110089042D01*
X137237470Y-110071373D01*
X137239771Y-110053932D01*
X137242756Y-110035736D01*
X137246507Y-110015800D01*
X137247625Y-110010172D01*
X137261324Y-109953779D01*
X137279285Y-109899771D01*
X137301385Y-109848387D01*
X137327500Y-109799865D01*
X137357508Y-109754443D01*
X137391286Y-109712360D01*
X137414170Y-109687946D01*
X137451942Y-109653192D01*
X137492290Y-109622401D01*
X137535902Y-109595083D01*
X137568597Y-109577836D01*
X137617562Y-109556146D01*
X137667025Y-109539071D01*
X137717607Y-109526470D01*
X137769925Y-109518202D01*
X137824599Y-109514129D01*
X137852367Y-109513622D01*
X137907924Y-109515903D01*
G37*
G36*
X142241867Y-109515903D02*
G01*
X142295290Y-109522840D01*
X142346512Y-109534400D01*
X142395462Y-109550554D01*
X142442073Y-109571268D01*
X142486275Y-109596513D01*
X142527999Y-109626256D01*
X142567178Y-109660467D01*
X142603741Y-109699113D01*
X142610534Y-109707132D01*
X142623573Y-109722800D01*
X142623573Y-109633665D01*
X142623573Y-109544531D01*
X142734502Y-109544531D01*
X142845430Y-109544531D01*
X142845430Y-110183013D01*
X142845430Y-110821496D01*
X142734502Y-110821496D01*
X142623573Y-110821496D01*
X142623573Y-110733197D01*
X142623573Y-110644899D01*
X142615328Y-110655161D01*
X142606962Y-110664897D01*
X142595728Y-110677018D01*
X142582641Y-110690515D01*
X142568718Y-110704376D01*
X142554973Y-110717591D01*
X142542422Y-110729149D01*
X142532080Y-110738038D01*
X142531993Y-110738109D01*
X142489843Y-110769148D01*
X142445740Y-110795506D01*
X142399445Y-110817291D01*
X142350720Y-110834611D01*
X142299325Y-110847575D01*
X142285629Y-110850221D01*
X142268888Y-110852593D01*
X142248230Y-110854469D01*
X142224876Y-110855826D01*
X142200048Y-110856638D01*
X142174965Y-110856881D01*
X142150851Y-110856532D01*
X142128924Y-110855566D01*
X142110407Y-110853958D01*
X142108580Y-110853735D01*
X142051199Y-110844038D01*
X141996316Y-110829884D01*
X141944069Y-110811402D01*
X141894597Y-110788722D01*
X141848038Y-110761975D01*
X141804529Y-110731291D01*
X141764210Y-110696799D01*
X141727218Y-110658631D01*
X141693692Y-110616916D01*
X141663770Y-110571785D01*
X141637591Y-110523368D01*
X141615292Y-110471795D01*
X141597012Y-110417196D01*
X141582889Y-110359702D01*
X141582632Y-110358435D01*
X141578416Y-110336874D01*
X141575033Y-110317681D01*
X141572394Y-110299852D01*
X141570414Y-110282381D01*
X141569003Y-110264262D01*
X141568076Y-110244490D01*
X141567545Y-110222059D01*
X141567323Y-110195964D01*
X141567313Y-110189971D01*
X141794729Y-110189971D01*
X141796736Y-110237133D01*
X141801841Y-110282550D01*
X141806089Y-110306840D01*
X141818172Y-110356243D01*
X141833935Y-110402408D01*
X141853259Y-110445209D01*
X141876027Y-110484518D01*
X141902120Y-110520210D01*
X141931421Y-110552156D01*
X141963811Y-110580231D01*
X141999175Y-110604307D01*
X142037392Y-110624258D01*
X142078346Y-110639957D01*
X142121919Y-110651276D01*
X142126976Y-110652269D01*
X142137598Y-110654265D01*
X142146360Y-110655776D01*
X142154224Y-110656856D01*
X142162153Y-110657564D01*
X142171109Y-110657954D01*
X142182055Y-110658084D01*
X142195954Y-110658009D01*
X142213768Y-110657787D01*
X142219846Y-110657702D01*
X142240865Y-110657309D01*
X142257700Y-110656736D01*
X142271323Y-110655912D01*
X142282709Y-110654764D01*
X142292831Y-110653218D01*
X142300544Y-110651675D01*
X142343814Y-110640075D01*
X142383717Y-110624804D01*
X142420781Y-110605576D01*
X142455534Y-110582106D01*
X142488501Y-110554108D01*
X142498591Y-110544315D01*
X142529413Y-110510152D01*
X142556152Y-110473319D01*
X142578963Y-110433537D01*
X142597999Y-110390530D01*
X142613412Y-110344020D01*
X142617163Y-110330086D01*
X142623633Y-110302876D01*
X142628436Y-110277681D01*
X142631758Y-110252934D01*
X142633785Y-110227064D01*
X142634704Y-110198502D01*
X142634807Y-110181723D01*
X142633904Y-110142648D01*
X142631146Y-110107078D01*
X142626331Y-110073633D01*
X142619257Y-110040930D01*
X142609721Y-110007587D01*
X142608932Y-110005119D01*
X142592020Y-109960504D01*
X142571042Y-109918911D01*
X142546172Y-109880517D01*
X142517581Y-109845496D01*
X142485443Y-109814026D01*
X142449929Y-109786284D01*
X142411213Y-109762444D01*
X142369465Y-109742685D01*
X142342460Y-109732668D01*
X142299924Y-109721098D01*
X142255855Y-109714147D01*
X142211018Y-109711817D01*
X142166176Y-109714107D01*
X142122094Y-109721017D01*
X142079537Y-109732547D01*
X142079158Y-109732673D01*
X142039814Y-109747846D01*
X142004061Y-109766036D01*
X141970932Y-109787841D01*
X141939465Y-109813856D01*
X141924423Y-109828257D01*
X141894702Y-109861144D01*
X141869112Y-109896346D01*
X141847465Y-109934224D01*
X141829574Y-109975138D01*
X141815248Y-110019448D01*
X141807230Y-110052737D01*
X141799983Y-110096300D01*
X141795814Y-110142536D01*
X141794729Y-110189971D01*
X141567313Y-110189971D01*
X141567300Y-110181723D01*
X141567410Y-110153283D01*
X141567794Y-110129012D01*
X141568535Y-110107927D01*
X141569714Y-110089042D01*
X141571413Y-110071373D01*
X141573714Y-110053932D01*
X141576699Y-110035736D01*
X141580450Y-110015800D01*
X141581568Y-110010172D01*
X141595267Y-109953779D01*
X141613227Y-109899771D01*
X141635327Y-109848387D01*
X141661443Y-109799865D01*
X141691451Y-109754443D01*
X141725229Y-109712360D01*
X141748113Y-109687946D01*
X141785885Y-109653192D01*
X141826233Y-109622401D01*
X141869845Y-109595083D01*
X141902539Y-109577836D01*
X141951504Y-109556146D01*
X142000968Y-109539071D01*
X142051550Y-109526470D01*
X142103868Y-109518202D01*
X142158541Y-109514129D01*
X142186309Y-109513622D01*
X142241867Y-109515903D01*
G37*
G36*
X141591868Y-111708708D02*
G01*
X141597998Y-111712320D01*
X141607100Y-111718368D01*
X141618627Y-111726482D01*
X141632032Y-111736294D01*
X141638622Y-111741233D01*
X141652127Y-111751425D01*
X141664193Y-111760528D01*
X141674232Y-111768100D01*
X141681656Y-111773696D01*
X141685877Y-111776873D01*
X141686621Y-111777429D01*
X141685253Y-111779528D01*
X141681149Y-111785455D01*
X141674575Y-111794837D01*
X141665793Y-111807305D01*
X141655067Y-111822487D01*
X141642663Y-111840013D01*
X141628843Y-111859510D01*
X141613872Y-111880608D01*
X141598014Y-111902937D01*
X141581533Y-111926125D01*
X141564692Y-111949801D01*
X141547756Y-111973594D01*
X141530989Y-111997134D01*
X141514655Y-112020049D01*
X141499018Y-112041967D01*
X141484341Y-112062519D01*
X141470889Y-112081334D01*
X141458926Y-112098039D01*
X141448716Y-112112265D01*
X141440523Y-112123640D01*
X141434610Y-112131793D01*
X141431243Y-112136353D01*
X141430788Y-112136940D01*
X141429532Y-112139252D01*
X141431834Y-112139436D01*
X141435609Y-112138541D01*
X141451574Y-112134580D01*
X141465895Y-112131745D01*
X141480314Y-112129795D01*
X141496572Y-112128489D01*
X141514330Y-112127662D01*
X141541839Y-112127244D01*
X141566221Y-112128292D01*
X141589350Y-112130989D01*
X141613097Y-112135518D01*
X141626076Y-112138599D01*
X141666280Y-112151254D01*
X141704090Y-112168359D01*
X141739245Y-112189668D01*
X141771483Y-112214932D01*
X141800542Y-112243903D01*
X141826159Y-112276335D01*
X141848072Y-112311978D01*
X141866019Y-112350586D01*
X141874123Y-112373052D01*
X141880158Y-112392781D01*
X141884750Y-112410954D01*
X141888067Y-112428800D01*
X141890275Y-112447548D01*
X141891542Y-112468427D01*
X141892035Y-112492666D01*
X141892050Y-112504768D01*
X141891907Y-112524468D01*
X141891565Y-112540086D01*
X141890946Y-112552698D01*
X141889973Y-112563380D01*
X141888566Y-112573210D01*
X141886647Y-112583262D01*
X141886184Y-112585445D01*
X141874309Y-112630049D01*
X141858548Y-112671617D01*
X141839001Y-112709978D01*
X141815766Y-112744961D01*
X141788945Y-112776394D01*
X141758699Y-112804056D01*
X141723111Y-112829460D01*
X141684640Y-112850752D01*
X141643772Y-112867730D01*
X141600988Y-112880192D01*
X141558213Y-112887762D01*
X141541276Y-112889206D01*
X141520909Y-112889962D01*
X141498792Y-112890045D01*
X141476606Y-112889474D01*
X141456031Y-112888267D01*
X141439478Y-112886540D01*
X141395381Y-112878019D01*
X141353634Y-112865001D01*
X141314449Y-112847684D01*
X141278032Y-112826265D01*
X141244595Y-112800943D01*
X141214347Y-112771915D01*
X141187496Y-112739378D01*
X141164253Y-112703530D01*
X141144826Y-112664569D01*
X141129426Y-112622692D01*
X141119613Y-112584740D01*
X141116574Y-112566690D01*
X141114279Y-112545636D01*
X141112795Y-112523127D01*
X141112265Y-112503623D01*
X141238691Y-112503623D01*
X141240407Y-112537975D01*
X141246142Y-112571904D01*
X141255892Y-112604891D01*
X141269654Y-112636418D01*
X141287424Y-112665967D01*
X141309198Y-112693019D01*
X141315562Y-112699627D01*
X141341648Y-112722131D01*
X141371107Y-112741048D01*
X141403340Y-112756081D01*
X141437745Y-112766933D01*
X141461406Y-112771670D01*
X141477900Y-112773250D01*
X141497672Y-112773606D01*
X141519012Y-112772828D01*
X141540209Y-112771012D01*
X141559554Y-112768249D01*
X141571575Y-112765675D01*
X141606194Y-112754299D01*
X141638326Y-112738742D01*
X141667485Y-112719276D01*
X141689801Y-112699627D01*
X141712705Y-112673130D01*
X141731827Y-112643453D01*
X141746976Y-112611119D01*
X141757963Y-112576650D01*
X141764598Y-112540570D01*
X141766689Y-112503402D01*
X141766263Y-112489290D01*
X141761883Y-112452354D01*
X141752976Y-112417437D01*
X141739779Y-112384840D01*
X141722524Y-112354863D01*
X141701448Y-112327808D01*
X141676785Y-112303976D01*
X141648769Y-112283668D01*
X141617635Y-112267184D01*
X141583618Y-112254827D01*
X141583377Y-112254757D01*
X141546922Y-112246714D01*
X141510358Y-112243316D01*
X141474187Y-112244446D01*
X141438911Y-112249988D01*
X141405031Y-112259824D01*
X141373048Y-112273839D01*
X141343464Y-112291915D01*
X141316780Y-112313937D01*
X141312983Y-112317649D01*
X141290513Y-112343656D01*
X141272083Y-112372349D01*
X141257690Y-112403211D01*
X141247329Y-112435723D01*
X141240997Y-112469366D01*
X141238691Y-112503623D01*
X141112265Y-112503623D01*
X141112186Y-112500711D01*
X141112521Y-112479937D01*
X141113864Y-112462351D01*
X141114254Y-112459388D01*
X141123234Y-112414449D01*
X141137159Y-112369699D01*
X141155824Y-112325675D01*
X141179027Y-112282913D01*
X141184622Y-112273883D01*
X141187326Y-112269881D01*
X141192768Y-112262068D01*
X141200731Y-112250744D01*
X141211001Y-112236211D01*
X141223361Y-112218770D01*
X141237597Y-112198722D01*
X141253492Y-112176368D01*
X141270833Y-112152010D01*
X141289402Y-112125949D01*
X141308985Y-112098487D01*
X141329367Y-112069924D01*
X141350332Y-112040562D01*
X141371664Y-112010702D01*
X141393149Y-111980646D01*
X141414570Y-111950694D01*
X141435713Y-111921148D01*
X141456362Y-111892310D01*
X141476302Y-111864480D01*
X141495317Y-111837960D01*
X141513192Y-111813052D01*
X141529711Y-111790055D01*
X141544660Y-111769272D01*
X141557822Y-111751005D01*
X141568982Y-111735553D01*
X141577926Y-111723219D01*
X141584436Y-111714304D01*
X141588299Y-111709109D01*
X141589258Y-111707902D01*
X141591868Y-111708708D01*
G37*
G36*
X132295177Y-108614579D02*
G01*
X132333445Y-108614687D01*
X132370683Y-108614873D01*
X132406328Y-108615139D01*
X132439818Y-108615483D01*
X132470589Y-108615907D01*
X132498080Y-108616410D01*
X132521727Y-108616991D01*
X132540969Y-108617652D01*
X132545867Y-108617869D01*
X132638210Y-108622800D01*
X132725695Y-108628644D01*
X132808546Y-108635435D01*
X132886988Y-108643204D01*
X132961247Y-108651983D01*
X133031547Y-108661806D01*
X133098113Y-108672705D01*
X133161170Y-108684713D01*
X133220944Y-108697861D01*
X133277660Y-108712183D01*
X133331541Y-108727711D01*
X133353321Y-108734581D01*
X133410929Y-108754564D01*
X133463707Y-108775679D01*
X133511886Y-108798056D01*
X133555697Y-108821823D01*
X133595370Y-108847109D01*
X133631136Y-108874043D01*
X133663226Y-108902753D01*
X133673400Y-108913005D01*
X133697883Y-108940656D01*
X133718585Y-108969019D01*
X133735653Y-108998566D01*
X133749234Y-109029769D01*
X133759475Y-109063098D01*
X133766523Y-109099026D01*
X133770526Y-109138024D01*
X133771631Y-109180564D01*
X133770212Y-109223263D01*
X133769324Y-109239065D01*
X133768548Y-109253349D01*
X133767933Y-109265216D01*
X133767524Y-109273770D01*
X133767368Y-109278113D01*
X133767368Y-109278198D01*
X133768401Y-109281663D01*
X133772315Y-109283797D01*
X133778965Y-109285131D01*
X133790270Y-109287252D01*
X133805246Y-109290677D01*
X133822668Y-109295077D01*
X133841315Y-109300123D01*
X133859961Y-109305486D01*
X133877384Y-109310836D01*
X133889905Y-109314984D01*
X133908561Y-109322009D01*
X133929585Y-109330869D01*
X133951667Y-109340933D01*
X133973496Y-109351573D01*
X133993764Y-109362160D01*
X134011160Y-109372066D01*
X134018891Y-109376906D01*
X134058481Y-109405494D01*
X134094420Y-109436972D01*
X134126359Y-109470983D01*
X134153949Y-109507171D01*
X134167739Y-109528880D01*
X134184299Y-109559600D01*
X134197766Y-109590819D01*
X134208801Y-109624210D01*
X134215300Y-109649208D01*
X134217682Y-109659589D01*
X134219478Y-109668496D01*
X134220769Y-109676936D01*
X134221638Y-109685916D01*
X134222167Y-109696443D01*
X134222437Y-109709522D01*
X134222531Y-109726163D01*
X134222537Y-109738010D01*
X134222470Y-109757936D01*
X134222239Y-109773705D01*
X134221774Y-109786319D01*
X134221006Y-109796781D01*
X134219866Y-109806092D01*
X134218286Y-109815255D01*
X134216659Y-109823141D01*
X134203186Y-109873304D01*
X134184817Y-109921979D01*
X134161630Y-109969051D01*
X134133702Y-110014408D01*
X134101111Y-110057934D01*
X134063933Y-110099517D01*
X134022247Y-110139041D01*
X133977366Y-110175465D01*
X133924580Y-110212047D01*
X133868183Y-110245079D01*
X133808370Y-110274494D01*
X133745337Y-110300224D01*
X133679280Y-110322203D01*
X133610393Y-110340363D01*
X133538872Y-110354637D01*
X133464913Y-110364958D01*
X133411767Y-110369797D01*
X133399386Y-110370841D01*
X133388881Y-110372024D01*
X133381323Y-110373203D01*
X133377785Y-110374236D01*
X133377729Y-110374286D01*
X133375853Y-110377084D01*
X133371823Y-110383689D01*
X133366041Y-110393423D01*
X133358906Y-110405608D01*
X133350820Y-110419568D01*
X133347118Y-110426004D01*
X133311863Y-110485928D01*
X133277207Y-110541834D01*
X133243254Y-110593578D01*
X133210109Y-110641015D01*
X133177874Y-110683999D01*
X133146654Y-110722387D01*
X133116553Y-110756033D01*
X133095082Y-110777770D01*
X133081655Y-110790378D01*
X133069394Y-110800959D01*
X133057268Y-110810208D01*
X133044244Y-110818820D01*
X133029292Y-110827489D01*
X133011379Y-110836909D01*
X132995308Y-110844921D01*
X132927839Y-110875419D01*
X132856836Y-110902372D01*
X132782259Y-110925790D01*
X132704068Y-110945683D01*
X132622221Y-110962059D01*
X132536678Y-110974929D01*
X132447398Y-110984301D01*
X132375605Y-110989165D01*
X132360512Y-110989778D01*
X132341236Y-110990288D01*
X132318748Y-110990691D01*
X132294023Y-110990982D01*
X132268036Y-110991159D01*
X132241758Y-110991218D01*
X132216165Y-110991155D01*
X132192231Y-110990966D01*
X132170928Y-110990647D01*
X132153231Y-110990196D01*
X132148588Y-110990027D01*
X132071025Y-110985829D01*
X131997902Y-110979575D01*
X131928909Y-110971215D01*
X131863733Y-110960697D01*
X131802060Y-110947970D01*
X131743580Y-110932985D01*
X131687979Y-110915690D01*
X131685527Y-110914853D01*
X131643382Y-110899382D01*
X131602175Y-110882288D01*
X131562859Y-110864023D01*
X131526390Y-110845043D01*
X131493723Y-110825801D01*
X131481729Y-110817994D01*
X131460113Y-110801626D01*
X131436951Y-110780632D01*
X131412393Y-110755260D01*
X131386591Y-110725757D01*
X131359696Y-110692370D01*
X131331856Y-110655347D01*
X131303225Y-110614934D01*
X131273952Y-110571379D01*
X131244187Y-110524929D01*
X131214083Y-110475830D01*
X131183788Y-110424331D01*
X131153455Y-110370679D01*
X131123234Y-110315119D01*
X131093275Y-110257901D01*
X131063729Y-110199270D01*
X131043450Y-110157431D01*
X133501866Y-110157431D01*
X133502322Y-110158451D01*
X133502661Y-110158506D01*
X133505481Y-110158063D01*
X133512134Y-110156882D01*
X133521383Y-110155184D01*
X133525233Y-110154465D01*
X133582184Y-110141655D01*
X133637786Y-110124910D01*
X133691418Y-110104492D01*
X133742457Y-110080665D01*
X133790282Y-110053689D01*
X133832764Y-110024947D01*
X133847627Y-110013133D01*
X133864175Y-109998628D01*
X133881438Y-109982400D01*
X133898446Y-109965416D01*
X133914230Y-109948645D01*
X133927820Y-109933054D01*
X133938143Y-109919757D01*
X133959005Y-109887219D01*
X133975587Y-109854606D01*
X133987806Y-109822257D01*
X133995578Y-109790510D01*
X133998820Y-109759704D01*
X133997448Y-109730177D01*
X133991657Y-109703168D01*
X133979917Y-109673380D01*
X133963876Y-109646194D01*
X133943783Y-109621775D01*
X133919886Y-109600292D01*
X133892435Y-109581912D01*
X133861677Y-109566801D01*
X133827861Y-109555126D01*
X133791236Y-109547056D01*
X133753165Y-109542823D01*
X133742063Y-109542306D01*
X133733165Y-109542199D01*
X133727534Y-109542496D01*
X133726092Y-109542996D01*
X133725395Y-109546836D01*
X133723441Y-109554894D01*
X133720433Y-109566440D01*
X133716575Y-109580743D01*
X133712070Y-109597072D01*
X133707123Y-109614698D01*
X133701937Y-109632889D01*
X133696716Y-109650916D01*
X133691664Y-109668048D01*
X133686985Y-109683555D01*
X133685832Y-109687303D01*
X133667735Y-109743381D01*
X133647153Y-109802728D01*
X133624480Y-109864329D01*
X133600107Y-109927171D01*
X133574430Y-109990240D01*
X133547840Y-110052523D01*
X133520733Y-110113006D01*
X133520020Y-110114556D01*
X133512894Y-110130117D01*
X133507747Y-110141600D01*
X133504347Y-110149591D01*
X133502464Y-110154673D01*
X133501866Y-110157431D01*
X131043450Y-110157431D01*
X131034747Y-110139474D01*
X131006480Y-110078760D01*
X130979077Y-110017376D01*
X130952691Y-109955568D01*
X130945927Y-109939244D01*
X130908926Y-109846013D01*
X130875780Y-109755446D01*
X130846511Y-109667627D01*
X130821142Y-109582636D01*
X130799697Y-109500556D01*
X130782198Y-109421468D01*
X130768669Y-109345455D01*
X130759131Y-109272597D01*
X130758971Y-109271080D01*
X130757523Y-109253423D01*
X130756493Y-109232853D01*
X130755873Y-109210376D01*
X130755656Y-109186999D01*
X130755663Y-109186065D01*
X131093249Y-109186065D01*
X131094584Y-109193000D01*
X131100402Y-109206897D01*
X131110378Y-109220390D01*
X131124739Y-109233679D01*
X131143713Y-109246964D01*
X131167527Y-109260446D01*
X131176031Y-109264747D01*
X131207317Y-109279042D01*
X131241351Y-109292329D01*
X131278676Y-109304783D01*
X131319834Y-109316578D01*
X131365366Y-109327890D01*
X131386883Y-109332749D01*
X131440603Y-109343924D01*
X131495799Y-109354138D01*
X131552842Y-109363433D01*
X131612103Y-109371846D01*
X131673956Y-109379418D01*
X131738771Y-109386189D01*
X131806920Y-109392196D01*
X131878776Y-109397481D01*
X131954711Y-109402082D01*
X132035095Y-109406038D01*
X132104733Y-109408835D01*
X132115382Y-109409091D01*
X132130609Y-109409268D01*
X132149831Y-109409370D01*
X132172468Y-109409403D01*
X132197939Y-109409371D01*
X132225660Y-109409279D01*
X132255052Y-109409131D01*
X132285533Y-109408933D01*
X132316522Y-109408690D01*
X132347436Y-109408406D01*
X132377695Y-109408086D01*
X132406717Y-109407735D01*
X132433921Y-109407358D01*
X132458726Y-109406960D01*
X132480549Y-109406545D01*
X132498810Y-109406119D01*
X132512927Y-109405685D01*
X132520069Y-109405379D01*
X132611310Y-109400068D01*
X132697614Y-109393866D01*
X132779129Y-109386755D01*
X132856004Y-109378716D01*
X132928388Y-109369732D01*
X132996428Y-109359784D01*
X133060272Y-109348855D01*
X133120070Y-109336925D01*
X133166291Y-109326359D01*
X133215851Y-109313547D01*
X133260280Y-109300429D01*
X133299598Y-109286993D01*
X133333824Y-109273230D01*
X133362978Y-109259130D01*
X133387080Y-109244683D01*
X133406151Y-109229878D01*
X133420209Y-109214706D01*
X133429274Y-109199156D01*
X133432128Y-109190489D01*
X133433170Y-109175610D01*
X133429154Y-109160814D01*
X133420182Y-109146148D01*
X133406354Y-109131654D01*
X133387772Y-109117379D01*
X133364536Y-109103367D01*
X133336748Y-109089663D01*
X133304510Y-109076312D01*
X133267922Y-109063358D01*
X133227086Y-109050846D01*
X133182103Y-109038822D01*
X133133075Y-109027330D01*
X133080101Y-109016415D01*
X133023284Y-109006121D01*
X133011337Y-109004119D01*
X132917472Y-108990069D01*
X132819013Y-108978195D01*
X132716049Y-108968504D01*
X132608665Y-108961000D01*
X132496949Y-108955690D01*
X132380987Y-108952580D01*
X132260868Y-108951674D01*
X132205343Y-108951988D01*
X132148687Y-108952682D01*
X132096344Y-108953649D01*
X132047471Y-108954930D01*
X132001226Y-108956561D01*
X131956767Y-108958584D01*
X131913252Y-108961035D01*
X131869839Y-108963956D01*
X131825686Y-108967383D01*
X131779951Y-108971357D01*
X131773238Y-108971972D01*
X131703829Y-108978911D01*
X131637510Y-108986639D01*
X131574398Y-108995117D01*
X131514613Y-109004307D01*
X131458272Y-109014169D01*
X131405495Y-109024666D01*
X131356399Y-109035759D01*
X131311104Y-109047410D01*
X131269728Y-109059578D01*
X131232389Y-109072227D01*
X131199206Y-109085317D01*
X131170298Y-109098810D01*
X131145783Y-109112667D01*
X131125779Y-109126850D01*
X131110405Y-109141320D01*
X131099780Y-109156038D01*
X131094021Y-109170966D01*
X131093249Y-109186065D01*
X130755663Y-109186065D01*
X130755833Y-109163730D01*
X130756398Y-109141573D01*
X130757342Y-109121537D01*
X130758658Y-109104629D01*
X130760338Y-109091854D01*
X130760350Y-109091788D01*
X130769851Y-109052262D01*
X130783812Y-109014584D01*
X130802271Y-108978726D01*
X130825266Y-108944660D01*
X130852835Y-108912357D01*
X130885017Y-108881789D01*
X130921850Y-108852927D01*
X130963371Y-108825743D01*
X131009619Y-108800209D01*
X131060632Y-108776297D01*
X131116448Y-108753977D01*
X131177105Y-108733222D01*
X131242642Y-108714004D01*
X131281800Y-108703824D01*
X131334702Y-108691380D01*
X131389424Y-108679955D01*
X131446314Y-108669507D01*
X131505718Y-108659994D01*
X131567983Y-108651371D01*
X131633454Y-108643598D01*
X131702479Y-108636631D01*
X131775404Y-108630427D01*
X131852575Y-108624945D01*
X131934339Y-108620140D01*
X131979616Y-108617855D01*
X131997241Y-108617172D01*
X132019462Y-108616567D01*
X132045717Y-108616042D01*
X132075442Y-108615595D01*
X132108076Y-108615228D01*
X132143056Y-108614940D01*
X132179818Y-108614731D01*
X132217801Y-108614601D01*
X132256442Y-108614551D01*
X132295177Y-108614579D01*
G37*
G36*
X134204019Y-110559786D02*
G01*
X134260152Y-110565689D01*
X134286137Y-110570159D01*
X134307576Y-110574709D01*
X134328756Y-110579935D01*
X134348591Y-110585520D01*
X134365993Y-110591151D01*
X134379876Y-110596510D01*
X134384800Y-110598807D01*
X134403022Y-110610598D01*
X134417385Y-110625159D01*
X134427903Y-110641853D01*
X134434594Y-110660044D01*
X134437472Y-110679095D01*
X134436554Y-110698370D01*
X134431855Y-110717233D01*
X134423391Y-110735047D01*
X134411178Y-110751175D01*
X134395232Y-110764981D01*
X134380461Y-110773610D01*
X134373562Y-110776799D01*
X134362639Y-110781670D01*
X134348423Y-110787905D01*
X134331644Y-110795187D01*
X134313035Y-110803197D01*
X134293326Y-110811618D01*
X134282023Y-110816419D01*
X134261945Y-110825022D01*
X134242510Y-110833523D01*
X134224462Y-110841584D01*
X134208543Y-110848867D01*
X134195498Y-110855035D01*
X134186068Y-110859749D01*
X134182704Y-110861593D01*
X134150433Y-110883303D01*
X134120480Y-110909239D01*
X134093316Y-110938809D01*
X134069410Y-110971423D01*
X134049233Y-111006489D01*
X134033256Y-111043416D01*
X134029605Y-111053991D01*
X134020852Y-111088430D01*
X134016107Y-111125071D01*
X134015339Y-111162906D01*
X134018517Y-111200927D01*
X134025608Y-111238128D01*
X134036443Y-111273132D01*
X134053423Y-111311473D01*
X134074325Y-111347062D01*
X134098836Y-111379538D01*
X134126642Y-111408540D01*
X134157431Y-111433708D01*
X134190890Y-111454683D01*
X134197039Y-111457917D01*
X134234899Y-111474547D01*
X134274250Y-111486634D01*
X134314491Y-111494106D01*
X134355026Y-111496893D01*
X134395256Y-111494925D01*
X134434583Y-111488131D01*
X134440467Y-111486665D01*
X134447210Y-111484569D01*
X134458080Y-111480759D01*
X134472431Y-111475482D01*
X134489616Y-111468982D01*
X134508988Y-111461505D01*
X134529902Y-111453296D01*
X134551710Y-111444600D01*
X134556764Y-111442565D01*
X134653504Y-111403541D01*
X134675432Y-111403391D01*
X134694922Y-111404462D01*
X134711349Y-111408292D01*
X134726276Y-111415364D01*
X134736055Y-111422030D01*
X134751679Y-111436775D01*
X134763632Y-111454200D01*
X134771551Y-111473436D01*
X134775070Y-111493614D01*
X134774054Y-111512585D01*
X134770234Y-111526953D01*
X134763264Y-111544527D01*
X134753449Y-111564679D01*
X134741093Y-111586784D01*
X134726900Y-111609603D01*
X134693465Y-111656243D01*
X134656358Y-111699353D01*
X134615784Y-111738806D01*
X134571951Y-111774475D01*
X134525064Y-111806231D01*
X134475330Y-111833946D01*
X134422956Y-111857494D01*
X134368147Y-111876747D01*
X134311110Y-111891577D01*
X134254936Y-111901467D01*
X134233773Y-111903674D01*
X134208968Y-111905142D01*
X134181986Y-111905871D01*
X134154292Y-111905860D01*
X134127350Y-111905111D01*
X134102625Y-111903624D01*
X134082094Y-111901467D01*
X134021946Y-111890745D01*
X133963843Y-111875300D01*
X133907827Y-111855149D01*
X133853941Y-111830307D01*
X133802229Y-111800792D01*
X133783986Y-111788913D01*
X133757803Y-111771281D01*
X133528475Y-111866121D01*
X133493833Y-111880449D01*
X133459155Y-111894792D01*
X133424923Y-111908952D01*
X133391619Y-111922731D01*
X133359722Y-111935927D01*
X133329716Y-111948343D01*
X133302080Y-111959780D01*
X133277297Y-111970037D01*
X133255848Y-111978917D01*
X133238214Y-111986219D01*
X133225105Y-111991650D01*
X133201628Y-112001489D01*
X133182923Y-112009569D01*
X133169004Y-112015883D01*
X133159885Y-112020425D01*
X133155580Y-112023187D01*
X133155452Y-112024063D01*
X133167469Y-112028851D01*
X133183139Y-112035198D01*
X133202080Y-112042944D01*
X133223913Y-112051929D01*
X133248259Y-112061993D01*
X133274735Y-112072977D01*
X133302964Y-112084721D01*
X133332563Y-112097064D01*
X133363153Y-112109848D01*
X133394355Y-112122912D01*
X133425787Y-112136097D01*
X133457069Y-112149243D01*
X133487822Y-112162189D01*
X133517665Y-112174778D01*
X133546219Y-112186847D01*
X133573102Y-112198239D01*
X133597934Y-112208792D01*
X133620337Y-112218348D01*
X133639928Y-112226746D01*
X133656329Y-112233826D01*
X133669158Y-112239430D01*
X133678037Y-112243397D01*
X133682584Y-112245567D01*
X133682854Y-112245718D01*
X133717504Y-112269156D01*
X133748959Y-112296366D01*
X133776876Y-112326936D01*
X133800913Y-112360454D01*
X133820725Y-112396507D01*
X133833012Y-112426087D01*
X133844815Y-112466156D01*
X133851638Y-112506380D01*
X133853624Y-112546397D01*
X133850917Y-112585848D01*
X133843660Y-112624371D01*
X133831997Y-112661606D01*
X133816072Y-112697192D01*
X133796027Y-112730768D01*
X133772007Y-112761974D01*
X133744154Y-112790449D01*
X133712613Y-112815833D01*
X133677525Y-112837764D01*
X133667082Y-112843239D01*
X133629991Y-112859112D01*
X133591042Y-112870520D01*
X133550941Y-112877389D01*
X133510393Y-112879645D01*
X133470103Y-112877214D01*
X133430775Y-112870024D01*
X133424906Y-112868504D01*
X133420388Y-112866942D01*
X133411308Y-112863480D01*
X133397868Y-112858201D01*
X133380270Y-112851186D01*
X133358714Y-112842519D01*
X133333404Y-112832282D01*
X133304540Y-112820558D01*
X133272325Y-112807428D01*
X133236959Y-112792976D01*
X133198645Y-112777284D01*
X133157584Y-112760433D01*
X133113978Y-112742508D01*
X133068028Y-112723590D01*
X133019936Y-112703761D01*
X132969904Y-112683105D01*
X132918134Y-112661703D01*
X132864827Y-112639639D01*
X132832782Y-112626362D01*
X132598539Y-112529276D01*
X133369073Y-112529276D01*
X133369921Y-112548644D01*
X133372818Y-112564766D01*
X133378299Y-112579325D01*
X133386895Y-112594006D01*
X133391698Y-112600798D01*
X133406994Y-112617451D01*
X133425478Y-112630802D01*
X133446238Y-112640537D01*
X133468365Y-112646346D01*
X133490948Y-112647917D01*
X133513076Y-112644938D01*
X133517311Y-112643786D01*
X133539294Y-112635398D01*
X133557854Y-112624065D01*
X133570187Y-112613285D01*
X133585345Y-112594678D01*
X133596163Y-112573980D01*
X133602641Y-112551890D01*
X133604779Y-112529106D01*
X133602577Y-112506328D01*
X133596035Y-112484253D01*
X133585152Y-112463581D01*
X133570187Y-112445266D01*
X133551675Y-112430106D01*
X133531404Y-112419400D01*
X133509984Y-112413016D01*
X133488021Y-112410824D01*
X133466124Y-112412691D01*
X133444901Y-112418487D01*
X133424960Y-112428080D01*
X133406909Y-112441340D01*
X133391356Y-112458134D01*
X133378909Y-112478333D01*
X133374902Y-112487420D01*
X133372034Y-112495773D01*
X133370259Y-112504235D01*
X133369348Y-112514442D01*
X133369075Y-112528031D01*
X133369073Y-112529276D01*
X132598539Y-112529276D01*
X132263228Y-112390301D01*
X131696412Y-112625321D01*
X131644499Y-112646836D01*
X131593696Y-112667871D01*
X131544219Y-112688338D01*
X131496285Y-112708147D01*
X131450112Y-112727209D01*
X131405915Y-112745436D01*
X131363912Y-112762738D01*
X131324321Y-112779026D01*
X131287357Y-112794211D01*
X131253238Y-112808204D01*
X131222180Y-112820917D01*
X131194402Y-112832259D01*
X131170118Y-112842142D01*
X131149547Y-112850477D01*
X131132906Y-112857175D01*
X131120410Y-112862147D01*
X131112278Y-112865303D01*
X131108958Y-112866493D01*
X131075608Y-112874285D01*
X131039956Y-112878725D01*
X131003731Y-112879680D01*
X130970001Y-112877192D01*
X130929023Y-112869417D01*
X130889976Y-112857023D01*
X130853157Y-112840285D01*
X130818866Y-112819478D01*
X130787399Y-112794877D01*
X130759055Y-112766758D01*
X130734132Y-112735395D01*
X130712927Y-112701064D01*
X130695739Y-112664039D01*
X130682865Y-112624596D01*
X130679066Y-112608560D01*
X130675341Y-112584670D01*
X130673423Y-112557834D01*
X130673312Y-112529938D01*
X130673763Y-112522737D01*
X130922113Y-112522737D01*
X130922379Y-112534465D01*
X130923086Y-112546977D01*
X130924359Y-112556377D01*
X130926679Y-112564712D01*
X130930530Y-112574030D01*
X130932868Y-112579044D01*
X130945596Y-112600238D01*
X130961670Y-112617893D01*
X130980511Y-112631733D01*
X131001543Y-112641487D01*
X131024187Y-112646881D01*
X131047866Y-112647642D01*
X131070172Y-112643989D01*
X131088941Y-112637488D01*
X131105538Y-112627991D01*
X131121382Y-112614625D01*
X131126726Y-112609175D01*
X131139879Y-112593522D01*
X131149004Y-112578173D01*
X131154639Y-112561740D01*
X131157324Y-112542834D01*
X131157743Y-112529276D01*
X131157572Y-112516110D01*
X131156876Y-112506411D01*
X131155387Y-112498492D01*
X131152835Y-112490666D01*
X131150725Y-112485420D01*
X131138867Y-112463350D01*
X131123422Y-112444698D01*
X131104859Y-112429804D01*
X131083648Y-112419007D01*
X131060259Y-112412646D01*
X131047939Y-112411238D01*
X131023081Y-112412069D01*
X130999827Y-112417620D01*
X130978631Y-112427583D01*
X130959948Y-112441649D01*
X130944232Y-112459510D01*
X130931938Y-112480857D01*
X130926973Y-112493452D01*
X130924142Y-112503051D01*
X130922595Y-112512158D01*
X130922113Y-112522737D01*
X130673763Y-112522737D01*
X130675007Y-112502868D01*
X130678509Y-112478513D01*
X130679066Y-112475789D01*
X130689926Y-112436254D01*
X130705203Y-112398347D01*
X130724552Y-112362546D01*
X130747628Y-112329330D01*
X130774087Y-112299181D01*
X130803582Y-112272576D01*
X130835770Y-112249997D01*
X130845673Y-112244206D01*
X130850324Y-112241948D01*
X130859407Y-112237868D01*
X130872582Y-112232109D01*
X130889512Y-112224814D01*
X130909857Y-112216127D01*
X130933279Y-112206190D01*
X130959439Y-112195148D01*
X130987998Y-112183144D01*
X131018618Y-112170321D01*
X131050960Y-112156822D01*
X131084686Y-112142792D01*
X131114333Y-112130494D01*
X131148648Y-112116273D01*
X131181656Y-112102584D01*
X131213041Y-112089559D01*
X131242485Y-112077328D01*
X131269673Y-112066025D01*
X131294286Y-112055781D01*
X131316009Y-112046728D01*
X131334525Y-112038998D01*
X131349517Y-112032722D01*
X131360667Y-112028033D01*
X131367661Y-112025063D01*
X131370153Y-112023960D01*
X131370746Y-112022239D01*
X131367369Y-112019636D01*
X131359625Y-112015890D01*
X131354986Y-112013917D01*
X131328405Y-112002887D01*
X131299596Y-111990939D01*
X131268894Y-111978212D01*
X131236637Y-111964845D01*
X131203159Y-111950977D01*
X131168799Y-111936746D01*
X131133891Y-111922293D01*
X131098772Y-111907757D01*
X131063779Y-111893275D01*
X131029248Y-111878988D01*
X130995514Y-111865034D01*
X130962915Y-111851553D01*
X130931786Y-111838684D01*
X130902464Y-111826565D01*
X130875285Y-111815336D01*
X130850585Y-111805136D01*
X130828701Y-111796104D01*
X130809969Y-111788378D01*
X130794724Y-111782099D01*
X130783304Y-111777406D01*
X130776045Y-111774436D01*
X130773457Y-111773394D01*
X130770070Y-111773119D01*
X130765163Y-111774769D01*
X130757966Y-111778724D01*
X130747713Y-111785362D01*
X130743790Y-111788026D01*
X130694937Y-111818359D01*
X130643215Y-111844541D01*
X130589006Y-111866428D01*
X130532693Y-111883874D01*
X130474660Y-111896734D01*
X130444678Y-111901459D01*
X130421162Y-111903895D01*
X130394143Y-111905410D01*
X130365107Y-111906014D01*
X130335537Y-111905716D01*
X130306917Y-111904528D01*
X130280732Y-111902458D01*
X130262807Y-111900217D01*
X130202725Y-111888644D01*
X130145219Y-111872635D01*
X130090332Y-111852212D01*
X130038109Y-111827395D01*
X129988591Y-111798205D01*
X129941821Y-111764665D01*
X129897843Y-111726795D01*
X129883450Y-111712852D01*
X129863515Y-111691892D01*
X129844048Y-111669396D01*
X129825434Y-111645956D01*
X129808060Y-111622165D01*
X129792311Y-111598613D01*
X129778574Y-111575894D01*
X129767233Y-111554600D01*
X129758675Y-111535323D01*
X129753286Y-111518654D01*
X129751814Y-111510826D01*
X129751648Y-111489339D01*
X129756368Y-111468510D01*
X129765699Y-111449056D01*
X129779367Y-111431696D01*
X129783522Y-111427684D01*
X129798391Y-111416153D01*
X129813944Y-111408593D01*
X129831481Y-111404530D01*
X129850051Y-111403472D01*
X129873269Y-111403533D01*
X129970008Y-111442615D01*
X129991943Y-111451404D01*
X130013144Y-111459761D01*
X130032963Y-111467442D01*
X130050752Y-111474200D01*
X130065862Y-111479791D01*
X130077644Y-111483967D01*
X130085451Y-111486483D01*
X130086605Y-111486798D01*
X130124998Y-111494079D01*
X130164776Y-111496706D01*
X130205177Y-111494721D01*
X130245439Y-111488161D01*
X130284801Y-111477067D01*
X130286511Y-111476472D01*
X130324275Y-111460554D01*
X130359249Y-111440408D01*
X130391233Y-111416270D01*
X130420029Y-111388373D01*
X130445436Y-111356953D01*
X130467255Y-111322242D01*
X130485288Y-111284477D01*
X130499334Y-111243891D01*
X130505658Y-111218774D01*
X130507553Y-111208801D01*
X130508886Y-111198270D01*
X130509730Y-111186072D01*
X130510157Y-111171099D01*
X130510240Y-111152243D01*
X130510228Y-111149121D01*
X130510077Y-111131436D01*
X130509740Y-111117767D01*
X130509109Y-111106972D01*
X130508077Y-111097907D01*
X130506535Y-111089429D01*
X130504376Y-111080397D01*
X130503395Y-111076669D01*
X130489850Y-111035349D01*
X130472095Y-110996683D01*
X130450325Y-110960930D01*
X130424733Y-110928350D01*
X130395514Y-110899202D01*
X130362862Y-110873745D01*
X130341509Y-110860238D01*
X130335258Y-110856972D01*
X130324908Y-110852009D01*
X130311121Y-110845647D01*
X130294555Y-110838183D01*
X130275871Y-110829913D01*
X130255730Y-110821137D01*
X130235720Y-110812548D01*
X130215147Y-110803740D01*
X130195689Y-110795330D01*
X130177951Y-110787585D01*
X130162538Y-110780773D01*
X130150054Y-110775160D01*
X130141104Y-110771013D01*
X130136294Y-110768601D01*
X130136252Y-110768578D01*
X130123525Y-110759112D01*
X130111272Y-110746247D01*
X130100963Y-110731647D01*
X130096855Y-110723918D01*
X130093482Y-110715953D01*
X130091425Y-110708591D01*
X130090377Y-110700073D01*
X130090032Y-110688643D01*
X130090019Y-110684770D01*
X130090226Y-110672236D01*
X130091051Y-110663095D01*
X130092801Y-110655590D01*
X130095783Y-110647965D01*
X130096855Y-110645623D01*
X130106700Y-110628750D01*
X130119432Y-110614627D01*
X130135610Y-110602834D01*
X130155791Y-110592951D01*
X130176387Y-110585775D01*
X130231500Y-110571847D01*
X130287549Y-110562896D01*
X130344146Y-110558910D01*
X130400902Y-110559880D01*
X130457430Y-110565794D01*
X130513341Y-110576643D01*
X130568246Y-110592416D01*
X130580395Y-110596633D01*
X130634991Y-110618885D01*
X130686978Y-110645465D01*
X130736156Y-110676140D01*
X130782324Y-110710677D01*
X130825283Y-110748841D01*
X130864834Y-110790399D01*
X130900775Y-110835117D01*
X130932907Y-110882762D01*
X130961029Y-110933099D01*
X130984943Y-110985896D01*
X131004448Y-111040917D01*
X131019343Y-111097931D01*
X131022474Y-111113245D01*
X131028237Y-111143152D01*
X131117612Y-111180084D01*
X131128643Y-111184644D01*
X131144174Y-111191069D01*
X131163942Y-111199248D01*
X131187680Y-111209073D01*
X131215122Y-111220432D01*
X131246004Y-111233215D01*
X131280060Y-111247314D01*
X131317025Y-111262618D01*
X131356632Y-111279017D01*
X131398617Y-111296401D01*
X131442714Y-111314661D01*
X131488658Y-111333686D01*
X131536183Y-111353366D01*
X131585024Y-111373592D01*
X131634914Y-111394254D01*
X131685590Y-111415241D01*
X131735117Y-111435753D01*
X132263245Y-111654491D01*
X132769587Y-111444779D01*
X132820117Y-111423851D01*
X132870347Y-111403050D01*
X132919989Y-111382492D01*
X132968756Y-111362299D01*
X133016359Y-111342588D01*
X133062511Y-111323480D01*
X133106924Y-111305093D01*
X133149310Y-111287546D01*
X133189381Y-111270958D01*
X133226850Y-111255450D01*
X133261427Y-111241139D01*
X133292826Y-111228146D01*
X133320758Y-111216589D01*
X133344937Y-111206587D01*
X133365072Y-111198260D01*
X133380878Y-111191727D01*
X133387252Y-111189094D01*
X133498574Y-111143121D01*
X133502794Y-111119679D01*
X133515110Y-111065302D01*
X133532253Y-111011417D01*
X133553907Y-110958629D01*
X133579756Y-110907546D01*
X133609486Y-110858773D01*
X133642779Y-110812919D01*
X133679321Y-110770589D01*
X133690450Y-110759090D01*
X133733268Y-110719492D01*
X133778807Y-110684004D01*
X133826758Y-110652723D01*
X133876813Y-110625747D01*
X133928662Y-110603174D01*
X133981997Y-110585103D01*
X134036509Y-110571630D01*
X134091889Y-110562855D01*
X134147829Y-110558874D01*
X134204019Y-110559786D01*
G37*
G36*
X166088788Y-111921959D02*
G01*
X166088788Y-112463832D01*
X165982933Y-112463832D01*
X165877079Y-112463832D01*
X165877079Y-111921959D01*
X165877079Y-111380086D01*
X165982933Y-111380086D01*
X166088788Y-111380086D01*
X166088788Y-111921959D01*
G37*
G36*
X166623100Y-110734878D02*
G01*
X166623100Y-112741070D01*
X166585295Y-112741070D01*
X166547490Y-112741070D01*
X166547490Y-110734878D01*
X166547490Y-108728687D01*
X166585295Y-108728687D01*
X166623100Y-108728687D01*
X166623100Y-110734878D01*
G37*
G36*
X170811907Y-110623983D02*
G01*
X170811907Y-110996994D01*
X171038738Y-110996994D01*
X171265569Y-110996994D01*
X171265569Y-111072604D01*
X171265569Y-111148214D01*
X170948006Y-111148214D01*
X170630443Y-111148214D01*
X170630443Y-110699593D01*
X170630443Y-110250973D01*
X170721175Y-110250973D01*
X170811907Y-110250973D01*
X170811907Y-110623983D01*
G37*
G36*
X166153109Y-109178567D02*
G01*
X166151796Y-109401618D01*
X165472564Y-109402896D01*
X164793332Y-109404174D01*
X164793332Y-109540255D01*
X164793332Y-109676335D01*
X165367970Y-109676335D01*
X165942608Y-109676335D01*
X165942608Y-109900645D01*
X165942608Y-110124956D01*
X165367970Y-110124956D01*
X164793332Y-110124956D01*
X164793332Y-110273656D01*
X164793332Y-110422356D01*
X165499028Y-110422356D01*
X166204723Y-110422356D01*
X166204723Y-110646666D01*
X166204723Y-110870977D01*
X165040326Y-110870977D01*
X163875928Y-110870977D01*
X163875928Y-109913247D01*
X163875928Y-108955517D01*
X165015175Y-108955517D01*
X166154422Y-108955517D01*
X166153109Y-109178567D01*
G37*
G36*
X168992221Y-110427397D02*
G01*
X168992221Y-110603820D01*
X169168645Y-110603820D01*
X169345069Y-110603820D01*
X169345069Y-110427397D01*
X169345069Y-110250973D01*
X169438321Y-110250973D01*
X169531574Y-110250973D01*
X169531574Y-110699593D01*
X169531574Y-111148214D01*
X169438321Y-111148214D01*
X169345069Y-111148214D01*
X169345069Y-110951628D01*
X169345069Y-110755041D01*
X169168645Y-110755041D01*
X168992221Y-110755041D01*
X168992221Y-110951628D01*
X168992221Y-111148214D01*
X168898968Y-111148214D01*
X168805716Y-111148214D01*
X168805716Y-110699593D01*
X168805716Y-110250973D01*
X168898968Y-110250973D01*
X168992221Y-110250973D01*
X168992221Y-110427397D01*
G37*
G36*
X170045724Y-109131941D02*
G01*
X170045724Y-109308365D01*
X170222148Y-109308365D01*
X170398571Y-109308365D01*
X170398571Y-109131941D01*
X170398571Y-108955517D01*
X170491824Y-108955517D01*
X170585077Y-108955517D01*
X170585077Y-109404138D01*
X170585077Y-109852759D01*
X170491824Y-109852759D01*
X170398571Y-109852759D01*
X170398571Y-109656172D01*
X170398571Y-109459586D01*
X170222148Y-109459586D01*
X170045724Y-109459586D01*
X170045724Y-109656172D01*
X170045724Y-109852759D01*
X169952471Y-109852759D01*
X169859218Y-109852759D01*
X169859218Y-109404138D01*
X169859218Y-108955517D01*
X169952471Y-108955517D01*
X170045724Y-108955517D01*
X170045724Y-109131941D01*
G37*
G36*
X172208177Y-111616998D02*
G01*
X172208177Y-111692608D01*
X171966224Y-111692608D01*
X171724271Y-111692608D01*
X171724271Y-111790901D01*
X171724271Y-111889195D01*
X171948581Y-111889195D01*
X172172892Y-111889195D01*
X172172892Y-111964805D01*
X172172892Y-112040415D01*
X171948581Y-112040415D01*
X171724271Y-112040415D01*
X171724271Y-112163912D01*
X171724271Y-112287408D01*
X171976305Y-112287408D01*
X172228339Y-112287408D01*
X172228339Y-112363019D01*
X172228339Y-112438629D01*
X171883053Y-112438629D01*
X171537766Y-112438629D01*
X171537766Y-111990008D01*
X171537766Y-111541387D01*
X171872971Y-111541387D01*
X172208177Y-111541387D01*
X172208177Y-111616998D01*
G37*
G36*
X167687944Y-108951628D02*
G01*
X167784977Y-108952997D01*
X167784977Y-109404138D01*
X167784977Y-109855279D01*
X167687944Y-109856648D01*
X167590911Y-109858017D01*
X167590911Y-109661322D01*
X167590911Y-109464626D01*
X167419587Y-109464626D01*
X167248263Y-109464626D01*
X167246944Y-109659953D01*
X167245624Y-109855279D01*
X167150996Y-109856651D01*
X167116033Y-109856999D01*
X167090044Y-109856851D01*
X167071932Y-109856149D01*
X167060602Y-109854838D01*
X167054954Y-109852859D01*
X167053922Y-109851610D01*
X167053574Y-109845722D01*
X167053269Y-109830483D01*
X167053010Y-109806626D01*
X167052798Y-109774881D01*
X167052635Y-109735979D01*
X167052523Y-109690652D01*
X167052464Y-109639630D01*
X167052460Y-109583645D01*
X167052513Y-109523429D01*
X167052624Y-109459711D01*
X167052778Y-109399097D01*
X167054079Y-108952997D01*
X167149851Y-108952997D01*
X167245624Y-108952997D01*
X167246950Y-109128161D01*
X167248275Y-109303324D01*
X167419593Y-109303324D01*
X167590911Y-109303324D01*
X167590911Y-109126792D01*
X167590911Y-108950259D01*
X167687944Y-108951628D01*
G37*
G36*
X161644116Y-111618005D02*
G01*
X161645426Y-111855924D01*
X161863879Y-111618005D01*
X162082333Y-111380086D01*
X162228686Y-111380086D01*
X162270869Y-111380115D01*
X162303990Y-111380244D01*
X162329068Y-111380539D01*
X162347123Y-111381063D01*
X162359173Y-111381881D01*
X162366239Y-111383056D01*
X162369339Y-111384653D01*
X162369493Y-111386736D01*
X162368121Y-111388870D01*
X162363402Y-111394062D01*
X162352336Y-111405811D01*
X162335584Y-111423429D01*
X162313805Y-111446225D01*
X162287662Y-111473509D01*
X162257814Y-111504592D01*
X162224923Y-111538784D01*
X162189647Y-111575395D01*
X162167137Y-111598729D01*
X162130996Y-111636277D01*
X162097089Y-111671704D01*
X162066041Y-111704340D01*
X162038479Y-111733519D01*
X162015031Y-111758570D01*
X161996323Y-111778826D01*
X161982983Y-111793618D01*
X161975636Y-111802278D01*
X161974371Y-111804295D01*
X161977192Y-111808953D01*
X161985014Y-111821324D01*
X161997356Y-111840663D01*
X162013736Y-111866222D01*
X162033671Y-111897257D01*
X162056681Y-111933019D01*
X162082283Y-111972764D01*
X162109996Y-112015744D01*
X162139337Y-112061214D01*
X162169826Y-112108427D01*
X162200981Y-112156636D01*
X162232319Y-112205096D01*
X162263359Y-112253060D01*
X162293620Y-112299781D01*
X162322618Y-112344514D01*
X162349874Y-112386512D01*
X162374904Y-112425029D01*
X162392779Y-112452491D01*
X162400168Y-112463832D01*
X162257189Y-112463615D01*
X162114209Y-112463398D01*
X161966652Y-112210121D01*
X161819095Y-111956844D01*
X161731000Y-112045433D01*
X161642906Y-112134023D01*
X161642906Y-112298927D01*
X161642906Y-112463832D01*
X161532011Y-112463832D01*
X161421116Y-112463832D01*
X161421116Y-111921959D01*
X161421116Y-111380086D01*
X161531961Y-111380086D01*
X161642807Y-111380086D01*
X161644116Y-111618005D01*
G37*
G36*
X170097391Y-111542635D02*
G01*
X170156079Y-111543177D01*
X170205676Y-111543755D01*
X170247173Y-111544476D01*
X170281560Y-111545445D01*
X170309828Y-111546769D01*
X170332967Y-111548552D01*
X170351968Y-111550901D01*
X170367821Y-111553922D01*
X170381516Y-111557721D01*
X170394044Y-111562403D01*
X170406395Y-111568075D01*
X170419561Y-111574842D01*
X170424836Y-111577645D01*
X170458572Y-111600811D01*
X170489100Y-111631747D01*
X170514838Y-111668275D01*
X170534204Y-111708216D01*
X170544222Y-111742003D01*
X170547704Y-111767013D01*
X170549429Y-111797764D01*
X170549442Y-111830801D01*
X170547791Y-111862669D01*
X170544522Y-111889913D01*
X170542074Y-111901587D01*
X170524957Y-111947921D01*
X170499467Y-111989822D01*
X170466729Y-112026229D01*
X170427868Y-112056084D01*
X170384010Y-112078329D01*
X170340604Y-112091085D01*
X170327251Y-112092825D01*
X170305567Y-112094567D01*
X170277301Y-112096219D01*
X170244204Y-112097690D01*
X170208025Y-112098888D01*
X170178042Y-112099588D01*
X170045724Y-112102085D01*
X170045724Y-112270357D01*
X170045724Y-112438629D01*
X169952471Y-112438629D01*
X169859218Y-112438629D01*
X169859218Y-111989584D01*
X169859218Y-111821867D01*
X170045724Y-111821867D01*
X170045724Y-111951126D01*
X170147798Y-111948294D01*
X170191438Y-111946738D01*
X170225800Y-111944721D01*
X170251681Y-111942177D01*
X170269877Y-111939038D01*
X170275075Y-111937635D01*
X170305805Y-111923513D01*
X170330034Y-111903236D01*
X170347618Y-111878329D01*
X170358412Y-111850319D01*
X170362269Y-111820731D01*
X170359046Y-111791092D01*
X170348595Y-111762929D01*
X170330773Y-111737766D01*
X170305433Y-111717129D01*
X170296543Y-111712151D01*
X170274754Y-111704488D01*
X170243148Y-111698729D01*
X170201702Y-111694872D01*
X170150392Y-111692914D01*
X170120074Y-111692646D01*
X170045724Y-111692608D01*
X170045724Y-111821867D01*
X169859218Y-111821867D01*
X169859218Y-111692608D01*
X169859218Y-111540539D01*
X170097391Y-111542635D01*
G37*
G36*
X170934144Y-111542635D02*
G01*
X170992832Y-111543177D01*
X171042429Y-111543755D01*
X171083926Y-111544476D01*
X171118313Y-111545445D01*
X171146581Y-111546769D01*
X171169720Y-111548552D01*
X171188721Y-111550901D01*
X171204574Y-111553922D01*
X171218269Y-111557721D01*
X171230797Y-111562403D01*
X171243149Y-111568075D01*
X171256314Y-111574842D01*
X171261590Y-111577645D01*
X171295325Y-111600811D01*
X171325853Y-111631747D01*
X171351592Y-111668275D01*
X171370957Y-111708216D01*
X171380975Y-111742003D01*
X171384457Y-111767013D01*
X171386182Y-111797764D01*
X171386196Y-111830801D01*
X171384544Y-111862669D01*
X171381275Y-111889913D01*
X171378827Y-111901587D01*
X171361711Y-111947921D01*
X171336221Y-111989822D01*
X171303482Y-112026229D01*
X171264621Y-112056084D01*
X171220763Y-112078329D01*
X171177357Y-112091085D01*
X171164004Y-112092825D01*
X171142320Y-112094567D01*
X171114054Y-112096219D01*
X171080957Y-112097690D01*
X171044778Y-112098888D01*
X171014795Y-112099588D01*
X170882477Y-112102085D01*
X170882477Y-112270357D01*
X170882477Y-112438629D01*
X170789224Y-112438629D01*
X170695972Y-112438629D01*
X170695972Y-111989584D01*
X170695972Y-111821867D01*
X170882477Y-111821867D01*
X170882477Y-111951126D01*
X170984551Y-111948294D01*
X171028191Y-111946738D01*
X171062553Y-111944721D01*
X171088435Y-111942177D01*
X171106631Y-111939038D01*
X171111828Y-111937635D01*
X171142558Y-111923513D01*
X171166788Y-111903236D01*
X171184372Y-111878329D01*
X171195165Y-111850319D01*
X171199023Y-111820731D01*
X171195799Y-111791092D01*
X171185348Y-111762929D01*
X171167526Y-111737766D01*
X171142187Y-111717129D01*
X171133296Y-111712151D01*
X171111507Y-111704488D01*
X171079901Y-111698729D01*
X171038456Y-111694872D01*
X170987145Y-111692914D01*
X170956827Y-111692646D01*
X170882477Y-111692608D01*
X170882477Y-111821867D01*
X170695972Y-111821867D01*
X170695972Y-111692608D01*
X170695972Y-111540539D01*
X170934144Y-111542635D01*
G37*
G36*
X169129543Y-111855170D02*
G01*
X169129998Y-111922884D01*
X169130439Y-111981301D01*
X169130956Y-112031205D01*
X169131638Y-112073378D01*
X169132574Y-112108605D01*
X169133855Y-112137669D01*
X169135569Y-112161354D01*
X169137807Y-112180443D01*
X169140657Y-112195720D01*
X169144211Y-112207969D01*
X169148556Y-112217973D01*
X169153783Y-112226515D01*
X169159981Y-112234380D01*
X169167240Y-112242350D01*
X169174702Y-112250207D01*
X169195769Y-112269846D01*
X169217406Y-112283765D01*
X169241863Y-112292766D01*
X169271387Y-112297650D01*
X169308225Y-112299217D01*
X169312304Y-112299222D01*
X169355109Y-112296929D01*
X169389958Y-112289854D01*
X169418030Y-112277478D01*
X169440506Y-112259282D01*
X169458444Y-112234953D01*
X169462870Y-112226734D01*
X169466683Y-112217803D01*
X169469929Y-112207382D01*
X169472654Y-112194697D01*
X169474901Y-112178971D01*
X169476716Y-112159429D01*
X169478145Y-112135295D01*
X169479233Y-112105793D01*
X169480024Y-112070147D01*
X169480564Y-112027582D01*
X169480898Y-111977322D01*
X169481071Y-111918590D01*
X169481128Y-111850612D01*
X169481129Y-111845089D01*
X169481167Y-111541387D01*
X169574420Y-111541387D01*
X169667672Y-111541387D01*
X169667628Y-111809804D01*
X169667478Y-111888008D01*
X169667036Y-111956800D01*
X169666275Y-112016847D01*
X169665167Y-112068815D01*
X169663686Y-112113371D01*
X169661804Y-112151180D01*
X169659494Y-112182910D01*
X169656728Y-112209225D01*
X169653479Y-112230794D01*
X169649719Y-112248282D01*
X169649616Y-112248682D01*
X169632177Y-112297370D01*
X169606770Y-112339948D01*
X169573584Y-112376231D01*
X169532811Y-112406031D01*
X169484640Y-112429163D01*
X169455928Y-112438727D01*
X169439082Y-112443051D01*
X169421544Y-112446233D01*
X169401153Y-112448491D01*
X169375747Y-112450043D01*
X169343165Y-112451105D01*
X169329947Y-112451396D01*
X169298549Y-112451719D01*
X169268273Y-112451473D01*
X169241557Y-112450720D01*
X169220837Y-112449517D01*
X169211491Y-112448485D01*
X169153966Y-112435339D01*
X169102902Y-112414886D01*
X169058628Y-112387414D01*
X169021472Y-112353211D01*
X168991761Y-112312564D01*
X168969823Y-112265760D01*
X168958697Y-112226920D01*
X168956985Y-112217881D01*
X168955499Y-112207045D01*
X168954215Y-112193621D01*
X168953112Y-112176819D01*
X168952166Y-112155846D01*
X168951355Y-112129913D01*
X168950655Y-112098227D01*
X168950045Y-112059997D01*
X168949501Y-112014434D01*
X168949000Y-111960744D01*
X168948521Y-111898138D01*
X168948295Y-111865251D01*
X168946135Y-111541387D01*
X169036775Y-111541387D01*
X169127416Y-111541387D01*
X169129543Y-111855170D01*
G37*
G36*
X169900767Y-110564755D02*
G01*
X169901223Y-110632470D01*
X169901664Y-110690887D01*
X169902181Y-110740790D01*
X169902862Y-110782964D01*
X169903799Y-110818191D01*
X169905079Y-110847255D01*
X169906794Y-110870940D01*
X169909031Y-110890029D01*
X169911882Y-110905306D01*
X169915435Y-110917554D01*
X169919780Y-110927558D01*
X169925007Y-110936100D01*
X169931205Y-110943965D01*
X169938464Y-110951935D01*
X169945927Y-110959792D01*
X169966993Y-110979431D01*
X169988631Y-110993350D01*
X170013088Y-111002352D01*
X170042611Y-111007235D01*
X170079449Y-111008802D01*
X170083529Y-111008808D01*
X170126334Y-111006515D01*
X170161182Y-110999439D01*
X170189255Y-110987063D01*
X170211730Y-110968868D01*
X170229669Y-110944538D01*
X170234094Y-110936320D01*
X170237908Y-110927388D01*
X170241154Y-110916968D01*
X170243878Y-110904282D01*
X170246125Y-110888557D01*
X170247941Y-110869015D01*
X170249370Y-110844880D01*
X170250457Y-110815378D01*
X170251249Y-110779733D01*
X170251788Y-110737167D01*
X170252122Y-110686907D01*
X170252295Y-110628175D01*
X170252353Y-110560197D01*
X170252354Y-110554674D01*
X170252392Y-110250973D01*
X170345644Y-110250973D01*
X170438897Y-110250973D01*
X170438853Y-110519389D01*
X170438702Y-110597593D01*
X170438260Y-110666385D01*
X170437499Y-110726432D01*
X170436392Y-110778400D01*
X170434911Y-110822956D01*
X170433029Y-110860765D01*
X170430718Y-110892495D01*
X170427952Y-110918811D01*
X170424703Y-110940379D01*
X170420943Y-110957867D01*
X170420840Y-110958267D01*
X170403401Y-111006955D01*
X170377994Y-111049533D01*
X170344809Y-111085816D01*
X170304036Y-111115617D01*
X170255865Y-111138748D01*
X170227152Y-111148312D01*
X170210306Y-111152636D01*
X170192768Y-111155818D01*
X170172377Y-111158076D01*
X170146971Y-111159628D01*
X170114390Y-111160690D01*
X170101171Y-111160981D01*
X170069773Y-111161304D01*
X170039498Y-111161059D01*
X170012781Y-111160305D01*
X169992062Y-111159102D01*
X169982715Y-111158071D01*
X169925190Y-111144924D01*
X169874127Y-111124471D01*
X169829853Y-111096999D01*
X169792696Y-111062796D01*
X169762985Y-111022149D01*
X169741048Y-110975346D01*
X169729922Y-110936506D01*
X169728210Y-110927466D01*
X169726723Y-110916630D01*
X169725440Y-110903207D01*
X169724336Y-110886404D01*
X169723390Y-110865431D01*
X169722579Y-110839498D01*
X169721880Y-110807812D01*
X169721269Y-110769583D01*
X169720725Y-110724019D01*
X169720225Y-110670330D01*
X169719745Y-110607724D01*
X169719519Y-110574837D01*
X169717359Y-110250973D01*
X169808000Y-110250973D01*
X169898640Y-110250973D01*
X169900767Y-110564755D01*
G37*
G36*
X165391196Y-111660548D02*
G01*
X165434919Y-111667450D01*
X165461223Y-111674379D01*
X165515813Y-111696583D01*
X165563576Y-111726027D01*
X165604547Y-111762770D01*
X165638765Y-111806869D01*
X165666266Y-111858383D01*
X165687088Y-111917370D01*
X165701267Y-111983887D01*
X165708840Y-112057993D01*
X165709043Y-112061838D01*
X165712294Y-112126107D01*
X165451269Y-112126107D01*
X165190244Y-112126107D01*
X165193744Y-112157039D01*
X165202561Y-112200267D01*
X165218855Y-112237519D01*
X165242208Y-112269085D01*
X165270329Y-112293677D01*
X165301521Y-112310440D01*
X165334359Y-112319560D01*
X165367417Y-112321226D01*
X165399271Y-112315623D01*
X165428494Y-112302941D01*
X165453663Y-112283366D01*
X165473352Y-112257086D01*
X165482174Y-112237529D01*
X165488105Y-112223279D01*
X165493647Y-112213977D01*
X165496431Y-112211892D01*
X165503938Y-112212789D01*
X165519090Y-112215151D01*
X165540058Y-112218648D01*
X165565015Y-112222954D01*
X165592130Y-112227740D01*
X165619577Y-112232679D01*
X165645527Y-112237443D01*
X165668150Y-112241703D01*
X165685619Y-112245133D01*
X165696106Y-112247404D01*
X165698297Y-112248085D01*
X165697666Y-112253896D01*
X165692750Y-112266303D01*
X165684590Y-112283340D01*
X165674227Y-112303044D01*
X165662701Y-112323450D01*
X165651054Y-112342594D01*
X165640327Y-112358511D01*
X165638421Y-112361084D01*
X165604821Y-112397610D01*
X165563796Y-112428941D01*
X165517117Y-112454010D01*
X165466556Y-112471746D01*
X165447573Y-112476165D01*
X165415259Y-112480699D01*
X165376924Y-112482996D01*
X165336376Y-112483050D01*
X165297427Y-112480851D01*
X165264636Y-112476534D01*
X165206538Y-112461098D01*
X165154415Y-112437592D01*
X165108502Y-112406233D01*
X165069035Y-112367237D01*
X165036248Y-112320822D01*
X165010376Y-112267204D01*
X164997805Y-112230075D01*
X164984140Y-112168566D01*
X164977511Y-112104305D01*
X164977781Y-112039334D01*
X164982118Y-112000090D01*
X165195207Y-112000090D01*
X165350111Y-112000090D01*
X165505015Y-112000090D01*
X165501493Y-111973626D01*
X165495542Y-111943736D01*
X165486248Y-111914302D01*
X165474931Y-111889125D01*
X165468540Y-111878771D01*
X165445681Y-111854791D01*
X165416324Y-111836225D01*
X165383099Y-111824203D01*
X165348634Y-111819856D01*
X165333520Y-111820693D01*
X165295367Y-111829851D01*
X165262366Y-111847256D01*
X165235279Y-111872084D01*
X165214868Y-111903507D01*
X165201898Y-111940697D01*
X165197792Y-111967884D01*
X165195207Y-112000090D01*
X164982118Y-112000090D01*
X164984814Y-111975694D01*
X164998472Y-111915428D01*
X165018618Y-111860577D01*
X165023229Y-111850814D01*
X165053286Y-111800652D01*
X165090693Y-111756748D01*
X165134489Y-111719860D01*
X165183714Y-111690744D01*
X165237409Y-111670159D01*
X165259191Y-111664642D01*
X165299421Y-111658956D01*
X165344726Y-111657654D01*
X165391196Y-111660548D01*
G37*
G36*
X168295347Y-111542827D02*
G01*
X168355350Y-111543365D01*
X168406166Y-111543923D01*
X168448691Y-111544535D01*
X168483818Y-111545231D01*
X168512443Y-111546044D01*
X168535461Y-111547006D01*
X168553766Y-111548147D01*
X168568253Y-111549500D01*
X168579817Y-111551097D01*
X168589352Y-111552970D01*
X168590901Y-111553333D01*
X168638323Y-111569464D01*
X168679367Y-111593298D01*
X168713626Y-111624416D01*
X168740693Y-111662400D01*
X168760160Y-111706829D01*
X168767841Y-111735542D01*
X168774443Y-111788040D01*
X168771789Y-111837641D01*
X168760316Y-111883623D01*
X168740463Y-111925258D01*
X168712666Y-111961822D01*
X168677363Y-111992591D01*
X168634993Y-112016839D01*
X168588119Y-112033298D01*
X168570479Y-112037911D01*
X168556188Y-112041716D01*
X168549004Y-112043701D01*
X168547811Y-112047375D01*
X168555563Y-112054764D01*
X168561606Y-112059019D01*
X168607130Y-112094228D01*
X168648091Y-112136540D01*
X168669534Y-112163740D01*
X168679988Y-112178496D01*
X168694425Y-112199682D01*
X168711862Y-112225780D01*
X168731316Y-112255273D01*
X168751804Y-112286643D01*
X168772343Y-112318375D01*
X168791949Y-112348950D01*
X168809641Y-112376851D01*
X168824434Y-112400563D01*
X168835346Y-112418566D01*
X168840435Y-112427491D01*
X168846396Y-112438629D01*
X168736584Y-112438472D01*
X168626772Y-112438316D01*
X168551459Y-112325075D01*
X168516830Y-112273293D01*
X168486969Y-112229370D01*
X168461298Y-112192618D01*
X168439237Y-112162350D01*
X168420208Y-112137877D01*
X168403634Y-112118511D01*
X168388935Y-112103565D01*
X168375533Y-112092351D01*
X168362850Y-112084180D01*
X168350308Y-112078364D01*
X168341561Y-112075403D01*
X168329110Y-112072900D01*
X168309737Y-112070362D01*
X168286594Y-112068164D01*
X168272664Y-112067191D01*
X168220997Y-112064099D01*
X168220997Y-112251364D01*
X168220997Y-112438629D01*
X168127744Y-112438629D01*
X168034491Y-112438629D01*
X168034491Y-111989647D01*
X168034491Y-111808072D01*
X168220997Y-111808072D01*
X168220997Y-111924479D01*
X168320550Y-111924392D01*
X168355193Y-111924095D01*
X168390060Y-111923326D01*
X168422496Y-111922175D01*
X168449848Y-111920735D01*
X168467637Y-111919299D01*
X168501421Y-111914264D01*
X168527067Y-111906604D01*
X168546383Y-111895332D01*
X168561178Y-111879464D01*
X168570837Y-111863075D01*
X168581061Y-111833343D01*
X168583920Y-111802018D01*
X168579726Y-111771546D01*
X168568795Y-111744373D01*
X168553018Y-111724353D01*
X168543774Y-111716381D01*
X168534444Y-111710013D01*
X168523782Y-111705051D01*
X168510544Y-111701293D01*
X168493483Y-111698541D01*
X168471354Y-111696596D01*
X168442910Y-111695258D01*
X168406908Y-111694327D01*
X168362100Y-111693604D01*
X168360875Y-111693587D01*
X168220997Y-111691666D01*
X168220997Y-111808072D01*
X168034491Y-111808072D01*
X168034491Y-111691666D01*
X168034491Y-111540665D01*
X168295347Y-111542827D01*
G37*
G36*
X168406665Y-108941592D02*
G01*
X168465628Y-108948490D01*
X168521478Y-108961618D01*
X168548528Y-108970899D01*
X168604297Y-108997575D01*
X168653979Y-109031954D01*
X168697290Y-109073495D01*
X168733945Y-109121659D01*
X168763663Y-109175905D01*
X168786158Y-109235692D01*
X168801147Y-109300481D01*
X168808347Y-109369732D01*
X168807474Y-109442903D01*
X168806005Y-109461274D01*
X168796631Y-109528996D01*
X168781548Y-109589201D01*
X168760258Y-109643004D01*
X168732260Y-109691519D01*
X168697057Y-109735862D01*
X168671401Y-109761740D01*
X168628212Y-109795869D01*
X168578198Y-109824591D01*
X168523729Y-109846631D01*
X168500754Y-109853416D01*
X168472418Y-109859000D01*
X168437117Y-109863108D01*
X168397874Y-109865641D01*
X168357709Y-109866503D01*
X168319646Y-109865598D01*
X168286706Y-109862827D01*
X168273125Y-109860717D01*
X168208312Y-109843805D01*
X168149613Y-109818922D01*
X168097269Y-109786293D01*
X168051521Y-109746139D01*
X168012609Y-109698686D01*
X167980775Y-109644155D01*
X167956259Y-109582771D01*
X167949745Y-109560792D01*
X167945282Y-109543749D01*
X167941954Y-109528660D01*
X167939593Y-109513582D01*
X167938032Y-109496574D01*
X167937104Y-109475694D01*
X167936643Y-109449001D01*
X167936479Y-109414552D01*
X167936468Y-109406658D01*
X167936477Y-109401618D01*
X168123888Y-109401618D01*
X168124988Y-109447805D01*
X168128618Y-109486623D01*
X168135275Y-109520576D01*
X168145454Y-109552167D01*
X168159652Y-109583903D01*
X168160200Y-109584991D01*
X168185113Y-109623578D01*
X168217073Y-109655885D01*
X168254790Y-109681307D01*
X168296977Y-109699237D01*
X168342346Y-109709067D01*
X168389607Y-109710192D01*
X168418134Y-109706475D01*
X168460294Y-109693820D01*
X168500116Y-109673012D01*
X168535571Y-109645512D01*
X168564631Y-109612787D01*
X168578378Y-109590831D01*
X168592451Y-109561252D01*
X168602771Y-109531423D01*
X168609779Y-109499114D01*
X168613916Y-109462094D01*
X168615622Y-109418134D01*
X168615727Y-109401618D01*
X168614759Y-109355243D01*
X168611576Y-109316538D01*
X168605757Y-109283253D01*
X168596879Y-109253137D01*
X168584522Y-109223939D01*
X168581225Y-109217277D01*
X168563677Y-109190133D01*
X168539732Y-109163239D01*
X168512626Y-109139827D01*
X168488367Y-109124489D01*
X168446719Y-109108446D01*
X168401474Y-109099889D01*
X168354890Y-109098738D01*
X168309227Y-109104914D01*
X168266745Y-109118337D01*
X168238104Y-109133257D01*
X168215028Y-109151224D01*
X168191568Y-109175108D01*
X168170880Y-109201388D01*
X168158082Y-109222487D01*
X168144276Y-109253643D01*
X168134399Y-109285830D01*
X168128008Y-109321355D01*
X168124665Y-109362527D01*
X168123888Y-109401618D01*
X167936477Y-109401618D01*
X167936531Y-109369858D01*
X167936915Y-109341204D01*
X167937767Y-109318761D01*
X167939236Y-109300596D01*
X167941469Y-109284775D01*
X167944615Y-109269364D01*
X167948041Y-109255438D01*
X167968372Y-109194407D01*
X167996440Y-109137732D01*
X168031456Y-109086519D01*
X168072631Y-109041877D01*
X168119175Y-109004916D01*
X168132511Y-108996426D01*
X168178171Y-108973943D01*
X168230342Y-108957100D01*
X168287097Y-108946015D01*
X168346514Y-108940806D01*
X168406665Y-108941592D01*
G37*
G36*
X167496586Y-111522739D02*
G01*
X167497659Y-111522777D01*
X167549055Y-111525897D01*
X167593067Y-111531652D01*
X167632168Y-111540572D01*
X167668834Y-111553185D01*
X167695808Y-111565186D01*
X167728050Y-111584400D01*
X167760335Y-111610025D01*
X167790178Y-111639626D01*
X167815093Y-111670768D01*
X167831034Y-111697649D01*
X167840293Y-111718325D01*
X167848837Y-111739851D01*
X167855935Y-111760052D01*
X167860857Y-111776756D01*
X167862873Y-111787787D01*
X167862326Y-111790843D01*
X167856901Y-111792534D01*
X167843500Y-111795748D01*
X167824041Y-111800089D01*
X167800444Y-111805161D01*
X167774629Y-111810566D01*
X167748515Y-111815907D01*
X167724022Y-111820788D01*
X167703070Y-111824812D01*
X167687577Y-111827582D01*
X167679464Y-111828700D01*
X167679197Y-111828706D01*
X167674350Y-111824410D01*
X167667631Y-111813258D01*
X167661812Y-111800706D01*
X167642290Y-111766320D01*
X167615121Y-111737414D01*
X167581495Y-111714621D01*
X167542604Y-111698572D01*
X167499639Y-111689900D01*
X167453793Y-111689238D01*
X167452050Y-111689376D01*
X167400760Y-111697947D01*
X167355397Y-111714501D01*
X167316179Y-111738708D01*
X167283329Y-111770239D01*
X167257065Y-111808763D01*
X167237609Y-111853952D01*
X167225182Y-111905477D01*
X167220002Y-111963007D01*
X167222292Y-112026214D01*
X167222839Y-112031847D01*
X167230622Y-112085014D01*
X167242639Y-112130231D01*
X167259477Y-112168946D01*
X167281725Y-112202608D01*
X167300700Y-112223809D01*
X167336976Y-112253230D01*
X167378010Y-112274278D01*
X167422914Y-112286931D01*
X167470798Y-112291167D01*
X167520775Y-112286965D01*
X167571954Y-112274302D01*
X167623447Y-112253156D01*
X167660212Y-112232670D01*
X167681625Y-112219359D01*
X167681634Y-112167795D01*
X167681644Y-112116230D01*
X167577049Y-112114867D01*
X167472455Y-112113505D01*
X167472455Y-112035374D01*
X167472455Y-111957244D01*
X167674082Y-111957244D01*
X167875710Y-111957244D01*
X167877036Y-112132616D01*
X167877273Y-112184353D01*
X167877155Y-112228330D01*
X167876689Y-112264086D01*
X167875885Y-112291162D01*
X167874754Y-112309098D01*
X167873303Y-112317433D01*
X167873246Y-112317548D01*
X167863597Y-112328786D01*
X167846076Y-112342585D01*
X167822293Y-112358077D01*
X167793855Y-112374400D01*
X167762374Y-112390689D01*
X167729458Y-112406078D01*
X167696717Y-112419702D01*
X167665761Y-112430698D01*
X167658466Y-112432942D01*
X167605766Y-112445622D01*
X167548826Y-112454153D01*
X167491057Y-112458264D01*
X167435870Y-112457682D01*
X167396845Y-112453801D01*
X167338775Y-112441283D01*
X167282599Y-112421649D01*
X167230034Y-112395811D01*
X167182796Y-112364678D01*
X167142604Y-112329160D01*
X167125727Y-112310092D01*
X167104183Y-112279379D01*
X167082928Y-112241804D01*
X167063476Y-112200511D01*
X167047342Y-112158643D01*
X167038297Y-112128627D01*
X167029768Y-112086043D01*
X167024173Y-112037691D01*
X167021726Y-111987511D01*
X167022640Y-111939441D01*
X167026154Y-111903607D01*
X167040634Y-111835196D01*
X167063029Y-111772302D01*
X167092925Y-111715369D01*
X167129910Y-111664842D01*
X167173571Y-111621165D01*
X167223494Y-111584782D01*
X167279267Y-111556137D01*
X167340476Y-111535675D01*
X167375130Y-111528274D01*
X167401025Y-111524546D01*
X167427914Y-111522471D01*
X167458775Y-111521913D01*
X167496586Y-111522739D01*
G37*
G36*
X168316107Y-110237290D02*
G01*
X168369544Y-110242311D01*
X168416831Y-110252433D01*
X168460911Y-110268404D01*
X168485521Y-110280301D01*
X168515178Y-110298849D01*
X168545379Y-110322891D01*
X168573348Y-110349853D01*
X168596306Y-110377163D01*
X168606120Y-110391959D01*
X168616667Y-110411412D01*
X168626986Y-110432929D01*
X168636166Y-110454277D01*
X168643298Y-110473223D01*
X168647474Y-110487533D01*
X168647927Y-110494676D01*
X168642509Y-110497782D01*
X168628960Y-110502637D01*
X168608969Y-110508719D01*
X168584226Y-110515501D01*
X168565662Y-110520218D01*
X168538078Y-110527021D01*
X168513486Y-110533098D01*
X168493752Y-110537988D01*
X168480745Y-110541228D01*
X168476811Y-110542222D01*
X168469361Y-110541179D01*
X168467986Y-110537619D01*
X168465140Y-110525598D01*
X168457641Y-110508382D01*
X168447035Y-110488730D01*
X168434865Y-110469399D01*
X168422676Y-110453147D01*
X168417492Y-110447468D01*
X168385568Y-110422359D01*
X168348918Y-110405062D01*
X168309147Y-110395545D01*
X168267859Y-110393771D01*
X168226658Y-110399708D01*
X168187147Y-110413322D01*
X168150932Y-110434577D01*
X168128782Y-110453602D01*
X168105457Y-110481365D01*
X168087164Y-110513470D01*
X168073598Y-110550965D01*
X168064454Y-110594899D01*
X168059429Y-110646321D01*
X168058169Y-110697073D01*
X168059985Y-110756340D01*
X168065460Y-110807150D01*
X168074895Y-110850550D01*
X168088593Y-110887590D01*
X168106854Y-110919319D01*
X168129981Y-110946783D01*
X168130049Y-110946852D01*
X168163088Y-110973302D01*
X168200502Y-110991971D01*
X168240639Y-111002738D01*
X168281847Y-111005480D01*
X168322474Y-111000076D01*
X168360869Y-110986403D01*
X168393019Y-110966244D01*
X168415311Y-110943953D01*
X168436170Y-110914506D01*
X168453769Y-110880821D01*
X168464433Y-110852254D01*
X168470034Y-110834818D01*
X168474770Y-110821903D01*
X168477764Y-110815862D01*
X168478071Y-110815685D01*
X168483464Y-110817144D01*
X168496885Y-110821156D01*
X168516751Y-110827237D01*
X168541476Y-110834903D01*
X168566283Y-110842664D01*
X168598178Y-110852579D01*
X168621534Y-110860266D01*
X168637262Y-110867008D01*
X168646275Y-110874088D01*
X168649484Y-110882789D01*
X168647800Y-110894392D01*
X168642136Y-110910181D01*
X168633404Y-110931437D01*
X168631944Y-110935032D01*
X168604394Y-110991333D01*
X168570385Y-111039989D01*
X168530054Y-111080875D01*
X168483535Y-111113864D01*
X168430964Y-111138830D01*
X168402379Y-111148286D01*
X168374752Y-111154197D01*
X168340381Y-111158509D01*
X168302396Y-111161107D01*
X168263930Y-111161876D01*
X168228112Y-111160701D01*
X168198072Y-111157465D01*
X168190752Y-111156095D01*
X168128712Y-111138320D01*
X168072809Y-111112584D01*
X168022833Y-111078758D01*
X167978575Y-111036715D01*
X167960736Y-111015423D01*
X167929905Y-110970822D01*
X167905754Y-110923820D01*
X167887945Y-110873172D01*
X167876143Y-110817632D01*
X167870011Y-110755957D01*
X167869213Y-110686902D01*
X167869470Y-110677740D01*
X167870975Y-110641449D01*
X167873092Y-110612482D01*
X167876142Y-110588082D01*
X167880449Y-110565497D01*
X167884639Y-110548315D01*
X167903226Y-110489648D01*
X167926610Y-110438573D01*
X167955788Y-110393348D01*
X167991756Y-110352227D01*
X168002709Y-110341651D01*
X168049627Y-110303740D01*
X168100237Y-110274483D01*
X168155157Y-110253673D01*
X168215003Y-110241104D01*
X168280394Y-110236572D01*
X168316107Y-110237290D01*
G37*
G36*
X169364569Y-108941834D02*
G01*
X169418006Y-108946856D01*
X169465293Y-108956978D01*
X169509373Y-108972949D01*
X169533983Y-108984845D01*
X169563640Y-109003394D01*
X169593841Y-109027435D01*
X169621810Y-109054397D01*
X169644768Y-109081708D01*
X169654582Y-109096504D01*
X169665129Y-109115956D01*
X169675448Y-109137473D01*
X169684628Y-109158821D01*
X169691760Y-109177767D01*
X169695936Y-109192078D01*
X169696389Y-109199221D01*
X169690971Y-109202326D01*
X169677422Y-109207182D01*
X169657431Y-109213263D01*
X169632688Y-109220046D01*
X169614124Y-109224763D01*
X169586540Y-109231565D01*
X169561948Y-109237643D01*
X169542214Y-109242533D01*
X169529207Y-109245772D01*
X169525273Y-109246766D01*
X169517823Y-109245724D01*
X169516448Y-109242164D01*
X169513602Y-109230142D01*
X169506103Y-109212926D01*
X169495497Y-109193274D01*
X169483327Y-109173943D01*
X169471138Y-109157692D01*
X169465954Y-109152012D01*
X169434030Y-109126903D01*
X169397380Y-109109607D01*
X169357609Y-109100089D01*
X169316321Y-109098316D01*
X169275120Y-109104253D01*
X169235609Y-109117866D01*
X169199394Y-109139122D01*
X169177244Y-109158147D01*
X169153919Y-109185910D01*
X169135626Y-109218014D01*
X169122060Y-109255509D01*
X169112916Y-109299443D01*
X169107891Y-109350865D01*
X169106631Y-109401618D01*
X169108447Y-109460885D01*
X169113922Y-109511694D01*
X169123357Y-109555095D01*
X169137055Y-109592135D01*
X169155316Y-109623863D01*
X169178443Y-109651328D01*
X169178511Y-109651396D01*
X169211550Y-109677847D01*
X169248964Y-109696516D01*
X169289101Y-109707283D01*
X169330309Y-109710025D01*
X169370936Y-109704620D01*
X169409331Y-109690947D01*
X169441481Y-109670788D01*
X169463773Y-109648497D01*
X169484632Y-109619050D01*
X169502231Y-109585365D01*
X169512895Y-109556798D01*
X169518496Y-109539362D01*
X169523232Y-109526447D01*
X169526226Y-109520406D01*
X169526533Y-109520230D01*
X169531926Y-109521688D01*
X169545347Y-109525701D01*
X169565213Y-109531782D01*
X169589938Y-109539447D01*
X169614745Y-109547209D01*
X169646640Y-109557123D01*
X169669996Y-109564810D01*
X169685724Y-109571553D01*
X169694737Y-109578633D01*
X169697946Y-109587333D01*
X169696262Y-109598937D01*
X169690598Y-109614725D01*
X169681866Y-109635982D01*
X169680406Y-109639577D01*
X169652856Y-109695878D01*
X169618847Y-109744534D01*
X169578516Y-109785419D01*
X169531997Y-109818408D01*
X169479426Y-109843375D01*
X169450841Y-109852831D01*
X169423214Y-109858741D01*
X169388843Y-109863053D01*
X169350858Y-109865652D01*
X169312392Y-109866421D01*
X169276574Y-109865245D01*
X169246534Y-109862009D01*
X169239214Y-109860640D01*
X169177174Y-109842865D01*
X169121271Y-109817129D01*
X169071295Y-109783303D01*
X169027037Y-109741260D01*
X169009198Y-109719967D01*
X168978367Y-109675367D01*
X168954216Y-109628365D01*
X168936407Y-109577716D01*
X168924605Y-109522177D01*
X168918473Y-109460502D01*
X168917675Y-109391447D01*
X168917932Y-109382285D01*
X168919437Y-109345994D01*
X168921553Y-109317026D01*
X168924604Y-109292627D01*
X168928911Y-109270041D01*
X168933101Y-109252860D01*
X168951688Y-109194192D01*
X168975072Y-109143118D01*
X169004250Y-109097892D01*
X169040218Y-109056771D01*
X169051171Y-109046195D01*
X169098089Y-109008285D01*
X169148699Y-108979028D01*
X169203619Y-108958217D01*
X169263465Y-108945649D01*
X169328856Y-108941116D01*
X169364569Y-108941834D01*
G37*
G36*
X161525710Y-108956015D02*
G01*
X161631109Y-108956113D01*
X161727008Y-108956237D01*
X161813991Y-108956405D01*
X161892638Y-108956633D01*
X161963533Y-108956937D01*
X162027258Y-108957333D01*
X162084394Y-108957838D01*
X162135524Y-108958468D01*
X162181230Y-108959240D01*
X162222094Y-108960170D01*
X162258698Y-108961274D01*
X162291624Y-108962568D01*
X162321456Y-108964069D01*
X162348774Y-108965794D01*
X162374160Y-108967758D01*
X162398198Y-108969978D01*
X162421470Y-108972471D01*
X162444556Y-108975252D01*
X162468041Y-108978338D01*
X162492505Y-108981745D01*
X162504862Y-108983514D01*
X162621925Y-109002921D01*
X162730314Y-109026282D01*
X162830726Y-109053833D01*
X162923859Y-109085812D01*
X163010410Y-109122456D01*
X163091078Y-109164002D01*
X163160151Y-109206397D01*
X163203030Y-109237718D01*
X163246958Y-109274894D01*
X163289701Y-109315722D01*
X163329029Y-109357998D01*
X163362710Y-109399519D01*
X163378582Y-109422087D01*
X163420173Y-109493272D01*
X163453377Y-109568039D01*
X163478716Y-109647726D01*
X163493711Y-109716103D01*
X163498725Y-109752597D01*
X163502237Y-109796346D01*
X163504229Y-109844635D01*
X163504683Y-109894745D01*
X163503582Y-109943962D01*
X163500906Y-109989569D01*
X163496639Y-110028848D01*
X163495829Y-110034223D01*
X163476955Y-110129070D01*
X163451357Y-110216536D01*
X163418963Y-110296817D01*
X163379704Y-110370105D01*
X163363379Y-110395555D01*
X163309659Y-110466404D01*
X163247629Y-110531563D01*
X163177309Y-110591021D01*
X163098720Y-110644769D01*
X163011880Y-110692794D01*
X162916811Y-110735086D01*
X162813533Y-110771635D01*
X162702064Y-110802430D01*
X162582426Y-110827459D01*
X162552749Y-110832566D01*
X162522669Y-110837494D01*
X162494472Y-110841973D01*
X162467564Y-110846023D01*
X162441349Y-110849668D01*
X162415232Y-110852929D01*
X162388618Y-110855827D01*
X162360912Y-110858384D01*
X162331520Y-110860623D01*
X162299846Y-110862565D01*
X162265296Y-110864232D01*
X162227274Y-110865645D01*
X162185185Y-110866827D01*
X162138435Y-110867799D01*
X162086428Y-110868582D01*
X162028570Y-110869200D01*
X161964265Y-110869673D01*
X161892919Y-110870023D01*
X161813936Y-110870273D01*
X161726722Y-110870443D01*
X161630681Y-110870556D01*
X161525219Y-110870634D01*
X161513108Y-110870641D01*
X160826315Y-110871046D01*
X160826315Y-109913248D01*
X160826315Y-109913247D01*
X161743719Y-109913247D01*
X161743719Y-110422356D01*
X161873517Y-110422352D01*
X161912472Y-110422139D01*
X161951505Y-110421543D01*
X161988413Y-110420626D01*
X162020992Y-110419449D01*
X162047037Y-110418075D01*
X162058762Y-110417168D01*
X162142892Y-110406526D01*
X162218692Y-110391003D01*
X162286761Y-110370402D01*
X162347696Y-110344527D01*
X162402093Y-110313181D01*
X162425548Y-110296521D01*
X162470539Y-110256178D01*
X162508546Y-110208784D01*
X162539439Y-110154681D01*
X162563089Y-110094210D01*
X162579367Y-110027712D01*
X162588143Y-109955528D01*
X162589289Y-109877999D01*
X162588767Y-109865360D01*
X162582523Y-109791476D01*
X162571330Y-109725974D01*
X162555089Y-109668395D01*
X162534962Y-109620757D01*
X162517689Y-109592389D01*
X162494740Y-109562740D01*
X162469210Y-109535497D01*
X162447911Y-109517077D01*
X162412813Y-109493279D01*
X162374266Y-109472648D01*
X162331533Y-109455040D01*
X162283878Y-109440309D01*
X162230565Y-109428309D01*
X162170858Y-109418896D01*
X162104020Y-109411924D01*
X162029315Y-109407248D01*
X161946008Y-109404722D01*
X161876037Y-109404150D01*
X161743719Y-109404138D01*
X161743719Y-109913247D01*
X160826315Y-109913247D01*
X160826315Y-109404138D01*
X160826315Y-108955449D01*
X161525710Y-108956015D01*
G37*
G36*
X160316803Y-109297023D02*
G01*
X160287116Y-109355851D01*
X160257163Y-109415175D01*
X160227496Y-109473899D01*
X160198670Y-109530931D01*
X160171238Y-109585175D01*
X160145753Y-109635537D01*
X160122769Y-109680924D01*
X160102840Y-109720239D01*
X160086519Y-109752391D01*
X160077772Y-109769587D01*
X160065319Y-109794089D01*
X160048799Y-109826669D01*
X160028678Y-109866403D01*
X160005426Y-109912367D01*
X159979508Y-109963634D01*
X159951393Y-110019281D01*
X159921547Y-110078382D01*
X159890439Y-110140012D01*
X159858534Y-110203247D01*
X159826302Y-110267160D01*
X159802835Y-110313712D01*
X159771540Y-110375785D01*
X159740861Y-110436603D01*
X159711192Y-110495382D01*
X159682930Y-110551343D01*
X159656470Y-110603703D01*
X159632206Y-110651681D01*
X159610533Y-110694496D01*
X159591848Y-110731366D01*
X159576545Y-110761510D01*
X159565019Y-110784146D01*
X159558118Y-110797617D01*
X159521593Y-110868456D01*
X159060928Y-110869743D01*
X158600264Y-110871029D01*
X158482376Y-110632831D01*
X158466395Y-110600565D01*
X158446280Y-110559989D01*
X158422385Y-110511819D01*
X158395067Y-110456770D01*
X158364680Y-110395559D01*
X158331581Y-110328902D01*
X158296125Y-110257514D01*
X158258668Y-110182111D01*
X158219565Y-110103409D01*
X158179172Y-110022124D01*
X158137845Y-109938973D01*
X158095938Y-109854670D01*
X158053808Y-109769932D01*
X158011811Y-109685474D01*
X158007586Y-109676980D01*
X157967922Y-109597211D01*
X157929494Y-109519905D01*
X157892541Y-109445544D01*
X157857301Y-109374608D01*
X157824014Y-109307578D01*
X157792917Y-109244934D01*
X157764249Y-109187158D01*
X157738248Y-109134731D01*
X157715154Y-109088132D01*
X157695203Y-109047844D01*
X157678636Y-109014347D01*
X157665690Y-108988121D01*
X157656604Y-108969648D01*
X157651616Y-108959408D01*
X157650685Y-108957396D01*
X157655608Y-108957128D01*
X157669907Y-108956899D01*
X157692878Y-108956709D01*
X157723814Y-108956560D01*
X157762012Y-108956452D01*
X157806765Y-108956386D01*
X157857369Y-108956364D01*
X157913118Y-108956386D01*
X157973308Y-108956454D01*
X158037233Y-108956567D01*
X158104189Y-108956728D01*
X158112424Y-108956751D01*
X158574162Y-108958038D01*
X158687087Y-109252918D01*
X158733119Y-109373134D01*
X158776106Y-109485420D01*
X158816001Y-109589653D01*
X158852756Y-109685711D01*
X158886324Y-109773469D01*
X158916659Y-109852806D01*
X158943714Y-109923599D01*
X158967442Y-109985724D01*
X158987795Y-110039059D01*
X159004727Y-110083481D01*
X159018191Y-110118867D01*
X159028139Y-110145094D01*
X159034526Y-110162039D01*
X159034796Y-110162761D01*
X159042878Y-110183883D01*
X159049969Y-110201506D01*
X159055176Y-110213461D01*
X159057315Y-110217414D01*
X159059878Y-110213789D01*
X159065723Y-110201705D01*
X159074457Y-110182090D01*
X159085684Y-110155872D01*
X159099011Y-110123980D01*
X159114044Y-110087343D01*
X159130390Y-110046888D01*
X159141801Y-110018307D01*
X159156332Y-109981750D01*
X159174136Y-109936979D01*
X159194754Y-109885146D01*
X159217728Y-109827402D01*
X159242599Y-109764900D01*
X159268908Y-109698791D01*
X159296199Y-109630226D01*
X159324012Y-109560357D01*
X159351889Y-109490337D01*
X159379372Y-109421316D01*
X159391857Y-109389964D01*
X159416654Y-109327645D01*
X159440358Y-109267975D01*
X159462706Y-109211621D01*
X159483433Y-109159252D01*
X159502279Y-109111534D01*
X159518979Y-109069136D01*
X159533271Y-109032725D01*
X159544892Y-109002968D01*
X159553578Y-108980533D01*
X159559068Y-108966088D01*
X159561098Y-108960301D01*
X159561104Y-108960245D01*
X159566079Y-108959430D01*
X159580744Y-108958680D01*
X159604708Y-108958000D01*
X159637578Y-108957393D01*
X159678964Y-108956864D01*
X159728475Y-108956417D01*
X159785718Y-108956055D01*
X159850303Y-108955782D01*
X159921837Y-108955603D01*
X159999931Y-108955522D01*
X160025097Y-108955517D01*
X160489090Y-108955517D01*
X160316803Y-109297023D01*
G37*
G36*
X167401357Y-110232233D02*
G01*
X167466986Y-110238492D01*
X167525094Y-110251421D01*
X167575760Y-110271069D01*
X167619065Y-110297483D01*
X167655087Y-110330710D01*
X167683906Y-110370799D01*
X167704008Y-110413463D01*
X167710360Y-110433041D01*
X167715945Y-110455102D01*
X167720344Y-110477217D01*
X167723140Y-110496953D01*
X167723914Y-110511882D01*
X167722250Y-110519572D01*
X167716270Y-110520986D01*
X167701861Y-110522523D01*
X167680675Y-110524061D01*
X167654362Y-110525480D01*
X167625206Y-110526641D01*
X167531833Y-110529746D01*
X167528210Y-110510436D01*
X167517859Y-110477401D01*
X167500708Y-110448519D01*
X167478186Y-110425544D01*
X167451717Y-110410231D01*
X167444831Y-110407859D01*
X167406548Y-110400200D01*
X167365314Y-110398481D01*
X167324369Y-110402482D01*
X167286955Y-110411978D01*
X167267959Y-110420012D01*
X167244082Y-110436112D01*
X167229375Y-110455249D01*
X167224103Y-110476812D01*
X167228533Y-110500190D01*
X167230810Y-110505464D01*
X167239124Y-110518738D01*
X167251343Y-110530638D01*
X167268478Y-110541624D01*
X167291542Y-110552158D01*
X167321545Y-110562702D01*
X167359500Y-110573716D01*
X167406417Y-110585661D01*
X167406926Y-110585785D01*
X167472758Y-110602821D01*
X167529324Y-110619956D01*
X167577427Y-110637727D01*
X167617873Y-110656671D01*
X167651468Y-110677325D01*
X167679015Y-110700226D01*
X167701320Y-110725913D01*
X167719189Y-110754921D01*
X167733425Y-110787789D01*
X167740141Y-110808183D01*
X167746132Y-110837094D01*
X167749021Y-110870894D01*
X167748812Y-110905852D01*
X167745507Y-110938239D01*
X167740020Y-110961709D01*
X167719278Y-111011476D01*
X167692333Y-111053787D01*
X167658689Y-111089089D01*
X167617853Y-111117829D01*
X167569329Y-111140452D01*
X167527289Y-111153754D01*
X167505139Y-111158074D01*
X167475533Y-111161678D01*
X167441076Y-111164455D01*
X167404377Y-111166296D01*
X167368040Y-111167088D01*
X167334673Y-111166720D01*
X167306882Y-111165083D01*
X167295099Y-111163630D01*
X167235000Y-111149891D01*
X167181500Y-111128910D01*
X167134841Y-111100850D01*
X167095267Y-111065875D01*
X167063023Y-111024150D01*
X167047811Y-110996994D01*
X167037316Y-110973111D01*
X167027149Y-110945432D01*
X167018148Y-110916769D01*
X167011153Y-110889934D01*
X167007003Y-110867739D01*
X167006227Y-110857687D01*
X167006625Y-110853438D01*
X167008664Y-110850074D01*
X167013565Y-110847352D01*
X167022550Y-110845030D01*
X167036840Y-110842864D01*
X167057657Y-110840611D01*
X167086222Y-110838030D01*
X167118944Y-110835276D01*
X167147903Y-110832924D01*
X167168417Y-110831808D01*
X167182095Y-110832426D01*
X167190548Y-110835280D01*
X167195385Y-110840869D01*
X167198214Y-110849693D01*
X167200330Y-110860568D01*
X167210962Y-110894122D01*
X167229081Y-110926250D01*
X167252777Y-110954389D01*
X167280145Y-110975975D01*
X167290338Y-110981556D01*
X167325607Y-110993861D01*
X167366255Y-111000030D01*
X167409575Y-110999948D01*
X167452859Y-110993500D01*
X167469420Y-110989154D01*
X167491578Y-110979257D01*
X167513436Y-110963904D01*
X167532636Y-110945343D01*
X167546818Y-110925820D01*
X167553370Y-110909148D01*
X167555158Y-110878121D01*
X167547945Y-110851570D01*
X167531625Y-110829285D01*
X167506094Y-110811057D01*
X167503422Y-110809650D01*
X167492984Y-110805522D01*
X167474442Y-110799462D01*
X167449479Y-110791967D01*
X167419777Y-110783534D01*
X167387016Y-110774659D01*
X167369844Y-110770168D01*
X167312706Y-110754876D01*
X167264413Y-110740632D01*
X167223859Y-110726883D01*
X167189936Y-110713080D01*
X167161535Y-110698669D01*
X167137550Y-110683101D01*
X167116873Y-110665824D01*
X167098395Y-110646286D01*
X167083842Y-110627830D01*
X167059884Y-110587108D01*
X167044937Y-110543105D01*
X167039021Y-110497108D01*
X167042158Y-110450402D01*
X167054370Y-110404272D01*
X167075680Y-110360005D01*
X167079213Y-110354307D01*
X167108399Y-110317812D01*
X167145275Y-110287591D01*
X167189557Y-110263751D01*
X167240957Y-110246400D01*
X167299190Y-110235647D01*
X167363970Y-110231601D01*
X167401357Y-110232233D01*
G37*
G36*
X162846826Y-111659750D02*
G01*
X162884240Y-111660899D01*
X162917894Y-111663033D01*
X162945488Y-111666151D01*
X162960096Y-111668949D01*
X163010188Y-111685330D01*
X163052334Y-111707523D01*
X163086375Y-111735392D01*
X163112154Y-111768799D01*
X163129513Y-111807604D01*
X163133074Y-111820354D01*
X163135158Y-111830078D01*
X163136942Y-111841447D01*
X163138466Y-111855400D01*
X163139770Y-111872876D01*
X163140895Y-111894814D01*
X163141881Y-111922153D01*
X163142767Y-111955831D01*
X163143596Y-111996786D01*
X163144406Y-112045958D01*
X163145226Y-112103424D01*
X163146017Y-112161224D01*
X163146756Y-112209960D01*
X163147538Y-112250650D01*
X163148461Y-112284311D01*
X163149622Y-112311959D01*
X163151116Y-112334611D01*
X163153040Y-112353285D01*
X163155492Y-112368996D01*
X163158567Y-112382763D01*
X163162363Y-112395601D01*
X163166976Y-112408529D01*
X163172503Y-112422562D01*
X163176498Y-112432429D01*
X163189305Y-112464034D01*
X163085678Y-112462673D01*
X162982052Y-112461312D01*
X162968835Y-112421687D01*
X162955618Y-112382062D01*
X162928756Y-112404991D01*
X162883047Y-112437497D01*
X162832322Y-112461732D01*
X162777989Y-112477192D01*
X162721459Y-112483371D01*
X162709464Y-112483443D01*
X162686153Y-112482734D01*
X162664169Y-112481331D01*
X162647274Y-112479495D01*
X162643481Y-112478843D01*
X162595396Y-112464516D01*
X162553329Y-112442497D01*
X162517854Y-112413580D01*
X162489544Y-112378557D01*
X162468973Y-112338221D01*
X162456714Y-112293366D01*
X162453340Y-112244784D01*
X162454620Y-112227284D01*
X162662339Y-112227284D01*
X162664568Y-112253494D01*
X162674050Y-112278750D01*
X162690124Y-112301388D01*
X162712131Y-112319741D01*
X162739410Y-112332143D01*
X162743580Y-112333302D01*
X162766438Y-112335907D01*
X162794004Y-112334237D01*
X162822113Y-112328805D01*
X162845280Y-112320743D01*
X162874692Y-112303639D01*
X162900248Y-112281814D01*
X162919406Y-112257616D01*
X162925035Y-112247083D01*
X162929690Y-112234668D01*
X162932994Y-112219957D01*
X162935259Y-112200724D01*
X162936795Y-112174747D01*
X162937385Y-112158587D01*
X162939472Y-112092774D01*
X162834121Y-112118845D01*
X162794929Y-112128667D01*
X162764206Y-112136772D01*
X162740596Y-112143696D01*
X162722741Y-112149972D01*
X162709284Y-112156136D01*
X162698868Y-112162722D01*
X162690136Y-112170265D01*
X162682283Y-112178669D01*
X162668024Y-112201787D01*
X162662339Y-112227284D01*
X162454620Y-112227284D01*
X162455258Y-112218554D01*
X162465412Y-112175115D01*
X162484449Y-112134993D01*
X162511342Y-112099648D01*
X162545065Y-112070539D01*
X162569525Y-112055974D01*
X162592340Y-112045660D01*
X162619558Y-112035705D01*
X162652404Y-112025757D01*
X162692105Y-112015459D01*
X162739886Y-112004460D01*
X162771070Y-111997768D01*
X162802739Y-111990932D01*
X162834352Y-111983785D01*
X162863156Y-111976973D01*
X162886393Y-111971142D01*
X162896052Y-111968515D01*
X162935841Y-111957161D01*
X162935841Y-111921918D01*
X162932687Y-111888402D01*
X162923147Y-111862521D01*
X162907100Y-111844013D01*
X162897417Y-111837861D01*
X162868794Y-111827299D01*
X162834582Y-111821294D01*
X162798236Y-111819946D01*
X162763210Y-111823355D01*
X162732959Y-111831621D01*
X162729682Y-111833003D01*
X162708152Y-111847173D01*
X162688631Y-111868565D01*
X162673559Y-111894330D01*
X162670298Y-111902407D01*
X162665415Y-111913615D01*
X162661326Y-111919273D01*
X162660801Y-111919439D01*
X162654437Y-111918536D01*
X162640183Y-111916080D01*
X162620041Y-111912447D01*
X162596018Y-111908016D01*
X162570115Y-111903163D01*
X162544338Y-111898266D01*
X162520690Y-111893702D01*
X162501175Y-111889849D01*
X162487798Y-111887085D01*
X162483012Y-111885956D01*
X162477862Y-111882688D01*
X162476282Y-111876100D01*
X162478580Y-111864917D01*
X162485069Y-111847867D01*
X162496057Y-111823673D01*
X162500369Y-111814639D01*
X162527018Y-111769793D01*
X162560238Y-111732520D01*
X162600179Y-111702702D01*
X162646988Y-111680220D01*
X162683807Y-111668813D01*
X162705541Y-111665022D01*
X162735009Y-111662221D01*
X162769911Y-111660410D01*
X162807950Y-111659586D01*
X162846826Y-111659750D01*
G37*
G36*
X163646577Y-111660345D02*
G01*
X163693076Y-111661051D01*
X163731484Y-111663025D01*
X163763746Y-111666597D01*
X163791809Y-111672101D01*
X163817620Y-111679867D01*
X163843124Y-111690228D01*
X163855174Y-111695900D01*
X163885377Y-111714926D01*
X163914828Y-111741264D01*
X163941024Y-111772296D01*
X163961460Y-111805407D01*
X163963001Y-111808544D01*
X163974403Y-111832789D01*
X163981498Y-111849571D01*
X163984591Y-111860391D01*
X163983985Y-111866753D01*
X163979986Y-111870156D01*
X163975768Y-111871480D01*
X163966886Y-111873328D01*
X163950701Y-111876446D01*
X163929181Y-111880476D01*
X163904295Y-111885062D01*
X163878012Y-111889846D01*
X163852301Y-111894471D01*
X163829131Y-111898582D01*
X163810471Y-111901821D01*
X163798290Y-111903830D01*
X163794600Y-111904317D01*
X163790900Y-111900024D01*
X163786149Y-111889353D01*
X163784885Y-111885732D01*
X163777936Y-111872101D01*
X163766235Y-111855881D01*
X163755493Y-111843890D01*
X163737406Y-111828361D01*
X163717866Y-111817489D01*
X163694744Y-111810629D01*
X163665910Y-111807135D01*
X163631455Y-111806346D01*
X163588898Y-111808755D01*
X163555254Y-111815458D01*
X163530257Y-111826578D01*
X163513642Y-111842237D01*
X163505144Y-111862558D01*
X163504738Y-111864807D01*
X163504251Y-111877325D01*
X163507604Y-111888588D01*
X163515558Y-111898979D01*
X163528871Y-111908880D01*
X163548303Y-111918675D01*
X163574613Y-111928747D01*
X163608563Y-111939478D01*
X163650910Y-111951252D01*
X163702416Y-111964450D01*
X163702450Y-111964459D01*
X163767705Y-111981833D01*
X163823564Y-111999298D01*
X163870704Y-112017333D01*
X163909803Y-112036417D01*
X163941540Y-112057029D01*
X163966591Y-112079648D01*
X163985635Y-112104751D01*
X163999349Y-112132818D01*
X164008412Y-112164328D01*
X164011592Y-112182814D01*
X164013591Y-112231674D01*
X164006170Y-112278297D01*
X163989879Y-112321950D01*
X163965264Y-112361903D01*
X163932876Y-112397422D01*
X163893263Y-112427776D01*
X163846972Y-112452231D01*
X163796792Y-112469473D01*
X163774126Y-112473889D01*
X163743985Y-112477514D01*
X163708954Y-112480245D01*
X163671615Y-112481978D01*
X163634551Y-112482612D01*
X163600346Y-112482044D01*
X163571583Y-112480172D01*
X163560885Y-112478843D01*
X163504358Y-112466045D01*
X163451773Y-112445763D01*
X163404266Y-112418717D01*
X163362971Y-112385628D01*
X163329022Y-112347213D01*
X163312176Y-112321065D01*
X163301899Y-112301285D01*
X163292957Y-112281445D01*
X163286201Y-112263776D01*
X163282485Y-112250509D01*
X163282658Y-112243873D01*
X163282689Y-112243841D01*
X163288193Y-112242475D01*
X163301853Y-112240157D01*
X163321814Y-112237135D01*
X163346221Y-112233656D01*
X163373222Y-112229968D01*
X163400961Y-112226318D01*
X163427584Y-112222953D01*
X163451236Y-112220122D01*
X163470065Y-112218070D01*
X163482214Y-112217047D01*
X163484015Y-112216980D01*
X163491463Y-112220476D01*
X163492836Y-112224601D01*
X163496678Y-112240999D01*
X163506946Y-112260625D01*
X163521755Y-112281000D01*
X163539220Y-112299646D01*
X163557455Y-112314087D01*
X163563680Y-112317694D01*
X163591452Y-112328212D01*
X163623752Y-112334331D01*
X163658431Y-112336250D01*
X163693341Y-112334165D01*
X163726330Y-112328276D01*
X163755252Y-112318781D01*
X163777956Y-112305879D01*
X163787306Y-112297058D01*
X163799747Y-112276036D01*
X163804297Y-112253648D01*
X163801234Y-112232154D01*
X163790837Y-112213817D01*
X163775623Y-112201976D01*
X163764761Y-112197722D01*
X163746028Y-112191741D01*
X163721368Y-112184598D01*
X163692728Y-112176857D01*
X163663897Y-112169537D01*
X163601706Y-112153496D01*
X163546261Y-112137658D01*
X163498392Y-112122287D01*
X163458927Y-112107650D01*
X163430459Y-112094909D01*
X163394165Y-112071803D01*
X163362225Y-112042108D01*
X163337052Y-112008212D01*
X163330192Y-111995606D01*
X163323267Y-111981025D01*
X163318644Y-111968936D01*
X163315859Y-111956667D01*
X163314448Y-111941542D01*
X163313949Y-111920887D01*
X163313892Y-111901641D01*
X163313998Y-111875773D01*
X163314666Y-111857229D01*
X163316424Y-111843250D01*
X163319797Y-111831079D01*
X163325311Y-111817956D01*
X163332807Y-111802512D01*
X163358388Y-111761909D01*
X163391819Y-111727430D01*
X163432750Y-111699339D01*
X163480831Y-111677900D01*
X163510985Y-111668837D01*
X163526051Y-111665557D01*
X163542843Y-111663179D01*
X163563163Y-111661590D01*
X163588819Y-111660677D01*
X163621614Y-111660328D01*
X163646577Y-111660345D01*
G37*
G36*
X164488371Y-111660345D02*
G01*
X164534870Y-111661051D01*
X164573278Y-111663025D01*
X164605540Y-111666597D01*
X164633603Y-111672101D01*
X164659414Y-111679867D01*
X164684918Y-111690228D01*
X164696968Y-111695900D01*
X164727171Y-111714926D01*
X164756622Y-111741264D01*
X164782818Y-111772296D01*
X164803254Y-111805407D01*
X164804795Y-111808544D01*
X164816197Y-111832789D01*
X164823292Y-111849571D01*
X164826385Y-111860391D01*
X164825779Y-111866753D01*
X164821780Y-111870156D01*
X164817562Y-111871480D01*
X164808680Y-111873328D01*
X164792495Y-111876446D01*
X164770975Y-111880476D01*
X164746089Y-111885062D01*
X164719806Y-111889846D01*
X164694095Y-111894471D01*
X164670925Y-111898582D01*
X164652265Y-111901821D01*
X164640084Y-111903830D01*
X164636394Y-111904317D01*
X164632694Y-111900024D01*
X164627943Y-111889353D01*
X164626679Y-111885732D01*
X164619730Y-111872101D01*
X164608029Y-111855881D01*
X164597287Y-111843890D01*
X164579200Y-111828361D01*
X164559660Y-111817489D01*
X164536538Y-111810629D01*
X164507704Y-111807135D01*
X164473249Y-111806346D01*
X164430692Y-111808755D01*
X164397048Y-111815458D01*
X164372051Y-111826578D01*
X164355436Y-111842237D01*
X164346938Y-111862558D01*
X164346532Y-111864807D01*
X164346045Y-111877325D01*
X164349398Y-111888588D01*
X164357352Y-111898979D01*
X164370665Y-111908880D01*
X164390097Y-111918675D01*
X164416407Y-111928747D01*
X164450357Y-111939478D01*
X164492704Y-111951252D01*
X164544210Y-111964450D01*
X164544244Y-111964459D01*
X164609499Y-111981833D01*
X164665358Y-111999298D01*
X164712498Y-112017333D01*
X164751597Y-112036417D01*
X164783334Y-112057029D01*
X164808385Y-112079648D01*
X164827429Y-112104751D01*
X164841143Y-112132818D01*
X164850206Y-112164328D01*
X164853386Y-112182814D01*
X164855385Y-112231674D01*
X164847964Y-112278297D01*
X164831673Y-112321950D01*
X164807058Y-112361903D01*
X164774670Y-112397422D01*
X164735057Y-112427776D01*
X164688766Y-112452231D01*
X164638586Y-112469473D01*
X164615920Y-112473889D01*
X164585779Y-112477514D01*
X164550748Y-112480245D01*
X164513409Y-112481978D01*
X164476345Y-112482612D01*
X164442140Y-112482044D01*
X164413377Y-112480172D01*
X164402679Y-112478843D01*
X164346152Y-112466045D01*
X164293567Y-112445763D01*
X164246060Y-112418717D01*
X164204765Y-112385628D01*
X164170816Y-112347213D01*
X164153970Y-112321065D01*
X164143693Y-112301285D01*
X164134751Y-112281445D01*
X164127995Y-112263776D01*
X164124279Y-112250509D01*
X164124452Y-112243873D01*
X164124483Y-112243841D01*
X164129987Y-112242475D01*
X164143647Y-112240157D01*
X164163608Y-112237135D01*
X164188015Y-112233656D01*
X164215016Y-112229968D01*
X164242755Y-112226318D01*
X164269378Y-112222953D01*
X164293031Y-112220122D01*
X164311859Y-112218070D01*
X164324008Y-112217047D01*
X164325809Y-112216980D01*
X164333257Y-112220476D01*
X164334630Y-112224601D01*
X164338472Y-112240999D01*
X164348740Y-112260625D01*
X164363549Y-112281000D01*
X164381014Y-112299646D01*
X164399249Y-112314087D01*
X164405474Y-112317694D01*
X164433246Y-112328212D01*
X164465546Y-112334331D01*
X164500225Y-112336250D01*
X164535135Y-112334165D01*
X164568125Y-112328276D01*
X164597046Y-112318781D01*
X164619750Y-112305879D01*
X164629100Y-112297058D01*
X164641541Y-112276036D01*
X164646091Y-112253648D01*
X164643028Y-112232154D01*
X164632631Y-112213817D01*
X164617417Y-112201976D01*
X164606555Y-112197722D01*
X164587822Y-112191741D01*
X164563162Y-112184598D01*
X164534522Y-112176857D01*
X164505691Y-112169537D01*
X164443500Y-112153496D01*
X164388055Y-112137658D01*
X164340186Y-112122287D01*
X164300721Y-112107650D01*
X164272253Y-112094909D01*
X164235959Y-112071803D01*
X164204019Y-112042108D01*
X164178846Y-112008212D01*
X164171986Y-111995606D01*
X164165061Y-111981025D01*
X164160438Y-111968936D01*
X164157653Y-111956667D01*
X164156243Y-111941542D01*
X164155743Y-111920887D01*
X164155686Y-111901641D01*
X164155792Y-111875773D01*
X164156460Y-111857229D01*
X164158218Y-111843250D01*
X164161591Y-111831079D01*
X164167105Y-111817956D01*
X164174601Y-111802512D01*
X164200182Y-111761909D01*
X164233613Y-111727430D01*
X164274544Y-111699339D01*
X164322625Y-111677900D01*
X164352779Y-111668837D01*
X164367845Y-111665557D01*
X164384637Y-111663179D01*
X164404957Y-111661590D01*
X164430613Y-111660677D01*
X164463408Y-111660328D01*
X164488371Y-111660345D01*
G37*
%LPC*%
D14*
X148590000Y-114935000D03*
X152400000Y-114935000D03*
X160100000Y-84000000D03*
X163910000Y-84000000D03*
X173228000Y-98500000D03*
X177038000Y-98500000D03*
X136980000Y-84000000D03*
X140790000Y-84000000D03*
X148590000Y-50292000D03*
X152400000Y-50292000D03*
X123952000Y-98500000D03*
X127762000Y-98500000D03*
X116078000Y-125979000D03*
X119888000Y-125979000D03*
X166370000Y-72500000D03*
X170180000Y-72500000D03*
X181356000Y-125979000D03*
X185166000Y-125979000D03*
X131064000Y-72500000D03*
X134874000Y-72500000D03*
X148600000Y-65500000D03*
X152410000Y-65500000D03*
D15*
X142880000Y-137380000D03*
X142880000Y-134840000D03*
X142880000Y-132300000D03*
X142880000Y-129760000D03*
X142880000Y-124680000D03*
X142880000Y-127220000D03*
X158120000Y-119600000D03*
X142880000Y-119600000D03*
X158120000Y-122140000D03*
X158120000Y-124680000D03*
X158120000Y-127220000D03*
X158120000Y-129760000D03*
X158120000Y-132300000D03*
X158120000Y-134840000D03*
X158120000Y-137380000D03*
X142880000Y-122140000D03*
D16*
X160660000Y-119600000D03*
D17*
X160660000Y-122140000D03*
X160660000Y-124680000D03*
X160660000Y-127220000D03*
X160660000Y-129760000D03*
X160660000Y-132300000D03*
X160660000Y-134840000D03*
X160660000Y-137380000D03*
D16*
X140340000Y-119600000D03*
D17*
X140340000Y-122140000D03*
X140340000Y-124680000D03*
X140340000Y-127220000D03*
X140340000Y-129760000D03*
X140340000Y-132300000D03*
X140340000Y-134840000D03*
X140340000Y-137380000D03*
D18*
X153745000Y-95413000D03*
X147245000Y-95413000D03*
X153745000Y-99913000D03*
X147245000Y-99913000D03*
%LPD*%
M02*
