G04 #@! TF.GenerationSoftware,KiCad,Pcbnew,8.0.6*
G04 #@! TF.CreationDate,2024-11-27T22:06:41+01:00*
G04 #@! TF.ProjectId,christmas_soldering_kit_2024,63687269-7374-46d6-9173-5f736f6c6465,rev?*
G04 #@! TF.SameCoordinates,Original*
G04 #@! TF.FileFunction,Soldermask,Top*
G04 #@! TF.FilePolarity,Negative*
%FSLAX46Y46*%
G04 Gerber Fmt 4.6, Leading zero omitted, Abs format (unit mm)*
G04 Created by KiCad (PCBNEW 8.0.6) date 2024-11-27 22:06:41*
%MOMM*%
%LPD*%
G01*
G04 APERTURE LIST*
%ADD10C,0.900000*%
%ADD11R,1.700000X1.700000*%
%ADD12O,1.700000X1.700000*%
%ADD13C,2.109000*%
%ADD14C,2.000000*%
G04 APERTURE END LIST*
D10*
X160100000Y-84000000D03*
X161370000Y-84000000D03*
X162640000Y-84000000D03*
X163910000Y-84000000D03*
X173228000Y-98500000D03*
X174498000Y-98500000D03*
X175768000Y-98500000D03*
X177038000Y-98500000D03*
X136980000Y-84000000D03*
X138250000Y-84000000D03*
X139520000Y-84000000D03*
X140790000Y-84000000D03*
X148590000Y-50292000D03*
X149860000Y-50292000D03*
X151130000Y-50292000D03*
X152400000Y-50292000D03*
X123952000Y-98500000D03*
X125222000Y-98500000D03*
X126492000Y-98500000D03*
X127762000Y-98500000D03*
X116078000Y-125979000D03*
X117348000Y-125979000D03*
X118618000Y-125979000D03*
X119888000Y-125979000D03*
X166370000Y-72500000D03*
X167640000Y-72500000D03*
X168910000Y-72500000D03*
X170180000Y-72500000D03*
X181356000Y-125979000D03*
X182626000Y-125979000D03*
X183896000Y-125979000D03*
X185166000Y-125979000D03*
X131064000Y-72500000D03*
X132334000Y-72500000D03*
X133604000Y-72500000D03*
X134874000Y-72500000D03*
X148600000Y-65500000D03*
X149870000Y-65500000D03*
X151140000Y-65500000D03*
X152410000Y-65500000D03*
X148590000Y-114935000D03*
X149860000Y-114935000D03*
X151130000Y-114935000D03*
X152400000Y-114935000D03*
D11*
X160660000Y-119600000D03*
D12*
X160660000Y-122140000D03*
X160660000Y-124680000D03*
X160660000Y-127220000D03*
X160660000Y-129760000D03*
X160660000Y-132300000D03*
X160660000Y-134840000D03*
X160660000Y-137380000D03*
D13*
X142880000Y-137380000D03*
X142880000Y-134840000D03*
X142880000Y-132300000D03*
X142880000Y-129760000D03*
X142880000Y-124680000D03*
X142880000Y-127220000D03*
X158120000Y-119600000D03*
X142880000Y-119600000D03*
X158120000Y-122140000D03*
X158120000Y-124680000D03*
X158120000Y-127220000D03*
X158120000Y-129760000D03*
X158120000Y-132300000D03*
X158120000Y-134840000D03*
X158120000Y-137380000D03*
X142880000Y-122140000D03*
D11*
X140340000Y-119600000D03*
D12*
X140340000Y-122140000D03*
X140340000Y-124680000D03*
X140340000Y-127220000D03*
X140340000Y-129760000D03*
X140340000Y-132300000D03*
X140340000Y-134840000D03*
X140340000Y-137380000D03*
D14*
X147245000Y-99913000D03*
X153745000Y-99913000D03*
X147245000Y-95413000D03*
X153745000Y-95413000D03*
M02*
