M48
; DRILL file {KiCad 8.0.6} date 2024-11-19T00:43:30+0100
; FORMAT={-:-/ absolute / metric / decimal}
; #@! TF.CreationDate,2024-11-19T00:43:30+01:00
; #@! TF.GenerationSoftware,Kicad,Pcbnew,8.0.6
; #@! TF.FileFunction,Plated,1,2,PTH
FMAT,2
METRIC
; #@! TA.AperFunction,Plated,PTH,ViaDrill
T1C0.400
; #@! TA.AperFunction,Plated,PTH,ComponentDrill
T2C0.800
; #@! TA.AperFunction,Plated,PTH,ComponentDrill
T3C0.900
; #@! TA.AperFunction,Plated,PTH,ComponentDrill
T4C0.950
; #@! TA.AperFunction,Plated,PTH,ComponentDrill
T5C1.000
; #@! TA.AperFunction,Plated,PTH,ComponentDrill
T6C1.100
; #@! TA.AperFunction,Plated,PTH,ComponentDrill
T7C1.270
%
G90
G05
T1
X144.5Y-139.5
T2
X145.42Y-99.75
X146.7Y-123.63
X146.7Y-126.17
X146.7Y-128.71
X146.7Y-131.25
X149.205Y-106.5
X151.705Y-106.5
X154.32Y-123.63
X154.32Y-126.17
X154.32Y-128.71
X154.32Y-131.25
X155.58Y-99.75
T3
X115.73Y-126.5
X117.0Y-126.5
X118.27Y-126.5
X119.54Y-126.5
X123.73Y-98.5
X125.0Y-98.5
X126.27Y-98.5
X127.54Y-98.5
X130.46Y-72.5
X131.73Y-72.5
X133.0Y-72.5
X134.27Y-72.5
X136.98Y-84.0
X138.25Y-84.0
X139.52Y-84.0
X140.79Y-84.0
X148.6Y-49.0
X148.6Y-65.5
X148.6Y-116.25
X149.87Y-49.0
X149.87Y-65.5
X149.87Y-116.25
X151.14Y-49.0
X151.14Y-65.5
X151.14Y-116.25
X152.41Y-49.0
X152.41Y-65.5
X152.41Y-116.25
X160.1Y-84.0
X161.37Y-84.0
X162.64Y-84.0
X163.91Y-84.0
X166.96Y-72.5
X168.23Y-72.5
X169.5Y-72.5
X170.77Y-72.5
X173.46Y-98.5
X174.73Y-98.5
X176.0Y-98.5
X177.27Y-98.5
X181.6Y-126.5
X182.87Y-126.5
X184.14Y-126.5
X185.41Y-126.5
T4
X132.45Y-122.525
X132.45Y-125.025
X132.45Y-127.525
X165.5Y-122.5
X165.5Y-125.0
X165.5Y-127.5
T5
X136.5Y-122.445
X136.5Y-124.985
X136.5Y-127.525
X140.34Y-120.1
X140.34Y-122.64
X140.34Y-125.18
X140.34Y-127.72
X140.34Y-130.26
X140.34Y-132.8
X140.34Y-135.34
X140.34Y-137.88
X160.66Y-120.1
X160.66Y-122.64
X160.66Y-125.18
X160.66Y-127.72
X160.66Y-130.26
X160.66Y-132.8
X160.66Y-135.34
X160.66Y-137.88
T6
X147.25Y-90.25
X147.25Y-94.75
X153.75Y-90.25
X153.75Y-94.75
T7
X142.88Y-120.1
X142.88Y-122.64
X142.88Y-125.18
X142.88Y-127.72
X142.88Y-130.26
X142.88Y-132.8
X142.88Y-135.34
X142.88Y-137.88
X158.12Y-120.1
X158.12Y-122.64
X158.12Y-125.18
X158.12Y-127.72
X158.12Y-130.26
X158.12Y-132.8
X158.12Y-135.34
X158.12Y-137.88
M30
