G04 #@! TF.GenerationSoftware,KiCad,Pcbnew,8.0.6*
G04 #@! TF.CreationDate,2024-11-27T01:20:32+01:00*
G04 #@! TF.ProjectId,christmas_soldering_kit_2024,63687269-7374-46d6-9173-5f736f6c6465,rev?*
G04 #@! TF.SameCoordinates,Original*
G04 #@! TF.FileFunction,Soldermask,Bot*
G04 #@! TF.FilePolarity,Negative*
%FSLAX46Y46*%
G04 Gerber Fmt 4.6, Leading zero omitted, Abs format (unit mm)*
G04 Created by KiCad (PCBNEW 8.0.6) date 2024-11-27 01:20:32*
%MOMM*%
%LPD*%
G01*
G04 APERTURE LIST*
%ADD10C,0.100000*%
%ADD11R,1.400000X2.200000*%
%ADD12C,0.550000*%
%ADD13O,1.400000X2.200000*%
%ADD14C,2.109000*%
%ADD15R,1.700000X1.700000*%
%ADD16O,1.700000X1.700000*%
%ADD17C,2.000000*%
G04 APERTURE END LIST*
D10*
X148590000Y-114935000D03*
X152400000Y-114935000D03*
D11*
X148590000Y-116835000D03*
D12*
X149860000Y-113030000D03*
D13*
X149860000Y-113035000D03*
X151130000Y-116835000D03*
D12*
X151130000Y-116840000D03*
D13*
X152400000Y-113035000D03*
D10*
X160100000Y-84000000D03*
X163910000Y-84000000D03*
D11*
X160100000Y-85900000D03*
D12*
X161370000Y-82095000D03*
D13*
X161370000Y-82100000D03*
X162640000Y-85900000D03*
D12*
X162640000Y-85905000D03*
D13*
X163910000Y-82100000D03*
D10*
X173228000Y-98500000D03*
X177038000Y-98500000D03*
D11*
X173228000Y-100400000D03*
D12*
X174498000Y-96595000D03*
D13*
X174498000Y-96600000D03*
X175768000Y-100400000D03*
D12*
X175768000Y-100405000D03*
D13*
X177038000Y-96600000D03*
D10*
X136980000Y-84000000D03*
X140790000Y-84000000D03*
D11*
X136980000Y-85900000D03*
D12*
X138250000Y-82095000D03*
D13*
X138250000Y-82100000D03*
X139520000Y-85900000D03*
D12*
X139520000Y-85905000D03*
D13*
X140790000Y-82100000D03*
D10*
X148590000Y-50292000D03*
X152400000Y-50292000D03*
D11*
X148590000Y-52192000D03*
D12*
X149860000Y-48387000D03*
D13*
X149860000Y-48392000D03*
X151130000Y-52192000D03*
D12*
X151130000Y-52197000D03*
D13*
X152400000Y-48392000D03*
D10*
X123952000Y-98500000D03*
X127762000Y-98500000D03*
D11*
X123952000Y-100400000D03*
D12*
X125222000Y-96595000D03*
D13*
X125222000Y-96600000D03*
X126492000Y-100400000D03*
D12*
X126492000Y-100405000D03*
D13*
X127762000Y-96600000D03*
D10*
X116078000Y-125979000D03*
X119888000Y-125979000D03*
D11*
X116078000Y-127879000D03*
D12*
X117348000Y-124074000D03*
D13*
X117348000Y-124079000D03*
X118618000Y-127879000D03*
D12*
X118618000Y-127884000D03*
D13*
X119888000Y-124079000D03*
D10*
X166370000Y-72500000D03*
X170180000Y-72500000D03*
D11*
X166370000Y-74400000D03*
D12*
X167640000Y-70595000D03*
D13*
X167640000Y-70600000D03*
X168910000Y-74400000D03*
D12*
X168910000Y-74405000D03*
D13*
X170180000Y-70600000D03*
D10*
X181356000Y-125979000D03*
X185166000Y-125979000D03*
D11*
X181356000Y-127879000D03*
D12*
X182626000Y-124074000D03*
D13*
X182626000Y-124079000D03*
X183896000Y-127879000D03*
D12*
X183896000Y-127884000D03*
D13*
X185166000Y-124079000D03*
D10*
X131064000Y-72500000D03*
X134874000Y-72500000D03*
D11*
X131064000Y-74400000D03*
D12*
X132334000Y-70595000D03*
D13*
X132334000Y-70600000D03*
X133604000Y-74400000D03*
D12*
X133604000Y-74405000D03*
D13*
X134874000Y-70600000D03*
D10*
X148600000Y-65500000D03*
X152410000Y-65500000D03*
D11*
X148600000Y-67400000D03*
D12*
X149870000Y-63595000D03*
D13*
X149870000Y-63600000D03*
X151140000Y-67400000D03*
D12*
X151140000Y-67405000D03*
D13*
X152410000Y-63600000D03*
D14*
X142880000Y-137380000D03*
X142880000Y-134840000D03*
X142880000Y-132300000D03*
X142880000Y-129760000D03*
X142880000Y-124680000D03*
X142880000Y-127220000D03*
X158120000Y-119600000D03*
X142880000Y-119600000D03*
X158120000Y-122140000D03*
X158120000Y-124680000D03*
X158120000Y-127220000D03*
X158120000Y-129760000D03*
X158120000Y-132300000D03*
X158120000Y-134840000D03*
X158120000Y-137380000D03*
X142880000Y-122140000D03*
D15*
X160660000Y-119600000D03*
D16*
X160660000Y-122140000D03*
X160660000Y-124680000D03*
X160660000Y-127220000D03*
X160660000Y-129760000D03*
X160660000Y-132300000D03*
X160660000Y-134840000D03*
X160660000Y-137380000D03*
D15*
X140340000Y-119600000D03*
D16*
X140340000Y-122140000D03*
X140340000Y-124680000D03*
X140340000Y-127220000D03*
X140340000Y-129760000D03*
X140340000Y-132300000D03*
X140340000Y-134840000D03*
X140340000Y-137380000D03*
D17*
X153745000Y-95413000D03*
X147245000Y-95413000D03*
X153745000Y-99913000D03*
X147245000Y-99913000D03*
M02*
