G04 #@! TF.GenerationSoftware,KiCad,Pcbnew,8.0.6*
G04 #@! TF.CreationDate,2024-12-04T18:46:27+01:00*
G04 #@! TF.ProjectId,christmas_soldering_kit_2024,63687269-7374-46d6-9173-5f736f6c6465,rev?*
G04 #@! TF.SameCoordinates,Original*
G04 #@! TF.FileFunction,Legend,Bot*
G04 #@! TF.FilePolarity,Positive*
%FSLAX46Y46*%
G04 Gerber Fmt 4.6, Leading zero omitted, Abs format (unit mm)*
G04 Created by KiCad (PCBNEW 8.0.6) date 2024-12-04 18:46:27*
%MOMM*%
%LPD*%
G01*
G04 APERTURE LIST*
%ADD10C,0.150000*%
%ADD11C,0.100000*%
%ADD12C,0.127000*%
%ADD13C,0.120000*%
%ADD14C,2.200000*%
%ADD15C,0.900000*%
%ADD16R,1.400000X2.200000*%
%ADD17C,0.550000*%
%ADD18O,1.400000X2.200000*%
%ADD19R,1.700000X1.700000*%
%ADD20O,1.700000X1.700000*%
%ADD21C,2.109000*%
%ADD22C,2.000000*%
G04 APERTURE END LIST*
D10*
X139065000Y-118860000D02*
X144272000Y-118860000D01*
X144272000Y-121400000D01*
X139065000Y-121400000D01*
X139065000Y-118860000D01*
X139065000Y-131560000D02*
X144272000Y-131560000D01*
X144272000Y-134100000D01*
X139065000Y-134100000D01*
X139065000Y-131560000D01*
X139065000Y-121400000D02*
X144272000Y-121400000D01*
X144272000Y-123940000D01*
X139065000Y-123940000D01*
X139065000Y-121400000D01*
X138938000Y-136640000D02*
X144145000Y-136640000D01*
X144145000Y-139180000D01*
X138938000Y-139180000D01*
X138938000Y-136640000D01*
X154828333Y-103789847D02*
X154828333Y-102789847D01*
X154828333Y-102789847D02*
X154590238Y-102789847D01*
X154590238Y-102789847D02*
X154447381Y-102837466D01*
X154447381Y-102837466D02*
X154352143Y-102932704D01*
X154352143Y-102932704D02*
X154304524Y-103027942D01*
X154304524Y-103027942D02*
X154256905Y-103218418D01*
X154256905Y-103218418D02*
X154256905Y-103361275D01*
X154256905Y-103361275D02*
X154304524Y-103551751D01*
X154304524Y-103551751D02*
X154352143Y-103646989D01*
X154352143Y-103646989D02*
X154447381Y-103742228D01*
X154447381Y-103742228D02*
X154590238Y-103789847D01*
X154590238Y-103789847D02*
X154828333Y-103789847D01*
X153447381Y-103742228D02*
X153542619Y-103789847D01*
X153542619Y-103789847D02*
X153733095Y-103789847D01*
X153733095Y-103789847D02*
X153828333Y-103742228D01*
X153828333Y-103742228D02*
X153875952Y-103646989D01*
X153875952Y-103646989D02*
X153875952Y-103266037D01*
X153875952Y-103266037D02*
X153828333Y-103170799D01*
X153828333Y-103170799D02*
X153733095Y-103123180D01*
X153733095Y-103123180D02*
X153542619Y-103123180D01*
X153542619Y-103123180D02*
X153447381Y-103170799D01*
X153447381Y-103170799D02*
X153399762Y-103266037D01*
X153399762Y-103266037D02*
X153399762Y-103361275D01*
X153399762Y-103361275D02*
X153875952Y-103456513D01*
X153018809Y-103742228D02*
X152923571Y-103789847D01*
X152923571Y-103789847D02*
X152733095Y-103789847D01*
X152733095Y-103789847D02*
X152637857Y-103742228D01*
X152637857Y-103742228D02*
X152590238Y-103646989D01*
X152590238Y-103646989D02*
X152590238Y-103599370D01*
X152590238Y-103599370D02*
X152637857Y-103504132D01*
X152637857Y-103504132D02*
X152733095Y-103456513D01*
X152733095Y-103456513D02*
X152875952Y-103456513D01*
X152875952Y-103456513D02*
X152971190Y-103408894D01*
X152971190Y-103408894D02*
X153018809Y-103313656D01*
X153018809Y-103313656D02*
X153018809Y-103266037D01*
X153018809Y-103266037D02*
X152971190Y-103170799D01*
X152971190Y-103170799D02*
X152875952Y-103123180D01*
X152875952Y-103123180D02*
X152733095Y-103123180D01*
X152733095Y-103123180D02*
X152637857Y-103170799D01*
X152161666Y-103789847D02*
X152161666Y-103123180D01*
X152161666Y-102789847D02*
X152209285Y-102837466D01*
X152209285Y-102837466D02*
X152161666Y-102885085D01*
X152161666Y-102885085D02*
X152114047Y-102837466D01*
X152114047Y-102837466D02*
X152161666Y-102789847D01*
X152161666Y-102789847D02*
X152161666Y-102885085D01*
X151256905Y-103123180D02*
X151256905Y-103932704D01*
X151256905Y-103932704D02*
X151304524Y-104027942D01*
X151304524Y-104027942D02*
X151352143Y-104075561D01*
X151352143Y-104075561D02*
X151447381Y-104123180D01*
X151447381Y-104123180D02*
X151590238Y-104123180D01*
X151590238Y-104123180D02*
X151685476Y-104075561D01*
X151256905Y-103742228D02*
X151352143Y-103789847D01*
X151352143Y-103789847D02*
X151542619Y-103789847D01*
X151542619Y-103789847D02*
X151637857Y-103742228D01*
X151637857Y-103742228D02*
X151685476Y-103694608D01*
X151685476Y-103694608D02*
X151733095Y-103599370D01*
X151733095Y-103599370D02*
X151733095Y-103313656D01*
X151733095Y-103313656D02*
X151685476Y-103218418D01*
X151685476Y-103218418D02*
X151637857Y-103170799D01*
X151637857Y-103170799D02*
X151542619Y-103123180D01*
X151542619Y-103123180D02*
X151352143Y-103123180D01*
X151352143Y-103123180D02*
X151256905Y-103170799D01*
X150780714Y-103123180D02*
X150780714Y-103789847D01*
X150780714Y-103218418D02*
X150733095Y-103170799D01*
X150733095Y-103170799D02*
X150637857Y-103123180D01*
X150637857Y-103123180D02*
X150495000Y-103123180D01*
X150495000Y-103123180D02*
X150399762Y-103170799D01*
X150399762Y-103170799D02*
X150352143Y-103266037D01*
X150352143Y-103266037D02*
X150352143Y-103789847D01*
X149495000Y-103742228D02*
X149590238Y-103789847D01*
X149590238Y-103789847D02*
X149780714Y-103789847D01*
X149780714Y-103789847D02*
X149875952Y-103742228D01*
X149875952Y-103742228D02*
X149923571Y-103646989D01*
X149923571Y-103646989D02*
X149923571Y-103266037D01*
X149923571Y-103266037D02*
X149875952Y-103170799D01*
X149875952Y-103170799D02*
X149780714Y-103123180D01*
X149780714Y-103123180D02*
X149590238Y-103123180D01*
X149590238Y-103123180D02*
X149495000Y-103170799D01*
X149495000Y-103170799D02*
X149447381Y-103266037D01*
X149447381Y-103266037D02*
X149447381Y-103361275D01*
X149447381Y-103361275D02*
X149923571Y-103456513D01*
X148590238Y-103789847D02*
X148590238Y-102789847D01*
X148590238Y-103742228D02*
X148685476Y-103789847D01*
X148685476Y-103789847D02*
X148875952Y-103789847D01*
X148875952Y-103789847D02*
X148971190Y-103742228D01*
X148971190Y-103742228D02*
X149018809Y-103694608D01*
X149018809Y-103694608D02*
X149066428Y-103599370D01*
X149066428Y-103599370D02*
X149066428Y-103313656D01*
X149066428Y-103313656D02*
X149018809Y-103218418D01*
X149018809Y-103218418D02*
X148971190Y-103170799D01*
X148971190Y-103170799D02*
X148875952Y-103123180D01*
X148875952Y-103123180D02*
X148685476Y-103123180D01*
X148685476Y-103123180D02*
X148590238Y-103170799D01*
X147352142Y-103789847D02*
X147352142Y-102789847D01*
X147352142Y-103170799D02*
X147256904Y-103123180D01*
X147256904Y-103123180D02*
X147066428Y-103123180D01*
X147066428Y-103123180D02*
X146971190Y-103170799D01*
X146971190Y-103170799D02*
X146923571Y-103218418D01*
X146923571Y-103218418D02*
X146875952Y-103313656D01*
X146875952Y-103313656D02*
X146875952Y-103599370D01*
X146875952Y-103599370D02*
X146923571Y-103694608D01*
X146923571Y-103694608D02*
X146971190Y-103742228D01*
X146971190Y-103742228D02*
X147066428Y-103789847D01*
X147066428Y-103789847D02*
X147256904Y-103789847D01*
X147256904Y-103789847D02*
X147352142Y-103742228D01*
X146542618Y-103123180D02*
X146304523Y-103789847D01*
X146066428Y-103123180D02*
X146304523Y-103789847D01*
X146304523Y-103789847D02*
X146399761Y-104027942D01*
X146399761Y-104027942D02*
X146447380Y-104075561D01*
X146447380Y-104075561D02*
X146542618Y-104123180D01*
X154114048Y-104399791D02*
X154114048Y-105114076D01*
X154114048Y-105114076D02*
X154161667Y-105256933D01*
X154161667Y-105256933D02*
X154256905Y-105352172D01*
X154256905Y-105352172D02*
X154399762Y-105399791D01*
X154399762Y-105399791D02*
X154495000Y-105399791D01*
X153209286Y-105399791D02*
X153209286Y-104875981D01*
X153209286Y-104875981D02*
X153256905Y-104780743D01*
X153256905Y-104780743D02*
X153352143Y-104733124D01*
X153352143Y-104733124D02*
X153542619Y-104733124D01*
X153542619Y-104733124D02*
X153637857Y-104780743D01*
X153209286Y-105352172D02*
X153304524Y-105399791D01*
X153304524Y-105399791D02*
X153542619Y-105399791D01*
X153542619Y-105399791D02*
X153637857Y-105352172D01*
X153637857Y-105352172D02*
X153685476Y-105256933D01*
X153685476Y-105256933D02*
X153685476Y-105161695D01*
X153685476Y-105161695D02*
X153637857Y-105066457D01*
X153637857Y-105066457D02*
X153542619Y-105018838D01*
X153542619Y-105018838D02*
X153304524Y-105018838D01*
X153304524Y-105018838D02*
X153209286Y-104971219D01*
X152733095Y-104733124D02*
X152733095Y-105399791D01*
X152733095Y-104828362D02*
X152685476Y-104780743D01*
X152685476Y-104780743D02*
X152590238Y-104733124D01*
X152590238Y-104733124D02*
X152447381Y-104733124D01*
X152447381Y-104733124D02*
X152352143Y-104780743D01*
X152352143Y-104780743D02*
X152304524Y-104875981D01*
X152304524Y-104875981D02*
X152304524Y-105399791D01*
X151685476Y-105399791D02*
X151780714Y-105352172D01*
X151780714Y-105352172D02*
X151828333Y-105304552D01*
X151828333Y-105304552D02*
X151875952Y-105209314D01*
X151875952Y-105209314D02*
X151875952Y-104923600D01*
X151875952Y-104923600D02*
X151828333Y-104828362D01*
X151828333Y-104828362D02*
X151780714Y-104780743D01*
X151780714Y-104780743D02*
X151685476Y-104733124D01*
X151685476Y-104733124D02*
X151542619Y-104733124D01*
X151542619Y-104733124D02*
X151447381Y-104780743D01*
X151447381Y-104780743D02*
X151399762Y-104828362D01*
X151399762Y-104828362D02*
X151352143Y-104923600D01*
X151352143Y-104923600D02*
X151352143Y-105209314D01*
X151352143Y-105209314D02*
X151399762Y-105304552D01*
X151399762Y-105304552D02*
X151447381Y-105352172D01*
X151447381Y-105352172D02*
X151542619Y-105399791D01*
X151542619Y-105399791D02*
X151685476Y-105399791D01*
X150971190Y-105352172D02*
X150875952Y-105399791D01*
X150875952Y-105399791D02*
X150685476Y-105399791D01*
X150685476Y-105399791D02*
X150590238Y-105352172D01*
X150590238Y-105352172D02*
X150542619Y-105256933D01*
X150542619Y-105256933D02*
X150542619Y-105209314D01*
X150542619Y-105209314D02*
X150590238Y-105114076D01*
X150590238Y-105114076D02*
X150685476Y-105066457D01*
X150685476Y-105066457D02*
X150828333Y-105066457D01*
X150828333Y-105066457D02*
X150923571Y-105018838D01*
X150923571Y-105018838D02*
X150971190Y-104923600D01*
X150971190Y-104923600D02*
X150971190Y-104875981D01*
X150971190Y-104875981D02*
X150923571Y-104780743D01*
X150923571Y-104780743D02*
X150828333Y-104733124D01*
X150828333Y-104733124D02*
X150685476Y-104733124D01*
X150685476Y-104733124D02*
X150590238Y-104780743D01*
X149018809Y-104875981D02*
X149352142Y-104875981D01*
X149352142Y-105399791D02*
X149352142Y-104399791D01*
X149352142Y-104399791D02*
X148875952Y-104399791D01*
X148352142Y-105399791D02*
X148447380Y-105352172D01*
X148447380Y-105352172D02*
X148494999Y-105304552D01*
X148494999Y-105304552D02*
X148542618Y-105209314D01*
X148542618Y-105209314D02*
X148542618Y-104923600D01*
X148542618Y-104923600D02*
X148494999Y-104828362D01*
X148494999Y-104828362D02*
X148447380Y-104780743D01*
X148447380Y-104780743D02*
X148352142Y-104733124D01*
X148352142Y-104733124D02*
X148209285Y-104733124D01*
X148209285Y-104733124D02*
X148114047Y-104780743D01*
X148114047Y-104780743D02*
X148066428Y-104828362D01*
X148066428Y-104828362D02*
X148018809Y-104923600D01*
X148018809Y-104923600D02*
X148018809Y-105209314D01*
X148018809Y-105209314D02*
X148066428Y-105304552D01*
X148066428Y-105304552D02*
X148114047Y-105352172D01*
X148114047Y-105352172D02*
X148209285Y-105399791D01*
X148209285Y-105399791D02*
X148352142Y-105399791D01*
X148447380Y-104399791D02*
X148399761Y-104447410D01*
X148399761Y-104447410D02*
X148447380Y-104495029D01*
X148447380Y-104495029D02*
X148494999Y-104447410D01*
X148494999Y-104447410D02*
X148447380Y-104399791D01*
X148447380Y-104399791D02*
X148447380Y-104495029D01*
X148066428Y-104399791D02*
X148018809Y-104447410D01*
X148018809Y-104447410D02*
X148066428Y-104495029D01*
X148066428Y-104495029D02*
X148114047Y-104447410D01*
X148114047Y-104447410D02*
X148066428Y-104399791D01*
X148066428Y-104399791D02*
X148066428Y-104495029D01*
X147733094Y-104733124D02*
X147352142Y-104733124D01*
X147590237Y-104399791D02*
X147590237Y-105256933D01*
X147590237Y-105256933D02*
X147542618Y-105352172D01*
X147542618Y-105352172D02*
X147447380Y-105399791D01*
X147447380Y-105399791D02*
X147352142Y-105399791D01*
X147018808Y-105399791D02*
X147018808Y-104399791D01*
X146590237Y-105399791D02*
X146590237Y-104875981D01*
X146590237Y-104875981D02*
X146637856Y-104780743D01*
X146637856Y-104780743D02*
X146733094Y-104733124D01*
X146733094Y-104733124D02*
X146875951Y-104733124D01*
X146875951Y-104733124D02*
X146971189Y-104780743D01*
X146971189Y-104780743D02*
X147018808Y-104828362D01*
X152804523Y-107719819D02*
X153137856Y-107243628D01*
X153375951Y-107719819D02*
X153375951Y-106719819D01*
X153375951Y-106719819D02*
X152994999Y-106719819D01*
X152994999Y-106719819D02*
X152899761Y-106767438D01*
X152899761Y-106767438D02*
X152852142Y-106815057D01*
X152852142Y-106815057D02*
X152804523Y-106910295D01*
X152804523Y-106910295D02*
X152804523Y-107053152D01*
X152804523Y-107053152D02*
X152852142Y-107148390D01*
X152852142Y-107148390D02*
X152899761Y-107196009D01*
X152899761Y-107196009D02*
X152994999Y-107243628D01*
X152994999Y-107243628D02*
X153375951Y-107243628D01*
X151994999Y-107672200D02*
X152090237Y-107719819D01*
X152090237Y-107719819D02*
X152280713Y-107719819D01*
X152280713Y-107719819D02*
X152375951Y-107672200D01*
X152375951Y-107672200D02*
X152423570Y-107576961D01*
X152423570Y-107576961D02*
X152423570Y-107196009D01*
X152423570Y-107196009D02*
X152375951Y-107100771D01*
X152375951Y-107100771D02*
X152280713Y-107053152D01*
X152280713Y-107053152D02*
X152090237Y-107053152D01*
X152090237Y-107053152D02*
X151994999Y-107100771D01*
X151994999Y-107100771D02*
X151947380Y-107196009D01*
X151947380Y-107196009D02*
X151947380Y-107291247D01*
X151947380Y-107291247D02*
X152423570Y-107386485D01*
X151614046Y-107053152D02*
X151375951Y-107719819D01*
X151375951Y-107719819D02*
X151137856Y-107053152D01*
X150756903Y-107624580D02*
X150709284Y-107672200D01*
X150709284Y-107672200D02*
X150756903Y-107719819D01*
X150756903Y-107719819D02*
X150804522Y-107672200D01*
X150804522Y-107672200D02*
X150756903Y-107624580D01*
X150756903Y-107624580D02*
X150756903Y-107719819D01*
X148994999Y-107719819D02*
X149566427Y-107719819D01*
X149280713Y-107719819D02*
X149280713Y-106719819D01*
X149280713Y-106719819D02*
X149375951Y-106862676D01*
X149375951Y-106862676D02*
X149471189Y-106957914D01*
X149471189Y-106957914D02*
X149566427Y-107005533D01*
X148566427Y-107624580D02*
X148518808Y-107672200D01*
X148518808Y-107672200D02*
X148566427Y-107719819D01*
X148566427Y-107719819D02*
X148614046Y-107672200D01*
X148614046Y-107672200D02*
X148566427Y-107624580D01*
X148566427Y-107624580D02*
X148566427Y-107719819D01*
X147899761Y-106719819D02*
X147804523Y-106719819D01*
X147804523Y-106719819D02*
X147709285Y-106767438D01*
X147709285Y-106767438D02*
X147661666Y-106815057D01*
X147661666Y-106815057D02*
X147614047Y-106910295D01*
X147614047Y-106910295D02*
X147566428Y-107100771D01*
X147566428Y-107100771D02*
X147566428Y-107338866D01*
X147566428Y-107338866D02*
X147614047Y-107529342D01*
X147614047Y-107529342D02*
X147661666Y-107624580D01*
X147661666Y-107624580D02*
X147709285Y-107672200D01*
X147709285Y-107672200D02*
X147804523Y-107719819D01*
X147804523Y-107719819D02*
X147899761Y-107719819D01*
X147899761Y-107719819D02*
X147994999Y-107672200D01*
X147994999Y-107672200D02*
X148042618Y-107624580D01*
X148042618Y-107624580D02*
X148090237Y-107529342D01*
X148090237Y-107529342D02*
X148137856Y-107338866D01*
X148137856Y-107338866D02*
X148137856Y-107100771D01*
X148137856Y-107100771D02*
X148090237Y-106910295D01*
X148090237Y-106910295D02*
X148042618Y-106815057D01*
X148042618Y-106815057D02*
X147994999Y-106767438D01*
X147994999Y-106767438D02*
X147899761Y-106719819D01*
X162743094Y-80494819D02*
X162743094Y-79494819D01*
X162743094Y-79494819D02*
X162504999Y-79494819D01*
X162504999Y-79494819D02*
X162362142Y-79542438D01*
X162362142Y-79542438D02*
X162266904Y-79637676D01*
X162266904Y-79637676D02*
X162219285Y-79732914D01*
X162219285Y-79732914D02*
X162171666Y-79923390D01*
X162171666Y-79923390D02*
X162171666Y-80066247D01*
X162171666Y-80066247D02*
X162219285Y-80256723D01*
X162219285Y-80256723D02*
X162266904Y-80351961D01*
X162266904Y-80351961D02*
X162362142Y-80447200D01*
X162362142Y-80447200D02*
X162504999Y-80494819D01*
X162504999Y-80494819D02*
X162743094Y-80494819D01*
X161695475Y-80494819D02*
X161504999Y-80494819D01*
X161504999Y-80494819D02*
X161409761Y-80447200D01*
X161409761Y-80447200D02*
X161362142Y-80399580D01*
X161362142Y-80399580D02*
X161266904Y-80256723D01*
X161266904Y-80256723D02*
X161219285Y-80066247D01*
X161219285Y-80066247D02*
X161219285Y-79685295D01*
X161219285Y-79685295D02*
X161266904Y-79590057D01*
X161266904Y-79590057D02*
X161314523Y-79542438D01*
X161314523Y-79542438D02*
X161409761Y-79494819D01*
X161409761Y-79494819D02*
X161600237Y-79494819D01*
X161600237Y-79494819D02*
X161695475Y-79542438D01*
X161695475Y-79542438D02*
X161743094Y-79590057D01*
X161743094Y-79590057D02*
X161790713Y-79685295D01*
X161790713Y-79685295D02*
X161790713Y-79923390D01*
X161790713Y-79923390D02*
X161743094Y-80018628D01*
X161743094Y-80018628D02*
X161695475Y-80066247D01*
X161695475Y-80066247D02*
X161600237Y-80113866D01*
X161600237Y-80113866D02*
X161409761Y-80113866D01*
X161409761Y-80113866D02*
X161314523Y-80066247D01*
X161314523Y-80066247D02*
X161266904Y-80018628D01*
X161266904Y-80018628D02*
X161219285Y-79923390D01*
X176347285Y-94994819D02*
X176347285Y-93994819D01*
X176347285Y-93994819D02*
X176109190Y-93994819D01*
X176109190Y-93994819D02*
X175966333Y-94042438D01*
X175966333Y-94042438D02*
X175871095Y-94137676D01*
X175871095Y-94137676D02*
X175823476Y-94232914D01*
X175823476Y-94232914D02*
X175775857Y-94423390D01*
X175775857Y-94423390D02*
X175775857Y-94566247D01*
X175775857Y-94566247D02*
X175823476Y-94756723D01*
X175823476Y-94756723D02*
X175871095Y-94851961D01*
X175871095Y-94851961D02*
X175966333Y-94947200D01*
X175966333Y-94947200D02*
X176109190Y-94994819D01*
X176109190Y-94994819D02*
X176347285Y-94994819D01*
X174823476Y-94994819D02*
X175394904Y-94994819D01*
X175109190Y-94994819D02*
X175109190Y-93994819D01*
X175109190Y-93994819D02*
X175204428Y-94137676D01*
X175204428Y-94137676D02*
X175299666Y-94232914D01*
X175299666Y-94232914D02*
X175394904Y-94280533D01*
X174204428Y-93994819D02*
X174109190Y-93994819D01*
X174109190Y-93994819D02*
X174013952Y-94042438D01*
X174013952Y-94042438D02*
X173966333Y-94090057D01*
X173966333Y-94090057D02*
X173918714Y-94185295D01*
X173918714Y-94185295D02*
X173871095Y-94375771D01*
X173871095Y-94375771D02*
X173871095Y-94613866D01*
X173871095Y-94613866D02*
X173918714Y-94804342D01*
X173918714Y-94804342D02*
X173966333Y-94899580D01*
X173966333Y-94899580D02*
X174013952Y-94947200D01*
X174013952Y-94947200D02*
X174109190Y-94994819D01*
X174109190Y-94994819D02*
X174204428Y-94994819D01*
X174204428Y-94994819D02*
X174299666Y-94947200D01*
X174299666Y-94947200D02*
X174347285Y-94899580D01*
X174347285Y-94899580D02*
X174394904Y-94804342D01*
X174394904Y-94804342D02*
X174442523Y-94613866D01*
X174442523Y-94613866D02*
X174442523Y-94375771D01*
X174442523Y-94375771D02*
X174394904Y-94185295D01*
X174394904Y-94185295D02*
X174347285Y-94090057D01*
X174347285Y-94090057D02*
X174299666Y-94042438D01*
X174299666Y-94042438D02*
X174204428Y-93994819D01*
X139623094Y-80494819D02*
X139623094Y-79494819D01*
X139623094Y-79494819D02*
X139384999Y-79494819D01*
X139384999Y-79494819D02*
X139242142Y-79542438D01*
X139242142Y-79542438D02*
X139146904Y-79637676D01*
X139146904Y-79637676D02*
X139099285Y-79732914D01*
X139099285Y-79732914D02*
X139051666Y-79923390D01*
X139051666Y-79923390D02*
X139051666Y-80066247D01*
X139051666Y-80066247D02*
X139099285Y-80256723D01*
X139099285Y-80256723D02*
X139146904Y-80351961D01*
X139146904Y-80351961D02*
X139242142Y-80447200D01*
X139242142Y-80447200D02*
X139384999Y-80494819D01*
X139384999Y-80494819D02*
X139623094Y-80494819D01*
X138194523Y-79828152D02*
X138194523Y-80494819D01*
X138432618Y-79447200D02*
X138670713Y-80161485D01*
X138670713Y-80161485D02*
X138051666Y-80161485D01*
X151233094Y-55191819D02*
X151233094Y-54191819D01*
X151233094Y-54191819D02*
X150994999Y-54191819D01*
X150994999Y-54191819D02*
X150852142Y-54239438D01*
X150852142Y-54239438D02*
X150756904Y-54334676D01*
X150756904Y-54334676D02*
X150709285Y-54429914D01*
X150709285Y-54429914D02*
X150661666Y-54620390D01*
X150661666Y-54620390D02*
X150661666Y-54763247D01*
X150661666Y-54763247D02*
X150709285Y-54953723D01*
X150709285Y-54953723D02*
X150756904Y-55048961D01*
X150756904Y-55048961D02*
X150852142Y-55144200D01*
X150852142Y-55144200D02*
X150994999Y-55191819D01*
X150994999Y-55191819D02*
X151233094Y-55191819D01*
X150328332Y-54191819D02*
X149661666Y-54191819D01*
X149661666Y-54191819D02*
X150090237Y-55191819D01*
X126595094Y-94994819D02*
X126595094Y-93994819D01*
X126595094Y-93994819D02*
X126356999Y-93994819D01*
X126356999Y-93994819D02*
X126214142Y-94042438D01*
X126214142Y-94042438D02*
X126118904Y-94137676D01*
X126118904Y-94137676D02*
X126071285Y-94232914D01*
X126071285Y-94232914D02*
X126023666Y-94423390D01*
X126023666Y-94423390D02*
X126023666Y-94566247D01*
X126023666Y-94566247D02*
X126071285Y-94756723D01*
X126071285Y-94756723D02*
X126118904Y-94851961D01*
X126118904Y-94851961D02*
X126214142Y-94947200D01*
X126214142Y-94947200D02*
X126356999Y-94994819D01*
X126356999Y-94994819D02*
X126595094Y-94994819D01*
X125690332Y-93994819D02*
X125071285Y-93994819D01*
X125071285Y-93994819D02*
X125404618Y-94375771D01*
X125404618Y-94375771D02*
X125261761Y-94375771D01*
X125261761Y-94375771D02*
X125166523Y-94423390D01*
X125166523Y-94423390D02*
X125118904Y-94471009D01*
X125118904Y-94471009D02*
X125071285Y-94566247D01*
X125071285Y-94566247D02*
X125071285Y-94804342D01*
X125071285Y-94804342D02*
X125118904Y-94899580D01*
X125118904Y-94899580D02*
X125166523Y-94947200D01*
X125166523Y-94947200D02*
X125261761Y-94994819D01*
X125261761Y-94994819D02*
X125547475Y-94994819D01*
X125547475Y-94994819D02*
X125642713Y-94947200D01*
X125642713Y-94947200D02*
X125690332Y-94899580D01*
X118721094Y-122473819D02*
X118721094Y-121473819D01*
X118721094Y-121473819D02*
X118482999Y-121473819D01*
X118482999Y-121473819D02*
X118340142Y-121521438D01*
X118340142Y-121521438D02*
X118244904Y-121616676D01*
X118244904Y-121616676D02*
X118197285Y-121711914D01*
X118197285Y-121711914D02*
X118149666Y-121902390D01*
X118149666Y-121902390D02*
X118149666Y-122045247D01*
X118149666Y-122045247D02*
X118197285Y-122235723D01*
X118197285Y-122235723D02*
X118244904Y-122330961D01*
X118244904Y-122330961D02*
X118340142Y-122426200D01*
X118340142Y-122426200D02*
X118482999Y-122473819D01*
X118482999Y-122473819D02*
X118721094Y-122473819D01*
X117768713Y-121569057D02*
X117721094Y-121521438D01*
X117721094Y-121521438D02*
X117625856Y-121473819D01*
X117625856Y-121473819D02*
X117387761Y-121473819D01*
X117387761Y-121473819D02*
X117292523Y-121521438D01*
X117292523Y-121521438D02*
X117244904Y-121569057D01*
X117244904Y-121569057D02*
X117197285Y-121664295D01*
X117197285Y-121664295D02*
X117197285Y-121759533D01*
X117197285Y-121759533D02*
X117244904Y-121902390D01*
X117244904Y-121902390D02*
X117816332Y-122473819D01*
X117816332Y-122473819D02*
X117197285Y-122473819D01*
X169013094Y-68884819D02*
X169013094Y-67884819D01*
X169013094Y-67884819D02*
X168774999Y-67884819D01*
X168774999Y-67884819D02*
X168632142Y-67932438D01*
X168632142Y-67932438D02*
X168536904Y-68027676D01*
X168536904Y-68027676D02*
X168489285Y-68122914D01*
X168489285Y-68122914D02*
X168441666Y-68313390D01*
X168441666Y-68313390D02*
X168441666Y-68456247D01*
X168441666Y-68456247D02*
X168489285Y-68646723D01*
X168489285Y-68646723D02*
X168536904Y-68741961D01*
X168536904Y-68741961D02*
X168632142Y-68837200D01*
X168632142Y-68837200D02*
X168774999Y-68884819D01*
X168774999Y-68884819D02*
X169013094Y-68884819D01*
X167870237Y-68313390D02*
X167965475Y-68265771D01*
X167965475Y-68265771D02*
X168013094Y-68218152D01*
X168013094Y-68218152D02*
X168060713Y-68122914D01*
X168060713Y-68122914D02*
X168060713Y-68075295D01*
X168060713Y-68075295D02*
X168013094Y-67980057D01*
X168013094Y-67980057D02*
X167965475Y-67932438D01*
X167965475Y-67932438D02*
X167870237Y-67884819D01*
X167870237Y-67884819D02*
X167679761Y-67884819D01*
X167679761Y-67884819D02*
X167584523Y-67932438D01*
X167584523Y-67932438D02*
X167536904Y-67980057D01*
X167536904Y-67980057D02*
X167489285Y-68075295D01*
X167489285Y-68075295D02*
X167489285Y-68122914D01*
X167489285Y-68122914D02*
X167536904Y-68218152D01*
X167536904Y-68218152D02*
X167584523Y-68265771D01*
X167584523Y-68265771D02*
X167679761Y-68313390D01*
X167679761Y-68313390D02*
X167870237Y-68313390D01*
X167870237Y-68313390D02*
X167965475Y-68361009D01*
X167965475Y-68361009D02*
X168013094Y-68408628D01*
X168013094Y-68408628D02*
X168060713Y-68503866D01*
X168060713Y-68503866D02*
X168060713Y-68694342D01*
X168060713Y-68694342D02*
X168013094Y-68789580D01*
X168013094Y-68789580D02*
X167965475Y-68837200D01*
X167965475Y-68837200D02*
X167870237Y-68884819D01*
X167870237Y-68884819D02*
X167679761Y-68884819D01*
X167679761Y-68884819D02*
X167584523Y-68837200D01*
X167584523Y-68837200D02*
X167536904Y-68789580D01*
X167536904Y-68789580D02*
X167489285Y-68694342D01*
X167489285Y-68694342D02*
X167489285Y-68503866D01*
X167489285Y-68503866D02*
X167536904Y-68408628D01*
X167536904Y-68408628D02*
X167584523Y-68361009D01*
X167584523Y-68361009D02*
X167679761Y-68313390D01*
X184475285Y-122473819D02*
X184475285Y-121473819D01*
X184475285Y-121473819D02*
X184237190Y-121473819D01*
X184237190Y-121473819D02*
X184094333Y-121521438D01*
X184094333Y-121521438D02*
X183999095Y-121616676D01*
X183999095Y-121616676D02*
X183951476Y-121711914D01*
X183951476Y-121711914D02*
X183903857Y-121902390D01*
X183903857Y-121902390D02*
X183903857Y-122045247D01*
X183903857Y-122045247D02*
X183951476Y-122235723D01*
X183951476Y-122235723D02*
X183999095Y-122330961D01*
X183999095Y-122330961D02*
X184094333Y-122426200D01*
X184094333Y-122426200D02*
X184237190Y-122473819D01*
X184237190Y-122473819D02*
X184475285Y-122473819D01*
X182951476Y-122473819D02*
X183522904Y-122473819D01*
X183237190Y-122473819D02*
X183237190Y-121473819D01*
X183237190Y-121473819D02*
X183332428Y-121616676D01*
X183332428Y-121616676D02*
X183427666Y-121711914D01*
X183427666Y-121711914D02*
X183522904Y-121759533D01*
X181999095Y-122473819D02*
X182570523Y-122473819D01*
X182284809Y-122473819D02*
X182284809Y-121473819D01*
X182284809Y-121473819D02*
X182380047Y-121616676D01*
X182380047Y-121616676D02*
X182475285Y-121711914D01*
X182475285Y-121711914D02*
X182570523Y-121759533D01*
X133707094Y-68884819D02*
X133707094Y-67884819D01*
X133707094Y-67884819D02*
X133468999Y-67884819D01*
X133468999Y-67884819D02*
X133326142Y-67932438D01*
X133326142Y-67932438D02*
X133230904Y-68027676D01*
X133230904Y-68027676D02*
X133183285Y-68122914D01*
X133183285Y-68122914D02*
X133135666Y-68313390D01*
X133135666Y-68313390D02*
X133135666Y-68456247D01*
X133135666Y-68456247D02*
X133183285Y-68646723D01*
X133183285Y-68646723D02*
X133230904Y-68741961D01*
X133230904Y-68741961D02*
X133326142Y-68837200D01*
X133326142Y-68837200D02*
X133468999Y-68884819D01*
X133468999Y-68884819D02*
X133707094Y-68884819D01*
X132230904Y-67884819D02*
X132707094Y-67884819D01*
X132707094Y-67884819D02*
X132754713Y-68361009D01*
X132754713Y-68361009D02*
X132707094Y-68313390D01*
X132707094Y-68313390D02*
X132611856Y-68265771D01*
X132611856Y-68265771D02*
X132373761Y-68265771D01*
X132373761Y-68265771D02*
X132278523Y-68313390D01*
X132278523Y-68313390D02*
X132230904Y-68361009D01*
X132230904Y-68361009D02*
X132183285Y-68456247D01*
X132183285Y-68456247D02*
X132183285Y-68694342D01*
X132183285Y-68694342D02*
X132230904Y-68789580D01*
X132230904Y-68789580D02*
X132278523Y-68837200D01*
X132278523Y-68837200D02*
X132373761Y-68884819D01*
X132373761Y-68884819D02*
X132611856Y-68884819D01*
X132611856Y-68884819D02*
X132707094Y-68837200D01*
X132707094Y-68837200D02*
X132754713Y-68789580D01*
X151243094Y-61994819D02*
X151243094Y-60994819D01*
X151243094Y-60994819D02*
X151004999Y-60994819D01*
X151004999Y-60994819D02*
X150862142Y-61042438D01*
X150862142Y-61042438D02*
X150766904Y-61137676D01*
X150766904Y-61137676D02*
X150719285Y-61232914D01*
X150719285Y-61232914D02*
X150671666Y-61423390D01*
X150671666Y-61423390D02*
X150671666Y-61566247D01*
X150671666Y-61566247D02*
X150719285Y-61756723D01*
X150719285Y-61756723D02*
X150766904Y-61851961D01*
X150766904Y-61851961D02*
X150862142Y-61947200D01*
X150862142Y-61947200D02*
X151004999Y-61994819D01*
X151004999Y-61994819D02*
X151243094Y-61994819D01*
X149814523Y-60994819D02*
X150004999Y-60994819D01*
X150004999Y-60994819D02*
X150100237Y-61042438D01*
X150100237Y-61042438D02*
X150147856Y-61090057D01*
X150147856Y-61090057D02*
X150243094Y-61232914D01*
X150243094Y-61232914D02*
X150290713Y-61423390D01*
X150290713Y-61423390D02*
X150290713Y-61804342D01*
X150290713Y-61804342D02*
X150243094Y-61899580D01*
X150243094Y-61899580D02*
X150195475Y-61947200D01*
X150195475Y-61947200D02*
X150100237Y-61994819D01*
X150100237Y-61994819D02*
X149909761Y-61994819D01*
X149909761Y-61994819D02*
X149814523Y-61947200D01*
X149814523Y-61947200D02*
X149766904Y-61899580D01*
X149766904Y-61899580D02*
X149719285Y-61804342D01*
X149719285Y-61804342D02*
X149719285Y-61566247D01*
X149719285Y-61566247D02*
X149766904Y-61471009D01*
X149766904Y-61471009D02*
X149814523Y-61423390D01*
X149814523Y-61423390D02*
X149909761Y-61375771D01*
X149909761Y-61375771D02*
X150100237Y-61375771D01*
X150100237Y-61375771D02*
X150195475Y-61423390D01*
X150195475Y-61423390D02*
X150243094Y-61471009D01*
X150243094Y-61471009D02*
X150290713Y-61566247D01*
X151233094Y-111429819D02*
X151233094Y-110429819D01*
X151233094Y-110429819D02*
X150994999Y-110429819D01*
X150994999Y-110429819D02*
X150852142Y-110477438D01*
X150852142Y-110477438D02*
X150756904Y-110572676D01*
X150756904Y-110572676D02*
X150709285Y-110667914D01*
X150709285Y-110667914D02*
X150661666Y-110858390D01*
X150661666Y-110858390D02*
X150661666Y-111001247D01*
X150661666Y-111001247D02*
X150709285Y-111191723D01*
X150709285Y-111191723D02*
X150756904Y-111286961D01*
X150756904Y-111286961D02*
X150852142Y-111382200D01*
X150852142Y-111382200D02*
X150994999Y-111429819D01*
X150994999Y-111429819D02*
X151233094Y-111429819D01*
X149709285Y-111429819D02*
X150280713Y-111429819D01*
X149994999Y-111429819D02*
X149994999Y-110429819D01*
X149994999Y-110429819D02*
X150090237Y-110572676D01*
X150090237Y-110572676D02*
X150185475Y-110667914D01*
X150185475Y-110667914D02*
X150280713Y-110715533D01*
X155842411Y-134856438D02*
X155937649Y-134808819D01*
X155937649Y-134808819D02*
X156080506Y-134808819D01*
X156080506Y-134808819D02*
X156223363Y-134856438D01*
X156223363Y-134856438D02*
X156318601Y-134951676D01*
X156318601Y-134951676D02*
X156366220Y-135046914D01*
X156366220Y-135046914D02*
X156413839Y-135237390D01*
X156413839Y-135237390D02*
X156413839Y-135380247D01*
X156413839Y-135380247D02*
X156366220Y-135570723D01*
X156366220Y-135570723D02*
X156318601Y-135665961D01*
X156318601Y-135665961D02*
X156223363Y-135761200D01*
X156223363Y-135761200D02*
X156080506Y-135808819D01*
X156080506Y-135808819D02*
X155985268Y-135808819D01*
X155985268Y-135808819D02*
X155842411Y-135761200D01*
X155842411Y-135761200D02*
X155794792Y-135713580D01*
X155794792Y-135713580D02*
X155794792Y-135380247D01*
X155794792Y-135380247D02*
X155985268Y-135380247D01*
X155366220Y-135808819D02*
X155366220Y-134808819D01*
X155366220Y-134808819D02*
X154985268Y-134808819D01*
X154985268Y-134808819D02*
X154890030Y-134856438D01*
X154890030Y-134856438D02*
X154842411Y-134904057D01*
X154842411Y-134904057D02*
X154794792Y-134999295D01*
X154794792Y-134999295D02*
X154794792Y-135142152D01*
X154794792Y-135142152D02*
X154842411Y-135237390D01*
X154842411Y-135237390D02*
X154890030Y-135285009D01*
X154890030Y-135285009D02*
X154985268Y-135332628D01*
X154985268Y-135332628D02*
X155366220Y-135332628D01*
X154366220Y-135808819D02*
X154366220Y-134808819D01*
X153699554Y-134808819D02*
X153509078Y-134808819D01*
X153509078Y-134808819D02*
X153413840Y-134856438D01*
X153413840Y-134856438D02*
X153318602Y-134951676D01*
X153318602Y-134951676D02*
X153270983Y-135142152D01*
X153270983Y-135142152D02*
X153270983Y-135475485D01*
X153270983Y-135475485D02*
X153318602Y-135665961D01*
X153318602Y-135665961D02*
X153413840Y-135761200D01*
X153413840Y-135761200D02*
X153509078Y-135808819D01*
X153509078Y-135808819D02*
X153699554Y-135808819D01*
X153699554Y-135808819D02*
X153794792Y-135761200D01*
X153794792Y-135761200D02*
X153890030Y-135665961D01*
X153890030Y-135665961D02*
X153937649Y-135475485D01*
X153937649Y-135475485D02*
X153937649Y-135142152D01*
X153937649Y-135142152D02*
X153890030Y-134951676D01*
X153890030Y-134951676D02*
X153794792Y-134856438D01*
X153794792Y-134856438D02*
X153699554Y-134808819D01*
X152890030Y-134904057D02*
X152842411Y-134856438D01*
X152842411Y-134856438D02*
X152747173Y-134808819D01*
X152747173Y-134808819D02*
X152509078Y-134808819D01*
X152509078Y-134808819D02*
X152413840Y-134856438D01*
X152413840Y-134856438D02*
X152366221Y-134904057D01*
X152366221Y-134904057D02*
X152318602Y-134999295D01*
X152318602Y-134999295D02*
X152318602Y-135094533D01*
X152318602Y-135094533D02*
X152366221Y-135237390D01*
X152366221Y-135237390D02*
X152937649Y-135808819D01*
X152937649Y-135808819D02*
X152318602Y-135808819D01*
X151699554Y-134808819D02*
X151604316Y-134808819D01*
X151604316Y-134808819D02*
X151509078Y-134856438D01*
X151509078Y-134856438D02*
X151461459Y-134904057D01*
X151461459Y-134904057D02*
X151413840Y-134999295D01*
X151413840Y-134999295D02*
X151366221Y-135189771D01*
X151366221Y-135189771D02*
X151366221Y-135427866D01*
X151366221Y-135427866D02*
X151413840Y-135618342D01*
X151413840Y-135618342D02*
X151461459Y-135713580D01*
X151461459Y-135713580D02*
X151509078Y-135761200D01*
X151509078Y-135761200D02*
X151604316Y-135808819D01*
X151604316Y-135808819D02*
X151699554Y-135808819D01*
X151699554Y-135808819D02*
X151794792Y-135761200D01*
X151794792Y-135761200D02*
X151842411Y-135713580D01*
X151842411Y-135713580D02*
X151890030Y-135618342D01*
X151890030Y-135618342D02*
X151937649Y-135427866D01*
X151937649Y-135427866D02*
X151937649Y-135189771D01*
X151937649Y-135189771D02*
X151890030Y-134999295D01*
X151890030Y-134999295D02*
X151842411Y-134904057D01*
X151842411Y-134904057D02*
X151794792Y-134856438D01*
X151794792Y-134856438D02*
X151699554Y-134808819D01*
X155842411Y-119616438D02*
X155937649Y-119568819D01*
X155937649Y-119568819D02*
X156080506Y-119568819D01*
X156080506Y-119568819D02*
X156223363Y-119616438D01*
X156223363Y-119616438D02*
X156318601Y-119711676D01*
X156318601Y-119711676D02*
X156366220Y-119806914D01*
X156366220Y-119806914D02*
X156413839Y-119997390D01*
X156413839Y-119997390D02*
X156413839Y-120140247D01*
X156413839Y-120140247D02*
X156366220Y-120330723D01*
X156366220Y-120330723D02*
X156318601Y-120425961D01*
X156318601Y-120425961D02*
X156223363Y-120521200D01*
X156223363Y-120521200D02*
X156080506Y-120568819D01*
X156080506Y-120568819D02*
X155985268Y-120568819D01*
X155985268Y-120568819D02*
X155842411Y-120521200D01*
X155842411Y-120521200D02*
X155794792Y-120473580D01*
X155794792Y-120473580D02*
X155794792Y-120140247D01*
X155794792Y-120140247D02*
X155985268Y-120140247D01*
X155366220Y-120568819D02*
X155366220Y-119568819D01*
X155366220Y-119568819D02*
X154985268Y-119568819D01*
X154985268Y-119568819D02*
X154890030Y-119616438D01*
X154890030Y-119616438D02*
X154842411Y-119664057D01*
X154842411Y-119664057D02*
X154794792Y-119759295D01*
X154794792Y-119759295D02*
X154794792Y-119902152D01*
X154794792Y-119902152D02*
X154842411Y-119997390D01*
X154842411Y-119997390D02*
X154890030Y-120045009D01*
X154890030Y-120045009D02*
X154985268Y-120092628D01*
X154985268Y-120092628D02*
X155366220Y-120092628D01*
X154366220Y-120568819D02*
X154366220Y-119568819D01*
X153699554Y-119568819D02*
X153509078Y-119568819D01*
X153509078Y-119568819D02*
X153413840Y-119616438D01*
X153413840Y-119616438D02*
X153318602Y-119711676D01*
X153318602Y-119711676D02*
X153270983Y-119902152D01*
X153270983Y-119902152D02*
X153270983Y-120235485D01*
X153270983Y-120235485D02*
X153318602Y-120425961D01*
X153318602Y-120425961D02*
X153413840Y-120521200D01*
X153413840Y-120521200D02*
X153509078Y-120568819D01*
X153509078Y-120568819D02*
X153699554Y-120568819D01*
X153699554Y-120568819D02*
X153794792Y-120521200D01*
X153794792Y-120521200D02*
X153890030Y-120425961D01*
X153890030Y-120425961D02*
X153937649Y-120235485D01*
X153937649Y-120235485D02*
X153937649Y-119902152D01*
X153937649Y-119902152D02*
X153890030Y-119711676D01*
X153890030Y-119711676D02*
X153794792Y-119616438D01*
X153794792Y-119616438D02*
X153699554Y-119568819D01*
X152366221Y-119568819D02*
X152842411Y-119568819D01*
X152842411Y-119568819D02*
X152890030Y-120045009D01*
X152890030Y-120045009D02*
X152842411Y-119997390D01*
X152842411Y-119997390D02*
X152747173Y-119949771D01*
X152747173Y-119949771D02*
X152509078Y-119949771D01*
X152509078Y-119949771D02*
X152413840Y-119997390D01*
X152413840Y-119997390D02*
X152366221Y-120045009D01*
X152366221Y-120045009D02*
X152318602Y-120140247D01*
X152318602Y-120140247D02*
X152318602Y-120378342D01*
X152318602Y-120378342D02*
X152366221Y-120473580D01*
X152366221Y-120473580D02*
X152413840Y-120521200D01*
X152413840Y-120521200D02*
X152509078Y-120568819D01*
X152509078Y-120568819D02*
X152747173Y-120568819D01*
X152747173Y-120568819D02*
X152842411Y-120521200D01*
X152842411Y-120521200D02*
X152890030Y-120473580D01*
X148323969Y-132316438D02*
X148419207Y-132268819D01*
X148419207Y-132268819D02*
X148562064Y-132268819D01*
X148562064Y-132268819D02*
X148704921Y-132316438D01*
X148704921Y-132316438D02*
X148800159Y-132411676D01*
X148800159Y-132411676D02*
X148847778Y-132506914D01*
X148847778Y-132506914D02*
X148895397Y-132697390D01*
X148895397Y-132697390D02*
X148895397Y-132840247D01*
X148895397Y-132840247D02*
X148847778Y-133030723D01*
X148847778Y-133030723D02*
X148800159Y-133125961D01*
X148800159Y-133125961D02*
X148704921Y-133221200D01*
X148704921Y-133221200D02*
X148562064Y-133268819D01*
X148562064Y-133268819D02*
X148466826Y-133268819D01*
X148466826Y-133268819D02*
X148323969Y-133221200D01*
X148323969Y-133221200D02*
X148276350Y-133173580D01*
X148276350Y-133173580D02*
X148276350Y-132840247D01*
X148276350Y-132840247D02*
X148466826Y-132840247D01*
X147847778Y-133268819D02*
X147847778Y-132268819D01*
X147847778Y-132268819D02*
X147466826Y-132268819D01*
X147466826Y-132268819D02*
X147371588Y-132316438D01*
X147371588Y-132316438D02*
X147323969Y-132364057D01*
X147323969Y-132364057D02*
X147276350Y-132459295D01*
X147276350Y-132459295D02*
X147276350Y-132602152D01*
X147276350Y-132602152D02*
X147323969Y-132697390D01*
X147323969Y-132697390D02*
X147371588Y-132745009D01*
X147371588Y-132745009D02*
X147466826Y-132792628D01*
X147466826Y-132792628D02*
X147847778Y-132792628D01*
X146847778Y-133268819D02*
X146847778Y-132268819D01*
X146181112Y-132268819D02*
X145990636Y-132268819D01*
X145990636Y-132268819D02*
X145895398Y-132316438D01*
X145895398Y-132316438D02*
X145800160Y-132411676D01*
X145800160Y-132411676D02*
X145752541Y-132602152D01*
X145752541Y-132602152D02*
X145752541Y-132935485D01*
X145752541Y-132935485D02*
X145800160Y-133125961D01*
X145800160Y-133125961D02*
X145895398Y-133221200D01*
X145895398Y-133221200D02*
X145990636Y-133268819D01*
X145990636Y-133268819D02*
X146181112Y-133268819D01*
X146181112Y-133268819D02*
X146276350Y-133221200D01*
X146276350Y-133221200D02*
X146371588Y-133125961D01*
X146371588Y-133125961D02*
X146419207Y-132935485D01*
X146419207Y-132935485D02*
X146419207Y-132602152D01*
X146419207Y-132602152D02*
X146371588Y-132411676D01*
X146371588Y-132411676D02*
X146276350Y-132316438D01*
X146276350Y-132316438D02*
X146181112Y-132268819D01*
X145371588Y-132364057D02*
X145323969Y-132316438D01*
X145323969Y-132316438D02*
X145228731Y-132268819D01*
X145228731Y-132268819D02*
X144990636Y-132268819D01*
X144990636Y-132268819D02*
X144895398Y-132316438D01*
X144895398Y-132316438D02*
X144847779Y-132364057D01*
X144847779Y-132364057D02*
X144800160Y-132459295D01*
X144800160Y-132459295D02*
X144800160Y-132554533D01*
X144800160Y-132554533D02*
X144847779Y-132697390D01*
X144847779Y-132697390D02*
X145419207Y-133268819D01*
X145419207Y-133268819D02*
X144800160Y-133268819D01*
X155842411Y-137396438D02*
X155937649Y-137348819D01*
X155937649Y-137348819D02*
X156080506Y-137348819D01*
X156080506Y-137348819D02*
X156223363Y-137396438D01*
X156223363Y-137396438D02*
X156318601Y-137491676D01*
X156318601Y-137491676D02*
X156366220Y-137586914D01*
X156366220Y-137586914D02*
X156413839Y-137777390D01*
X156413839Y-137777390D02*
X156413839Y-137920247D01*
X156413839Y-137920247D02*
X156366220Y-138110723D01*
X156366220Y-138110723D02*
X156318601Y-138205961D01*
X156318601Y-138205961D02*
X156223363Y-138301200D01*
X156223363Y-138301200D02*
X156080506Y-138348819D01*
X156080506Y-138348819D02*
X155985268Y-138348819D01*
X155985268Y-138348819D02*
X155842411Y-138301200D01*
X155842411Y-138301200D02*
X155794792Y-138253580D01*
X155794792Y-138253580D02*
X155794792Y-137920247D01*
X155794792Y-137920247D02*
X155985268Y-137920247D01*
X155366220Y-138348819D02*
X155366220Y-137348819D01*
X155366220Y-137348819D02*
X154985268Y-137348819D01*
X154985268Y-137348819D02*
X154890030Y-137396438D01*
X154890030Y-137396438D02*
X154842411Y-137444057D01*
X154842411Y-137444057D02*
X154794792Y-137539295D01*
X154794792Y-137539295D02*
X154794792Y-137682152D01*
X154794792Y-137682152D02*
X154842411Y-137777390D01*
X154842411Y-137777390D02*
X154890030Y-137825009D01*
X154890030Y-137825009D02*
X154985268Y-137872628D01*
X154985268Y-137872628D02*
X155366220Y-137872628D01*
X154366220Y-138348819D02*
X154366220Y-137348819D01*
X153699554Y-137348819D02*
X153509078Y-137348819D01*
X153509078Y-137348819D02*
X153413840Y-137396438D01*
X153413840Y-137396438D02*
X153318602Y-137491676D01*
X153318602Y-137491676D02*
X153270983Y-137682152D01*
X153270983Y-137682152D02*
X153270983Y-138015485D01*
X153270983Y-138015485D02*
X153318602Y-138205961D01*
X153318602Y-138205961D02*
X153413840Y-138301200D01*
X153413840Y-138301200D02*
X153509078Y-138348819D01*
X153509078Y-138348819D02*
X153699554Y-138348819D01*
X153699554Y-138348819D02*
X153794792Y-138301200D01*
X153794792Y-138301200D02*
X153890030Y-138205961D01*
X153890030Y-138205961D02*
X153937649Y-138015485D01*
X153937649Y-138015485D02*
X153937649Y-137682152D01*
X153937649Y-137682152D02*
X153890030Y-137491676D01*
X153890030Y-137491676D02*
X153794792Y-137396438D01*
X153794792Y-137396438D02*
X153699554Y-137348819D01*
X152890030Y-137444057D02*
X152842411Y-137396438D01*
X152842411Y-137396438D02*
X152747173Y-137348819D01*
X152747173Y-137348819D02*
X152509078Y-137348819D01*
X152509078Y-137348819D02*
X152413840Y-137396438D01*
X152413840Y-137396438D02*
X152366221Y-137444057D01*
X152366221Y-137444057D02*
X152318602Y-137539295D01*
X152318602Y-137539295D02*
X152318602Y-137634533D01*
X152318602Y-137634533D02*
X152366221Y-137777390D01*
X152366221Y-137777390D02*
X152937649Y-138348819D01*
X152937649Y-138348819D02*
X152318602Y-138348819D01*
X151366221Y-138348819D02*
X151937649Y-138348819D01*
X151651935Y-138348819D02*
X151651935Y-137348819D01*
X151651935Y-137348819D02*
X151747173Y-137491676D01*
X151747173Y-137491676D02*
X151842411Y-137586914D01*
X151842411Y-137586914D02*
X151937649Y-137634533D01*
X155842411Y-122156438D02*
X155937649Y-122108819D01*
X155937649Y-122108819D02*
X156080506Y-122108819D01*
X156080506Y-122108819D02*
X156223363Y-122156438D01*
X156223363Y-122156438D02*
X156318601Y-122251676D01*
X156318601Y-122251676D02*
X156366220Y-122346914D01*
X156366220Y-122346914D02*
X156413839Y-122537390D01*
X156413839Y-122537390D02*
X156413839Y-122680247D01*
X156413839Y-122680247D02*
X156366220Y-122870723D01*
X156366220Y-122870723D02*
X156318601Y-122965961D01*
X156318601Y-122965961D02*
X156223363Y-123061200D01*
X156223363Y-123061200D02*
X156080506Y-123108819D01*
X156080506Y-123108819D02*
X155985268Y-123108819D01*
X155985268Y-123108819D02*
X155842411Y-123061200D01*
X155842411Y-123061200D02*
X155794792Y-123013580D01*
X155794792Y-123013580D02*
X155794792Y-122680247D01*
X155794792Y-122680247D02*
X155985268Y-122680247D01*
X155366220Y-123108819D02*
X155366220Y-122108819D01*
X155366220Y-122108819D02*
X154985268Y-122108819D01*
X154985268Y-122108819D02*
X154890030Y-122156438D01*
X154890030Y-122156438D02*
X154842411Y-122204057D01*
X154842411Y-122204057D02*
X154794792Y-122299295D01*
X154794792Y-122299295D02*
X154794792Y-122442152D01*
X154794792Y-122442152D02*
X154842411Y-122537390D01*
X154842411Y-122537390D02*
X154890030Y-122585009D01*
X154890030Y-122585009D02*
X154985268Y-122632628D01*
X154985268Y-122632628D02*
X155366220Y-122632628D01*
X154366220Y-123108819D02*
X154366220Y-122108819D01*
X153699554Y-122108819D02*
X153509078Y-122108819D01*
X153509078Y-122108819D02*
X153413840Y-122156438D01*
X153413840Y-122156438D02*
X153318602Y-122251676D01*
X153318602Y-122251676D02*
X153270983Y-122442152D01*
X153270983Y-122442152D02*
X153270983Y-122775485D01*
X153270983Y-122775485D02*
X153318602Y-122965961D01*
X153318602Y-122965961D02*
X153413840Y-123061200D01*
X153413840Y-123061200D02*
X153509078Y-123108819D01*
X153509078Y-123108819D02*
X153699554Y-123108819D01*
X153699554Y-123108819D02*
X153794792Y-123061200D01*
X153794792Y-123061200D02*
X153890030Y-122965961D01*
X153890030Y-122965961D02*
X153937649Y-122775485D01*
X153937649Y-122775485D02*
X153937649Y-122442152D01*
X153937649Y-122442152D02*
X153890030Y-122251676D01*
X153890030Y-122251676D02*
X153794792Y-122156438D01*
X153794792Y-122156438D02*
X153699554Y-122108819D01*
X152413840Y-122108819D02*
X152604316Y-122108819D01*
X152604316Y-122108819D02*
X152699554Y-122156438D01*
X152699554Y-122156438D02*
X152747173Y-122204057D01*
X152747173Y-122204057D02*
X152842411Y-122346914D01*
X152842411Y-122346914D02*
X152890030Y-122537390D01*
X152890030Y-122537390D02*
X152890030Y-122918342D01*
X152890030Y-122918342D02*
X152842411Y-123013580D01*
X152842411Y-123013580D02*
X152794792Y-123061200D01*
X152794792Y-123061200D02*
X152699554Y-123108819D01*
X152699554Y-123108819D02*
X152509078Y-123108819D01*
X152509078Y-123108819D02*
X152413840Y-123061200D01*
X152413840Y-123061200D02*
X152366221Y-123013580D01*
X152366221Y-123013580D02*
X152318602Y-122918342D01*
X152318602Y-122918342D02*
X152318602Y-122680247D01*
X152318602Y-122680247D02*
X152366221Y-122585009D01*
X152366221Y-122585009D02*
X152413840Y-122537390D01*
X152413840Y-122537390D02*
X152509078Y-122489771D01*
X152509078Y-122489771D02*
X152699554Y-122489771D01*
X152699554Y-122489771D02*
X152794792Y-122537390D01*
X152794792Y-122537390D02*
X152842411Y-122585009D01*
X152842411Y-122585009D02*
X152890030Y-122680247D01*
X148323969Y-127236438D02*
X148419207Y-127188819D01*
X148419207Y-127188819D02*
X148562064Y-127188819D01*
X148562064Y-127188819D02*
X148704921Y-127236438D01*
X148704921Y-127236438D02*
X148800159Y-127331676D01*
X148800159Y-127331676D02*
X148847778Y-127426914D01*
X148847778Y-127426914D02*
X148895397Y-127617390D01*
X148895397Y-127617390D02*
X148895397Y-127760247D01*
X148895397Y-127760247D02*
X148847778Y-127950723D01*
X148847778Y-127950723D02*
X148800159Y-128045961D01*
X148800159Y-128045961D02*
X148704921Y-128141200D01*
X148704921Y-128141200D02*
X148562064Y-128188819D01*
X148562064Y-128188819D02*
X148466826Y-128188819D01*
X148466826Y-128188819D02*
X148323969Y-128141200D01*
X148323969Y-128141200D02*
X148276350Y-128093580D01*
X148276350Y-128093580D02*
X148276350Y-127760247D01*
X148276350Y-127760247D02*
X148466826Y-127760247D01*
X147847778Y-128188819D02*
X147847778Y-127188819D01*
X147847778Y-127188819D02*
X147466826Y-127188819D01*
X147466826Y-127188819D02*
X147371588Y-127236438D01*
X147371588Y-127236438D02*
X147323969Y-127284057D01*
X147323969Y-127284057D02*
X147276350Y-127379295D01*
X147276350Y-127379295D02*
X147276350Y-127522152D01*
X147276350Y-127522152D02*
X147323969Y-127617390D01*
X147323969Y-127617390D02*
X147371588Y-127665009D01*
X147371588Y-127665009D02*
X147466826Y-127712628D01*
X147466826Y-127712628D02*
X147847778Y-127712628D01*
X146847778Y-128188819D02*
X146847778Y-127188819D01*
X146181112Y-127188819D02*
X145990636Y-127188819D01*
X145990636Y-127188819D02*
X145895398Y-127236438D01*
X145895398Y-127236438D02*
X145800160Y-127331676D01*
X145800160Y-127331676D02*
X145752541Y-127522152D01*
X145752541Y-127522152D02*
X145752541Y-127855485D01*
X145752541Y-127855485D02*
X145800160Y-128045961D01*
X145800160Y-128045961D02*
X145895398Y-128141200D01*
X145895398Y-128141200D02*
X145990636Y-128188819D01*
X145990636Y-128188819D02*
X146181112Y-128188819D01*
X146181112Y-128188819D02*
X146276350Y-128141200D01*
X146276350Y-128141200D02*
X146371588Y-128045961D01*
X146371588Y-128045961D02*
X146419207Y-127855485D01*
X146419207Y-127855485D02*
X146419207Y-127522152D01*
X146419207Y-127522152D02*
X146371588Y-127331676D01*
X146371588Y-127331676D02*
X146276350Y-127236438D01*
X146276350Y-127236438D02*
X146181112Y-127188819D01*
X144895398Y-127522152D02*
X144895398Y-128188819D01*
X145133493Y-127141200D02*
X145371588Y-127855485D01*
X145371588Y-127855485D02*
X144752541Y-127855485D01*
X145704922Y-119568819D02*
X146181112Y-119568819D01*
X146181112Y-119568819D02*
X146228731Y-120045009D01*
X146228731Y-120045009D02*
X146181112Y-119997390D01*
X146181112Y-119997390D02*
X146085874Y-119949771D01*
X146085874Y-119949771D02*
X145847779Y-119949771D01*
X145847779Y-119949771D02*
X145752541Y-119997390D01*
X145752541Y-119997390D02*
X145704922Y-120045009D01*
X145704922Y-120045009D02*
X145657303Y-120140247D01*
X145657303Y-120140247D02*
X145657303Y-120378342D01*
X145657303Y-120378342D02*
X145704922Y-120473580D01*
X145704922Y-120473580D02*
X145752541Y-120521200D01*
X145752541Y-120521200D02*
X145847779Y-120568819D01*
X145847779Y-120568819D02*
X146085874Y-120568819D01*
X146085874Y-120568819D02*
X146181112Y-120521200D01*
X146181112Y-120521200D02*
X146228731Y-120473580D01*
X145371588Y-119568819D02*
X145038255Y-120568819D01*
X145038255Y-120568819D02*
X144704922Y-119568819D01*
X155842411Y-124696438D02*
X155937649Y-124648819D01*
X155937649Y-124648819D02*
X156080506Y-124648819D01*
X156080506Y-124648819D02*
X156223363Y-124696438D01*
X156223363Y-124696438D02*
X156318601Y-124791676D01*
X156318601Y-124791676D02*
X156366220Y-124886914D01*
X156366220Y-124886914D02*
X156413839Y-125077390D01*
X156413839Y-125077390D02*
X156413839Y-125220247D01*
X156413839Y-125220247D02*
X156366220Y-125410723D01*
X156366220Y-125410723D02*
X156318601Y-125505961D01*
X156318601Y-125505961D02*
X156223363Y-125601200D01*
X156223363Y-125601200D02*
X156080506Y-125648819D01*
X156080506Y-125648819D02*
X155985268Y-125648819D01*
X155985268Y-125648819D02*
X155842411Y-125601200D01*
X155842411Y-125601200D02*
X155794792Y-125553580D01*
X155794792Y-125553580D02*
X155794792Y-125220247D01*
X155794792Y-125220247D02*
X155985268Y-125220247D01*
X155366220Y-125648819D02*
X155366220Y-124648819D01*
X155366220Y-124648819D02*
X154985268Y-124648819D01*
X154985268Y-124648819D02*
X154890030Y-124696438D01*
X154890030Y-124696438D02*
X154842411Y-124744057D01*
X154842411Y-124744057D02*
X154794792Y-124839295D01*
X154794792Y-124839295D02*
X154794792Y-124982152D01*
X154794792Y-124982152D02*
X154842411Y-125077390D01*
X154842411Y-125077390D02*
X154890030Y-125125009D01*
X154890030Y-125125009D02*
X154985268Y-125172628D01*
X154985268Y-125172628D02*
X155366220Y-125172628D01*
X154366220Y-125648819D02*
X154366220Y-124648819D01*
X153699554Y-124648819D02*
X153509078Y-124648819D01*
X153509078Y-124648819D02*
X153413840Y-124696438D01*
X153413840Y-124696438D02*
X153318602Y-124791676D01*
X153318602Y-124791676D02*
X153270983Y-124982152D01*
X153270983Y-124982152D02*
X153270983Y-125315485D01*
X153270983Y-125315485D02*
X153318602Y-125505961D01*
X153318602Y-125505961D02*
X153413840Y-125601200D01*
X153413840Y-125601200D02*
X153509078Y-125648819D01*
X153509078Y-125648819D02*
X153699554Y-125648819D01*
X153699554Y-125648819D02*
X153794792Y-125601200D01*
X153794792Y-125601200D02*
X153890030Y-125505961D01*
X153890030Y-125505961D02*
X153937649Y-125315485D01*
X153937649Y-125315485D02*
X153937649Y-124982152D01*
X153937649Y-124982152D02*
X153890030Y-124791676D01*
X153890030Y-124791676D02*
X153794792Y-124696438D01*
X153794792Y-124696438D02*
X153699554Y-124648819D01*
X152937649Y-124648819D02*
X152270983Y-124648819D01*
X152270983Y-124648819D02*
X152699554Y-125648819D01*
X148323969Y-129776438D02*
X148419207Y-129728819D01*
X148419207Y-129728819D02*
X148562064Y-129728819D01*
X148562064Y-129728819D02*
X148704921Y-129776438D01*
X148704921Y-129776438D02*
X148800159Y-129871676D01*
X148800159Y-129871676D02*
X148847778Y-129966914D01*
X148847778Y-129966914D02*
X148895397Y-130157390D01*
X148895397Y-130157390D02*
X148895397Y-130300247D01*
X148895397Y-130300247D02*
X148847778Y-130490723D01*
X148847778Y-130490723D02*
X148800159Y-130585961D01*
X148800159Y-130585961D02*
X148704921Y-130681200D01*
X148704921Y-130681200D02*
X148562064Y-130728819D01*
X148562064Y-130728819D02*
X148466826Y-130728819D01*
X148466826Y-130728819D02*
X148323969Y-130681200D01*
X148323969Y-130681200D02*
X148276350Y-130633580D01*
X148276350Y-130633580D02*
X148276350Y-130300247D01*
X148276350Y-130300247D02*
X148466826Y-130300247D01*
X147847778Y-130728819D02*
X147847778Y-129728819D01*
X147847778Y-129728819D02*
X147466826Y-129728819D01*
X147466826Y-129728819D02*
X147371588Y-129776438D01*
X147371588Y-129776438D02*
X147323969Y-129824057D01*
X147323969Y-129824057D02*
X147276350Y-129919295D01*
X147276350Y-129919295D02*
X147276350Y-130062152D01*
X147276350Y-130062152D02*
X147323969Y-130157390D01*
X147323969Y-130157390D02*
X147371588Y-130205009D01*
X147371588Y-130205009D02*
X147466826Y-130252628D01*
X147466826Y-130252628D02*
X147847778Y-130252628D01*
X146847778Y-130728819D02*
X146847778Y-129728819D01*
X146181112Y-129728819D02*
X145990636Y-129728819D01*
X145990636Y-129728819D02*
X145895398Y-129776438D01*
X145895398Y-129776438D02*
X145800160Y-129871676D01*
X145800160Y-129871676D02*
X145752541Y-130062152D01*
X145752541Y-130062152D02*
X145752541Y-130395485D01*
X145752541Y-130395485D02*
X145800160Y-130585961D01*
X145800160Y-130585961D02*
X145895398Y-130681200D01*
X145895398Y-130681200D02*
X145990636Y-130728819D01*
X145990636Y-130728819D02*
X146181112Y-130728819D01*
X146181112Y-130728819D02*
X146276350Y-130681200D01*
X146276350Y-130681200D02*
X146371588Y-130585961D01*
X146371588Y-130585961D02*
X146419207Y-130395485D01*
X146419207Y-130395485D02*
X146419207Y-130062152D01*
X146419207Y-130062152D02*
X146371588Y-129871676D01*
X146371588Y-129871676D02*
X146276350Y-129776438D01*
X146276350Y-129776438D02*
X146181112Y-129728819D01*
X145419207Y-129728819D02*
X144800160Y-129728819D01*
X144800160Y-129728819D02*
X145133493Y-130109771D01*
X145133493Y-130109771D02*
X144990636Y-130109771D01*
X144990636Y-130109771D02*
X144895398Y-130157390D01*
X144895398Y-130157390D02*
X144847779Y-130205009D01*
X144847779Y-130205009D02*
X144800160Y-130300247D01*
X144800160Y-130300247D02*
X144800160Y-130538342D01*
X144800160Y-130538342D02*
X144847779Y-130633580D01*
X144847779Y-130633580D02*
X144895398Y-130681200D01*
X144895398Y-130681200D02*
X144990636Y-130728819D01*
X144990636Y-130728819D02*
X145276350Y-130728819D01*
X145276350Y-130728819D02*
X145371588Y-130681200D01*
X145371588Y-130681200D02*
X145419207Y-130633580D01*
X147704921Y-124648819D02*
X147085874Y-124648819D01*
X147085874Y-124648819D02*
X147419207Y-125029771D01*
X147419207Y-125029771D02*
X147276350Y-125029771D01*
X147276350Y-125029771D02*
X147181112Y-125077390D01*
X147181112Y-125077390D02*
X147133493Y-125125009D01*
X147133493Y-125125009D02*
X147085874Y-125220247D01*
X147085874Y-125220247D02*
X147085874Y-125458342D01*
X147085874Y-125458342D02*
X147133493Y-125553580D01*
X147133493Y-125553580D02*
X147181112Y-125601200D01*
X147181112Y-125601200D02*
X147276350Y-125648819D01*
X147276350Y-125648819D02*
X147562064Y-125648819D01*
X147562064Y-125648819D02*
X147657302Y-125601200D01*
X147657302Y-125601200D02*
X147704921Y-125553580D01*
X146657302Y-125553580D02*
X146609683Y-125601200D01*
X146609683Y-125601200D02*
X146657302Y-125648819D01*
X146657302Y-125648819D02*
X146704921Y-125601200D01*
X146704921Y-125601200D02*
X146657302Y-125553580D01*
X146657302Y-125553580D02*
X146657302Y-125648819D01*
X146276350Y-124648819D02*
X145657303Y-124648819D01*
X145657303Y-124648819D02*
X145990636Y-125029771D01*
X145990636Y-125029771D02*
X145847779Y-125029771D01*
X145847779Y-125029771D02*
X145752541Y-125077390D01*
X145752541Y-125077390D02*
X145704922Y-125125009D01*
X145704922Y-125125009D02*
X145657303Y-125220247D01*
X145657303Y-125220247D02*
X145657303Y-125458342D01*
X145657303Y-125458342D02*
X145704922Y-125553580D01*
X145704922Y-125553580D02*
X145752541Y-125601200D01*
X145752541Y-125601200D02*
X145847779Y-125648819D01*
X145847779Y-125648819D02*
X146133493Y-125648819D01*
X146133493Y-125648819D02*
X146228731Y-125601200D01*
X146228731Y-125601200D02*
X146276350Y-125553580D01*
X145371588Y-124648819D02*
X145038255Y-125648819D01*
X145038255Y-125648819D02*
X144704922Y-124648819D01*
X155842411Y-127236438D02*
X155937649Y-127188819D01*
X155937649Y-127188819D02*
X156080506Y-127188819D01*
X156080506Y-127188819D02*
X156223363Y-127236438D01*
X156223363Y-127236438D02*
X156318601Y-127331676D01*
X156318601Y-127331676D02*
X156366220Y-127426914D01*
X156366220Y-127426914D02*
X156413839Y-127617390D01*
X156413839Y-127617390D02*
X156413839Y-127760247D01*
X156413839Y-127760247D02*
X156366220Y-127950723D01*
X156366220Y-127950723D02*
X156318601Y-128045961D01*
X156318601Y-128045961D02*
X156223363Y-128141200D01*
X156223363Y-128141200D02*
X156080506Y-128188819D01*
X156080506Y-128188819D02*
X155985268Y-128188819D01*
X155985268Y-128188819D02*
X155842411Y-128141200D01*
X155842411Y-128141200D02*
X155794792Y-128093580D01*
X155794792Y-128093580D02*
X155794792Y-127760247D01*
X155794792Y-127760247D02*
X155985268Y-127760247D01*
X155366220Y-128188819D02*
X155366220Y-127188819D01*
X155366220Y-127188819D02*
X154985268Y-127188819D01*
X154985268Y-127188819D02*
X154890030Y-127236438D01*
X154890030Y-127236438D02*
X154842411Y-127284057D01*
X154842411Y-127284057D02*
X154794792Y-127379295D01*
X154794792Y-127379295D02*
X154794792Y-127522152D01*
X154794792Y-127522152D02*
X154842411Y-127617390D01*
X154842411Y-127617390D02*
X154890030Y-127665009D01*
X154890030Y-127665009D02*
X154985268Y-127712628D01*
X154985268Y-127712628D02*
X155366220Y-127712628D01*
X154366220Y-128188819D02*
X154366220Y-127188819D01*
X153699554Y-127188819D02*
X153509078Y-127188819D01*
X153509078Y-127188819D02*
X153413840Y-127236438D01*
X153413840Y-127236438D02*
X153318602Y-127331676D01*
X153318602Y-127331676D02*
X153270983Y-127522152D01*
X153270983Y-127522152D02*
X153270983Y-127855485D01*
X153270983Y-127855485D02*
X153318602Y-128045961D01*
X153318602Y-128045961D02*
X153413840Y-128141200D01*
X153413840Y-128141200D02*
X153509078Y-128188819D01*
X153509078Y-128188819D02*
X153699554Y-128188819D01*
X153699554Y-128188819D02*
X153794792Y-128141200D01*
X153794792Y-128141200D02*
X153890030Y-128045961D01*
X153890030Y-128045961D02*
X153937649Y-127855485D01*
X153937649Y-127855485D02*
X153937649Y-127522152D01*
X153937649Y-127522152D02*
X153890030Y-127331676D01*
X153890030Y-127331676D02*
X153794792Y-127236438D01*
X153794792Y-127236438D02*
X153699554Y-127188819D01*
X152699554Y-127617390D02*
X152794792Y-127569771D01*
X152794792Y-127569771D02*
X152842411Y-127522152D01*
X152842411Y-127522152D02*
X152890030Y-127426914D01*
X152890030Y-127426914D02*
X152890030Y-127379295D01*
X152890030Y-127379295D02*
X152842411Y-127284057D01*
X152842411Y-127284057D02*
X152794792Y-127236438D01*
X152794792Y-127236438D02*
X152699554Y-127188819D01*
X152699554Y-127188819D02*
X152509078Y-127188819D01*
X152509078Y-127188819D02*
X152413840Y-127236438D01*
X152413840Y-127236438D02*
X152366221Y-127284057D01*
X152366221Y-127284057D02*
X152318602Y-127379295D01*
X152318602Y-127379295D02*
X152318602Y-127426914D01*
X152318602Y-127426914D02*
X152366221Y-127522152D01*
X152366221Y-127522152D02*
X152413840Y-127569771D01*
X152413840Y-127569771D02*
X152509078Y-127617390D01*
X152509078Y-127617390D02*
X152699554Y-127617390D01*
X152699554Y-127617390D02*
X152794792Y-127665009D01*
X152794792Y-127665009D02*
X152842411Y-127712628D01*
X152842411Y-127712628D02*
X152890030Y-127807866D01*
X152890030Y-127807866D02*
X152890030Y-127998342D01*
X152890030Y-127998342D02*
X152842411Y-128093580D01*
X152842411Y-128093580D02*
X152794792Y-128141200D01*
X152794792Y-128141200D02*
X152699554Y-128188819D01*
X152699554Y-128188819D02*
X152509078Y-128188819D01*
X152509078Y-128188819D02*
X152413840Y-128141200D01*
X152413840Y-128141200D02*
X152366221Y-128093580D01*
X152366221Y-128093580D02*
X152318602Y-127998342D01*
X152318602Y-127998342D02*
X152318602Y-127807866D01*
X152318602Y-127807866D02*
X152366221Y-127712628D01*
X152366221Y-127712628D02*
X152413840Y-127665009D01*
X152413840Y-127665009D02*
X152509078Y-127617390D01*
X155842411Y-129776438D02*
X155937649Y-129728819D01*
X155937649Y-129728819D02*
X156080506Y-129728819D01*
X156080506Y-129728819D02*
X156223363Y-129776438D01*
X156223363Y-129776438D02*
X156318601Y-129871676D01*
X156318601Y-129871676D02*
X156366220Y-129966914D01*
X156366220Y-129966914D02*
X156413839Y-130157390D01*
X156413839Y-130157390D02*
X156413839Y-130300247D01*
X156413839Y-130300247D02*
X156366220Y-130490723D01*
X156366220Y-130490723D02*
X156318601Y-130585961D01*
X156318601Y-130585961D02*
X156223363Y-130681200D01*
X156223363Y-130681200D02*
X156080506Y-130728819D01*
X156080506Y-130728819D02*
X155985268Y-130728819D01*
X155985268Y-130728819D02*
X155842411Y-130681200D01*
X155842411Y-130681200D02*
X155794792Y-130633580D01*
X155794792Y-130633580D02*
X155794792Y-130300247D01*
X155794792Y-130300247D02*
X155985268Y-130300247D01*
X155366220Y-130728819D02*
X155366220Y-129728819D01*
X155366220Y-129728819D02*
X154985268Y-129728819D01*
X154985268Y-129728819D02*
X154890030Y-129776438D01*
X154890030Y-129776438D02*
X154842411Y-129824057D01*
X154842411Y-129824057D02*
X154794792Y-129919295D01*
X154794792Y-129919295D02*
X154794792Y-130062152D01*
X154794792Y-130062152D02*
X154842411Y-130157390D01*
X154842411Y-130157390D02*
X154890030Y-130205009D01*
X154890030Y-130205009D02*
X154985268Y-130252628D01*
X154985268Y-130252628D02*
X155366220Y-130252628D01*
X154366220Y-130728819D02*
X154366220Y-129728819D01*
X153699554Y-129728819D02*
X153509078Y-129728819D01*
X153509078Y-129728819D02*
X153413840Y-129776438D01*
X153413840Y-129776438D02*
X153318602Y-129871676D01*
X153318602Y-129871676D02*
X153270983Y-130062152D01*
X153270983Y-130062152D02*
X153270983Y-130395485D01*
X153270983Y-130395485D02*
X153318602Y-130585961D01*
X153318602Y-130585961D02*
X153413840Y-130681200D01*
X153413840Y-130681200D02*
X153509078Y-130728819D01*
X153509078Y-130728819D02*
X153699554Y-130728819D01*
X153699554Y-130728819D02*
X153794792Y-130681200D01*
X153794792Y-130681200D02*
X153890030Y-130585961D01*
X153890030Y-130585961D02*
X153937649Y-130395485D01*
X153937649Y-130395485D02*
X153937649Y-130062152D01*
X153937649Y-130062152D02*
X153890030Y-129871676D01*
X153890030Y-129871676D02*
X153794792Y-129776438D01*
X153794792Y-129776438D02*
X153699554Y-129728819D01*
X152794792Y-130728819D02*
X152604316Y-130728819D01*
X152604316Y-130728819D02*
X152509078Y-130681200D01*
X152509078Y-130681200D02*
X152461459Y-130633580D01*
X152461459Y-130633580D02*
X152366221Y-130490723D01*
X152366221Y-130490723D02*
X152318602Y-130300247D01*
X152318602Y-130300247D02*
X152318602Y-129919295D01*
X152318602Y-129919295D02*
X152366221Y-129824057D01*
X152366221Y-129824057D02*
X152413840Y-129776438D01*
X152413840Y-129776438D02*
X152509078Y-129728819D01*
X152509078Y-129728819D02*
X152699554Y-129728819D01*
X152699554Y-129728819D02*
X152794792Y-129776438D01*
X152794792Y-129776438D02*
X152842411Y-129824057D01*
X152842411Y-129824057D02*
X152890030Y-129919295D01*
X152890030Y-129919295D02*
X152890030Y-130157390D01*
X152890030Y-130157390D02*
X152842411Y-130252628D01*
X152842411Y-130252628D02*
X152794792Y-130300247D01*
X152794792Y-130300247D02*
X152699554Y-130347866D01*
X152699554Y-130347866D02*
X152509078Y-130347866D01*
X152509078Y-130347866D02*
X152413840Y-130300247D01*
X152413840Y-130300247D02*
X152366221Y-130252628D01*
X152366221Y-130252628D02*
X152318602Y-130157390D01*
X155842411Y-132316438D02*
X155937649Y-132268819D01*
X155937649Y-132268819D02*
X156080506Y-132268819D01*
X156080506Y-132268819D02*
X156223363Y-132316438D01*
X156223363Y-132316438D02*
X156318601Y-132411676D01*
X156318601Y-132411676D02*
X156366220Y-132506914D01*
X156366220Y-132506914D02*
X156413839Y-132697390D01*
X156413839Y-132697390D02*
X156413839Y-132840247D01*
X156413839Y-132840247D02*
X156366220Y-133030723D01*
X156366220Y-133030723D02*
X156318601Y-133125961D01*
X156318601Y-133125961D02*
X156223363Y-133221200D01*
X156223363Y-133221200D02*
X156080506Y-133268819D01*
X156080506Y-133268819D02*
X155985268Y-133268819D01*
X155985268Y-133268819D02*
X155842411Y-133221200D01*
X155842411Y-133221200D02*
X155794792Y-133173580D01*
X155794792Y-133173580D02*
X155794792Y-132840247D01*
X155794792Y-132840247D02*
X155985268Y-132840247D01*
X155366220Y-133268819D02*
X155366220Y-132268819D01*
X155366220Y-132268819D02*
X154985268Y-132268819D01*
X154985268Y-132268819D02*
X154890030Y-132316438D01*
X154890030Y-132316438D02*
X154842411Y-132364057D01*
X154842411Y-132364057D02*
X154794792Y-132459295D01*
X154794792Y-132459295D02*
X154794792Y-132602152D01*
X154794792Y-132602152D02*
X154842411Y-132697390D01*
X154842411Y-132697390D02*
X154890030Y-132745009D01*
X154890030Y-132745009D02*
X154985268Y-132792628D01*
X154985268Y-132792628D02*
X155366220Y-132792628D01*
X154366220Y-133268819D02*
X154366220Y-132268819D01*
X153699554Y-132268819D02*
X153509078Y-132268819D01*
X153509078Y-132268819D02*
X153413840Y-132316438D01*
X153413840Y-132316438D02*
X153318602Y-132411676D01*
X153318602Y-132411676D02*
X153270983Y-132602152D01*
X153270983Y-132602152D02*
X153270983Y-132935485D01*
X153270983Y-132935485D02*
X153318602Y-133125961D01*
X153318602Y-133125961D02*
X153413840Y-133221200D01*
X153413840Y-133221200D02*
X153509078Y-133268819D01*
X153509078Y-133268819D02*
X153699554Y-133268819D01*
X153699554Y-133268819D02*
X153794792Y-133221200D01*
X153794792Y-133221200D02*
X153890030Y-133125961D01*
X153890030Y-133125961D02*
X153937649Y-132935485D01*
X153937649Y-132935485D02*
X153937649Y-132602152D01*
X153937649Y-132602152D02*
X153890030Y-132411676D01*
X153890030Y-132411676D02*
X153794792Y-132316438D01*
X153794792Y-132316438D02*
X153699554Y-132268819D01*
X152318602Y-133268819D02*
X152890030Y-133268819D01*
X152604316Y-133268819D02*
X152604316Y-132268819D01*
X152604316Y-132268819D02*
X152699554Y-132411676D01*
X152699554Y-132411676D02*
X152794792Y-132506914D01*
X152794792Y-132506914D02*
X152890030Y-132554533D01*
X151699554Y-132268819D02*
X151604316Y-132268819D01*
X151604316Y-132268819D02*
X151509078Y-132316438D01*
X151509078Y-132316438D02*
X151461459Y-132364057D01*
X151461459Y-132364057D02*
X151413840Y-132459295D01*
X151413840Y-132459295D02*
X151366221Y-132649771D01*
X151366221Y-132649771D02*
X151366221Y-132887866D01*
X151366221Y-132887866D02*
X151413840Y-133078342D01*
X151413840Y-133078342D02*
X151461459Y-133173580D01*
X151461459Y-133173580D02*
X151509078Y-133221200D01*
X151509078Y-133221200D02*
X151604316Y-133268819D01*
X151604316Y-133268819D02*
X151699554Y-133268819D01*
X151699554Y-133268819D02*
X151794792Y-133221200D01*
X151794792Y-133221200D02*
X151842411Y-133173580D01*
X151842411Y-133173580D02*
X151890030Y-133078342D01*
X151890030Y-133078342D02*
X151937649Y-132887866D01*
X151937649Y-132887866D02*
X151937649Y-132649771D01*
X151937649Y-132649771D02*
X151890030Y-132459295D01*
X151890030Y-132459295D02*
X151842411Y-132364057D01*
X151842411Y-132364057D02*
X151794792Y-132316438D01*
X151794792Y-132316438D02*
X151699554Y-132268819D01*
X148323969Y-134856438D02*
X148419207Y-134808819D01*
X148419207Y-134808819D02*
X148562064Y-134808819D01*
X148562064Y-134808819D02*
X148704921Y-134856438D01*
X148704921Y-134856438D02*
X148800159Y-134951676D01*
X148800159Y-134951676D02*
X148847778Y-135046914D01*
X148847778Y-135046914D02*
X148895397Y-135237390D01*
X148895397Y-135237390D02*
X148895397Y-135380247D01*
X148895397Y-135380247D02*
X148847778Y-135570723D01*
X148847778Y-135570723D02*
X148800159Y-135665961D01*
X148800159Y-135665961D02*
X148704921Y-135761200D01*
X148704921Y-135761200D02*
X148562064Y-135808819D01*
X148562064Y-135808819D02*
X148466826Y-135808819D01*
X148466826Y-135808819D02*
X148323969Y-135761200D01*
X148323969Y-135761200D02*
X148276350Y-135713580D01*
X148276350Y-135713580D02*
X148276350Y-135380247D01*
X148276350Y-135380247D02*
X148466826Y-135380247D01*
X147847778Y-135808819D02*
X147847778Y-134808819D01*
X147847778Y-134808819D02*
X147466826Y-134808819D01*
X147466826Y-134808819D02*
X147371588Y-134856438D01*
X147371588Y-134856438D02*
X147323969Y-134904057D01*
X147323969Y-134904057D02*
X147276350Y-134999295D01*
X147276350Y-134999295D02*
X147276350Y-135142152D01*
X147276350Y-135142152D02*
X147323969Y-135237390D01*
X147323969Y-135237390D02*
X147371588Y-135285009D01*
X147371588Y-135285009D02*
X147466826Y-135332628D01*
X147466826Y-135332628D02*
X147847778Y-135332628D01*
X146847778Y-135808819D02*
X146847778Y-134808819D01*
X146181112Y-134808819D02*
X145990636Y-134808819D01*
X145990636Y-134808819D02*
X145895398Y-134856438D01*
X145895398Y-134856438D02*
X145800160Y-134951676D01*
X145800160Y-134951676D02*
X145752541Y-135142152D01*
X145752541Y-135142152D02*
X145752541Y-135475485D01*
X145752541Y-135475485D02*
X145800160Y-135665961D01*
X145800160Y-135665961D02*
X145895398Y-135761200D01*
X145895398Y-135761200D02*
X145990636Y-135808819D01*
X145990636Y-135808819D02*
X146181112Y-135808819D01*
X146181112Y-135808819D02*
X146276350Y-135761200D01*
X146276350Y-135761200D02*
X146371588Y-135665961D01*
X146371588Y-135665961D02*
X146419207Y-135475485D01*
X146419207Y-135475485D02*
X146419207Y-135142152D01*
X146419207Y-135142152D02*
X146371588Y-134951676D01*
X146371588Y-134951676D02*
X146276350Y-134856438D01*
X146276350Y-134856438D02*
X146181112Y-134808819D01*
X144800160Y-135808819D02*
X145371588Y-135808819D01*
X145085874Y-135808819D02*
X145085874Y-134808819D01*
X145085874Y-134808819D02*
X145181112Y-134951676D01*
X145181112Y-134951676D02*
X145276350Y-135046914D01*
X145276350Y-135046914D02*
X145371588Y-135094533D01*
X148323969Y-137396438D02*
X148419207Y-137348819D01*
X148419207Y-137348819D02*
X148562064Y-137348819D01*
X148562064Y-137348819D02*
X148704921Y-137396438D01*
X148704921Y-137396438D02*
X148800159Y-137491676D01*
X148800159Y-137491676D02*
X148847778Y-137586914D01*
X148847778Y-137586914D02*
X148895397Y-137777390D01*
X148895397Y-137777390D02*
X148895397Y-137920247D01*
X148895397Y-137920247D02*
X148847778Y-138110723D01*
X148847778Y-138110723D02*
X148800159Y-138205961D01*
X148800159Y-138205961D02*
X148704921Y-138301200D01*
X148704921Y-138301200D02*
X148562064Y-138348819D01*
X148562064Y-138348819D02*
X148466826Y-138348819D01*
X148466826Y-138348819D02*
X148323969Y-138301200D01*
X148323969Y-138301200D02*
X148276350Y-138253580D01*
X148276350Y-138253580D02*
X148276350Y-137920247D01*
X148276350Y-137920247D02*
X148466826Y-137920247D01*
X147847778Y-138348819D02*
X147847778Y-137348819D01*
X147847778Y-137348819D02*
X147466826Y-137348819D01*
X147466826Y-137348819D02*
X147371588Y-137396438D01*
X147371588Y-137396438D02*
X147323969Y-137444057D01*
X147323969Y-137444057D02*
X147276350Y-137539295D01*
X147276350Y-137539295D02*
X147276350Y-137682152D01*
X147276350Y-137682152D02*
X147323969Y-137777390D01*
X147323969Y-137777390D02*
X147371588Y-137825009D01*
X147371588Y-137825009D02*
X147466826Y-137872628D01*
X147466826Y-137872628D02*
X147847778Y-137872628D01*
X146847778Y-138348819D02*
X146847778Y-137348819D01*
X146181112Y-137348819D02*
X145990636Y-137348819D01*
X145990636Y-137348819D02*
X145895398Y-137396438D01*
X145895398Y-137396438D02*
X145800160Y-137491676D01*
X145800160Y-137491676D02*
X145752541Y-137682152D01*
X145752541Y-137682152D02*
X145752541Y-138015485D01*
X145752541Y-138015485D02*
X145800160Y-138205961D01*
X145800160Y-138205961D02*
X145895398Y-138301200D01*
X145895398Y-138301200D02*
X145990636Y-138348819D01*
X145990636Y-138348819D02*
X146181112Y-138348819D01*
X146181112Y-138348819D02*
X146276350Y-138301200D01*
X146276350Y-138301200D02*
X146371588Y-138205961D01*
X146371588Y-138205961D02*
X146419207Y-138015485D01*
X146419207Y-138015485D02*
X146419207Y-137682152D01*
X146419207Y-137682152D02*
X146371588Y-137491676D01*
X146371588Y-137491676D02*
X146276350Y-137396438D01*
X146276350Y-137396438D02*
X146181112Y-137348819D01*
X145133493Y-137348819D02*
X145038255Y-137348819D01*
X145038255Y-137348819D02*
X144943017Y-137396438D01*
X144943017Y-137396438D02*
X144895398Y-137444057D01*
X144895398Y-137444057D02*
X144847779Y-137539295D01*
X144847779Y-137539295D02*
X144800160Y-137729771D01*
X144800160Y-137729771D02*
X144800160Y-137967866D01*
X144800160Y-137967866D02*
X144847779Y-138158342D01*
X144847779Y-138158342D02*
X144895398Y-138253580D01*
X144895398Y-138253580D02*
X144943017Y-138301200D01*
X144943017Y-138301200D02*
X145038255Y-138348819D01*
X145038255Y-138348819D02*
X145133493Y-138348819D01*
X145133493Y-138348819D02*
X145228731Y-138301200D01*
X145228731Y-138301200D02*
X145276350Y-138253580D01*
X145276350Y-138253580D02*
X145323969Y-138158342D01*
X145323969Y-138158342D02*
X145371588Y-137967866D01*
X145371588Y-137967866D02*
X145371588Y-137729771D01*
X145371588Y-137729771D02*
X145323969Y-137539295D01*
X145323969Y-137539295D02*
X145276350Y-137444057D01*
X145276350Y-137444057D02*
X145228731Y-137396438D01*
X145228731Y-137396438D02*
X145133493Y-137348819D01*
X146895398Y-122156438D02*
X146990636Y-122108819D01*
X146990636Y-122108819D02*
X147133493Y-122108819D01*
X147133493Y-122108819D02*
X147276350Y-122156438D01*
X147276350Y-122156438D02*
X147371588Y-122251676D01*
X147371588Y-122251676D02*
X147419207Y-122346914D01*
X147419207Y-122346914D02*
X147466826Y-122537390D01*
X147466826Y-122537390D02*
X147466826Y-122680247D01*
X147466826Y-122680247D02*
X147419207Y-122870723D01*
X147419207Y-122870723D02*
X147371588Y-122965961D01*
X147371588Y-122965961D02*
X147276350Y-123061200D01*
X147276350Y-123061200D02*
X147133493Y-123108819D01*
X147133493Y-123108819D02*
X147038255Y-123108819D01*
X147038255Y-123108819D02*
X146895398Y-123061200D01*
X146895398Y-123061200D02*
X146847779Y-123013580D01*
X146847779Y-123013580D02*
X146847779Y-122680247D01*
X146847779Y-122680247D02*
X147038255Y-122680247D01*
X146419207Y-123108819D02*
X146419207Y-122108819D01*
X146419207Y-122108819D02*
X145847779Y-123108819D01*
X145847779Y-123108819D02*
X145847779Y-122108819D01*
X145371588Y-123108819D02*
X145371588Y-122108819D01*
X145371588Y-122108819D02*
X145133493Y-122108819D01*
X145133493Y-122108819D02*
X144990636Y-122156438D01*
X144990636Y-122156438D02*
X144895398Y-122251676D01*
X144895398Y-122251676D02*
X144847779Y-122346914D01*
X144847779Y-122346914D02*
X144800160Y-122537390D01*
X144800160Y-122537390D02*
X144800160Y-122680247D01*
X144800160Y-122680247D02*
X144847779Y-122870723D01*
X144847779Y-122870723D02*
X144895398Y-122965961D01*
X144895398Y-122965961D02*
X144990636Y-123061200D01*
X144990636Y-123061200D02*
X145133493Y-123108819D01*
X145133493Y-123108819D02*
X145371588Y-123108819D01*
X151828332Y-98070200D02*
X151685475Y-98117819D01*
X151685475Y-98117819D02*
X151447380Y-98117819D01*
X151447380Y-98117819D02*
X151352142Y-98070200D01*
X151352142Y-98070200D02*
X151304523Y-98022580D01*
X151304523Y-98022580D02*
X151256904Y-97927342D01*
X151256904Y-97927342D02*
X151256904Y-97832104D01*
X151256904Y-97832104D02*
X151304523Y-97736866D01*
X151304523Y-97736866D02*
X151352142Y-97689247D01*
X151352142Y-97689247D02*
X151447380Y-97641628D01*
X151447380Y-97641628D02*
X151637856Y-97594009D01*
X151637856Y-97594009D02*
X151733094Y-97546390D01*
X151733094Y-97546390D02*
X151780713Y-97498771D01*
X151780713Y-97498771D02*
X151828332Y-97403533D01*
X151828332Y-97403533D02*
X151828332Y-97308295D01*
X151828332Y-97308295D02*
X151780713Y-97213057D01*
X151780713Y-97213057D02*
X151733094Y-97165438D01*
X151733094Y-97165438D02*
X151637856Y-97117819D01*
X151637856Y-97117819D02*
X151399761Y-97117819D01*
X151399761Y-97117819D02*
X151256904Y-97165438D01*
X150923570Y-97117819D02*
X150685475Y-98117819D01*
X150685475Y-98117819D02*
X150494999Y-97403533D01*
X150494999Y-97403533D02*
X150304523Y-98117819D01*
X150304523Y-98117819D02*
X150066428Y-97117819D01*
X149161666Y-98117819D02*
X149733094Y-98117819D01*
X149447380Y-98117819D02*
X149447380Y-97117819D01*
X149447380Y-97117819D02*
X149542618Y-97260676D01*
X149542618Y-97260676D02*
X149637856Y-97355914D01*
X149637856Y-97355914D02*
X149733094Y-97403533D01*
D11*
X160100000Y-84508000D02*
X160100000Y-84736600D01*
X160100000Y-84736600D02*
X159998400Y-84660400D01*
X160100000Y-84736600D02*
X160201600Y-84660400D01*
X161370000Y-83250700D02*
X161268400Y-83326900D01*
X161370000Y-83250700D02*
X161471600Y-83326900D01*
X161370000Y-83479300D02*
X161370000Y-83250700D01*
X162640000Y-84508000D02*
X162640000Y-84736600D01*
X162640000Y-84736600D02*
X162538400Y-84660400D01*
X162640000Y-84736600D02*
X162741600Y-84660400D01*
X163910000Y-83250700D02*
X163808400Y-83326900D01*
X163910000Y-83250700D02*
X164011600Y-83326900D01*
X163910000Y-83479300D02*
X163910000Y-83250700D01*
X173228000Y-99008000D02*
X173228000Y-99236600D01*
X173228000Y-99236600D02*
X173126400Y-99160400D01*
X173228000Y-99236600D02*
X173329600Y-99160400D01*
X174498000Y-97750700D02*
X174396400Y-97826900D01*
X174498000Y-97750700D02*
X174599600Y-97826900D01*
X174498000Y-97979300D02*
X174498000Y-97750700D01*
X175768000Y-99008000D02*
X175768000Y-99236600D01*
X175768000Y-99236600D02*
X175666400Y-99160400D01*
X175768000Y-99236600D02*
X175869600Y-99160400D01*
X177038000Y-97750700D02*
X176936400Y-97826900D01*
X177038000Y-97750700D02*
X177139600Y-97826900D01*
X177038000Y-97979300D02*
X177038000Y-97750700D01*
X136980000Y-84508000D02*
X136980000Y-84736600D01*
X136980000Y-84736600D02*
X136878400Y-84660400D01*
X136980000Y-84736600D02*
X137081600Y-84660400D01*
X138250000Y-83250700D02*
X138148400Y-83326900D01*
X138250000Y-83250700D02*
X138351600Y-83326900D01*
X138250000Y-83479300D02*
X138250000Y-83250700D01*
X139520000Y-84508000D02*
X139520000Y-84736600D01*
X139520000Y-84736600D02*
X139418400Y-84660400D01*
X139520000Y-84736600D02*
X139621600Y-84660400D01*
X140790000Y-83250700D02*
X140688400Y-83326900D01*
X140790000Y-83250700D02*
X140891600Y-83326900D01*
X140790000Y-83479300D02*
X140790000Y-83250700D01*
X152400000Y-50241300D02*
X152400000Y-50012700D01*
X152400000Y-50012700D02*
X152501600Y-50088900D01*
X152400000Y-50012700D02*
X152298400Y-50088900D01*
X151130000Y-51498600D02*
X151231600Y-51422400D01*
X151130000Y-51498600D02*
X151028400Y-51422400D01*
X151130000Y-51270000D02*
X151130000Y-51498600D01*
X149860000Y-50241300D02*
X149860000Y-50012700D01*
X149860000Y-50012700D02*
X149961600Y-50088900D01*
X149860000Y-50012700D02*
X149758400Y-50088900D01*
X148590000Y-51498600D02*
X148691600Y-51422400D01*
X148590000Y-51498600D02*
X148488400Y-51422400D01*
X148590000Y-51270000D02*
X148590000Y-51498600D01*
X123952000Y-99008000D02*
X123952000Y-99236600D01*
X123952000Y-99236600D02*
X123850400Y-99160400D01*
X123952000Y-99236600D02*
X124053600Y-99160400D01*
X125222000Y-97750700D02*
X125120400Y-97826900D01*
X125222000Y-97750700D02*
X125323600Y-97826900D01*
X125222000Y-97979300D02*
X125222000Y-97750700D01*
X126492000Y-99008000D02*
X126492000Y-99236600D01*
X126492000Y-99236600D02*
X126390400Y-99160400D01*
X126492000Y-99236600D02*
X126593600Y-99160400D01*
X127762000Y-97750700D02*
X127660400Y-97826900D01*
X127762000Y-97750700D02*
X127863600Y-97826900D01*
X127762000Y-97979300D02*
X127762000Y-97750700D01*
X116078000Y-126487000D02*
X116078000Y-126715600D01*
X116078000Y-126715600D02*
X115976400Y-126639400D01*
X116078000Y-126715600D02*
X116179600Y-126639400D01*
X117348000Y-125229700D02*
X117246400Y-125305900D01*
X117348000Y-125229700D02*
X117449600Y-125305900D01*
X117348000Y-125458300D02*
X117348000Y-125229700D01*
X118618000Y-126487000D02*
X118618000Y-126715600D01*
X118618000Y-126715600D02*
X118516400Y-126639400D01*
X118618000Y-126715600D02*
X118719600Y-126639400D01*
X119888000Y-125229700D02*
X119786400Y-125305900D01*
X119888000Y-125229700D02*
X119989600Y-125305900D01*
X119888000Y-125458300D02*
X119888000Y-125229700D01*
X166370000Y-72898000D02*
X166370000Y-73126600D01*
X166370000Y-73126600D02*
X166268400Y-73050400D01*
X166370000Y-73126600D02*
X166471600Y-73050400D01*
X167640000Y-71640700D02*
X167538400Y-71716900D01*
X167640000Y-71640700D02*
X167741600Y-71716900D01*
X167640000Y-71869300D02*
X167640000Y-71640700D01*
X168910000Y-72898000D02*
X168910000Y-73126600D01*
X168910000Y-73126600D02*
X168808400Y-73050400D01*
X168910000Y-73126600D02*
X169011600Y-73050400D01*
X170180000Y-71640700D02*
X170078400Y-71716900D01*
X170180000Y-71640700D02*
X170281600Y-71716900D01*
X170180000Y-71869300D02*
X170180000Y-71640700D01*
X181356000Y-126487000D02*
X181356000Y-126715600D01*
X181356000Y-126715600D02*
X181254400Y-126639400D01*
X181356000Y-126715600D02*
X181457600Y-126639400D01*
X182626000Y-125229700D02*
X182524400Y-125305900D01*
X182626000Y-125229700D02*
X182727600Y-125305900D01*
X182626000Y-125458300D02*
X182626000Y-125229700D01*
X183896000Y-126487000D02*
X183896000Y-126715600D01*
X183896000Y-126715600D02*
X183794400Y-126639400D01*
X183896000Y-126715600D02*
X183997600Y-126639400D01*
X185166000Y-125229700D02*
X185064400Y-125305900D01*
X185166000Y-125229700D02*
X185267600Y-125305900D01*
X185166000Y-125458300D02*
X185166000Y-125229700D01*
X131064000Y-72898000D02*
X131064000Y-73126600D01*
X131064000Y-73126600D02*
X130962400Y-73050400D01*
X131064000Y-73126600D02*
X131165600Y-73050400D01*
X132334000Y-71640700D02*
X132232400Y-71716900D01*
X132334000Y-71640700D02*
X132435600Y-71716900D01*
X132334000Y-71869300D02*
X132334000Y-71640700D01*
X133604000Y-72898000D02*
X133604000Y-73126600D01*
X133604000Y-73126600D02*
X133502400Y-73050400D01*
X133604000Y-73126600D02*
X133705600Y-73050400D01*
X134874000Y-71640700D02*
X134772400Y-71716900D01*
X134874000Y-71640700D02*
X134975600Y-71716900D01*
X134874000Y-71869300D02*
X134874000Y-71640700D01*
X148600000Y-66008000D02*
X148600000Y-66236600D01*
X148600000Y-66236600D02*
X148498400Y-66160400D01*
X148600000Y-66236600D02*
X148701600Y-66160400D01*
X149870000Y-64750700D02*
X149768400Y-64826900D01*
X149870000Y-64750700D02*
X149971600Y-64826900D01*
X149870000Y-64979300D02*
X149870000Y-64750700D01*
X151140000Y-66008000D02*
X151140000Y-66236600D01*
X151140000Y-66236600D02*
X151038400Y-66160400D01*
X151140000Y-66236600D02*
X151241600Y-66160400D01*
X152410000Y-64750700D02*
X152308400Y-64826900D01*
X152410000Y-64750700D02*
X152511600Y-64826900D01*
X152410000Y-64979300D02*
X152410000Y-64750700D01*
X148590000Y-115443000D02*
X148590000Y-115671600D01*
X148590000Y-115671600D02*
X148488400Y-115595400D01*
X148590000Y-115671600D02*
X148691600Y-115595400D01*
X149860000Y-114185700D02*
X149758400Y-114261900D01*
X149860000Y-114185700D02*
X149961600Y-114261900D01*
X149860000Y-114414300D02*
X149860000Y-114185700D01*
X151130000Y-115443000D02*
X151130000Y-115671600D01*
X151130000Y-115671600D02*
X151028400Y-115595400D01*
X151130000Y-115671600D02*
X151231600Y-115595400D01*
X152400000Y-114185700D02*
X152298400Y-114261900D01*
X152400000Y-114185700D02*
X152501600Y-114261900D01*
X152400000Y-114414300D02*
X152400000Y-114185700D01*
D12*
X141480000Y-118670000D02*
X141480000Y-141370000D01*
X145980000Y-118670000D02*
X141480000Y-118670000D01*
X145980000Y-118670000D02*
X145980000Y-117370000D01*
X147446800Y-117370800D02*
X145994800Y-117370800D01*
X154980000Y-117370000D02*
X153528000Y-117370000D01*
X154980000Y-118670000D02*
X154980000Y-117370000D01*
X159480000Y-118670000D02*
X154980000Y-118670000D01*
X159480000Y-118670000D02*
X159480000Y-141370000D01*
X159480000Y-141370000D02*
X141480000Y-141370000D01*
D13*
X146995000Y-96913000D02*
X146995000Y-98413000D01*
X148245000Y-100913000D02*
X152745000Y-100913000D01*
X152745000Y-94413000D02*
X148245000Y-94413000D01*
X153995000Y-98413000D02*
X153995000Y-96913000D01*
%LPC*%
D14*
X150495000Y-45466000D03*
D15*
X160100000Y-84000000D03*
D16*
X160100000Y-85900000D03*
D17*
X161370000Y-82095000D03*
D18*
X161370000Y-82100000D03*
D15*
X161370000Y-84000000D03*
X162640000Y-84000000D03*
D18*
X162640000Y-85900000D03*
D17*
X162640000Y-85905000D03*
D18*
X163910000Y-82100000D03*
D15*
X163910000Y-84000000D03*
X173228000Y-98500000D03*
D16*
X173228000Y-100400000D03*
D17*
X174498000Y-96595000D03*
D18*
X174498000Y-96600000D03*
D15*
X174498000Y-98500000D03*
X175768000Y-98500000D03*
D18*
X175768000Y-100400000D03*
D17*
X175768000Y-100405000D03*
D18*
X177038000Y-96600000D03*
D15*
X177038000Y-98500000D03*
X136980000Y-84000000D03*
D16*
X136980000Y-85900000D03*
D17*
X138250000Y-82095000D03*
D18*
X138250000Y-82100000D03*
D15*
X138250000Y-84000000D03*
X139520000Y-84000000D03*
D18*
X139520000Y-85900000D03*
D17*
X139520000Y-85905000D03*
D18*
X140790000Y-82100000D03*
D15*
X140790000Y-84000000D03*
X152400000Y-50762000D03*
D18*
X152400000Y-48862000D03*
D17*
X151130000Y-52667000D03*
D18*
X151130000Y-52662000D03*
D15*
X151130000Y-50762000D03*
X149860000Y-50762000D03*
D18*
X149860000Y-48862000D03*
D17*
X149860000Y-48857000D03*
D16*
X148590000Y-52662000D03*
D15*
X148590000Y-50762000D03*
X123952000Y-98500000D03*
D16*
X123952000Y-100400000D03*
D17*
X125222000Y-96595000D03*
D18*
X125222000Y-96600000D03*
D15*
X125222000Y-98500000D03*
X126492000Y-98500000D03*
D18*
X126492000Y-100400000D03*
D17*
X126492000Y-100405000D03*
D18*
X127762000Y-96600000D03*
D15*
X127762000Y-98500000D03*
X116078000Y-125979000D03*
D16*
X116078000Y-127879000D03*
D17*
X117348000Y-124074000D03*
D18*
X117348000Y-124079000D03*
D15*
X117348000Y-125979000D03*
X118618000Y-125979000D03*
D18*
X118618000Y-127879000D03*
D17*
X118618000Y-127884000D03*
D18*
X119888000Y-124079000D03*
D15*
X119888000Y-125979000D03*
X166370000Y-72390000D03*
D16*
X166370000Y-74290000D03*
D17*
X167640000Y-70485000D03*
D18*
X167640000Y-70490000D03*
D15*
X167640000Y-72390000D03*
X168910000Y-72390000D03*
D18*
X168910000Y-74290000D03*
D17*
X168910000Y-74295000D03*
D18*
X170180000Y-70490000D03*
D15*
X170180000Y-72390000D03*
X181356000Y-125979000D03*
D16*
X181356000Y-127879000D03*
D17*
X182626000Y-124074000D03*
D18*
X182626000Y-124079000D03*
D15*
X182626000Y-125979000D03*
X183896000Y-125979000D03*
D18*
X183896000Y-127879000D03*
D17*
X183896000Y-127884000D03*
D18*
X185166000Y-124079000D03*
D15*
X185166000Y-125979000D03*
X131064000Y-72390000D03*
D16*
X131064000Y-74290000D03*
D17*
X132334000Y-70485000D03*
D18*
X132334000Y-70490000D03*
D15*
X132334000Y-72390000D03*
X133604000Y-72390000D03*
D18*
X133604000Y-74290000D03*
D17*
X133604000Y-74295000D03*
D18*
X134874000Y-70490000D03*
D15*
X134874000Y-72390000D03*
X148600000Y-65500000D03*
D16*
X148600000Y-67400000D03*
D17*
X149870000Y-63595000D03*
D18*
X149870000Y-63600000D03*
D15*
X149870000Y-65500000D03*
X151140000Y-65500000D03*
D18*
X151140000Y-67400000D03*
D17*
X151140000Y-67405000D03*
D18*
X152410000Y-63600000D03*
D15*
X152410000Y-65500000D03*
X148590000Y-114935000D03*
D16*
X148590000Y-116835000D03*
D17*
X149860000Y-113030000D03*
D18*
X149860000Y-113035000D03*
D15*
X149860000Y-114935000D03*
X151130000Y-114935000D03*
D18*
X151130000Y-116835000D03*
D17*
X151130000Y-116840000D03*
D18*
X152400000Y-113035000D03*
D15*
X152400000Y-114935000D03*
D19*
X160640000Y-120120000D03*
D20*
X160640000Y-122660000D03*
X160640000Y-125200000D03*
X160640000Y-127740000D03*
X160640000Y-130280000D03*
X160640000Y-132820000D03*
X160640000Y-135360000D03*
X160640000Y-137900000D03*
D21*
X142860000Y-137900000D03*
X142860000Y-135360000D03*
X142860000Y-132820000D03*
X142860000Y-130280000D03*
X142860000Y-125200000D03*
X142860000Y-127740000D03*
X158100000Y-120120000D03*
X142860000Y-120120000D03*
X158100000Y-122660000D03*
X158100000Y-125200000D03*
X158100000Y-127740000D03*
X158100000Y-130280000D03*
X158100000Y-132820000D03*
X158100000Y-135360000D03*
X158100000Y-137900000D03*
X142860000Y-122660000D03*
D19*
X140320000Y-120120000D03*
D20*
X140320000Y-122660000D03*
X140320000Y-125200000D03*
X140320000Y-127740000D03*
X140320000Y-130280000D03*
X140320000Y-132820000D03*
X140320000Y-135360000D03*
X140320000Y-137900000D03*
D22*
X147245000Y-99913000D03*
X153745000Y-99913000D03*
X147245000Y-95413000D03*
X153745000Y-95413000D03*
%LPD*%
M02*
