G04 #@! TF.GenerationSoftware,KiCad,Pcbnew,8.0.6*
G04 #@! TF.CreationDate,2024-11-27T09:37:49+01:00*
G04 #@! TF.ProjectId,christmas_soldering_kit_2024,63687269-7374-46d6-9173-5f736f6c6465,rev?*
G04 #@! TF.SameCoordinates,Original*
G04 #@! TF.FileFunction,Copper,L1,Top*
G04 #@! TF.FilePolarity,Positive*
%FSLAX46Y46*%
G04 Gerber Fmt 4.6, Leading zero omitted, Abs format (unit mm)*
G04 Created by KiCad (PCBNEW 8.0.6) date 2024-11-27 09:37:49*
%MOMM*%
%LPD*%
G01*
G04 APERTURE LIST*
G04 #@! TA.AperFunction,ComponentPad*
%ADD10C,0.550000*%
G04 #@! TD*
G04 #@! TA.AperFunction,ComponentPad*
%ADD11R,1.700000X1.700000*%
G04 #@! TD*
G04 #@! TA.AperFunction,ComponentPad*
%ADD12O,1.700000X1.700000*%
G04 #@! TD*
G04 #@! TA.AperFunction,ComponentPad*
%ADD13C,1.905000*%
G04 #@! TD*
G04 #@! TA.AperFunction,ComponentPad*
%ADD14C,2.000000*%
G04 #@! TD*
G04 APERTURE END LIST*
D10*
X149860000Y-113030000D03*
X151130000Y-116840000D03*
X161370000Y-82095000D03*
X162640000Y-85905000D03*
X174498000Y-96595000D03*
X175768000Y-100405000D03*
X138250000Y-82095000D03*
X139520000Y-85905000D03*
X149860000Y-48387000D03*
X151130000Y-52197000D03*
X125222000Y-96595000D03*
X126492000Y-100405000D03*
X117348000Y-124074000D03*
X118618000Y-127884000D03*
X167640000Y-70595000D03*
X168910000Y-74405000D03*
X182626000Y-124074000D03*
X183896000Y-127884000D03*
X132334000Y-70595000D03*
X133604000Y-74405000D03*
X149870000Y-63595000D03*
X151140000Y-67405000D03*
D11*
X160660000Y-119600000D03*
D12*
X160660000Y-122140000D03*
X160660000Y-124680000D03*
X160660000Y-127220000D03*
X160660000Y-129760000D03*
X160660000Y-132300000D03*
X160660000Y-134840000D03*
X160660000Y-137380000D03*
D13*
X142880000Y-137380000D03*
X142880000Y-134840000D03*
X142880000Y-132300000D03*
X142880000Y-129760000D03*
X142880000Y-124680000D03*
X142880000Y-127220000D03*
X158120000Y-119600000D03*
X142880000Y-119600000D03*
X158120000Y-122140000D03*
X158120000Y-124680000D03*
X158120000Y-127220000D03*
X158120000Y-129760000D03*
X158120000Y-132300000D03*
X158120000Y-134840000D03*
X158120000Y-137380000D03*
X142880000Y-122140000D03*
D11*
X140340000Y-119600000D03*
D12*
X140340000Y-122140000D03*
X140340000Y-124680000D03*
X140340000Y-127220000D03*
X140340000Y-129760000D03*
X140340000Y-132300000D03*
X140340000Y-134840000D03*
X140340000Y-137380000D03*
D14*
X147245000Y-99913000D03*
X153745000Y-99913000D03*
X147245000Y-95413000D03*
X153745000Y-95413000D03*
G04 #@! TA.AperFunction,Conductor*
G36*
X142317271Y-122440785D02*
G01*
X142386764Y-122544789D01*
X142475211Y-122633236D01*
X142579215Y-122702729D01*
X142643991Y-122729560D01*
X142043790Y-123329761D01*
X142044747Y-123345171D01*
X142061565Y-123368539D01*
X142065239Y-123438312D01*
X142030607Y-123498995D01*
X142020752Y-123507535D01*
X141892539Y-123607327D01*
X141892534Y-123607332D01*
X141729449Y-123784490D01*
X141652152Y-123902802D01*
X141599005Y-123948158D01*
X141529774Y-123957582D01*
X141466438Y-123928080D01*
X141446768Y-123906103D01*
X141378494Y-123808597D01*
X141211402Y-123641506D01*
X141211401Y-123641505D01*
X141025405Y-123511269D01*
X140981781Y-123456692D01*
X140974588Y-123387193D01*
X141006110Y-123324839D01*
X141025405Y-123308119D01*
X141211082Y-123178105D01*
X141378105Y-123011082D01*
X141446782Y-122913003D01*
X141501359Y-122869378D01*
X141570858Y-122862186D01*
X141633212Y-122893708D01*
X141652166Y-122916306D01*
X141690880Y-122975563D01*
X142290438Y-122376006D01*
X142317271Y-122440785D01*
G37*
G04 #@! TD.AperFunction*
G04 #@! TA.AperFunction,Conductor*
G36*
X141818632Y-120602087D02*
G01*
X141850433Y-120626934D01*
X141892537Y-120672671D01*
X141977021Y-120738428D01*
X142020750Y-120772463D01*
X142061563Y-120829173D01*
X142065238Y-120898946D01*
X142044746Y-120934851D01*
X142043791Y-120950237D01*
X142643992Y-121550438D01*
X142579215Y-121577271D01*
X142475211Y-121646764D01*
X142386764Y-121735211D01*
X142317271Y-121839215D01*
X142290438Y-121903992D01*
X141690880Y-121304434D01*
X141652164Y-121363694D01*
X141599018Y-121409051D01*
X141529787Y-121418474D01*
X141466451Y-121388972D01*
X141446781Y-121366995D01*
X141378113Y-121268926D01*
X141378108Y-121268920D01*
X141256053Y-121146865D01*
X141222568Y-121085542D01*
X141227552Y-121015850D01*
X141269424Y-120959917D01*
X141300400Y-120943002D01*
X141418523Y-120898946D01*
X141432326Y-120893798D01*
X141432326Y-120893797D01*
X141432331Y-120893796D01*
X141547546Y-120807546D01*
X141633796Y-120692331D01*
X141641127Y-120672676D01*
X141643025Y-120667588D01*
X141684895Y-120611654D01*
X141750359Y-120587236D01*
X141818632Y-120602087D01*
G37*
G04 #@! TD.AperFunction*
G04 #@! TA.AperFunction,Conductor*
G36*
X150531461Y-43341535D02*
G01*
X150555211Y-43342939D01*
X150568217Y-43344400D01*
X150595732Y-43348977D01*
X150607674Y-43351576D01*
X150641702Y-43360757D01*
X150652215Y-43364102D01*
X150694454Y-43379647D01*
X150703401Y-43383344D01*
X150754553Y-43406854D01*
X150761976Y-43410571D01*
X150815430Y-43439619D01*
X150823964Y-43444710D01*
X150869685Y-43474530D01*
X150977236Y-43544678D01*
X150984880Y-43550087D01*
X151132809Y-43663386D01*
X151147208Y-43676317D01*
X151188411Y-43719592D01*
X151208084Y-43740254D01*
X151213066Y-43745813D01*
X151397775Y-43964812D01*
X151399743Y-43967204D01*
X152057867Y-44788269D01*
X152059081Y-44789809D01*
X154290149Y-47665265D01*
X154290768Y-47666070D01*
X157451528Y-51809342D01*
X157451909Y-51809844D01*
X161209266Y-56787410D01*
X161209378Y-56787559D01*
X172677971Y-72028437D01*
X172678200Y-72028742D01*
X173087394Y-72576016D01*
X173088486Y-72577499D01*
X173453783Y-73081509D01*
X173455028Y-73083259D01*
X173773571Y-73539173D01*
X173775076Y-73541376D01*
X174042025Y-73941516D01*
X174043978Y-73944538D01*
X174253632Y-74279452D01*
X174256413Y-74284119D01*
X174405065Y-74546478D01*
X174408155Y-74552286D01*
X174446556Y-74629358D01*
X174451654Y-74639589D01*
X174454572Y-74645882D01*
X174462835Y-74665088D01*
X174471248Y-74734450D01*
X174466030Y-74754882D01*
X174462807Y-74764135D01*
X174460706Y-74769729D01*
X174452662Y-74789673D01*
X174450459Y-74794798D01*
X174442940Y-74811264D01*
X174439498Y-74818218D01*
X174409758Y-74873848D01*
X174404998Y-74881992D01*
X174370350Y-74936402D01*
X174365448Y-74943536D01*
X174323312Y-75000502D01*
X174318271Y-75006871D01*
X174269599Y-75064379D01*
X174264368Y-75070178D01*
X174210322Y-75126434D01*
X174204828Y-75131809D01*
X174146646Y-75185302D01*
X174140781Y-75190366D01*
X174079906Y-75239688D01*
X174073543Y-75244512D01*
X174011500Y-75288481D01*
X174004479Y-75293108D01*
X173937947Y-75333781D01*
X173932149Y-75337113D01*
X173906918Y-75350726D01*
X173902744Y-75352877D01*
X173873519Y-75367244D01*
X173869076Y-75369320D01*
X173840987Y-75381769D01*
X173836217Y-75383765D01*
X173809403Y-75394334D01*
X173804285Y-75396222D01*
X173779163Y-75404868D01*
X173773674Y-75406616D01*
X173757642Y-75411313D01*
X173748816Y-75413551D01*
X173300230Y-75509893D01*
X173296675Y-75510602D01*
X172490175Y-75659294D01*
X172488348Y-75659616D01*
X170263716Y-76035451D01*
X170262213Y-76035696D01*
X167957400Y-76396012D01*
X167955806Y-76396250D01*
X167047040Y-76526246D01*
X167044500Y-76526583D01*
X166436840Y-76600731D01*
X166434954Y-76600947D01*
X166269206Y-76618601D01*
X166255576Y-76619297D01*
X166250985Y-76619278D01*
X166192028Y-76626796D01*
X166189478Y-76627094D01*
X166130390Y-76633387D01*
X166125917Y-76634468D01*
X166112503Y-76636935D01*
X166031461Y-76647269D01*
X166018091Y-76648243D01*
X166012133Y-76648354D01*
X165953979Y-76657117D01*
X165951187Y-76657505D01*
X165892876Y-76664939D01*
X165887112Y-76666459D01*
X165873989Y-76669169D01*
X165813641Y-76678262D01*
X165800367Y-76678699D01*
X165800403Y-76679476D01*
X165792289Y-76679849D01*
X165735828Y-76689940D01*
X165732493Y-76690489D01*
X165675764Y-76699038D01*
X165667958Y-76701287D01*
X165667743Y-76700541D01*
X165655028Y-76704383D01*
X165617087Y-76711164D01*
X165602009Y-76712139D01*
X165602040Y-76712505D01*
X165593942Y-76713178D01*
X165540811Y-76724713D01*
X165536324Y-76725601D01*
X165482813Y-76735166D01*
X165475067Y-76737629D01*
X165474955Y-76737279D01*
X165460645Y-76742119D01*
X165443254Y-76745895D01*
X165418291Y-76748711D01*
X165416010Y-76748735D01*
X165370217Y-76761534D01*
X165363153Y-76763286D01*
X165316697Y-76773373D01*
X165316684Y-76773378D01*
X165316434Y-76773507D01*
X165315862Y-76773673D01*
X165309047Y-76776120D01*
X165308895Y-76775698D01*
X165270876Y-76786754D01*
X165264272Y-76787352D01*
X165264260Y-76787355D01*
X165225756Y-76801505D01*
X165216368Y-76804537D01*
X165185008Y-76813303D01*
X165176869Y-76815209D01*
X165176195Y-76815431D01*
X165144099Y-76830898D01*
X165133047Y-76835579D01*
X165099617Y-76847865D01*
X165099616Y-76847866D01*
X165097893Y-76849081D01*
X165072291Y-76862943D01*
X165057895Y-76868669D01*
X165057894Y-76868669D01*
X165053087Y-76872251D01*
X165032855Y-76884508D01*
X165027458Y-76887109D01*
X165019020Y-76894374D01*
X165016843Y-76896205D01*
X164986458Y-76921174D01*
X164971569Y-76931676D01*
X164966784Y-76934548D01*
X164966629Y-76934672D01*
X164951783Y-76947731D01*
X164933751Y-76961167D01*
X164929663Y-76965140D01*
X164920851Y-76974125D01*
X164916949Y-76978295D01*
X164900675Y-77001037D01*
X164889014Y-77015032D01*
X164875208Y-77029320D01*
X164875206Y-77029323D01*
X164869015Y-77040484D01*
X164857887Y-77057192D01*
X164852052Y-77064578D01*
X164849155Y-77069436D01*
X164839528Y-77086487D01*
X164836892Y-77090170D01*
X164835554Y-77092041D01*
X164835549Y-77092050D01*
X164828561Y-77110652D01*
X164820923Y-77127181D01*
X164811285Y-77144558D01*
X164811280Y-77144570D01*
X164805034Y-77169590D01*
X164801360Y-77180467D01*
X164799773Y-77186073D01*
X164796550Y-77195873D01*
X164789008Y-77215950D01*
X164788504Y-77218047D01*
X164786171Y-77240168D01*
X164783165Y-77257187D01*
X164777774Y-77278781D01*
X164777957Y-77289453D01*
X164776913Y-77300906D01*
X164777513Y-77300948D01*
X164776952Y-77309054D01*
X164777034Y-77310365D01*
X164776587Y-77331032D01*
X164774681Y-77349099D01*
X164774681Y-77349102D01*
X164778153Y-77371081D01*
X164779653Y-77388292D01*
X164780036Y-77410546D01*
X164780036Y-77410548D01*
X164780396Y-77411804D01*
X164784952Y-77438282D01*
X164785094Y-77440584D01*
X164785095Y-77440589D01*
X164789434Y-77453525D01*
X164794350Y-77473600D01*
X164796481Y-77487092D01*
X164798787Y-77494883D01*
X164798443Y-77494984D01*
X164799716Y-77499147D01*
X164800355Y-77498946D01*
X164802797Y-77506690D01*
X164811040Y-77524363D01*
X164813069Y-77529789D01*
X164813083Y-77529784D01*
X164819399Y-77544316D01*
X164823232Y-77554293D01*
X164830669Y-77576464D01*
X164830670Y-77576465D01*
X164830672Y-77576470D01*
X164836984Y-77585993D01*
X164842106Y-77594431D01*
X164849958Y-77608612D01*
X164855734Y-77622536D01*
X164856078Y-77622386D01*
X164859328Y-77629833D01*
X164859953Y-77630869D01*
X164866123Y-77642455D01*
X164872889Y-77656961D01*
X164876472Y-77661230D01*
X164889948Y-77680838D01*
X164890306Y-77681484D01*
X164894052Y-77690123D01*
X164894371Y-77689972D01*
X164897852Y-77697308D01*
X164903994Y-77706805D01*
X164908347Y-77714069D01*
X164916059Y-77727996D01*
X164916062Y-77727999D01*
X164920886Y-77734525D01*
X164920731Y-77734638D01*
X164927553Y-77743235D01*
X164928251Y-77744314D01*
X164930340Y-77747657D01*
X164959255Y-77795633D01*
X164964319Y-77801981D01*
X164963854Y-77802351D01*
X164972832Y-77813248D01*
X164980901Y-77825726D01*
X164987455Y-77837150D01*
X164990700Y-77843574D01*
X165023504Y-77891671D01*
X165025184Y-77894201D01*
X165056815Y-77943111D01*
X165056818Y-77943115D01*
X165056821Y-77943119D01*
X165056824Y-77943122D01*
X165061486Y-77948600D01*
X165069474Y-77959070D01*
X165102019Y-78006787D01*
X165109340Y-78018968D01*
X165110047Y-78020315D01*
X165145158Y-78070063D01*
X165146288Y-78071693D01*
X165180600Y-78121999D01*
X165180602Y-78122001D01*
X165180606Y-78122007D01*
X165180610Y-78122011D01*
X165181604Y-78123122D01*
X165190476Y-78134274D01*
X165245636Y-78212431D01*
X165252511Y-78223514D01*
X165289387Y-78274435D01*
X165290202Y-78275575D01*
X165295266Y-78282749D01*
X165326493Y-78326995D01*
X165334759Y-78337089D01*
X165408945Y-78439531D01*
X165414967Y-78448998D01*
X165453214Y-78500672D01*
X165453976Y-78501712D01*
X165491770Y-78553901D01*
X165498969Y-78562491D01*
X165588509Y-78683468D01*
X165594209Y-78692234D01*
X165595487Y-78693927D01*
X165595488Y-78693928D01*
X165633457Y-78744205D01*
X165634108Y-78745076D01*
X165672761Y-78797300D01*
X165679558Y-78805248D01*
X165780505Y-78938915D01*
X165781215Y-78939993D01*
X165824859Y-78997646D01*
X165824945Y-78997759D01*
X165869168Y-79056316D01*
X165870019Y-79057301D01*
X166878319Y-80389223D01*
X168083889Y-81994721D01*
X168083913Y-81994785D01*
X168083929Y-81994774D01*
X170046748Y-84611630D01*
X170048999Y-84615067D01*
X170052425Y-84619600D01*
X170052426Y-84619601D01*
X170091558Y-84671373D01*
X170130581Y-84723398D01*
X170130583Y-84723399D01*
X170133985Y-84727935D01*
X170136658Y-84731040D01*
X172527065Y-87893510D01*
X172943132Y-88443960D01*
X172943333Y-88444228D01*
X176405936Y-93051015D01*
X178815363Y-96256616D01*
X179054298Y-96574504D01*
X179054859Y-96575256D01*
X180174879Y-98090147D01*
X181001529Y-99208238D01*
X181003038Y-99210325D01*
X181773511Y-100299031D01*
X181790786Y-100334114D01*
X181791261Y-100335654D01*
X181793537Y-100344076D01*
X181795912Y-100354274D01*
X181797536Y-100362493D01*
X181799554Y-100374900D01*
X181800588Y-100382887D01*
X181802008Y-100397590D01*
X181802509Y-100405259D01*
X181803093Y-100422286D01*
X181803127Y-100429654D01*
X181802643Y-100448901D01*
X181802266Y-100455933D01*
X181800514Y-100477266D01*
X181799776Y-100483993D01*
X181796583Y-100507236D01*
X181795532Y-100513642D01*
X181790772Y-100538543D01*
X181789442Y-100544660D01*
X181783010Y-100571016D01*
X181781433Y-100576853D01*
X181773277Y-100604372D01*
X181771474Y-100609966D01*
X181761549Y-100638427D01*
X181759542Y-100643783D01*
X181747858Y-100672895D01*
X181745659Y-100678034D01*
X181732241Y-100707544D01*
X181729849Y-100712509D01*
X181714725Y-100742195D01*
X181712158Y-100746973D01*
X181695414Y-100776563D01*
X181692661Y-100781190D01*
X181674345Y-100810511D01*
X181671403Y-100815001D01*
X181651686Y-100843719D01*
X181648552Y-100848079D01*
X181627437Y-100876147D01*
X181624107Y-100880379D01*
X181601821Y-100907470D01*
X181598273Y-100911595D01*
X181574902Y-100937591D01*
X181571128Y-100941606D01*
X181546796Y-100966364D01*
X181542785Y-100970265D01*
X181517671Y-100993612D01*
X181513409Y-100997395D01*
X181487627Y-101019243D01*
X181483093Y-101022906D01*
X181456825Y-101043124D01*
X181452007Y-101046651D01*
X181425390Y-101065168D01*
X181420288Y-101068533D01*
X181393426Y-101085317D01*
X181388004Y-101088515D01*
X181361031Y-101103520D01*
X181355297Y-101106517D01*
X181328825Y-101119484D01*
X181305067Y-101128243D01*
X180862690Y-101241635D01*
X180856976Y-101242956D01*
X179893971Y-101441801D01*
X179891566Y-101442273D01*
X177125183Y-101956692D01*
X177123271Y-101957032D01*
X174330718Y-102431199D01*
X174328367Y-102431575D01*
X173331748Y-102581173D01*
X173326395Y-102581858D01*
X172818524Y-102635623D01*
X172807903Y-102636288D01*
X172719815Y-102638017D01*
X172705915Y-102636683D01*
X172705865Y-102637307D01*
X172697767Y-102636654D01*
X172697765Y-102636654D01*
X172697762Y-102636654D01*
X172697761Y-102636654D01*
X172641558Y-102639494D01*
X172637738Y-102639628D01*
X172610316Y-102640167D01*
X172601643Y-102640034D01*
X172598891Y-102639895D01*
X172594534Y-102640247D01*
X172587005Y-102640625D01*
X172581520Y-102640733D01*
X172577839Y-102641291D01*
X172569243Y-102642289D01*
X172542573Y-102644443D01*
X172538848Y-102644687D01*
X172519153Y-102645682D01*
X172509887Y-102645263D01*
X172509884Y-102645589D01*
X172501763Y-102645504D01*
X172491036Y-102646802D01*
X172482436Y-102647539D01*
X172482423Y-102647539D01*
X172481260Y-102647753D01*
X172473793Y-102648889D01*
X172457095Y-102650909D01*
X172448707Y-102651924D01*
X172443794Y-102652420D01*
X172422151Y-102654167D01*
X172412096Y-102654126D01*
X172405025Y-102654423D01*
X172398623Y-102655541D01*
X172392201Y-102656360D01*
X172386977Y-102657482D01*
X172382288Y-102658394D01*
X172356250Y-102662941D01*
X172349817Y-102663892D01*
X172322112Y-102667245D01*
X172309333Y-102667889D01*
X172306898Y-102668160D01*
X172263842Y-102678782D01*
X172255477Y-102680542D01*
X172212507Y-102688047D01*
X172208643Y-102688519D01*
X172205277Y-102689207D01*
X172169707Y-102701484D01*
X172158958Y-102704658D01*
X172122423Y-102713672D01*
X172116386Y-102716033D01*
X172105912Y-102719052D01*
X172105924Y-102719086D01*
X172098211Y-102721636D01*
X172072075Y-102734271D01*
X172058567Y-102739844D01*
X172031144Y-102749309D01*
X172031139Y-102749311D01*
X172025617Y-102753042D01*
X171997500Y-102767211D01*
X171985445Y-102771468D01*
X171985441Y-102771469D01*
X171985438Y-102771471D01*
X171985435Y-102771472D01*
X171985435Y-102771473D01*
X171970026Y-102782041D01*
X171953870Y-102791415D01*
X171937033Y-102799555D01*
X171937030Y-102799557D01*
X171918228Y-102815787D01*
X171899331Y-102829233D01*
X171870983Y-102845643D01*
X171870981Y-102845645D01*
X171865432Y-102851207D01*
X171847794Y-102865880D01*
X171841320Y-102870320D01*
X171814008Y-102902237D01*
X171807476Y-102909296D01*
X171807092Y-102909680D01*
X171802707Y-102913856D01*
X171765466Y-102947625D01*
X171764169Y-102949154D01*
X171750835Y-102965699D01*
X171749615Y-102967293D01*
X171724532Y-103010853D01*
X171721300Y-103016155D01*
X171716012Y-103024359D01*
X171713026Y-103028780D01*
X171682737Y-103071605D01*
X171678952Y-103078794D01*
X171678852Y-103078741D01*
X171676377Y-103083697D01*
X171676480Y-103083746D01*
X171673010Y-103091084D01*
X171656983Y-103140999D01*
X171655239Y-103146052D01*
X171652525Y-103153400D01*
X171649783Y-103160199D01*
X171630757Y-103203623D01*
X171630753Y-103203635D01*
X171630392Y-103206008D01*
X171624132Y-103230272D01*
X171623297Y-103232532D01*
X171623295Y-103232541D01*
X171623295Y-103232542D01*
X171619153Y-103277425D01*
X171616091Y-103295636D01*
X171607437Y-103330822D01*
X171607687Y-103342942D01*
X171606299Y-103364168D01*
X171604475Y-103376139D01*
X171604475Y-103376148D01*
X171607392Y-103402411D01*
X171607487Y-103428904D01*
X171605540Y-103447653D01*
X171605540Y-103447661D01*
X171609139Y-103470206D01*
X171610663Y-103487189D01*
X171611135Y-103510033D01*
X171613467Y-103518071D01*
X171618377Y-103552122D01*
X171618387Y-103554660D01*
X171626874Y-103585843D01*
X171629675Y-103598858D01*
X171634767Y-103630755D01*
X171637085Y-103638546D01*
X171636888Y-103638604D01*
X171640790Y-103650417D01*
X171641755Y-103654770D01*
X171655393Y-103692252D01*
X171658513Y-103702081D01*
X171668993Y-103740583D01*
X171670669Y-103744583D01*
X171671280Y-103746311D01*
X171691800Y-103793068D01*
X171694779Y-103800499D01*
X171710413Y-103843464D01*
X171714167Y-103850676D01*
X171714135Y-103850692D01*
X171715789Y-103853467D01*
X171734873Y-103891600D01*
X171737513Y-103897225D01*
X171757663Y-103943139D01*
X171761869Y-103950086D01*
X171761619Y-103950236D01*
X171764409Y-103954472D01*
X171784168Y-103990320D01*
X171786458Y-103994677D01*
X171810400Y-104042513D01*
X171811763Y-104044527D01*
X171815719Y-104050767D01*
X171839788Y-104091354D01*
X171841722Y-104094736D01*
X171849628Y-104109079D01*
X171869045Y-104144308D01*
X171873081Y-104150239D01*
X171901855Y-104196094D01*
X171903451Y-104198711D01*
X171934094Y-104250386D01*
X171936678Y-104253980D01*
X171970600Y-104305696D01*
X171971948Y-104307797D01*
X172007934Y-104365145D01*
X172007607Y-104365350D01*
X172008846Y-104367233D01*
X172009015Y-104367118D01*
X172046964Y-104422176D01*
X172048552Y-104424536D01*
X172080753Y-104473628D01*
X172084742Y-104478255D01*
X172092918Y-104488845D01*
X172174558Y-104607289D01*
X172181658Y-104618908D01*
X172183929Y-104623128D01*
X172183931Y-104623131D01*
X172183933Y-104623135D01*
X172208509Y-104657235D01*
X172218637Y-104671289D01*
X172220135Y-104673415D01*
X172253799Y-104722254D01*
X172257004Y-104725804D01*
X172265563Y-104736399D01*
X172377558Y-104891795D01*
X172385159Y-104903769D01*
X172422029Y-104953519D01*
X172423001Y-104954849D01*
X172459200Y-105005076D01*
X172468305Y-105015961D01*
X172611997Y-105209851D01*
X172616747Y-105217159D01*
X172656758Y-105270257D01*
X172657350Y-105271049D01*
X172696920Y-105324442D01*
X172702569Y-105331051D01*
X172879212Y-105565467D01*
X172879284Y-105565575D01*
X172924166Y-105625123D01*
X172924174Y-105625134D01*
X172967965Y-105683246D01*
X172968043Y-105683336D01*
X175963031Y-109656929D01*
X175963242Y-109657250D01*
X176007498Y-109715924D01*
X176007524Y-109715958D01*
X176051962Y-109774917D01*
X176052205Y-109775198D01*
X183462630Y-119600000D01*
X183700171Y-119914933D01*
X183700234Y-119915100D01*
X183700274Y-119915070D01*
X186066258Y-123060909D01*
X188029754Y-125697099D01*
X188030139Y-125697621D01*
X188649355Y-126542171D01*
X189385450Y-127546134D01*
X189386507Y-127547598D01*
X189764607Y-128079361D01*
X189767517Y-128083640D01*
X189882227Y-128260122D01*
X189898432Y-128297130D01*
X189899797Y-128302496D01*
X189901512Y-128310274D01*
X189903980Y-128323473D01*
X189905174Y-128331202D01*
X189906924Y-128345502D01*
X189907616Y-128353086D01*
X189908555Y-128368629D01*
X189908781Y-128376034D01*
X189908791Y-128392906D01*
X189908587Y-128400091D01*
X189907539Y-128418333D01*
X189906942Y-128425291D01*
X189904703Y-128444896D01*
X189903750Y-128451609D01*
X189900208Y-128472443D01*
X189898935Y-128478892D01*
X189893955Y-128501015D01*
X189892391Y-128507211D01*
X189885915Y-128530344D01*
X189884094Y-128536274D01*
X189876006Y-128560438D01*
X189873947Y-128566124D01*
X189864229Y-128591049D01*
X189861953Y-128596499D01*
X189850541Y-128622095D01*
X189848074Y-128627301D01*
X189834945Y-128653414D01*
X189832289Y-128658410D01*
X189817460Y-128684828D01*
X189814635Y-128689607D01*
X189798101Y-128716199D01*
X189795112Y-128720778D01*
X189776883Y-128747402D01*
X189773737Y-128751788D01*
X189753861Y-128778267D01*
X189750560Y-128782472D01*
X189729109Y-128808621D01*
X189725660Y-128812647D01*
X189702602Y-128838424D01*
X189699000Y-128842282D01*
X189674464Y-128867467D01*
X189670715Y-128871156D01*
X189644734Y-128895654D01*
X189640839Y-128899174D01*
X189635054Y-128904184D01*
X189613475Y-128922869D01*
X189609420Y-128926232D01*
X189580733Y-128949014D01*
X189576532Y-128952207D01*
X189546625Y-128973949D01*
X189542271Y-128976974D01*
X189511144Y-128997629D01*
X189506635Y-129000483D01*
X189474367Y-129019949D01*
X189469704Y-129022626D01*
X189436360Y-129040818D01*
X189431547Y-129043309D01*
X189397176Y-129060156D01*
X189392225Y-129062449D01*
X189388181Y-129064215D01*
X189370198Y-129070473D01*
X188957134Y-129179485D01*
X188950575Y-129181027D01*
X188030842Y-129371001D01*
X188028053Y-129371543D01*
X185181264Y-129891846D01*
X185179412Y-129892170D01*
X181750478Y-130465294D01*
X181749143Y-130465510D01*
X180089051Y-130724400D01*
X180087807Y-130724588D01*
X178604163Y-130940564D01*
X178603451Y-130940665D01*
X172830750Y-131746839D01*
X172828648Y-131747114D01*
X171360416Y-131926635D01*
X171358531Y-131926851D01*
X169869436Y-132085832D01*
X169867074Y-132086062D01*
X168354855Y-132218297D01*
X168352053Y-132218510D01*
X166808236Y-132318320D01*
X166806704Y-132318409D01*
X162992651Y-132517615D01*
X162986183Y-132517784D01*
X162936583Y-132517784D01*
X162936381Y-132517838D01*
X162910777Y-132521891D01*
X162910569Y-132521901D01*
X162863391Y-132537220D01*
X162857195Y-132539055D01*
X162809291Y-132551891D01*
X162809283Y-132551895D01*
X162809104Y-132551999D01*
X162785429Y-132562537D01*
X162785229Y-132562601D01*
X162785227Y-132562602D01*
X162743630Y-132589605D01*
X162738119Y-132592982D01*
X162695161Y-132617785D01*
X162695153Y-132617791D01*
X162695006Y-132617939D01*
X162674874Y-132634239D01*
X162674698Y-132634352D01*
X162674689Y-132634360D01*
X162641493Y-132671214D01*
X162637042Y-132675903D01*
X162601980Y-132710965D01*
X162601975Y-132710971D01*
X162601868Y-132711158D01*
X162586642Y-132732111D01*
X162586497Y-132732271D01*
X162586496Y-132732273D01*
X162586494Y-132732276D01*
X162586493Y-132732278D01*
X162567003Y-132770512D01*
X162563972Y-132776458D01*
X162560886Y-132782139D01*
X162536086Y-132825095D01*
X162536031Y-132825301D01*
X162526739Y-132849499D01*
X162526645Y-132849682D01*
X162526644Y-132849685D01*
X162516324Y-132898193D01*
X162514814Y-132904481D01*
X162501977Y-132952388D01*
X162501977Y-132952587D01*
X162499263Y-132978387D01*
X162499221Y-132978583D01*
X162499220Y-132978586D01*
X162501808Y-133028115D01*
X162501977Y-133034583D01*
X162501977Y-137009844D01*
X162501976Y-137010392D01*
X162495807Y-138406074D01*
X162495781Y-138408093D01*
X162473105Y-139503181D01*
X162473015Y-139506000D01*
X162453868Y-139946362D01*
X162453709Y-139949244D01*
X162428477Y-140326833D01*
X162428143Y-140330847D01*
X162396721Y-140646538D01*
X162396041Y-140652097D01*
X162358804Y-140908213D01*
X162357449Y-140915848D01*
X162315838Y-141114058D01*
X162313207Y-141124366D01*
X162270318Y-141266663D01*
X162265421Y-141280067D01*
X162226318Y-141370556D01*
X162217848Y-141386758D01*
X162187722Y-141435297D01*
X162174807Y-141452554D01*
X162153493Y-141476394D01*
X162137052Y-141491726D01*
X162113785Y-141509774D01*
X162096812Y-141520844D01*
X162054272Y-141543871D01*
X162039946Y-141550484D01*
X162031110Y-141553899D01*
X161993552Y-141562031D01*
X161740343Y-141576643D01*
X161735925Y-141576819D01*
X160863837Y-141595999D01*
X160862513Y-141596021D01*
X157942740Y-141629042D01*
X157941843Y-141629049D01*
X150433302Y-141659603D01*
X150432623Y-141659604D01*
X145269421Y-141652355D01*
X145268266Y-141652348D01*
X141662206Y-141613694D01*
X141659708Y-141613642D01*
X140407230Y-141574973D01*
X140403537Y-141574804D01*
X139501773Y-141520014D01*
X139493762Y-141519266D01*
X138938644Y-141449185D01*
X138924382Y-141446529D01*
X138825026Y-141421937D01*
X138803361Y-141414388D01*
X138793063Y-141409691D01*
X138772554Y-141397851D01*
X138750170Y-141381898D01*
X138746506Y-141379184D01*
X138730317Y-141366724D01*
X138725978Y-141363226D01*
X138723942Y-141361508D01*
X138722210Y-141360046D01*
X138685870Y-141308262D01*
X138682957Y-141300383D01*
X138681667Y-141296712D01*
X138679361Y-141289797D01*
X138677783Y-141284696D01*
X138667477Y-141248590D01*
X138665926Y-141242588D01*
X138665830Y-141242176D01*
X138655595Y-141198035D01*
X138654535Y-141192990D01*
X138646687Y-141151346D01*
X138643565Y-141134783D01*
X138642855Y-141130621D01*
X138631798Y-141058486D01*
X138631321Y-141055061D01*
X138620533Y-140968657D01*
X138620232Y-140965992D01*
X138609959Y-140865164D01*
X138609766Y-140863082D01*
X138600125Y-140747404D01*
X138600002Y-140745769D01*
X138591069Y-140615131D01*
X138590978Y-140613673D01*
X138582744Y-140467441D01*
X138582685Y-140466295D01*
X138582156Y-140454937D01*
X138575118Y-140303906D01*
X138575081Y-140303013D01*
X138574203Y-140280370D01*
X138568129Y-140123760D01*
X138568106Y-140123102D01*
X138567141Y-140093434D01*
X138561707Y-139926450D01*
X138555790Y-139711903D01*
X138545036Y-139224756D01*
X138535196Y-138657882D01*
X138515292Y-137258200D01*
X138515315Y-137258117D01*
X138515291Y-137258118D01*
X138486271Y-135116270D01*
X138486272Y-135116268D01*
X138457905Y-133022882D01*
X138458092Y-133014234D01*
X138460583Y-132970310D01*
X138459386Y-132964558D01*
X138456796Y-132940977D01*
X138456717Y-132935104D01*
X138444761Y-132892787D01*
X138442699Y-132884373D01*
X138433734Y-132841290D01*
X138431088Y-132836043D01*
X138422484Y-132813936D01*
X138420888Y-132808284D01*
X138398379Y-132770490D01*
X138394202Y-132762881D01*
X138382437Y-132739545D01*
X138374407Y-132723616D01*
X138374405Y-132723613D01*
X138370499Y-132719238D01*
X138356462Y-132700106D01*
X138353455Y-132695058D01*
X138353454Y-132695056D01*
X138321946Y-132664392D01*
X138315933Y-132658115D01*
X138286644Y-132625305D01*
X138286643Y-132625304D01*
X138281728Y-132622082D01*
X138263228Y-132607242D01*
X138259019Y-132603146D01*
X138259016Y-132603144D01*
X138220631Y-132581669D01*
X138213208Y-132577168D01*
X138190987Y-132562603D01*
X138176428Y-132553060D01*
X138176426Y-132553059D01*
X138176424Y-132553058D01*
X138170841Y-132551218D01*
X138149135Y-132541674D01*
X138144453Y-132539055D01*
X138144005Y-132538804D01*
X138144004Y-132538803D01*
X138144003Y-132538803D01*
X138101380Y-132527999D01*
X138093030Y-132525568D01*
X138051266Y-132511801D01*
X138051268Y-132511801D01*
X138045399Y-132511469D01*
X138021962Y-132507869D01*
X138018608Y-132507019D01*
X138016261Y-132506424D01*
X138016259Y-132506424D01*
X138016256Y-132506423D01*
X137972287Y-132507019D01*
X137963591Y-132506831D01*
X134261047Y-132296952D01*
X134259651Y-132296865D01*
X132680158Y-132189436D01*
X132677542Y-132189230D01*
X131159513Y-132053667D01*
X131157261Y-132053446D01*
X129685723Y-131894909D01*
X129683914Y-131894700D01*
X128248890Y-131718744D01*
X128247106Y-131718512D01*
X122638143Y-130948050D01*
X122637146Y-130947909D01*
X119151847Y-130440286D01*
X119149548Y-130439929D01*
X115618607Y-129857792D01*
X115616095Y-129857352D01*
X112803201Y-129333972D01*
X112799222Y-129333164D01*
X111925270Y-129140750D01*
X111915668Y-129138229D01*
X111562937Y-129030356D01*
X111534350Y-129017467D01*
X111512118Y-129003825D01*
X111499914Y-128996337D01*
X111496276Y-128994016D01*
X111458005Y-128968653D01*
X111454349Y-128966135D01*
X111418536Y-128940510D01*
X111414876Y-128937788D01*
X111381628Y-128912098D01*
X111377972Y-128909161D01*
X111347164Y-128883439D01*
X111343524Y-128880278D01*
X111315171Y-128854671D01*
X111311575Y-128851291D01*
X111285632Y-128825902D01*
X111282064Y-128822263D01*
X111258461Y-128797182D01*
X111254966Y-128793307D01*
X111233670Y-128768664D01*
X111230238Y-128764511D01*
X111211175Y-128740399D01*
X111207836Y-128735976D01*
X111190928Y-128712497D01*
X111187705Y-128707796D01*
X111172858Y-128685031D01*
X111169756Y-128680019D01*
X111156866Y-128658038D01*
X111153943Y-128652762D01*
X111142863Y-128631558D01*
X111140136Y-128626005D01*
X111130793Y-128605710D01*
X111128279Y-128599859D01*
X111127047Y-128596776D01*
X111120509Y-128580410D01*
X111118253Y-128574301D01*
X111111929Y-128555687D01*
X111109968Y-128549365D01*
X111104949Y-128531492D01*
X111103303Y-128524945D01*
X111100532Y-128512500D01*
X111099493Y-128507835D01*
X111098184Y-128501071D01*
X111095466Y-128484581D01*
X111094527Y-128477683D01*
X111092803Y-128461636D01*
X111092252Y-128454612D01*
X111091468Y-128438904D01*
X111091317Y-128431827D01*
X111091435Y-128416244D01*
X111091692Y-128409182D01*
X111092716Y-128393529D01*
X111093387Y-128386429D01*
X111095341Y-128370633D01*
X111096417Y-128363598D01*
X111099383Y-128347363D01*
X111100851Y-128340455D01*
X111104935Y-128323616D01*
X111106782Y-128316843D01*
X111106991Y-128316154D01*
X111112111Y-128299278D01*
X111114298Y-128292737D01*
X111121047Y-128274275D01*
X111123545Y-128267982D01*
X111130498Y-128251786D01*
X111142163Y-128230598D01*
X111379782Y-127883996D01*
X117837593Y-127883996D01*
X117837593Y-127884003D01*
X117857157Y-128057648D01*
X117857159Y-128057658D01*
X117914877Y-128222604D01*
X117914878Y-128222606D01*
X118007853Y-128370576D01*
X118131424Y-128494147D01*
X118279394Y-128587122D01*
X118444343Y-128644841D01*
X118444349Y-128644841D01*
X118444351Y-128644842D01*
X118617996Y-128664407D01*
X118618000Y-128664407D01*
X118618004Y-128664407D01*
X118791648Y-128644842D01*
X118791647Y-128644842D01*
X118791657Y-128644841D01*
X118956606Y-128587122D01*
X119104576Y-128494147D01*
X119228147Y-128370576D01*
X119321122Y-128222606D01*
X119378841Y-128057657D01*
X119396434Y-127901512D01*
X119398407Y-127884003D01*
X119398407Y-127883996D01*
X119378842Y-127710351D01*
X119378841Y-127710349D01*
X119378841Y-127710343D01*
X119321122Y-127545394D01*
X119228147Y-127397424D01*
X119104576Y-127273853D01*
X118956606Y-127180878D01*
X118956605Y-127180877D01*
X118956604Y-127180877D01*
X118791658Y-127123159D01*
X118791648Y-127123157D01*
X118618004Y-127103593D01*
X118617996Y-127103593D01*
X118444351Y-127123157D01*
X118444341Y-127123159D01*
X118279395Y-127180877D01*
X118131423Y-127273853D01*
X118007853Y-127397423D01*
X117914877Y-127545395D01*
X117857159Y-127710341D01*
X117857157Y-127710351D01*
X117837593Y-127883996D01*
X111379782Y-127883996D01*
X111428145Y-127813452D01*
X111430183Y-127810570D01*
X112204743Y-126748707D01*
X112205175Y-126748122D01*
X112726545Y-126047995D01*
X115377499Y-126047995D01*
X115404418Y-126183322D01*
X115404421Y-126183332D01*
X115457221Y-126310804D01*
X115457228Y-126310817D01*
X115533885Y-126425541D01*
X115533888Y-126425545D01*
X115631454Y-126523111D01*
X115631458Y-126523114D01*
X115746182Y-126599771D01*
X115746195Y-126599778D01*
X115873667Y-126652578D01*
X115873672Y-126652580D01*
X115873676Y-126652580D01*
X115873677Y-126652581D01*
X116009004Y-126679500D01*
X116009007Y-126679500D01*
X116146995Y-126679500D01*
X116238041Y-126661389D01*
X116282328Y-126652580D01*
X116409811Y-126599775D01*
X116524542Y-126523114D01*
X116559498Y-126488158D01*
X116625319Y-126422338D01*
X116686642Y-126388853D01*
X116756334Y-126393837D01*
X116800681Y-126422338D01*
X116901454Y-126523111D01*
X116901458Y-126523114D01*
X117016182Y-126599771D01*
X117016195Y-126599778D01*
X117143667Y-126652578D01*
X117143672Y-126652580D01*
X117143676Y-126652580D01*
X117143677Y-126652581D01*
X117279004Y-126679500D01*
X117279007Y-126679500D01*
X117416995Y-126679500D01*
X117508041Y-126661389D01*
X117552328Y-126652580D01*
X117679811Y-126599775D01*
X117794542Y-126523114D01*
X117829498Y-126488158D01*
X117895319Y-126422338D01*
X117956642Y-126388853D01*
X118026334Y-126393837D01*
X118070681Y-126422338D01*
X118171454Y-126523111D01*
X118171458Y-126523114D01*
X118286182Y-126599771D01*
X118286195Y-126599778D01*
X118413667Y-126652578D01*
X118413672Y-126652580D01*
X118413676Y-126652580D01*
X118413677Y-126652581D01*
X118549004Y-126679500D01*
X118549007Y-126679500D01*
X118686995Y-126679500D01*
X118778041Y-126661389D01*
X118822328Y-126652580D01*
X118949811Y-126599775D01*
X119064542Y-126523114D01*
X119099498Y-126488158D01*
X119165319Y-126422338D01*
X119226642Y-126388853D01*
X119296334Y-126393837D01*
X119340681Y-126422338D01*
X119441454Y-126523111D01*
X119441458Y-126523114D01*
X119556182Y-126599771D01*
X119556195Y-126599778D01*
X119683667Y-126652578D01*
X119683672Y-126652580D01*
X119683676Y-126652580D01*
X119683677Y-126652581D01*
X119819004Y-126679500D01*
X119819007Y-126679500D01*
X119956995Y-126679500D01*
X120048041Y-126661389D01*
X120092328Y-126652580D01*
X120219811Y-126599775D01*
X120334542Y-126523114D01*
X120432114Y-126425542D01*
X120508775Y-126310811D01*
X120561580Y-126183328D01*
X120577813Y-126101720D01*
X120588500Y-126047995D01*
X120588500Y-125910004D01*
X120561581Y-125774677D01*
X120561580Y-125774676D01*
X120561580Y-125774672D01*
X120538310Y-125718493D01*
X120508778Y-125647195D01*
X120508771Y-125647182D01*
X120432114Y-125532458D01*
X120432111Y-125532454D01*
X120334545Y-125434888D01*
X120334541Y-125434885D01*
X120219817Y-125358228D01*
X120219804Y-125358221D01*
X120092332Y-125305421D01*
X120092322Y-125305418D01*
X119956995Y-125278500D01*
X119956993Y-125278500D01*
X119819007Y-125278500D01*
X119819005Y-125278500D01*
X119683677Y-125305418D01*
X119683667Y-125305421D01*
X119556195Y-125358221D01*
X119556182Y-125358228D01*
X119441458Y-125434885D01*
X119441454Y-125434888D01*
X119340681Y-125535662D01*
X119279358Y-125569147D01*
X119209666Y-125564163D01*
X119165319Y-125535662D01*
X119064545Y-125434888D01*
X119064541Y-125434885D01*
X118949817Y-125358228D01*
X118949804Y-125358221D01*
X118822332Y-125305421D01*
X118822322Y-125305418D01*
X118686995Y-125278500D01*
X118686993Y-125278500D01*
X118549007Y-125278500D01*
X118549005Y-125278500D01*
X118413677Y-125305418D01*
X118413667Y-125305421D01*
X118286195Y-125358221D01*
X118286182Y-125358228D01*
X118171458Y-125434885D01*
X118171454Y-125434888D01*
X118070681Y-125535662D01*
X118009358Y-125569147D01*
X117939666Y-125564163D01*
X117895319Y-125535662D01*
X117794545Y-125434888D01*
X117794541Y-125434885D01*
X117679817Y-125358228D01*
X117679804Y-125358221D01*
X117552332Y-125305421D01*
X117552322Y-125305418D01*
X117416995Y-125278500D01*
X117416993Y-125278500D01*
X117279007Y-125278500D01*
X117279005Y-125278500D01*
X117143677Y-125305418D01*
X117143667Y-125305421D01*
X117016195Y-125358221D01*
X117016182Y-125358228D01*
X116901458Y-125434885D01*
X116901454Y-125434888D01*
X116800681Y-125535662D01*
X116739358Y-125569147D01*
X116669666Y-125564163D01*
X116625319Y-125535662D01*
X116524545Y-125434888D01*
X116524541Y-125434885D01*
X116409817Y-125358228D01*
X116409804Y-125358221D01*
X116282332Y-125305421D01*
X116282322Y-125305418D01*
X116146995Y-125278500D01*
X116146993Y-125278500D01*
X116009007Y-125278500D01*
X116009005Y-125278500D01*
X115873677Y-125305418D01*
X115873667Y-125305421D01*
X115746195Y-125358221D01*
X115746182Y-125358228D01*
X115631458Y-125434885D01*
X115631454Y-125434888D01*
X115533888Y-125532454D01*
X115533885Y-125532458D01*
X115457228Y-125647182D01*
X115457221Y-125647195D01*
X115404421Y-125774667D01*
X115404418Y-125774677D01*
X115377500Y-125910004D01*
X115377500Y-125910007D01*
X115377500Y-126047993D01*
X115377500Y-126047995D01*
X115377499Y-126047995D01*
X112726545Y-126047995D01*
X113676359Y-124772528D01*
X117003022Y-124772528D01*
X117009613Y-124776669D01*
X117009616Y-124776670D01*
X117174460Y-124834351D01*
X117347996Y-124853904D01*
X117348004Y-124853904D01*
X117521538Y-124834351D01*
X117686385Y-124776669D01*
X117686389Y-124776667D01*
X117692975Y-124772528D01*
X117692975Y-124772527D01*
X117600447Y-124679999D01*
X138984341Y-124679999D01*
X138984341Y-124680000D01*
X139004936Y-124915403D01*
X139004938Y-124915413D01*
X139066094Y-125143655D01*
X139066096Y-125143659D01*
X139066097Y-125143663D01*
X139071643Y-125155556D01*
X139165965Y-125357830D01*
X139165967Y-125357834D01*
X139233231Y-125453896D01*
X139301504Y-125551400D01*
X139301506Y-125551402D01*
X139468597Y-125718493D01*
X139468603Y-125718498D01*
X139654158Y-125848425D01*
X139697783Y-125903002D01*
X139704977Y-125972500D01*
X139673454Y-126034855D01*
X139654158Y-126051575D01*
X139468597Y-126181505D01*
X139301505Y-126348597D01*
X139165965Y-126542169D01*
X139165964Y-126542171D01*
X139066098Y-126756335D01*
X139066094Y-126756344D01*
X139004938Y-126984586D01*
X139004936Y-126984596D01*
X138984341Y-127219999D01*
X138984341Y-127220000D01*
X139004936Y-127455403D01*
X139004938Y-127455413D01*
X139066094Y-127683655D01*
X139066096Y-127683659D01*
X139066097Y-127683663D01*
X139157757Y-127880228D01*
X139165965Y-127897830D01*
X139165967Y-127897834D01*
X139242049Y-128006489D01*
X139301504Y-128091400D01*
X139301506Y-128091402D01*
X139468597Y-128258493D01*
X139468603Y-128258498D01*
X139654158Y-128388425D01*
X139697783Y-128443002D01*
X139704977Y-128512500D01*
X139673454Y-128574855D01*
X139654158Y-128591575D01*
X139468597Y-128721505D01*
X139301505Y-128888597D01*
X139165965Y-129082169D01*
X139165964Y-129082171D01*
X139066098Y-129296335D01*
X139066094Y-129296344D01*
X139004938Y-129524586D01*
X139004936Y-129524596D01*
X138984341Y-129759999D01*
X138984341Y-129760000D01*
X139004936Y-129995403D01*
X139004938Y-129995413D01*
X139066094Y-130223655D01*
X139066096Y-130223659D01*
X139066097Y-130223663D01*
X139114163Y-130326740D01*
X139165965Y-130437830D01*
X139165967Y-130437834D01*
X139217843Y-130511920D01*
X139301504Y-130631400D01*
X139301506Y-130631402D01*
X139468597Y-130798493D01*
X139468603Y-130798498D01*
X139654158Y-130928425D01*
X139697783Y-130983002D01*
X139704977Y-131052500D01*
X139673454Y-131114855D01*
X139654158Y-131131575D01*
X139468597Y-131261505D01*
X139301505Y-131428597D01*
X139165965Y-131622169D01*
X139165964Y-131622171D01*
X139066098Y-131836335D01*
X139066094Y-131836344D01*
X139004938Y-132064586D01*
X139004936Y-132064596D01*
X138984341Y-132299999D01*
X138984341Y-132300000D01*
X139004936Y-132535403D01*
X139004938Y-132535413D01*
X139066094Y-132763655D01*
X139066096Y-132763659D01*
X139066097Y-132763663D01*
X139148778Y-132940972D01*
X139165965Y-132977830D01*
X139165967Y-132977834D01*
X139235402Y-133076996D01*
X139301504Y-133171400D01*
X139301506Y-133171402D01*
X139468597Y-133338493D01*
X139468603Y-133338498D01*
X139654158Y-133468425D01*
X139697783Y-133523002D01*
X139704977Y-133592500D01*
X139673454Y-133654855D01*
X139654158Y-133671575D01*
X139468597Y-133801505D01*
X139301505Y-133968597D01*
X139165965Y-134162169D01*
X139165964Y-134162171D01*
X139066098Y-134376335D01*
X139066094Y-134376344D01*
X139004938Y-134604586D01*
X139004936Y-134604596D01*
X138984341Y-134839999D01*
X138984341Y-134840000D01*
X139004936Y-135075403D01*
X139004938Y-135075413D01*
X139066094Y-135303655D01*
X139066096Y-135303659D01*
X139066097Y-135303663D01*
X139070640Y-135313405D01*
X139165965Y-135517830D01*
X139165967Y-135517834D01*
X139217843Y-135591920D01*
X139301504Y-135711400D01*
X139301506Y-135711402D01*
X139468597Y-135878493D01*
X139468603Y-135878498D01*
X139654158Y-136008425D01*
X139697783Y-136063002D01*
X139704977Y-136132500D01*
X139673454Y-136194855D01*
X139654158Y-136211575D01*
X139468597Y-136341505D01*
X139301505Y-136508597D01*
X139165965Y-136702169D01*
X139165964Y-136702171D01*
X139066098Y-136916335D01*
X139066094Y-136916344D01*
X139004938Y-137144586D01*
X139004936Y-137144596D01*
X138984341Y-137379999D01*
X138984341Y-137380000D01*
X139004936Y-137615403D01*
X139004938Y-137615413D01*
X139066094Y-137843655D01*
X139066096Y-137843659D01*
X139066097Y-137843663D01*
X139070640Y-137853405D01*
X139165965Y-138057830D01*
X139165967Y-138057834D01*
X139217843Y-138131920D01*
X139301505Y-138251401D01*
X139468599Y-138418495D01*
X139558547Y-138481477D01*
X139662165Y-138554032D01*
X139662167Y-138554033D01*
X139662170Y-138554035D01*
X139876337Y-138653903D01*
X140104592Y-138715063D01*
X140292918Y-138731539D01*
X140339999Y-138735659D01*
X140340000Y-138735659D01*
X140340001Y-138735659D01*
X140379234Y-138732226D01*
X140575408Y-138715063D01*
X140803663Y-138653903D01*
X141017830Y-138554035D01*
X141211401Y-138418495D01*
X141378495Y-138251401D01*
X141446769Y-138153894D01*
X141501344Y-138110271D01*
X141570843Y-138103077D01*
X141633197Y-138134599D01*
X141652152Y-138157198D01*
X141729446Y-138275507D01*
X141729448Y-138275509D01*
X141729449Y-138275510D01*
X141892537Y-138452671D01*
X142082561Y-138600572D01*
X142181108Y-138653903D01*
X142294121Y-138715063D01*
X142294336Y-138715179D01*
X142365586Y-138739639D01*
X142522083Y-138793365D01*
X142522085Y-138793365D01*
X142522087Y-138793366D01*
X142759601Y-138833000D01*
X142759602Y-138833000D01*
X143000398Y-138833000D01*
X143000399Y-138833000D01*
X143237913Y-138793366D01*
X143465664Y-138715179D01*
X143677439Y-138600572D01*
X143867463Y-138452671D01*
X144030551Y-138275510D01*
X144162255Y-138073922D01*
X144258983Y-137853405D01*
X144318095Y-137619976D01*
X144337980Y-137380000D01*
X144334403Y-137336835D01*
X144324723Y-137220016D01*
X144318095Y-137140024D01*
X144258983Y-136906595D01*
X144162255Y-136686078D01*
X144030551Y-136484490D01*
X143867463Y-136307329D01*
X143739656Y-136207853D01*
X143698843Y-136151143D01*
X143695168Y-136081370D01*
X143729800Y-136020687D01*
X143739656Y-136012147D01*
X143760072Y-135996255D01*
X143867463Y-135912671D01*
X144030551Y-135735510D01*
X144162255Y-135533922D01*
X144258983Y-135313405D01*
X144318095Y-135079976D01*
X144337980Y-134840000D01*
X144318095Y-134600024D01*
X144258983Y-134366595D01*
X144162255Y-134146078D01*
X144030551Y-133944490D01*
X143867463Y-133767329D01*
X143739656Y-133667853D01*
X143698843Y-133611143D01*
X143695168Y-133541370D01*
X143729800Y-133480687D01*
X143739656Y-133472147D01*
X143760072Y-133456255D01*
X143867463Y-133372671D01*
X144030551Y-133195510D01*
X144162255Y-132993922D01*
X144258983Y-132773405D01*
X144318095Y-132539976D01*
X144337980Y-132300000D01*
X144337727Y-132296952D01*
X144324723Y-132140016D01*
X144318095Y-132060024D01*
X144258983Y-131826595D01*
X144162255Y-131606078D01*
X144030551Y-131404490D01*
X143867463Y-131227329D01*
X143739656Y-131127853D01*
X143698843Y-131071143D01*
X143695168Y-131001370D01*
X143729800Y-130940687D01*
X143739656Y-130932147D01*
X143760072Y-130916255D01*
X143867463Y-130832671D01*
X144030551Y-130655510D01*
X144162255Y-130453922D01*
X144258983Y-130233405D01*
X144318095Y-129999976D01*
X144329913Y-129857352D01*
X144337980Y-129760005D01*
X144337980Y-129759994D01*
X144323267Y-129582444D01*
X144318095Y-129520024D01*
X144258983Y-129286595D01*
X144162255Y-129066078D01*
X144030551Y-128864490D01*
X143867463Y-128687329D01*
X143795838Y-128631581D01*
X143739656Y-128587853D01*
X143698843Y-128531143D01*
X143695168Y-128461370D01*
X143729800Y-128400687D01*
X143739656Y-128392147D01*
X143769872Y-128368629D01*
X143867463Y-128292671D01*
X144030551Y-128115510D01*
X144162255Y-127913922D01*
X144258983Y-127693405D01*
X144318095Y-127459976D01*
X144337980Y-127220000D01*
X144335129Y-127185596D01*
X144324723Y-127060016D01*
X144318095Y-126980024D01*
X144258983Y-126746595D01*
X144162255Y-126526078D01*
X144030551Y-126324490D01*
X143867463Y-126147329D01*
X143739656Y-126047853D01*
X143698843Y-125991143D01*
X143695168Y-125921370D01*
X143729800Y-125860687D01*
X143739656Y-125852147D01*
X143760072Y-125836255D01*
X143867463Y-125752671D01*
X144030551Y-125575510D01*
X144162255Y-125373922D01*
X144258983Y-125153405D01*
X144318095Y-124919976D01*
X144337980Y-124680000D01*
X144318095Y-124440024D01*
X144258983Y-124206595D01*
X144162255Y-123986078D01*
X144030551Y-123784490D01*
X143867463Y-123607329D01*
X143739246Y-123507534D01*
X143698433Y-123450824D01*
X143694759Y-123381051D01*
X143715253Y-123345140D01*
X143716208Y-123329760D01*
X143116008Y-122729560D01*
X143180785Y-122702729D01*
X143284789Y-122633236D01*
X143373236Y-122544789D01*
X143442729Y-122440785D01*
X143469560Y-122376007D01*
X144069117Y-122975564D01*
X144161815Y-122833679D01*
X144258508Y-122613240D01*
X144317600Y-122379889D01*
X144337478Y-122140005D01*
X144337478Y-122139994D01*
X144317600Y-121900110D01*
X144258508Y-121666759D01*
X144161815Y-121446320D01*
X144069117Y-121304434D01*
X143469560Y-121903991D01*
X143442729Y-121839215D01*
X143373236Y-121735211D01*
X143284789Y-121646764D01*
X143180785Y-121577271D01*
X143116007Y-121550438D01*
X143716208Y-120950237D01*
X143715251Y-120934823D01*
X143698435Y-120911456D01*
X143694762Y-120841683D01*
X143729395Y-120781001D01*
X143739231Y-120772477D01*
X143867463Y-120672671D01*
X144030551Y-120495510D01*
X144162255Y-120293922D01*
X144258983Y-120073405D01*
X144318095Y-119839976D01*
X144337980Y-119600000D01*
X144337980Y-119599994D01*
X156662020Y-119599994D01*
X156662020Y-119600005D01*
X156681904Y-119839972D01*
X156681904Y-119839975D01*
X156681905Y-119839976D01*
X156741017Y-120073405D01*
X156837745Y-120293922D01*
X156969449Y-120495510D01*
X157132537Y-120672671D01*
X157222608Y-120742776D01*
X157260344Y-120772147D01*
X157301157Y-120828857D01*
X157304831Y-120898630D01*
X157270199Y-120959313D01*
X157260344Y-120967853D01*
X157132539Y-121067327D01*
X157132534Y-121067332D01*
X156969449Y-121244490D01*
X156837743Y-121446081D01*
X156741017Y-121666594D01*
X156681904Y-121900027D01*
X156662020Y-122139994D01*
X156662020Y-122140005D01*
X156681904Y-122379972D01*
X156681904Y-122379975D01*
X156681905Y-122379976D01*
X156741017Y-122613405D01*
X156837745Y-122833922D01*
X156969449Y-123035510D01*
X157132537Y-123212671D01*
X157201869Y-123266634D01*
X157260344Y-123312147D01*
X157301157Y-123368857D01*
X157304831Y-123438630D01*
X157270199Y-123499313D01*
X157260344Y-123507853D01*
X157132539Y-123607327D01*
X157132534Y-123607332D01*
X156969449Y-123784490D01*
X156837743Y-123986081D01*
X156741017Y-124206594D01*
X156681904Y-124440027D01*
X156662020Y-124679994D01*
X156662020Y-124680005D01*
X156681904Y-124919972D01*
X156741017Y-125153405D01*
X156830859Y-125358225D01*
X156837745Y-125373922D01*
X156969449Y-125575510D01*
X157132537Y-125752671D01*
X157222608Y-125822776D01*
X157260344Y-125852147D01*
X157301157Y-125908857D01*
X157304831Y-125978630D01*
X157270199Y-126039313D01*
X157260344Y-126047853D01*
X157132539Y-126147327D01*
X157132534Y-126147332D01*
X156969449Y-126324490D01*
X156837743Y-126526081D01*
X156741017Y-126746594D01*
X156681904Y-126980027D01*
X156662020Y-127219994D01*
X156662020Y-127220005D01*
X156681904Y-127459972D01*
X156681904Y-127459975D01*
X156681905Y-127459976D01*
X156741017Y-127693405D01*
X156837745Y-127913922D01*
X156969449Y-128115510D01*
X157132537Y-128292671D01*
X157210159Y-128353086D01*
X157260344Y-128392147D01*
X157301157Y-128448857D01*
X157304831Y-128518630D01*
X157270199Y-128579313D01*
X157260344Y-128587853D01*
X157132539Y-128687327D01*
X157132534Y-128687332D01*
X156969449Y-128864490D01*
X156837743Y-129066081D01*
X156741017Y-129286594D01*
X156681904Y-129520027D01*
X156662020Y-129759994D01*
X156662020Y-129760005D01*
X156681904Y-129999972D01*
X156741017Y-130233405D01*
X156831763Y-130440286D01*
X156837745Y-130453922D01*
X156969449Y-130655510D01*
X157132537Y-130832671D01*
X157222608Y-130902776D01*
X157260344Y-130932147D01*
X157301157Y-130988857D01*
X157304831Y-131058630D01*
X157270199Y-131119313D01*
X157260344Y-131127853D01*
X157132539Y-131227327D01*
X157132534Y-131227332D01*
X156969449Y-131404490D01*
X156837743Y-131606081D01*
X156741017Y-131826594D01*
X156681904Y-132060027D01*
X156662020Y-132299994D01*
X156662020Y-132300005D01*
X156681904Y-132539972D01*
X156741017Y-132773405D01*
X156831016Y-132978583D01*
X156837745Y-132993922D01*
X156969449Y-133195510D01*
X157132537Y-133372671D01*
X157222608Y-133442776D01*
X157260344Y-133472147D01*
X157301157Y-133528857D01*
X157304831Y-133598630D01*
X157270199Y-133659313D01*
X157260344Y-133667853D01*
X157132539Y-133767327D01*
X157132534Y-133767332D01*
X156969449Y-133944490D01*
X156837743Y-134146081D01*
X156741017Y-134366594D01*
X156681904Y-134600027D01*
X156662020Y-134839994D01*
X156662020Y-134840005D01*
X156681904Y-135079972D01*
X156681904Y-135079975D01*
X156681905Y-135079976D01*
X156741017Y-135313405D01*
X156837745Y-135533922D01*
X156969449Y-135735510D01*
X157132537Y-135912671D01*
X157222608Y-135982776D01*
X157260344Y-136012147D01*
X157301157Y-136068857D01*
X157304831Y-136138630D01*
X157270199Y-136199313D01*
X157260344Y-136207853D01*
X157132539Y-136307327D01*
X157132534Y-136307332D01*
X156969449Y-136484490D01*
X156837743Y-136686081D01*
X156741017Y-136906594D01*
X156681904Y-137140027D01*
X156662020Y-137379994D01*
X156662020Y-137380005D01*
X156681904Y-137619972D01*
X156681904Y-137619975D01*
X156681905Y-137619976D01*
X156741017Y-137853405D01*
X156837745Y-138073922D01*
X156969449Y-138275510D01*
X157132537Y-138452671D01*
X157322561Y-138600572D01*
X157421108Y-138653903D01*
X157534121Y-138715063D01*
X157534336Y-138715179D01*
X157605586Y-138739639D01*
X157762083Y-138793365D01*
X157762085Y-138793365D01*
X157762087Y-138793366D01*
X157999601Y-138833000D01*
X157999602Y-138833000D01*
X158240398Y-138833000D01*
X158240399Y-138833000D01*
X158477913Y-138793366D01*
X158705664Y-138715179D01*
X158917439Y-138600572D01*
X159107463Y-138452671D01*
X159270551Y-138275510D01*
X159347847Y-138157198D01*
X159400993Y-138111842D01*
X159470224Y-138102418D01*
X159533560Y-138131920D01*
X159553231Y-138153896D01*
X159621505Y-138251401D01*
X159788599Y-138418495D01*
X159878547Y-138481477D01*
X159982165Y-138554032D01*
X159982167Y-138554033D01*
X159982170Y-138554035D01*
X160196337Y-138653903D01*
X160424592Y-138715063D01*
X160612918Y-138731539D01*
X160659999Y-138735659D01*
X160660000Y-138735659D01*
X160660001Y-138735659D01*
X160699234Y-138732226D01*
X160895408Y-138715063D01*
X161123663Y-138653903D01*
X161337830Y-138554035D01*
X161531401Y-138418495D01*
X161698495Y-138251401D01*
X161834035Y-138057830D01*
X161933903Y-137843663D01*
X161995063Y-137615408D01*
X162015659Y-137380000D01*
X162015658Y-137379994D01*
X162004995Y-137258117D01*
X161995063Y-137144592D01*
X161933903Y-136916337D01*
X161834035Y-136702171D01*
X161782157Y-136628080D01*
X161698494Y-136508597D01*
X161531402Y-136341506D01*
X161531396Y-136341501D01*
X161345842Y-136211575D01*
X161302217Y-136156998D01*
X161295023Y-136087500D01*
X161326546Y-136025145D01*
X161345842Y-136008425D01*
X161368026Y-135992891D01*
X161531401Y-135878495D01*
X161698495Y-135711401D01*
X161834035Y-135517830D01*
X161933903Y-135303663D01*
X161995063Y-135075408D01*
X162015659Y-134840000D01*
X162015658Y-134839994D01*
X161995063Y-134604596D01*
X161995063Y-134604592D01*
X161933903Y-134376337D01*
X161834035Y-134162171D01*
X161782157Y-134088080D01*
X161698494Y-133968597D01*
X161531402Y-133801506D01*
X161531396Y-133801501D01*
X161345842Y-133671575D01*
X161302217Y-133616998D01*
X161295023Y-133547500D01*
X161326546Y-133485145D01*
X161345842Y-133468425D01*
X161368026Y-133452891D01*
X161531401Y-133338495D01*
X161698495Y-133171401D01*
X161834035Y-132977830D01*
X161933903Y-132763663D01*
X161995063Y-132535408D01*
X162015659Y-132300000D01*
X162015658Y-132299994D01*
X162008529Y-132218510D01*
X161995063Y-132064592D01*
X161933903Y-131836337D01*
X161834035Y-131622171D01*
X161782157Y-131548080D01*
X161698494Y-131428597D01*
X161531402Y-131261506D01*
X161531396Y-131261501D01*
X161345842Y-131131575D01*
X161302217Y-131076998D01*
X161295023Y-131007500D01*
X161326546Y-130945145D01*
X161345842Y-130928425D01*
X161417762Y-130878066D01*
X161531401Y-130798495D01*
X161698495Y-130631401D01*
X161834035Y-130437830D01*
X161933903Y-130223663D01*
X161995063Y-129995408D01*
X162015659Y-129760000D01*
X162015658Y-129759994D01*
X162006208Y-129651979D01*
X161995063Y-129524592D01*
X161933903Y-129296337D01*
X161834035Y-129082171D01*
X161821463Y-129064215D01*
X161698494Y-128888597D01*
X161531402Y-128721506D01*
X161531396Y-128721501D01*
X161345842Y-128591575D01*
X161302217Y-128536998D01*
X161295023Y-128467500D01*
X161326546Y-128405145D01*
X161345842Y-128388425D01*
X161420891Y-128335875D01*
X161531401Y-128258495D01*
X161698495Y-128091401D01*
X161834035Y-127897830D01*
X161840486Y-127883996D01*
X183115593Y-127883996D01*
X183115593Y-127884003D01*
X183135157Y-128057648D01*
X183135159Y-128057658D01*
X183192877Y-128222604D01*
X183192878Y-128222606D01*
X183285853Y-128370576D01*
X183409424Y-128494147D01*
X183557394Y-128587122D01*
X183722343Y-128644841D01*
X183722349Y-128644841D01*
X183722351Y-128644842D01*
X183895996Y-128664407D01*
X183896000Y-128664407D01*
X183896004Y-128664407D01*
X184069648Y-128644842D01*
X184069647Y-128644842D01*
X184069657Y-128644841D01*
X184234606Y-128587122D01*
X184382576Y-128494147D01*
X184506147Y-128370576D01*
X184599122Y-128222606D01*
X184656841Y-128057657D01*
X184674434Y-127901512D01*
X184676407Y-127884003D01*
X184676407Y-127883996D01*
X184656842Y-127710351D01*
X184656841Y-127710349D01*
X184656841Y-127710343D01*
X184599122Y-127545394D01*
X184506147Y-127397424D01*
X184382576Y-127273853D01*
X184234606Y-127180878D01*
X184234605Y-127180877D01*
X184234604Y-127180877D01*
X184069658Y-127123159D01*
X184069648Y-127123157D01*
X183896004Y-127103593D01*
X183895996Y-127103593D01*
X183722351Y-127123157D01*
X183722341Y-127123159D01*
X183557395Y-127180877D01*
X183409423Y-127273853D01*
X183285853Y-127397423D01*
X183192877Y-127545395D01*
X183135159Y-127710341D01*
X183135157Y-127710351D01*
X183115593Y-127883996D01*
X161840486Y-127883996D01*
X161933903Y-127683663D01*
X161995063Y-127455408D01*
X162015659Y-127220000D01*
X162015658Y-127219994D01*
X161995063Y-126984596D01*
X161995063Y-126984592D01*
X161933903Y-126756337D01*
X161834035Y-126542171D01*
X161820692Y-126523114D01*
X161698494Y-126348597D01*
X161531402Y-126181506D01*
X161531396Y-126181501D01*
X161345842Y-126051575D01*
X161342980Y-126047995D01*
X180655499Y-126047995D01*
X180682418Y-126183322D01*
X180682421Y-126183332D01*
X180735221Y-126310804D01*
X180735228Y-126310817D01*
X180811885Y-126425541D01*
X180811888Y-126425545D01*
X180909454Y-126523111D01*
X180909458Y-126523114D01*
X181024182Y-126599771D01*
X181024195Y-126599778D01*
X181151667Y-126652578D01*
X181151672Y-126652580D01*
X181151676Y-126652580D01*
X181151677Y-126652581D01*
X181287004Y-126679500D01*
X181287007Y-126679500D01*
X181424995Y-126679500D01*
X181516041Y-126661389D01*
X181560328Y-126652580D01*
X181687811Y-126599775D01*
X181802542Y-126523114D01*
X181837498Y-126488158D01*
X181903319Y-126422338D01*
X181964642Y-126388853D01*
X182034334Y-126393837D01*
X182078681Y-126422338D01*
X182179454Y-126523111D01*
X182179458Y-126523114D01*
X182294182Y-126599771D01*
X182294195Y-126599778D01*
X182421667Y-126652578D01*
X182421672Y-126652580D01*
X182421676Y-126652580D01*
X182421677Y-126652581D01*
X182557004Y-126679500D01*
X182557007Y-126679500D01*
X182694995Y-126679500D01*
X182786041Y-126661389D01*
X182830328Y-126652580D01*
X182957811Y-126599775D01*
X183072542Y-126523114D01*
X183107498Y-126488158D01*
X183173319Y-126422338D01*
X183234642Y-126388853D01*
X183304334Y-126393837D01*
X183348681Y-126422338D01*
X183449454Y-126523111D01*
X183449458Y-126523114D01*
X183564182Y-126599771D01*
X183564195Y-126599778D01*
X183691667Y-126652578D01*
X183691672Y-126652580D01*
X183691676Y-126652580D01*
X183691677Y-126652581D01*
X183827004Y-126679500D01*
X183827007Y-126679500D01*
X183964995Y-126679500D01*
X184056041Y-126661389D01*
X184100328Y-126652580D01*
X184227811Y-126599775D01*
X184342542Y-126523114D01*
X184377498Y-126488158D01*
X184443319Y-126422338D01*
X184504642Y-126388853D01*
X184574334Y-126393837D01*
X184618681Y-126422338D01*
X184719454Y-126523111D01*
X184719458Y-126523114D01*
X184834182Y-126599771D01*
X184834195Y-126599778D01*
X184961667Y-126652578D01*
X184961672Y-126652580D01*
X184961676Y-126652580D01*
X184961677Y-126652581D01*
X185097004Y-126679500D01*
X185097007Y-126679500D01*
X185234995Y-126679500D01*
X185326041Y-126661389D01*
X185370328Y-126652580D01*
X185497811Y-126599775D01*
X185612542Y-126523114D01*
X185710114Y-126425542D01*
X185786775Y-126310811D01*
X185839580Y-126183328D01*
X185855813Y-126101720D01*
X185866500Y-126047995D01*
X185866500Y-125910004D01*
X185839581Y-125774677D01*
X185839580Y-125774676D01*
X185839580Y-125774672D01*
X185816310Y-125718493D01*
X185786778Y-125647195D01*
X185786771Y-125647182D01*
X185710114Y-125532458D01*
X185710111Y-125532454D01*
X185612545Y-125434888D01*
X185612541Y-125434885D01*
X185497817Y-125358228D01*
X185497804Y-125358221D01*
X185370332Y-125305421D01*
X185370322Y-125305418D01*
X185234995Y-125278500D01*
X185234993Y-125278500D01*
X185097007Y-125278500D01*
X185097005Y-125278500D01*
X184961677Y-125305418D01*
X184961667Y-125305421D01*
X184834195Y-125358221D01*
X184834182Y-125358228D01*
X184719458Y-125434885D01*
X184719454Y-125434888D01*
X184618681Y-125535662D01*
X184557358Y-125569147D01*
X184487666Y-125564163D01*
X184443319Y-125535662D01*
X184342545Y-125434888D01*
X184342541Y-125434885D01*
X184227817Y-125358228D01*
X184227804Y-125358221D01*
X184100332Y-125305421D01*
X184100322Y-125305418D01*
X183964995Y-125278500D01*
X183964993Y-125278500D01*
X183827007Y-125278500D01*
X183827005Y-125278500D01*
X183691677Y-125305418D01*
X183691667Y-125305421D01*
X183564195Y-125358221D01*
X183564182Y-125358228D01*
X183449458Y-125434885D01*
X183449454Y-125434888D01*
X183348681Y-125535662D01*
X183287358Y-125569147D01*
X183217666Y-125564163D01*
X183173319Y-125535662D01*
X183072545Y-125434888D01*
X183072541Y-125434885D01*
X182957817Y-125358228D01*
X182957804Y-125358221D01*
X182830332Y-125305421D01*
X182830322Y-125305418D01*
X182694995Y-125278500D01*
X182694993Y-125278500D01*
X182557007Y-125278500D01*
X182557005Y-125278500D01*
X182421677Y-125305418D01*
X182421667Y-125305421D01*
X182294195Y-125358221D01*
X182294182Y-125358228D01*
X182179458Y-125434885D01*
X182179454Y-125434888D01*
X182078681Y-125535662D01*
X182017358Y-125569147D01*
X181947666Y-125564163D01*
X181903319Y-125535662D01*
X181802545Y-125434888D01*
X181802541Y-125434885D01*
X181687817Y-125358228D01*
X181687804Y-125358221D01*
X181560332Y-125305421D01*
X181560322Y-125305418D01*
X181424995Y-125278500D01*
X181424993Y-125278500D01*
X181287007Y-125278500D01*
X181287005Y-125278500D01*
X181151677Y-125305418D01*
X181151667Y-125305421D01*
X181024195Y-125358221D01*
X181024182Y-125358228D01*
X180909458Y-125434885D01*
X180909454Y-125434888D01*
X180811888Y-125532454D01*
X180811885Y-125532458D01*
X180735228Y-125647182D01*
X180735221Y-125647195D01*
X180682421Y-125774667D01*
X180682418Y-125774677D01*
X180655500Y-125910004D01*
X180655500Y-125910007D01*
X180655500Y-126047993D01*
X180655500Y-126047995D01*
X180655499Y-126047995D01*
X161342980Y-126047995D01*
X161302217Y-125996998D01*
X161295023Y-125927500D01*
X161326546Y-125865145D01*
X161345842Y-125848425D01*
X161368026Y-125832891D01*
X161531401Y-125718495D01*
X161698495Y-125551401D01*
X161834035Y-125357830D01*
X161933903Y-125143663D01*
X161995063Y-124915408D01*
X162007564Y-124772528D01*
X182281022Y-124772528D01*
X182287613Y-124776669D01*
X182287616Y-124776670D01*
X182452460Y-124834351D01*
X182625996Y-124853904D01*
X182626004Y-124853904D01*
X182799538Y-124834351D01*
X182964385Y-124776669D01*
X182964389Y-124776667D01*
X182970975Y-124772528D01*
X182970975Y-124772527D01*
X182626001Y-124427553D01*
X182626000Y-124427553D01*
X182281022Y-124772528D01*
X162007564Y-124772528D01*
X162015659Y-124680000D01*
X162015658Y-124679994D01*
X161995063Y-124444596D01*
X161995063Y-124444592D01*
X161933903Y-124216337D01*
X161867528Y-124073996D01*
X181846096Y-124073996D01*
X181846096Y-124074003D01*
X181865648Y-124247538D01*
X181923331Y-124412387D01*
X181927470Y-124418976D01*
X182272447Y-124074000D01*
X182272447Y-124073999D01*
X182232666Y-124034218D01*
X182426000Y-124034218D01*
X182426000Y-124113782D01*
X182456448Y-124187291D01*
X182512709Y-124243552D01*
X182586218Y-124274000D01*
X182665782Y-124274000D01*
X182739291Y-124243552D01*
X182795552Y-124187291D01*
X182826000Y-124113782D01*
X182826000Y-124073999D01*
X182979553Y-124073999D01*
X182979553Y-124074000D01*
X183324527Y-124418975D01*
X183324528Y-124418975D01*
X183328667Y-124412389D01*
X183328669Y-124412385D01*
X183386351Y-124247538D01*
X183405904Y-124074003D01*
X183405904Y-124073996D01*
X183386351Y-123900460D01*
X183328670Y-123735616D01*
X183328669Y-123735613D01*
X183324527Y-123729022D01*
X182979553Y-124073999D01*
X182826000Y-124073999D01*
X182826000Y-124034218D01*
X182795552Y-123960709D01*
X182739291Y-123904448D01*
X182665782Y-123874000D01*
X182586218Y-123874000D01*
X182512709Y-123904448D01*
X182456448Y-123960709D01*
X182426000Y-124034218D01*
X182232666Y-124034218D01*
X181927470Y-123729022D01*
X181923330Y-123735613D01*
X181865648Y-123900460D01*
X181846096Y-124073996D01*
X161867528Y-124073996D01*
X161834035Y-124002171D01*
X161805004Y-123960709D01*
X161698494Y-123808597D01*
X161531402Y-123641506D01*
X161531396Y-123641501D01*
X161345842Y-123511575D01*
X161302217Y-123456998D01*
X161295023Y-123387500D01*
X161301105Y-123375470D01*
X182281022Y-123375470D01*
X182626000Y-123720447D01*
X182626001Y-123720447D01*
X182970976Y-123375470D01*
X182964387Y-123371331D01*
X182799538Y-123313648D01*
X182626004Y-123294096D01*
X182625996Y-123294096D01*
X182452460Y-123313648D01*
X182287613Y-123371330D01*
X182281022Y-123375470D01*
X161301105Y-123375470D01*
X161326546Y-123325145D01*
X161345842Y-123308425D01*
X161368026Y-123292891D01*
X161531401Y-123178495D01*
X161698495Y-123011401D01*
X161834035Y-122817830D01*
X161933903Y-122603663D01*
X161995063Y-122375408D01*
X162015659Y-122140000D01*
X162015658Y-122139994D01*
X162000128Y-121962489D01*
X161995063Y-121904592D01*
X161933903Y-121676337D01*
X161834035Y-121462171D01*
X161803438Y-121418474D01*
X161698496Y-121268600D01*
X161674386Y-121244490D01*
X161576567Y-121146671D01*
X161543084Y-121085351D01*
X161548068Y-121015659D01*
X161589939Y-120959725D01*
X161620915Y-120942810D01*
X161752331Y-120893796D01*
X161867546Y-120807546D01*
X161953796Y-120692331D01*
X162004091Y-120557483D01*
X162010500Y-120497873D01*
X162010499Y-118702128D01*
X162004091Y-118642517D01*
X161992993Y-118612763D01*
X161953797Y-118507671D01*
X161953793Y-118507664D01*
X161867547Y-118392455D01*
X161867544Y-118392452D01*
X161752335Y-118306206D01*
X161752328Y-118306202D01*
X161617482Y-118255908D01*
X161617483Y-118255908D01*
X161557883Y-118249501D01*
X161557881Y-118249500D01*
X161557873Y-118249500D01*
X161557864Y-118249500D01*
X159762129Y-118249500D01*
X159762123Y-118249501D01*
X159702516Y-118255908D01*
X159567671Y-118306202D01*
X159567664Y-118306206D01*
X159452455Y-118392452D01*
X159452452Y-118392455D01*
X159366206Y-118507664D01*
X159366202Y-118507672D01*
X159356973Y-118532415D01*
X159315100Y-118588348D01*
X159249635Y-118612763D01*
X159181363Y-118597910D01*
X159149562Y-118573061D01*
X159107471Y-118527337D01*
X159107468Y-118527334D01*
X159107463Y-118527329D01*
X158973358Y-118422951D01*
X158917441Y-118379429D01*
X158705665Y-118264821D01*
X158705656Y-118264818D01*
X158477916Y-118186634D01*
X158299777Y-118156908D01*
X158240399Y-118147000D01*
X157999601Y-118147000D01*
X157952098Y-118154926D01*
X157762083Y-118186634D01*
X157534343Y-118264818D01*
X157534334Y-118264821D01*
X157322558Y-118379429D01*
X157188456Y-118483805D01*
X157132537Y-118527329D01*
X157132534Y-118527331D01*
X157132534Y-118527332D01*
X156969449Y-118704490D01*
X156837743Y-118906081D01*
X156741017Y-119126594D01*
X156681904Y-119360027D01*
X156662020Y-119599994D01*
X144337980Y-119599994D01*
X144318095Y-119360024D01*
X144258983Y-119126595D01*
X144162255Y-118906078D01*
X144030551Y-118704490D01*
X143867463Y-118527329D01*
X143733358Y-118422951D01*
X143677441Y-118379429D01*
X143465665Y-118264821D01*
X143465656Y-118264818D01*
X143237916Y-118186634D01*
X143059777Y-118156908D01*
X143000399Y-118147000D01*
X142759601Y-118147000D01*
X142712098Y-118154926D01*
X142522083Y-118186634D01*
X142294343Y-118264818D01*
X142294334Y-118264821D01*
X142082558Y-118379429D01*
X141948456Y-118483805D01*
X141892537Y-118527329D01*
X141892534Y-118527331D01*
X141892527Y-118527338D01*
X141850436Y-118573062D01*
X141790549Y-118609053D01*
X141720711Y-118606952D01*
X141663095Y-118567428D01*
X141643025Y-118532412D01*
X141633797Y-118507671D01*
X141633793Y-118507664D01*
X141547547Y-118392455D01*
X141547544Y-118392452D01*
X141432335Y-118306206D01*
X141432328Y-118306202D01*
X141297482Y-118255908D01*
X141297483Y-118255908D01*
X141237883Y-118249501D01*
X141237881Y-118249500D01*
X141237873Y-118249500D01*
X141237864Y-118249500D01*
X139442129Y-118249500D01*
X139442123Y-118249501D01*
X139382516Y-118255908D01*
X139247671Y-118306202D01*
X139247664Y-118306206D01*
X139132455Y-118392452D01*
X139132452Y-118392455D01*
X139046206Y-118507664D01*
X139046202Y-118507671D01*
X138995908Y-118642517D01*
X138989501Y-118702116D01*
X138989501Y-118702123D01*
X138989500Y-118702135D01*
X138989500Y-120497870D01*
X138989501Y-120497876D01*
X138995908Y-120557483D01*
X139046202Y-120692328D01*
X139046206Y-120692335D01*
X139132452Y-120807544D01*
X139132455Y-120807547D01*
X139247664Y-120893793D01*
X139247671Y-120893797D01*
X139294179Y-120911143D01*
X139379598Y-120943002D01*
X139435531Y-120984873D01*
X139459949Y-121050337D01*
X139445098Y-121118610D01*
X139423947Y-121146865D01*
X139301886Y-121268926D01*
X139166400Y-121462420D01*
X139166399Y-121462422D01*
X139066570Y-121676507D01*
X139066567Y-121676513D01*
X139009364Y-121889999D01*
X139009364Y-121890000D01*
X139906988Y-121890000D01*
X139874075Y-121947007D01*
X139840000Y-122074174D01*
X139840000Y-122205826D01*
X139874075Y-122332993D01*
X139906988Y-122390000D01*
X139009364Y-122390000D01*
X139066567Y-122603486D01*
X139066570Y-122603492D01*
X139166399Y-122817578D01*
X139301894Y-123011082D01*
X139468917Y-123178105D01*
X139654595Y-123308119D01*
X139698219Y-123362696D01*
X139705412Y-123432195D01*
X139673890Y-123494549D01*
X139654595Y-123511269D01*
X139468594Y-123641508D01*
X139301505Y-123808597D01*
X139165965Y-124002169D01*
X139165964Y-124002171D01*
X139066098Y-124216335D01*
X139066094Y-124216344D01*
X139004938Y-124444586D01*
X139004936Y-124444596D01*
X138984341Y-124679999D01*
X117600447Y-124679999D01*
X117348001Y-124427553D01*
X117348000Y-124427553D01*
X117003022Y-124772528D01*
X113676359Y-124772528D01*
X114196541Y-124073996D01*
X116568096Y-124073996D01*
X116568096Y-124074003D01*
X116587648Y-124247538D01*
X116645331Y-124412387D01*
X116649470Y-124418976D01*
X116994447Y-124074000D01*
X116994447Y-124073999D01*
X116954666Y-124034218D01*
X117148000Y-124034218D01*
X117148000Y-124113782D01*
X117178448Y-124187291D01*
X117234709Y-124243552D01*
X117308218Y-124274000D01*
X117387782Y-124274000D01*
X117461291Y-124243552D01*
X117517552Y-124187291D01*
X117548000Y-124113782D01*
X117548000Y-124073999D01*
X117701553Y-124073999D01*
X117701553Y-124074001D01*
X118046527Y-124418975D01*
X118046528Y-124418975D01*
X118050667Y-124412389D01*
X118050669Y-124412385D01*
X118108351Y-124247538D01*
X118127904Y-124074003D01*
X118127904Y-124073996D01*
X118108351Y-123900460D01*
X118050670Y-123735616D01*
X118050669Y-123735613D01*
X118046527Y-123729022D01*
X117701553Y-124073999D01*
X117548000Y-124073999D01*
X117548000Y-124034218D01*
X117517552Y-123960709D01*
X117461291Y-123904448D01*
X117387782Y-123874000D01*
X117308218Y-123874000D01*
X117234709Y-123904448D01*
X117178448Y-123960709D01*
X117148000Y-124034218D01*
X116954666Y-124034218D01*
X116649470Y-123729022D01*
X116645330Y-123735613D01*
X116587648Y-123900460D01*
X116568096Y-124073996D01*
X114196541Y-124073996D01*
X114716719Y-123375470D01*
X117003022Y-123375470D01*
X117348000Y-123720447D01*
X117348001Y-123720447D01*
X117692976Y-123375470D01*
X117686387Y-123371331D01*
X117521538Y-123313648D01*
X117348004Y-123294096D01*
X117347996Y-123294096D01*
X117174460Y-123313648D01*
X117009613Y-123371330D01*
X117003022Y-123375470D01*
X114716719Y-123375470D01*
X115105450Y-122853459D01*
X119625853Y-116839996D01*
X150349593Y-116839996D01*
X150349593Y-116840003D01*
X150369157Y-117013648D01*
X150369159Y-117013657D01*
X150426878Y-117178606D01*
X150519853Y-117326576D01*
X150643424Y-117450147D01*
X150791394Y-117543122D01*
X150956343Y-117600841D01*
X150956349Y-117600841D01*
X150956351Y-117600842D01*
X151129996Y-117620407D01*
X151130000Y-117620407D01*
X151130004Y-117620407D01*
X151303648Y-117600842D01*
X151303647Y-117600842D01*
X151303657Y-117600841D01*
X151468606Y-117543122D01*
X151616576Y-117450147D01*
X151740147Y-117326576D01*
X151833122Y-117178606D01*
X151890841Y-117013657D01*
X151910407Y-116840000D01*
X151890841Y-116666343D01*
X151833122Y-116501394D01*
X151740147Y-116353424D01*
X151616576Y-116229853D01*
X151468606Y-116136878D01*
X151468605Y-116136877D01*
X151468604Y-116136877D01*
X151303658Y-116079159D01*
X151303648Y-116079157D01*
X151130004Y-116059593D01*
X151129996Y-116059593D01*
X150956351Y-116079157D01*
X150956341Y-116079159D01*
X150791395Y-116136877D01*
X150643423Y-116229853D01*
X150519853Y-116353423D01*
X150426877Y-116501395D01*
X150369159Y-116666341D01*
X150369157Y-116666351D01*
X150349593Y-116839996D01*
X119625853Y-116839996D01*
X119702692Y-116737778D01*
X121011890Y-115003995D01*
X147889499Y-115003995D01*
X147916418Y-115139322D01*
X147916421Y-115139332D01*
X147969221Y-115266804D01*
X147969228Y-115266817D01*
X148045885Y-115381541D01*
X148045888Y-115381545D01*
X148143454Y-115479111D01*
X148143458Y-115479114D01*
X148258182Y-115555771D01*
X148258195Y-115555778D01*
X148385667Y-115608578D01*
X148385672Y-115608580D01*
X148385676Y-115608580D01*
X148385677Y-115608581D01*
X148521004Y-115635500D01*
X148521007Y-115635500D01*
X148658995Y-115635500D01*
X148750041Y-115617389D01*
X148794328Y-115608580D01*
X148921811Y-115555775D01*
X149036542Y-115479114D01*
X149036545Y-115479111D01*
X149137319Y-115378338D01*
X149198642Y-115344853D01*
X149268334Y-115349837D01*
X149312681Y-115378338D01*
X149413454Y-115479111D01*
X149413458Y-115479114D01*
X149528182Y-115555771D01*
X149528195Y-115555778D01*
X149655667Y-115608578D01*
X149655672Y-115608580D01*
X149655676Y-115608580D01*
X149655677Y-115608581D01*
X149791004Y-115635500D01*
X149791007Y-115635500D01*
X149928995Y-115635500D01*
X150020041Y-115617389D01*
X150064328Y-115608580D01*
X150191811Y-115555775D01*
X150306542Y-115479114D01*
X150306545Y-115479111D01*
X150407319Y-115378338D01*
X150468642Y-115344853D01*
X150538334Y-115349837D01*
X150582681Y-115378338D01*
X150683454Y-115479111D01*
X150683458Y-115479114D01*
X150798182Y-115555771D01*
X150798195Y-115555778D01*
X150925667Y-115608578D01*
X150925672Y-115608580D01*
X150925676Y-115608580D01*
X150925677Y-115608581D01*
X151061004Y-115635500D01*
X151061007Y-115635500D01*
X151198995Y-115635500D01*
X151290041Y-115617389D01*
X151334328Y-115608580D01*
X151461811Y-115555775D01*
X151576542Y-115479114D01*
X151576545Y-115479111D01*
X151677319Y-115378338D01*
X151738642Y-115344853D01*
X151808334Y-115349837D01*
X151852681Y-115378338D01*
X151953454Y-115479111D01*
X151953458Y-115479114D01*
X152068182Y-115555771D01*
X152068195Y-115555778D01*
X152195667Y-115608578D01*
X152195672Y-115608580D01*
X152195676Y-115608580D01*
X152195677Y-115608581D01*
X152331004Y-115635500D01*
X152331007Y-115635500D01*
X152468995Y-115635500D01*
X152560041Y-115617389D01*
X152604328Y-115608580D01*
X152731811Y-115555775D01*
X152846542Y-115479114D01*
X152944114Y-115381542D01*
X153020775Y-115266811D01*
X153073580Y-115139328D01*
X153100500Y-115003993D01*
X153100500Y-114866007D01*
X153100500Y-114866004D01*
X153073581Y-114730677D01*
X153073580Y-114730676D01*
X153073580Y-114730672D01*
X153035000Y-114637531D01*
X153020778Y-114603195D01*
X153020771Y-114603182D01*
X152944114Y-114488458D01*
X152944111Y-114488454D01*
X152846545Y-114390888D01*
X152846541Y-114390885D01*
X152731817Y-114314228D01*
X152731804Y-114314221D01*
X152604332Y-114261421D01*
X152604322Y-114261418D01*
X152468995Y-114234500D01*
X152468993Y-114234500D01*
X152331007Y-114234500D01*
X152331005Y-114234500D01*
X152195677Y-114261418D01*
X152195667Y-114261421D01*
X152068195Y-114314221D01*
X152068182Y-114314228D01*
X151953458Y-114390885D01*
X151953454Y-114390888D01*
X151852681Y-114491662D01*
X151791358Y-114525147D01*
X151721666Y-114520163D01*
X151677319Y-114491662D01*
X151576545Y-114390888D01*
X151576541Y-114390885D01*
X151461817Y-114314228D01*
X151461804Y-114314221D01*
X151334332Y-114261421D01*
X151334322Y-114261418D01*
X151198995Y-114234500D01*
X151198993Y-114234500D01*
X151061007Y-114234500D01*
X151061005Y-114234500D01*
X150925677Y-114261418D01*
X150925667Y-114261421D01*
X150798195Y-114314221D01*
X150798182Y-114314228D01*
X150683458Y-114390885D01*
X150683454Y-114390888D01*
X150582681Y-114491662D01*
X150521358Y-114525147D01*
X150451666Y-114520163D01*
X150407319Y-114491662D01*
X150306545Y-114390888D01*
X150306541Y-114390885D01*
X150191817Y-114314228D01*
X150191804Y-114314221D01*
X150064332Y-114261421D01*
X150064322Y-114261418D01*
X149928995Y-114234500D01*
X149928993Y-114234500D01*
X149791007Y-114234500D01*
X149791005Y-114234500D01*
X149655677Y-114261418D01*
X149655667Y-114261421D01*
X149528195Y-114314221D01*
X149528182Y-114314228D01*
X149413458Y-114390885D01*
X149413454Y-114390888D01*
X149312681Y-114491662D01*
X149251358Y-114525147D01*
X149181666Y-114520163D01*
X149137319Y-114491662D01*
X149036545Y-114390888D01*
X149036541Y-114390885D01*
X148921817Y-114314228D01*
X148921804Y-114314221D01*
X148794332Y-114261421D01*
X148794322Y-114261418D01*
X148658995Y-114234500D01*
X148658993Y-114234500D01*
X148521007Y-114234500D01*
X148521005Y-114234500D01*
X148385677Y-114261418D01*
X148385667Y-114261421D01*
X148258195Y-114314221D01*
X148258182Y-114314228D01*
X148143458Y-114390885D01*
X148143454Y-114390888D01*
X148045888Y-114488454D01*
X148045885Y-114488458D01*
X147969228Y-114603182D01*
X147969221Y-114603195D01*
X147916421Y-114730667D01*
X147916418Y-114730677D01*
X147889500Y-114866004D01*
X147889500Y-114866007D01*
X147889500Y-115003993D01*
X147889500Y-115003995D01*
X147889499Y-115003995D01*
X121011890Y-115003995D01*
X121975008Y-113728528D01*
X149515022Y-113728528D01*
X149521613Y-113732669D01*
X149521616Y-113732670D01*
X149686460Y-113790351D01*
X149859996Y-113809904D01*
X149860004Y-113809904D01*
X150033538Y-113790351D01*
X150198385Y-113732669D01*
X150198389Y-113732667D01*
X150204975Y-113728528D01*
X150204975Y-113728527D01*
X149860001Y-113383553D01*
X149860000Y-113383553D01*
X149515022Y-113728528D01*
X121975008Y-113728528D01*
X122502477Y-113029996D01*
X149080096Y-113029996D01*
X149080096Y-113030003D01*
X149099648Y-113203538D01*
X149157331Y-113368387D01*
X149161470Y-113374976D01*
X149506447Y-113030000D01*
X149506447Y-113029999D01*
X149466666Y-112990218D01*
X149660000Y-112990218D01*
X149660000Y-113069782D01*
X149690448Y-113143291D01*
X149746709Y-113199552D01*
X149820218Y-113230000D01*
X149899782Y-113230000D01*
X149973291Y-113199552D01*
X150029552Y-113143291D01*
X150060000Y-113069782D01*
X150060000Y-113029999D01*
X150213553Y-113029999D01*
X150213553Y-113030001D01*
X150558527Y-113374975D01*
X150558528Y-113374975D01*
X150562667Y-113368389D01*
X150562669Y-113368385D01*
X150620351Y-113203538D01*
X150639904Y-113030003D01*
X150639904Y-113029996D01*
X150620351Y-112856460D01*
X150562670Y-112691616D01*
X150562669Y-112691613D01*
X150558527Y-112685022D01*
X150213553Y-113029999D01*
X150060000Y-113029999D01*
X150060000Y-112990218D01*
X150029552Y-112916709D01*
X149973291Y-112860448D01*
X149899782Y-112830000D01*
X149820218Y-112830000D01*
X149746709Y-112860448D01*
X149690448Y-112916709D01*
X149660000Y-112990218D01*
X149466666Y-112990218D01*
X149161470Y-112685022D01*
X149157330Y-112691613D01*
X149099648Y-112856460D01*
X149080096Y-113029996D01*
X122502477Y-113029996D01*
X123029941Y-112331470D01*
X149515022Y-112331470D01*
X149860000Y-112676447D01*
X149860001Y-112676447D01*
X150204976Y-112331470D01*
X150198387Y-112327331D01*
X150033538Y-112269648D01*
X149860004Y-112250096D01*
X149859996Y-112250096D01*
X149686460Y-112269648D01*
X149521613Y-112327330D01*
X149515022Y-112331470D01*
X123029941Y-112331470D01*
X125842972Y-108606147D01*
X125846623Y-108601898D01*
X125849502Y-108598043D01*
X125849505Y-108598042D01*
X125873798Y-108565527D01*
X125888030Y-108546480D01*
X125888258Y-108546175D01*
X125927123Y-108494707D01*
X125927124Y-108494702D01*
X125930025Y-108490862D01*
X125933095Y-108486164D01*
X127259221Y-106711271D01*
X127268528Y-106700231D01*
X127268555Y-106700194D01*
X127304856Y-106650209D01*
X127305696Y-106649068D01*
X127342694Y-106599552D01*
X127342695Y-106599549D01*
X127342723Y-106599512D01*
X127350509Y-106587347D01*
X128401219Y-105140615D01*
X128410290Y-105129533D01*
X128411008Y-105128750D01*
X128411020Y-105128741D01*
X128446216Y-105078680D01*
X128447298Y-105077167D01*
X128483176Y-105027768D01*
X128483179Y-105027758D01*
X128483685Y-105026829D01*
X128491228Y-105014662D01*
X128835037Y-104525667D01*
X128843726Y-104514686D01*
X128845527Y-104512655D01*
X128845541Y-104512643D01*
X128879385Y-104462624D01*
X128880548Y-104460938D01*
X128915274Y-104411549D01*
X128915276Y-104411542D01*
X128916544Y-104409120D01*
X128923729Y-104397090D01*
X128943205Y-104368308D01*
X129159047Y-104049322D01*
X129169121Y-104037513D01*
X129168904Y-104037336D01*
X129174057Y-104031051D01*
X129199357Y-103990320D01*
X129202415Y-103985397D01*
X129205041Y-103981349D01*
X129226095Y-103950236D01*
X129235121Y-103936897D01*
X129235122Y-103936893D01*
X129238759Y-103929627D01*
X129239011Y-103929753D01*
X129245679Y-103915748D01*
X129369454Y-103716490D01*
X129381940Y-103699728D01*
X129390598Y-103689951D01*
X129407046Y-103656988D01*
X129412668Y-103646923D01*
X129422711Y-103630755D01*
X129432106Y-103615632D01*
X129432833Y-103613228D01*
X129447765Y-103584222D01*
X129446787Y-103583655D01*
X129450864Y-103576626D01*
X129450866Y-103576624D01*
X129468034Y-103535420D01*
X129471530Y-103527771D01*
X129491466Y-103487824D01*
X129492506Y-103482717D01*
X129499549Y-103459782D01*
X129501552Y-103454977D01*
X129507468Y-103410747D01*
X129508872Y-103402425D01*
X129508875Y-103402411D01*
X129517787Y-103358694D01*
X129517786Y-103358686D01*
X129518357Y-103350584D01*
X129519396Y-103350657D01*
X129520614Y-103333563D01*
X129522442Y-103324765D01*
X129522078Y-103318393D01*
X129522971Y-103294876D01*
X129523818Y-103288554D01*
X129518234Y-103245444D01*
X129517410Y-103236589D01*
X129514933Y-103193196D01*
X129512934Y-103187140D01*
X129507710Y-103164190D01*
X129506891Y-103157862D01*
X129490332Y-103117646D01*
X129487258Y-103109348D01*
X129473628Y-103068051D01*
X129470123Y-103062708D01*
X129459147Y-103041910D01*
X129458577Y-103040528D01*
X129456715Y-103036004D01*
X129441550Y-103016155D01*
X129430332Y-103001471D01*
X129425185Y-102994208D01*
X129401342Y-102957863D01*
X129401341Y-102957862D01*
X129396574Y-102953610D01*
X129380581Y-102936353D01*
X129376709Y-102931284D01*
X129342282Y-102904752D01*
X129335437Y-102899074D01*
X129302996Y-102870135D01*
X129302993Y-102870134D01*
X129297294Y-102867263D01*
X129277384Y-102854736D01*
X129272333Y-102850844D01*
X129272323Y-102850837D01*
X129251802Y-102842287D01*
X129230867Y-102831103D01*
X129217816Y-102822430D01*
X129217813Y-102822429D01*
X129197424Y-102815565D01*
X129181210Y-102808793D01*
X129161992Y-102799114D01*
X129158080Y-102798301D01*
X129150916Y-102796590D01*
X129149609Y-102796236D01*
X129149607Y-102796235D01*
X129104218Y-102783952D01*
X129097056Y-102781780D01*
X129089430Y-102779213D01*
X129084941Y-102777270D01*
X129084845Y-102777525D01*
X129076621Y-102774414D01*
X129067181Y-102771723D01*
X129052492Y-102766779D01*
X129052488Y-102766778D01*
X129050909Y-102766679D01*
X129030366Y-102763642D01*
X129023309Y-102761985D01*
X129019258Y-102760961D01*
X129005063Y-102757119D01*
X128997110Y-102754678D01*
X128991230Y-102752654D01*
X128984348Y-102751255D01*
X128976672Y-102749438D01*
X128965821Y-102746502D01*
X128957775Y-102745422D01*
X128957838Y-102744952D01*
X128948833Y-102744033D01*
X128935845Y-102741391D01*
X128932222Y-102740598D01*
X128877184Y-102727676D01*
X128869098Y-102726867D01*
X128869164Y-102726207D01*
X128855418Y-102725038D01*
X128813849Y-102716585D01*
X128801022Y-102713254D01*
X128794568Y-102711204D01*
X128737046Y-102700932D01*
X128734138Y-102700377D01*
X128679204Y-102689207D01*
X128676883Y-102688735D01*
X128676878Y-102688734D01*
X128670109Y-102688261D01*
X128656963Y-102686632D01*
X128567799Y-102670711D01*
X128553944Y-102667406D01*
X128552539Y-102666984D01*
X128492360Y-102657223D01*
X128490421Y-102656893D01*
X128430492Y-102646193D01*
X128429036Y-102646127D01*
X128414867Y-102644658D01*
X128284374Y-102623495D01*
X128271517Y-102620619D01*
X128209460Y-102611337D01*
X128207955Y-102611102D01*
X128146052Y-102601064D01*
X128132906Y-102599887D01*
X127969029Y-102575377D01*
X127957847Y-102573010D01*
X127894325Y-102564197D01*
X127893025Y-102564010D01*
X127829508Y-102554510D01*
X127818101Y-102553622D01*
X127628544Y-102527324D01*
X127617971Y-102525200D01*
X127553892Y-102516960D01*
X127552670Y-102516797D01*
X127488466Y-102507891D01*
X127477690Y-102507163D01*
X127200481Y-102471522D01*
X127199149Y-102471343D01*
X126292310Y-102344743D01*
X126290241Y-102344436D01*
X125096910Y-102157269D01*
X125095579Y-102157053D01*
X123769870Y-101934325D01*
X123768577Y-101934101D01*
X122469106Y-101701616D01*
X122467526Y-101701323D01*
X121404436Y-101496873D01*
X121401561Y-101496284D01*
X120570868Y-101316044D01*
X120566970Y-101315132D01*
X120239578Y-101232947D01*
X120235675Y-101231900D01*
X119958958Y-101152765D01*
X119953623Y-101151108D01*
X119729101Y-101075807D01*
X119721898Y-101073141D01*
X119548611Y-101002812D01*
X119539085Y-100998468D01*
X119415868Y-100935878D01*
X119403755Y-100928838D01*
X119377611Y-100911595D01*
X119327155Y-100878316D01*
X119312863Y-100867318D01*
X119274539Y-100833112D01*
X119259710Y-100817345D01*
X119256109Y-100812775D01*
X119244753Y-100798361D01*
X119232094Y-100778741D01*
X119224213Y-100763555D01*
X119215823Y-100743117D01*
X119206590Y-100713301D01*
X119202473Y-100695409D01*
X119196754Y-100658099D01*
X119206053Y-100588851D01*
X119212279Y-100576719D01*
X119300262Y-100426316D01*
X119303487Y-100421106D01*
X119314023Y-100404996D01*
X125711593Y-100404996D01*
X125711593Y-100405003D01*
X125731157Y-100578648D01*
X125731159Y-100578658D01*
X125788384Y-100742195D01*
X125788878Y-100743606D01*
X125881853Y-100891576D01*
X126005424Y-101015147D01*
X126153394Y-101108122D01*
X126318343Y-101165841D01*
X126318349Y-101165841D01*
X126318351Y-101165842D01*
X126491996Y-101185407D01*
X126492000Y-101185407D01*
X126492004Y-101185407D01*
X126665648Y-101165842D01*
X126665647Y-101165842D01*
X126665657Y-101165841D01*
X126830606Y-101108122D01*
X126978576Y-101015147D01*
X127102147Y-100891576D01*
X127195122Y-100743606D01*
X127252841Y-100578657D01*
X127256383Y-100547223D01*
X127272407Y-100405003D01*
X127272407Y-100404996D01*
X127252842Y-100231351D01*
X127252841Y-100231349D01*
X127252841Y-100231343D01*
X127195122Y-100066394D01*
X127102147Y-99918424D01*
X127096717Y-99912994D01*
X145739357Y-99912994D01*
X145739357Y-99913005D01*
X145759890Y-100160812D01*
X145759892Y-100160824D01*
X145820936Y-100401881D01*
X145920826Y-100629606D01*
X146056833Y-100837782D01*
X146066312Y-100848079D01*
X146225256Y-101020738D01*
X146421491Y-101173474D01*
X146421493Y-101173475D01*
X146638349Y-101290832D01*
X146640190Y-101291828D01*
X146875386Y-101372571D01*
X147120665Y-101413500D01*
X147369335Y-101413500D01*
X147614614Y-101372571D01*
X147849810Y-101291828D01*
X148068509Y-101173474D01*
X148264744Y-101020738D01*
X148433164Y-100837785D01*
X148569173Y-100629607D01*
X148669063Y-100401881D01*
X148730108Y-100160821D01*
X148734153Y-100112007D01*
X148750643Y-99913005D01*
X148750643Y-99912994D01*
X152239357Y-99912994D01*
X152239357Y-99913005D01*
X152259890Y-100160812D01*
X152259892Y-100160824D01*
X152320936Y-100401881D01*
X152420826Y-100629606D01*
X152556833Y-100837782D01*
X152566312Y-100848079D01*
X152725256Y-101020738D01*
X152921491Y-101173474D01*
X152921493Y-101173475D01*
X153138349Y-101290832D01*
X153140190Y-101291828D01*
X153375386Y-101372571D01*
X153620665Y-101413500D01*
X153869335Y-101413500D01*
X154114614Y-101372571D01*
X154349810Y-101291828D01*
X154568509Y-101173474D01*
X154764744Y-101020738D01*
X154933164Y-100837785D01*
X155069173Y-100629607D01*
X155167697Y-100404996D01*
X174987593Y-100404996D01*
X174987593Y-100405003D01*
X175007157Y-100578648D01*
X175007159Y-100578658D01*
X175064384Y-100742195D01*
X175064878Y-100743606D01*
X175157853Y-100891576D01*
X175281424Y-101015147D01*
X175429394Y-101108122D01*
X175594343Y-101165841D01*
X175594349Y-101165841D01*
X175594351Y-101165842D01*
X175767996Y-101185407D01*
X175768000Y-101185407D01*
X175768004Y-101185407D01*
X175941648Y-101165842D01*
X175941647Y-101165842D01*
X175941657Y-101165841D01*
X176106606Y-101108122D01*
X176254576Y-101015147D01*
X176378147Y-100891576D01*
X176471122Y-100743606D01*
X176528841Y-100578657D01*
X176532383Y-100547223D01*
X176548407Y-100405003D01*
X176548407Y-100404996D01*
X176528842Y-100231351D01*
X176528841Y-100231349D01*
X176528841Y-100231343D01*
X176471122Y-100066394D01*
X176378147Y-99918424D01*
X176254576Y-99794853D01*
X176106606Y-99701878D01*
X176106605Y-99701877D01*
X176106604Y-99701877D01*
X175941658Y-99644159D01*
X175941648Y-99644157D01*
X175768004Y-99624593D01*
X175767996Y-99624593D01*
X175594351Y-99644157D01*
X175594341Y-99644159D01*
X175429395Y-99701877D01*
X175281423Y-99794853D01*
X175157853Y-99918423D01*
X175064877Y-100066395D01*
X175007159Y-100231341D01*
X175007157Y-100231351D01*
X174987593Y-100404996D01*
X155167697Y-100404996D01*
X155169063Y-100401881D01*
X155230108Y-100160821D01*
X155234153Y-100112007D01*
X155250643Y-99913005D01*
X155250643Y-99912994D01*
X155230109Y-99665187D01*
X155230107Y-99665175D01*
X155169063Y-99424118D01*
X155069173Y-99196393D01*
X154933166Y-98988217D01*
X154891852Y-98943338D01*
X154764744Y-98805262D01*
X154568509Y-98652526D01*
X154568507Y-98652525D01*
X154568506Y-98652524D01*
X154414158Y-98568995D01*
X172527499Y-98568995D01*
X172554418Y-98704322D01*
X172554421Y-98704332D01*
X172607221Y-98831804D01*
X172607228Y-98831817D01*
X172683885Y-98946541D01*
X172683888Y-98946545D01*
X172781454Y-99044111D01*
X172781458Y-99044114D01*
X172896182Y-99120771D01*
X172896195Y-99120778D01*
X173023667Y-99173578D01*
X173023672Y-99173580D01*
X173023676Y-99173580D01*
X173023677Y-99173581D01*
X173159004Y-99200500D01*
X173159007Y-99200500D01*
X173296995Y-99200500D01*
X173388041Y-99182389D01*
X173432328Y-99173580D01*
X173559811Y-99120775D01*
X173674542Y-99044114D01*
X173687735Y-99030921D01*
X173775319Y-98943338D01*
X173836642Y-98909853D01*
X173906334Y-98914837D01*
X173950681Y-98943338D01*
X174051454Y-99044111D01*
X174051458Y-99044114D01*
X174166182Y-99120771D01*
X174166195Y-99120778D01*
X174293667Y-99173578D01*
X174293672Y-99173580D01*
X174293676Y-99173580D01*
X174293677Y-99173581D01*
X174429004Y-99200500D01*
X174429007Y-99200500D01*
X174566995Y-99200500D01*
X174658041Y-99182389D01*
X174702328Y-99173580D01*
X174829811Y-99120775D01*
X174944542Y-99044114D01*
X174957735Y-99030921D01*
X175045319Y-98943338D01*
X175106642Y-98909853D01*
X175176334Y-98914837D01*
X175220681Y-98943338D01*
X175321454Y-99044111D01*
X175321458Y-99044114D01*
X175436182Y-99120771D01*
X175436195Y-99120778D01*
X175563667Y-99173578D01*
X175563672Y-99173580D01*
X175563676Y-99173580D01*
X175563677Y-99173581D01*
X175699004Y-99200500D01*
X175699007Y-99200500D01*
X175836995Y-99200500D01*
X175928041Y-99182389D01*
X175972328Y-99173580D01*
X176099811Y-99120775D01*
X176214542Y-99044114D01*
X176227735Y-99030921D01*
X176315319Y-98943338D01*
X176376642Y-98909853D01*
X176446334Y-98914837D01*
X176490681Y-98943338D01*
X176591454Y-99044111D01*
X176591458Y-99044114D01*
X176706182Y-99120771D01*
X176706195Y-99120778D01*
X176833667Y-99173578D01*
X176833672Y-99173580D01*
X176833676Y-99173580D01*
X176833677Y-99173581D01*
X176969004Y-99200500D01*
X176969007Y-99200500D01*
X177106995Y-99200500D01*
X177198041Y-99182389D01*
X177242328Y-99173580D01*
X177369811Y-99120775D01*
X177484542Y-99044114D01*
X177582114Y-98946542D01*
X177658775Y-98831811D01*
X177711580Y-98704328D01*
X177738500Y-98568993D01*
X177738500Y-98431007D01*
X177738500Y-98431004D01*
X177711581Y-98295677D01*
X177711580Y-98295676D01*
X177711580Y-98295672D01*
X177673000Y-98202531D01*
X177658778Y-98168195D01*
X177658771Y-98168182D01*
X177582114Y-98053458D01*
X177582111Y-98053454D01*
X177484545Y-97955888D01*
X177484541Y-97955885D01*
X177369817Y-97879228D01*
X177369804Y-97879221D01*
X177242332Y-97826421D01*
X177242322Y-97826418D01*
X177106995Y-97799500D01*
X177106993Y-97799500D01*
X176969007Y-97799500D01*
X176969005Y-97799500D01*
X176833677Y-97826418D01*
X176833667Y-97826421D01*
X176706195Y-97879221D01*
X176706182Y-97879228D01*
X176591458Y-97955885D01*
X176591454Y-97955888D01*
X176490681Y-98056662D01*
X176429358Y-98090147D01*
X176359666Y-98085163D01*
X176315319Y-98056662D01*
X176214545Y-97955888D01*
X176214541Y-97955885D01*
X176099817Y-97879228D01*
X176099804Y-97879221D01*
X175972332Y-97826421D01*
X175972322Y-97826418D01*
X175836995Y-97799500D01*
X175836993Y-97799500D01*
X175699007Y-97799500D01*
X175699005Y-97799500D01*
X175563677Y-97826418D01*
X175563667Y-97826421D01*
X175436195Y-97879221D01*
X175436182Y-97879228D01*
X175321458Y-97955885D01*
X175321454Y-97955888D01*
X175220681Y-98056662D01*
X175159358Y-98090147D01*
X175089666Y-98085163D01*
X175045319Y-98056662D01*
X174944545Y-97955888D01*
X174944541Y-97955885D01*
X174829817Y-97879228D01*
X174829804Y-97879221D01*
X174702332Y-97826421D01*
X174702322Y-97826418D01*
X174566995Y-97799500D01*
X174566993Y-97799500D01*
X174429007Y-97799500D01*
X174429005Y-97799500D01*
X174293677Y-97826418D01*
X174293667Y-97826421D01*
X174166195Y-97879221D01*
X174166182Y-97879228D01*
X174051458Y-97955885D01*
X174051454Y-97955888D01*
X173950681Y-98056662D01*
X173889358Y-98090147D01*
X173819666Y-98085163D01*
X173775319Y-98056662D01*
X173674545Y-97955888D01*
X173674541Y-97955885D01*
X173559817Y-97879228D01*
X173559804Y-97879221D01*
X173432332Y-97826421D01*
X173432322Y-97826418D01*
X173296995Y-97799500D01*
X173296993Y-97799500D01*
X173159007Y-97799500D01*
X173159005Y-97799500D01*
X173023677Y-97826418D01*
X173023667Y-97826421D01*
X172896195Y-97879221D01*
X172896182Y-97879228D01*
X172781458Y-97955885D01*
X172781454Y-97955888D01*
X172683888Y-98053454D01*
X172683885Y-98053458D01*
X172607228Y-98168182D01*
X172607221Y-98168195D01*
X172554421Y-98295667D01*
X172554418Y-98295677D01*
X172527500Y-98431004D01*
X172527500Y-98431007D01*
X172527500Y-98568993D01*
X172527500Y-98568995D01*
X172527499Y-98568995D01*
X154414158Y-98568995D01*
X154349811Y-98534172D01*
X154349802Y-98534169D01*
X154114616Y-98453429D01*
X153869335Y-98412500D01*
X153620665Y-98412500D01*
X153375383Y-98453429D01*
X153140197Y-98534169D01*
X153140188Y-98534172D01*
X152921493Y-98652524D01*
X152725257Y-98805261D01*
X152556833Y-98988217D01*
X152420826Y-99196393D01*
X152320936Y-99424118D01*
X152259892Y-99665175D01*
X152259890Y-99665187D01*
X152239357Y-99912994D01*
X148750643Y-99912994D01*
X148730109Y-99665187D01*
X148730107Y-99665175D01*
X148669063Y-99424118D01*
X148569173Y-99196393D01*
X148433166Y-98988217D01*
X148391852Y-98943338D01*
X148264744Y-98805262D01*
X148068509Y-98652526D01*
X148068507Y-98652525D01*
X148068506Y-98652524D01*
X147849811Y-98534172D01*
X147849802Y-98534169D01*
X147614616Y-98453429D01*
X147369335Y-98412500D01*
X147120665Y-98412500D01*
X146875383Y-98453429D01*
X146640197Y-98534169D01*
X146640188Y-98534172D01*
X146421493Y-98652524D01*
X146225257Y-98805261D01*
X146056833Y-98988217D01*
X145920826Y-99196393D01*
X145820936Y-99424118D01*
X145759892Y-99665175D01*
X145759890Y-99665187D01*
X145739357Y-99912994D01*
X127096717Y-99912994D01*
X126978576Y-99794853D01*
X126830606Y-99701878D01*
X126830605Y-99701877D01*
X126830604Y-99701877D01*
X126665658Y-99644159D01*
X126665648Y-99644157D01*
X126492004Y-99624593D01*
X126491996Y-99624593D01*
X126318351Y-99644157D01*
X126318341Y-99644159D01*
X126153395Y-99701877D01*
X126005423Y-99794853D01*
X125881853Y-99918423D01*
X125788877Y-100066395D01*
X125731159Y-100231341D01*
X125731157Y-100231351D01*
X125711593Y-100404996D01*
X119314023Y-100404996D01*
X119536775Y-100064394D01*
X119538318Y-100062096D01*
X119811421Y-99665179D01*
X119885990Y-99556803D01*
X119887242Y-99555016D01*
X120592295Y-98568995D01*
X123251499Y-98568995D01*
X123278418Y-98704322D01*
X123278421Y-98704332D01*
X123331221Y-98831804D01*
X123331228Y-98831817D01*
X123407885Y-98946541D01*
X123407888Y-98946545D01*
X123505454Y-99044111D01*
X123505458Y-99044114D01*
X123620182Y-99120771D01*
X123620195Y-99120778D01*
X123747667Y-99173578D01*
X123747672Y-99173580D01*
X123747676Y-99173580D01*
X123747677Y-99173581D01*
X123883004Y-99200500D01*
X123883007Y-99200500D01*
X124020995Y-99200500D01*
X124112041Y-99182389D01*
X124156328Y-99173580D01*
X124283811Y-99120775D01*
X124398542Y-99044114D01*
X124411735Y-99030921D01*
X124499319Y-98943338D01*
X124560642Y-98909853D01*
X124630334Y-98914837D01*
X124674681Y-98943338D01*
X124775454Y-99044111D01*
X124775458Y-99044114D01*
X124890182Y-99120771D01*
X124890195Y-99120778D01*
X125017667Y-99173578D01*
X125017672Y-99173580D01*
X125017676Y-99173580D01*
X125017677Y-99173581D01*
X125153004Y-99200500D01*
X125153007Y-99200500D01*
X125290995Y-99200500D01*
X125382041Y-99182389D01*
X125426328Y-99173580D01*
X125553811Y-99120775D01*
X125668542Y-99044114D01*
X125681735Y-99030921D01*
X125769319Y-98943338D01*
X125830642Y-98909853D01*
X125900334Y-98914837D01*
X125944681Y-98943338D01*
X126045454Y-99044111D01*
X126045458Y-99044114D01*
X126160182Y-99120771D01*
X126160195Y-99120778D01*
X126287667Y-99173578D01*
X126287672Y-99173580D01*
X126287676Y-99173580D01*
X126287677Y-99173581D01*
X126423004Y-99200500D01*
X126423007Y-99200500D01*
X126560995Y-99200500D01*
X126652041Y-99182389D01*
X126696328Y-99173580D01*
X126823811Y-99120775D01*
X126938542Y-99044114D01*
X126951735Y-99030921D01*
X127039319Y-98943338D01*
X127100642Y-98909853D01*
X127170334Y-98914837D01*
X127214681Y-98943338D01*
X127315454Y-99044111D01*
X127315458Y-99044114D01*
X127430182Y-99120771D01*
X127430195Y-99120778D01*
X127557667Y-99173578D01*
X127557672Y-99173580D01*
X127557676Y-99173580D01*
X127557677Y-99173581D01*
X127693004Y-99200500D01*
X127693007Y-99200500D01*
X127830995Y-99200500D01*
X127922041Y-99182389D01*
X127966328Y-99173580D01*
X128093811Y-99120775D01*
X128208542Y-99044114D01*
X128306114Y-98946542D01*
X128382775Y-98831811D01*
X128435580Y-98704328D01*
X128462500Y-98568993D01*
X128462500Y-98431007D01*
X128462500Y-98431004D01*
X128435581Y-98295677D01*
X128435580Y-98295676D01*
X128435580Y-98295672D01*
X128397000Y-98202531D01*
X128382778Y-98168195D01*
X128382771Y-98168182D01*
X128306114Y-98053458D01*
X128306111Y-98053454D01*
X128208545Y-97955888D01*
X128208541Y-97955885D01*
X128093817Y-97879228D01*
X128093804Y-97879221D01*
X127966332Y-97826421D01*
X127966322Y-97826418D01*
X127830995Y-97799500D01*
X127830993Y-97799500D01*
X127693007Y-97799500D01*
X127693005Y-97799500D01*
X127557677Y-97826418D01*
X127557667Y-97826421D01*
X127430195Y-97879221D01*
X127430182Y-97879228D01*
X127315458Y-97955885D01*
X127315454Y-97955888D01*
X127214681Y-98056662D01*
X127153358Y-98090147D01*
X127083666Y-98085163D01*
X127039319Y-98056662D01*
X126938545Y-97955888D01*
X126938541Y-97955885D01*
X126823817Y-97879228D01*
X126823804Y-97879221D01*
X126696332Y-97826421D01*
X126696322Y-97826418D01*
X126560995Y-97799500D01*
X126560993Y-97799500D01*
X126423007Y-97799500D01*
X126423005Y-97799500D01*
X126287677Y-97826418D01*
X126287667Y-97826421D01*
X126160195Y-97879221D01*
X126160182Y-97879228D01*
X126045458Y-97955885D01*
X126045454Y-97955888D01*
X125944681Y-98056662D01*
X125883358Y-98090147D01*
X125813666Y-98085163D01*
X125769319Y-98056662D01*
X125668545Y-97955888D01*
X125668541Y-97955885D01*
X125553817Y-97879228D01*
X125553804Y-97879221D01*
X125426332Y-97826421D01*
X125426322Y-97826418D01*
X125290995Y-97799500D01*
X125290993Y-97799500D01*
X125153007Y-97799500D01*
X125153005Y-97799500D01*
X125017677Y-97826418D01*
X125017667Y-97826421D01*
X124890195Y-97879221D01*
X124890182Y-97879228D01*
X124775458Y-97955885D01*
X124775454Y-97955888D01*
X124674681Y-98056662D01*
X124613358Y-98090147D01*
X124543666Y-98085163D01*
X124499319Y-98056662D01*
X124398545Y-97955888D01*
X124398541Y-97955885D01*
X124283817Y-97879228D01*
X124283804Y-97879221D01*
X124156332Y-97826421D01*
X124156322Y-97826418D01*
X124020995Y-97799500D01*
X124020993Y-97799500D01*
X123883007Y-97799500D01*
X123883005Y-97799500D01*
X123747677Y-97826418D01*
X123747667Y-97826421D01*
X123620195Y-97879221D01*
X123620182Y-97879228D01*
X123505458Y-97955885D01*
X123505454Y-97955888D01*
X123407888Y-98053454D01*
X123407885Y-98053458D01*
X123331228Y-98168182D01*
X123331221Y-98168195D01*
X123278421Y-98295667D01*
X123278418Y-98295677D01*
X123251500Y-98431004D01*
X123251500Y-98431007D01*
X123251500Y-98568993D01*
X123251500Y-98568995D01*
X123251499Y-98568995D01*
X120592295Y-98568995D01*
X120944864Y-98075925D01*
X120945510Y-98075034D01*
X121518304Y-97293528D01*
X124877022Y-97293528D01*
X124883613Y-97297669D01*
X124883616Y-97297670D01*
X125048460Y-97355351D01*
X125221996Y-97374904D01*
X125222004Y-97374904D01*
X125395538Y-97355351D01*
X125560385Y-97297669D01*
X125560389Y-97297667D01*
X125566975Y-97293528D01*
X174153022Y-97293528D01*
X174159613Y-97297669D01*
X174159616Y-97297670D01*
X174324460Y-97355351D01*
X174497996Y-97374904D01*
X174498004Y-97374904D01*
X174671538Y-97355351D01*
X174836385Y-97297669D01*
X174836389Y-97297667D01*
X174842975Y-97293528D01*
X174842975Y-97293527D01*
X174498001Y-96948553D01*
X174498000Y-96948553D01*
X174153022Y-97293528D01*
X125566975Y-97293528D01*
X125566975Y-97293527D01*
X125222001Y-96948553D01*
X125222000Y-96948553D01*
X124877022Y-97293528D01*
X121518304Y-97293528D01*
X122030284Y-96594996D01*
X124442096Y-96594996D01*
X124442096Y-96595003D01*
X124461648Y-96768538D01*
X124519331Y-96933387D01*
X124523470Y-96939976D01*
X124868447Y-96595000D01*
X124868447Y-96594999D01*
X124828666Y-96555218D01*
X125022000Y-96555218D01*
X125022000Y-96634782D01*
X125052448Y-96708291D01*
X125108709Y-96764552D01*
X125182218Y-96795000D01*
X125261782Y-96795000D01*
X125335291Y-96764552D01*
X125391552Y-96708291D01*
X125422000Y-96634782D01*
X125422000Y-96594999D01*
X125575553Y-96594999D01*
X125575553Y-96595000D01*
X125920527Y-96939975D01*
X125920528Y-96939975D01*
X125924667Y-96933389D01*
X125924669Y-96933385D01*
X125982351Y-96768538D01*
X126001904Y-96595003D01*
X126001904Y-96594996D01*
X125982351Y-96421460D01*
X125924670Y-96256616D01*
X125924669Y-96256613D01*
X125920527Y-96250022D01*
X125575553Y-96594999D01*
X125422000Y-96594999D01*
X125422000Y-96555218D01*
X125391552Y-96481709D01*
X125335291Y-96425448D01*
X125261782Y-96395000D01*
X125182218Y-96395000D01*
X125108709Y-96425448D01*
X125052448Y-96481709D01*
X125022000Y-96555218D01*
X124828666Y-96555218D01*
X124523470Y-96250022D01*
X124519330Y-96256613D01*
X124461648Y-96421460D01*
X124442096Y-96594996D01*
X122030284Y-96594996D01*
X122517686Y-95929998D01*
X122518110Y-95929424D01*
X122542572Y-95896470D01*
X124877022Y-95896470D01*
X125222000Y-96241447D01*
X125222001Y-96241447D01*
X125566976Y-95896470D01*
X125560387Y-95892331D01*
X125395538Y-95834648D01*
X125222004Y-95815096D01*
X125221996Y-95815096D01*
X125048460Y-95834648D01*
X124883613Y-95892330D01*
X124877022Y-95896470D01*
X122542572Y-95896470D01*
X122901454Y-95412994D01*
X145739859Y-95412994D01*
X145739859Y-95413005D01*
X145760385Y-95660729D01*
X145760387Y-95660738D01*
X145821412Y-95901717D01*
X145921266Y-96129364D01*
X146021564Y-96282882D01*
X146721212Y-95583234D01*
X146732482Y-95625292D01*
X146804890Y-95750708D01*
X146907292Y-95853110D01*
X147032708Y-95925518D01*
X147074765Y-95936787D01*
X146374942Y-96636609D01*
X146421768Y-96673055D01*
X146421770Y-96673056D01*
X146640385Y-96791364D01*
X146640396Y-96791369D01*
X146875506Y-96872083D01*
X147120707Y-96913000D01*
X147369293Y-96913000D01*
X147614493Y-96872083D01*
X147849603Y-96791369D01*
X147849614Y-96791364D01*
X148068228Y-96673057D01*
X148068231Y-96673055D01*
X148115056Y-96636609D01*
X147415234Y-95936787D01*
X147457292Y-95925518D01*
X147582708Y-95853110D01*
X147685110Y-95750708D01*
X147757518Y-95625292D01*
X147768787Y-95583235D01*
X148468434Y-96282882D01*
X148568731Y-96129369D01*
X148668587Y-95901717D01*
X148729612Y-95660738D01*
X148729614Y-95660729D01*
X148750141Y-95413005D01*
X148750141Y-95412994D01*
X152239859Y-95412994D01*
X152239859Y-95413005D01*
X152260385Y-95660729D01*
X152260387Y-95660738D01*
X152321412Y-95901717D01*
X152421266Y-96129364D01*
X152521564Y-96282882D01*
X153221212Y-95583234D01*
X153232482Y-95625292D01*
X153304890Y-95750708D01*
X153407292Y-95853110D01*
X153532708Y-95925518D01*
X153574765Y-95936787D01*
X152874942Y-96636609D01*
X152921768Y-96673055D01*
X152921770Y-96673056D01*
X153140385Y-96791364D01*
X153140396Y-96791369D01*
X153375506Y-96872083D01*
X153620707Y-96913000D01*
X153869293Y-96913000D01*
X154114493Y-96872083D01*
X154349603Y-96791369D01*
X154349614Y-96791364D01*
X154568228Y-96673057D01*
X154568231Y-96673055D01*
X154615056Y-96636609D01*
X154573443Y-96594996D01*
X173718096Y-96594996D01*
X173718096Y-96595003D01*
X173737648Y-96768538D01*
X173795331Y-96933387D01*
X173799470Y-96939976D01*
X174144447Y-96595000D01*
X174144447Y-96594999D01*
X174104666Y-96555218D01*
X174298000Y-96555218D01*
X174298000Y-96634782D01*
X174328448Y-96708291D01*
X174384709Y-96764552D01*
X174458218Y-96795000D01*
X174537782Y-96795000D01*
X174611291Y-96764552D01*
X174667552Y-96708291D01*
X174698000Y-96634782D01*
X174698000Y-96594999D01*
X174851553Y-96594999D01*
X174851553Y-96595001D01*
X175196527Y-96939975D01*
X175196528Y-96939975D01*
X175200667Y-96933389D01*
X175200669Y-96933385D01*
X175258351Y-96768538D01*
X175277904Y-96595003D01*
X175277904Y-96594996D01*
X175258351Y-96421460D01*
X175200670Y-96256616D01*
X175200669Y-96256613D01*
X175196527Y-96250022D01*
X174851553Y-96594999D01*
X174698000Y-96594999D01*
X174698000Y-96555218D01*
X174667552Y-96481709D01*
X174611291Y-96425448D01*
X174537782Y-96395000D01*
X174458218Y-96395000D01*
X174384709Y-96425448D01*
X174328448Y-96481709D01*
X174298000Y-96555218D01*
X174104666Y-96555218D01*
X173799470Y-96250022D01*
X173795330Y-96256613D01*
X173737648Y-96421460D01*
X173718096Y-96594996D01*
X154573443Y-96594996D01*
X153915234Y-95936787D01*
X153957292Y-95925518D01*
X154082708Y-95853110D01*
X154185110Y-95750708D01*
X154257518Y-95625292D01*
X154268787Y-95583235D01*
X154968434Y-96282882D01*
X155068731Y-96129369D01*
X155168587Y-95901717D01*
X155169916Y-95896470D01*
X174153022Y-95896470D01*
X174498000Y-96241447D01*
X174498001Y-96241447D01*
X174842976Y-95896470D01*
X174836387Y-95892331D01*
X174671538Y-95834648D01*
X174498004Y-95815096D01*
X174497996Y-95815096D01*
X174324460Y-95834648D01*
X174159613Y-95892330D01*
X174153022Y-95896470D01*
X155169916Y-95896470D01*
X155229612Y-95660738D01*
X155229614Y-95660729D01*
X155250141Y-95413005D01*
X155250141Y-95412994D01*
X155229614Y-95165270D01*
X155229612Y-95165261D01*
X155168587Y-94924282D01*
X155068731Y-94696630D01*
X154968434Y-94543116D01*
X154268787Y-95242764D01*
X154257518Y-95200708D01*
X154185110Y-95075292D01*
X154082708Y-94972890D01*
X153957292Y-94900482D01*
X153915235Y-94889212D01*
X154615057Y-94189390D01*
X154615056Y-94189389D01*
X154568229Y-94152943D01*
X154349614Y-94034635D01*
X154349603Y-94034630D01*
X154114493Y-93953916D01*
X153869293Y-93913000D01*
X153620707Y-93913000D01*
X153375506Y-93953916D01*
X153140396Y-94034630D01*
X153140390Y-94034632D01*
X152921761Y-94152949D01*
X152874942Y-94189388D01*
X152874942Y-94189390D01*
X153574765Y-94889212D01*
X153532708Y-94900482D01*
X153407292Y-94972890D01*
X153304890Y-95075292D01*
X153232482Y-95200708D01*
X153221212Y-95242764D01*
X152521564Y-94543116D01*
X152421267Y-94696632D01*
X152321412Y-94924282D01*
X152260387Y-95165261D01*
X152260385Y-95165270D01*
X152239859Y-95412994D01*
X148750141Y-95412994D01*
X148729614Y-95165270D01*
X148729612Y-95165261D01*
X148668587Y-94924282D01*
X148568731Y-94696630D01*
X148468434Y-94543116D01*
X147768787Y-95242764D01*
X147757518Y-95200708D01*
X147685110Y-95075292D01*
X147582708Y-94972890D01*
X147457292Y-94900482D01*
X147415235Y-94889212D01*
X148115057Y-94189390D01*
X148115056Y-94189389D01*
X148068229Y-94152943D01*
X147849614Y-94034635D01*
X147849603Y-94034630D01*
X147614493Y-93953916D01*
X147369293Y-93913000D01*
X147120707Y-93913000D01*
X146875506Y-93953916D01*
X146640396Y-94034630D01*
X146640390Y-94034632D01*
X146421761Y-94152949D01*
X146374942Y-94189388D01*
X146374942Y-94189390D01*
X147074765Y-94889212D01*
X147032708Y-94900482D01*
X146907292Y-94972890D01*
X146804890Y-95075292D01*
X146732482Y-95200708D01*
X146721212Y-95242764D01*
X146021564Y-94543116D01*
X145921267Y-94696632D01*
X145821412Y-94924282D01*
X145760387Y-95165261D01*
X145760385Y-95165270D01*
X145739859Y-95412994D01*
X122901454Y-95412994D01*
X124654739Y-93051015D01*
X127405471Y-89372027D01*
X130012942Y-85904996D01*
X138739593Y-85904996D01*
X138739593Y-85905003D01*
X138759157Y-86078648D01*
X138759159Y-86078657D01*
X138816878Y-86243606D01*
X138909853Y-86391576D01*
X139033424Y-86515147D01*
X139181394Y-86608122D01*
X139346343Y-86665841D01*
X139346349Y-86665841D01*
X139346351Y-86665842D01*
X139519996Y-86685407D01*
X139520000Y-86685407D01*
X139520004Y-86685407D01*
X139693648Y-86665842D01*
X139693647Y-86665842D01*
X139693657Y-86665841D01*
X139858606Y-86608122D01*
X140006576Y-86515147D01*
X140130147Y-86391576D01*
X140223122Y-86243606D01*
X140280841Y-86078657D01*
X140300407Y-85905000D01*
X140300407Y-85904996D01*
X161859593Y-85904996D01*
X161859593Y-85905003D01*
X161879157Y-86078648D01*
X161879159Y-86078657D01*
X161936878Y-86243606D01*
X162029853Y-86391576D01*
X162153424Y-86515147D01*
X162301394Y-86608122D01*
X162466343Y-86665841D01*
X162466349Y-86665841D01*
X162466351Y-86665842D01*
X162639996Y-86685407D01*
X162640000Y-86685407D01*
X162640004Y-86685407D01*
X162813648Y-86665842D01*
X162813647Y-86665842D01*
X162813657Y-86665841D01*
X162978606Y-86608122D01*
X163126576Y-86515147D01*
X163250147Y-86391576D01*
X163343122Y-86243606D01*
X163400841Y-86078657D01*
X163420407Y-85905000D01*
X163400841Y-85731343D01*
X163343122Y-85566394D01*
X163250147Y-85418424D01*
X163126576Y-85294853D01*
X162978606Y-85201878D01*
X162978605Y-85201877D01*
X162978604Y-85201877D01*
X162813658Y-85144159D01*
X162813648Y-85144157D01*
X162640004Y-85124593D01*
X162639996Y-85124593D01*
X162466351Y-85144157D01*
X162466341Y-85144159D01*
X162301395Y-85201877D01*
X162153423Y-85294853D01*
X162029853Y-85418423D01*
X161936877Y-85566395D01*
X161879159Y-85731341D01*
X161879157Y-85731351D01*
X161859593Y-85904996D01*
X140300407Y-85904996D01*
X140280841Y-85731343D01*
X140223122Y-85566394D01*
X140130147Y-85418424D01*
X140006576Y-85294853D01*
X139858606Y-85201878D01*
X139858605Y-85201877D01*
X139858604Y-85201877D01*
X139693658Y-85144159D01*
X139693648Y-85144157D01*
X139520004Y-85124593D01*
X139519996Y-85124593D01*
X139346351Y-85144157D01*
X139346341Y-85144159D01*
X139181395Y-85201877D01*
X139033423Y-85294853D01*
X138909853Y-85418423D01*
X138816877Y-85566395D01*
X138759159Y-85731341D01*
X138759157Y-85731351D01*
X138739593Y-85904996D01*
X130012942Y-85904996D01*
X131393755Y-84068995D01*
X136279499Y-84068995D01*
X136306418Y-84204322D01*
X136306421Y-84204332D01*
X136359221Y-84331804D01*
X136359228Y-84331817D01*
X136435885Y-84446541D01*
X136435888Y-84446545D01*
X136533454Y-84544111D01*
X136533458Y-84544114D01*
X136648182Y-84620771D01*
X136648195Y-84620778D01*
X136770344Y-84671373D01*
X136775672Y-84673580D01*
X136775676Y-84673580D01*
X136775677Y-84673581D01*
X136911004Y-84700500D01*
X136911007Y-84700500D01*
X137048995Y-84700500D01*
X137140041Y-84682389D01*
X137184328Y-84673580D01*
X137311811Y-84620775D01*
X137426542Y-84544114D01*
X137426545Y-84544111D01*
X137527319Y-84443338D01*
X137588642Y-84409853D01*
X137658334Y-84414837D01*
X137702681Y-84443338D01*
X137803454Y-84544111D01*
X137803458Y-84544114D01*
X137918182Y-84620771D01*
X137918195Y-84620778D01*
X138040344Y-84671373D01*
X138045672Y-84673580D01*
X138045676Y-84673580D01*
X138045677Y-84673581D01*
X138181004Y-84700500D01*
X138181007Y-84700500D01*
X138318995Y-84700500D01*
X138410041Y-84682389D01*
X138454328Y-84673580D01*
X138581811Y-84620775D01*
X138696542Y-84544114D01*
X138696545Y-84544111D01*
X138797319Y-84443338D01*
X138858642Y-84409853D01*
X138928334Y-84414837D01*
X138972681Y-84443338D01*
X139073454Y-84544111D01*
X139073458Y-84544114D01*
X139188182Y-84620771D01*
X139188195Y-84620778D01*
X139310344Y-84671373D01*
X139315672Y-84673580D01*
X139315676Y-84673580D01*
X139315677Y-84673581D01*
X139451004Y-84700500D01*
X139451007Y-84700500D01*
X139588995Y-84700500D01*
X139680041Y-84682389D01*
X139724328Y-84673580D01*
X139851811Y-84620775D01*
X139966542Y-84544114D01*
X139966545Y-84544111D01*
X140067319Y-84443338D01*
X140128642Y-84409853D01*
X140198334Y-84414837D01*
X140242681Y-84443338D01*
X140343454Y-84544111D01*
X140343458Y-84544114D01*
X140458182Y-84620771D01*
X140458195Y-84620778D01*
X140580344Y-84671373D01*
X140585672Y-84673580D01*
X140585676Y-84673580D01*
X140585677Y-84673581D01*
X140721004Y-84700500D01*
X140721007Y-84700500D01*
X140858995Y-84700500D01*
X140950041Y-84682389D01*
X140994328Y-84673580D01*
X141121811Y-84620775D01*
X141236542Y-84544114D01*
X141334114Y-84446542D01*
X141410775Y-84331811D01*
X141463580Y-84204328D01*
X141472389Y-84160041D01*
X141490500Y-84068995D01*
X159399499Y-84068995D01*
X159426418Y-84204322D01*
X159426421Y-84204332D01*
X159479221Y-84331804D01*
X159479228Y-84331817D01*
X159555885Y-84446541D01*
X159555888Y-84446545D01*
X159653454Y-84544111D01*
X159653458Y-84544114D01*
X159768182Y-84620771D01*
X159768195Y-84620778D01*
X159890344Y-84671373D01*
X159895672Y-84673580D01*
X159895676Y-84673580D01*
X159895677Y-84673581D01*
X160031004Y-84700500D01*
X160031007Y-84700500D01*
X160168995Y-84700500D01*
X160260041Y-84682389D01*
X160304328Y-84673580D01*
X160431811Y-84620775D01*
X160546542Y-84544114D01*
X160546545Y-84544111D01*
X160647319Y-84443338D01*
X160708642Y-84409853D01*
X160778334Y-84414837D01*
X160822681Y-84443338D01*
X160923454Y-84544111D01*
X160923458Y-84544114D01*
X161038182Y-84620771D01*
X161038195Y-84620778D01*
X161160344Y-84671373D01*
X161165672Y-84673580D01*
X161165676Y-84673580D01*
X161165677Y-84673581D01*
X161301004Y-84700500D01*
X161301007Y-84700500D01*
X161438995Y-84700500D01*
X161530041Y-84682389D01*
X161574328Y-84673580D01*
X161701811Y-84620775D01*
X161816542Y-84544114D01*
X161816545Y-84544111D01*
X161917319Y-84443338D01*
X161978642Y-84409853D01*
X162048334Y-84414837D01*
X162092681Y-84443338D01*
X162193454Y-84544111D01*
X162193458Y-84544114D01*
X162308182Y-84620771D01*
X162308195Y-84620778D01*
X162430344Y-84671373D01*
X162435672Y-84673580D01*
X162435676Y-84673580D01*
X162435677Y-84673581D01*
X162571004Y-84700500D01*
X162571007Y-84700500D01*
X162708995Y-84700500D01*
X162800041Y-84682389D01*
X162844328Y-84673580D01*
X162971811Y-84620775D01*
X163086542Y-84544114D01*
X163086545Y-84544111D01*
X163187319Y-84443338D01*
X163248642Y-84409853D01*
X163318334Y-84414837D01*
X163362681Y-84443338D01*
X163463454Y-84544111D01*
X163463458Y-84544114D01*
X163578182Y-84620771D01*
X163578195Y-84620778D01*
X163700344Y-84671373D01*
X163705672Y-84673580D01*
X163705676Y-84673580D01*
X163705677Y-84673581D01*
X163841004Y-84700500D01*
X163841007Y-84700500D01*
X163978995Y-84700500D01*
X164070041Y-84682389D01*
X164114328Y-84673580D01*
X164241811Y-84620775D01*
X164356542Y-84544114D01*
X164454114Y-84446542D01*
X164530775Y-84331811D01*
X164583580Y-84204328D01*
X164592389Y-84160041D01*
X164610500Y-84068995D01*
X164610500Y-83931004D01*
X164583581Y-83795677D01*
X164583580Y-83795676D01*
X164583580Y-83795672D01*
X164545000Y-83702531D01*
X164530778Y-83668195D01*
X164530771Y-83668182D01*
X164454114Y-83553458D01*
X164454111Y-83553454D01*
X164356545Y-83455888D01*
X164356541Y-83455885D01*
X164241817Y-83379228D01*
X164241804Y-83379221D01*
X164114332Y-83326421D01*
X164114322Y-83326418D01*
X163978995Y-83299500D01*
X163978993Y-83299500D01*
X163841007Y-83299500D01*
X163841005Y-83299500D01*
X163705677Y-83326418D01*
X163705667Y-83326421D01*
X163578195Y-83379221D01*
X163578182Y-83379228D01*
X163463458Y-83455885D01*
X163463454Y-83455888D01*
X163362681Y-83556662D01*
X163301358Y-83590147D01*
X163231666Y-83585163D01*
X163187319Y-83556662D01*
X163086545Y-83455888D01*
X163086541Y-83455885D01*
X162971817Y-83379228D01*
X162971804Y-83379221D01*
X162844332Y-83326421D01*
X162844322Y-83326418D01*
X162708995Y-83299500D01*
X162708993Y-83299500D01*
X162571007Y-83299500D01*
X162571005Y-83299500D01*
X162435677Y-83326418D01*
X162435667Y-83326421D01*
X162308195Y-83379221D01*
X162308182Y-83379228D01*
X162193458Y-83455885D01*
X162193454Y-83455888D01*
X162092681Y-83556662D01*
X162031358Y-83590147D01*
X161961666Y-83585163D01*
X161917319Y-83556662D01*
X161816545Y-83455888D01*
X161816541Y-83455885D01*
X161701817Y-83379228D01*
X161701804Y-83379221D01*
X161574332Y-83326421D01*
X161574322Y-83326418D01*
X161438995Y-83299500D01*
X161438993Y-83299500D01*
X161301007Y-83299500D01*
X161301005Y-83299500D01*
X161165677Y-83326418D01*
X161165667Y-83326421D01*
X161038195Y-83379221D01*
X161038182Y-83379228D01*
X160923458Y-83455885D01*
X160923454Y-83455888D01*
X160822681Y-83556662D01*
X160761358Y-83590147D01*
X160691666Y-83585163D01*
X160647319Y-83556662D01*
X160546545Y-83455888D01*
X160546541Y-83455885D01*
X160431817Y-83379228D01*
X160431804Y-83379221D01*
X160304332Y-83326421D01*
X160304322Y-83326418D01*
X160168995Y-83299500D01*
X160168993Y-83299500D01*
X160031007Y-83299500D01*
X160031005Y-83299500D01*
X159895677Y-83326418D01*
X159895667Y-83326421D01*
X159768195Y-83379221D01*
X159768182Y-83379228D01*
X159653458Y-83455885D01*
X159653454Y-83455888D01*
X159555888Y-83553454D01*
X159555885Y-83553458D01*
X159479228Y-83668182D01*
X159479221Y-83668195D01*
X159426421Y-83795667D01*
X159426418Y-83795677D01*
X159399500Y-83931004D01*
X159399500Y-83931007D01*
X159399500Y-84068993D01*
X159399500Y-84068995D01*
X159399499Y-84068995D01*
X141490500Y-84068995D01*
X141490500Y-83931004D01*
X141463581Y-83795677D01*
X141463580Y-83795676D01*
X141463580Y-83795672D01*
X141425000Y-83702531D01*
X141410778Y-83668195D01*
X141410771Y-83668182D01*
X141334114Y-83553458D01*
X141334111Y-83553454D01*
X141236545Y-83455888D01*
X141236541Y-83455885D01*
X141121817Y-83379228D01*
X141121804Y-83379221D01*
X140994332Y-83326421D01*
X140994322Y-83326418D01*
X140858995Y-83299500D01*
X140858993Y-83299500D01*
X140721007Y-83299500D01*
X140721005Y-83299500D01*
X140585677Y-83326418D01*
X140585667Y-83326421D01*
X140458195Y-83379221D01*
X140458182Y-83379228D01*
X140343458Y-83455885D01*
X140343454Y-83455888D01*
X140242681Y-83556662D01*
X140181358Y-83590147D01*
X140111666Y-83585163D01*
X140067319Y-83556662D01*
X139966545Y-83455888D01*
X139966541Y-83455885D01*
X139851817Y-83379228D01*
X139851804Y-83379221D01*
X139724332Y-83326421D01*
X139724322Y-83326418D01*
X139588995Y-83299500D01*
X139588993Y-83299500D01*
X139451007Y-83299500D01*
X139451005Y-83299500D01*
X139315677Y-83326418D01*
X139315667Y-83326421D01*
X139188195Y-83379221D01*
X139188182Y-83379228D01*
X139073458Y-83455885D01*
X139073454Y-83455888D01*
X138972681Y-83556662D01*
X138911358Y-83590147D01*
X138841666Y-83585163D01*
X138797319Y-83556662D01*
X138696545Y-83455888D01*
X138696541Y-83455885D01*
X138581817Y-83379228D01*
X138581804Y-83379221D01*
X138454332Y-83326421D01*
X138454322Y-83326418D01*
X138318995Y-83299500D01*
X138318993Y-83299500D01*
X138181007Y-83299500D01*
X138181005Y-83299500D01*
X138045677Y-83326418D01*
X138045667Y-83326421D01*
X137918195Y-83379221D01*
X137918182Y-83379228D01*
X137803458Y-83455885D01*
X137803454Y-83455888D01*
X137702681Y-83556662D01*
X137641358Y-83590147D01*
X137571666Y-83585163D01*
X137527319Y-83556662D01*
X137426545Y-83455888D01*
X137426541Y-83455885D01*
X137311817Y-83379228D01*
X137311804Y-83379221D01*
X137184332Y-83326421D01*
X137184322Y-83326418D01*
X137048995Y-83299500D01*
X137048993Y-83299500D01*
X136911007Y-83299500D01*
X136911005Y-83299500D01*
X136775677Y-83326418D01*
X136775667Y-83326421D01*
X136648195Y-83379221D01*
X136648182Y-83379228D01*
X136533458Y-83455885D01*
X136533454Y-83455888D01*
X136435888Y-83553454D01*
X136435885Y-83553458D01*
X136359228Y-83668182D01*
X136359221Y-83668195D01*
X136306421Y-83795667D01*
X136306418Y-83795677D01*
X136279500Y-83931004D01*
X136279500Y-83931007D01*
X136279500Y-84068993D01*
X136279500Y-84068995D01*
X136279499Y-84068995D01*
X131393755Y-84068995D01*
X132353004Y-82793528D01*
X137905022Y-82793528D01*
X137911613Y-82797669D01*
X137911616Y-82797670D01*
X138076460Y-82855351D01*
X138249996Y-82874904D01*
X138250004Y-82874904D01*
X138423538Y-82855351D01*
X138588385Y-82797669D01*
X138588389Y-82797667D01*
X138594975Y-82793528D01*
X161025022Y-82793528D01*
X161031613Y-82797669D01*
X161031616Y-82797670D01*
X161196460Y-82855351D01*
X161369996Y-82874904D01*
X161370004Y-82874904D01*
X161543538Y-82855351D01*
X161708385Y-82797669D01*
X161708389Y-82797667D01*
X161714975Y-82793528D01*
X161714975Y-82793527D01*
X161370001Y-82448553D01*
X161370000Y-82448553D01*
X161025022Y-82793528D01*
X138594975Y-82793528D01*
X138594975Y-82793527D01*
X138250001Y-82448553D01*
X138250000Y-82448553D01*
X137905022Y-82793528D01*
X132353004Y-82793528D01*
X132878353Y-82094996D01*
X137470096Y-82094996D01*
X137470096Y-82095003D01*
X137489648Y-82268538D01*
X137547331Y-82433387D01*
X137551470Y-82439976D01*
X137896447Y-82095000D01*
X137896447Y-82094999D01*
X137856666Y-82055218D01*
X138050000Y-82055218D01*
X138050000Y-82134782D01*
X138080448Y-82208291D01*
X138136709Y-82264552D01*
X138210218Y-82295000D01*
X138289782Y-82295000D01*
X138363291Y-82264552D01*
X138419552Y-82208291D01*
X138450000Y-82134782D01*
X138450000Y-82094999D01*
X138603553Y-82094999D01*
X138603553Y-82095001D01*
X138948527Y-82439975D01*
X138948528Y-82439975D01*
X138952667Y-82433389D01*
X138952669Y-82433385D01*
X139010351Y-82268538D01*
X139029904Y-82095003D01*
X139029904Y-82094996D01*
X160590096Y-82094996D01*
X160590096Y-82095003D01*
X160609648Y-82268538D01*
X160667331Y-82433387D01*
X160671470Y-82439976D01*
X161016447Y-82095000D01*
X161016447Y-82094999D01*
X160976666Y-82055218D01*
X161170000Y-82055218D01*
X161170000Y-82134782D01*
X161200448Y-82208291D01*
X161256709Y-82264552D01*
X161330218Y-82295000D01*
X161409782Y-82295000D01*
X161483291Y-82264552D01*
X161539552Y-82208291D01*
X161570000Y-82134782D01*
X161570000Y-82094999D01*
X161723553Y-82094999D01*
X161723553Y-82095001D01*
X162068527Y-82439975D01*
X162068528Y-82439975D01*
X162072667Y-82433389D01*
X162072669Y-82433385D01*
X162130351Y-82268538D01*
X162149904Y-82095003D01*
X162149904Y-82094996D01*
X162130351Y-81921460D01*
X162072670Y-81756616D01*
X162072669Y-81756613D01*
X162068527Y-81750022D01*
X161723553Y-82094999D01*
X161570000Y-82094999D01*
X161570000Y-82055218D01*
X161539552Y-81981709D01*
X161483291Y-81925448D01*
X161409782Y-81895000D01*
X161330218Y-81895000D01*
X161256709Y-81925448D01*
X161200448Y-81981709D01*
X161170000Y-82055218D01*
X160976666Y-82055218D01*
X160671470Y-81750022D01*
X160667330Y-81756613D01*
X160609648Y-81921460D01*
X160590096Y-82094996D01*
X139029904Y-82094996D01*
X139010351Y-81921460D01*
X138952670Y-81756616D01*
X138952669Y-81756613D01*
X138948527Y-81750022D01*
X138603553Y-82094999D01*
X138450000Y-82094999D01*
X138450000Y-82055218D01*
X138419552Y-81981709D01*
X138363291Y-81925448D01*
X138289782Y-81895000D01*
X138210218Y-81895000D01*
X138136709Y-81925448D01*
X138080448Y-81981709D01*
X138050000Y-82055218D01*
X137856666Y-82055218D01*
X137551470Y-81750022D01*
X137547330Y-81756613D01*
X137489648Y-81921460D01*
X137470096Y-82094996D01*
X132878353Y-82094996D01*
X133403698Y-81396470D01*
X137905022Y-81396470D01*
X138250000Y-81741447D01*
X138250001Y-81741447D01*
X138594976Y-81396470D01*
X161025022Y-81396470D01*
X161370000Y-81741447D01*
X161370001Y-81741447D01*
X161714976Y-81396470D01*
X161708387Y-81392331D01*
X161543538Y-81334648D01*
X161370004Y-81315096D01*
X161369996Y-81315096D01*
X161196460Y-81334648D01*
X161031613Y-81392330D01*
X161025022Y-81396470D01*
X138594976Y-81396470D01*
X138588387Y-81392331D01*
X138423538Y-81334648D01*
X138250004Y-81315096D01*
X138249996Y-81315096D01*
X138076460Y-81334648D01*
X137911613Y-81392330D01*
X137905022Y-81396470D01*
X133403698Y-81396470D01*
X134905215Y-79399973D01*
X134908650Y-79395961D01*
X134911642Y-79391941D01*
X134911645Y-79391940D01*
X134950302Y-79340025D01*
X134989171Y-79288343D01*
X134989171Y-79288341D01*
X134992181Y-79284340D01*
X134995062Y-79279913D01*
X135323453Y-78838897D01*
X135332061Y-78828663D01*
X135349046Y-78805248D01*
X135368873Y-78777914D01*
X135369628Y-78776887D01*
X135406749Y-78727036D01*
X135406751Y-78727029D01*
X135407107Y-78726552D01*
X135414299Y-78715292D01*
X135682812Y-78345130D01*
X135691629Y-78334315D01*
X135693649Y-78332102D01*
X135693657Y-78332096D01*
X135728180Y-78282618D01*
X135729325Y-78281009D01*
X135764733Y-78232199D01*
X135764736Y-78232189D01*
X135766161Y-78229563D01*
X135773487Y-78217688D01*
X135945690Y-77970901D01*
X135954866Y-77960550D01*
X135954367Y-77960121D01*
X135959658Y-77953961D01*
X135959664Y-77953957D01*
X135990581Y-77906660D01*
X135992599Y-77903673D01*
X136024950Y-77857313D01*
X136024951Y-77857311D01*
X136028692Y-77850096D01*
X136029275Y-77850398D01*
X136035453Y-77838019D01*
X136040332Y-77830555D01*
X136055951Y-77811217D01*
X136058051Y-77809095D01*
X136081258Y-77768367D01*
X136085169Y-77761967D01*
X136110809Y-77722748D01*
X136111545Y-77720503D01*
X136125929Y-77690782D01*
X136149807Y-77654677D01*
X136151283Y-77650259D01*
X136161160Y-77628157D01*
X136163464Y-77624115D01*
X136172793Y-77588494D01*
X136177054Y-77575293D01*
X136191273Y-77538449D01*
X136191273Y-77538441D01*
X136193184Y-77530549D01*
X136193194Y-77530551D01*
X136194659Y-77523829D01*
X136194648Y-77523827D01*
X136196193Y-77515858D01*
X136196196Y-77515852D01*
X136199118Y-77467760D01*
X136199997Y-77458748D01*
X136206892Y-77407576D01*
X136206891Y-77407571D01*
X136206892Y-77407567D01*
X136206913Y-77400642D01*
X136206745Y-77393735D01*
X136198337Y-77340033D01*
X136197400Y-77332569D01*
X136192411Y-77279807D01*
X136192409Y-77279801D01*
X136190595Y-77271879D01*
X136191094Y-77271764D01*
X136190922Y-77271069D01*
X136190426Y-77271201D01*
X136188347Y-77263349D01*
X136188347Y-77263344D01*
X136171015Y-77221141D01*
X136167094Y-77210146D01*
X136155009Y-77170421D01*
X136154491Y-77169590D01*
X136153476Y-77167960D01*
X136142499Y-77145614D01*
X136142106Y-77144558D01*
X136141492Y-77142906D01*
X136126255Y-77121467D01*
X136116254Y-77104754D01*
X136109950Y-77092050D01*
X136106146Y-77084384D01*
X136096781Y-77073759D01*
X136084561Y-77057339D01*
X136077069Y-77045312D01*
X136073576Y-77042046D01*
X136055356Y-77020647D01*
X136054162Y-77018870D01*
X136054160Y-77018868D01*
X136035407Y-77002513D01*
X136023885Y-76991051D01*
X136007430Y-76972381D01*
X136004410Y-76969746D01*
X135976848Y-76950313D01*
X135959821Y-76935845D01*
X135953243Y-76929145D01*
X135953236Y-76929141D01*
X135946837Y-76924136D01*
X135946896Y-76924059D01*
X135943494Y-76921605D01*
X135939911Y-76919225D01*
X135933153Y-76915915D01*
X135911763Y-76901514D01*
X135911737Y-76901554D01*
X135905401Y-76897231D01*
X135905037Y-76896986D01*
X135905021Y-76896972D01*
X135905021Y-76896971D01*
X135899613Y-76894239D01*
X135884090Y-76884913D01*
X135876820Y-76879787D01*
X135876818Y-76879786D01*
X135869627Y-76876013D01*
X135869678Y-76875914D01*
X135858952Y-76870741D01*
X135857541Y-76869883D01*
X135851775Y-76867340D01*
X135845155Y-76864420D01*
X135832221Y-76857783D01*
X135817959Y-76849373D01*
X135817957Y-76849372D01*
X135817955Y-76849371D01*
X135814633Y-76847959D01*
X135811517Y-76846920D01*
X135792518Y-76839495D01*
X135781738Y-76834679D01*
X135762159Y-76824787D01*
X135758974Y-76823671D01*
X135749862Y-76821134D01*
X135740684Y-76817919D01*
X135731649Y-76814351D01*
X135708209Y-76804012D01*
X135702271Y-76802275D01*
X135694068Y-76800351D01*
X135688801Y-76798682D01*
X135681133Y-76795973D01*
X135654974Y-76785751D01*
X135647082Y-76783806D01*
X135647119Y-76783654D01*
X135640286Y-76782296D01*
X135636010Y-76781058D01*
X135629509Y-76778980D01*
X135601549Y-76769188D01*
X135601546Y-76769187D01*
X135601545Y-76769187D01*
X135601543Y-76769186D01*
X135593587Y-76767524D01*
X135593672Y-76767114D01*
X135586831Y-76765956D01*
X135581864Y-76764634D01*
X135576293Y-76763010D01*
X135553069Y-76755646D01*
X135548873Y-76754184D01*
X135520000Y-76747330D01*
X135514171Y-76745796D01*
X135491393Y-76739204D01*
X135486229Y-76738419D01*
X135472984Y-76735658D01*
X135468718Y-76734522D01*
X135433751Y-76725217D01*
X135431711Y-76724591D01*
X135431561Y-76724566D01*
X135373903Y-76712599D01*
X135370465Y-76711835D01*
X135339070Y-76704383D01*
X135314984Y-76698666D01*
X135307080Y-76696790D01*
X135307104Y-76696687D01*
X135306793Y-76696622D01*
X135306703Y-76697111D01*
X135298717Y-76695636D01*
X135298716Y-76695636D01*
X135283145Y-76692761D01*
X135240658Y-76684917D01*
X135237976Y-76684391D01*
X135180241Y-76672409D01*
X135179350Y-76672344D01*
X135162249Y-76669147D01*
X135162240Y-76669204D01*
X135094684Y-76657950D01*
X135092551Y-76657576D01*
X135033046Y-76646592D01*
X135030573Y-76646464D01*
X135016612Y-76644945D01*
X135009791Y-76643809D01*
X134995677Y-76640602D01*
X134995411Y-76640525D01*
X134934580Y-76631267D01*
X134932864Y-76630994D01*
X134872213Y-76620892D01*
X134871950Y-76620883D01*
X134857535Y-76619544D01*
X134834735Y-76616074D01*
X134822733Y-76613507D01*
X134759875Y-76604676D01*
X134758474Y-76604471D01*
X134695710Y-76594921D01*
X134683472Y-76593941D01*
X134644387Y-76588450D01*
X134634420Y-76586426D01*
X134569799Y-76577965D01*
X134568649Y-76577809D01*
X134504002Y-76568727D01*
X134493843Y-76568020D01*
X134438124Y-76560723D01*
X134429825Y-76559112D01*
X134363714Y-76550977D01*
X134362762Y-76550856D01*
X134296609Y-76542194D01*
X134288148Y-76541678D01*
X134144193Y-76523964D01*
X134143477Y-76523874D01*
X133071406Y-76385620D01*
X133069539Y-76385364D01*
X131941831Y-76222476D01*
X131940260Y-76222239D01*
X130806797Y-76043659D01*
X130805285Y-76043411D01*
X129720330Y-75858707D01*
X129718644Y-75858408D01*
X128737009Y-75677317D01*
X128734772Y-75676883D01*
X127912946Y-75509597D01*
X127909214Y-75508778D01*
X127312521Y-75368047D01*
X127303434Y-75365535D01*
X126997722Y-75268392D01*
X126982262Y-75262312D01*
X126981302Y-75261858D01*
X126976511Y-75259464D01*
X126950825Y-75245930D01*
X126946135Y-75243328D01*
X126921374Y-75228880D01*
X126916829Y-75226095D01*
X126892856Y-75210689D01*
X126888455Y-75207726D01*
X126865361Y-75191448D01*
X126861117Y-75188320D01*
X126847939Y-75178166D01*
X126838876Y-75171183D01*
X126834800Y-75167901D01*
X126813505Y-75150005D01*
X126809567Y-75146552D01*
X126789175Y-75127890D01*
X126785402Y-75124288D01*
X126766013Y-75104984D01*
X126762398Y-75101231D01*
X126743963Y-75081266D01*
X126740509Y-75077363D01*
X126723144Y-75056894D01*
X126719858Y-75052851D01*
X126703532Y-75031881D01*
X126700426Y-75027714D01*
X126685183Y-75006333D01*
X126682244Y-75002020D01*
X126668114Y-74980317D01*
X126665329Y-74975833D01*
X126652346Y-74953904D01*
X126649743Y-74949284D01*
X126637927Y-74927226D01*
X126635516Y-74922484D01*
X126624832Y-74900289D01*
X126622605Y-74895392D01*
X126620969Y-74891576D01*
X126613106Y-74873243D01*
X126611071Y-74868190D01*
X126602746Y-74846143D01*
X126600912Y-74840940D01*
X126596150Y-74826402D01*
X126593741Y-74819049D01*
X126592125Y-74813706D01*
X126586111Y-74792088D01*
X126584715Y-74786589D01*
X126584612Y-74786140D01*
X126579820Y-74765258D01*
X126578674Y-74759669D01*
X126574872Y-74738664D01*
X126573976Y-74732948D01*
X126571252Y-74712394D01*
X126570614Y-74706494D01*
X126568929Y-74686445D01*
X126568570Y-74680437D01*
X126567882Y-74660805D01*
X126567820Y-74654722D01*
X126568099Y-74635574D01*
X126568345Y-74629390D01*
X126569173Y-74616657D01*
X126592762Y-74551591D01*
X126596495Y-74546478D01*
X126699787Y-74404996D01*
X132823593Y-74404996D01*
X132823593Y-74405003D01*
X132843157Y-74578648D01*
X132843159Y-74578658D01*
X132900625Y-74742884D01*
X132900878Y-74743606D01*
X132993853Y-74891576D01*
X133117424Y-75015147D01*
X133265394Y-75108122D01*
X133430343Y-75165841D01*
X133430349Y-75165841D01*
X133430351Y-75165842D01*
X133603996Y-75185407D01*
X133604000Y-75185407D01*
X133604004Y-75185407D01*
X133777648Y-75165842D01*
X133777647Y-75165842D01*
X133777657Y-75165841D01*
X133942606Y-75108122D01*
X134090576Y-75015147D01*
X134214147Y-74891576D01*
X134307122Y-74743606D01*
X134364841Y-74578657D01*
X134369263Y-74539411D01*
X134384407Y-74405003D01*
X134384407Y-74404996D01*
X168129593Y-74404996D01*
X168129593Y-74405003D01*
X168149157Y-74578648D01*
X168149159Y-74578658D01*
X168206625Y-74742884D01*
X168206878Y-74743606D01*
X168299853Y-74891576D01*
X168423424Y-75015147D01*
X168571394Y-75108122D01*
X168736343Y-75165841D01*
X168736349Y-75165841D01*
X168736351Y-75165842D01*
X168909996Y-75185407D01*
X168910000Y-75185407D01*
X168910004Y-75185407D01*
X169083648Y-75165842D01*
X169083647Y-75165842D01*
X169083657Y-75165841D01*
X169248606Y-75108122D01*
X169396576Y-75015147D01*
X169520147Y-74891576D01*
X169613122Y-74743606D01*
X169670841Y-74578657D01*
X169675263Y-74539411D01*
X169690407Y-74405003D01*
X169690407Y-74404996D01*
X169670842Y-74231351D01*
X169670841Y-74231349D01*
X169670841Y-74231343D01*
X169613122Y-74066394D01*
X169520147Y-73918424D01*
X169396576Y-73794853D01*
X169248606Y-73701878D01*
X169248605Y-73701877D01*
X169248604Y-73701877D01*
X169083658Y-73644159D01*
X169083648Y-73644157D01*
X168910004Y-73624593D01*
X168909996Y-73624593D01*
X168736351Y-73644157D01*
X168736341Y-73644159D01*
X168571395Y-73701877D01*
X168423423Y-73794853D01*
X168299853Y-73918423D01*
X168206877Y-74066395D01*
X168149159Y-74231341D01*
X168149157Y-74231351D01*
X168129593Y-74404996D01*
X134384407Y-74404996D01*
X134364842Y-74231351D01*
X134364841Y-74231349D01*
X134364841Y-74231343D01*
X134307122Y-74066394D01*
X134214147Y-73918424D01*
X134090576Y-73794853D01*
X133942606Y-73701878D01*
X133942605Y-73701877D01*
X133942604Y-73701877D01*
X133777658Y-73644159D01*
X133777648Y-73644157D01*
X133604004Y-73624593D01*
X133603996Y-73624593D01*
X133430351Y-73644157D01*
X133430341Y-73644159D01*
X133265395Y-73701877D01*
X133117423Y-73794853D01*
X132993853Y-73918423D01*
X132900877Y-74066395D01*
X132843159Y-74231341D01*
X132843157Y-74231351D01*
X132823593Y-74404996D01*
X126699787Y-74404996D01*
X128040205Y-72568995D01*
X130363499Y-72568995D01*
X130390418Y-72704322D01*
X130390421Y-72704332D01*
X130443221Y-72831804D01*
X130443228Y-72831817D01*
X130519885Y-72946541D01*
X130519888Y-72946545D01*
X130617454Y-73044111D01*
X130617458Y-73044114D01*
X130732182Y-73120771D01*
X130732195Y-73120778D01*
X130859667Y-73173578D01*
X130859672Y-73173580D01*
X130859676Y-73173580D01*
X130859677Y-73173581D01*
X130995004Y-73200500D01*
X130995007Y-73200500D01*
X131132995Y-73200500D01*
X131224041Y-73182389D01*
X131268328Y-73173580D01*
X131395811Y-73120775D01*
X131510542Y-73044114D01*
X131529266Y-73025390D01*
X131611319Y-72943338D01*
X131672642Y-72909853D01*
X131742334Y-72914837D01*
X131786681Y-72943338D01*
X131887454Y-73044111D01*
X131887458Y-73044114D01*
X132002182Y-73120771D01*
X132002195Y-73120778D01*
X132129667Y-73173578D01*
X132129672Y-73173580D01*
X132129676Y-73173580D01*
X132129677Y-73173581D01*
X132265004Y-73200500D01*
X132265007Y-73200500D01*
X132402995Y-73200500D01*
X132494041Y-73182389D01*
X132538328Y-73173580D01*
X132665811Y-73120775D01*
X132780542Y-73044114D01*
X132799266Y-73025390D01*
X132881319Y-72943338D01*
X132942642Y-72909853D01*
X133012334Y-72914837D01*
X133056681Y-72943338D01*
X133157454Y-73044111D01*
X133157458Y-73044114D01*
X133272182Y-73120771D01*
X133272195Y-73120778D01*
X133399667Y-73173578D01*
X133399672Y-73173580D01*
X133399676Y-73173580D01*
X133399677Y-73173581D01*
X133535004Y-73200500D01*
X133535007Y-73200500D01*
X133672995Y-73200500D01*
X133764041Y-73182389D01*
X133808328Y-73173580D01*
X133935811Y-73120775D01*
X134050542Y-73044114D01*
X134069266Y-73025390D01*
X134151319Y-72943338D01*
X134212642Y-72909853D01*
X134282334Y-72914837D01*
X134326681Y-72943338D01*
X134427454Y-73044111D01*
X134427458Y-73044114D01*
X134542182Y-73120771D01*
X134542195Y-73120778D01*
X134669667Y-73173578D01*
X134669672Y-73173580D01*
X134669676Y-73173580D01*
X134669677Y-73173581D01*
X134805004Y-73200500D01*
X134805007Y-73200500D01*
X134942995Y-73200500D01*
X135034041Y-73182389D01*
X135078328Y-73173580D01*
X135205811Y-73120775D01*
X135320542Y-73044114D01*
X135418114Y-72946542D01*
X135494775Y-72831811D01*
X135547580Y-72704328D01*
X135574500Y-72568995D01*
X165669499Y-72568995D01*
X165696418Y-72704322D01*
X165696421Y-72704332D01*
X165749221Y-72831804D01*
X165749228Y-72831817D01*
X165825885Y-72946541D01*
X165825888Y-72946545D01*
X165923454Y-73044111D01*
X165923458Y-73044114D01*
X166038182Y-73120771D01*
X166038195Y-73120778D01*
X166165667Y-73173578D01*
X166165672Y-73173580D01*
X166165676Y-73173580D01*
X166165677Y-73173581D01*
X166301004Y-73200500D01*
X166301007Y-73200500D01*
X166438995Y-73200500D01*
X166530041Y-73182389D01*
X166574328Y-73173580D01*
X166701811Y-73120775D01*
X166816542Y-73044114D01*
X166835266Y-73025390D01*
X166917319Y-72943338D01*
X166978642Y-72909853D01*
X167048334Y-72914837D01*
X167092681Y-72943338D01*
X167193454Y-73044111D01*
X167193458Y-73044114D01*
X167308182Y-73120771D01*
X167308195Y-73120778D01*
X167435667Y-73173578D01*
X167435672Y-73173580D01*
X167435676Y-73173580D01*
X167435677Y-73173581D01*
X167571004Y-73200500D01*
X167571007Y-73200500D01*
X167708995Y-73200500D01*
X167800041Y-73182389D01*
X167844328Y-73173580D01*
X167971811Y-73120775D01*
X168086542Y-73044114D01*
X168105266Y-73025390D01*
X168187319Y-72943338D01*
X168248642Y-72909853D01*
X168318334Y-72914837D01*
X168362681Y-72943338D01*
X168463454Y-73044111D01*
X168463458Y-73044114D01*
X168578182Y-73120771D01*
X168578195Y-73120778D01*
X168705667Y-73173578D01*
X168705672Y-73173580D01*
X168705676Y-73173580D01*
X168705677Y-73173581D01*
X168841004Y-73200500D01*
X168841007Y-73200500D01*
X168978995Y-73200500D01*
X169070041Y-73182389D01*
X169114328Y-73173580D01*
X169241811Y-73120775D01*
X169356542Y-73044114D01*
X169375266Y-73025390D01*
X169457319Y-72943338D01*
X169518642Y-72909853D01*
X169588334Y-72914837D01*
X169632681Y-72943338D01*
X169733454Y-73044111D01*
X169733458Y-73044114D01*
X169848182Y-73120771D01*
X169848195Y-73120778D01*
X169975667Y-73173578D01*
X169975672Y-73173580D01*
X169975676Y-73173580D01*
X169975677Y-73173581D01*
X170111004Y-73200500D01*
X170111007Y-73200500D01*
X170248995Y-73200500D01*
X170340041Y-73182389D01*
X170384328Y-73173580D01*
X170511811Y-73120775D01*
X170626542Y-73044114D01*
X170724114Y-72946542D01*
X170800775Y-72831811D01*
X170853580Y-72704328D01*
X170880500Y-72568993D01*
X170880500Y-72431007D01*
X170880500Y-72431004D01*
X170853581Y-72295677D01*
X170853580Y-72295676D01*
X170853580Y-72295672D01*
X170815000Y-72202531D01*
X170800778Y-72168195D01*
X170800771Y-72168182D01*
X170724114Y-72053458D01*
X170724111Y-72053454D01*
X170626545Y-71955888D01*
X170626541Y-71955885D01*
X170511817Y-71879228D01*
X170511804Y-71879221D01*
X170384332Y-71826421D01*
X170384322Y-71826418D01*
X170248995Y-71799500D01*
X170248993Y-71799500D01*
X170111007Y-71799500D01*
X170111005Y-71799500D01*
X169975677Y-71826418D01*
X169975667Y-71826421D01*
X169848195Y-71879221D01*
X169848182Y-71879228D01*
X169733458Y-71955885D01*
X169733454Y-71955888D01*
X169632681Y-72056662D01*
X169571358Y-72090147D01*
X169501666Y-72085163D01*
X169457319Y-72056662D01*
X169356545Y-71955888D01*
X169356541Y-71955885D01*
X169241817Y-71879228D01*
X169241804Y-71879221D01*
X169114332Y-71826421D01*
X169114322Y-71826418D01*
X168978995Y-71799500D01*
X168978993Y-71799500D01*
X168841007Y-71799500D01*
X168841005Y-71799500D01*
X168705677Y-71826418D01*
X168705667Y-71826421D01*
X168578195Y-71879221D01*
X168578182Y-71879228D01*
X168463458Y-71955885D01*
X168463454Y-71955888D01*
X168362681Y-72056662D01*
X168301358Y-72090147D01*
X168231666Y-72085163D01*
X168187319Y-72056662D01*
X168086545Y-71955888D01*
X168086541Y-71955885D01*
X167971817Y-71879228D01*
X167971804Y-71879221D01*
X167844332Y-71826421D01*
X167844322Y-71826418D01*
X167708995Y-71799500D01*
X167708993Y-71799500D01*
X167571007Y-71799500D01*
X167571005Y-71799500D01*
X167435677Y-71826418D01*
X167435667Y-71826421D01*
X167308195Y-71879221D01*
X167308182Y-71879228D01*
X167193458Y-71955885D01*
X167193454Y-71955888D01*
X167092681Y-72056662D01*
X167031358Y-72090147D01*
X166961666Y-72085163D01*
X166917319Y-72056662D01*
X166816545Y-71955888D01*
X166816541Y-71955885D01*
X166701817Y-71879228D01*
X166701804Y-71879221D01*
X166574332Y-71826421D01*
X166574322Y-71826418D01*
X166438995Y-71799500D01*
X166438993Y-71799500D01*
X166301007Y-71799500D01*
X166301005Y-71799500D01*
X166165677Y-71826418D01*
X166165667Y-71826421D01*
X166038195Y-71879221D01*
X166038182Y-71879228D01*
X165923458Y-71955885D01*
X165923454Y-71955888D01*
X165825888Y-72053454D01*
X165825885Y-72053458D01*
X165749228Y-72168182D01*
X165749221Y-72168195D01*
X165696421Y-72295667D01*
X165696418Y-72295677D01*
X165669500Y-72431004D01*
X165669500Y-72431007D01*
X165669500Y-72568993D01*
X165669500Y-72568995D01*
X165669499Y-72568995D01*
X135574500Y-72568995D01*
X135574500Y-72568993D01*
X135574500Y-72431007D01*
X135574500Y-72431004D01*
X135547581Y-72295677D01*
X135547580Y-72295676D01*
X135547580Y-72295672D01*
X135509000Y-72202531D01*
X135494778Y-72168195D01*
X135494771Y-72168182D01*
X135418114Y-72053458D01*
X135418111Y-72053454D01*
X135320545Y-71955888D01*
X135320541Y-71955885D01*
X135205817Y-71879228D01*
X135205804Y-71879221D01*
X135078332Y-71826421D01*
X135078322Y-71826418D01*
X134942995Y-71799500D01*
X134942993Y-71799500D01*
X134805007Y-71799500D01*
X134805005Y-71799500D01*
X134669677Y-71826418D01*
X134669667Y-71826421D01*
X134542195Y-71879221D01*
X134542182Y-71879228D01*
X134427458Y-71955885D01*
X134427454Y-71955888D01*
X134326681Y-72056662D01*
X134265358Y-72090147D01*
X134195666Y-72085163D01*
X134151319Y-72056662D01*
X134050545Y-71955888D01*
X134050541Y-71955885D01*
X133935817Y-71879228D01*
X133935804Y-71879221D01*
X133808332Y-71826421D01*
X133808322Y-71826418D01*
X133672995Y-71799500D01*
X133672993Y-71799500D01*
X133535007Y-71799500D01*
X133535005Y-71799500D01*
X133399677Y-71826418D01*
X133399667Y-71826421D01*
X133272195Y-71879221D01*
X133272182Y-71879228D01*
X133157458Y-71955885D01*
X133157454Y-71955888D01*
X133056681Y-72056662D01*
X132995358Y-72090147D01*
X132925666Y-72085163D01*
X132881319Y-72056662D01*
X132780545Y-71955888D01*
X132780541Y-71955885D01*
X132665817Y-71879228D01*
X132665804Y-71879221D01*
X132538332Y-71826421D01*
X132538322Y-71826418D01*
X132402995Y-71799500D01*
X132402993Y-71799500D01*
X132265007Y-71799500D01*
X132265005Y-71799500D01*
X132129677Y-71826418D01*
X132129667Y-71826421D01*
X132002195Y-71879221D01*
X132002182Y-71879228D01*
X131887458Y-71955885D01*
X131887454Y-71955888D01*
X131786681Y-72056662D01*
X131725358Y-72090147D01*
X131655666Y-72085163D01*
X131611319Y-72056662D01*
X131510545Y-71955888D01*
X131510541Y-71955885D01*
X131395817Y-71879228D01*
X131395804Y-71879221D01*
X131268332Y-71826421D01*
X131268322Y-71826418D01*
X131132995Y-71799500D01*
X131132993Y-71799500D01*
X130995007Y-71799500D01*
X130995005Y-71799500D01*
X130859677Y-71826418D01*
X130859667Y-71826421D01*
X130732195Y-71879221D01*
X130732182Y-71879228D01*
X130617458Y-71955885D01*
X130617454Y-71955888D01*
X130519888Y-72053454D01*
X130519885Y-72053458D01*
X130443228Y-72168182D01*
X130443221Y-72168195D01*
X130390421Y-72295667D01*
X130390418Y-72295677D01*
X130363500Y-72431004D01*
X130363500Y-72431007D01*
X130363500Y-72568993D01*
X130363500Y-72568995D01*
X130363499Y-72568995D01*
X128040205Y-72568995D01*
X128830298Y-71486786D01*
X128830840Y-71486052D01*
X128974433Y-71293528D01*
X131989022Y-71293528D01*
X131995613Y-71297669D01*
X131995616Y-71297670D01*
X132160460Y-71355351D01*
X132333996Y-71374904D01*
X132334004Y-71374904D01*
X132507538Y-71355351D01*
X132672385Y-71297669D01*
X132672389Y-71297667D01*
X132678975Y-71293528D01*
X167295022Y-71293528D01*
X167301613Y-71297669D01*
X167301616Y-71297670D01*
X167466460Y-71355351D01*
X167639996Y-71374904D01*
X167640004Y-71374904D01*
X167813538Y-71355351D01*
X167978385Y-71297669D01*
X167978389Y-71297667D01*
X167984975Y-71293528D01*
X167984975Y-71293527D01*
X167640001Y-70948553D01*
X167640000Y-70948553D01*
X167295022Y-71293528D01*
X132678975Y-71293528D01*
X132678975Y-71293527D01*
X132334001Y-70948553D01*
X132334000Y-70948553D01*
X131989022Y-71293528D01*
X128974433Y-71293528D01*
X129495431Y-70594996D01*
X131554096Y-70594996D01*
X131554096Y-70595003D01*
X131573648Y-70768538D01*
X131631331Y-70933387D01*
X131635470Y-70939976D01*
X131980447Y-70595000D01*
X131980447Y-70594999D01*
X131940666Y-70555218D01*
X132134000Y-70555218D01*
X132134000Y-70634782D01*
X132164448Y-70708291D01*
X132220709Y-70764552D01*
X132294218Y-70795000D01*
X132373782Y-70795000D01*
X132447291Y-70764552D01*
X132503552Y-70708291D01*
X132534000Y-70634782D01*
X132534000Y-70594999D01*
X132687553Y-70594999D01*
X132687553Y-70595000D01*
X133032527Y-70939975D01*
X133032528Y-70939975D01*
X133036667Y-70933389D01*
X133036669Y-70933385D01*
X133094351Y-70768538D01*
X133113904Y-70595003D01*
X133113904Y-70594996D01*
X166860096Y-70594996D01*
X166860096Y-70595003D01*
X166879648Y-70768538D01*
X166937331Y-70933387D01*
X166941470Y-70939976D01*
X167286447Y-70595000D01*
X167286447Y-70594999D01*
X167246666Y-70555218D01*
X167440000Y-70555218D01*
X167440000Y-70634782D01*
X167470448Y-70708291D01*
X167526709Y-70764552D01*
X167600218Y-70795000D01*
X167679782Y-70795000D01*
X167753291Y-70764552D01*
X167809552Y-70708291D01*
X167840000Y-70634782D01*
X167840000Y-70594999D01*
X167993553Y-70594999D01*
X167993553Y-70595000D01*
X168338527Y-70939975D01*
X168338528Y-70939975D01*
X168342667Y-70933389D01*
X168342669Y-70933385D01*
X168400351Y-70768538D01*
X168419904Y-70595003D01*
X168419904Y-70594996D01*
X168400351Y-70421460D01*
X168342670Y-70256616D01*
X168342669Y-70256613D01*
X168338527Y-70250022D01*
X167993553Y-70594999D01*
X167840000Y-70594999D01*
X167840000Y-70555218D01*
X167809552Y-70481709D01*
X167753291Y-70425448D01*
X167679782Y-70395000D01*
X167600218Y-70395000D01*
X167526709Y-70425448D01*
X167470448Y-70481709D01*
X167440000Y-70555218D01*
X167246666Y-70555218D01*
X166941470Y-70250022D01*
X166937330Y-70256613D01*
X166879648Y-70421460D01*
X166860096Y-70594996D01*
X133113904Y-70594996D01*
X133094351Y-70421460D01*
X133036670Y-70256616D01*
X133036669Y-70256613D01*
X133032527Y-70250022D01*
X132687553Y-70594999D01*
X132534000Y-70594999D01*
X132534000Y-70555218D01*
X132503552Y-70481709D01*
X132447291Y-70425448D01*
X132373782Y-70395000D01*
X132294218Y-70395000D01*
X132220709Y-70425448D01*
X132164448Y-70481709D01*
X132134000Y-70555218D01*
X131940666Y-70555218D01*
X131635470Y-70250022D01*
X131631330Y-70256613D01*
X131573648Y-70421460D01*
X131554096Y-70594996D01*
X129495431Y-70594996D01*
X130016424Y-69896470D01*
X131989022Y-69896470D01*
X132334000Y-70241447D01*
X132334001Y-70241447D01*
X132678976Y-69896470D01*
X167295022Y-69896470D01*
X167640000Y-70241447D01*
X167640001Y-70241447D01*
X167984976Y-69896470D01*
X167978387Y-69892331D01*
X167813538Y-69834648D01*
X167640004Y-69815096D01*
X167639996Y-69815096D01*
X167466460Y-69834648D01*
X167301613Y-69892330D01*
X167295022Y-69896470D01*
X132678976Y-69896470D01*
X132672387Y-69892331D01*
X132507538Y-69834648D01*
X132334004Y-69815096D01*
X132333996Y-69815096D01*
X132160460Y-69834648D01*
X131995613Y-69892330D01*
X131989022Y-69896470D01*
X130016424Y-69896470D01*
X131874682Y-67404996D01*
X150359593Y-67404996D01*
X150359593Y-67405003D01*
X150379157Y-67578648D01*
X150379159Y-67578657D01*
X150436878Y-67743606D01*
X150529853Y-67891576D01*
X150653424Y-68015147D01*
X150801394Y-68108122D01*
X150966343Y-68165841D01*
X150966349Y-68165841D01*
X150966351Y-68165842D01*
X151139996Y-68185407D01*
X151140000Y-68185407D01*
X151140004Y-68185407D01*
X151313648Y-68165842D01*
X151313647Y-68165842D01*
X151313657Y-68165841D01*
X151478606Y-68108122D01*
X151626576Y-68015147D01*
X151750147Y-67891576D01*
X151843122Y-67743606D01*
X151900841Y-67578657D01*
X151920407Y-67405000D01*
X151900841Y-67231343D01*
X151843122Y-67066394D01*
X151750147Y-66918424D01*
X151626576Y-66794853D01*
X151478606Y-66701878D01*
X151478605Y-66701877D01*
X151478604Y-66701877D01*
X151313658Y-66644159D01*
X151313648Y-66644157D01*
X151140004Y-66624593D01*
X151139996Y-66624593D01*
X150966351Y-66644157D01*
X150966341Y-66644159D01*
X150801395Y-66701877D01*
X150653423Y-66794853D01*
X150529853Y-66918423D01*
X150436877Y-67066395D01*
X150379159Y-67231341D01*
X150379157Y-67231351D01*
X150359593Y-67404996D01*
X131874682Y-67404996D01*
X133244057Y-65568995D01*
X147899499Y-65568995D01*
X147926418Y-65704322D01*
X147926421Y-65704332D01*
X147979221Y-65831804D01*
X147979228Y-65831817D01*
X148055885Y-65946541D01*
X148055888Y-65946545D01*
X148153454Y-66044111D01*
X148153458Y-66044114D01*
X148268182Y-66120771D01*
X148268195Y-66120778D01*
X148395667Y-66173578D01*
X148395672Y-66173580D01*
X148395676Y-66173580D01*
X148395677Y-66173581D01*
X148531004Y-66200500D01*
X148531007Y-66200500D01*
X148668995Y-66200500D01*
X148760041Y-66182389D01*
X148804328Y-66173580D01*
X148931811Y-66120775D01*
X149046542Y-66044114D01*
X149046545Y-66044111D01*
X149147319Y-65943338D01*
X149208642Y-65909853D01*
X149278334Y-65914837D01*
X149322681Y-65943338D01*
X149423454Y-66044111D01*
X149423458Y-66044114D01*
X149538182Y-66120771D01*
X149538195Y-66120778D01*
X149665667Y-66173578D01*
X149665672Y-66173580D01*
X149665676Y-66173580D01*
X149665677Y-66173581D01*
X149801004Y-66200500D01*
X149801007Y-66200500D01*
X149938995Y-66200500D01*
X150030041Y-66182389D01*
X150074328Y-66173580D01*
X150201811Y-66120775D01*
X150316542Y-66044114D01*
X150316545Y-66044111D01*
X150417319Y-65943338D01*
X150478642Y-65909853D01*
X150548334Y-65914837D01*
X150592681Y-65943338D01*
X150693454Y-66044111D01*
X150693458Y-66044114D01*
X150808182Y-66120771D01*
X150808195Y-66120778D01*
X150935667Y-66173578D01*
X150935672Y-66173580D01*
X150935676Y-66173580D01*
X150935677Y-66173581D01*
X151071004Y-66200500D01*
X151071007Y-66200500D01*
X151208995Y-66200500D01*
X151300041Y-66182389D01*
X151344328Y-66173580D01*
X151471811Y-66120775D01*
X151586542Y-66044114D01*
X151586545Y-66044111D01*
X151687319Y-65943338D01*
X151748642Y-65909853D01*
X151818334Y-65914837D01*
X151862681Y-65943338D01*
X151963454Y-66044111D01*
X151963458Y-66044114D01*
X152078182Y-66120771D01*
X152078195Y-66120778D01*
X152205667Y-66173578D01*
X152205672Y-66173580D01*
X152205676Y-66173580D01*
X152205677Y-66173581D01*
X152341004Y-66200500D01*
X152341007Y-66200500D01*
X152478995Y-66200500D01*
X152570041Y-66182389D01*
X152614328Y-66173580D01*
X152741811Y-66120775D01*
X152856542Y-66044114D01*
X152954114Y-65946542D01*
X153030775Y-65831811D01*
X153083580Y-65704328D01*
X153110500Y-65568993D01*
X153110500Y-65431007D01*
X153110500Y-65431004D01*
X153083581Y-65295677D01*
X153083580Y-65295676D01*
X153083580Y-65295672D01*
X153045000Y-65202531D01*
X153030778Y-65168195D01*
X153030771Y-65168182D01*
X152954114Y-65053458D01*
X152954111Y-65053454D01*
X152856545Y-64955888D01*
X152856541Y-64955885D01*
X152741817Y-64879228D01*
X152741804Y-64879221D01*
X152614332Y-64826421D01*
X152614322Y-64826418D01*
X152478995Y-64799500D01*
X152478993Y-64799500D01*
X152341007Y-64799500D01*
X152341005Y-64799500D01*
X152205677Y-64826418D01*
X152205667Y-64826421D01*
X152078195Y-64879221D01*
X152078182Y-64879228D01*
X151963458Y-64955885D01*
X151963454Y-64955888D01*
X151862681Y-65056662D01*
X151801358Y-65090147D01*
X151731666Y-65085163D01*
X151687319Y-65056662D01*
X151586545Y-64955888D01*
X151586541Y-64955885D01*
X151471817Y-64879228D01*
X151471804Y-64879221D01*
X151344332Y-64826421D01*
X151344322Y-64826418D01*
X151208995Y-64799500D01*
X151208993Y-64799500D01*
X151071007Y-64799500D01*
X151071005Y-64799500D01*
X150935677Y-64826418D01*
X150935667Y-64826421D01*
X150808195Y-64879221D01*
X150808182Y-64879228D01*
X150693458Y-64955885D01*
X150693454Y-64955888D01*
X150592681Y-65056662D01*
X150531358Y-65090147D01*
X150461666Y-65085163D01*
X150417319Y-65056662D01*
X150316545Y-64955888D01*
X150316541Y-64955885D01*
X150201817Y-64879228D01*
X150201804Y-64879221D01*
X150074332Y-64826421D01*
X150074322Y-64826418D01*
X149938995Y-64799500D01*
X149938993Y-64799500D01*
X149801007Y-64799500D01*
X149801005Y-64799500D01*
X149665677Y-64826418D01*
X149665667Y-64826421D01*
X149538195Y-64879221D01*
X149538182Y-64879228D01*
X149423458Y-64955885D01*
X149423454Y-64955888D01*
X149322681Y-65056662D01*
X149261358Y-65090147D01*
X149191666Y-65085163D01*
X149147319Y-65056662D01*
X149046545Y-64955888D01*
X149046541Y-64955885D01*
X148931817Y-64879228D01*
X148931804Y-64879221D01*
X148804332Y-64826421D01*
X148804322Y-64826418D01*
X148668995Y-64799500D01*
X148668993Y-64799500D01*
X148531007Y-64799500D01*
X148531005Y-64799500D01*
X148395677Y-64826418D01*
X148395667Y-64826421D01*
X148268195Y-64879221D01*
X148268182Y-64879228D01*
X148153458Y-64955885D01*
X148153454Y-64955888D01*
X148055888Y-65053454D01*
X148055885Y-65053458D01*
X147979228Y-65168182D01*
X147979221Y-65168195D01*
X147926421Y-65295667D01*
X147926418Y-65295677D01*
X147899500Y-65431004D01*
X147899500Y-65431007D01*
X147899500Y-65568993D01*
X147899500Y-65568995D01*
X147899499Y-65568995D01*
X133244057Y-65568995D01*
X134195360Y-64293528D01*
X149525022Y-64293528D01*
X149531613Y-64297669D01*
X149531616Y-64297670D01*
X149696460Y-64355351D01*
X149869996Y-64374904D01*
X149870004Y-64374904D01*
X150043538Y-64355351D01*
X150208385Y-64297669D01*
X150208389Y-64297667D01*
X150214975Y-64293528D01*
X150214975Y-64293527D01*
X149870001Y-63948553D01*
X149870000Y-63948553D01*
X149525022Y-64293528D01*
X134195360Y-64293528D01*
X134421081Y-63990890D01*
X134719097Y-63594996D01*
X149090096Y-63594996D01*
X149090096Y-63595003D01*
X149109648Y-63768538D01*
X149167331Y-63933387D01*
X149171470Y-63939976D01*
X149516447Y-63595000D01*
X149516447Y-63594999D01*
X149476666Y-63555218D01*
X149670000Y-63555218D01*
X149670000Y-63634782D01*
X149700448Y-63708291D01*
X149756709Y-63764552D01*
X149830218Y-63795000D01*
X149909782Y-63795000D01*
X149983291Y-63764552D01*
X150039552Y-63708291D01*
X150070000Y-63634782D01*
X150070000Y-63594999D01*
X150223553Y-63594999D01*
X150223553Y-63595001D01*
X150568527Y-63939975D01*
X150568528Y-63939975D01*
X150572667Y-63933389D01*
X150572669Y-63933385D01*
X150630351Y-63768538D01*
X150649904Y-63595003D01*
X150649904Y-63594996D01*
X150630351Y-63421460D01*
X150572670Y-63256616D01*
X150572669Y-63256613D01*
X150568527Y-63250022D01*
X150223553Y-63594999D01*
X150070000Y-63594999D01*
X150070000Y-63555218D01*
X150039552Y-63481709D01*
X149983291Y-63425448D01*
X149909782Y-63395000D01*
X149830218Y-63395000D01*
X149756709Y-63425448D01*
X149700448Y-63481709D01*
X149670000Y-63555218D01*
X149476666Y-63555218D01*
X149171470Y-63250022D01*
X149167330Y-63256613D01*
X149109648Y-63421460D01*
X149090096Y-63594996D01*
X134719097Y-63594996D01*
X135244925Y-62896470D01*
X149525022Y-62896470D01*
X149870000Y-63241447D01*
X149870001Y-63241447D01*
X150214976Y-62896470D01*
X150208387Y-62892331D01*
X150043538Y-62834648D01*
X149870004Y-62815096D01*
X149869996Y-62815096D01*
X149696460Y-62834648D01*
X149531613Y-62892330D01*
X149525022Y-62896470D01*
X135244925Y-62896470D01*
X143299144Y-52196996D01*
X150349593Y-52196996D01*
X150349593Y-52197003D01*
X150369157Y-52370648D01*
X150369159Y-52370657D01*
X150426878Y-52535606D01*
X150519853Y-52683576D01*
X150643424Y-52807147D01*
X150791394Y-52900122D01*
X150956343Y-52957841D01*
X150956349Y-52957841D01*
X150956351Y-52957842D01*
X151129996Y-52977407D01*
X151130000Y-52977407D01*
X151130004Y-52977407D01*
X151303648Y-52957842D01*
X151303647Y-52957842D01*
X151303657Y-52957841D01*
X151468606Y-52900122D01*
X151616576Y-52807147D01*
X151740147Y-52683576D01*
X151833122Y-52535606D01*
X151890841Y-52370657D01*
X151910407Y-52197000D01*
X151890841Y-52023343D01*
X151833122Y-51858394D01*
X151740147Y-51710424D01*
X151616576Y-51586853D01*
X151468606Y-51493878D01*
X151468605Y-51493877D01*
X151468604Y-51493877D01*
X151303658Y-51436159D01*
X151303648Y-51436157D01*
X151130004Y-51416593D01*
X151129996Y-51416593D01*
X150956351Y-51436157D01*
X150956341Y-51436159D01*
X150791395Y-51493877D01*
X150643423Y-51586853D01*
X150519853Y-51710423D01*
X150426877Y-51858395D01*
X150369159Y-52023341D01*
X150369157Y-52023351D01*
X150349593Y-52196996D01*
X143299144Y-52196996D01*
X144681226Y-50360995D01*
X147889499Y-50360995D01*
X147916418Y-50496322D01*
X147916421Y-50496332D01*
X147969221Y-50623804D01*
X147969228Y-50623817D01*
X148045885Y-50738541D01*
X148045888Y-50738545D01*
X148143454Y-50836111D01*
X148143458Y-50836114D01*
X148258182Y-50912771D01*
X148258195Y-50912778D01*
X148385667Y-50965578D01*
X148385672Y-50965580D01*
X148385676Y-50965580D01*
X148385677Y-50965581D01*
X148521004Y-50992500D01*
X148521007Y-50992500D01*
X148658995Y-50992500D01*
X148750041Y-50974389D01*
X148794328Y-50965580D01*
X148921811Y-50912775D01*
X149036542Y-50836114D01*
X149036545Y-50836111D01*
X149137319Y-50735338D01*
X149198642Y-50701853D01*
X149268334Y-50706837D01*
X149312681Y-50735338D01*
X149413454Y-50836111D01*
X149413458Y-50836114D01*
X149528182Y-50912771D01*
X149528195Y-50912778D01*
X149655667Y-50965578D01*
X149655672Y-50965580D01*
X149655676Y-50965580D01*
X149655677Y-50965581D01*
X149791004Y-50992500D01*
X149791007Y-50992500D01*
X149928995Y-50992500D01*
X150020041Y-50974389D01*
X150064328Y-50965580D01*
X150191811Y-50912775D01*
X150306542Y-50836114D01*
X150306545Y-50836111D01*
X150407319Y-50735338D01*
X150468642Y-50701853D01*
X150538334Y-50706837D01*
X150582681Y-50735338D01*
X150683454Y-50836111D01*
X150683458Y-50836114D01*
X150798182Y-50912771D01*
X150798195Y-50912778D01*
X150925667Y-50965578D01*
X150925672Y-50965580D01*
X150925676Y-50965580D01*
X150925677Y-50965581D01*
X151061004Y-50992500D01*
X151061007Y-50992500D01*
X151198995Y-50992500D01*
X151290041Y-50974389D01*
X151334328Y-50965580D01*
X151461811Y-50912775D01*
X151576542Y-50836114D01*
X151576545Y-50836111D01*
X151677319Y-50735338D01*
X151738642Y-50701853D01*
X151808334Y-50706837D01*
X151852681Y-50735338D01*
X151953454Y-50836111D01*
X151953458Y-50836114D01*
X152068182Y-50912771D01*
X152068195Y-50912778D01*
X152195667Y-50965578D01*
X152195672Y-50965580D01*
X152195676Y-50965580D01*
X152195677Y-50965581D01*
X152331004Y-50992500D01*
X152331007Y-50992500D01*
X152468995Y-50992500D01*
X152560041Y-50974389D01*
X152604328Y-50965580D01*
X152731811Y-50912775D01*
X152846542Y-50836114D01*
X152944114Y-50738542D01*
X153020775Y-50623811D01*
X153073580Y-50496328D01*
X153100500Y-50360993D01*
X153100500Y-50223007D01*
X153100500Y-50223004D01*
X153073581Y-50087677D01*
X153073580Y-50087676D01*
X153073580Y-50087672D01*
X153035000Y-49994531D01*
X153020778Y-49960195D01*
X153020771Y-49960182D01*
X152944114Y-49845458D01*
X152944111Y-49845454D01*
X152846545Y-49747888D01*
X152846541Y-49747885D01*
X152731817Y-49671228D01*
X152731804Y-49671221D01*
X152604332Y-49618421D01*
X152604322Y-49618418D01*
X152468995Y-49591500D01*
X152468993Y-49591500D01*
X152331007Y-49591500D01*
X152331005Y-49591500D01*
X152195677Y-49618418D01*
X152195667Y-49618421D01*
X152068195Y-49671221D01*
X152068182Y-49671228D01*
X151953458Y-49747885D01*
X151953454Y-49747888D01*
X151852681Y-49848662D01*
X151791358Y-49882147D01*
X151721666Y-49877163D01*
X151677319Y-49848662D01*
X151576545Y-49747888D01*
X151576541Y-49747885D01*
X151461817Y-49671228D01*
X151461804Y-49671221D01*
X151334332Y-49618421D01*
X151334322Y-49618418D01*
X151198995Y-49591500D01*
X151198993Y-49591500D01*
X151061007Y-49591500D01*
X151061005Y-49591500D01*
X150925677Y-49618418D01*
X150925667Y-49618421D01*
X150798195Y-49671221D01*
X150798182Y-49671228D01*
X150683458Y-49747885D01*
X150683454Y-49747888D01*
X150582681Y-49848662D01*
X150521358Y-49882147D01*
X150451666Y-49877163D01*
X150407319Y-49848662D01*
X150306545Y-49747888D01*
X150306541Y-49747885D01*
X150191817Y-49671228D01*
X150191804Y-49671221D01*
X150064332Y-49618421D01*
X150064322Y-49618418D01*
X149928995Y-49591500D01*
X149928993Y-49591500D01*
X149791007Y-49591500D01*
X149791005Y-49591500D01*
X149655677Y-49618418D01*
X149655667Y-49618421D01*
X149528195Y-49671221D01*
X149528182Y-49671228D01*
X149413458Y-49747885D01*
X149413454Y-49747888D01*
X149312681Y-49848662D01*
X149251358Y-49882147D01*
X149181666Y-49877163D01*
X149137319Y-49848662D01*
X149036545Y-49747888D01*
X149036541Y-49747885D01*
X148921817Y-49671228D01*
X148921804Y-49671221D01*
X148794332Y-49618421D01*
X148794322Y-49618418D01*
X148658995Y-49591500D01*
X148658993Y-49591500D01*
X148521007Y-49591500D01*
X148521005Y-49591500D01*
X148385677Y-49618418D01*
X148385667Y-49618421D01*
X148258195Y-49671221D01*
X148258182Y-49671228D01*
X148143458Y-49747885D01*
X148143454Y-49747888D01*
X148045888Y-49845454D01*
X148045885Y-49845458D01*
X147969228Y-49960182D01*
X147969221Y-49960195D01*
X147916421Y-50087667D01*
X147916418Y-50087677D01*
X147889500Y-50223004D01*
X147889500Y-50223007D01*
X147889500Y-50360993D01*
X147889500Y-50360995D01*
X147889499Y-50360995D01*
X144681226Y-50360995D01*
X145641357Y-49085528D01*
X149515022Y-49085528D01*
X149521613Y-49089669D01*
X149521616Y-49089670D01*
X149686460Y-49147351D01*
X149859996Y-49166904D01*
X149860004Y-49166904D01*
X150033538Y-49147351D01*
X150198385Y-49089669D01*
X150198389Y-49089667D01*
X150204975Y-49085528D01*
X150204975Y-49085527D01*
X149860001Y-48740553D01*
X149860000Y-48740553D01*
X149515022Y-49085528D01*
X145641357Y-49085528D01*
X146167189Y-48386996D01*
X149080096Y-48386996D01*
X149080096Y-48387003D01*
X149099648Y-48560538D01*
X149157331Y-48725387D01*
X149161470Y-48731976D01*
X149506447Y-48387000D01*
X149506447Y-48386999D01*
X149466666Y-48347218D01*
X149660000Y-48347218D01*
X149660000Y-48426782D01*
X149690448Y-48500291D01*
X149746709Y-48556552D01*
X149820218Y-48587000D01*
X149899782Y-48587000D01*
X149973291Y-48556552D01*
X150029552Y-48500291D01*
X150060000Y-48426782D01*
X150060000Y-48386999D01*
X150213553Y-48386999D01*
X150213553Y-48387001D01*
X150558527Y-48731975D01*
X150558528Y-48731975D01*
X150562667Y-48725389D01*
X150562669Y-48725385D01*
X150620351Y-48560538D01*
X150639904Y-48387003D01*
X150639904Y-48386996D01*
X150620351Y-48213460D01*
X150562670Y-48048616D01*
X150562669Y-48048613D01*
X150558527Y-48042022D01*
X150213553Y-48386999D01*
X150060000Y-48386999D01*
X150060000Y-48347218D01*
X150029552Y-48273709D01*
X149973291Y-48217448D01*
X149899782Y-48187000D01*
X149820218Y-48187000D01*
X149746709Y-48217448D01*
X149690448Y-48273709D01*
X149660000Y-48347218D01*
X149466666Y-48347218D01*
X149161470Y-48042022D01*
X149157330Y-48048613D01*
X149099648Y-48213460D01*
X149080096Y-48386996D01*
X146167189Y-48386996D01*
X146693017Y-47688470D01*
X149515022Y-47688470D01*
X149860000Y-48033447D01*
X149860001Y-48033447D01*
X150204976Y-47688470D01*
X150198387Y-47684331D01*
X150033538Y-47626648D01*
X149860004Y-47607096D01*
X149859996Y-47607096D01*
X149686460Y-47626648D01*
X149521613Y-47684330D01*
X149515022Y-47688470D01*
X146693017Y-47688470D01*
X147928577Y-46047114D01*
X147928957Y-46046613D01*
X148340660Y-45508456D01*
X148341318Y-45507606D01*
X148711761Y-45034160D01*
X148712997Y-45032610D01*
X148783726Y-44945226D01*
X149044802Y-44622671D01*
X149046648Y-44620445D01*
X149342469Y-44272483D01*
X149345234Y-44269342D01*
X149606784Y-43982448D01*
X149610967Y-43978081D01*
X149839015Y-43751384D01*
X149845281Y-43745572D01*
X150045568Y-43572308D01*
X150052239Y-43566930D01*
X150130434Y-43508252D01*
X150136152Y-43504209D01*
X150210032Y-43455048D01*
X150216958Y-43450761D01*
X150280719Y-43414158D01*
X150289052Y-43409788D01*
X150314471Y-43397665D01*
X150342439Y-43384327D01*
X150352281Y-43380146D01*
X150395522Y-43363942D01*
X150406828Y-43360313D01*
X150441030Y-43351123D01*
X150453603Y-43348434D01*
X150480907Y-43344064D01*
X150494277Y-43342663D01*
X150517927Y-43341475D01*
X150531461Y-43341535D01*
G37*
G04 #@! TD.AperFunction*
M02*
