M48
; DRILL file {KiCad 8.0.6} date 2024-11-27T09:37:53+0100
; FORMAT={-:-/ absolute / metric / decimal}
; #@! TF.CreationDate,2024-11-27T09:37:53+01:00
; #@! TF.GenerationSoftware,Kicad,Pcbnew,8.0.6
; #@! TF.FileFunction,NonPlated,1,2,NPTH
FMAT,2
METRIC
; #@! TA.AperFunction,NonPlated,NPTH,ComponentDrill
T1C0.900
%
G90
G05
T1
X116.078Y-125.979
X117.348Y-125.979
X118.618Y-125.979
X119.888Y-125.979
X123.952Y-98.5
X125.222Y-98.5
X126.492Y-98.5
X127.762Y-98.5
X131.064Y-72.5
X132.334Y-72.5
X133.604Y-72.5
X134.874Y-72.5
X136.98Y-84.0
X138.25Y-84.0
X139.52Y-84.0
X140.79Y-84.0
X148.59Y-50.292
X148.59Y-114.935
X148.6Y-65.5
X149.86Y-50.292
X149.86Y-114.935
X149.87Y-65.5
X151.13Y-50.292
X151.13Y-114.935
X151.14Y-65.5
X152.4Y-50.292
X152.4Y-114.935
X152.41Y-65.5
X160.1Y-84.0
X161.37Y-84.0
X162.64Y-84.0
X163.91Y-84.0
X166.37Y-72.5
X167.64Y-72.5
X168.91Y-72.5
X170.18Y-72.5
X173.228Y-98.5
X174.498Y-98.5
X175.768Y-98.5
X177.038Y-98.5
X181.356Y-125.979
X182.626Y-125.979
X183.896Y-125.979
X185.166Y-125.979
M30
