G04 #@! TF.GenerationSoftware,KiCad,Pcbnew,8.0.6*
G04 #@! TF.CreationDate,2024-12-04T18:46:27+01:00*
G04 #@! TF.ProjectId,christmas_soldering_kit_2024,63687269-7374-46d6-9173-5f736f6c6465,rev?*
G04 #@! TF.SameCoordinates,Original*
G04 #@! TF.FileFunction,Copper,L2,Bot*
G04 #@! TF.FilePolarity,Positive*
%FSLAX46Y46*%
G04 Gerber Fmt 4.6, Leading zero omitted, Abs format (unit mm)*
G04 Created by KiCad (PCBNEW 8.0.6) date 2024-12-04 18:46:27*
%MOMM*%
%LPD*%
G01*
G04 APERTURE LIST*
G04 Aperture macros list*
%AMRoundRect*
0 Rectangle with rounded corners*
0 $1 Rounding radius*
0 $2 $3 $4 $5 $6 $7 $8 $9 X,Y pos of 4 corners*
0 Add a 4 corners polygon primitive as box body*
4,1,4,$2,$3,$4,$5,$6,$7,$8,$9,$2,$3,0*
0 Add four circle primitives for the rounded corners*
1,1,$1+$1,$2,$3*
1,1,$1+$1,$4,$5*
1,1,$1+$1,$6,$7*
1,1,$1+$1,$8,$9*
0 Add four rect primitives between the rounded corners*
20,1,$1+$1,$2,$3,$4,$5,0*
20,1,$1+$1,$4,$5,$6,$7,0*
20,1,$1+$1,$6,$7,$8,$9,0*
20,1,$1+$1,$8,$9,$2,$3,0*%
G04 Aperture macros list end*
G04 #@! TA.AperFunction,ComponentPad*
%ADD10C,0.900000*%
G04 #@! TD*
G04 #@! TA.AperFunction,SMDPad,CuDef*
%ADD11RoundRect,0.181818X-0.068182X-0.568182X0.068182X-0.568182X0.068182X0.568182X-0.068182X0.568182X0*%
G04 #@! TD*
G04 #@! TA.AperFunction,SMDPad,CuDef*
%ADD12R,1.400000X2.200000*%
G04 #@! TD*
G04 #@! TA.AperFunction,ComponentPad*
%ADD13C,0.550000*%
G04 #@! TD*
G04 #@! TA.AperFunction,SMDPad,CuDef*
%ADD14O,1.400000X2.200000*%
G04 #@! TD*
G04 #@! TA.AperFunction,SMDPad,CuDef*
%ADD15RoundRect,0.400000X-0.150000X-0.700000X0.150000X-0.700000X0.150000X0.700000X-0.150000X0.700000X0*%
G04 #@! TD*
G04 #@! TA.AperFunction,ComponentPad*
%ADD16R,1.700000X1.700000*%
G04 #@! TD*
G04 #@! TA.AperFunction,ComponentPad*
%ADD17O,1.700000X1.700000*%
G04 #@! TD*
G04 #@! TA.AperFunction,ComponentPad*
%ADD18C,1.905000*%
G04 #@! TD*
G04 #@! TA.AperFunction,ComponentPad*
%ADD19C,2.000000*%
G04 #@! TD*
G04 #@! TA.AperFunction,Conductor*
%ADD20C,0.500000*%
G04 #@! TD*
G04 #@! TA.AperFunction,Conductor*
%ADD21C,2.000000*%
G04 #@! TD*
G04 APERTURE END LIST*
D10*
X160100000Y-84000000D03*
D11*
X160100000Y-84762000D03*
D12*
X160100000Y-85900000D03*
D13*
X161370000Y-82095000D03*
D14*
X161370000Y-82100000D03*
D15*
X161370000Y-83619000D03*
D10*
X161370000Y-84000000D03*
D11*
X161370000Y-84762000D03*
X162640000Y-83238000D03*
D10*
X162640000Y-84000000D03*
D15*
X162640000Y-84381000D03*
D14*
X162640000Y-85900000D03*
D13*
X162640000Y-85905000D03*
D14*
X163910000Y-82100000D03*
D11*
X163910000Y-83238000D03*
D10*
X163910000Y-84000000D03*
X173228000Y-98500000D03*
D11*
X173228000Y-99262000D03*
D12*
X173228000Y-100400000D03*
D13*
X174498000Y-96595000D03*
D14*
X174498000Y-96600000D03*
D15*
X174498000Y-98119000D03*
D10*
X174498000Y-98500000D03*
D11*
X174498000Y-99262000D03*
X175768000Y-97738000D03*
D10*
X175768000Y-98500000D03*
D15*
X175768000Y-98881000D03*
D14*
X175768000Y-100400000D03*
D13*
X175768000Y-100405000D03*
D14*
X177038000Y-96600000D03*
D11*
X177038000Y-97738000D03*
D10*
X177038000Y-98500000D03*
X136980000Y-84000000D03*
D11*
X136980000Y-84762000D03*
D12*
X136980000Y-85900000D03*
D13*
X138250000Y-82095000D03*
D14*
X138250000Y-82100000D03*
D15*
X138250000Y-83619000D03*
D10*
X138250000Y-84000000D03*
D11*
X138250000Y-84762000D03*
X139520000Y-83238000D03*
D10*
X139520000Y-84000000D03*
D15*
X139520000Y-84381000D03*
D14*
X139520000Y-85900000D03*
D13*
X139520000Y-85905000D03*
D14*
X140790000Y-82100000D03*
D11*
X140790000Y-83238000D03*
D10*
X140790000Y-84000000D03*
X152400000Y-50762000D03*
D11*
X152400000Y-50000000D03*
D14*
X152400000Y-48862000D03*
D13*
X151130000Y-52667000D03*
D14*
X151130000Y-52662000D03*
D15*
X151130000Y-51143000D03*
D10*
X151130000Y-50762000D03*
D11*
X151130000Y-50000000D03*
X149860000Y-51524000D03*
D10*
X149860000Y-50762000D03*
D15*
X149860000Y-50381000D03*
D14*
X149860000Y-48862000D03*
D13*
X149860000Y-48857000D03*
D12*
X148590000Y-52662000D03*
D11*
X148590000Y-51524000D03*
D10*
X148590000Y-50762000D03*
X123952000Y-98500000D03*
D11*
X123952000Y-99262000D03*
D12*
X123952000Y-100400000D03*
D13*
X125222000Y-96595000D03*
D14*
X125222000Y-96600000D03*
D15*
X125222000Y-98119000D03*
D10*
X125222000Y-98500000D03*
D11*
X125222000Y-99262000D03*
X126492000Y-97738000D03*
D10*
X126492000Y-98500000D03*
D15*
X126492000Y-98881000D03*
D14*
X126492000Y-100400000D03*
D13*
X126492000Y-100405000D03*
D14*
X127762000Y-96600000D03*
D11*
X127762000Y-97738000D03*
D10*
X127762000Y-98500000D03*
X116078000Y-125979000D03*
D11*
X116078000Y-126741000D03*
D12*
X116078000Y-127879000D03*
D13*
X117348000Y-124074000D03*
D14*
X117348000Y-124079000D03*
D15*
X117348000Y-125598000D03*
D10*
X117348000Y-125979000D03*
D11*
X117348000Y-126741000D03*
X118618000Y-125217000D03*
D10*
X118618000Y-125979000D03*
D15*
X118618000Y-126360000D03*
D14*
X118618000Y-127879000D03*
D13*
X118618000Y-127884000D03*
D14*
X119888000Y-124079000D03*
D11*
X119888000Y-125217000D03*
D10*
X119888000Y-125979000D03*
X166370000Y-72390000D03*
D11*
X166370000Y-73152000D03*
D12*
X166370000Y-74290000D03*
D13*
X167640000Y-70485000D03*
D14*
X167640000Y-70490000D03*
D15*
X167640000Y-72009000D03*
D10*
X167640000Y-72390000D03*
D11*
X167640000Y-73152000D03*
X168910000Y-71628000D03*
D10*
X168910000Y-72390000D03*
D15*
X168910000Y-72771000D03*
D14*
X168910000Y-74290000D03*
D13*
X168910000Y-74295000D03*
D14*
X170180000Y-70490000D03*
D11*
X170180000Y-71628000D03*
D10*
X170180000Y-72390000D03*
X181356000Y-125979000D03*
D11*
X181356000Y-126741000D03*
D12*
X181356000Y-127879000D03*
D13*
X182626000Y-124074000D03*
D14*
X182626000Y-124079000D03*
D15*
X182626000Y-125598000D03*
D10*
X182626000Y-125979000D03*
D11*
X182626000Y-126741000D03*
X183896000Y-125217000D03*
D10*
X183896000Y-125979000D03*
D15*
X183896000Y-126360000D03*
D14*
X183896000Y-127879000D03*
D13*
X183896000Y-127884000D03*
D14*
X185166000Y-124079000D03*
D11*
X185166000Y-125217000D03*
D10*
X185166000Y-125979000D03*
X131064000Y-72390000D03*
D11*
X131064000Y-73152000D03*
D12*
X131064000Y-74290000D03*
D13*
X132334000Y-70485000D03*
D14*
X132334000Y-70490000D03*
D15*
X132334000Y-72009000D03*
D10*
X132334000Y-72390000D03*
D11*
X132334000Y-73152000D03*
X133604000Y-71628000D03*
D10*
X133604000Y-72390000D03*
D15*
X133604000Y-72771000D03*
D14*
X133604000Y-74290000D03*
D13*
X133604000Y-74295000D03*
D14*
X134874000Y-70490000D03*
D11*
X134874000Y-71628000D03*
D10*
X134874000Y-72390000D03*
X148600000Y-65500000D03*
D11*
X148600000Y-66262000D03*
D12*
X148600000Y-67400000D03*
D13*
X149870000Y-63595000D03*
D14*
X149870000Y-63600000D03*
D15*
X149870000Y-65119000D03*
D10*
X149870000Y-65500000D03*
D11*
X149870000Y-66262000D03*
X151140000Y-64738000D03*
D10*
X151140000Y-65500000D03*
D15*
X151140000Y-65881000D03*
D14*
X151140000Y-67400000D03*
D13*
X151140000Y-67405000D03*
D14*
X152410000Y-63600000D03*
D11*
X152410000Y-64738000D03*
D10*
X152410000Y-65500000D03*
X148590000Y-114935000D03*
D11*
X148590000Y-115697000D03*
D12*
X148590000Y-116835000D03*
D13*
X149860000Y-113030000D03*
D14*
X149860000Y-113035000D03*
D15*
X149860000Y-114554000D03*
D10*
X149860000Y-114935000D03*
D11*
X149860000Y-115697000D03*
X151130000Y-114173000D03*
D10*
X151130000Y-114935000D03*
D15*
X151130000Y-115316000D03*
D14*
X151130000Y-116835000D03*
D13*
X151130000Y-116840000D03*
D14*
X152400000Y-113035000D03*
D11*
X152400000Y-114173000D03*
D10*
X152400000Y-114935000D03*
D16*
X160640000Y-120120000D03*
D17*
X160640000Y-122660000D03*
X160640000Y-125200000D03*
X160640000Y-127740000D03*
X160640000Y-130280000D03*
X160640000Y-132820000D03*
X160640000Y-135360000D03*
X160640000Y-137900000D03*
D18*
X142860000Y-137900000D03*
X142860000Y-135360000D03*
X142860000Y-132820000D03*
X142860000Y-130280000D03*
X142860000Y-125200000D03*
X142860000Y-127740000D03*
X158100000Y-120120000D03*
X142860000Y-120120000D03*
X158100000Y-122660000D03*
X158100000Y-125200000D03*
X158100000Y-127740000D03*
X158100000Y-130280000D03*
X158100000Y-132820000D03*
X158100000Y-135360000D03*
X158100000Y-137900000D03*
X142860000Y-122660000D03*
D16*
X140320000Y-120120000D03*
D17*
X140320000Y-122660000D03*
X140320000Y-125200000D03*
X140320000Y-127740000D03*
X140320000Y-130280000D03*
X140320000Y-132820000D03*
X140320000Y-135360000D03*
X140320000Y-137900000D03*
D19*
X147245000Y-99913000D03*
X153745000Y-99913000D03*
X147245000Y-95413000D03*
X153745000Y-95413000D03*
D20*
X137668000Y-80655654D02*
X137668000Y-73394000D01*
X137668000Y-73394000D02*
X134874000Y-70600000D01*
X136030000Y-84950000D02*
X136030000Y-82293654D01*
X136980000Y-85900000D02*
X136030000Y-84950000D01*
X136030000Y-82293654D02*
X137668000Y-80655654D01*
X152527000Y-71247000D02*
X153416000Y-70358000D01*
X153416000Y-64606000D02*
X152410000Y-63600000D01*
X139192000Y-71247000D02*
X152527000Y-71247000D01*
X136271000Y-68326000D02*
X139192000Y-71247000D01*
X132334000Y-68326000D02*
X136271000Y-68326000D01*
X130175000Y-70485000D02*
X132334000Y-68326000D01*
X153416000Y-70358000D02*
X153416000Y-64606000D01*
X130175000Y-73511000D02*
X130175000Y-70485000D01*
X131064000Y-74400000D02*
X130175000Y-73511000D01*
X168414000Y-68834000D02*
X170180000Y-70600000D01*
X164762000Y-68834000D02*
X168414000Y-68834000D01*
X148590000Y-52662000D02*
X164762000Y-68834000D01*
X150850000Y-47312000D02*
X152400000Y-48862000D01*
X148903000Y-47312000D02*
X150850000Y-47312000D01*
X146939000Y-49276000D02*
X148903000Y-47312000D01*
X155575000Y-125225000D02*
X142920000Y-137880000D01*
X142920000Y-137880000D02*
X142880000Y-137880000D01*
X153745000Y-99913000D02*
X155575000Y-101743000D01*
X155575000Y-101743000D02*
X155575000Y-125225000D01*
X153543000Y-114178000D02*
X152400000Y-113035000D01*
X153543000Y-122137000D02*
X153543000Y-114178000D01*
X142860000Y-132820000D02*
X153543000Y-122137000D01*
D21*
X140320000Y-122660000D02*
X142860000Y-122660000D01*
D20*
X127653000Y-116835000D02*
X119888000Y-124600000D01*
X148590000Y-116835000D02*
X127653000Y-116835000D01*
X115128000Y-126929000D02*
X115128000Y-123886000D01*
X131191000Y-107823000D02*
X131191000Y-100029000D01*
X131191000Y-100029000D02*
X127762000Y-96600000D01*
X115128000Y-123886000D02*
X131191000Y-107823000D01*
X116078000Y-127879000D02*
X115128000Y-126929000D01*
X142621000Y-86868000D02*
X142621000Y-83931000D01*
X123002000Y-96687327D02*
X129138327Y-90551000D01*
X129138327Y-90551000D02*
X138938000Y-90551000D01*
X142621000Y-83931000D02*
X140790000Y-82100000D01*
X123002000Y-99450000D02*
X123002000Y-96687327D01*
X123952000Y-100400000D02*
X123002000Y-99450000D01*
X138938000Y-90551000D02*
X142621000Y-86868000D01*
X146939000Y-65739000D02*
X146939000Y-49276000D01*
X148600000Y-67400000D02*
X146939000Y-65739000D01*
X166370000Y-74400000D02*
X165122000Y-74400000D01*
X163910000Y-75612000D02*
X163910000Y-82100000D01*
X165122000Y-74400000D02*
X163910000Y-75612000D01*
X166497000Y-94107000D02*
X175260000Y-94107000D01*
X177038000Y-95885000D02*
X177038000Y-96600000D01*
X160100000Y-87710000D02*
X166497000Y-94107000D01*
X160100000Y-85900000D02*
X160100000Y-87710000D01*
X175260000Y-94107000D02*
X177038000Y-95885000D01*
X142774888Y-135360000D02*
X140234888Y-135360000D01*
X147245000Y-99913000D02*
X153745000Y-99913000D01*
X140234888Y-137900000D02*
X142774888Y-137900000D01*
D21*
X140320000Y-120120000D02*
X142860000Y-120120000D01*
D20*
X171507000Y-100400000D02*
X169926000Y-101981000D01*
X169926000Y-101981000D02*
X169926000Y-108331000D01*
X169926000Y-108331000D02*
X185166000Y-123571000D01*
X173228000Y-100400000D02*
X171507000Y-100400000D01*
X185166000Y-123571000D02*
X185166000Y-124079000D01*
X140320000Y-132820000D02*
X142860000Y-132820000D01*
X142774888Y-127740000D02*
X140234888Y-127740000D01*
X142774888Y-125200000D02*
X140234888Y-125200000D01*
X142774888Y-130280000D02*
X140234888Y-130280000D01*
X158014888Y-135360000D02*
X160554888Y-135360000D01*
X158014888Y-122660000D02*
X160554888Y-122660000D01*
X158014888Y-127740000D02*
X160554888Y-127740000D01*
X158014888Y-120120000D02*
X160554888Y-120120000D01*
X158014888Y-130280000D02*
X160554888Y-130280000D01*
X158014888Y-137900000D02*
X160554888Y-137900000D01*
X158014888Y-132820000D02*
X160554888Y-132820000D01*
X158014888Y-125200000D02*
X160554888Y-125200000D01*
G04 #@! TA.AperFunction,Conductor*
G36*
X147694703Y-53992120D02*
G01*
X147701181Y-53998152D01*
X147717235Y-54014206D01*
X147820009Y-54059585D01*
X147845135Y-54062500D01*
X149160612Y-54062499D01*
X149227651Y-54082184D01*
X149248293Y-54098818D01*
X164423985Y-69274510D01*
X164490412Y-69312861D01*
X164549515Y-69346984D01*
X164689525Y-69384500D01*
X164689526Y-69384500D01*
X164834474Y-69384500D01*
X166676121Y-69384500D01*
X166743160Y-69404185D01*
X166788915Y-69456989D01*
X166798859Y-69526147D01*
X166779223Y-69577390D01*
X166767923Y-69594301D01*
X166753368Y-69616085D01*
X166753364Y-69616092D01*
X166677950Y-69798160D01*
X166677947Y-69798170D01*
X166639500Y-69991456D01*
X166639500Y-69991459D01*
X166639500Y-70988541D01*
X166639500Y-70988543D01*
X166639499Y-70988543D01*
X166677947Y-71181829D01*
X166677950Y-71181839D01*
X166753364Y-71363907D01*
X166753371Y-71363920D01*
X166862860Y-71527781D01*
X166862863Y-71527785D01*
X166903180Y-71568101D01*
X166936666Y-71629424D01*
X166939500Y-71655783D01*
X166939500Y-71696055D01*
X166919815Y-71763094D01*
X166867011Y-71808849D01*
X166797853Y-71818793D01*
X166746610Y-71799158D01*
X166701815Y-71769227D01*
X166701804Y-71769221D01*
X166574332Y-71716421D01*
X166574322Y-71716418D01*
X166438995Y-71689500D01*
X166438993Y-71689500D01*
X166301007Y-71689500D01*
X166301005Y-71689500D01*
X166165677Y-71716418D01*
X166165667Y-71716421D01*
X166038195Y-71769221D01*
X166038182Y-71769228D01*
X165923458Y-71845885D01*
X165923454Y-71845888D01*
X165825888Y-71943454D01*
X165825885Y-71943458D01*
X165749228Y-72058182D01*
X165749221Y-72058195D01*
X165696421Y-72185667D01*
X165696418Y-72185677D01*
X165669500Y-72321004D01*
X165669500Y-72321007D01*
X165669500Y-72458993D01*
X165669500Y-72458995D01*
X165669499Y-72458995D01*
X165696418Y-72594322D01*
X165696420Y-72594328D01*
X165747666Y-72718047D01*
X165755135Y-72787517D01*
X165723860Y-72849996D01*
X165663771Y-72885648D01*
X165633116Y-72889500D01*
X165625148Y-72889500D01*
X165625118Y-72889502D01*
X165600011Y-72892414D01*
X165600008Y-72892415D01*
X165497235Y-72937793D01*
X165417794Y-73017234D01*
X165372415Y-73120006D01*
X165372415Y-73120008D01*
X165369500Y-73145131D01*
X165369500Y-73725500D01*
X165349815Y-73792539D01*
X165297011Y-73838294D01*
X165245500Y-73849500D01*
X165049525Y-73849500D01*
X164931973Y-73880998D01*
X164931972Y-73880997D01*
X164909517Y-73887015D01*
X164909514Y-73887016D01*
X164783986Y-73959489D01*
X164783983Y-73959491D01*
X163469491Y-75273983D01*
X163469489Y-75273986D01*
X163458449Y-75293108D01*
X163399682Y-75394897D01*
X163397016Y-75399515D01*
X163359500Y-75539525D01*
X163359500Y-75539527D01*
X163359500Y-80798261D01*
X163339815Y-80865300D01*
X163304391Y-80901363D01*
X163272218Y-80922860D01*
X163272214Y-80922863D01*
X163132863Y-81062214D01*
X163132860Y-81062218D01*
X163023371Y-81226079D01*
X163023364Y-81226092D01*
X162947950Y-81408160D01*
X162947947Y-81408170D01*
X162909500Y-81601456D01*
X162909500Y-81935259D01*
X162890000Y-82001667D01*
X162890000Y-83624722D01*
X162813694Y-83580667D01*
X162699244Y-83550000D01*
X162580756Y-83550000D01*
X162466306Y-83580667D01*
X162390000Y-83624722D01*
X162390000Y-81994413D01*
X162378678Y-81979546D01*
X162370500Y-81935259D01*
X162370500Y-81601456D01*
X162332052Y-81408170D01*
X162332051Y-81408169D01*
X162332051Y-81408165D01*
X162304262Y-81341076D01*
X162256635Y-81226092D01*
X162256628Y-81226079D01*
X162147139Y-81062218D01*
X162147136Y-81062214D01*
X162007785Y-80922863D01*
X162007781Y-80922860D01*
X161843920Y-80813371D01*
X161843907Y-80813364D01*
X161661839Y-80737950D01*
X161661829Y-80737947D01*
X161468543Y-80699500D01*
X161468541Y-80699500D01*
X161271459Y-80699500D01*
X161271457Y-80699500D01*
X161078170Y-80737947D01*
X161078160Y-80737950D01*
X160896092Y-80813364D01*
X160896079Y-80813371D01*
X160732218Y-80922860D01*
X160732214Y-80922863D01*
X160592863Y-81062214D01*
X160592860Y-81062218D01*
X160483371Y-81226079D01*
X160483364Y-81226092D01*
X160407950Y-81408160D01*
X160407947Y-81408170D01*
X160369500Y-81601456D01*
X160369500Y-81601459D01*
X160369500Y-82598541D01*
X160369500Y-82598543D01*
X160369499Y-82598543D01*
X160407947Y-82791829D01*
X160407950Y-82791839D01*
X160483364Y-82973907D01*
X160483371Y-82973920D01*
X160592860Y-83137781D01*
X160592863Y-83137785D01*
X160633180Y-83178101D01*
X160666666Y-83239424D01*
X160669500Y-83265783D01*
X160669500Y-83306055D01*
X160649815Y-83373094D01*
X160597011Y-83418849D01*
X160527853Y-83428793D01*
X160476610Y-83409158D01*
X160431815Y-83379227D01*
X160431804Y-83379221D01*
X160304332Y-83326421D01*
X160304322Y-83326418D01*
X160168995Y-83299500D01*
X160168993Y-83299500D01*
X160031007Y-83299500D01*
X160031005Y-83299500D01*
X159895677Y-83326418D01*
X159895667Y-83326421D01*
X159768195Y-83379221D01*
X159768182Y-83379228D01*
X159653458Y-83455885D01*
X159653454Y-83455888D01*
X159555888Y-83553454D01*
X159555885Y-83553458D01*
X159479228Y-83668182D01*
X159479221Y-83668195D01*
X159426421Y-83795667D01*
X159426418Y-83795677D01*
X159399500Y-83931004D01*
X159399500Y-83931007D01*
X159399500Y-84068993D01*
X159399500Y-84068995D01*
X159399499Y-84068995D01*
X159426418Y-84204322D01*
X159426420Y-84204328D01*
X159477666Y-84328047D01*
X159485135Y-84397517D01*
X159453860Y-84459996D01*
X159393771Y-84495648D01*
X159363116Y-84499500D01*
X159355148Y-84499500D01*
X159355118Y-84499502D01*
X159330011Y-84502414D01*
X159330008Y-84502415D01*
X159227235Y-84547793D01*
X159147794Y-84627234D01*
X159102415Y-84730006D01*
X159102415Y-84730008D01*
X159099500Y-84755131D01*
X159099500Y-87044856D01*
X159099502Y-87044882D01*
X159102413Y-87069987D01*
X159102415Y-87069991D01*
X159147793Y-87172764D01*
X159147794Y-87172765D01*
X159227235Y-87252206D01*
X159330009Y-87297585D01*
X159355135Y-87300500D01*
X159425500Y-87300499D01*
X159492538Y-87320183D01*
X159538294Y-87372986D01*
X159549500Y-87424499D01*
X159549500Y-87637526D01*
X159549500Y-87782474D01*
X159587016Y-87922485D01*
X159659490Y-88048015D01*
X166158985Y-94547510D01*
X166158987Y-94547511D01*
X166158991Y-94547514D01*
X166241552Y-94595180D01*
X166241555Y-94595181D01*
X166241560Y-94595184D01*
X166284515Y-94619984D01*
X166424525Y-94657500D01*
X174980613Y-94657500D01*
X175047652Y-94677185D01*
X175068294Y-94693819D01*
X176077900Y-95703425D01*
X176111385Y-95764748D01*
X176106401Y-95834440D01*
X176104781Y-95838557D01*
X176075948Y-95908168D01*
X176075947Y-95908171D01*
X176037500Y-96101456D01*
X176037500Y-96435259D01*
X176018000Y-96501667D01*
X176018000Y-98124722D01*
X175941694Y-98080667D01*
X175827244Y-98050000D01*
X175708756Y-98050000D01*
X175594306Y-98080667D01*
X175518000Y-98124722D01*
X175518000Y-96494413D01*
X175506678Y-96479546D01*
X175498500Y-96435259D01*
X175498500Y-96101456D01*
X175460052Y-95908170D01*
X175460051Y-95908169D01*
X175460051Y-95908165D01*
X175439892Y-95859496D01*
X175384635Y-95726092D01*
X175384628Y-95726079D01*
X175275139Y-95562218D01*
X175275136Y-95562214D01*
X175135785Y-95422863D01*
X175135781Y-95422860D01*
X174971920Y-95313371D01*
X174971907Y-95313364D01*
X174789839Y-95237950D01*
X174789829Y-95237947D01*
X174596543Y-95199500D01*
X174596541Y-95199500D01*
X174399459Y-95199500D01*
X174399457Y-95199500D01*
X174206170Y-95237947D01*
X174206160Y-95237950D01*
X174024092Y-95313364D01*
X174024079Y-95313371D01*
X173860218Y-95422860D01*
X173860214Y-95422863D01*
X173720863Y-95562214D01*
X173720860Y-95562218D01*
X173611371Y-95726079D01*
X173611364Y-95726092D01*
X173535950Y-95908160D01*
X173535947Y-95908170D01*
X173497500Y-96101456D01*
X173497500Y-96101459D01*
X173497500Y-97098541D01*
X173497500Y-97098543D01*
X173497499Y-97098543D01*
X173535947Y-97291829D01*
X173535950Y-97291839D01*
X173611364Y-97473907D01*
X173611371Y-97473920D01*
X173720860Y-97637781D01*
X173720863Y-97637785D01*
X173761180Y-97678101D01*
X173794666Y-97739424D01*
X173797500Y-97765783D01*
X173797500Y-97806055D01*
X173777815Y-97873094D01*
X173725011Y-97918849D01*
X173655853Y-97928793D01*
X173604610Y-97909158D01*
X173559815Y-97879227D01*
X173559804Y-97879221D01*
X173432332Y-97826421D01*
X173432322Y-97826418D01*
X173296995Y-97799500D01*
X173296993Y-97799500D01*
X173159007Y-97799500D01*
X173159005Y-97799500D01*
X173023677Y-97826418D01*
X173023667Y-97826421D01*
X172896195Y-97879221D01*
X172896182Y-97879228D01*
X172781458Y-97955885D01*
X172781454Y-97955888D01*
X172683888Y-98053454D01*
X172683885Y-98053458D01*
X172607228Y-98168182D01*
X172607221Y-98168195D01*
X172554421Y-98295667D01*
X172554418Y-98295677D01*
X172527500Y-98431004D01*
X172527500Y-98431007D01*
X172527500Y-98568993D01*
X172527500Y-98568995D01*
X172527499Y-98568995D01*
X172554418Y-98704322D01*
X172554420Y-98704328D01*
X172605666Y-98828047D01*
X172613135Y-98897517D01*
X172581860Y-98959996D01*
X172521771Y-98995648D01*
X172491116Y-98999500D01*
X172483148Y-98999500D01*
X172483118Y-98999502D01*
X172458011Y-99002414D01*
X172458008Y-99002415D01*
X172355235Y-99047793D01*
X172275794Y-99127234D01*
X172230415Y-99230006D01*
X172230415Y-99230008D01*
X172227500Y-99255131D01*
X172227500Y-99725500D01*
X172207815Y-99792539D01*
X172155011Y-99838294D01*
X172103500Y-99849500D01*
X171434525Y-99849500D01*
X171350519Y-99872009D01*
X171294513Y-99887016D01*
X171294512Y-99887017D01*
X171168989Y-99959487D01*
X171168984Y-99959491D01*
X169485491Y-101642983D01*
X169485487Y-101642988D01*
X169417188Y-101761288D01*
X169417188Y-101761289D01*
X169414390Y-101766136D01*
X169413016Y-101768515D01*
X169375500Y-101908525D01*
X169375500Y-108258526D01*
X169375500Y-108403474D01*
X169399946Y-108494707D01*
X169413016Y-108543485D01*
X169485489Y-108669013D01*
X169485491Y-108669016D01*
X184157030Y-123340555D01*
X184190515Y-123401878D01*
X184190966Y-123452427D01*
X184165500Y-123580454D01*
X184165500Y-123914259D01*
X184146000Y-123980667D01*
X184146000Y-125603722D01*
X184069694Y-125559667D01*
X183955244Y-125529000D01*
X183836756Y-125529000D01*
X183722306Y-125559667D01*
X183646000Y-125603722D01*
X183646000Y-123973413D01*
X183634678Y-123958546D01*
X183626500Y-123914259D01*
X183626500Y-123580456D01*
X183588052Y-123387170D01*
X183588051Y-123387169D01*
X183588051Y-123387165D01*
X183544529Y-123282093D01*
X183512635Y-123205092D01*
X183512628Y-123205079D01*
X183403139Y-123041218D01*
X183403136Y-123041214D01*
X183263785Y-122901863D01*
X183263781Y-122901860D01*
X183099920Y-122792371D01*
X183099907Y-122792364D01*
X182917839Y-122716950D01*
X182917829Y-122716947D01*
X182724543Y-122678500D01*
X182724541Y-122678500D01*
X182527459Y-122678500D01*
X182527457Y-122678500D01*
X182334170Y-122716947D01*
X182334160Y-122716950D01*
X182152092Y-122792364D01*
X182152079Y-122792371D01*
X181988218Y-122901860D01*
X181988214Y-122901863D01*
X181848863Y-123041214D01*
X181848860Y-123041218D01*
X181739371Y-123205079D01*
X181739364Y-123205092D01*
X181663950Y-123387160D01*
X181663947Y-123387170D01*
X181625500Y-123580456D01*
X181625500Y-123580459D01*
X181625500Y-124577541D01*
X181625500Y-124577543D01*
X181625499Y-124577543D01*
X181663947Y-124770829D01*
X181663950Y-124770839D01*
X181739364Y-124952907D01*
X181739371Y-124952920D01*
X181848860Y-125116781D01*
X181848863Y-125116785D01*
X181889180Y-125157101D01*
X181922666Y-125218424D01*
X181925500Y-125244783D01*
X181925500Y-125285055D01*
X181905815Y-125352094D01*
X181853011Y-125397849D01*
X181783853Y-125407793D01*
X181732610Y-125388158D01*
X181687815Y-125358227D01*
X181687804Y-125358221D01*
X181560332Y-125305421D01*
X181560322Y-125305418D01*
X181424995Y-125278500D01*
X181424993Y-125278500D01*
X181287007Y-125278500D01*
X181287005Y-125278500D01*
X181151677Y-125305418D01*
X181151667Y-125305421D01*
X181024195Y-125358221D01*
X181024182Y-125358228D01*
X180909458Y-125434885D01*
X180909454Y-125434888D01*
X180811888Y-125532454D01*
X180811885Y-125532458D01*
X180735228Y-125647182D01*
X180735221Y-125647195D01*
X180682421Y-125774667D01*
X180682418Y-125774677D01*
X180655500Y-125910004D01*
X180655500Y-125910007D01*
X180655500Y-126047993D01*
X180655500Y-126047995D01*
X180655499Y-126047995D01*
X180682418Y-126183322D01*
X180682420Y-126183328D01*
X180733666Y-126307047D01*
X180741135Y-126376517D01*
X180709860Y-126438996D01*
X180649771Y-126474648D01*
X180619116Y-126478500D01*
X180611148Y-126478500D01*
X180611118Y-126478502D01*
X180586011Y-126481414D01*
X180586008Y-126481415D01*
X180483235Y-126526793D01*
X180403794Y-126606234D01*
X180358415Y-126709006D01*
X180358415Y-126709008D01*
X180355500Y-126734131D01*
X180355500Y-129023856D01*
X180355502Y-129023882D01*
X180358413Y-129048987D01*
X180358415Y-129048991D01*
X180403793Y-129151764D01*
X180403794Y-129151765D01*
X180483235Y-129231206D01*
X180586009Y-129276585D01*
X180611135Y-129279500D01*
X182100864Y-129279499D01*
X182100879Y-129279497D01*
X182100882Y-129279497D01*
X182125987Y-129276586D01*
X182125988Y-129276585D01*
X182125991Y-129276585D01*
X182228765Y-129231206D01*
X182308206Y-129151765D01*
X182353585Y-129048991D01*
X182356500Y-129023865D01*
X182356499Y-128373447D01*
X182696000Y-128373447D01*
X182725548Y-128560002D01*
X182783914Y-128739637D01*
X182869670Y-128907940D01*
X182980685Y-129060741D01*
X182980689Y-129060746D01*
X183114253Y-129194310D01*
X183114258Y-129194314D01*
X183267059Y-129305329D01*
X183435362Y-129391085D01*
X183614997Y-129449451D01*
X183646000Y-129454362D01*
X183646000Y-129454361D01*
X184146000Y-129454361D01*
X184177002Y-129449451D01*
X184356637Y-129391085D01*
X184524940Y-129305329D01*
X184677741Y-129194314D01*
X184677746Y-129194310D01*
X184811310Y-129060746D01*
X184811314Y-129060741D01*
X184922329Y-128907940D01*
X185008085Y-128739637D01*
X185066451Y-128560002D01*
X185096000Y-128373447D01*
X185096000Y-128129000D01*
X184146000Y-128129000D01*
X184146000Y-129454361D01*
X183646000Y-129454361D01*
X183646000Y-128129000D01*
X182696000Y-128129000D01*
X182696000Y-128373447D01*
X182356499Y-128373447D01*
X182356499Y-127912860D01*
X182376184Y-127845822D01*
X182378035Y-127844218D01*
X183696000Y-127844218D01*
X183696000Y-127923782D01*
X183726448Y-127997291D01*
X183782709Y-128053552D01*
X183856218Y-128084000D01*
X183935782Y-128084000D01*
X184009291Y-128053552D01*
X184065552Y-127997291D01*
X184096000Y-127923782D01*
X184096000Y-127844218D01*
X184065552Y-127770709D01*
X184009291Y-127714448D01*
X183935782Y-127684000D01*
X183856218Y-127684000D01*
X183782709Y-127714448D01*
X183726448Y-127770709D01*
X183696000Y-127844218D01*
X182378035Y-127844218D01*
X182428987Y-127800067D01*
X182493754Y-127789572D01*
X182511684Y-127791500D01*
X182511694Y-127791500D01*
X182740306Y-127791500D01*
X182740316Y-127791500D01*
X182797760Y-127785324D01*
X182927709Y-127736856D01*
X183007154Y-127677385D01*
X183038752Y-127653732D01*
X183104216Y-127629316D01*
X183113061Y-127629000D01*
X183646000Y-127629000D01*
X183646000Y-126354277D01*
X183722306Y-126398333D01*
X183836756Y-126429000D01*
X183955244Y-126429000D01*
X184069694Y-126398333D01*
X184146000Y-126354277D01*
X184146000Y-127629000D01*
X185096000Y-127629000D01*
X185096000Y-127384552D01*
X185066452Y-127197997D01*
X185008085Y-127018362D01*
X185008083Y-127018359D01*
X184959515Y-126923037D01*
X184946000Y-126866742D01*
X184946000Y-126800557D01*
X184965685Y-126733518D01*
X185018489Y-126687763D01*
X185087647Y-126677819D01*
X185094182Y-126678938D01*
X185097007Y-126679500D01*
X185097008Y-126679500D01*
X185234995Y-126679500D01*
X185326041Y-126661389D01*
X185370328Y-126652580D01*
X185497811Y-126599775D01*
X185612542Y-126523114D01*
X185710114Y-126425542D01*
X185786775Y-126310811D01*
X185839580Y-126183328D01*
X185866500Y-126047993D01*
X185866500Y-125910007D01*
X185866500Y-125910004D01*
X185839581Y-125774677D01*
X185839580Y-125774676D01*
X185839580Y-125774672D01*
X185839578Y-125774667D01*
X185786778Y-125647195D01*
X185786771Y-125647182D01*
X185737398Y-125573290D01*
X185716520Y-125506612D01*
X185716500Y-125504399D01*
X185716500Y-125380737D01*
X185736185Y-125313698D01*
X185771609Y-125277635D01*
X185803782Y-125256139D01*
X185943139Y-125116782D01*
X186052632Y-124952914D01*
X186128051Y-124770835D01*
X186154591Y-124637412D01*
X186166500Y-124577543D01*
X186166500Y-123574367D01*
X186167811Y-123574367D01*
X186179561Y-123512357D01*
X186227618Y-123461639D01*
X186295467Y-123444955D01*
X186361565Y-123467600D01*
X186389401Y-123494762D01*
X187209868Y-124596320D01*
X188029754Y-125697099D01*
X188030139Y-125697621D01*
X188769254Y-126705702D01*
X189385450Y-127546134D01*
X189386507Y-127547598D01*
X189764607Y-128079361D01*
X189767517Y-128083640D01*
X189882227Y-128260122D01*
X189898432Y-128297130D01*
X189899797Y-128302496D01*
X189901512Y-128310274D01*
X189903980Y-128323473D01*
X189905174Y-128331202D01*
X189906924Y-128345502D01*
X189907616Y-128353086D01*
X189908555Y-128368629D01*
X189908781Y-128376034D01*
X189908791Y-128392906D01*
X189908587Y-128400091D01*
X189907539Y-128418333D01*
X189906942Y-128425291D01*
X189904703Y-128444896D01*
X189903750Y-128451609D01*
X189900208Y-128472443D01*
X189898935Y-128478892D01*
X189893955Y-128501015D01*
X189892391Y-128507211D01*
X189885915Y-128530344D01*
X189884094Y-128536274D01*
X189876006Y-128560438D01*
X189873947Y-128566124D01*
X189864229Y-128591049D01*
X189861953Y-128596499D01*
X189850541Y-128622095D01*
X189848074Y-128627300D01*
X189834948Y-128653408D01*
X189832291Y-128658405D01*
X189817459Y-128684828D01*
X189814635Y-128689607D01*
X189798101Y-128716199D01*
X189795112Y-128720778D01*
X189776883Y-128747402D01*
X189773737Y-128751788D01*
X189753861Y-128778267D01*
X189750560Y-128782472D01*
X189729109Y-128808621D01*
X189725660Y-128812647D01*
X189702602Y-128838424D01*
X189699000Y-128842282D01*
X189674464Y-128867467D01*
X189670715Y-128871156D01*
X189644734Y-128895654D01*
X189640839Y-128899174D01*
X189617044Y-128919779D01*
X189613475Y-128922869D01*
X189609420Y-128926232D01*
X189580733Y-128949014D01*
X189576532Y-128952207D01*
X189546625Y-128973949D01*
X189542271Y-128976974D01*
X189511144Y-128997629D01*
X189506635Y-129000483D01*
X189474367Y-129019949D01*
X189469704Y-129022626D01*
X189436360Y-129040818D01*
X189431547Y-129043309D01*
X189397176Y-129060156D01*
X189392225Y-129062449D01*
X189388181Y-129064215D01*
X189370198Y-129070473D01*
X188957134Y-129179485D01*
X188950575Y-129181027D01*
X188030842Y-129371001D01*
X188028053Y-129371543D01*
X185181264Y-129891846D01*
X185179412Y-129892170D01*
X181750478Y-130465294D01*
X181749143Y-130465510D01*
X180089051Y-130724400D01*
X180087807Y-130724588D01*
X178604163Y-130940564D01*
X178603451Y-130940665D01*
X172830750Y-131746839D01*
X172828648Y-131747114D01*
X171360416Y-131926635D01*
X171358531Y-131926851D01*
X169869436Y-132085832D01*
X169867074Y-132086062D01*
X168354855Y-132218297D01*
X168352053Y-132218510D01*
X166808236Y-132318320D01*
X166806704Y-132318409D01*
X162992651Y-132517615D01*
X162986183Y-132517784D01*
X162936583Y-132517784D01*
X162936381Y-132517838D01*
X162910777Y-132521891D01*
X162910569Y-132521901D01*
X162863391Y-132537220D01*
X162857195Y-132539055D01*
X162809291Y-132551891D01*
X162809283Y-132551895D01*
X162809104Y-132551999D01*
X162785429Y-132562537D01*
X162785229Y-132562601D01*
X162785227Y-132562602D01*
X162743630Y-132589605D01*
X162738119Y-132592982D01*
X162695161Y-132617785D01*
X162695153Y-132617791D01*
X162695006Y-132617939D01*
X162674874Y-132634239D01*
X162674698Y-132634352D01*
X162674689Y-132634360D01*
X162641493Y-132671214D01*
X162637042Y-132675903D01*
X162601980Y-132710965D01*
X162601975Y-132710971D01*
X162601868Y-132711158D01*
X162586642Y-132732111D01*
X162586497Y-132732271D01*
X162586496Y-132732273D01*
X162586494Y-132732276D01*
X162586493Y-132732278D01*
X162567003Y-132770512D01*
X162563972Y-132776458D01*
X162560886Y-132782139D01*
X162536086Y-132825095D01*
X162536031Y-132825301D01*
X162526739Y-132849499D01*
X162526645Y-132849682D01*
X162526644Y-132849685D01*
X162516324Y-132898193D01*
X162514814Y-132904481D01*
X162501977Y-132952388D01*
X162501977Y-132952587D01*
X162499263Y-132978387D01*
X162499221Y-132978583D01*
X162499220Y-132978586D01*
X162501808Y-133028115D01*
X162501977Y-133034583D01*
X162501977Y-137009844D01*
X162501976Y-137010392D01*
X162495807Y-138406074D01*
X162495781Y-138408093D01*
X162473105Y-139503181D01*
X162473015Y-139506000D01*
X162453868Y-139946362D01*
X162453709Y-139949244D01*
X162428477Y-140326833D01*
X162428143Y-140330847D01*
X162396721Y-140646538D01*
X162396041Y-140652097D01*
X162358804Y-140908213D01*
X162357449Y-140915848D01*
X162315838Y-141114058D01*
X162313207Y-141124366D01*
X162270318Y-141266663D01*
X162265421Y-141280067D01*
X162226318Y-141370556D01*
X162217848Y-141386758D01*
X162187722Y-141435297D01*
X162174807Y-141452554D01*
X162153493Y-141476394D01*
X162137052Y-141491726D01*
X162113785Y-141509774D01*
X162096812Y-141520844D01*
X162054272Y-141543871D01*
X162039946Y-141550484D01*
X162031110Y-141553899D01*
X161993552Y-141562031D01*
X161740343Y-141576643D01*
X161735925Y-141576819D01*
X160863837Y-141595999D01*
X160862513Y-141596021D01*
X157942740Y-141629042D01*
X157941843Y-141629049D01*
X150433302Y-141659603D01*
X150432623Y-141659604D01*
X145269421Y-141652355D01*
X145268266Y-141652348D01*
X141662206Y-141613694D01*
X141659708Y-141613642D01*
X140407230Y-141574973D01*
X140403537Y-141574804D01*
X139501773Y-141520014D01*
X139493762Y-141519266D01*
X138938644Y-141449185D01*
X138924382Y-141446529D01*
X138825026Y-141421937D01*
X138803361Y-141414388D01*
X138793063Y-141409691D01*
X138772554Y-141397851D01*
X138750170Y-141381898D01*
X138746506Y-141379184D01*
X138730317Y-141366724D01*
X138725978Y-141363226D01*
X138723942Y-141361508D01*
X138722210Y-141360046D01*
X138685870Y-141308262D01*
X138682957Y-141300383D01*
X138681667Y-141296712D01*
X138679361Y-141289797D01*
X138677783Y-141284696D01*
X138667477Y-141248590D01*
X138665926Y-141242588D01*
X138665830Y-141242176D01*
X138655595Y-141198035D01*
X138654535Y-141192990D01*
X138646687Y-141151346D01*
X138643565Y-141134783D01*
X138642855Y-141130621D01*
X138631798Y-141058486D01*
X138631321Y-141055061D01*
X138620533Y-140968657D01*
X138620232Y-140965992D01*
X138609959Y-140865164D01*
X138609766Y-140863082D01*
X138600125Y-140747404D01*
X138600002Y-140745769D01*
X138591069Y-140615131D01*
X138590978Y-140613673D01*
X138582744Y-140467441D01*
X138582685Y-140466295D01*
X138582156Y-140454937D01*
X138575118Y-140303906D01*
X138575081Y-140303013D01*
X138574203Y-140280370D01*
X138568129Y-140123760D01*
X138568106Y-140123102D01*
X138567141Y-140093434D01*
X138561707Y-139926450D01*
X138555790Y-139711903D01*
X138545036Y-139224756D01*
X138535196Y-138657882D01*
X138515292Y-137258200D01*
X138515315Y-137258117D01*
X138515291Y-137258118D01*
X138486271Y-135116270D01*
X138486272Y-135116268D01*
X138457905Y-133022882D01*
X138458092Y-133014234D01*
X138460583Y-132970310D01*
X138459386Y-132964558D01*
X138456796Y-132940977D01*
X138456717Y-132935104D01*
X138444761Y-132892787D01*
X138442699Y-132884373D01*
X138433734Y-132841290D01*
X138431088Y-132836043D01*
X138422484Y-132813936D01*
X138420888Y-132808284D01*
X138398379Y-132770490D01*
X138394202Y-132762881D01*
X138382437Y-132739545D01*
X138374407Y-132723616D01*
X138374405Y-132723613D01*
X138370499Y-132719238D01*
X138356462Y-132700106D01*
X138353455Y-132695058D01*
X138353454Y-132695056D01*
X138321946Y-132664392D01*
X138315933Y-132658115D01*
X138286644Y-132625305D01*
X138286643Y-132625304D01*
X138281728Y-132622082D01*
X138263228Y-132607242D01*
X138259019Y-132603146D01*
X138259016Y-132603144D01*
X138220631Y-132581669D01*
X138213208Y-132577168D01*
X138190987Y-132562603D01*
X138176428Y-132553060D01*
X138176426Y-132553059D01*
X138176424Y-132553058D01*
X138170841Y-132551218D01*
X138149135Y-132541674D01*
X138144453Y-132539055D01*
X138144005Y-132538804D01*
X138144004Y-132538803D01*
X138144003Y-132538803D01*
X138101380Y-132527999D01*
X138093030Y-132525568D01*
X138051266Y-132511801D01*
X138051268Y-132511801D01*
X138045399Y-132511469D01*
X138021962Y-132507869D01*
X138018608Y-132507019D01*
X138016261Y-132506424D01*
X138016259Y-132506424D01*
X138016256Y-132506423D01*
X137972287Y-132507019D01*
X137963591Y-132506831D01*
X134261047Y-132296952D01*
X134259651Y-132296865D01*
X132680158Y-132189436D01*
X132677542Y-132189230D01*
X131159513Y-132053667D01*
X131157261Y-132053446D01*
X129685723Y-131894909D01*
X129683914Y-131894700D01*
X128248890Y-131718744D01*
X128247106Y-131718512D01*
X122638143Y-130948050D01*
X122637146Y-130947909D01*
X119151847Y-130440286D01*
X119149548Y-130439929D01*
X115618607Y-129857792D01*
X115616095Y-129857352D01*
X112803201Y-129333972D01*
X112799222Y-129333164D01*
X111925270Y-129140750D01*
X111915668Y-129138229D01*
X111562937Y-129030356D01*
X111534350Y-129017467D01*
X111512118Y-129003825D01*
X111499914Y-128996337D01*
X111496276Y-128994016D01*
X111458005Y-128968653D01*
X111454349Y-128966135D01*
X111418536Y-128940510D01*
X111414876Y-128937788D01*
X111381628Y-128912098D01*
X111377972Y-128909161D01*
X111347164Y-128883439D01*
X111343524Y-128880278D01*
X111315171Y-128854671D01*
X111311575Y-128851291D01*
X111285632Y-128825902D01*
X111282064Y-128822263D01*
X111258461Y-128797182D01*
X111254966Y-128793307D01*
X111233670Y-128768664D01*
X111230238Y-128764511D01*
X111211175Y-128740399D01*
X111207836Y-128735976D01*
X111190928Y-128712497D01*
X111187705Y-128707796D01*
X111172858Y-128685031D01*
X111169756Y-128680019D01*
X111156866Y-128658038D01*
X111153943Y-128652762D01*
X111142863Y-128631558D01*
X111140136Y-128626005D01*
X111130793Y-128605710D01*
X111128279Y-128599859D01*
X111127047Y-128596776D01*
X111120509Y-128580410D01*
X111118253Y-128574301D01*
X111111929Y-128555687D01*
X111109968Y-128549365D01*
X111104949Y-128531492D01*
X111103303Y-128524945D01*
X111101485Y-128516779D01*
X111099493Y-128507835D01*
X111098184Y-128501071D01*
X111095466Y-128484581D01*
X111094527Y-128477683D01*
X111092803Y-128461636D01*
X111092252Y-128454612D01*
X111091468Y-128438904D01*
X111091317Y-128431827D01*
X111091435Y-128416244D01*
X111091692Y-128409182D01*
X111092716Y-128393529D01*
X111093387Y-128386429D01*
X111095341Y-128370633D01*
X111096417Y-128363598D01*
X111099383Y-128347363D01*
X111100851Y-128340455D01*
X111104935Y-128323616D01*
X111106782Y-128316843D01*
X111106991Y-128316154D01*
X111112111Y-128299278D01*
X111114298Y-128292737D01*
X111120839Y-128274845D01*
X111121047Y-128274275D01*
X111123545Y-128267982D01*
X111130498Y-128251786D01*
X111142163Y-128230598D01*
X111428145Y-127813452D01*
X111430183Y-127810570D01*
X112204743Y-126748707D01*
X112205175Y-126748122D01*
X114354047Y-123862487D01*
X114409875Y-123820476D01*
X114479554Y-123815317D01*
X114540961Y-123848648D01*
X114574600Y-123909887D01*
X114577500Y-123936549D01*
X114577500Y-127001479D01*
X114584885Y-127029039D01*
X114584886Y-127029039D01*
X114584886Y-127029040D01*
X114615016Y-127141485D01*
X114642737Y-127189500D01*
X114687489Y-127267013D01*
X114687491Y-127267016D01*
X115041181Y-127620706D01*
X115074666Y-127682029D01*
X115077500Y-127708387D01*
X115077500Y-129023856D01*
X115077502Y-129023882D01*
X115080413Y-129048987D01*
X115080415Y-129048991D01*
X115125793Y-129151764D01*
X115125794Y-129151765D01*
X115205235Y-129231206D01*
X115308009Y-129276585D01*
X115333135Y-129279500D01*
X116822864Y-129279499D01*
X116822879Y-129279497D01*
X116822882Y-129279497D01*
X116847987Y-129276586D01*
X116847988Y-129276585D01*
X116847991Y-129276585D01*
X116950765Y-129231206D01*
X117030206Y-129151765D01*
X117075585Y-129048991D01*
X117078500Y-129023865D01*
X117078499Y-128373447D01*
X117418000Y-128373447D01*
X117447548Y-128560002D01*
X117505914Y-128739637D01*
X117591670Y-128907940D01*
X117702685Y-129060741D01*
X117702689Y-129060746D01*
X117836253Y-129194310D01*
X117836258Y-129194314D01*
X117989059Y-129305329D01*
X118157362Y-129391085D01*
X118336997Y-129449451D01*
X118368000Y-129454362D01*
X118368000Y-129454361D01*
X118868000Y-129454361D01*
X118899002Y-129449451D01*
X119078637Y-129391085D01*
X119246940Y-129305329D01*
X119399741Y-129194314D01*
X119399746Y-129194310D01*
X119533310Y-129060746D01*
X119533314Y-129060741D01*
X119644329Y-128907940D01*
X119730085Y-128739637D01*
X119788451Y-128560002D01*
X119818000Y-128373447D01*
X119818000Y-128129000D01*
X118868000Y-128129000D01*
X118868000Y-129454361D01*
X118368000Y-129454361D01*
X118368000Y-128129000D01*
X117418000Y-128129000D01*
X117418000Y-128373447D01*
X117078499Y-128373447D01*
X117078499Y-127912860D01*
X117098184Y-127845822D01*
X117100035Y-127844218D01*
X118418000Y-127844218D01*
X118418000Y-127923782D01*
X118448448Y-127997291D01*
X118504709Y-128053552D01*
X118578218Y-128084000D01*
X118657782Y-128084000D01*
X118731291Y-128053552D01*
X118787552Y-127997291D01*
X118818000Y-127923782D01*
X118818000Y-127844218D01*
X118787552Y-127770709D01*
X118731291Y-127714448D01*
X118657782Y-127684000D01*
X118578218Y-127684000D01*
X118504709Y-127714448D01*
X118448448Y-127770709D01*
X118418000Y-127844218D01*
X117100035Y-127844218D01*
X117150987Y-127800067D01*
X117215754Y-127789572D01*
X117233684Y-127791500D01*
X117233694Y-127791500D01*
X117462306Y-127791500D01*
X117462316Y-127791500D01*
X117519760Y-127785324D01*
X117649709Y-127736856D01*
X117729154Y-127677385D01*
X117760752Y-127653732D01*
X117826216Y-127629316D01*
X117835061Y-127629000D01*
X118368000Y-127629000D01*
X118368000Y-126354277D01*
X118444306Y-126398333D01*
X118558756Y-126429000D01*
X118677244Y-126429000D01*
X118791694Y-126398333D01*
X118868000Y-126354277D01*
X118868000Y-127629000D01*
X119818000Y-127629000D01*
X119818000Y-127384552D01*
X119788452Y-127197997D01*
X119730085Y-127018362D01*
X119730083Y-127018359D01*
X119681515Y-126923037D01*
X119668000Y-126866742D01*
X119668000Y-126800557D01*
X119687685Y-126733518D01*
X119740489Y-126687763D01*
X119809647Y-126677819D01*
X119816182Y-126678938D01*
X119819007Y-126679500D01*
X119819008Y-126679500D01*
X119956995Y-126679500D01*
X120048041Y-126661389D01*
X120092328Y-126652580D01*
X120219811Y-126599775D01*
X120334542Y-126523114D01*
X120432114Y-126425542D01*
X120508775Y-126310811D01*
X120561580Y-126183328D01*
X120588500Y-126047993D01*
X120588500Y-125910007D01*
X120588500Y-125910004D01*
X120561581Y-125774677D01*
X120561580Y-125774676D01*
X120561580Y-125774672D01*
X120561578Y-125774667D01*
X120508778Y-125647195D01*
X120508771Y-125647182D01*
X120459398Y-125573290D01*
X120438520Y-125506612D01*
X120438500Y-125504399D01*
X120438500Y-125380737D01*
X120458185Y-125313698D01*
X120493609Y-125277635D01*
X120525782Y-125256139D01*
X120665139Y-125116782D01*
X120774632Y-124952914D01*
X120850051Y-124770835D01*
X120876591Y-124637412D01*
X120888500Y-124577543D01*
X120888500Y-124429387D01*
X120908185Y-124362348D01*
X120924819Y-124341706D01*
X127844706Y-117421819D01*
X127906029Y-117388334D01*
X127932387Y-117385500D01*
X147465501Y-117385500D01*
X147532540Y-117405185D01*
X147578295Y-117457989D01*
X147589501Y-117509500D01*
X147589501Y-117979856D01*
X147589502Y-117979882D01*
X147592413Y-118004987D01*
X147592415Y-118004991D01*
X147637793Y-118107764D01*
X147637794Y-118107765D01*
X147717235Y-118187206D01*
X147820009Y-118232585D01*
X147845135Y-118235500D01*
X149334864Y-118235499D01*
X149334879Y-118235497D01*
X149334882Y-118235497D01*
X149359987Y-118232586D01*
X149359988Y-118232585D01*
X149359991Y-118232585D01*
X149462765Y-118187206D01*
X149542206Y-118107765D01*
X149587585Y-118004991D01*
X149590500Y-117979865D01*
X149590499Y-117329447D01*
X149930000Y-117329447D01*
X149959548Y-117516002D01*
X150017914Y-117695637D01*
X150103670Y-117863940D01*
X150214685Y-118016741D01*
X150214689Y-118016746D01*
X150348253Y-118150310D01*
X150348258Y-118150314D01*
X150501059Y-118261329D01*
X150669362Y-118347085D01*
X150848997Y-118405451D01*
X150880000Y-118410362D01*
X150880000Y-118410361D01*
X151380000Y-118410361D01*
X151411002Y-118405451D01*
X151590637Y-118347085D01*
X151758940Y-118261329D01*
X151911741Y-118150314D01*
X151911746Y-118150310D01*
X152045310Y-118016746D01*
X152045314Y-118016741D01*
X152156329Y-117863940D01*
X152242085Y-117695637D01*
X152300451Y-117516002D01*
X152330000Y-117329447D01*
X152330000Y-117085000D01*
X151380000Y-117085000D01*
X151380000Y-118410361D01*
X150880000Y-118410361D01*
X150880000Y-117085000D01*
X149930000Y-117085000D01*
X149930000Y-117329447D01*
X149590499Y-117329447D01*
X149590499Y-116868860D01*
X149610184Y-116801822D01*
X149612035Y-116800218D01*
X150930000Y-116800218D01*
X150930000Y-116879782D01*
X150960448Y-116953291D01*
X151016709Y-117009552D01*
X151090218Y-117040000D01*
X151169782Y-117040000D01*
X151243291Y-117009552D01*
X151299552Y-116953291D01*
X151330000Y-116879782D01*
X151330000Y-116800218D01*
X151299552Y-116726709D01*
X151243291Y-116670448D01*
X151169782Y-116640000D01*
X151090218Y-116640000D01*
X151016709Y-116670448D01*
X150960448Y-116726709D01*
X150930000Y-116800218D01*
X149612035Y-116800218D01*
X149662987Y-116756067D01*
X149727754Y-116745572D01*
X149745684Y-116747500D01*
X149745694Y-116747500D01*
X149974306Y-116747500D01*
X149974316Y-116747500D01*
X150031760Y-116741324D01*
X150161709Y-116692856D01*
X150232317Y-116640000D01*
X150272752Y-116609732D01*
X150338216Y-116585316D01*
X150347061Y-116585000D01*
X150880000Y-116585000D01*
X150880000Y-115310277D01*
X150956306Y-115354333D01*
X151070756Y-115385000D01*
X151189244Y-115385000D01*
X151303694Y-115354333D01*
X151380000Y-115310277D01*
X151380000Y-116585000D01*
X152330000Y-116585000D01*
X152330000Y-116340552D01*
X152300452Y-116153997D01*
X152242085Y-115974362D01*
X152242083Y-115974359D01*
X152193515Y-115879037D01*
X152180000Y-115822742D01*
X152180000Y-115756557D01*
X152199685Y-115689518D01*
X152252489Y-115643763D01*
X152321647Y-115633819D01*
X152328182Y-115634938D01*
X152331007Y-115635500D01*
X152331008Y-115635500D01*
X152468995Y-115635500D01*
X152560041Y-115617389D01*
X152604328Y-115608580D01*
X152716218Y-115562234D01*
X152731804Y-115555778D01*
X152731804Y-115555777D01*
X152731811Y-115555775D01*
X152731817Y-115555771D01*
X152799609Y-115510474D01*
X152866286Y-115489596D01*
X152933666Y-115508080D01*
X152980357Y-115560059D01*
X152992500Y-115613576D01*
X152992500Y-121857612D01*
X152972815Y-121924651D01*
X152956181Y-121945293D01*
X144310395Y-130591078D01*
X144249072Y-130624563D01*
X144179380Y-130619579D01*
X144123447Y-130577707D01*
X144099030Y-130512243D01*
X144099186Y-130492589D01*
X144099211Y-130492310D01*
X144117786Y-130280000D01*
X144098677Y-130061588D01*
X144053282Y-129892170D01*
X144041934Y-129849819D01*
X144041929Y-129849805D01*
X143994345Y-129747761D01*
X143949275Y-129651107D01*
X143823520Y-129471511D01*
X143668489Y-129316480D01*
X143488893Y-129190725D01*
X143468095Y-129181027D01*
X143342330Y-129122382D01*
X143289890Y-129076210D01*
X143270738Y-129009017D01*
X143290953Y-128942135D01*
X143342330Y-128897618D01*
X143372737Y-128883439D01*
X143488893Y-128829275D01*
X143668489Y-128703520D01*
X143823520Y-128548489D01*
X143949275Y-128368893D01*
X144041932Y-128170188D01*
X144098677Y-127958412D01*
X144117786Y-127740000D01*
X144098677Y-127521588D01*
X144054125Y-127355316D01*
X144041934Y-127309819D01*
X144041929Y-127309805D01*
X143985830Y-127189500D01*
X143949275Y-127111107D01*
X143823520Y-126931511D01*
X143668489Y-126776480D01*
X143488893Y-126650725D01*
X143342330Y-126582382D01*
X143289890Y-126536210D01*
X143270738Y-126469017D01*
X143290953Y-126402135D01*
X143342330Y-126357618D01*
X143362718Y-126348111D01*
X143488893Y-126289275D01*
X143668489Y-126163520D01*
X143823520Y-126008489D01*
X143949275Y-125828893D01*
X144041932Y-125630188D01*
X144098677Y-125418412D01*
X144117786Y-125200000D01*
X144098677Y-124981588D01*
X144055591Y-124820790D01*
X144041934Y-124769819D01*
X144041929Y-124769805D01*
X143958899Y-124591746D01*
X143949275Y-124571107D01*
X143823520Y-124391511D01*
X143668489Y-124236480D01*
X143488893Y-124110725D01*
X143488894Y-124110725D01*
X143488892Y-124110724D01*
X143400016Y-124069281D01*
X143347577Y-124023109D01*
X143328425Y-123955915D01*
X143348641Y-123889034D01*
X143396125Y-123846414D01*
X143541610Y-123772287D01*
X143648955Y-123694297D01*
X143707213Y-123651971D01*
X143707215Y-123651968D01*
X143707219Y-123651966D01*
X143851966Y-123507219D01*
X143851968Y-123507215D01*
X143851971Y-123507213D01*
X143904732Y-123434590D01*
X143972287Y-123341610D01*
X144065220Y-123159219D01*
X144128477Y-122964534D01*
X144160500Y-122762352D01*
X144160500Y-122557648D01*
X144128477Y-122355466D01*
X144065220Y-122160781D01*
X144065218Y-122160778D01*
X144065218Y-122160776D01*
X144011549Y-122055446D01*
X143972287Y-121978390D01*
X143933244Y-121924651D01*
X143851971Y-121812786D01*
X143707217Y-121668032D01*
X143707212Y-121668028D01*
X143586449Y-121580289D01*
X143543783Y-121524960D01*
X143537804Y-121455346D01*
X143570409Y-121393551D01*
X143600318Y-121370916D01*
X143657156Y-121340157D01*
X143657168Y-121340149D01*
X143696207Y-121309762D01*
X143696208Y-121309760D01*
X143096008Y-120709560D01*
X143160785Y-120682729D01*
X143264789Y-120613236D01*
X143353236Y-120524789D01*
X143422729Y-120420785D01*
X143449560Y-120356007D01*
X144049117Y-120955564D01*
X144141815Y-120813679D01*
X144238508Y-120593240D01*
X144297600Y-120359889D01*
X144317478Y-120120005D01*
X144317478Y-120119994D01*
X144297600Y-119880110D01*
X144238508Y-119646759D01*
X144141815Y-119426320D01*
X144049117Y-119284434D01*
X143449560Y-119883991D01*
X143422729Y-119819215D01*
X143353236Y-119715211D01*
X143264789Y-119626764D01*
X143160785Y-119557271D01*
X143096007Y-119530438D01*
X143696208Y-118930237D01*
X143696208Y-118930236D01*
X143657166Y-118899849D01*
X143657161Y-118899846D01*
X143445468Y-118785284D01*
X143445454Y-118785278D01*
X143217792Y-118707120D01*
X142980358Y-118667500D01*
X142739642Y-118667500D01*
X142502207Y-118707120D01*
X142274545Y-118785278D01*
X142274531Y-118785284D01*
X142062837Y-118899846D01*
X142062826Y-118899853D01*
X142023791Y-118930235D01*
X142023791Y-118930237D01*
X142623992Y-119530438D01*
X142559215Y-119557271D01*
X142455211Y-119626764D01*
X142366764Y-119715211D01*
X142297271Y-119819215D01*
X142270439Y-119883992D01*
X141700908Y-119314461D01*
X141667423Y-119253138D01*
X141669595Y-119218415D01*
X141663598Y-119162623D01*
X141613354Y-119027913D01*
X141613350Y-119027906D01*
X141527190Y-118912812D01*
X141527187Y-118912809D01*
X141412093Y-118826649D01*
X141412086Y-118826645D01*
X141277379Y-118776403D01*
X141277372Y-118776401D01*
X141217844Y-118770000D01*
X140570000Y-118770000D01*
X140570000Y-119686988D01*
X140512993Y-119654075D01*
X140385826Y-119620000D01*
X140254174Y-119620000D01*
X140127007Y-119654075D01*
X140070000Y-119686988D01*
X140070000Y-118770000D01*
X139422155Y-118770000D01*
X139362627Y-118776401D01*
X139362620Y-118776403D01*
X139227913Y-118826645D01*
X139227906Y-118826649D01*
X139112812Y-118912809D01*
X139112809Y-118912812D01*
X139026649Y-119027906D01*
X139026645Y-119027913D01*
X138976403Y-119162620D01*
X138976401Y-119162627D01*
X138970000Y-119222155D01*
X138970000Y-119870000D01*
X139886988Y-119870000D01*
X139854075Y-119927007D01*
X139820000Y-120054174D01*
X139820000Y-120185826D01*
X139854075Y-120312993D01*
X139886988Y-120370000D01*
X138970000Y-120370000D01*
X138970000Y-121017844D01*
X138976401Y-121077372D01*
X138976403Y-121077379D01*
X139026645Y-121212086D01*
X139026649Y-121212093D01*
X139112809Y-121327187D01*
X139112812Y-121327190D01*
X139227906Y-121413350D01*
X139227913Y-121413354D01*
X139362620Y-121463596D01*
X139362619Y-121463596D01*
X139388985Y-121466431D01*
X139453536Y-121493169D01*
X139493385Y-121550561D01*
X139495880Y-121620386D01*
X139463413Y-121677402D01*
X139328027Y-121812788D01*
X139207715Y-121978386D01*
X139114781Y-122160776D01*
X139051522Y-122355465D01*
X139019500Y-122557648D01*
X139019500Y-122762351D01*
X139051522Y-122964534D01*
X139114781Y-123159223D01*
X139168314Y-123264285D01*
X139207175Y-123340555D01*
X139207715Y-123341613D01*
X139328028Y-123507213D01*
X139472786Y-123651971D01*
X139599987Y-123744386D01*
X139638390Y-123772287D01*
X139820781Y-123865220D01*
X139902619Y-123891810D01*
X139960293Y-123931247D01*
X139987492Y-123995606D01*
X139975577Y-124064452D01*
X139928333Y-124115928D01*
X139909095Y-124125367D01*
X139804988Y-124165698D01*
X139804980Y-124165702D01*
X139623699Y-124277947D01*
X139466127Y-124421593D01*
X139337632Y-124591746D01*
X139242596Y-124782605D01*
X139242596Y-124782607D01*
X139242595Y-124782611D01*
X139184244Y-124987690D01*
X139164571Y-125200000D01*
X139184244Y-125412310D01*
X139229239Y-125570450D01*
X139242596Y-125617392D01*
X139242596Y-125617394D01*
X139337632Y-125808253D01*
X139353219Y-125828893D01*
X139466128Y-125978407D01*
X139623698Y-126122052D01*
X139804981Y-126234298D01*
X140003802Y-126311321D01*
X140200613Y-126348111D01*
X140262893Y-126379779D01*
X140298166Y-126440092D01*
X140295232Y-126509900D01*
X140255023Y-126567040D01*
X140200613Y-126591888D01*
X140003802Y-126628679D01*
X140003799Y-126628679D01*
X140003799Y-126628680D01*
X139804982Y-126705701D01*
X139804980Y-126705702D01*
X139623699Y-126817947D01*
X139466127Y-126961593D01*
X139337632Y-127131746D01*
X139242596Y-127322605D01*
X139242596Y-127322607D01*
X139242595Y-127322611D01*
X139184244Y-127527690D01*
X139164571Y-127740000D01*
X139184244Y-127952310D01*
X139234517Y-128129000D01*
X139242596Y-128157392D01*
X139242596Y-128157394D01*
X139337632Y-128348253D01*
X139466127Y-128518406D01*
X139466128Y-128518407D01*
X139623698Y-128662052D01*
X139804981Y-128774298D01*
X140003802Y-128851321D01*
X140200613Y-128888111D01*
X140262893Y-128919779D01*
X140298166Y-128980092D01*
X140295232Y-129049900D01*
X140255023Y-129107040D01*
X140200613Y-129131888D01*
X140003802Y-129168679D01*
X140003799Y-129168679D01*
X140003799Y-129168680D01*
X139804982Y-129245701D01*
X139804980Y-129245702D01*
X139623699Y-129357947D01*
X139466127Y-129501593D01*
X139337632Y-129671746D01*
X139242596Y-129862605D01*
X139242596Y-129862607D01*
X139184244Y-130067689D01*
X139164571Y-130279999D01*
X139164571Y-130280000D01*
X139184244Y-130492310D01*
X139242596Y-130697392D01*
X139242596Y-130697394D01*
X139337632Y-130888253D01*
X139462310Y-131053351D01*
X139466128Y-131058407D01*
X139623698Y-131202052D01*
X139804981Y-131314298D01*
X140003802Y-131391321D01*
X140200613Y-131428111D01*
X140262893Y-131459779D01*
X140298166Y-131520092D01*
X140295232Y-131589900D01*
X140255023Y-131647040D01*
X140200613Y-131671888D01*
X140003802Y-131708679D01*
X140003799Y-131708679D01*
X140003799Y-131708680D01*
X139804982Y-131785701D01*
X139804980Y-131785702D01*
X139623699Y-131897947D01*
X139466127Y-132041593D01*
X139337632Y-132211746D01*
X139242596Y-132402605D01*
X139242596Y-132402607D01*
X139184244Y-132607689D01*
X139175681Y-132700106D01*
X139164571Y-132820000D01*
X139184244Y-133032310D01*
X139238173Y-133221849D01*
X139242596Y-133237392D01*
X139242596Y-133237394D01*
X139337632Y-133428253D01*
X139386773Y-133493325D01*
X139466128Y-133598407D01*
X139623698Y-133742052D01*
X139804981Y-133854298D01*
X140003802Y-133931321D01*
X140200613Y-133968111D01*
X140262893Y-133999779D01*
X140298166Y-134060092D01*
X140295232Y-134129900D01*
X140255023Y-134187040D01*
X140200613Y-134211888D01*
X140003802Y-134248679D01*
X140003799Y-134248679D01*
X140003799Y-134248680D01*
X139804982Y-134325701D01*
X139804980Y-134325702D01*
X139623699Y-134437947D01*
X139466127Y-134581593D01*
X139337632Y-134751746D01*
X139242596Y-134942605D01*
X139242596Y-134942607D01*
X139188957Y-135131127D01*
X139184244Y-135147690D01*
X139164571Y-135360000D01*
X139184244Y-135572310D01*
X139234836Y-135750121D01*
X139242596Y-135777392D01*
X139242596Y-135777394D01*
X139337632Y-135968253D01*
X139353219Y-135988893D01*
X139466128Y-136138407D01*
X139623698Y-136282052D01*
X139804981Y-136394298D01*
X140003802Y-136471321D01*
X140200613Y-136508111D01*
X140262893Y-136539779D01*
X140298166Y-136600092D01*
X140295232Y-136669900D01*
X140255023Y-136727040D01*
X140200613Y-136751888D01*
X140003802Y-136788679D01*
X140003799Y-136788679D01*
X140003799Y-136788680D01*
X139804982Y-136865701D01*
X139804980Y-136865702D01*
X139623699Y-136977947D01*
X139466127Y-137121593D01*
X139337632Y-137291746D01*
X139242596Y-137482605D01*
X139242596Y-137482607D01*
X139184244Y-137687689D01*
X139164571Y-137899999D01*
X139164571Y-137900000D01*
X139184244Y-138112310D01*
X139242596Y-138317392D01*
X139242596Y-138317394D01*
X139337632Y-138508253D01*
X139450334Y-138657493D01*
X139466128Y-138678407D01*
X139623698Y-138822052D01*
X139804981Y-138934298D01*
X140003802Y-139011321D01*
X140213390Y-139050500D01*
X140213392Y-139050500D01*
X140426608Y-139050500D01*
X140426610Y-139050500D01*
X140636198Y-139011321D01*
X140835019Y-138934298D01*
X141016302Y-138822052D01*
X141173872Y-138678407D01*
X141302366Y-138508255D01*
X141302365Y-138508255D01*
X141305821Y-138503680D01*
X141306977Y-138504553D01*
X141353793Y-138462588D01*
X141407194Y-138450500D01*
X141655173Y-138450500D01*
X141722212Y-138470185D01*
X141767554Y-138522093D01*
X141770725Y-138528893D01*
X141896480Y-138708489D01*
X142051511Y-138863520D01*
X142231107Y-138989275D01*
X142350652Y-139045019D01*
X142429805Y-139081929D01*
X142429807Y-139081929D01*
X142429812Y-139081932D01*
X142641588Y-139138677D01*
X142816317Y-139153964D01*
X142859999Y-139157786D01*
X142860000Y-139157786D01*
X142860001Y-139157786D01*
X142896402Y-139154601D01*
X143078412Y-139138677D01*
X143290188Y-139081932D01*
X143488893Y-138989275D01*
X143668489Y-138863520D01*
X143823520Y-138708489D01*
X143949275Y-138528893D01*
X144041932Y-138330188D01*
X144098677Y-138118412D01*
X144117786Y-137900000D01*
X144098677Y-137681588D01*
X144074573Y-137591630D01*
X144076236Y-137521780D01*
X144106665Y-137471858D01*
X156015510Y-125563014D01*
X156087984Y-125437485D01*
X156125500Y-125297474D01*
X156125500Y-125152526D01*
X156125500Y-120119999D01*
X156842214Y-120119999D01*
X156842214Y-120120000D01*
X156861322Y-120338407D01*
X156861324Y-120338417D01*
X156918065Y-120550180D01*
X156918070Y-120550194D01*
X156983349Y-120690185D01*
X157010725Y-120748893D01*
X157136480Y-120928489D01*
X157291511Y-121083520D01*
X157471107Y-121209275D01*
X157617670Y-121277618D01*
X157670109Y-121323790D01*
X157689261Y-121390984D01*
X157669045Y-121457865D01*
X157617670Y-121502382D01*
X157471107Y-121570724D01*
X157392593Y-121625701D01*
X157291511Y-121696480D01*
X157291509Y-121696481D01*
X157291506Y-121696484D01*
X157136484Y-121851506D01*
X157136481Y-121851509D01*
X157136480Y-121851511D01*
X157096243Y-121908975D01*
X157010724Y-122031108D01*
X157010723Y-122031110D01*
X156918070Y-122229805D01*
X156918065Y-122229819D01*
X156861324Y-122441582D01*
X156861322Y-122441592D01*
X156842214Y-122659999D01*
X156842214Y-122660000D01*
X156861322Y-122878407D01*
X156861324Y-122878417D01*
X156918065Y-123090180D01*
X156918070Y-123090194D01*
X156983349Y-123230185D01*
X157010725Y-123288893D01*
X157136480Y-123468489D01*
X157291511Y-123623520D01*
X157464125Y-123744386D01*
X157471107Y-123749275D01*
X157617670Y-123817618D01*
X157670109Y-123863790D01*
X157689261Y-123930984D01*
X157669045Y-123997865D01*
X157617670Y-124042382D01*
X157471107Y-124110724D01*
X157363496Y-124186075D01*
X157291511Y-124236480D01*
X157291509Y-124236481D01*
X157291506Y-124236484D01*
X157136484Y-124391506D01*
X157136481Y-124391509D01*
X157136480Y-124391511D01*
X157109959Y-124429387D01*
X157010724Y-124571108D01*
X157010723Y-124571110D01*
X156918070Y-124769805D01*
X156918065Y-124769819D01*
X156861324Y-124981582D01*
X156861322Y-124981592D01*
X156842214Y-125199999D01*
X156842214Y-125200000D01*
X156861322Y-125418407D01*
X156861324Y-125418417D01*
X156918065Y-125630180D01*
X156918070Y-125630194D01*
X156985444Y-125774677D01*
X157010725Y-125828893D01*
X157136480Y-126008489D01*
X157291511Y-126163520D01*
X157471107Y-126289275D01*
X157617670Y-126357618D01*
X157670109Y-126403790D01*
X157689261Y-126470984D01*
X157669045Y-126537865D01*
X157617670Y-126582382D01*
X157471107Y-126650724D01*
X157387869Y-126709009D01*
X157291511Y-126776480D01*
X157291509Y-126776481D01*
X157291506Y-126776484D01*
X157136484Y-126931506D01*
X157136481Y-126931509D01*
X157136480Y-126931511D01*
X157078398Y-127014461D01*
X157010724Y-127111108D01*
X157010723Y-127111110D01*
X156918070Y-127309805D01*
X156918065Y-127309819D01*
X156861324Y-127521582D01*
X156861322Y-127521592D01*
X156842214Y-127739999D01*
X156842214Y-127740000D01*
X156861322Y-127958407D01*
X156861324Y-127958417D01*
X156918065Y-128170180D01*
X156918070Y-128170194D01*
X157003354Y-128353086D01*
X157010725Y-128368893D01*
X157136480Y-128548489D01*
X157291511Y-128703520D01*
X157447360Y-128812647D01*
X157471107Y-128829275D01*
X157617670Y-128897618D01*
X157670109Y-128943790D01*
X157689261Y-129010984D01*
X157669045Y-129077865D01*
X157617670Y-129122382D01*
X157471107Y-129190724D01*
X157377846Y-129256027D01*
X157291511Y-129316480D01*
X157291509Y-129316481D01*
X157291506Y-129316484D01*
X157136484Y-129471506D01*
X157136481Y-129471509D01*
X157136480Y-129471511D01*
X157078345Y-129554536D01*
X157010724Y-129651108D01*
X157010723Y-129651110D01*
X156918070Y-129849805D01*
X156918065Y-129849819D01*
X156861324Y-130061582D01*
X156861322Y-130061592D01*
X156842214Y-130279999D01*
X156842214Y-130280000D01*
X156861322Y-130498407D01*
X156861324Y-130498417D01*
X156918065Y-130710180D01*
X156918070Y-130710194D01*
X156983349Y-130850185D01*
X157010725Y-130908893D01*
X157136480Y-131088489D01*
X157291511Y-131243520D01*
X157471107Y-131369275D01*
X157617670Y-131437618D01*
X157670109Y-131483790D01*
X157689261Y-131550984D01*
X157669045Y-131617865D01*
X157617670Y-131662382D01*
X157471107Y-131730724D01*
X157392593Y-131785701D01*
X157291511Y-131856480D01*
X157291509Y-131856481D01*
X157291506Y-131856484D01*
X157136484Y-132011506D01*
X157136481Y-132011509D01*
X157136480Y-132011511D01*
X157107117Y-132053446D01*
X157010724Y-132191108D01*
X157010723Y-132191110D01*
X156918070Y-132389805D01*
X156918065Y-132389819D01*
X156861324Y-132601582D01*
X156861322Y-132601592D01*
X156842214Y-132819999D01*
X156842214Y-132820000D01*
X156861322Y-133038407D01*
X156861324Y-133038417D01*
X156918065Y-133250180D01*
X156918070Y-133250194D01*
X156983349Y-133390185D01*
X157010725Y-133448893D01*
X157136480Y-133628489D01*
X157291511Y-133783520D01*
X157471107Y-133909275D01*
X157617670Y-133977618D01*
X157670109Y-134023790D01*
X157689261Y-134090984D01*
X157669045Y-134157865D01*
X157617670Y-134202382D01*
X157471107Y-134270724D01*
X157392593Y-134325701D01*
X157291511Y-134396480D01*
X157291509Y-134396481D01*
X157291506Y-134396484D01*
X157136484Y-134551506D01*
X157136481Y-134551509D01*
X157136480Y-134551511D01*
X157057925Y-134663698D01*
X157010724Y-134731108D01*
X157010723Y-134731110D01*
X156918070Y-134929805D01*
X156918065Y-134929819D01*
X156861324Y-135141582D01*
X156861322Y-135141592D01*
X156842214Y-135359999D01*
X156842214Y-135360000D01*
X156861322Y-135578407D01*
X156861324Y-135578417D01*
X156918065Y-135790180D01*
X156918070Y-135790194D01*
X156983349Y-135930185D01*
X157010725Y-135988893D01*
X157136480Y-136168489D01*
X157291511Y-136323520D01*
X157471107Y-136449275D01*
X157617670Y-136517618D01*
X157670109Y-136563790D01*
X157689261Y-136630984D01*
X157669045Y-136697865D01*
X157617670Y-136742382D01*
X157471107Y-136810724D01*
X157392593Y-136865701D01*
X157291511Y-136936480D01*
X157291509Y-136936481D01*
X157291506Y-136936484D01*
X157136484Y-137091506D01*
X157136481Y-137091509D01*
X157136480Y-137091511D01*
X157057925Y-137203698D01*
X157010724Y-137271108D01*
X157010723Y-137271110D01*
X156918070Y-137469805D01*
X156918065Y-137469819D01*
X156861324Y-137681582D01*
X156861322Y-137681592D01*
X156842214Y-137899999D01*
X156842214Y-137900000D01*
X156861322Y-138118407D01*
X156861324Y-138118417D01*
X156918065Y-138330180D01*
X156918070Y-138330194D01*
X156998968Y-138503680D01*
X157010725Y-138528893D01*
X157136480Y-138708489D01*
X157291511Y-138863520D01*
X157471107Y-138989275D01*
X157590652Y-139045019D01*
X157669805Y-139081929D01*
X157669807Y-139081929D01*
X157669812Y-139081932D01*
X157881588Y-139138677D01*
X158056317Y-139153964D01*
X158099999Y-139157786D01*
X158100000Y-139157786D01*
X158100001Y-139157786D01*
X158136402Y-139154601D01*
X158318412Y-139138677D01*
X158530188Y-139081932D01*
X158728893Y-138989275D01*
X158908489Y-138863520D01*
X159063520Y-138708489D01*
X159189275Y-138528893D01*
X159192446Y-138522093D01*
X159238620Y-138469654D01*
X159304827Y-138450500D01*
X159552806Y-138450500D01*
X159619845Y-138470185D01*
X159653377Y-138504285D01*
X159654179Y-138503680D01*
X159733467Y-138608674D01*
X159786128Y-138678407D01*
X159943698Y-138822052D01*
X160124981Y-138934298D01*
X160323802Y-139011321D01*
X160533390Y-139050500D01*
X160533392Y-139050500D01*
X160746608Y-139050500D01*
X160746610Y-139050500D01*
X160956198Y-139011321D01*
X161155019Y-138934298D01*
X161336302Y-138822052D01*
X161493872Y-138678407D01*
X161622366Y-138508255D01*
X161624644Y-138503680D01*
X161717403Y-138317394D01*
X161717403Y-138317393D01*
X161717405Y-138317389D01*
X161775756Y-138112310D01*
X161795429Y-137900000D01*
X161775756Y-137687690D01*
X161717405Y-137482611D01*
X161717403Y-137482606D01*
X161717403Y-137482605D01*
X161622367Y-137291746D01*
X161493872Y-137121593D01*
X161460868Y-137091506D01*
X161336302Y-136977948D01*
X161155019Y-136865702D01*
X161155017Y-136865701D01*
X161013103Y-136810724D01*
X160956198Y-136788679D01*
X160759385Y-136751888D01*
X160697106Y-136720221D01*
X160661833Y-136659908D01*
X160664767Y-136590100D01*
X160704976Y-136532960D01*
X160759384Y-136508111D01*
X160956198Y-136471321D01*
X161155019Y-136394298D01*
X161336302Y-136282052D01*
X161493872Y-136138407D01*
X161622366Y-135968255D01*
X161624644Y-135963680D01*
X161717403Y-135777394D01*
X161717403Y-135777393D01*
X161717405Y-135777389D01*
X161775756Y-135572310D01*
X161795429Y-135360000D01*
X161775756Y-135147690D01*
X161717405Y-134942611D01*
X161717403Y-134942606D01*
X161717403Y-134942605D01*
X161622367Y-134751746D01*
X161493872Y-134581593D01*
X161460868Y-134551506D01*
X161336302Y-134437948D01*
X161155019Y-134325702D01*
X161155017Y-134325701D01*
X161013103Y-134270724D01*
X160956198Y-134248679D01*
X160759385Y-134211888D01*
X160697106Y-134180221D01*
X160661833Y-134119908D01*
X160664767Y-134050100D01*
X160704976Y-133992960D01*
X160759384Y-133968111D01*
X160956198Y-133931321D01*
X161155019Y-133854298D01*
X161336302Y-133742052D01*
X161493872Y-133598407D01*
X161622366Y-133428255D01*
X161624644Y-133423680D01*
X161717403Y-133237394D01*
X161717403Y-133237393D01*
X161717405Y-133237389D01*
X161775756Y-133032310D01*
X161795429Y-132820000D01*
X161775756Y-132607690D01*
X161717405Y-132402611D01*
X161717403Y-132402606D01*
X161717403Y-132402605D01*
X161622367Y-132211746D01*
X161493872Y-132041593D01*
X161460868Y-132011506D01*
X161336302Y-131897948D01*
X161155019Y-131785702D01*
X161155017Y-131785701D01*
X161013103Y-131730724D01*
X160956198Y-131708679D01*
X160759385Y-131671888D01*
X160697106Y-131640221D01*
X160661833Y-131579908D01*
X160664767Y-131510100D01*
X160704976Y-131452960D01*
X160759384Y-131428111D01*
X160956198Y-131391321D01*
X161155019Y-131314298D01*
X161336302Y-131202052D01*
X161493872Y-131058407D01*
X161622366Y-130888255D01*
X161639287Y-130854273D01*
X161717403Y-130697394D01*
X161717403Y-130697393D01*
X161717405Y-130697389D01*
X161775756Y-130492310D01*
X161795429Y-130280000D01*
X161775756Y-130067690D01*
X161717405Y-129862611D01*
X161717403Y-129862606D01*
X161717403Y-129862605D01*
X161622367Y-129671746D01*
X161493872Y-129501593D01*
X161442061Y-129454361D01*
X161336302Y-129357948D01*
X161155019Y-129245702D01*
X161155017Y-129245701D01*
X161013103Y-129190724D01*
X160956198Y-129168679D01*
X160759385Y-129131888D01*
X160697106Y-129100221D01*
X160661833Y-129039908D01*
X160664767Y-128970100D01*
X160704976Y-128912960D01*
X160759384Y-128888111D01*
X160956198Y-128851321D01*
X161155019Y-128774298D01*
X161336302Y-128662052D01*
X161493872Y-128518407D01*
X161622366Y-128348255D01*
X161641278Y-128310274D01*
X161717403Y-128157394D01*
X161717403Y-128157393D01*
X161717405Y-128157389D01*
X161775756Y-127952310D01*
X161795429Y-127740000D01*
X161775756Y-127527690D01*
X161717405Y-127322611D01*
X161717403Y-127322606D01*
X161717403Y-127322605D01*
X161622367Y-127131746D01*
X161493872Y-126961593D01*
X161389826Y-126866742D01*
X161336302Y-126817948D01*
X161155019Y-126705702D01*
X161155017Y-126705701D01*
X161055608Y-126667190D01*
X160956198Y-126628679D01*
X160759385Y-126591888D01*
X160697106Y-126560221D01*
X160661833Y-126499908D01*
X160664767Y-126430100D01*
X160704976Y-126372960D01*
X160759384Y-126348111D01*
X160956198Y-126311321D01*
X161155019Y-126234298D01*
X161336302Y-126122052D01*
X161493872Y-125978407D01*
X161622366Y-125808255D01*
X161639091Y-125774667D01*
X161717403Y-125617394D01*
X161717403Y-125617393D01*
X161717405Y-125617389D01*
X161775756Y-125412310D01*
X161795429Y-125200000D01*
X161775756Y-124987690D01*
X161717405Y-124782611D01*
X161717403Y-124782606D01*
X161717403Y-124782605D01*
X161622367Y-124591746D01*
X161493872Y-124421593D01*
X161460868Y-124391506D01*
X161336302Y-124277948D01*
X161155019Y-124165702D01*
X161155017Y-124165701D01*
X161013103Y-124110724D01*
X160956198Y-124088679D01*
X160759385Y-124051888D01*
X160697106Y-124020221D01*
X160661833Y-123959908D01*
X160664767Y-123890100D01*
X160704976Y-123832960D01*
X160759384Y-123808111D01*
X160956198Y-123771321D01*
X161155019Y-123694298D01*
X161336302Y-123582052D01*
X161493872Y-123438407D01*
X161622366Y-123268255D01*
X161624644Y-123263680D01*
X161717403Y-123077394D01*
X161717403Y-123077393D01*
X161717405Y-123077389D01*
X161775756Y-122872310D01*
X161795429Y-122660000D01*
X161775756Y-122447690D01*
X161717405Y-122242611D01*
X161717403Y-122242606D01*
X161717403Y-122242605D01*
X161622367Y-122051746D01*
X161493872Y-121881593D01*
X161418397Y-121812788D01*
X161336302Y-121737948D01*
X161155019Y-121625702D01*
X161155017Y-121625701D01*
X161055608Y-121587190D01*
X160956198Y-121548679D01*
X160783456Y-121516387D01*
X160721176Y-121484719D01*
X160685903Y-121424407D01*
X160688837Y-121354599D01*
X160729046Y-121297459D01*
X160793764Y-121271128D01*
X160806233Y-121270499D01*
X161534864Y-121270499D01*
X161534879Y-121270497D01*
X161534882Y-121270497D01*
X161559987Y-121267586D01*
X161559988Y-121267585D01*
X161559991Y-121267585D01*
X161662765Y-121222206D01*
X161742206Y-121142765D01*
X161787585Y-121039991D01*
X161790500Y-121014865D01*
X161790499Y-119225136D01*
X161790497Y-119225117D01*
X161787586Y-119200012D01*
X161787585Y-119200010D01*
X161787585Y-119200009D01*
X161742206Y-119097235D01*
X161662765Y-119017794D01*
X161662763Y-119017793D01*
X161559992Y-118972415D01*
X161534865Y-118969500D01*
X159745143Y-118969500D01*
X159745117Y-118969502D01*
X159720012Y-118972413D01*
X159720008Y-118972415D01*
X159617235Y-119017793D01*
X159537794Y-119097234D01*
X159492415Y-119200006D01*
X159492415Y-119200008D01*
X159489500Y-119225131D01*
X159489500Y-119445500D01*
X159469815Y-119512539D01*
X159417011Y-119558294D01*
X159365500Y-119569500D01*
X159304827Y-119569500D01*
X159237788Y-119549815D01*
X159192446Y-119497907D01*
X159189275Y-119491108D01*
X159189275Y-119491107D01*
X159063520Y-119311511D01*
X158908489Y-119156480D01*
X158728893Y-119030725D01*
X158722848Y-119027906D01*
X158530194Y-118938070D01*
X158530180Y-118938065D01*
X158318417Y-118881324D01*
X158318407Y-118881322D01*
X158100001Y-118862214D01*
X158099999Y-118862214D01*
X157881592Y-118881322D01*
X157881582Y-118881324D01*
X157669819Y-118938065D01*
X157669805Y-118938070D01*
X157471110Y-119030723D01*
X157471108Y-119030724D01*
X157471107Y-119030725D01*
X157291511Y-119156480D01*
X157291509Y-119156481D01*
X157291506Y-119156484D01*
X157136484Y-119311506D01*
X157136481Y-119311509D01*
X157136480Y-119311511D01*
X157098903Y-119365176D01*
X157010724Y-119491108D01*
X157010723Y-119491110D01*
X156918070Y-119689805D01*
X156918065Y-119689819D01*
X156861324Y-119901582D01*
X156861322Y-119901592D01*
X156842214Y-120119999D01*
X156125500Y-120119999D01*
X156125500Y-101670525D01*
X156087984Y-101530515D01*
X156082862Y-101521644D01*
X156070143Y-101499612D01*
X156015512Y-101404988D01*
X156015508Y-101404983D01*
X155021998Y-100411473D01*
X154988513Y-100350150D01*
X154989903Y-100291703D01*
X155030635Y-100139692D01*
X155050468Y-99913000D01*
X155049816Y-99905552D01*
X155039533Y-99788013D01*
X155030635Y-99686308D01*
X154971739Y-99466504D01*
X154875568Y-99260266D01*
X154745047Y-99073861D01*
X154745045Y-99073858D01*
X154584141Y-98912954D01*
X154397734Y-98782432D01*
X154397732Y-98782431D01*
X154191497Y-98686261D01*
X154191488Y-98686258D01*
X153971697Y-98627366D01*
X153971693Y-98627365D01*
X153971692Y-98627365D01*
X153971691Y-98627364D01*
X153971686Y-98627364D01*
X153745002Y-98607532D01*
X153744998Y-98607532D01*
X153518313Y-98627364D01*
X153518302Y-98627366D01*
X153298511Y-98686258D01*
X153298502Y-98686261D01*
X153092267Y-98782431D01*
X153092265Y-98782432D01*
X152905858Y-98912954D01*
X152744954Y-99073858D01*
X152614432Y-99260265D01*
X152609501Y-99270840D01*
X152600144Y-99290906D01*
X152553974Y-99343343D01*
X152487763Y-99362500D01*
X148502237Y-99362500D01*
X148435198Y-99342815D01*
X148389855Y-99290906D01*
X148375568Y-99260266D01*
X148245047Y-99073861D01*
X148245045Y-99073858D01*
X148084141Y-98912954D01*
X147897734Y-98782432D01*
X147897732Y-98782431D01*
X147691497Y-98686261D01*
X147691488Y-98686258D01*
X147471697Y-98627366D01*
X147471693Y-98627365D01*
X147471692Y-98627365D01*
X147471691Y-98627364D01*
X147471686Y-98627364D01*
X147245002Y-98607532D01*
X147244998Y-98607532D01*
X147018313Y-98627364D01*
X147018302Y-98627366D01*
X146798511Y-98686258D01*
X146798502Y-98686261D01*
X146592267Y-98782431D01*
X146592265Y-98782432D01*
X146405858Y-98912954D01*
X146244954Y-99073858D01*
X146114432Y-99260265D01*
X146114431Y-99260267D01*
X146018261Y-99466502D01*
X146018258Y-99466511D01*
X145959366Y-99686302D01*
X145959364Y-99686313D01*
X145939532Y-99912998D01*
X145939532Y-99913001D01*
X145959364Y-100139686D01*
X145959366Y-100139697D01*
X146018258Y-100359488D01*
X146018261Y-100359497D01*
X146114431Y-100565732D01*
X146114432Y-100565734D01*
X146244954Y-100752141D01*
X146405858Y-100913045D01*
X146452693Y-100945839D01*
X146592266Y-101043568D01*
X146798504Y-101139739D01*
X146798509Y-101139740D01*
X146798511Y-101139741D01*
X146840934Y-101151108D01*
X147018308Y-101198635D01*
X147180230Y-101212801D01*
X147244998Y-101218468D01*
X147245000Y-101218468D01*
X147245002Y-101218468D01*
X147301673Y-101213509D01*
X147471692Y-101198635D01*
X147691496Y-101139739D01*
X147897734Y-101043568D01*
X148084139Y-100913047D01*
X148245047Y-100752139D01*
X148375568Y-100565734D01*
X148389855Y-100535093D01*
X148436026Y-100482657D01*
X148502237Y-100463500D01*
X152487763Y-100463500D01*
X152554802Y-100483185D01*
X152600144Y-100535093D01*
X152614141Y-100565110D01*
X152614432Y-100565734D01*
X152744954Y-100752141D01*
X152905858Y-100913045D01*
X152952693Y-100945839D01*
X153092266Y-101043568D01*
X153298504Y-101139739D01*
X153298509Y-101139740D01*
X153298511Y-101139741D01*
X153340934Y-101151108D01*
X153518308Y-101198635D01*
X153680230Y-101212801D01*
X153744998Y-101218468D01*
X153745000Y-101218468D01*
X153745002Y-101218468D01*
X153801673Y-101213509D01*
X153971692Y-101198635D01*
X154123702Y-101157904D01*
X154193548Y-101159567D01*
X154243473Y-101189998D01*
X154988181Y-101934706D01*
X155021666Y-101996029D01*
X155024500Y-102022387D01*
X155024500Y-124945612D01*
X155004815Y-125012651D01*
X154988181Y-125033293D01*
X144299853Y-135721620D01*
X144238530Y-135755105D01*
X144168838Y-135750121D01*
X144112905Y-135708249D01*
X144088488Y-135642785D01*
X144092397Y-135601847D01*
X144098677Y-135578412D01*
X144117786Y-135360000D01*
X144098677Y-135141588D01*
X144055591Y-134980790D01*
X144041934Y-134929819D01*
X144041929Y-134929805D01*
X143958899Y-134751746D01*
X143949275Y-134731107D01*
X143823520Y-134551511D01*
X143668489Y-134396480D01*
X143488893Y-134270725D01*
X143342330Y-134202382D01*
X143289890Y-134156210D01*
X143270738Y-134089017D01*
X143290953Y-134022135D01*
X143342330Y-133977618D01*
X143362718Y-133968111D01*
X143488893Y-133909275D01*
X143668489Y-133783520D01*
X143823520Y-133628489D01*
X143949275Y-133448893D01*
X144041932Y-133250188D01*
X144098677Y-133038412D01*
X144117786Y-132820000D01*
X144098677Y-132601588D01*
X144066120Y-132480083D01*
X144067783Y-132410233D01*
X144098212Y-132360311D01*
X153983510Y-122475015D01*
X154055984Y-122349485D01*
X154093500Y-122209475D01*
X154093500Y-114105525D01*
X154055984Y-113965515D01*
X153983510Y-113839985D01*
X153436819Y-113293294D01*
X153403334Y-113231971D01*
X153400500Y-113205613D01*
X153400500Y-112536456D01*
X153362052Y-112343170D01*
X153362051Y-112343169D01*
X153362051Y-112343165D01*
X153362049Y-112343160D01*
X153286635Y-112161092D01*
X153286628Y-112161079D01*
X153177139Y-111997218D01*
X153177136Y-111997214D01*
X153037785Y-111857863D01*
X153037781Y-111857860D01*
X152873920Y-111748371D01*
X152873907Y-111748364D01*
X152691839Y-111672950D01*
X152691829Y-111672947D01*
X152498543Y-111634500D01*
X152498541Y-111634500D01*
X152301459Y-111634500D01*
X152301457Y-111634500D01*
X152108170Y-111672947D01*
X152108160Y-111672950D01*
X151926092Y-111748364D01*
X151926079Y-111748371D01*
X151762218Y-111857860D01*
X151762214Y-111857863D01*
X151622863Y-111997214D01*
X151622860Y-111997218D01*
X151513371Y-112161079D01*
X151513364Y-112161092D01*
X151437950Y-112343160D01*
X151437947Y-112343170D01*
X151399500Y-112536456D01*
X151399500Y-112870259D01*
X151380000Y-112936667D01*
X151380000Y-114559722D01*
X151303694Y-114515667D01*
X151189244Y-114485000D01*
X151070756Y-114485000D01*
X150956306Y-114515667D01*
X150880000Y-114559722D01*
X150880000Y-112929413D01*
X150868678Y-112914546D01*
X150860500Y-112870259D01*
X150860500Y-112536456D01*
X150822052Y-112343170D01*
X150822051Y-112343169D01*
X150822051Y-112343165D01*
X150822049Y-112343160D01*
X150746635Y-112161092D01*
X150746628Y-112161079D01*
X150637139Y-111997218D01*
X150637136Y-111997214D01*
X150497785Y-111857863D01*
X150497781Y-111857860D01*
X150333920Y-111748371D01*
X150333907Y-111748364D01*
X150151839Y-111672950D01*
X150151829Y-111672947D01*
X149958543Y-111634500D01*
X149958541Y-111634500D01*
X149761459Y-111634500D01*
X149761457Y-111634500D01*
X149568170Y-111672947D01*
X149568160Y-111672950D01*
X149386092Y-111748364D01*
X149386079Y-111748371D01*
X149222218Y-111857860D01*
X149222214Y-111857863D01*
X149082863Y-111997214D01*
X149082860Y-111997218D01*
X148973371Y-112161079D01*
X148973364Y-112161092D01*
X148897950Y-112343160D01*
X148897947Y-112343170D01*
X148859500Y-112536456D01*
X148859500Y-112536459D01*
X148859500Y-113533541D01*
X148859500Y-113533543D01*
X148859499Y-113533543D01*
X148897947Y-113726829D01*
X148897950Y-113726839D01*
X148973364Y-113908907D01*
X148973371Y-113908920D01*
X149082860Y-114072781D01*
X149082863Y-114072785D01*
X149123180Y-114113101D01*
X149156666Y-114174424D01*
X149159500Y-114200783D01*
X149159500Y-114241055D01*
X149139815Y-114308094D01*
X149087011Y-114353849D01*
X149017853Y-114363793D01*
X148966610Y-114344158D01*
X148921815Y-114314227D01*
X148921804Y-114314221D01*
X148794332Y-114261421D01*
X148794322Y-114261418D01*
X148658995Y-114234500D01*
X148658993Y-114234500D01*
X148521007Y-114234500D01*
X148521005Y-114234500D01*
X148385677Y-114261418D01*
X148385667Y-114261421D01*
X148258195Y-114314221D01*
X148258182Y-114314228D01*
X148143458Y-114390885D01*
X148143454Y-114390888D01*
X148045888Y-114488454D01*
X148045885Y-114488458D01*
X147969228Y-114603182D01*
X147969221Y-114603195D01*
X147916421Y-114730667D01*
X147916418Y-114730677D01*
X147889500Y-114866004D01*
X147889500Y-114866007D01*
X147889500Y-115003993D01*
X147889500Y-115003995D01*
X147889499Y-115003995D01*
X147916418Y-115139322D01*
X147916420Y-115139328D01*
X147967666Y-115263047D01*
X147975135Y-115332517D01*
X147943860Y-115394996D01*
X147883771Y-115430648D01*
X147853116Y-115434500D01*
X147845148Y-115434500D01*
X147845118Y-115434502D01*
X147820011Y-115437414D01*
X147820008Y-115437415D01*
X147717235Y-115482793D01*
X147637794Y-115562234D01*
X147592415Y-115665006D01*
X147592415Y-115665008D01*
X147589500Y-115690131D01*
X147589500Y-116160500D01*
X147569815Y-116227539D01*
X147517011Y-116273294D01*
X147465500Y-116284500D01*
X127580525Y-116284500D01*
X127475517Y-116312637D01*
X127440514Y-116322016D01*
X127314986Y-116394489D01*
X127314983Y-116394491D01*
X120754378Y-122955095D01*
X120693055Y-122988580D01*
X120623363Y-122983596D01*
X120579015Y-122955094D01*
X120525785Y-122901863D01*
X120525781Y-122901860D01*
X120361920Y-122792371D01*
X120361907Y-122792364D01*
X120179839Y-122716950D01*
X120179829Y-122716947D01*
X119986543Y-122678500D01*
X119986541Y-122678500D01*
X119789459Y-122678500D01*
X119789457Y-122678500D01*
X119596170Y-122716947D01*
X119596160Y-122716950D01*
X119414092Y-122792364D01*
X119414079Y-122792371D01*
X119250218Y-122901860D01*
X119250214Y-122901863D01*
X119110863Y-123041214D01*
X119110860Y-123041218D01*
X119001371Y-123205079D01*
X119001364Y-123205092D01*
X118925950Y-123387160D01*
X118925947Y-123387170D01*
X118887500Y-123580456D01*
X118887500Y-123914259D01*
X118868000Y-123980667D01*
X118868000Y-125603722D01*
X118791694Y-125559667D01*
X118677244Y-125529000D01*
X118558756Y-125529000D01*
X118444306Y-125559667D01*
X118368000Y-125603722D01*
X118368000Y-123973413D01*
X118356678Y-123958546D01*
X118348500Y-123914259D01*
X118348500Y-123580456D01*
X118310052Y-123387170D01*
X118310051Y-123387169D01*
X118310051Y-123387165D01*
X118266529Y-123282093D01*
X118234635Y-123205092D01*
X118234628Y-123205079D01*
X118125139Y-123041218D01*
X118125136Y-123041214D01*
X117985785Y-122901863D01*
X117985781Y-122901860D01*
X117821920Y-122792371D01*
X117821907Y-122792364D01*
X117639839Y-122716950D01*
X117639829Y-122716947D01*
X117446543Y-122678500D01*
X117446541Y-122678500D01*
X117413386Y-122678500D01*
X117346347Y-122658815D01*
X117300592Y-122606011D01*
X117290648Y-122536853D01*
X117319673Y-122473297D01*
X117325705Y-122466819D01*
X124355110Y-115437414D01*
X131631510Y-108161015D01*
X131703984Y-108035485D01*
X131707595Y-108022008D01*
X131715373Y-107992984D01*
X131728205Y-107945091D01*
X131741500Y-107895475D01*
X131741500Y-99956525D01*
X131703984Y-99816515D01*
X131693707Y-99798714D01*
X131666852Y-99752200D01*
X131631512Y-99690988D01*
X131631508Y-99690983D01*
X128798819Y-96858294D01*
X128765334Y-96796971D01*
X128762500Y-96770613D01*
X128762500Y-96101456D01*
X128724052Y-95908170D01*
X128724051Y-95908169D01*
X128724051Y-95908165D01*
X128703892Y-95859496D01*
X128648635Y-95726092D01*
X128648628Y-95726079D01*
X128539139Y-95562218D01*
X128539136Y-95562214D01*
X128399785Y-95422863D01*
X128399781Y-95422860D01*
X128385022Y-95412998D01*
X145939532Y-95412998D01*
X145939532Y-95413001D01*
X145959364Y-95639686D01*
X145959366Y-95639697D01*
X146018258Y-95859488D01*
X146018261Y-95859497D01*
X146114431Y-96065732D01*
X146114432Y-96065734D01*
X146244954Y-96252141D01*
X146405858Y-96413045D01*
X146405861Y-96413047D01*
X146592266Y-96543568D01*
X146798504Y-96639739D01*
X147018308Y-96698635D01*
X147180230Y-96712801D01*
X147244998Y-96718468D01*
X147245000Y-96718468D01*
X147245002Y-96718468D01*
X147301673Y-96713509D01*
X147471692Y-96698635D01*
X147691496Y-96639739D01*
X147897734Y-96543568D01*
X148084139Y-96413047D01*
X148245047Y-96252139D01*
X148375568Y-96065734D01*
X148471739Y-95859496D01*
X148530635Y-95639692D01*
X148550468Y-95413000D01*
X148550468Y-95412998D01*
X152439532Y-95412998D01*
X152439532Y-95413001D01*
X152459364Y-95639686D01*
X152459366Y-95639697D01*
X152518258Y-95859488D01*
X152518261Y-95859497D01*
X152614431Y-96065732D01*
X152614432Y-96065734D01*
X152744954Y-96252141D01*
X152905858Y-96413045D01*
X152905861Y-96413047D01*
X153092266Y-96543568D01*
X153298504Y-96639739D01*
X153518308Y-96698635D01*
X153680230Y-96712801D01*
X153744998Y-96718468D01*
X153745000Y-96718468D01*
X153745002Y-96718468D01*
X153801673Y-96713509D01*
X153971692Y-96698635D01*
X154191496Y-96639739D01*
X154397734Y-96543568D01*
X154584139Y-96413047D01*
X154745047Y-96252139D01*
X154875568Y-96065734D01*
X154971739Y-95859496D01*
X155030635Y-95639692D01*
X155050468Y-95413000D01*
X155048333Y-95388602D01*
X155043688Y-95335506D01*
X155030635Y-95186308D01*
X154971739Y-94966504D01*
X154875568Y-94760266D01*
X154745047Y-94573861D01*
X154745045Y-94573858D01*
X154584141Y-94412954D01*
X154397734Y-94282432D01*
X154397732Y-94282431D01*
X154191497Y-94186261D01*
X154191488Y-94186258D01*
X153971697Y-94127366D01*
X153971693Y-94127365D01*
X153971692Y-94127365D01*
X153971691Y-94127364D01*
X153971686Y-94127364D01*
X153745002Y-94107532D01*
X153744998Y-94107532D01*
X153518313Y-94127364D01*
X153518302Y-94127366D01*
X153298511Y-94186258D01*
X153298502Y-94186261D01*
X153092267Y-94282431D01*
X153092265Y-94282432D01*
X152905858Y-94412954D01*
X152744954Y-94573858D01*
X152614432Y-94760265D01*
X152614431Y-94760267D01*
X152518261Y-94966502D01*
X152518258Y-94966511D01*
X152459366Y-95186302D01*
X152459364Y-95186313D01*
X152439532Y-95412998D01*
X148550468Y-95412998D01*
X148548333Y-95388602D01*
X148543688Y-95335506D01*
X148530635Y-95186308D01*
X148471739Y-94966504D01*
X148375568Y-94760266D01*
X148245047Y-94573861D01*
X148245045Y-94573858D01*
X148084141Y-94412954D01*
X147897734Y-94282432D01*
X147897732Y-94282431D01*
X147691497Y-94186261D01*
X147691488Y-94186258D01*
X147471697Y-94127366D01*
X147471693Y-94127365D01*
X147471692Y-94127365D01*
X147471691Y-94127364D01*
X147471686Y-94127364D01*
X147245002Y-94107532D01*
X147244998Y-94107532D01*
X147018313Y-94127364D01*
X147018302Y-94127366D01*
X146798511Y-94186258D01*
X146798502Y-94186261D01*
X146592267Y-94282431D01*
X146592265Y-94282432D01*
X146405858Y-94412954D01*
X146244954Y-94573858D01*
X146114432Y-94760265D01*
X146114431Y-94760267D01*
X146018261Y-94966502D01*
X146018258Y-94966511D01*
X145959366Y-95186302D01*
X145959364Y-95186313D01*
X145939532Y-95412998D01*
X128385022Y-95412998D01*
X128235920Y-95313371D01*
X128235907Y-95313364D01*
X128053839Y-95237950D01*
X128053829Y-95237947D01*
X127860543Y-95199500D01*
X127860541Y-95199500D01*
X127663459Y-95199500D01*
X127663457Y-95199500D01*
X127470170Y-95237947D01*
X127470160Y-95237950D01*
X127288092Y-95313364D01*
X127288079Y-95313371D01*
X127124218Y-95422860D01*
X127124214Y-95422863D01*
X126984863Y-95562214D01*
X126984860Y-95562218D01*
X126875371Y-95726079D01*
X126875364Y-95726092D01*
X126799950Y-95908160D01*
X126799947Y-95908170D01*
X126761500Y-96101456D01*
X126761500Y-96435259D01*
X126742000Y-96501667D01*
X126742000Y-98124722D01*
X126665694Y-98080667D01*
X126551244Y-98050000D01*
X126432756Y-98050000D01*
X126318306Y-98080667D01*
X126242000Y-98124722D01*
X126242000Y-96494413D01*
X126230678Y-96479546D01*
X126222500Y-96435259D01*
X126222500Y-96101456D01*
X126184052Y-95908170D01*
X126184051Y-95908169D01*
X126184051Y-95908165D01*
X126163892Y-95859496D01*
X126108635Y-95726092D01*
X126108628Y-95726079D01*
X125999139Y-95562218D01*
X125999136Y-95562214D01*
X125859785Y-95422863D01*
X125859781Y-95422860D01*
X125695920Y-95313371D01*
X125695907Y-95313364D01*
X125513839Y-95237950D01*
X125513825Y-95237946D01*
X125504535Y-95236098D01*
X125442625Y-95203711D01*
X125408053Y-95142994D01*
X125411796Y-95073225D01*
X125441048Y-95026803D01*
X129330033Y-91137819D01*
X129391356Y-91104334D01*
X129417714Y-91101500D01*
X139010472Y-91101500D01*
X139010474Y-91101500D01*
X139010475Y-91101500D01*
X139150485Y-91063984D01*
X139276015Y-90991510D01*
X143061510Y-87206014D01*
X143133984Y-87080485D01*
X143171500Y-86940474D01*
X143171500Y-86795525D01*
X143171500Y-83858525D01*
X143133984Y-83718515D01*
X143121654Y-83697159D01*
X143061510Y-83592985D01*
X141826819Y-82358294D01*
X141793334Y-82296971D01*
X141790500Y-82270613D01*
X141790500Y-81601456D01*
X141752052Y-81408170D01*
X141752051Y-81408169D01*
X141752051Y-81408165D01*
X141724262Y-81341076D01*
X141676635Y-81226092D01*
X141676628Y-81226079D01*
X141567139Y-81062218D01*
X141567136Y-81062214D01*
X141427785Y-80922863D01*
X141427781Y-80922860D01*
X141263920Y-80813371D01*
X141263907Y-80813364D01*
X141081839Y-80737950D01*
X141081829Y-80737947D01*
X140888543Y-80699500D01*
X140888541Y-80699500D01*
X140691459Y-80699500D01*
X140691457Y-80699500D01*
X140498170Y-80737947D01*
X140498160Y-80737950D01*
X140316092Y-80813364D01*
X140316079Y-80813371D01*
X140152218Y-80922860D01*
X140152214Y-80922863D01*
X140012863Y-81062214D01*
X140012860Y-81062218D01*
X139903371Y-81226079D01*
X139903364Y-81226092D01*
X139827950Y-81408160D01*
X139827947Y-81408170D01*
X139789500Y-81601456D01*
X139789500Y-81935259D01*
X139770000Y-82001667D01*
X139770000Y-83624722D01*
X139693694Y-83580667D01*
X139579244Y-83550000D01*
X139460756Y-83550000D01*
X139346306Y-83580667D01*
X139270000Y-83624722D01*
X139270000Y-81994413D01*
X139258678Y-81979546D01*
X139250500Y-81935259D01*
X139250500Y-81601456D01*
X139212052Y-81408170D01*
X139212051Y-81408169D01*
X139212051Y-81408165D01*
X139184262Y-81341076D01*
X139136635Y-81226092D01*
X139136628Y-81226079D01*
X139027139Y-81062218D01*
X139027136Y-81062214D01*
X138887785Y-80922863D01*
X138887781Y-80922860D01*
X138723920Y-80813371D01*
X138723907Y-80813364D01*
X138541839Y-80737950D01*
X138541829Y-80737947D01*
X138348543Y-80699500D01*
X138348541Y-80699500D01*
X138342500Y-80699500D01*
X138275461Y-80679815D01*
X138229706Y-80627011D01*
X138218500Y-80575500D01*
X138218500Y-73321527D01*
X138218500Y-73321525D01*
X138180984Y-73181515D01*
X138173613Y-73168748D01*
X138108510Y-73055985D01*
X135910819Y-70858294D01*
X135877334Y-70796971D01*
X135874500Y-70770613D01*
X135874500Y-69991456D01*
X135836052Y-69798170D01*
X135836051Y-69798169D01*
X135836051Y-69798165D01*
X135825562Y-69772841D01*
X135760635Y-69616092D01*
X135760628Y-69616079D01*
X135651139Y-69452218D01*
X135651136Y-69452214D01*
X135511785Y-69312863D01*
X135511781Y-69312860D01*
X135347920Y-69203371D01*
X135347907Y-69203364D01*
X135165839Y-69127950D01*
X135165829Y-69127947D01*
X135136518Y-69122117D01*
X135074607Y-69089732D01*
X135040033Y-69029016D01*
X135043773Y-68959246D01*
X135084640Y-68902575D01*
X135149658Y-68876993D01*
X135160710Y-68876500D01*
X135991613Y-68876500D01*
X136058652Y-68896185D01*
X136079294Y-68912819D01*
X138853985Y-71687510D01*
X138853987Y-71687511D01*
X138853991Y-71687514D01*
X138932608Y-71732903D01*
X138932611Y-71732904D01*
X138932616Y-71732907D01*
X138979515Y-71759984D01*
X139119525Y-71797500D01*
X139119526Y-71797500D01*
X139119528Y-71797500D01*
X152599472Y-71797500D01*
X152599474Y-71797500D01*
X152599475Y-71797500D01*
X152739485Y-71759984D01*
X152786384Y-71732907D01*
X152865015Y-71687510D01*
X153856510Y-70696015D01*
X153928984Y-70570485D01*
X153966500Y-70430474D01*
X153966500Y-70285526D01*
X153966500Y-64533525D01*
X153928984Y-64393515D01*
X153918813Y-64375898D01*
X153870276Y-64291829D01*
X153856512Y-64267988D01*
X153856508Y-64267983D01*
X153446819Y-63858294D01*
X153413334Y-63796971D01*
X153410500Y-63770613D01*
X153410500Y-63101456D01*
X153372052Y-62908170D01*
X153372051Y-62908169D01*
X153372051Y-62908165D01*
X153372049Y-62908160D01*
X153296635Y-62726092D01*
X153296628Y-62726079D01*
X153187139Y-62562218D01*
X153187136Y-62562214D01*
X153047785Y-62422863D01*
X153047781Y-62422860D01*
X152883920Y-62313371D01*
X152883907Y-62313364D01*
X152701839Y-62237950D01*
X152701829Y-62237947D01*
X152508543Y-62199500D01*
X152508541Y-62199500D01*
X152311459Y-62199500D01*
X152311457Y-62199500D01*
X152118170Y-62237947D01*
X152118160Y-62237950D01*
X151936092Y-62313364D01*
X151936079Y-62313371D01*
X151772218Y-62422860D01*
X151772214Y-62422863D01*
X151632863Y-62562214D01*
X151632860Y-62562218D01*
X151523371Y-62726079D01*
X151523364Y-62726092D01*
X151447950Y-62908160D01*
X151447947Y-62908170D01*
X151409500Y-63101456D01*
X151409500Y-63435259D01*
X151390000Y-63501667D01*
X151390000Y-65124722D01*
X151313694Y-65080667D01*
X151199244Y-65050000D01*
X151080756Y-65050000D01*
X150966306Y-65080667D01*
X150890000Y-65124722D01*
X150890000Y-63494413D01*
X150878678Y-63479546D01*
X150870500Y-63435259D01*
X150870500Y-63101456D01*
X150832052Y-62908170D01*
X150832051Y-62908169D01*
X150832051Y-62908165D01*
X150832049Y-62908160D01*
X150756635Y-62726092D01*
X150756628Y-62726079D01*
X150647139Y-62562218D01*
X150647136Y-62562214D01*
X150507785Y-62422863D01*
X150507781Y-62422860D01*
X150343920Y-62313371D01*
X150343907Y-62313364D01*
X150161839Y-62237950D01*
X150161829Y-62237947D01*
X149968543Y-62199500D01*
X149968541Y-62199500D01*
X149771459Y-62199500D01*
X149771457Y-62199500D01*
X149578170Y-62237947D01*
X149578160Y-62237950D01*
X149396092Y-62313364D01*
X149396079Y-62313371D01*
X149232218Y-62422860D01*
X149232214Y-62422863D01*
X149092863Y-62562214D01*
X149092860Y-62562218D01*
X148983371Y-62726079D01*
X148983364Y-62726092D01*
X148907950Y-62908160D01*
X148907947Y-62908170D01*
X148869500Y-63101456D01*
X148869500Y-63101459D01*
X148869500Y-64098541D01*
X148869500Y-64098543D01*
X148869499Y-64098543D01*
X148907947Y-64291829D01*
X148907950Y-64291839D01*
X148983364Y-64473907D01*
X148983371Y-64473920D01*
X149092860Y-64637781D01*
X149092863Y-64637785D01*
X149133180Y-64678101D01*
X149166666Y-64739424D01*
X149169500Y-64765783D01*
X149169500Y-64806055D01*
X149149815Y-64873094D01*
X149097011Y-64918849D01*
X149027853Y-64928793D01*
X148976610Y-64909158D01*
X148931815Y-64879227D01*
X148931804Y-64879221D01*
X148804332Y-64826421D01*
X148804322Y-64826418D01*
X148668995Y-64799500D01*
X148668993Y-64799500D01*
X148531007Y-64799500D01*
X148531005Y-64799500D01*
X148395677Y-64826418D01*
X148395667Y-64826421D01*
X148268195Y-64879221D01*
X148268182Y-64879228D01*
X148153458Y-64955885D01*
X148153454Y-64955888D01*
X148055888Y-65053454D01*
X148055885Y-65053458D01*
X147979228Y-65168182D01*
X147979221Y-65168195D01*
X147926421Y-65295667D01*
X147926418Y-65295677D01*
X147899500Y-65431004D01*
X147899500Y-65568993D01*
X147907150Y-65607456D01*
X147900921Y-65677047D01*
X147858057Y-65732224D01*
X147792167Y-65755467D01*
X147724170Y-65739398D01*
X147697851Y-65719326D01*
X147525819Y-65547294D01*
X147492334Y-65485971D01*
X147489500Y-65459613D01*
X147489500Y-54085833D01*
X147509185Y-54018794D01*
X147561989Y-53973039D01*
X147631147Y-53963095D01*
X147694703Y-53992120D01*
G37*
G04 #@! TD.AperFunction*
G04 #@! TA.AperFunction,Conductor*
G36*
X171385703Y-70315715D02*
G01*
X171403578Y-70334866D01*
X172512734Y-71808849D01*
X172678121Y-72028636D01*
X172678349Y-72028941D01*
X173087394Y-72576016D01*
X173088486Y-72577499D01*
X173453783Y-73081509D01*
X173455028Y-73083259D01*
X173773571Y-73539173D01*
X173775076Y-73541376D01*
X174042025Y-73941516D01*
X174043978Y-73944538D01*
X174253632Y-74279452D01*
X174256413Y-74284119D01*
X174405065Y-74546478D01*
X174408155Y-74552286D01*
X174446556Y-74629358D01*
X174451654Y-74639589D01*
X174454572Y-74645882D01*
X174462835Y-74665088D01*
X174471248Y-74734450D01*
X174466030Y-74754882D01*
X174462807Y-74764135D01*
X174460706Y-74769729D01*
X174452662Y-74789673D01*
X174450459Y-74794798D01*
X174442940Y-74811264D01*
X174439498Y-74818218D01*
X174409758Y-74873848D01*
X174404998Y-74881992D01*
X174370350Y-74936402D01*
X174365448Y-74943536D01*
X174323312Y-75000502D01*
X174318271Y-75006871D01*
X174269599Y-75064379D01*
X174264368Y-75070178D01*
X174210322Y-75126434D01*
X174204828Y-75131809D01*
X174146646Y-75185302D01*
X174140781Y-75190366D01*
X174079906Y-75239688D01*
X174073543Y-75244512D01*
X174011500Y-75288481D01*
X174004479Y-75293108D01*
X173937947Y-75333781D01*
X173932149Y-75337113D01*
X173906918Y-75350726D01*
X173902744Y-75352877D01*
X173873519Y-75367244D01*
X173869076Y-75369320D01*
X173840987Y-75381769D01*
X173836217Y-75383765D01*
X173809403Y-75394334D01*
X173804285Y-75396222D01*
X173779163Y-75404868D01*
X173773674Y-75406616D01*
X173757642Y-75411313D01*
X173748816Y-75413551D01*
X173300230Y-75509893D01*
X173296675Y-75510602D01*
X172490175Y-75659294D01*
X172488348Y-75659616D01*
X170263716Y-76035451D01*
X170262213Y-76035696D01*
X167957400Y-76396012D01*
X167955806Y-76396250D01*
X167047040Y-76526246D01*
X167044500Y-76526583D01*
X166436840Y-76600731D01*
X166434954Y-76600947D01*
X166269206Y-76618601D01*
X166255576Y-76619297D01*
X166250985Y-76619278D01*
X166192028Y-76626796D01*
X166189478Y-76627094D01*
X166130390Y-76633387D01*
X166125917Y-76634468D01*
X166112503Y-76636935D01*
X166031461Y-76647269D01*
X166018091Y-76648243D01*
X166012133Y-76648354D01*
X165953979Y-76657117D01*
X165951187Y-76657505D01*
X165892876Y-76664939D01*
X165887112Y-76666459D01*
X165873989Y-76669169D01*
X165813641Y-76678262D01*
X165800367Y-76678699D01*
X165800403Y-76679476D01*
X165792289Y-76679849D01*
X165735828Y-76689940D01*
X165732493Y-76690489D01*
X165675764Y-76699038D01*
X165667958Y-76701287D01*
X165667743Y-76700541D01*
X165655028Y-76704383D01*
X165617087Y-76711164D01*
X165602009Y-76712139D01*
X165602040Y-76712505D01*
X165593942Y-76713178D01*
X165540811Y-76724713D01*
X165536324Y-76725601D01*
X165482813Y-76735166D01*
X165475067Y-76737629D01*
X165474955Y-76737279D01*
X165460645Y-76742119D01*
X165443254Y-76745895D01*
X165418291Y-76748711D01*
X165416010Y-76748735D01*
X165370217Y-76761534D01*
X165363153Y-76763286D01*
X165316697Y-76773373D01*
X165316684Y-76773378D01*
X165316434Y-76773507D01*
X165315862Y-76773673D01*
X165309047Y-76776120D01*
X165308895Y-76775698D01*
X165270876Y-76786754D01*
X165264272Y-76787352D01*
X165264260Y-76787355D01*
X165225756Y-76801505D01*
X165216368Y-76804537D01*
X165185008Y-76813303D01*
X165176869Y-76815209D01*
X165176195Y-76815431D01*
X165144099Y-76830898D01*
X165133047Y-76835579D01*
X165099617Y-76847865D01*
X165099616Y-76847866D01*
X165097893Y-76849081D01*
X165072291Y-76862943D01*
X165057895Y-76868669D01*
X165057894Y-76868669D01*
X165053087Y-76872251D01*
X165032855Y-76884508D01*
X165027458Y-76887109D01*
X165019020Y-76894374D01*
X165016843Y-76896205D01*
X164986458Y-76921174D01*
X164971569Y-76931676D01*
X164966784Y-76934548D01*
X164966629Y-76934672D01*
X164951783Y-76947731D01*
X164933751Y-76961167D01*
X164929663Y-76965140D01*
X164920851Y-76974125D01*
X164916949Y-76978295D01*
X164900675Y-77001037D01*
X164889014Y-77015032D01*
X164875208Y-77029320D01*
X164875206Y-77029323D01*
X164869015Y-77040484D01*
X164857887Y-77057192D01*
X164852052Y-77064578D01*
X164849155Y-77069436D01*
X164839528Y-77086487D01*
X164836892Y-77090170D01*
X164835554Y-77092041D01*
X164835549Y-77092050D01*
X164828561Y-77110652D01*
X164820923Y-77127181D01*
X164811285Y-77144558D01*
X164811280Y-77144570D01*
X164805034Y-77169590D01*
X164801360Y-77180467D01*
X164799773Y-77186073D01*
X164796550Y-77195873D01*
X164789008Y-77215950D01*
X164788504Y-77218047D01*
X164786171Y-77240168D01*
X164783165Y-77257187D01*
X164777774Y-77278781D01*
X164777957Y-77289453D01*
X164776913Y-77300906D01*
X164777513Y-77300948D01*
X164776952Y-77309054D01*
X164777034Y-77310365D01*
X164776587Y-77331032D01*
X164774681Y-77349099D01*
X164774681Y-77349102D01*
X164778153Y-77371081D01*
X164779653Y-77388292D01*
X164780036Y-77410546D01*
X164780036Y-77410548D01*
X164780396Y-77411804D01*
X164784952Y-77438282D01*
X164785094Y-77440584D01*
X164785095Y-77440589D01*
X164789434Y-77453525D01*
X164794350Y-77473600D01*
X164796481Y-77487092D01*
X164798787Y-77494883D01*
X164798443Y-77494984D01*
X164799716Y-77499147D01*
X164800355Y-77498946D01*
X164802797Y-77506690D01*
X164811040Y-77524363D01*
X164813069Y-77529789D01*
X164813083Y-77529784D01*
X164819399Y-77544316D01*
X164823232Y-77554293D01*
X164830669Y-77576464D01*
X164830670Y-77576465D01*
X164830672Y-77576470D01*
X164836984Y-77585993D01*
X164842106Y-77594431D01*
X164849958Y-77608612D01*
X164855734Y-77622536D01*
X164856078Y-77622386D01*
X164859328Y-77629833D01*
X164859953Y-77630869D01*
X164866123Y-77642455D01*
X164872889Y-77656961D01*
X164876472Y-77661230D01*
X164889948Y-77680838D01*
X164890306Y-77681484D01*
X164894052Y-77690123D01*
X164894371Y-77689972D01*
X164897852Y-77697308D01*
X164903994Y-77706805D01*
X164908347Y-77714069D01*
X164916059Y-77727996D01*
X164916062Y-77727999D01*
X164920886Y-77734525D01*
X164920731Y-77734638D01*
X164927553Y-77743235D01*
X164928251Y-77744314D01*
X164930340Y-77747657D01*
X164959255Y-77795633D01*
X164964319Y-77801981D01*
X164963854Y-77802351D01*
X164972832Y-77813248D01*
X164980901Y-77825726D01*
X164987455Y-77837150D01*
X164990700Y-77843574D01*
X165023504Y-77891671D01*
X165025184Y-77894201D01*
X165056815Y-77943111D01*
X165056818Y-77943115D01*
X165056821Y-77943119D01*
X165056824Y-77943122D01*
X165061486Y-77948600D01*
X165069474Y-77959070D01*
X165102019Y-78006787D01*
X165109340Y-78018968D01*
X165110047Y-78020315D01*
X165145158Y-78070063D01*
X165146288Y-78071693D01*
X165180600Y-78121999D01*
X165180602Y-78122001D01*
X165180606Y-78122007D01*
X165180610Y-78122011D01*
X165181604Y-78123122D01*
X165190476Y-78134274D01*
X165245636Y-78212431D01*
X165252511Y-78223514D01*
X165289387Y-78274435D01*
X165290202Y-78275575D01*
X165295266Y-78282749D01*
X165326493Y-78326995D01*
X165334759Y-78337089D01*
X165408945Y-78439531D01*
X165414967Y-78448998D01*
X165453214Y-78500672D01*
X165453976Y-78501712D01*
X165491770Y-78553901D01*
X165498969Y-78562491D01*
X165588509Y-78683468D01*
X165594209Y-78692234D01*
X165595487Y-78693927D01*
X165595488Y-78693928D01*
X165633457Y-78744205D01*
X165634108Y-78745076D01*
X165672761Y-78797300D01*
X165679558Y-78805248D01*
X165780505Y-78938915D01*
X165781215Y-78939993D01*
X165824859Y-78997646D01*
X165824945Y-78997759D01*
X165869168Y-79056316D01*
X165870019Y-79057301D01*
X166878319Y-80389223D01*
X168083889Y-81994721D01*
X168083913Y-81994785D01*
X168083929Y-81994774D01*
X170046748Y-84611630D01*
X170048999Y-84615067D01*
X170052425Y-84619600D01*
X170052426Y-84619601D01*
X170091558Y-84671373D01*
X170130581Y-84723398D01*
X170130583Y-84723399D01*
X170133985Y-84727935D01*
X170136658Y-84731040D01*
X172527065Y-87893510D01*
X172943132Y-88443960D01*
X172943333Y-88444228D01*
X176405936Y-93051015D01*
X179032658Y-96545714D01*
X179054298Y-96574504D01*
X179054859Y-96575256D01*
X180572066Y-98627365D01*
X181001529Y-99208238D01*
X181003038Y-99210325D01*
X181248239Y-99556803D01*
X181743783Y-100257025D01*
X181773511Y-100299031D01*
X181790786Y-100334114D01*
X181791261Y-100335654D01*
X181793537Y-100344076D01*
X181795912Y-100354274D01*
X181797536Y-100362493D01*
X181799554Y-100374900D01*
X181800588Y-100382887D01*
X181802008Y-100397590D01*
X181802509Y-100405259D01*
X181803093Y-100422286D01*
X181803127Y-100429654D01*
X181802643Y-100448901D01*
X181802266Y-100455933D01*
X181800514Y-100477266D01*
X181799776Y-100483993D01*
X181796583Y-100507236D01*
X181795532Y-100513642D01*
X181790772Y-100538543D01*
X181789442Y-100544660D01*
X181783010Y-100571016D01*
X181781433Y-100576853D01*
X181773277Y-100604372D01*
X181771474Y-100609966D01*
X181761549Y-100638427D01*
X181759542Y-100643783D01*
X181747858Y-100672895D01*
X181745659Y-100678034D01*
X181732241Y-100707544D01*
X181729849Y-100712509D01*
X181714725Y-100742195D01*
X181712158Y-100746973D01*
X181695414Y-100776563D01*
X181692661Y-100781190D01*
X181674345Y-100810511D01*
X181671403Y-100815001D01*
X181651686Y-100843719D01*
X181648552Y-100848079D01*
X181627437Y-100876147D01*
X181624107Y-100880379D01*
X181601821Y-100907470D01*
X181598273Y-100911595D01*
X181574902Y-100937591D01*
X181571128Y-100941606D01*
X181546796Y-100966364D01*
X181542785Y-100970265D01*
X181517671Y-100993612D01*
X181513409Y-100997395D01*
X181487627Y-101019243D01*
X181483093Y-101022906D01*
X181456825Y-101043124D01*
X181452007Y-101046651D01*
X181425390Y-101065168D01*
X181420288Y-101068533D01*
X181393426Y-101085317D01*
X181388004Y-101088515D01*
X181361031Y-101103520D01*
X181355297Y-101106517D01*
X181328825Y-101119484D01*
X181305067Y-101128243D01*
X180862690Y-101241635D01*
X180856976Y-101242956D01*
X179893971Y-101441801D01*
X179891566Y-101442273D01*
X177125183Y-101956692D01*
X177123271Y-101957032D01*
X176449819Y-102071382D01*
X176380430Y-102063198D01*
X176326481Y-102018798D01*
X176305101Y-101952280D01*
X176323077Y-101884763D01*
X176372768Y-101838646D01*
X176396941Y-101826329D01*
X176549741Y-101715314D01*
X176549746Y-101715310D01*
X176683310Y-101581746D01*
X176683314Y-101581741D01*
X176794329Y-101428940D01*
X176880085Y-101260637D01*
X176938451Y-101081002D01*
X176968000Y-100894447D01*
X176968000Y-100650000D01*
X174568000Y-100650000D01*
X174568000Y-100894447D01*
X174597548Y-101081002D01*
X174655914Y-101260637D01*
X174741670Y-101428940D01*
X174852685Y-101581741D01*
X174852689Y-101581746D01*
X174986253Y-101715310D01*
X174986258Y-101715314D01*
X175139059Y-101826329D01*
X175307362Y-101912085D01*
X175486997Y-101970451D01*
X175546296Y-101979844D01*
X175609431Y-102009773D01*
X175646362Y-102069085D01*
X175645364Y-102138947D01*
X175606754Y-102197180D01*
X175547656Y-102224567D01*
X174330718Y-102431199D01*
X174328367Y-102431575D01*
X173331748Y-102581173D01*
X173326395Y-102581858D01*
X172818524Y-102635623D01*
X172807903Y-102636288D01*
X172719815Y-102638017D01*
X172705915Y-102636683D01*
X172705865Y-102637307D01*
X172697767Y-102636654D01*
X172697765Y-102636654D01*
X172697762Y-102636654D01*
X172697761Y-102636654D01*
X172641558Y-102639494D01*
X172637738Y-102639628D01*
X172610316Y-102640167D01*
X172601643Y-102640034D01*
X172598891Y-102639895D01*
X172594534Y-102640247D01*
X172587005Y-102640625D01*
X172581520Y-102640733D01*
X172577839Y-102641291D01*
X172569243Y-102642289D01*
X172542573Y-102644443D01*
X172538848Y-102644687D01*
X172519153Y-102645682D01*
X172509887Y-102645263D01*
X172509884Y-102645589D01*
X172501763Y-102645504D01*
X172491036Y-102646802D01*
X172482436Y-102647539D01*
X172482423Y-102647539D01*
X172481260Y-102647753D01*
X172473793Y-102648889D01*
X172457095Y-102650909D01*
X172448707Y-102651924D01*
X172443794Y-102652420D01*
X172422151Y-102654167D01*
X172412096Y-102654126D01*
X172405025Y-102654423D01*
X172398623Y-102655541D01*
X172392201Y-102656360D01*
X172386977Y-102657482D01*
X172382288Y-102658394D01*
X172356250Y-102662941D01*
X172349817Y-102663892D01*
X172322112Y-102667245D01*
X172309333Y-102667889D01*
X172306898Y-102668160D01*
X172263842Y-102678782D01*
X172255477Y-102680542D01*
X172212507Y-102688047D01*
X172208643Y-102688519D01*
X172205277Y-102689207D01*
X172169707Y-102701484D01*
X172158958Y-102704658D01*
X172122423Y-102713672D01*
X172116386Y-102716033D01*
X172105912Y-102719052D01*
X172105924Y-102719086D01*
X172098211Y-102721636D01*
X172072075Y-102734271D01*
X172058567Y-102739844D01*
X172031144Y-102749309D01*
X172031139Y-102749311D01*
X172025617Y-102753042D01*
X171997500Y-102767211D01*
X171985445Y-102771468D01*
X171985441Y-102771469D01*
X171985438Y-102771471D01*
X171985435Y-102771472D01*
X171985435Y-102771473D01*
X171970026Y-102782041D01*
X171953870Y-102791415D01*
X171937033Y-102799555D01*
X171937030Y-102799557D01*
X171918228Y-102815787D01*
X171899331Y-102829233D01*
X171870983Y-102845643D01*
X171870981Y-102845645D01*
X171865432Y-102851207D01*
X171847794Y-102865880D01*
X171841320Y-102870320D01*
X171814008Y-102902237D01*
X171807476Y-102909296D01*
X171807092Y-102909680D01*
X171802707Y-102913856D01*
X171765466Y-102947625D01*
X171764169Y-102949154D01*
X171750835Y-102965699D01*
X171749615Y-102967293D01*
X171724532Y-103010853D01*
X171721300Y-103016155D01*
X171716012Y-103024359D01*
X171713026Y-103028780D01*
X171682737Y-103071605D01*
X171678952Y-103078794D01*
X171678852Y-103078741D01*
X171676377Y-103083697D01*
X171676480Y-103083746D01*
X171673010Y-103091084D01*
X171656983Y-103140999D01*
X171655239Y-103146052D01*
X171652525Y-103153400D01*
X171649783Y-103160199D01*
X171630757Y-103203623D01*
X171630753Y-103203635D01*
X171630392Y-103206008D01*
X171624132Y-103230272D01*
X171623297Y-103232532D01*
X171623295Y-103232541D01*
X171623295Y-103232542D01*
X171619153Y-103277425D01*
X171616091Y-103295636D01*
X171607437Y-103330822D01*
X171607687Y-103342942D01*
X171606299Y-103364168D01*
X171604475Y-103376139D01*
X171604475Y-103376148D01*
X171607392Y-103402411D01*
X171607487Y-103428904D01*
X171605540Y-103447653D01*
X171605540Y-103447661D01*
X171609139Y-103470206D01*
X171610663Y-103487189D01*
X171611135Y-103510033D01*
X171613467Y-103518071D01*
X171618377Y-103552122D01*
X171618387Y-103554660D01*
X171626874Y-103585843D01*
X171629675Y-103598858D01*
X171634767Y-103630755D01*
X171637085Y-103638546D01*
X171636888Y-103638604D01*
X171640790Y-103650417D01*
X171641755Y-103654770D01*
X171655393Y-103692252D01*
X171658513Y-103702081D01*
X171668993Y-103740583D01*
X171670669Y-103744583D01*
X171671280Y-103746311D01*
X171691800Y-103793068D01*
X171694779Y-103800499D01*
X171710413Y-103843464D01*
X171714167Y-103850676D01*
X171714135Y-103850692D01*
X171715789Y-103853467D01*
X171734873Y-103891600D01*
X171737513Y-103897225D01*
X171757663Y-103943139D01*
X171761869Y-103950086D01*
X171761619Y-103950236D01*
X171764409Y-103954472D01*
X171784168Y-103990320D01*
X171786458Y-103994677D01*
X171810400Y-104042513D01*
X171811763Y-104044527D01*
X171815719Y-104050767D01*
X171839788Y-104091354D01*
X171841722Y-104094736D01*
X171849628Y-104109079D01*
X171869045Y-104144308D01*
X171873081Y-104150239D01*
X171901855Y-104196094D01*
X171903451Y-104198711D01*
X171934094Y-104250386D01*
X171936678Y-104253980D01*
X171970600Y-104305696D01*
X171971948Y-104307797D01*
X172007934Y-104365145D01*
X172007607Y-104365350D01*
X172008846Y-104367233D01*
X172009015Y-104367118D01*
X172046964Y-104422176D01*
X172048552Y-104424536D01*
X172080753Y-104473628D01*
X172084742Y-104478255D01*
X172092918Y-104488845D01*
X172174558Y-104607289D01*
X172181658Y-104618908D01*
X172183929Y-104623128D01*
X172183931Y-104623131D01*
X172183933Y-104623135D01*
X172208509Y-104657235D01*
X172218637Y-104671289D01*
X172220135Y-104673415D01*
X172253799Y-104722254D01*
X172257004Y-104725804D01*
X172265563Y-104736399D01*
X172377558Y-104891795D01*
X172385159Y-104903769D01*
X172422029Y-104953519D01*
X172423001Y-104954849D01*
X172459200Y-105005076D01*
X172468305Y-105015961D01*
X172611997Y-105209851D01*
X172616747Y-105217159D01*
X172656758Y-105270257D01*
X172657350Y-105271049D01*
X172696920Y-105324442D01*
X172702569Y-105331051D01*
X172879212Y-105565467D01*
X172879284Y-105565575D01*
X172924166Y-105625123D01*
X172924174Y-105625134D01*
X172967965Y-105683246D01*
X172968043Y-105683336D01*
X175963031Y-109656929D01*
X175963242Y-109657250D01*
X176007498Y-109715924D01*
X176007524Y-109715958D01*
X176051962Y-109774917D01*
X176052205Y-109775198D01*
X183673905Y-119880110D01*
X183700171Y-119914933D01*
X183700234Y-119915100D01*
X183700274Y-119915070D01*
X185654087Y-122512882D01*
X185692932Y-122564530D01*
X185717496Y-122629939D01*
X185702797Y-122698245D01*
X185653503Y-122747762D01*
X185585264Y-122762767D01*
X185546381Y-122753625D01*
X185491769Y-122731005D01*
X185457835Y-122716949D01*
X185457833Y-122716948D01*
X185457829Y-122716947D01*
X185264543Y-122678500D01*
X185264541Y-122678500D01*
X185103387Y-122678500D01*
X185036348Y-122658815D01*
X185015706Y-122642181D01*
X170512819Y-108139294D01*
X170479334Y-108077971D01*
X170476500Y-108051613D01*
X170476500Y-102260386D01*
X170496185Y-102193347D01*
X170512819Y-102172705D01*
X171698705Y-100986819D01*
X171760028Y-100953334D01*
X171786386Y-100950500D01*
X172103501Y-100950500D01*
X172170540Y-100970185D01*
X172216295Y-101022989D01*
X172227501Y-101074500D01*
X172227501Y-101544856D01*
X172227502Y-101544882D01*
X172230413Y-101569987D01*
X172230415Y-101569991D01*
X172275793Y-101672764D01*
X172275794Y-101672765D01*
X172355235Y-101752206D01*
X172458009Y-101797585D01*
X172483135Y-101800500D01*
X173972864Y-101800499D01*
X173972879Y-101800497D01*
X173972882Y-101800497D01*
X173997987Y-101797586D01*
X173997988Y-101797585D01*
X173997991Y-101797585D01*
X174100765Y-101752206D01*
X174180206Y-101672765D01*
X174225585Y-101569991D01*
X174228500Y-101544865D01*
X174228499Y-100433860D01*
X174248184Y-100366822D01*
X174250035Y-100365218D01*
X175568000Y-100365218D01*
X175568000Y-100444782D01*
X175598448Y-100518291D01*
X175654709Y-100574552D01*
X175728218Y-100605000D01*
X175807782Y-100605000D01*
X175881291Y-100574552D01*
X175937552Y-100518291D01*
X175968000Y-100444782D01*
X175968000Y-100365218D01*
X175937552Y-100291709D01*
X175881291Y-100235448D01*
X175807782Y-100205000D01*
X175728218Y-100205000D01*
X175654709Y-100235448D01*
X175598448Y-100291709D01*
X175568000Y-100365218D01*
X174250035Y-100365218D01*
X174300987Y-100321067D01*
X174365754Y-100310572D01*
X174383684Y-100312500D01*
X174383694Y-100312500D01*
X174612306Y-100312500D01*
X174612316Y-100312500D01*
X174669760Y-100306324D01*
X174799709Y-100257856D01*
X174861021Y-100211959D01*
X174910752Y-100174732D01*
X174976216Y-100150316D01*
X174985061Y-100150000D01*
X175518000Y-100150000D01*
X175518000Y-98875277D01*
X175594306Y-98919333D01*
X175708756Y-98950000D01*
X175827244Y-98950000D01*
X175941694Y-98919333D01*
X176018000Y-98875277D01*
X176018000Y-100150000D01*
X176968000Y-100150000D01*
X176968000Y-99905552D01*
X176938452Y-99718997D01*
X176880085Y-99539362D01*
X176880083Y-99539359D01*
X176831515Y-99444037D01*
X176818000Y-99387742D01*
X176818000Y-99321557D01*
X176837685Y-99254518D01*
X176890489Y-99208763D01*
X176959647Y-99198819D01*
X176966182Y-99199938D01*
X176969007Y-99200500D01*
X176969008Y-99200500D01*
X177106995Y-99200500D01*
X177198041Y-99182389D01*
X177242328Y-99173580D01*
X177369811Y-99120775D01*
X177484542Y-99044114D01*
X177582114Y-98946542D01*
X177658775Y-98831811D01*
X177711580Y-98704328D01*
X177738500Y-98568993D01*
X177738500Y-98431007D01*
X177738500Y-98431004D01*
X177711581Y-98295677D01*
X177711580Y-98295676D01*
X177711580Y-98295672D01*
X177681766Y-98223694D01*
X177658778Y-98168195D01*
X177658771Y-98168182D01*
X177609398Y-98094290D01*
X177588520Y-98027612D01*
X177588500Y-98025399D01*
X177588500Y-97901737D01*
X177608185Y-97834698D01*
X177643609Y-97798635D01*
X177675782Y-97777139D01*
X177815139Y-97637782D01*
X177924632Y-97473914D01*
X177939810Y-97437272D01*
X178000049Y-97291839D01*
X178000051Y-97291835D01*
X178038500Y-97098541D01*
X178038500Y-96101459D01*
X178038500Y-96101456D01*
X178000052Y-95908170D01*
X178000051Y-95908169D01*
X178000051Y-95908165D01*
X177979892Y-95859496D01*
X177924635Y-95726092D01*
X177924628Y-95726079D01*
X177815139Y-95562218D01*
X177815136Y-95562214D01*
X177675785Y-95422863D01*
X177675781Y-95422860D01*
X177511920Y-95313371D01*
X177511907Y-95313364D01*
X177329839Y-95237950D01*
X177329829Y-95237947D01*
X177166545Y-95205467D01*
X177104634Y-95173082D01*
X177103056Y-95171531D01*
X175598016Y-93666491D01*
X175598015Y-93666490D01*
X175472485Y-93594016D01*
X175472486Y-93594016D01*
X175437482Y-93584637D01*
X175332475Y-93556500D01*
X175332472Y-93556500D01*
X166776387Y-93556500D01*
X166709348Y-93536815D01*
X166688706Y-93520181D01*
X160686819Y-87518294D01*
X160653334Y-87456971D01*
X160650500Y-87430613D01*
X160650500Y-87424499D01*
X160670185Y-87357460D01*
X160722989Y-87311705D01*
X160774500Y-87300499D01*
X160844856Y-87300499D01*
X160844864Y-87300499D01*
X160844879Y-87300497D01*
X160844882Y-87300497D01*
X160869987Y-87297586D01*
X160869988Y-87297585D01*
X160869991Y-87297585D01*
X160972765Y-87252206D01*
X161052206Y-87172765D01*
X161097585Y-87069991D01*
X161100500Y-87044865D01*
X161100499Y-86394447D01*
X161440000Y-86394447D01*
X161469548Y-86581002D01*
X161527914Y-86760637D01*
X161613670Y-86928940D01*
X161724685Y-87081741D01*
X161724689Y-87081746D01*
X161858253Y-87215310D01*
X161858258Y-87215314D01*
X162011059Y-87326329D01*
X162179362Y-87412085D01*
X162358997Y-87470451D01*
X162390000Y-87475362D01*
X162390000Y-87475361D01*
X162890000Y-87475361D01*
X162921002Y-87470451D01*
X163100637Y-87412085D01*
X163268940Y-87326329D01*
X163421741Y-87215314D01*
X163421746Y-87215310D01*
X163555310Y-87081746D01*
X163555314Y-87081741D01*
X163666329Y-86928940D01*
X163752085Y-86760637D01*
X163810451Y-86581002D01*
X163840000Y-86394447D01*
X163840000Y-86150000D01*
X162890000Y-86150000D01*
X162890000Y-87475361D01*
X162390000Y-87475361D01*
X162390000Y-86150000D01*
X161440000Y-86150000D01*
X161440000Y-86394447D01*
X161100499Y-86394447D01*
X161100499Y-85933860D01*
X161120184Y-85866822D01*
X161122035Y-85865218D01*
X162440000Y-85865218D01*
X162440000Y-85944782D01*
X162470448Y-86018291D01*
X162526709Y-86074552D01*
X162600218Y-86105000D01*
X162679782Y-86105000D01*
X162753291Y-86074552D01*
X162809552Y-86018291D01*
X162840000Y-85944782D01*
X162840000Y-85865218D01*
X162809552Y-85791709D01*
X162753291Y-85735448D01*
X162679782Y-85705000D01*
X162600218Y-85705000D01*
X162526709Y-85735448D01*
X162470448Y-85791709D01*
X162440000Y-85865218D01*
X161122035Y-85865218D01*
X161172987Y-85821067D01*
X161237754Y-85810572D01*
X161255684Y-85812500D01*
X161255694Y-85812500D01*
X161484306Y-85812500D01*
X161484316Y-85812500D01*
X161541760Y-85806324D01*
X161671709Y-85757856D01*
X161744950Y-85703029D01*
X161782752Y-85674732D01*
X161848216Y-85650316D01*
X161857061Y-85650000D01*
X162390000Y-85650000D01*
X162390000Y-84375277D01*
X162466306Y-84419333D01*
X162580756Y-84450000D01*
X162699244Y-84450000D01*
X162813694Y-84419333D01*
X162890000Y-84375277D01*
X162890000Y-85650000D01*
X163840000Y-85650000D01*
X163840000Y-85405552D01*
X163810452Y-85218997D01*
X163752085Y-85039362D01*
X163752083Y-85039359D01*
X163703515Y-84944037D01*
X163690000Y-84887742D01*
X163690000Y-84821557D01*
X163709685Y-84754518D01*
X163762489Y-84708763D01*
X163831647Y-84698819D01*
X163838182Y-84699938D01*
X163841007Y-84700500D01*
X163841008Y-84700500D01*
X163978995Y-84700500D01*
X164070041Y-84682389D01*
X164114328Y-84673580D01*
X164241811Y-84620775D01*
X164356542Y-84544114D01*
X164454114Y-84446542D01*
X164530775Y-84331811D01*
X164583580Y-84204328D01*
X164599816Y-84122706D01*
X164610500Y-84068995D01*
X164610500Y-83931004D01*
X164583581Y-83795677D01*
X164583580Y-83795676D01*
X164583580Y-83795672D01*
X164551621Y-83718515D01*
X164530778Y-83668195D01*
X164530771Y-83668182D01*
X164481398Y-83594290D01*
X164460520Y-83527612D01*
X164460500Y-83525399D01*
X164460500Y-83401737D01*
X164480185Y-83334698D01*
X164515609Y-83298635D01*
X164547782Y-83277139D01*
X164687139Y-83137782D01*
X164796632Y-82973914D01*
X164872051Y-82791835D01*
X164910500Y-82598541D01*
X164910500Y-81601459D01*
X164910500Y-81601456D01*
X164872052Y-81408170D01*
X164872051Y-81408169D01*
X164872051Y-81408165D01*
X164844262Y-81341076D01*
X164796635Y-81226092D01*
X164796628Y-81226079D01*
X164687139Y-81062218D01*
X164687136Y-81062214D01*
X164547785Y-80922863D01*
X164547781Y-80922860D01*
X164515609Y-80901363D01*
X164470804Y-80847750D01*
X164460500Y-80798261D01*
X164460500Y-75891387D01*
X164480185Y-75824348D01*
X164496819Y-75803706D01*
X165157820Y-75142705D01*
X165219143Y-75109220D01*
X165288835Y-75114204D01*
X165344768Y-75156076D01*
X165369185Y-75221540D01*
X165369501Y-75230386D01*
X165369501Y-75434856D01*
X165369502Y-75434882D01*
X165372413Y-75459987D01*
X165372415Y-75459991D01*
X165417793Y-75562764D01*
X165417794Y-75562765D01*
X165497235Y-75642206D01*
X165600009Y-75687585D01*
X165625135Y-75690500D01*
X167114864Y-75690499D01*
X167114879Y-75690497D01*
X167114882Y-75690497D01*
X167139987Y-75687586D01*
X167139988Y-75687585D01*
X167139991Y-75687585D01*
X167242765Y-75642206D01*
X167322206Y-75562765D01*
X167367585Y-75459991D01*
X167370500Y-75434865D01*
X167370499Y-74784447D01*
X167710000Y-74784447D01*
X167739548Y-74971002D01*
X167797914Y-75150637D01*
X167883670Y-75318940D01*
X167994685Y-75471741D01*
X167994689Y-75471746D01*
X168128253Y-75605310D01*
X168128258Y-75605314D01*
X168281059Y-75716329D01*
X168449362Y-75802085D01*
X168628997Y-75860451D01*
X168660000Y-75865362D01*
X168660000Y-75865361D01*
X169160000Y-75865361D01*
X169191002Y-75860451D01*
X169370637Y-75802085D01*
X169538940Y-75716329D01*
X169691741Y-75605314D01*
X169691746Y-75605310D01*
X169825310Y-75471746D01*
X169825314Y-75471741D01*
X169936329Y-75318940D01*
X170022085Y-75150637D01*
X170080451Y-74971002D01*
X170110000Y-74784447D01*
X170110000Y-74540000D01*
X169160000Y-74540000D01*
X169160000Y-75865361D01*
X168660000Y-75865361D01*
X168660000Y-74540000D01*
X167710000Y-74540000D01*
X167710000Y-74784447D01*
X167370499Y-74784447D01*
X167370499Y-74323860D01*
X167390184Y-74256822D01*
X167392035Y-74255218D01*
X168710000Y-74255218D01*
X168710000Y-74334782D01*
X168740448Y-74408291D01*
X168796709Y-74464552D01*
X168870218Y-74495000D01*
X168949782Y-74495000D01*
X169023291Y-74464552D01*
X169079552Y-74408291D01*
X169110000Y-74334782D01*
X169110000Y-74255218D01*
X169079552Y-74181709D01*
X169023291Y-74125448D01*
X168949782Y-74095000D01*
X168870218Y-74095000D01*
X168796709Y-74125448D01*
X168740448Y-74181709D01*
X168710000Y-74255218D01*
X167392035Y-74255218D01*
X167442987Y-74211067D01*
X167507754Y-74200572D01*
X167525684Y-74202500D01*
X167525694Y-74202500D01*
X167754306Y-74202500D01*
X167754316Y-74202500D01*
X167811760Y-74196324D01*
X167941709Y-74147856D01*
X168022017Y-74087739D01*
X168052752Y-74064732D01*
X168118216Y-74040316D01*
X168127061Y-74040000D01*
X168660000Y-74040000D01*
X168660000Y-72765277D01*
X168736306Y-72809333D01*
X168850756Y-72840000D01*
X168969244Y-72840000D01*
X169083694Y-72809333D01*
X169160000Y-72765277D01*
X169160000Y-74040000D01*
X170110000Y-74040000D01*
X170110000Y-73795552D01*
X170080452Y-73608997D01*
X170022085Y-73429362D01*
X170022083Y-73429359D01*
X169973515Y-73334037D01*
X169960000Y-73277742D01*
X169960000Y-73211557D01*
X169979685Y-73144518D01*
X170032489Y-73098763D01*
X170101647Y-73088819D01*
X170108182Y-73089938D01*
X170111007Y-73090500D01*
X170111008Y-73090500D01*
X170248995Y-73090500D01*
X170340041Y-73072389D01*
X170384328Y-73063580D01*
X170511811Y-73010775D01*
X170626542Y-72934114D01*
X170724114Y-72836542D01*
X170800775Y-72721811D01*
X170853580Y-72594328D01*
X170880500Y-72458993D01*
X170880500Y-72321007D01*
X170880500Y-72321004D01*
X170853581Y-72185677D01*
X170853580Y-72185676D01*
X170853580Y-72185672D01*
X170823766Y-72113694D01*
X170800778Y-72058195D01*
X170800771Y-72058182D01*
X170751398Y-71984290D01*
X170730520Y-71917612D01*
X170730500Y-71915399D01*
X170730500Y-71791737D01*
X170750185Y-71724698D01*
X170785609Y-71688635D01*
X170817782Y-71667139D01*
X170957139Y-71527782D01*
X171066632Y-71363914D01*
X171142051Y-71181835D01*
X171180500Y-70988541D01*
X171180500Y-70409428D01*
X171200185Y-70342389D01*
X171252989Y-70296634D01*
X171322147Y-70286690D01*
X171385703Y-70315715D01*
G37*
G04 #@! TD.AperFunction*
G04 #@! TA.AperFunction,Conductor*
G36*
X128637827Y-98260600D02*
G01*
X128664148Y-98280673D01*
X130604181Y-100220706D01*
X130637666Y-100282029D01*
X130640500Y-100308387D01*
X130640500Y-107543613D01*
X130620815Y-107610652D01*
X130604181Y-107631294D01*
X115511517Y-122723957D01*
X115450194Y-122757442D01*
X115380502Y-122752458D01*
X115324569Y-122710586D01*
X115300152Y-122645122D01*
X115315004Y-122576849D01*
X115324712Y-122561775D01*
X119702692Y-116737778D01*
X125842972Y-108606147D01*
X125846623Y-108601898D01*
X125849502Y-108598043D01*
X125849505Y-108598042D01*
X125873798Y-108565527D01*
X125888030Y-108546480D01*
X125888258Y-108546175D01*
X125927123Y-108494707D01*
X125927124Y-108494702D01*
X125930025Y-108490862D01*
X125933095Y-108486164D01*
X126176033Y-108161015D01*
X127259221Y-106711271D01*
X127268528Y-106700231D01*
X127268555Y-106700194D01*
X127304856Y-106650209D01*
X127305696Y-106649068D01*
X127342694Y-106599552D01*
X127342695Y-106599549D01*
X127342723Y-106599512D01*
X127350509Y-106587347D01*
X128401219Y-105140615D01*
X128410290Y-105129533D01*
X128411008Y-105128750D01*
X128411020Y-105128741D01*
X128446216Y-105078680D01*
X128447298Y-105077167D01*
X128483176Y-105027768D01*
X128483179Y-105027758D01*
X128483685Y-105026829D01*
X128491228Y-105014662D01*
X128835037Y-104525667D01*
X128843726Y-104514686D01*
X128845527Y-104512655D01*
X128845541Y-104512643D01*
X128879385Y-104462624D01*
X128880548Y-104460938D01*
X128915274Y-104411549D01*
X128915276Y-104411542D01*
X128916544Y-104409120D01*
X128923729Y-104397090D01*
X128943205Y-104368308D01*
X129159047Y-104049322D01*
X129169121Y-104037513D01*
X129168904Y-104037336D01*
X129174057Y-104031051D01*
X129199357Y-103990320D01*
X129202415Y-103985397D01*
X129205041Y-103981349D01*
X129226095Y-103950236D01*
X129235121Y-103936897D01*
X129235122Y-103936893D01*
X129238759Y-103929627D01*
X129239011Y-103929753D01*
X129245679Y-103915748D01*
X129369454Y-103716490D01*
X129381940Y-103699728D01*
X129390598Y-103689951D01*
X129407046Y-103656988D01*
X129412668Y-103646923D01*
X129422711Y-103630755D01*
X129432106Y-103615632D01*
X129432833Y-103613228D01*
X129447765Y-103584222D01*
X129446787Y-103583655D01*
X129450864Y-103576626D01*
X129450866Y-103576624D01*
X129468034Y-103535420D01*
X129471530Y-103527771D01*
X129491466Y-103487824D01*
X129492506Y-103482717D01*
X129499549Y-103459782D01*
X129501552Y-103454977D01*
X129507468Y-103410747D01*
X129508872Y-103402425D01*
X129508875Y-103402411D01*
X129517787Y-103358694D01*
X129517786Y-103358686D01*
X129518357Y-103350584D01*
X129519396Y-103350657D01*
X129520614Y-103333563D01*
X129522442Y-103324765D01*
X129522078Y-103318393D01*
X129522971Y-103294876D01*
X129523818Y-103288554D01*
X129518234Y-103245444D01*
X129517410Y-103236589D01*
X129514933Y-103193196D01*
X129512934Y-103187140D01*
X129507710Y-103164190D01*
X129506891Y-103157862D01*
X129490332Y-103117646D01*
X129487258Y-103109348D01*
X129473628Y-103068051D01*
X129470123Y-103062708D01*
X129459147Y-103041910D01*
X129458577Y-103040528D01*
X129456715Y-103036004D01*
X129441550Y-103016155D01*
X129430332Y-103001471D01*
X129425185Y-102994208D01*
X129401342Y-102957863D01*
X129401341Y-102957862D01*
X129396574Y-102953610D01*
X129380581Y-102936353D01*
X129376709Y-102931284D01*
X129342282Y-102904752D01*
X129335437Y-102899074D01*
X129302996Y-102870135D01*
X129302993Y-102870134D01*
X129297294Y-102867263D01*
X129277384Y-102854736D01*
X129272333Y-102850844D01*
X129272323Y-102850837D01*
X129251802Y-102842287D01*
X129230867Y-102831103D01*
X129217816Y-102822430D01*
X129217813Y-102822429D01*
X129197424Y-102815565D01*
X129181210Y-102808793D01*
X129161992Y-102799114D01*
X129158080Y-102798301D01*
X129150916Y-102796590D01*
X129149609Y-102796236D01*
X129149607Y-102796235D01*
X129104218Y-102783952D01*
X129097056Y-102781780D01*
X129089430Y-102779213D01*
X129084941Y-102777270D01*
X129084845Y-102777525D01*
X129076621Y-102774414D01*
X129067181Y-102771723D01*
X129052492Y-102766779D01*
X129052488Y-102766778D01*
X129050909Y-102766679D01*
X129030366Y-102763642D01*
X129023309Y-102761985D01*
X129019258Y-102760961D01*
X129005063Y-102757119D01*
X128997110Y-102754678D01*
X128991230Y-102752654D01*
X128984348Y-102751255D01*
X128976672Y-102749438D01*
X128965821Y-102746502D01*
X128957775Y-102745422D01*
X128957838Y-102744952D01*
X128948833Y-102744033D01*
X128935845Y-102741391D01*
X128932222Y-102740598D01*
X128877184Y-102727676D01*
X128869098Y-102726867D01*
X128869164Y-102726207D01*
X128855418Y-102725038D01*
X128813849Y-102716585D01*
X128801022Y-102713254D01*
X128794568Y-102711204D01*
X128737046Y-102700932D01*
X128734138Y-102700377D01*
X128679204Y-102689207D01*
X128676883Y-102688735D01*
X128676878Y-102688734D01*
X128670109Y-102688261D01*
X128656963Y-102686632D01*
X128567799Y-102670711D01*
X128553944Y-102667406D01*
X128552539Y-102666984D01*
X128492360Y-102657223D01*
X128490421Y-102656893D01*
X128430492Y-102646193D01*
X128429036Y-102646127D01*
X128414867Y-102644658D01*
X128284374Y-102623495D01*
X128271517Y-102620619D01*
X128209460Y-102611337D01*
X128207955Y-102611102D01*
X128146052Y-102601064D01*
X128132906Y-102599887D01*
X127969029Y-102575377D01*
X127957847Y-102573010D01*
X127894325Y-102564197D01*
X127893025Y-102564010D01*
X127829508Y-102554510D01*
X127818101Y-102553622D01*
X127628544Y-102527324D01*
X127617971Y-102525200D01*
X127553892Y-102516960D01*
X127552670Y-102516797D01*
X127488466Y-102507891D01*
X127477690Y-102507163D01*
X127200481Y-102471522D01*
X127199149Y-102471343D01*
X126292310Y-102344743D01*
X126290241Y-102344436D01*
X125096910Y-102157269D01*
X125095579Y-102157053D01*
X124439246Y-102046785D01*
X124376395Y-102016265D01*
X124340021Y-101956610D01*
X124341673Y-101886760D01*
X124380827Y-101828892D01*
X124445052Y-101801378D01*
X124459788Y-101800499D01*
X124696864Y-101800499D01*
X124696879Y-101800497D01*
X124696882Y-101800497D01*
X124721987Y-101797586D01*
X124721988Y-101797585D01*
X124721991Y-101797585D01*
X124824765Y-101752206D01*
X124904206Y-101672765D01*
X124949585Y-101569991D01*
X124952500Y-101544865D01*
X124952499Y-100894447D01*
X125292000Y-100894447D01*
X125321548Y-101081002D01*
X125379914Y-101260637D01*
X125465670Y-101428940D01*
X125576685Y-101581741D01*
X125576689Y-101581746D01*
X125710253Y-101715310D01*
X125710258Y-101715314D01*
X125863059Y-101826329D01*
X126031362Y-101912085D01*
X126210997Y-101970451D01*
X126242000Y-101975362D01*
X126242000Y-101975361D01*
X126742000Y-101975361D01*
X126773002Y-101970451D01*
X126952637Y-101912085D01*
X127120940Y-101826329D01*
X127273741Y-101715314D01*
X127273746Y-101715310D01*
X127407310Y-101581746D01*
X127407314Y-101581741D01*
X127518329Y-101428940D01*
X127604085Y-101260637D01*
X127662451Y-101081002D01*
X127692000Y-100894447D01*
X127692000Y-100650000D01*
X126742000Y-100650000D01*
X126742000Y-101975361D01*
X126242000Y-101975361D01*
X126242000Y-100650000D01*
X125292000Y-100650000D01*
X125292000Y-100894447D01*
X124952499Y-100894447D01*
X124952499Y-100433860D01*
X124972184Y-100366822D01*
X124974035Y-100365218D01*
X126292000Y-100365218D01*
X126292000Y-100444782D01*
X126322448Y-100518291D01*
X126378709Y-100574552D01*
X126452218Y-100605000D01*
X126531782Y-100605000D01*
X126605291Y-100574552D01*
X126661552Y-100518291D01*
X126692000Y-100444782D01*
X126692000Y-100365218D01*
X126661552Y-100291709D01*
X126605291Y-100235448D01*
X126531782Y-100205000D01*
X126452218Y-100205000D01*
X126378709Y-100235448D01*
X126322448Y-100291709D01*
X126292000Y-100365218D01*
X124974035Y-100365218D01*
X125024987Y-100321067D01*
X125089754Y-100310572D01*
X125107684Y-100312500D01*
X125107694Y-100312500D01*
X125336306Y-100312500D01*
X125336316Y-100312500D01*
X125393760Y-100306324D01*
X125523709Y-100257856D01*
X125585021Y-100211959D01*
X125634752Y-100174732D01*
X125700216Y-100150316D01*
X125709061Y-100150000D01*
X126242000Y-100150000D01*
X126242000Y-98875277D01*
X126318306Y-98919333D01*
X126432756Y-98950000D01*
X126551244Y-98950000D01*
X126665694Y-98919333D01*
X126742000Y-98875277D01*
X126742000Y-100150000D01*
X127692000Y-100150000D01*
X127692000Y-99905552D01*
X127662452Y-99718997D01*
X127604085Y-99539362D01*
X127604083Y-99539359D01*
X127555515Y-99444037D01*
X127542000Y-99387742D01*
X127542000Y-99321557D01*
X127561685Y-99254518D01*
X127614489Y-99208763D01*
X127683647Y-99198819D01*
X127690182Y-99199938D01*
X127693007Y-99200500D01*
X127693008Y-99200500D01*
X127830995Y-99200500D01*
X127922041Y-99182389D01*
X127966328Y-99173580D01*
X128093811Y-99120775D01*
X128208542Y-99044114D01*
X128306114Y-98946542D01*
X128382775Y-98831811D01*
X128435580Y-98704328D01*
X128462500Y-98568993D01*
X128462500Y-98431007D01*
X128462500Y-98431004D01*
X128454850Y-98392546D01*
X128461077Y-98322954D01*
X128503940Y-98267777D01*
X128569830Y-98244532D01*
X128637827Y-98260600D01*
G37*
G04 #@! TD.AperFunction*
G04 #@! TA.AperFunction,Conductor*
G36*
X142297271Y-120420785D02*
G01*
X142366764Y-120524789D01*
X142455211Y-120613236D01*
X142559215Y-120682729D01*
X142623991Y-120709560D01*
X142010371Y-121323181D01*
X141949048Y-121356666D01*
X141922690Y-121359500D01*
X141736966Y-121359500D01*
X141669927Y-121339815D01*
X141624172Y-121287011D01*
X141614228Y-121217853D01*
X141620784Y-121192167D01*
X141663598Y-121077376D01*
X141669791Y-121019758D01*
X141667911Y-120984707D01*
X141700908Y-120925538D01*
X142270438Y-120356007D01*
X142297271Y-120420785D01*
G37*
G04 #@! TD.AperFunction*
G04 #@! TA.AperFunction,Conductor*
G36*
X129588027Y-70707770D02*
G01*
X129621620Y-70769034D01*
X129624500Y-70795605D01*
X129624500Y-73583475D01*
X129625098Y-73585706D01*
X129656972Y-73704660D01*
X129656972Y-73704662D01*
X129662014Y-73723482D01*
X129701884Y-73792539D01*
X129715294Y-73815767D01*
X129734489Y-73849013D01*
X129734491Y-73849016D01*
X130027181Y-74141706D01*
X130060666Y-74203029D01*
X130063500Y-74229387D01*
X130063500Y-75434856D01*
X130063502Y-75434882D01*
X130066413Y-75459987D01*
X130066415Y-75459991D01*
X130111793Y-75562764D01*
X130111794Y-75562765D01*
X130191235Y-75642206D01*
X130294009Y-75687585D01*
X130319135Y-75690500D01*
X131808864Y-75690499D01*
X131808879Y-75690497D01*
X131808882Y-75690497D01*
X131833987Y-75687586D01*
X131833988Y-75687585D01*
X131833991Y-75687585D01*
X131936765Y-75642206D01*
X132016206Y-75562765D01*
X132061585Y-75459991D01*
X132064500Y-75434865D01*
X132064499Y-74784447D01*
X132404000Y-74784447D01*
X132433548Y-74971002D01*
X132491914Y-75150637D01*
X132577670Y-75318940D01*
X132688685Y-75471741D01*
X132688689Y-75471746D01*
X132822253Y-75605310D01*
X132822258Y-75605314D01*
X132975059Y-75716329D01*
X133143362Y-75802085D01*
X133322997Y-75860451D01*
X133354000Y-75865362D01*
X133354000Y-75865361D01*
X133854000Y-75865361D01*
X133885002Y-75860451D01*
X134064637Y-75802085D01*
X134232940Y-75716329D01*
X134385741Y-75605314D01*
X134385746Y-75605310D01*
X134519310Y-75471746D01*
X134519314Y-75471741D01*
X134630329Y-75318940D01*
X134716085Y-75150637D01*
X134774451Y-74971002D01*
X134804000Y-74784447D01*
X134804000Y-74540000D01*
X133854000Y-74540000D01*
X133854000Y-75865361D01*
X133354000Y-75865361D01*
X133354000Y-74540000D01*
X132404000Y-74540000D01*
X132404000Y-74784447D01*
X132064499Y-74784447D01*
X132064499Y-74323860D01*
X132084184Y-74256822D01*
X132086035Y-74255218D01*
X133404000Y-74255218D01*
X133404000Y-74334782D01*
X133434448Y-74408291D01*
X133490709Y-74464552D01*
X133564218Y-74495000D01*
X133643782Y-74495000D01*
X133717291Y-74464552D01*
X133773552Y-74408291D01*
X133804000Y-74334782D01*
X133804000Y-74255218D01*
X133773552Y-74181709D01*
X133717291Y-74125448D01*
X133643782Y-74095000D01*
X133564218Y-74095000D01*
X133490709Y-74125448D01*
X133434448Y-74181709D01*
X133404000Y-74255218D01*
X132086035Y-74255218D01*
X132136987Y-74211067D01*
X132201754Y-74200572D01*
X132219684Y-74202500D01*
X132219694Y-74202500D01*
X132448306Y-74202500D01*
X132448316Y-74202500D01*
X132505760Y-74196324D01*
X132635709Y-74147856D01*
X132716017Y-74087739D01*
X132746752Y-74064732D01*
X132812216Y-74040316D01*
X132821061Y-74040000D01*
X133354000Y-74040000D01*
X133354000Y-72765277D01*
X133430306Y-72809333D01*
X133544756Y-72840000D01*
X133663244Y-72840000D01*
X133777694Y-72809333D01*
X133854000Y-72765277D01*
X133854000Y-74040000D01*
X134804000Y-74040000D01*
X134804000Y-73795552D01*
X134774452Y-73608997D01*
X134716085Y-73429362D01*
X134716083Y-73429359D01*
X134667515Y-73334037D01*
X134654000Y-73277742D01*
X134654000Y-73211557D01*
X134673685Y-73144518D01*
X134726489Y-73098763D01*
X134795647Y-73088819D01*
X134802182Y-73089938D01*
X134805007Y-73090500D01*
X134805008Y-73090500D01*
X134942995Y-73090500D01*
X135034041Y-73072389D01*
X135078328Y-73063580D01*
X135205811Y-73010775D01*
X135320542Y-72934114D01*
X135418114Y-72836542D01*
X135494775Y-72721811D01*
X135547580Y-72594328D01*
X135574500Y-72458993D01*
X135574500Y-72378387D01*
X135594185Y-72311348D01*
X135646989Y-72265593D01*
X135716147Y-72255649D01*
X135779703Y-72284674D01*
X135786181Y-72290706D01*
X137081181Y-73585706D01*
X137114666Y-73647029D01*
X137117500Y-73673387D01*
X137117500Y-80376267D01*
X137097815Y-80443306D01*
X137081181Y-80463948D01*
X135589491Y-81955637D01*
X135589489Y-81955639D01*
X135536509Y-82047407D01*
X135536507Y-82047409D01*
X135517018Y-82081163D01*
X135517017Y-82081164D01*
X135517016Y-82081169D01*
X135479500Y-82221179D01*
X135479500Y-84877526D01*
X135479500Y-85022474D01*
X135517016Y-85162485D01*
X135589489Y-85288013D01*
X135589491Y-85288016D01*
X135943181Y-85641706D01*
X135976666Y-85703029D01*
X135979500Y-85729387D01*
X135979500Y-87044856D01*
X135979502Y-87044882D01*
X135982413Y-87069987D01*
X135982415Y-87069991D01*
X136027793Y-87172764D01*
X136027794Y-87172765D01*
X136107235Y-87252206D01*
X136210009Y-87297585D01*
X136235135Y-87300500D01*
X137724864Y-87300499D01*
X137724879Y-87300497D01*
X137724882Y-87300497D01*
X137749987Y-87297586D01*
X137749988Y-87297585D01*
X137749991Y-87297585D01*
X137852765Y-87252206D01*
X137932206Y-87172765D01*
X137977585Y-87069991D01*
X137980500Y-87044865D01*
X137980499Y-86394447D01*
X138320000Y-86394447D01*
X138349548Y-86581002D01*
X138407914Y-86760637D01*
X138493670Y-86928940D01*
X138604685Y-87081741D01*
X138604689Y-87081746D01*
X138738253Y-87215310D01*
X138738258Y-87215314D01*
X138891059Y-87326329D01*
X139059362Y-87412085D01*
X139238997Y-87470451D01*
X139270000Y-87475362D01*
X139270000Y-87475361D01*
X139770000Y-87475361D01*
X139801002Y-87470451D01*
X139980637Y-87412085D01*
X140148940Y-87326329D01*
X140301741Y-87215314D01*
X140301746Y-87215310D01*
X140435310Y-87081746D01*
X140435314Y-87081741D01*
X140546329Y-86928940D01*
X140632085Y-86760637D01*
X140690451Y-86581002D01*
X140720000Y-86394447D01*
X140720000Y-86150000D01*
X139770000Y-86150000D01*
X139770000Y-87475361D01*
X139270000Y-87475361D01*
X139270000Y-86150000D01*
X138320000Y-86150000D01*
X138320000Y-86394447D01*
X137980499Y-86394447D01*
X137980499Y-85933860D01*
X138000184Y-85866822D01*
X138002035Y-85865218D01*
X139320000Y-85865218D01*
X139320000Y-85944782D01*
X139350448Y-86018291D01*
X139406709Y-86074552D01*
X139480218Y-86105000D01*
X139559782Y-86105000D01*
X139633291Y-86074552D01*
X139689552Y-86018291D01*
X139720000Y-85944782D01*
X139720000Y-85865218D01*
X139689552Y-85791709D01*
X139633291Y-85735448D01*
X139559782Y-85705000D01*
X139480218Y-85705000D01*
X139406709Y-85735448D01*
X139350448Y-85791709D01*
X139320000Y-85865218D01*
X138002035Y-85865218D01*
X138052987Y-85821067D01*
X138117754Y-85810572D01*
X138135684Y-85812500D01*
X138135694Y-85812500D01*
X138364306Y-85812500D01*
X138364316Y-85812500D01*
X138421760Y-85806324D01*
X138551709Y-85757856D01*
X138624950Y-85703029D01*
X138662752Y-85674732D01*
X138728216Y-85650316D01*
X138737061Y-85650000D01*
X139270000Y-85650000D01*
X139270000Y-84375277D01*
X139346306Y-84419333D01*
X139460756Y-84450000D01*
X139579244Y-84450000D01*
X139693694Y-84419333D01*
X139770000Y-84375277D01*
X139770000Y-85650000D01*
X140720000Y-85650000D01*
X140720000Y-85405552D01*
X140690452Y-85218997D01*
X140632085Y-85039362D01*
X140632083Y-85039359D01*
X140583515Y-84944037D01*
X140570000Y-84887742D01*
X140570000Y-84821557D01*
X140589685Y-84754518D01*
X140642489Y-84708763D01*
X140711647Y-84698819D01*
X140718182Y-84699938D01*
X140721007Y-84700500D01*
X140721008Y-84700500D01*
X140858995Y-84700500D01*
X140950041Y-84682389D01*
X140994328Y-84673580D01*
X141121811Y-84620775D01*
X141236542Y-84544114D01*
X141334114Y-84446542D01*
X141410775Y-84331811D01*
X141463580Y-84204328D01*
X141479816Y-84122706D01*
X141490500Y-84068995D01*
X141490500Y-83931004D01*
X141482850Y-83892546D01*
X141489077Y-83822954D01*
X141531940Y-83767777D01*
X141597830Y-83744532D01*
X141665827Y-83760600D01*
X141692148Y-83780673D01*
X142034181Y-84122706D01*
X142067666Y-84184029D01*
X142070500Y-84210387D01*
X142070500Y-86588613D01*
X142050815Y-86655652D01*
X142034181Y-86676294D01*
X138746294Y-89964181D01*
X138684971Y-89997666D01*
X138658613Y-90000500D01*
X129065852Y-90000500D01*
X128960844Y-90028637D01*
X128925841Y-90038016D01*
X128800313Y-90110489D01*
X128800310Y-90110491D01*
X122561491Y-96349310D01*
X122561490Y-96349312D01*
X122524695Y-96413045D01*
X122524694Y-96413046D01*
X122524693Y-96413047D01*
X122489017Y-96474839D01*
X122489016Y-96474840D01*
X122483772Y-96494413D01*
X122451500Y-96614852D01*
X122451500Y-96614854D01*
X122451500Y-99522476D01*
X122460584Y-99556380D01*
X122460585Y-99556380D01*
X122460585Y-99556381D01*
X122489016Y-99662485D01*
X122559421Y-99784431D01*
X122561489Y-99788013D01*
X122561491Y-99788016D01*
X122915181Y-100141706D01*
X122948666Y-100203029D01*
X122951500Y-100229387D01*
X122951500Y-101544856D01*
X122951502Y-101544882D01*
X122954413Y-101569987D01*
X122954414Y-101569989D01*
X122965011Y-101593989D01*
X122974082Y-101663267D01*
X122944258Y-101726452D01*
X122885008Y-101763482D01*
X122829738Y-101766136D01*
X122469106Y-101701616D01*
X122467526Y-101701323D01*
X121404436Y-101496873D01*
X121401561Y-101496284D01*
X120570868Y-101316044D01*
X120566970Y-101315132D01*
X120239578Y-101232947D01*
X120235675Y-101231900D01*
X119958958Y-101152765D01*
X119953623Y-101151108D01*
X119729101Y-101075807D01*
X119721898Y-101073141D01*
X119548611Y-101002812D01*
X119539085Y-100998468D01*
X119415868Y-100935878D01*
X119403755Y-100928838D01*
X119381867Y-100914402D01*
X119327155Y-100878316D01*
X119312863Y-100867318D01*
X119274539Y-100833112D01*
X119259710Y-100817345D01*
X119256109Y-100812775D01*
X119244753Y-100798361D01*
X119232094Y-100778741D01*
X119224213Y-100763555D01*
X119215823Y-100743117D01*
X119206590Y-100713301D01*
X119202473Y-100695409D01*
X119196754Y-100658099D01*
X119206053Y-100588851D01*
X119212279Y-100576719D01*
X119300262Y-100426316D01*
X119303487Y-100421106D01*
X119536775Y-100064394D01*
X119538318Y-100062096D01*
X119885990Y-99556803D01*
X119887242Y-99555016D01*
X120944864Y-98075925D01*
X120945510Y-98075034D01*
X122517686Y-95929998D01*
X122518110Y-95929424D01*
X122521189Y-95925276D01*
X124654739Y-93051015D01*
X127405471Y-89372027D01*
X134905215Y-79399973D01*
X134908650Y-79395961D01*
X134911642Y-79391941D01*
X134911645Y-79391940D01*
X134950302Y-79340025D01*
X134989171Y-79288343D01*
X134989171Y-79288341D01*
X134992181Y-79284340D01*
X134995062Y-79279913D01*
X135323453Y-78838897D01*
X135332061Y-78828663D01*
X135349046Y-78805248D01*
X135368873Y-78777914D01*
X135369628Y-78776887D01*
X135406749Y-78727036D01*
X135406751Y-78727029D01*
X135407107Y-78726552D01*
X135414299Y-78715292D01*
X135682812Y-78345130D01*
X135691629Y-78334315D01*
X135693649Y-78332102D01*
X135693657Y-78332096D01*
X135728180Y-78282618D01*
X135729325Y-78281009D01*
X135764733Y-78232199D01*
X135764736Y-78232189D01*
X135766161Y-78229563D01*
X135773487Y-78217688D01*
X135945690Y-77970901D01*
X135954866Y-77960550D01*
X135954367Y-77960121D01*
X135959658Y-77953961D01*
X135959664Y-77953957D01*
X135990581Y-77906660D01*
X135992599Y-77903673D01*
X136024950Y-77857313D01*
X136024951Y-77857311D01*
X136028692Y-77850096D01*
X136029275Y-77850398D01*
X136035453Y-77838019D01*
X136040332Y-77830555D01*
X136055951Y-77811217D01*
X136058051Y-77809095D01*
X136081258Y-77768367D01*
X136085169Y-77761967D01*
X136110809Y-77722748D01*
X136111545Y-77720503D01*
X136125929Y-77690782D01*
X136149807Y-77654677D01*
X136151283Y-77650259D01*
X136161160Y-77628157D01*
X136163464Y-77624115D01*
X136172793Y-77588494D01*
X136177054Y-77575293D01*
X136191273Y-77538449D01*
X136191273Y-77538441D01*
X136193184Y-77530549D01*
X136193194Y-77530551D01*
X136194659Y-77523829D01*
X136194648Y-77523827D01*
X136196193Y-77515858D01*
X136196196Y-77515852D01*
X136199118Y-77467760D01*
X136199997Y-77458748D01*
X136206892Y-77407576D01*
X136206891Y-77407571D01*
X136206892Y-77407567D01*
X136206913Y-77400642D01*
X136206745Y-77393735D01*
X136198337Y-77340033D01*
X136197400Y-77332569D01*
X136192411Y-77279807D01*
X136192409Y-77279801D01*
X136190595Y-77271879D01*
X136191094Y-77271764D01*
X136190922Y-77271069D01*
X136190426Y-77271201D01*
X136188347Y-77263349D01*
X136188347Y-77263344D01*
X136171015Y-77221141D01*
X136167094Y-77210146D01*
X136155009Y-77170421D01*
X136154491Y-77169590D01*
X136153476Y-77167960D01*
X136142499Y-77145614D01*
X136142106Y-77144558D01*
X136141492Y-77142906D01*
X136126255Y-77121467D01*
X136116254Y-77104754D01*
X136109950Y-77092050D01*
X136106146Y-77084384D01*
X136096781Y-77073759D01*
X136084561Y-77057339D01*
X136077069Y-77045312D01*
X136073576Y-77042046D01*
X136055356Y-77020647D01*
X136054162Y-77018870D01*
X136054160Y-77018868D01*
X136035407Y-77002513D01*
X136023885Y-76991051D01*
X136007430Y-76972381D01*
X136004410Y-76969746D01*
X135976848Y-76950313D01*
X135959821Y-76935845D01*
X135953243Y-76929145D01*
X135953236Y-76929141D01*
X135946837Y-76924136D01*
X135946896Y-76924059D01*
X135943494Y-76921605D01*
X135939911Y-76919225D01*
X135933153Y-76915915D01*
X135911763Y-76901514D01*
X135911737Y-76901554D01*
X135905401Y-76897231D01*
X135905037Y-76896986D01*
X135905021Y-76896972D01*
X135905021Y-76896971D01*
X135899613Y-76894239D01*
X135884090Y-76884913D01*
X135876820Y-76879787D01*
X135876818Y-76879786D01*
X135869627Y-76876013D01*
X135869678Y-76875914D01*
X135858952Y-76870741D01*
X135857541Y-76869883D01*
X135851775Y-76867340D01*
X135845155Y-76864420D01*
X135832221Y-76857783D01*
X135817959Y-76849373D01*
X135817957Y-76849372D01*
X135817955Y-76849371D01*
X135814633Y-76847959D01*
X135811517Y-76846920D01*
X135792518Y-76839495D01*
X135781738Y-76834679D01*
X135762159Y-76824787D01*
X135758974Y-76823671D01*
X135749862Y-76821134D01*
X135740684Y-76817919D01*
X135731649Y-76814351D01*
X135708209Y-76804012D01*
X135702271Y-76802275D01*
X135694068Y-76800351D01*
X135688801Y-76798682D01*
X135681133Y-76795973D01*
X135654974Y-76785751D01*
X135647082Y-76783806D01*
X135647119Y-76783654D01*
X135640286Y-76782296D01*
X135636010Y-76781058D01*
X135629509Y-76778980D01*
X135601549Y-76769188D01*
X135601546Y-76769187D01*
X135601545Y-76769187D01*
X135601543Y-76769186D01*
X135593587Y-76767524D01*
X135593672Y-76767114D01*
X135586831Y-76765956D01*
X135581864Y-76764634D01*
X135576293Y-76763010D01*
X135553069Y-76755646D01*
X135548873Y-76754184D01*
X135520000Y-76747330D01*
X135514171Y-76745796D01*
X135491393Y-76739204D01*
X135486229Y-76738419D01*
X135472984Y-76735658D01*
X135468718Y-76734522D01*
X135433751Y-76725217D01*
X135431711Y-76724591D01*
X135431561Y-76724566D01*
X135373903Y-76712599D01*
X135370465Y-76711835D01*
X135339070Y-76704383D01*
X135314984Y-76698666D01*
X135307080Y-76696790D01*
X135307104Y-76696687D01*
X135306793Y-76696622D01*
X135306703Y-76697111D01*
X135298717Y-76695636D01*
X135298716Y-76695636D01*
X135283145Y-76692761D01*
X135240658Y-76684917D01*
X135237976Y-76684391D01*
X135180241Y-76672409D01*
X135179350Y-76672344D01*
X135162249Y-76669147D01*
X135162240Y-76669204D01*
X135094684Y-76657950D01*
X135092551Y-76657576D01*
X135033046Y-76646592D01*
X135030573Y-76646464D01*
X135016612Y-76644945D01*
X135009791Y-76643809D01*
X134995677Y-76640602D01*
X134995411Y-76640525D01*
X134934580Y-76631267D01*
X134932864Y-76630994D01*
X134872213Y-76620892D01*
X134871950Y-76620883D01*
X134857535Y-76619544D01*
X134834735Y-76616074D01*
X134822733Y-76613507D01*
X134759875Y-76604676D01*
X134758474Y-76604471D01*
X134695710Y-76594921D01*
X134683472Y-76593941D01*
X134644387Y-76588450D01*
X134634420Y-76586426D01*
X134569799Y-76577965D01*
X134568649Y-76577809D01*
X134504002Y-76568727D01*
X134493843Y-76568020D01*
X134438124Y-76560723D01*
X134429825Y-76559112D01*
X134363714Y-76550977D01*
X134362762Y-76550856D01*
X134296609Y-76542194D01*
X134288148Y-76541678D01*
X134144193Y-76523964D01*
X134143477Y-76523874D01*
X133071406Y-76385620D01*
X133069539Y-76385364D01*
X131941831Y-76222476D01*
X131940260Y-76222239D01*
X130806797Y-76043659D01*
X130805285Y-76043411D01*
X129720330Y-75858707D01*
X129718644Y-75858408D01*
X128737009Y-75677317D01*
X128734772Y-75676883D01*
X127912946Y-75509597D01*
X127909214Y-75508778D01*
X127312521Y-75368047D01*
X127303434Y-75365535D01*
X126997722Y-75268392D01*
X126982262Y-75262312D01*
X126981302Y-75261858D01*
X126976511Y-75259464D01*
X126950825Y-75245930D01*
X126946135Y-75243328D01*
X126921374Y-75228880D01*
X126916829Y-75226095D01*
X126892856Y-75210689D01*
X126888455Y-75207726D01*
X126865361Y-75191448D01*
X126861117Y-75188320D01*
X126847939Y-75178166D01*
X126838876Y-75171183D01*
X126834800Y-75167901D01*
X126813505Y-75150005D01*
X126809567Y-75146552D01*
X126789175Y-75127890D01*
X126785402Y-75124288D01*
X126766013Y-75104984D01*
X126762398Y-75101231D01*
X126743963Y-75081266D01*
X126740509Y-75077363D01*
X126723144Y-75056894D01*
X126719858Y-75052851D01*
X126703532Y-75031881D01*
X126700426Y-75027714D01*
X126685183Y-75006333D01*
X126682244Y-75002020D01*
X126668114Y-74980317D01*
X126665329Y-74975833D01*
X126652346Y-74953904D01*
X126649743Y-74949284D01*
X126637927Y-74927226D01*
X126635516Y-74922484D01*
X126624832Y-74900289D01*
X126622605Y-74895392D01*
X126613106Y-74873243D01*
X126611071Y-74868190D01*
X126602746Y-74846143D01*
X126600912Y-74840940D01*
X126596150Y-74826402D01*
X126593741Y-74819049D01*
X126592125Y-74813706D01*
X126586111Y-74792088D01*
X126584715Y-74786589D01*
X126584612Y-74786140D01*
X126579820Y-74765258D01*
X126578674Y-74759669D01*
X126574872Y-74738664D01*
X126573976Y-74732948D01*
X126571252Y-74712394D01*
X126570614Y-74706494D01*
X126568929Y-74686445D01*
X126568570Y-74680437D01*
X126567882Y-74660805D01*
X126567820Y-74654722D01*
X126568099Y-74635574D01*
X126568345Y-74629390D01*
X126569173Y-74616657D01*
X126592762Y-74551591D01*
X126596495Y-74546478D01*
X128830298Y-71486786D01*
X128830840Y-71486052D01*
X129401102Y-70721468D01*
X129456962Y-70679500D01*
X129526645Y-70674393D01*
X129588027Y-70707770D01*
G37*
G04 #@! TD.AperFunction*
G04 #@! TA.AperFunction,Conductor*
G36*
X134654329Y-68896185D02*
G01*
X134700084Y-68948989D01*
X134710028Y-69018147D01*
X134681003Y-69081703D01*
X134622225Y-69119477D01*
X134611482Y-69122117D01*
X134582170Y-69127947D01*
X134582160Y-69127950D01*
X134400092Y-69203364D01*
X134400079Y-69203371D01*
X134236218Y-69312860D01*
X134236214Y-69312863D01*
X134096863Y-69452214D01*
X134096860Y-69452218D01*
X133987371Y-69616079D01*
X133987364Y-69616092D01*
X133911950Y-69798160D01*
X133911947Y-69798170D01*
X133873500Y-69991456D01*
X133873500Y-70325259D01*
X133854000Y-70391667D01*
X133854000Y-72014722D01*
X133777694Y-71970667D01*
X133663244Y-71940000D01*
X133544756Y-71940000D01*
X133430306Y-71970667D01*
X133354000Y-72014722D01*
X133354000Y-70384413D01*
X133342678Y-70369546D01*
X133334500Y-70325259D01*
X133334500Y-69991456D01*
X133296052Y-69798170D01*
X133296051Y-69798169D01*
X133296051Y-69798165D01*
X133285562Y-69772841D01*
X133220635Y-69616092D01*
X133220628Y-69616079D01*
X133111139Y-69452218D01*
X133111136Y-69452214D01*
X132971785Y-69312863D01*
X132971781Y-69312860D01*
X132807920Y-69203371D01*
X132807907Y-69203364D01*
X132625839Y-69127950D01*
X132625829Y-69127947D01*
X132596518Y-69122117D01*
X132534607Y-69089732D01*
X132500033Y-69029016D01*
X132503773Y-68959246D01*
X132544640Y-68902575D01*
X132609658Y-68876993D01*
X132620710Y-68876500D01*
X134587290Y-68876500D01*
X134654329Y-68896185D01*
G37*
G04 #@! TD.AperFunction*
G04 #@! TA.AperFunction,Conductor*
G36*
X168845703Y-70044674D02*
G01*
X168852181Y-70050706D01*
X169123681Y-70322206D01*
X169157166Y-70383529D01*
X169160000Y-70409887D01*
X169160000Y-72014722D01*
X169083694Y-71970667D01*
X168969244Y-71940000D01*
X168850756Y-71940000D01*
X168736306Y-71970667D01*
X168660000Y-72014722D01*
X168660000Y-70384413D01*
X168648678Y-70369546D01*
X168640500Y-70325259D01*
X168640500Y-70138387D01*
X168660185Y-70071348D01*
X168712989Y-70025593D01*
X168782147Y-70015649D01*
X168845703Y-70044674D01*
G37*
G04 #@! TD.AperFunction*
G04 #@! TA.AperFunction,Conductor*
G36*
X150531461Y-43341535D02*
G01*
X150555211Y-43342939D01*
X150568217Y-43344400D01*
X150595732Y-43348977D01*
X150607674Y-43351576D01*
X150641702Y-43360757D01*
X150652215Y-43364102D01*
X150694454Y-43379647D01*
X150703401Y-43383344D01*
X150754553Y-43406854D01*
X150761976Y-43410571D01*
X150815430Y-43439619D01*
X150823964Y-43444710D01*
X150869685Y-43474530D01*
X150977236Y-43544678D01*
X150984880Y-43550087D01*
X151132809Y-43663386D01*
X151147208Y-43676317D01*
X151188411Y-43719592D01*
X151208084Y-43740254D01*
X151213066Y-43745813D01*
X151397775Y-43964812D01*
X151399743Y-43967204D01*
X152057867Y-44788269D01*
X152059081Y-44789809D01*
X154290149Y-47665265D01*
X154290768Y-47666070D01*
X157451528Y-51809342D01*
X157451909Y-51809844D01*
X158024454Y-52568324D01*
X160794135Y-56237465D01*
X161209153Y-56787260D01*
X161209221Y-56787442D01*
X161209265Y-56787410D01*
X170317040Y-68890942D01*
X170341621Y-68956346D01*
X170326939Y-69024655D01*
X170277657Y-69074184D01*
X170217959Y-69089500D01*
X170081457Y-69089500D01*
X169888170Y-69127947D01*
X169888160Y-69127950D01*
X169706093Y-69203364D01*
X169706074Y-69203375D01*
X169704254Y-69204591D01*
X169703156Y-69204934D01*
X169700712Y-69206241D01*
X169700464Y-69205777D01*
X169637575Y-69225464D01*
X169570196Y-69206974D01*
X169547690Y-69189165D01*
X168752016Y-68393491D01*
X168752015Y-68393490D01*
X168626485Y-68321016D01*
X168626486Y-68321016D01*
X168591482Y-68311637D01*
X168486475Y-68283500D01*
X168486472Y-68283500D01*
X165041387Y-68283500D01*
X164974348Y-68263815D01*
X164953706Y-68247181D01*
X151175600Y-54469075D01*
X151142115Y-54407752D01*
X151147099Y-54338060D01*
X151188971Y-54282127D01*
X151243883Y-54258921D01*
X151411002Y-54232451D01*
X151590637Y-54174085D01*
X151758940Y-54088329D01*
X151911741Y-53977314D01*
X151911746Y-53977310D01*
X152045310Y-53843746D01*
X152045314Y-53843741D01*
X152156329Y-53690940D01*
X152242085Y-53522637D01*
X152300451Y-53343002D01*
X152330000Y-53156447D01*
X152330000Y-52912000D01*
X149930000Y-52912000D01*
X149930000Y-52924113D01*
X149910315Y-52991152D01*
X149857511Y-53036907D01*
X149788353Y-53046851D01*
X149724797Y-53017826D01*
X149718319Y-53011794D01*
X149626818Y-52920293D01*
X149593333Y-52858970D01*
X149590499Y-52832612D01*
X149590499Y-52695861D01*
X149610184Y-52628822D01*
X149612035Y-52627218D01*
X150930000Y-52627218D01*
X150930000Y-52706782D01*
X150960448Y-52780291D01*
X151016709Y-52836552D01*
X151090218Y-52867000D01*
X151169782Y-52867000D01*
X151243291Y-52836552D01*
X151299552Y-52780291D01*
X151330000Y-52706782D01*
X151330000Y-52627218D01*
X151299552Y-52553709D01*
X151243291Y-52497448D01*
X151169782Y-52467000D01*
X151090218Y-52467000D01*
X151016709Y-52497448D01*
X150960448Y-52553709D01*
X150930000Y-52627218D01*
X149612035Y-52627218D01*
X149662988Y-52583067D01*
X149727754Y-52572572D01*
X149745684Y-52574500D01*
X149745694Y-52574500D01*
X149974306Y-52574500D01*
X149974316Y-52574500D01*
X150031760Y-52568324D01*
X150161709Y-52519856D01*
X150232317Y-52467000D01*
X150272752Y-52436732D01*
X150338216Y-52412316D01*
X150347061Y-52412000D01*
X150880000Y-52412000D01*
X150880000Y-51137277D01*
X150956306Y-51181333D01*
X151070756Y-51212000D01*
X151189244Y-51212000D01*
X151303694Y-51181333D01*
X151380000Y-51137277D01*
X151380000Y-52412000D01*
X152330000Y-52412000D01*
X152330000Y-52167552D01*
X152300452Y-51980997D01*
X152242085Y-51801362D01*
X152242083Y-51801359D01*
X152193515Y-51706037D01*
X152180000Y-51649742D01*
X152180000Y-51583557D01*
X152199685Y-51516518D01*
X152252489Y-51470763D01*
X152321647Y-51460819D01*
X152328182Y-51461938D01*
X152331007Y-51462500D01*
X152331008Y-51462500D01*
X152468995Y-51462500D01*
X152560041Y-51444389D01*
X152604328Y-51435580D01*
X152731811Y-51382775D01*
X152846542Y-51306114D01*
X152944114Y-51208542D01*
X153020775Y-51093811D01*
X153073580Y-50966328D01*
X153100500Y-50830993D01*
X153100500Y-50693007D01*
X153100500Y-50693004D01*
X153073581Y-50557677D01*
X153073580Y-50557676D01*
X153073580Y-50557672D01*
X153043766Y-50485694D01*
X153020778Y-50430195D01*
X153020771Y-50430182D01*
X152971398Y-50356290D01*
X152950520Y-50289612D01*
X152950500Y-50287399D01*
X152950500Y-50163737D01*
X152970185Y-50096698D01*
X153005609Y-50060635D01*
X153037782Y-50039139D01*
X153177139Y-49899782D01*
X153286632Y-49735914D01*
X153362051Y-49553835D01*
X153400500Y-49360541D01*
X153400500Y-48363459D01*
X153400500Y-48363456D01*
X153362052Y-48170170D01*
X153362051Y-48170169D01*
X153362051Y-48170165D01*
X153362049Y-48170160D01*
X153286635Y-47988092D01*
X153286628Y-47988079D01*
X153177139Y-47824218D01*
X153177136Y-47824214D01*
X153037785Y-47684863D01*
X153037781Y-47684860D01*
X152873920Y-47575371D01*
X152873907Y-47575364D01*
X152691839Y-47499950D01*
X152691829Y-47499947D01*
X152498543Y-47461500D01*
X152498541Y-47461500D01*
X152301459Y-47461500D01*
X152301457Y-47461500D01*
X152108170Y-47499947D01*
X152108160Y-47499950D01*
X151978454Y-47553676D01*
X151908985Y-47561145D01*
X151846506Y-47529869D01*
X151843321Y-47526796D01*
X151188016Y-46871491D01*
X151188015Y-46871490D01*
X151162315Y-46856652D01*
X151114100Y-46806086D01*
X151100876Y-46737479D01*
X151126844Y-46672614D01*
X151168021Y-46638780D01*
X151173469Y-46636003D01*
X151202816Y-46621051D01*
X151318253Y-46537182D01*
X151374786Y-46496109D01*
X151374788Y-46496106D01*
X151374792Y-46496104D01*
X151525104Y-46345792D01*
X151525106Y-46345788D01*
X151525109Y-46345786D01*
X151650048Y-46173820D01*
X151650047Y-46173820D01*
X151650051Y-46173816D01*
X151746557Y-45984412D01*
X151812246Y-45782243D01*
X151845500Y-45572287D01*
X151845500Y-45359713D01*
X151812246Y-45149757D01*
X151746557Y-44947588D01*
X151650051Y-44758184D01*
X151650049Y-44758181D01*
X151650048Y-44758179D01*
X151525109Y-44586213D01*
X151374786Y-44435890D01*
X151202820Y-44310951D01*
X151013414Y-44214444D01*
X151013413Y-44214443D01*
X151013412Y-44214443D01*
X150811243Y-44148754D01*
X150811241Y-44148753D01*
X150811240Y-44148753D01*
X150630974Y-44120202D01*
X150601287Y-44115500D01*
X150388713Y-44115500D01*
X150359026Y-44120202D01*
X150178760Y-44148753D01*
X149976585Y-44214444D01*
X149787179Y-44310951D01*
X149615213Y-44435890D01*
X149464890Y-44586213D01*
X149339951Y-44758179D01*
X149243444Y-44947585D01*
X149177753Y-45149760D01*
X149144500Y-45359713D01*
X149144500Y-45572286D01*
X149177753Y-45782239D01*
X149243444Y-45984414D01*
X149339951Y-46173820D01*
X149464890Y-46345786D01*
X149615209Y-46496105D01*
X149615214Y-46496109D01*
X149671746Y-46537182D01*
X149714412Y-46592511D01*
X149720391Y-46662125D01*
X149687786Y-46723920D01*
X149626947Y-46758277D01*
X149598861Y-46761500D01*
X148830525Y-46761500D01*
X148749369Y-46783246D01*
X148690514Y-46799016D01*
X148564986Y-46871489D01*
X148564983Y-46871491D01*
X146498491Y-48937983D01*
X146498487Y-48937988D01*
X146444853Y-49030887D01*
X146426018Y-49063510D01*
X146426016Y-49063513D01*
X146407258Y-49133520D01*
X146388500Y-49203525D01*
X146388500Y-65666526D01*
X146388500Y-65811474D01*
X146424692Y-65946542D01*
X146426016Y-65951485D01*
X146498489Y-66077013D01*
X146498491Y-66077016D01*
X147563181Y-67141706D01*
X147596666Y-67203029D01*
X147599500Y-67229387D01*
X147599500Y-68544856D01*
X147599502Y-68544882D01*
X147602413Y-68569987D01*
X147602415Y-68569991D01*
X147647793Y-68672764D01*
X147647794Y-68672765D01*
X147727235Y-68752206D01*
X147830009Y-68797585D01*
X147855135Y-68800500D01*
X149344864Y-68800499D01*
X149344879Y-68800497D01*
X149344882Y-68800497D01*
X149369987Y-68797586D01*
X149369988Y-68797585D01*
X149369991Y-68797585D01*
X149472765Y-68752206D01*
X149552206Y-68672765D01*
X149597585Y-68569991D01*
X149600500Y-68544865D01*
X149600499Y-67894447D01*
X149940000Y-67894447D01*
X149969548Y-68081002D01*
X150027914Y-68260637D01*
X150113670Y-68428940D01*
X150224685Y-68581741D01*
X150224689Y-68581746D01*
X150358253Y-68715310D01*
X150358258Y-68715314D01*
X150511059Y-68826329D01*
X150679362Y-68912085D01*
X150858997Y-68970451D01*
X150890000Y-68975362D01*
X150890000Y-68975361D01*
X151390000Y-68975361D01*
X151421002Y-68970451D01*
X151600637Y-68912085D01*
X151768940Y-68826329D01*
X151921741Y-68715314D01*
X151921746Y-68715310D01*
X152055310Y-68581746D01*
X152055314Y-68581741D01*
X152166329Y-68428940D01*
X152252085Y-68260637D01*
X152310451Y-68081002D01*
X152340000Y-67894447D01*
X152340000Y-67650000D01*
X151390000Y-67650000D01*
X151390000Y-68975361D01*
X150890000Y-68975361D01*
X150890000Y-67650000D01*
X149940000Y-67650000D01*
X149940000Y-67894447D01*
X149600499Y-67894447D01*
X149600499Y-67433860D01*
X149620184Y-67366822D01*
X149622035Y-67365218D01*
X150940000Y-67365218D01*
X150940000Y-67444782D01*
X150970448Y-67518291D01*
X151026709Y-67574552D01*
X151100218Y-67605000D01*
X151179782Y-67605000D01*
X151253291Y-67574552D01*
X151309552Y-67518291D01*
X151340000Y-67444782D01*
X151340000Y-67365218D01*
X151309552Y-67291709D01*
X151253291Y-67235448D01*
X151179782Y-67205000D01*
X151100218Y-67205000D01*
X151026709Y-67235448D01*
X150970448Y-67291709D01*
X150940000Y-67365218D01*
X149622035Y-67365218D01*
X149672987Y-67321067D01*
X149737754Y-67310572D01*
X149755684Y-67312500D01*
X149755694Y-67312500D01*
X149984306Y-67312500D01*
X149984316Y-67312500D01*
X150041760Y-67306324D01*
X150171709Y-67257856D01*
X150244950Y-67203029D01*
X150282752Y-67174732D01*
X150348216Y-67150316D01*
X150357061Y-67150000D01*
X150890000Y-67150000D01*
X150890000Y-65875277D01*
X150966306Y-65919333D01*
X151080756Y-65950000D01*
X151199244Y-65950000D01*
X151313694Y-65919333D01*
X151390000Y-65875277D01*
X151390000Y-67150000D01*
X152340000Y-67150000D01*
X152340000Y-66905552D01*
X152310452Y-66718997D01*
X152252085Y-66539362D01*
X152252083Y-66539359D01*
X152203515Y-66444037D01*
X152190000Y-66387742D01*
X152190000Y-66321557D01*
X152209685Y-66254518D01*
X152262489Y-66208763D01*
X152331647Y-66198819D01*
X152338182Y-66199938D01*
X152341007Y-66200500D01*
X152341008Y-66200500D01*
X152478995Y-66200500D01*
X152570041Y-66182389D01*
X152614328Y-66173580D01*
X152694048Y-66140558D01*
X152763516Y-66133090D01*
X152825996Y-66164365D01*
X152861648Y-66224454D01*
X152865500Y-66255120D01*
X152865500Y-70078613D01*
X152845815Y-70145652D01*
X152829181Y-70166294D01*
X152335294Y-70660181D01*
X152273971Y-70693666D01*
X152247613Y-70696500D01*
X139471387Y-70696500D01*
X139404348Y-70676815D01*
X139383706Y-70660181D01*
X136609016Y-67885491D01*
X136609015Y-67885490D01*
X136483485Y-67813016D01*
X136483486Y-67813016D01*
X136448482Y-67803637D01*
X136343475Y-67775500D01*
X132261525Y-67775500D01*
X132156517Y-67803637D01*
X132121514Y-67813016D01*
X131995986Y-67885489D01*
X131995983Y-67885491D01*
X131319590Y-68561883D01*
X131258267Y-68595368D01*
X131188575Y-68590384D01*
X131132642Y-68548512D01*
X131108225Y-68483048D01*
X131123077Y-68414775D01*
X131132502Y-68400079D01*
X134421081Y-63990890D01*
X147928577Y-46047114D01*
X147928957Y-46046613D01*
X148340660Y-45508456D01*
X148341318Y-45507606D01*
X148711761Y-45034160D01*
X148712997Y-45032610D01*
X148783726Y-44945226D01*
X149044802Y-44622671D01*
X149046648Y-44620445D01*
X149342469Y-44272483D01*
X149345234Y-44269342D01*
X149606784Y-43982448D01*
X149610967Y-43978081D01*
X149839015Y-43751384D01*
X149845281Y-43745572D01*
X150045568Y-43572308D01*
X150052239Y-43566930D01*
X150130434Y-43508252D01*
X150136152Y-43504209D01*
X150210032Y-43455048D01*
X150216958Y-43450761D01*
X150280719Y-43414158D01*
X150289052Y-43409788D01*
X150314471Y-43397665D01*
X150342439Y-43384327D01*
X150352281Y-43380146D01*
X150395522Y-43363942D01*
X150406828Y-43360313D01*
X150441030Y-43351123D01*
X150453603Y-43348434D01*
X150480907Y-43344064D01*
X150494277Y-43342663D01*
X150517927Y-43341475D01*
X150531461Y-43341535D01*
G37*
G04 #@! TD.AperFunction*
G04 #@! TA.AperFunction,Conductor*
G36*
X151065703Y-48306674D02*
G01*
X151072181Y-48312706D01*
X151363181Y-48603706D01*
X151396666Y-48665029D01*
X151399500Y-48691387D01*
X151399500Y-48697259D01*
X151380000Y-48763667D01*
X151380000Y-50386722D01*
X151303694Y-50342667D01*
X151189244Y-50312000D01*
X151070756Y-50312000D01*
X150956306Y-50342667D01*
X150880000Y-50386722D01*
X150880000Y-48756413D01*
X150868678Y-48741546D01*
X150860500Y-48697259D01*
X150860500Y-48400387D01*
X150880185Y-48333348D01*
X150932989Y-48287593D01*
X151002147Y-48277649D01*
X151065703Y-48306674D01*
G37*
G04 #@! TD.AperFunction*
M02*
