<?xml version="1.0" encoding="UTF-8" standalone="no"?>
<!-- Created with Inkscape (http://www.inkscape.org/) -->

<svg
   version="1.1"
   id="svg824"
   width="80.000031mm"
   height="99.5mm"
   viewBox="0 0 302.36232 376.06299"
   sodipodi:docname="christmas_tree_round.svg"
   inkscape:version="1.4 (86a8ad7, 2024-10-11)"
   xmlns:inkscape="http://www.inkscape.org/namespaces/inkscape"
   xmlns:sodipodi="http://sodipodi.sourceforge.net/DTD/sodipodi-0.dtd"
   xmlns="http://www.w3.org/2000/svg"
   xmlns:svg="http://www.w3.org/2000/svg">
  <defs
     id="defs828" />
  <sodipodi:namedview
     id="namedview826"
     pagecolor="#ffffff"
     bordercolor="#666666"
     borderopacity="1.0"
     inkscape:pageshadow="2"
     inkscape:pageopacity="0.0"
     inkscape:pagecheckerboard="0"
     showgrid="false"
     inkscape:zoom="2.7441861"
     inkscape:cx="201.33474"
     inkscape:cy="198.9661"
     inkscape:window-width="3731"
     inkscape:window-height="2126"
     inkscape:window-x="98"
     inkscape:window-y="-11"
     inkscape:window-maximized="1"
     inkscape:current-layer="g830"
     inkscape:document-units="mm"
     lock-margins="true"
     scale-x="5.37953"
     fit-margin-top="1"
     fit-margin-left="1"
     fit-margin-right="1"
     fit-margin-bottom="1"
     inkscape:showpageshadow="2"
     inkscape:deskcolor="#d1d1d1" />
  <g
     inkscape:groupmode="layer"
     inkscape:label="Image"
     id="g830"
     transform="translate(-233.56223,-284.51136)">
    <path
       style="fill:none;stroke:#000000;stroke-width:0.681539;stroke-opacity:1"
       d="m 339.50145,659.02433 c -1.727,-1.20569 -1.73288,-1.25767 -1.95016,-17.29573 l -0.113,-8.34083 -0.10494,-7.74572 -14.08991,-0.79869 c -16.35667,-0.92718 -29.88437,-3.22889 -44.07576,-5.11334 -16.19846,-2.15097 -40.58975,-6.40177 -42.39828,-7.38915 -2.5313,-1.38197 -3.50995,-3.65902 -2.4418,-5.68159 0.8072,-1.52854 20.89362,-28.34704 55.87825,-74.60618 7.63089,-10.09006 13.6364,-18.52287 13.34551,-18.73965 -0.29081,-0.21676 -3.4979,-0.76104 -7.12697,-1.20943 -3.62914,-0.4484 -11.71853,-1.7646 -17.97658,-2.92505 -12.05494,-2.23537 -13.94634,-3.09041 -13.94634,-6.30465 0,-1.25809 14.56664,-20.98814 59.95285,-81.20433 2.19002,-2.90559 4.13982,-5.63808 4.33294,-6.07223 0.24958,-0.56114 -1.51459,-1.01236 -6.10314,-1.56123 -10.3984,-1.24373 -25.27779,-3.87757 -27.49575,-4.86716 -2.08924,-0.93214 -3.24155,-3.19909 -2.63027,-5.17479 0.27585,-0.89188 52.46401,-70.6213 80.95669,-108.16764 8.78685,-11.57901 10.63025,-12.72278 14.91337,-9.25386 1.18224,0.9575 18.41615,23.39134 38.29762,49.85304 19.88143,26.46166 39.38869,52.38527 43.34935,57.60794 4.35412,5.74141 7.20316,10.137 7.20572,11.11741 0.004,1.75747 -2.09432,4.08353 -4.18979,4.64291 -2.76519,0.73822 -23.54164,4.11494 -27.9069,4.53565 -2.52215,0.2431 -4.58577,0.64775 -4.58577,0.89931 0,0.25157 1.60741,2.56497 3.5721,5.14089 1.9646,2.57601 5.80783,7.67469 8.54044,11.33068 5.7082,7.63668 8.40182,11.21169 18.36371,24.37251 17.58133,23.22684 32.84956,43.72979 33.54321,45.04328 1.00669,1.90621 -0.43113,4.88992 -2.80645,5.82369 -2.11076,0.82975 -29.9859,5.78698 -32.62009,5.80109 -4.04014,0.0216 -3.87911,0.75741 1.80865,8.26464 3.01497,3.97958 8.26045,10.93894 11.65651,15.46528 3.39604,4.52634 16.47992,21.87313 29.07538,38.54835 12.59545,16.67531 23.20829,31.0166 23.58414,31.86948 0.87916,1.99498 -0.52512,4.63541 -3.0072,5.65436 -2.08028,0.85405 -27.34026,5.25525 -41.08262,7.15821 -14.43061,1.99825 -28.9096,4.39614 -44.74187,5.2231 l -14.49139,0.75692 v 15.09167 c 0,15.74174 -0.41227,18.09933 -3.33463,19.06686 -0.65333,0.21626 -26.87481,-0.0623 -44.35174,-0.0623 -30.18471,0 -43.15967,0.39491 -44.80509,-0.75373 z"
       id="path914"
       sodipodi:nodetypes="ssccsssssssssssssssssscsssssssssssssssscssss" />
  </g>
</svg>
